<?xml version="1.0" standalone="no"?>
<!DOCTYPE svg PUBLIC "-//W3C//DTD SVG 1.1//EN"
  "http://www.w3.org/Graphics/SVG/1.1/DTD/svg11.dtd">
<!-- Created with matplotlib (http://matplotlib.sourceforge.net/) -->
<svg width="585" height="441" viewBox="0 0 585 441"
   xmlns="http://www.w3.org/2000/svg"
   xmlns:xlink="http://www.w3.org/1999/xlink"
   version="1.1"
   id="svg1">
<g id="figure1">
<polygon style="fill: #ffffff; stroke: #ffffff; stroke-width: 1.000000; stroke-linejoin: miter; stroke-linecap: square;  opacity: 1.000000"  points = "0.000000,441.000000 0.000000,0.000000 585.000000,0.000000 585.000000,441.000000"/>
<g id="axes1">
<polygon style="fill: #ffffff; stroke: #000000; stroke-width: 1.000000; stroke-linejoin: miter; stroke-linecap: square;  opacity: 1.000000"  points = "73.125000,396.900000 73.125000,44.100000 526.500000,44.100000 526.500000,396.900000"/>
<defs>
    <clipPath id="7240474723315632415">
    <rect x="73.125000" y="44.100000" width="453.375000" height="352.800000"
    style="stroke: gray; fill: none;"/>
    </clipPath>
</defs>
<polygon style="fill: #0000ff; opacity: 1.000000" clip-path="url(#7240474723315632415)" points = "74.678263,42.300000 73.112263,43.200000 73.112263,45.000000 74.678263,45.900000 76.244263,45.000000 76.244263,43.200000"/>
<polygon style="fill: #0000ff; opacity: 1.000000" clip-path="url(#7240474723315632415)" points = "77.223510,235.695876 75.657510,236.595876 75.657510,238.395876 77.223510,239.295876 78.789510,238.395876 78.789510,236.595876"/>
<polygon style="fill: #0000ff; opacity: 1.000000" clip-path="url(#7240474723315632415)" points = "85.139437,314.433662 83.573437,315.333662 83.573437,317.133662 85.139437,318.033662 86.705438,317.133662 86.705438,315.333662"/>
<polygon style="fill: #0000ff; opacity: 1.000000" clip-path="url(#7240474723315632415)" points = "107.977750,292.802466 106.411750,293.702466 106.411750,295.502466 107.977750,296.402466 109.543750,295.502466 109.543750,293.702466"/>
<polygon style="fill: #0000ff; opacity: 1.000000" clip-path="url(#7240474723315632415)" points = "117.603808,174.539763 116.037808,175.439763 116.037808,177.239763 117.603808,178.139763 119.169808,177.239763 119.169808,175.439763"/>
<polygon style="fill: #0000ff; opacity: 1.000000" clip-path="url(#7240474723315632415)" points = "135.299941,258.042234 133.733941,258.942234 133.733941,260.742234 135.299941,261.642234 136.865941,260.742234 136.865941,258.942234"/>
<polygon style="fill: #0000ff; opacity: 1.000000" clip-path="url(#7240474723315632415)" points = "141.957299,381.775449 140.391299,382.675449 140.391299,384.475449 141.957299,385.375449 143.523299,384.475449 143.523299,382.675449"/>
<polygon style="fill: #0000ff; opacity: 1.000000" clip-path="url(#7240474723315632415)" points = "156.107133,303.809975 154.541133,304.709975 154.541133,306.509975 156.107133,307.409975 157.673133,306.509975 157.673133,304.709975"/>
<polygon style="fill: #0000ff; opacity: 1.000000" clip-path="url(#7240474723315632415)" points = "170.013958,258.026343 168.447958,258.926343 168.447958,260.726343 170.013958,261.626343 171.579958,260.726343 171.579958,258.926343"/>
<polygon style="fill: #0000ff; opacity: 1.000000" clip-path="url(#7240474723315632415)" points = "172.033290,279.262771 170.467290,280.162771 170.467290,281.962771 172.033290,282.862771 173.599290,281.962771 173.599290,280.162771"/>
<polygon style="fill: #0000ff; opacity: 1.000000" clip-path="url(#7240474723315632415)" points = "206.554169,393.508483 204.988169,394.408483 204.988169,396.208483 206.554169,397.108483 208.120169,396.208483 208.120169,394.408483"/>
<polygon style="fill: #0000ff; opacity: 1.000000" clip-path="url(#7240474723315632415)" points = "212.507890,205.737009 210.941890,206.637009 210.941890,208.437009 212.507890,209.337009 214.073890,208.437009 214.073890,206.637009"/>
<polygon style="fill: #0000ff; opacity: 1.000000" clip-path="url(#7240474723315632415)" points = "214.492765,193.275113 212.926765,194.175113 212.926765,195.975113 214.492765,196.875113 216.058765,195.975113 216.058765,194.175113"/>
<polygon style="fill: #0000ff; opacity: 1.000000" clip-path="url(#7240474723315632415)" points = "217.441517,290.794947 215.875517,291.694947 215.875517,293.494947 217.441517,294.394947 219.007517,293.494947 219.007517,291.694947"/>
<polygon style="fill: #0000ff; opacity: 1.000000" clip-path="url(#7240474723315632415)" points = "221.219037,328.298853 219.653037,329.198853 219.653037,330.998853 221.219037,331.898853 222.785037,330.998853 222.785037,329.198853"/>
<polygon style="fill: #0000ff; opacity: 1.000000" clip-path="url(#7240474723315632415)" points = "221.540027,373.230507 219.974027,374.130507 219.974027,375.930507 221.540027,376.830507 223.106027,375.930507 223.106027,374.130507"/>
<polygon style="fill: #0000ff; opacity: 1.000000" clip-path="url(#7240474723315632415)" points = "222.265426,281.958706 220.699426,282.858706 220.699426,284.658706 222.265426,285.558706 223.831426,284.658706 223.831426,282.858706"/>
<polygon style="fill: #0000ff; opacity: 1.000000" clip-path="url(#7240474723315632415)" points = "227.810203,154.841627 226.244203,155.741627 226.244203,157.541627 227.810203,158.441627 229.376203,157.541627 229.376203,155.741627"/>
<polygon style="fill: #0000ff; opacity: 1.000000" clip-path="url(#7240474723315632415)" points = "229.894821,164.822795 228.328821,165.722795 228.328821,167.522795 229.894821,168.422795 231.460821,167.522795 231.460821,165.722795"/>
<polygon style="fill: #0000ff; opacity: 1.000000" clip-path="url(#7240474723315632415)" points = "229.924744,293.898996 228.358744,294.798996 228.358744,296.598996 229.924744,297.498996 231.490744,296.598996 231.490744,294.798996"/>
<polygon style="fill: #0000ff; opacity: 1.000000" clip-path="url(#7240474723315632415)" points = "233.952527,281.818751 232.386527,282.718751 232.386527,284.518751 233.952527,285.418751 235.518527,284.518751 235.518527,282.718751"/>
<polygon style="fill: #0000ff; opacity: 1.000000" clip-path="url(#7240474723315632415)" points = "234.846583,285.605032 233.280583,286.505032 233.280583,288.305032 234.846583,289.205032 236.412583,288.305032 236.412583,286.505032"/>
<polygon style="fill: #0000ff; opacity: 1.000000" clip-path="url(#7240474723315632415)" points = "240.703281,377.354743 239.137281,378.254743 239.137281,380.054743 240.703281,380.954743 242.269281,380.054743 242.269281,378.254743"/>
<polygon style="fill: #0000ff; opacity: 1.000000" clip-path="url(#7240474723315632415)" points = "248.832295,299.872569 247.266295,300.772569 247.266295,302.572569 248.832295,303.472569 250.398295,302.572569 250.398295,300.772569"/>
<polygon style="fill: #0000ff; opacity: 1.000000" clip-path="url(#7240474723315632415)" points = "249.811585,306.838025 248.245585,307.738025 248.245585,309.538025 249.811585,310.438025 251.377585,309.538025 251.377585,307.738025"/>
<polygon style="fill: #0000ff; opacity: 1.000000" clip-path="url(#7240474723315632415)" points = "253.332495,267.796199 251.766495,268.696199 251.766495,270.496199 253.332495,271.396199 254.898495,270.496199 254.898495,268.696199"/>
<polygon style="fill: #0000ff; opacity: 1.000000" clip-path="url(#7240474723315632415)" points = "256.523348,282.647041 254.957348,283.547041 254.957348,285.347041 256.523348,286.247041 258.089348,285.347041 258.089348,283.547041"/>
<polygon style="fill: #0000ff; opacity: 1.000000" clip-path="url(#7240474723315632415)" points = "266.433219,358.084900 264.867219,358.984900 264.867219,360.784900 266.433219,361.684900 267.999219,360.784900 267.999219,358.984900"/>
<polygon style="fill: #0000ff; opacity: 1.000000" clip-path="url(#7240474723315632415)" points = "273.593824,292.663388 272.027824,293.563388 272.027824,295.363388 273.593824,296.263388 275.159824,295.363388 275.159824,293.563388"/>
<polygon style="fill: #0000ff; opacity: 1.000000" clip-path="url(#7240474723315632415)" points = "278.032365,217.395368 276.466365,218.295368 276.466365,220.095368 278.032365,220.995368 279.598365,220.095368 279.598365,218.295368"/>
<polygon style="fill: #0000ff; opacity: 1.000000" clip-path="url(#7240474723315632415)" points = "279.776045,261.794792 278.210045,262.694792 278.210045,264.494792 279.776045,265.394792 281.342045,264.494792 281.342045,262.694792"/>
<polygon style="fill: #0000ff; opacity: 1.000000" clip-path="url(#7240474723315632415)" points = "290.046803,325.426575 288.480803,326.326575 288.480803,328.126575 290.046803,329.026575 291.612802,328.126575 291.612802,326.326575"/>
<polygon style="fill: #0000ff; opacity: 1.000000" clip-path="url(#7240474723315632415)" points = "296.793929,233.413341 295.227929,234.313341 295.227929,236.113341 296.793929,237.013341 298.359929,236.113341 298.359929,234.313341"/>
<polygon style="fill: #0000ff; opacity: 1.000000" clip-path="url(#7240474723315632415)" points = "303.029649,250.330772 301.463649,251.230772 301.463649,253.030772 303.029649,253.930772 304.595649,253.030772 304.595649,251.230772"/>
<polygon style="fill: #0000ff; opacity: 1.000000" clip-path="url(#7240474723315632415)" points = "303.396883,267.076876 301.830883,267.976876 301.830883,269.776876 303.396883,270.676876 304.962883,269.776876 304.962883,267.976876"/>
<polygon style="fill: #0000ff; opacity: 1.000000" clip-path="url(#7240474723315632415)" points = "307.988665,133.007596 306.422665,133.907596 306.422665,135.707596 307.988665,136.607596 309.554665,135.707596 309.554665,133.907596"/>
<polygon style="fill: #0000ff; opacity: 1.000000" clip-path="url(#7240474723315632415)" points = "312.540550,224.584959 310.974550,225.484959 310.974550,227.284959 312.540550,228.184959 314.106550,227.284959 314.106550,225.484959"/>
<polygon style="fill: #0000ff; opacity: 1.000000" clip-path="url(#7240474723315632415)" points = "317.900349,348.122489 316.334349,349.022489 316.334349,350.822489 317.900349,351.722489 319.466349,350.822489 319.466349,349.022489"/>
<polygon style="fill: #0000ff; opacity: 1.000000" clip-path="url(#7240474723315632415)" points = "322.699777,342.642552 321.133777,343.542552 321.133777,345.342552 322.699777,346.242552 324.265777,345.342552 324.265777,343.542552"/>
<polygon style="fill: #0000ff; opacity: 1.000000" clip-path="url(#7240474723315632415)" points = "329.064255,329.858730 327.498255,330.758730 327.498255,332.558730 329.064255,333.458730 330.630255,332.558730 330.630255,330.758730"/>
<polygon style="fill: #0000ff; opacity: 1.000000" clip-path="url(#7240474723315632415)" points = "330.849646,318.770311 329.283646,319.670311 329.283646,321.470311 330.849646,322.370311 332.415646,321.470311 332.415646,319.670311"/>
<polygon style="fill: #0000ff; opacity: 1.000000" clip-path="url(#7240474723315632415)" points = "339.602504,338.195662 338.036504,339.095662 338.036504,340.895662 339.602504,341.795662 341.168503,340.895662 341.168503,339.095662"/>
<polygon style="fill: #0000ff; opacity: 1.000000" clip-path="url(#7240474723315632415)" points = "341.821321,257.003746 340.255321,257.903746 340.255321,259.703746 341.821321,260.603746 343.387321,259.703746 343.387321,257.903746"/>
<polygon style="fill: #0000ff; opacity: 1.000000" clip-path="url(#7240474723315632415)" points = "342.035314,358.086485 340.469314,358.986485 340.469314,360.786485 342.035314,361.686485 343.601314,360.786485 343.601314,358.986485"/>
<polygon style="fill: #0000ff; opacity: 1.000000" clip-path="url(#7240474723315632415)" points = "343.475233,206.514273 341.909233,207.414273 341.909233,209.214273 343.475233,210.114273 345.041233,209.214273 345.041233,207.414273"/>
<polygon style="fill: #0000ff; opacity: 1.000000" clip-path="url(#7240474723315632415)" points = "347.740585,230.674382 346.174585,231.574382 346.174585,233.374382 347.740585,234.274382 349.306585,233.374382 349.306585,231.574382"/>
<polygon style="fill: #0000ff; opacity: 1.000000" clip-path="url(#7240474723315632415)" points = "357.289569,379.566425 355.723569,380.466425 355.723569,382.266425 357.289569,383.166425 358.855569,382.266425 358.855569,380.466425"/>
<polygon style="fill: #0000ff; opacity: 1.000000" clip-path="url(#7240474723315632415)" points = "357.456411,324.148753 355.890411,325.048753 355.890411,326.848753 357.456411,327.748753 359.022411,326.848753 359.022411,325.048753"/>
<polygon style="fill: #0000ff; opacity: 1.000000" clip-path="url(#7240474723315632415)" points = "370.980587,143.424387 369.414587,144.324387 369.414587,146.124387 370.980587,147.024387 372.546587,146.124387 372.546587,144.324387"/>
<polygon style="fill: #0000ff; opacity: 1.000000" clip-path="url(#7240474723315632415)" points = "382.967822,299.428782 381.401822,300.328782 381.401822,302.128782 382.967822,303.028782 384.533822,302.128782 384.533822,300.328782"/>
<polygon style="fill: #0000ff; opacity: 1.000000" clip-path="url(#7240474723315632415)" points = "390.970798,342.579383 389.404798,343.479383 389.404798,345.279383 390.970798,346.179383 392.536798,345.279383 392.536798,343.479383"/>
<polygon style="fill: #0000ff; opacity: 1.000000" clip-path="url(#7240474723315632415)" points = "405.663775,332.603859 404.097775,333.503859 404.097775,335.303859 405.663775,336.203859 407.229775,335.303859 407.229775,333.503859"/>
<polygon style="fill: #0000ff; opacity: 1.000000" clip-path="url(#7240474723315632415)" points = "412.307532,184.349303 410.741532,185.249303 410.741532,187.049303 412.307532,187.949303 413.873532,187.049303 413.873532,185.249303"/>
<polygon style="fill: #0000ff; opacity: 1.000000" clip-path="url(#7240474723315632415)" points = "429.409744,299.435096 427.843744,300.335096 427.843744,302.135096 429.409744,303.035096 430.975744,302.135096 430.975744,300.335096"/>
<polygon style="fill: #0000ff; opacity: 1.000000" clip-path="url(#7240474723315632415)" points = "433.096589,277.491942 431.530589,278.391942 431.530589,280.191942 433.096589,281.091942 434.662589,280.191942 434.662589,278.391942"/>
<polygon style="fill: #0000ff; opacity: 1.000000" clip-path="url(#7240474723315632415)" points = "435.315406,335.336978 433.749407,336.236978 433.749407,338.036978 435.315406,338.936978 436.881406,338.036978 436.881406,336.236978"/>
<polygon style="fill: #0000ff; opacity: 1.000000" clip-path="url(#7240474723315632415)" points = "436.379931,207.160412 434.813931,208.060412 434.813931,209.860412 436.379931,210.760412 437.945931,209.860412 437.945931,208.060412"/>
<polygon style="fill: #0000ff; opacity: 1.000000" clip-path="url(#7240474723315632415)" points = "440.022346,244.777963 438.456346,245.677963 438.456346,247.477963 440.022346,248.377963 441.588346,247.477963 441.588346,245.677963"/>
<polygon style="fill: #0000ff; opacity: 1.000000" clip-path="url(#7240474723315632415)" points = "451.211641,242.953282 449.645641,243.853282 449.645641,245.653282 451.211641,246.553282 452.777641,245.653282 452.777641,243.853282"/>
<polygon style="fill: #0000ff; opacity: 1.000000" clip-path="url(#7240474723315632415)" points = "453.360638,384.505371 451.794638,385.405371 451.794638,387.205371 453.360638,388.105371 454.926638,387.205371 454.926638,385.405371"/>
<polygon style="fill: #0000ff; opacity: 1.000000" clip-path="url(#7240474723315632415)" points = "456.128946,350.062613 454.562946,350.962613 454.562946,352.762613 456.128946,353.662613 457.694946,352.762613 457.694946,350.962613"/>
<polygon style="fill: #0000ff; opacity: 1.000000" clip-path="url(#7240474723315632415)" points = "470.232535,327.951429 468.666536,328.851429 468.666536,330.651429 470.232535,331.551429 471.798535,330.651429 471.798535,328.851429"/>
<polygon style="fill: #0000ff; opacity: 1.000000" clip-path="url(#7240474723315632415)" points = "470.305982,280.746847 468.739982,281.646847 468.739982,283.446847 470.305982,284.346847 471.871982,283.446847 471.871982,281.646847"/>
<polygon style="fill: #0000ff; opacity: 1.000000" clip-path="url(#7240474723315632415)" points = "471.232681,362.428693 469.666681,363.328693 469.666681,365.128693 471.232681,366.028693 472.798681,365.128693 472.798681,363.328693"/>
<polygon style="fill: #0000ff; opacity: 1.000000" clip-path="url(#7240474723315632415)" points = "473.031673,278.470352 471.465673,279.370352 471.465673,281.170352 473.031673,282.070352 474.597673,281.170352 474.597673,279.370352"/>
<polygon style="fill: #0000ff; opacity: 1.000000" clip-path="url(#7240474723315632415)" points = "483.752178,269.026085 482.186178,269.926085 482.186178,271.726085 483.752178,272.626085 485.318178,271.726085 485.318178,269.926085"/>
<polygon style="fill: #0000ff; opacity: 1.000000" clip-path="url(#7240474723315632415)" points = "488.151729,313.770676 486.585729,314.670676 486.585729,316.470676 488.151729,317.370676 489.717729,316.470676 489.717729,314.670676"/>
<polygon style="fill: #0000ff; opacity: 1.000000" clip-path="url(#7240474723315632415)" points = "498.889462,371.484400 497.323463,372.384400 497.323463,374.184400 498.889462,375.084400 500.455462,374.184400 500.455462,372.384400"/>
<polygon style="fill: #0000ff; opacity: 1.000000" clip-path="url(#7240474723315632415)" points = "509.281724,331.027499 507.715724,331.927499 507.715724,333.727499 509.281724,334.627499 510.847724,333.727499 510.847724,331.927499"/>
<polygon style="fill: #0000ff; opacity: 1.000000" clip-path="url(#7240474723315632415)" points = "524.982101,323.765128 523.416100,324.665128 523.416100,326.465128 524.982101,327.365128 526.548101,326.465128 526.548101,324.665128"/>
<path style="fill: none; stroke: #008000; stroke-width: 0.500000; stroke-linejoin: miter; stroke-linecap: square;  opacity: 1.000000" clip-path="url(#7240474723315632415)" d="M 74.678263,205.532312 L 77.223510,208.674176 L 85.139437,217.961657 L 107.977750,240.855841 L 117.603808,248.879643 L 135.299941,261.326144 L 141.957299,265.283932 L 156.107133,272.478849 L 170.013958,278.055187 L 172.033290,278.750097 L 206.554169,286.681436 L 212.507890,287.384272 L 214.492765,287.580927 L 217.441517,287.839691 L 221.219037,288.114796 L 221.540027,288.135333 L 222.265426,288.180141 L 227.810203,288.451072 L 229.894821,288.521352 L 229.924744,288.522239 L 233.952527,288.611201 L 234.846583,288.622930 L 240.703281,288.631428 L 248.832295,288.461470 L 249.811585,288.427899 L 253.332495,288.285677 L 256.523348,288.129132 L 266.433219,287.494110 L 273.593824,286.916700 L 278.032365,286.518500 L 279.776045,286.354885 L 290.046803,285.326614 L 296.793929,284.609835 L 303.029649,283.934681 L 303.396883,283.894822 L 307.988665,283.397725 L 312.540550,282.910764 L 317.900349,282.351510 L 322.699777,281.869951 L 329.064255,281.269604 L 330.849646,281.110665 L 339.602504,280.405107 L 341.821321,280.248390 L 342.035314,280.233800 L 343.475233,280.138103 L 347.740585,279.881207 L 357.289569,279.467693 L 357.456411,279.462651 L 370.980587,279.340859 L 382.967822,279.775140 L 390.970798,280.395450 L 405.663775,282.323705 L 412.307532,283.567412 L 429.409744,287.970095 L 433.096589,289.164229 L 435.315406,289.927397 L 436.379931,290.305629 L 440.022346,291.660121 L 451.211641,296.427901 L 453.360638,297.452649 L 456.128946,298.826417 L 470.232535,306.803454 L 470.305982,306.849430 L 471.232681,307.433587 L 473.031673,308.589253 L 483.752178,316.084252 L 488.151729,319.471342 L 498.889462,328.535134 L 509.281724,338.433036 L 524.982101,355.618147 "/>
<g id="matplotlib.axis1">
<g id="xtick1">
<text style="font-size: 9.996000; font-family: Bitstream Vera Serif; font-style: Roman; fill: #000000;" x="70.625000" y="406.900000" >0</text>
</g>
<g id="xtick2">
<path style="fill: none; stroke: #000000; stroke-width: 0.500000; stroke-linejoin: miter; stroke-linecap: butt;  opacity: 1.000000"  d="M 163.800000,396.900000 L 163.800000,391.900000"/>
<path style="fill: none; stroke: #000000; stroke-width: 0.500000; stroke-linejoin: miter; stroke-linecap: butt;  opacity: 1.000000"  d="M 163.800000,49.100000 L 163.800000,44.100000"/>
<text style="font-size: 9.996000; font-family: Bitstream Vera Serif; font-style: Roman; fill: #000000;" x="162.300000" y="406.900000" >1</text>
</g>
<g id="xtick3">
<path style="fill: none; stroke: #000000; stroke-width: 0.500000; stroke-linejoin: miter; stroke-linecap: butt;  opacity: 1.000000"  d="M 254.475000,396.900000 L 254.475000,391.900000"/>
<path style="fill: none; stroke: #000000; stroke-width: 0.500000; stroke-linejoin: miter; stroke-linecap: butt;  opacity: 1.000000"  d="M 254.475000,49.100000 L 254.475000,44.100000"/>
<text style="font-size: 9.996000; font-family: Bitstream Vera Serif; font-style: Roman; fill: #000000;" x="251.975000" y="406.900000" >2</text>
</g>
<g id="xtick4">
<path style="fill: none; stroke: #000000; stroke-width: 0.500000; stroke-linejoin: miter; stroke-linecap: butt;  opacity: 1.000000"  d="M 345.150000,396.900000 L 345.150000,391.900000"/>
<path style="fill: none; stroke: #000000; stroke-width: 0.500000; stroke-linejoin: miter; stroke-linecap: butt;  opacity: 1.000000"  d="M 345.150000,49.100000 L 345.150000,44.100000"/>
<text style="font-size: 9.996000; font-family: Bitstream Vera Serif; font-style: Roman; fill: #000000;" x="342.650000" y="406.900000" >3</text>
</g>
<g id="xtick5">
<path style="fill: none; stroke: #000000; stroke-width: 0.500000; stroke-linejoin: miter; stroke-linecap: butt;  opacity: 1.000000"  d="M 435.825000,396.900000 L 435.825000,391.900000"/>
<path style="fill: none; stroke: #000000; stroke-width: 0.500000; stroke-linejoin: miter; stroke-linecap: butt;  opacity: 1.000000"  d="M 435.825000,49.100000 L 435.825000,44.100000"/>
<text style="font-size: 9.996000; font-family: Bitstream Vera Serif; font-style: Roman; fill: #000000;" x="433.325000" y="406.900000" >4</text>
</g>
<g id="xtick6">
<text style="font-size: 9.996000; font-family: Bitstream Vera Serif; font-style: Roman; fill: #000000;" x="524.000000" y="406.900000" >5</text>
</g>
<text style="font-size: 12.000000; font-family: Bitstream Vera Serif; font-style: Roman; fill: #000000;" x="273.812500" y="420.900000" >Distance</text>
<text style="font-size: 9.996000; font-family: Bitstream Vera Serif; font-style: Roman; fill: #000000;" x="495.500000" y="416.900000" >x1e+5</text>
</g>
<g id="matplotlib.axis2">
<g id="ytick1">
<text style="font-size: 9.996000; font-family: Bitstream Vera Serif; font-style: Roman; fill: #000000;" x="56.125000" y="400.400000" >0.0</text>
</g>
<g id="ytick2">
<path style="fill: none; stroke: #000000; stroke-width: 0.500000; stroke-linejoin: miter; stroke-linecap: butt;  opacity: 1.000000"  d="M 73.125000,326.340000 L 78.125000,326.340000"/>
<path style="fill: none; stroke: #000000; stroke-width: 0.500000; stroke-linejoin: miter; stroke-linecap: butt;  opacity: 1.000000"  d="M 521.500000,326.340000 L 526.500000,326.340000"/>
<text style="font-size: 9.996000; font-family: Bitstream Vera Serif; font-style: Roman; fill: #000000;" x="56.125000" y="329.840000" >0.2</text>
</g>
<g id="ytick3">
<path style="fill: none; stroke: #000000; stroke-width: 0.500000; stroke-linejoin: miter; stroke-linecap: butt;  opacity: 1.000000"  d="M 73.125000,255.780000 L 78.125000,255.780000"/>
<path style="fill: none; stroke: #000000; stroke-width: 0.500000; stroke-linejoin: miter; stroke-linecap: butt;  opacity: 1.000000"  d="M 521.500000,255.780000 L 526.500000,255.780000"/>
<text style="font-size: 9.996000; font-family: Bitstream Vera Serif; font-style: Roman; fill: #000000;" x="56.125000" y="259.280000" >0.4</text>
</g>
<g id="ytick4">
<path style="fill: none; stroke: #000000; stroke-width: 0.500000; stroke-linejoin: miter; stroke-linecap: butt;  opacity: 1.000000"  d="M 73.125000,185.220000 L 78.125000,185.220000"/>
<path style="fill: none; stroke: #000000; stroke-width: 0.500000; stroke-linejoin: miter; stroke-linecap: butt;  opacity: 1.000000"  d="M 521.500000,185.220000 L 526.500000,185.220000"/>
<text style="font-size: 9.996000; font-family: Bitstream Vera Serif; font-style: Roman; fill: #000000;" x="56.125000" y="188.720000" >0.6</text>
</g>
<g id="ytick5">
<path style="fill: none; stroke: #000000; stroke-width: 0.500000; stroke-linejoin: miter; stroke-linecap: butt;  opacity: 1.000000"  d="M 73.125000,114.660000 L 78.125000,114.660000"/>
<path style="fill: none; stroke: #000000; stroke-width: 0.500000; stroke-linejoin: miter; stroke-linecap: butt;  opacity: 1.000000"  d="M 521.500000,114.660000 L 526.500000,114.660000"/>
<text style="font-size: 9.996000; font-family: Bitstream Vera Serif; font-style: Roman; fill: #000000;" x="56.125000" y="118.160000" >0.8</text>
</g>
<g id="ytick6">
<text style="font-size: 9.996000; font-family: Bitstream Vera Serif; font-style: Roman; fill: #000000;" x="57.125000" y="47.600000" >1.0</text>
</g>
<text style="font-size: 12.000000; font-family: Bitstream Vera Serif; font-style: Roman; fill: #000000;" x="51.125000" y="225.500000" transform="translate(51.125000,225.500000) rotate(-90.0) translate(-51.125000,-225.500000)">D'</text>
</g>
<path style="fill: none; stroke: #000000; stroke-width: 1.000000; stroke-linejoin: miter; stroke-linecap: square;  opacity: 1.000000"  d="M 73.125000,396.900000 L 526.500000,396.900000 L 526.500000,44.100000 L 73.125000,44.100000 L 73.125000,396.900000 "/>
<text style="font-size: 14.400000; font-family: Bitstream Vera Serif; font-style: Roman; fill: #000000;" x="267.312500" y="37.044000" >LD decay</text>
</g>
</g>
</svg>
