<?xml version="1.0" standalone="no"?>
<!DOCTYPE svg PUBLIC "-//W3C//DTD SVG 1.1//EN"
  "http://www.w3.org/Graphics/SVG/1.1/DTD/svg11.dtd">
<!-- Created with matplotlib (http://matplotlib.sourceforge.net/) -->
<svg width="585" height="441" viewBox="0 0 585 441"
   xmlns="http://www.w3.org/2000/svg"
   xmlns:xlink="http://www.w3.org/1999/xlink"
   version="1.1"
   id="svg1">
<g id="figure1">
<polygon style="fill: #ffffff; stroke: #ffffff; stroke-width: 1.000000; stroke-linejoin: miter; stroke-linecap: square;  opacity: 1.000000"  points = "0.000000,441.000000 0.000000,0.000000 585.000000,0.000000 585.000000,441.000000"/>
<g id="axes1">
<polygon style="fill: #ffffff; stroke: #000000; stroke-width: 1.000000; stroke-linejoin: miter; stroke-linecap: square;  opacity: 1.000000"  points = "73.125000,396.900000 73.125000,44.100000 526.500000,44.100000 526.500000,396.900000"/>
<defs>
    <clipPath id="7240474723315632415">
    <rect x="73.125000" y="44.100000" width="453.375000" height="352.800000"
    style="stroke: gray; fill: none;"/>
    </clipPath>
</defs>
<polygon style="fill: #0000ff; opacity: 1.000000" clip-path="url(#7240474723315632415)" points = "74.678263,68.360549 73.112263,69.260549 73.112263,71.060549 74.678263,71.960549 76.244263,71.060549 76.244263,69.260549"/>
<polygon style="fill: #0000ff; opacity: 1.000000" clip-path="url(#7240474723315632415)" points = "77.223510,325.983698 75.657510,326.883698 75.657510,328.683698 77.223510,329.583698 78.789510,328.683698 78.789510,326.883698"/>
<polygon style="fill: #0000ff; opacity: 1.000000" clip-path="url(#7240474723315632415)" points = "85.139437,333.631423 83.573437,334.531423 83.573437,336.331423 85.139437,337.231423 86.705438,336.331423 86.705438,334.531423"/>
<polygon style="fill: #0000ff; opacity: 1.000000" clip-path="url(#7240474723315632415)" points = "107.977750,314.953878 106.411750,315.853878 106.411750,317.653878 107.977750,318.553878 109.543750,317.653878 109.543750,315.853878"/>
<polygon style="fill: #0000ff; opacity: 1.000000" clip-path="url(#7240474723315632415)" points = "117.603808,297.359132 116.037808,298.259132 116.037808,300.059132 117.603808,300.959132 119.169808,300.059132 119.169808,298.259132"/>
<polygon style="fill: #0000ff; opacity: 1.000000" clip-path="url(#7240474723315632415)" points = "135.299941,308.774997 133.733941,309.674997 133.733941,311.474997 135.299941,312.374997 136.865941,311.474997 136.865941,309.674997"/>
<polygon style="fill: #0000ff; opacity: 1.000000" clip-path="url(#7240474723315632415)" points = "141.957299,336.044433 140.391299,336.944433 140.391299,338.744433 141.957299,339.644433 143.523299,338.744433 143.523299,336.944433"/>
<polygon style="fill: #0000ff; opacity: 1.000000" clip-path="url(#7240474723315632415)" points = "156.107133,330.942078 154.541133,331.842078 154.541133,333.642078 156.107133,334.542078 157.673133,333.642078 157.673133,331.842078"/>
<polygon style="fill: #0000ff; opacity: 1.000000" clip-path="url(#7240474723315632415)" points = "170.013958,305.324316 168.447958,306.224316 168.447958,308.024316 170.013958,308.924316 171.579958,308.024316 171.579958,306.224316"/>
<polygon style="fill: #0000ff; opacity: 1.000000" clip-path="url(#7240474723315632415)" points = "172.033290,328.190939 170.467290,329.090939 170.467290,330.890939 172.033290,331.790939 173.599290,330.890939 173.599290,329.090939"/>
<polygon style="fill: #0000ff; opacity: 1.000000" clip-path="url(#7240474723315632415)" points = "206.554169,336.299210 204.988169,337.199210 204.988169,338.999210 206.554169,339.899210 208.120169,338.999210 208.120169,337.199210"/>
<polygon style="fill: #0000ff; opacity: 1.000000" clip-path="url(#7240474723315632415)" points = "212.507890,312.527216 210.941890,313.427216 210.941890,315.227216 212.507890,316.127216 214.073890,315.227216 214.073890,313.427216"/>
<polygon style="fill: #0000ff; opacity: 1.000000" clip-path="url(#7240474723315632415)" points = "214.492765,312.616257 212.926765,313.516257 212.926765,315.316257 214.492765,316.216257 216.058765,315.316257 216.058765,313.516257"/>
<polygon style="fill: #0000ff; opacity: 1.000000" clip-path="url(#7240474723315632415)" points = "217.441517,330.135806 215.875517,331.035806 215.875517,332.835806 217.441517,333.735806 219.007517,332.835806 219.007517,331.035806"/>
<polygon style="fill: #0000ff; opacity: 1.000000" clip-path="url(#7240474723315632415)" points = "221.219037,328.648955 219.653037,329.548955 219.653037,331.348955 221.219037,332.248955 222.785037,331.348955 222.785037,329.548955"/>
<polygon style="fill: #0000ff; opacity: 1.000000" clip-path="url(#7240474723315632415)" points = "221.540027,335.311801 219.974027,336.211801 219.974027,338.011801 221.540027,338.911801 223.106027,338.011801 223.106027,336.211801"/>
<polygon style="fill: #0000ff; opacity: 1.000000" clip-path="url(#7240474723315632415)" points = "222.265426,320.457209 220.699426,321.357209 220.699426,323.157209 222.265426,324.057209 223.831426,323.157209 223.831426,321.357209"/>
<polygon style="fill: #0000ff; opacity: 1.000000" clip-path="url(#7240474723315632415)" points = "227.810203,293.069993 226.244203,293.969993 226.244203,295.769993 227.810203,296.669993 229.376203,295.769993 229.376203,293.969993"/>
<polygon style="fill: #0000ff; opacity: 1.000000" clip-path="url(#7240474723315632415)" points = "229.894821,281.836282 228.328821,282.736282 228.328821,284.536282 229.894821,285.436282 231.460821,284.536282 231.460821,282.736282"/>
<polygon style="fill: #0000ff; opacity: 1.000000" clip-path="url(#7240474723315632415)" points = "229.924744,326.479255 228.358744,327.379255 228.358744,329.179255 229.924744,330.079255 231.490744,329.179255 231.490744,327.379255"/>
<polygon style="fill: #0000ff; opacity: 1.000000" clip-path="url(#7240474723315632415)" points = "233.952527,324.805561 232.386527,325.705561 232.386527,327.505561 233.952527,328.405561 235.518527,327.505561 235.518527,325.705561"/>
<polygon style="fill: #0000ff; opacity: 1.000000" clip-path="url(#7240474723315632415)" points = "234.846583,317.620767 233.280583,318.520767 233.280583,320.320767 234.846583,321.220767 236.412583,320.320767 236.412583,318.520767"/>
<polygon style="fill: #0000ff; opacity: 1.000000" clip-path="url(#7240474723315632415)" points = "240.703281,335.792489 239.137281,336.692489 239.137281,338.492489 240.703281,339.392489 242.269281,338.492489 242.269281,336.692489"/>
<polygon style="fill: #0000ff; opacity: 1.000000" clip-path="url(#7240474723315632415)" points = "248.832295,325.648081 247.266295,326.548081 247.266295,328.348081 248.832295,329.248081 250.398295,328.348081 250.398295,326.548081"/>
<polygon style="fill: #0000ff; opacity: 1.000000" clip-path="url(#7240474723315632415)" points = "249.811585,326.760534 248.245585,327.660534 248.245585,329.460534 249.811585,330.360534 251.377585,329.460534 251.377585,327.660534"/>
<polygon style="fill: #0000ff; opacity: 1.000000" clip-path="url(#7240474723315632415)" points = "253.332495,305.790217 251.766495,306.690217 251.766495,308.490217 253.332495,309.390217 254.898495,308.490217 254.898495,306.690217"/>
<polygon style="fill: #0000ff; opacity: 1.000000" clip-path="url(#7240474723315632415)" points = "256.523348,323.614685 254.957348,324.514685 254.957348,326.314685 256.523348,327.214685 258.089348,326.314685 258.089348,324.514685"/>
<polygon style="fill: #0000ff; opacity: 1.000000" clip-path="url(#7240474723315632415)" points = "266.433219,334.825025 264.867219,335.725025 264.867219,337.525025 266.433219,338.425025 267.999219,337.525025 267.999219,335.725025"/>
<polygon style="fill: #0000ff; opacity: 1.000000" clip-path="url(#7240474723315632415)" points = "273.593824,331.783372 272.027824,332.683372 272.027824,334.483372 273.593824,335.383372 275.159824,334.483372 275.159824,332.683372"/>
<polygon style="fill: #0000ff; opacity: 1.000000" clip-path="url(#7240474723315632415)" points = "278.032365,315.867034 276.466365,316.767034 276.466365,318.567034 278.032365,319.467034 279.598365,318.567034 279.598365,316.767034"/>
<polygon style="fill: #0000ff; opacity: 1.000000" clip-path="url(#7240474723315632415)" points = "279.776045,297.346170 278.210045,298.246170 278.210045,300.046170 279.776045,300.946170 281.342045,300.046170 281.342045,298.246170"/>
<polygon style="fill: #0000ff; opacity: 1.000000" clip-path="url(#7240474723315632415)" points = "290.046803,335.859055 288.480803,336.759055 288.480803,338.559055 290.046803,339.459055 291.612802,338.559055 291.612802,336.759055"/>
<polygon style="fill: #0000ff; opacity: 1.000000" clip-path="url(#7240474723315632415)" points = "296.793929,293.285821 295.227929,294.185821 295.227929,295.985821 296.793929,296.885821 298.359929,295.985821 298.359929,294.185821"/>
<polygon style="fill: #0000ff; opacity: 1.000000" clip-path="url(#7240474723315632415)" points = "303.029649,296.934218 301.463649,297.834218 301.463649,299.634218 303.029649,300.534218 304.595649,299.634218 304.595649,297.834218"/>
<polygon style="fill: #0000ff; opacity: 1.000000" clip-path="url(#7240474723315632415)" points = "303.396883,316.730316 301.830883,317.630316 301.830883,319.430316 303.396883,320.330316 304.962883,319.430316 304.962883,317.630316"/>
<polygon style="fill: #0000ff; opacity: 1.000000" clip-path="url(#7240474723315632415)" points = "307.988665,306.323656 306.422665,307.223656 306.422665,309.023656 307.988665,309.923656 309.554665,309.023656 309.554665,307.223656"/>
<polygon style="fill: #0000ff; opacity: 1.000000" clip-path="url(#7240474723315632415)" points = "312.540550,321.090213 310.974550,321.990213 310.974550,323.790213 312.540550,324.690213 314.106550,323.790213 314.106550,321.990213"/>
<polygon style="fill: #0000ff; opacity: 1.000000" clip-path="url(#7240474723315632415)" points = "317.900349,334.632666 316.334349,335.532666 316.334349,337.332666 317.900349,338.232666 319.466349,337.332666 319.466349,335.532666"/>
<polygon style="fill: #0000ff; opacity: 1.000000" clip-path="url(#7240474723315632415)" points = "322.699777,330.862615 321.133777,331.762615 321.133777,333.562615 322.699777,334.462615 324.265777,333.562615 324.265777,331.762615"/>
<polygon style="fill: #0000ff; opacity: 1.000000" clip-path="url(#7240474723315632415)" points = "329.064255,330.548267 327.498255,331.448267 327.498255,333.248267 329.064255,334.148267 330.630255,333.248267 330.630255,331.448267"/>
<polygon style="fill: #0000ff; opacity: 1.000000" clip-path="url(#7240474723315632415)" points = "330.849646,324.825942 329.283646,325.725942 329.283646,327.525942 330.849646,328.425942 332.415646,327.525942 332.415646,325.725942"/>
<polygon style="fill: #0000ff; opacity: 1.000000" clip-path="url(#7240474723315632415)" points = "339.602504,330.430544 338.036504,331.330544 338.036504,333.130544 339.602504,334.030544 341.168503,333.130544 341.168503,331.330544"/>
<polygon style="fill: #0000ff; opacity: 1.000000" clip-path="url(#7240474723315632415)" points = "341.821321,296.640541 340.255321,297.540541 340.255321,299.340541 341.821321,300.240541 343.387321,299.340541 343.387321,297.540541"/>
<polygon style="fill: #0000ff; opacity: 1.000000" clip-path="url(#7240474723315632415)" points = "342.035314,333.206925 340.469314,334.106925 340.469314,335.906925 342.035314,336.806925 343.601314,335.906925 343.601314,334.106925"/>
<polygon style="fill: #0000ff; opacity: 1.000000" clip-path="url(#7240474723315632415)" points = "343.475233,315.379283 341.909233,316.279283 341.909233,318.079283 343.475233,318.979283 345.041233,318.079283 345.041233,316.279283"/>
<polygon style="fill: #0000ff; opacity: 1.000000" clip-path="url(#7240474723315632415)" points = "347.740585,306.564399 346.174585,307.464399 346.174585,309.264399 347.740585,310.164399 349.306585,309.264399 349.306585,307.464399"/>
<polygon style="fill: #0000ff; opacity: 1.000000" clip-path="url(#7240474723315632415)" points = "357.289569,335.800287 355.723569,336.700287 355.723569,338.500287 357.289569,339.400287 358.855569,338.500287 358.855569,336.700287"/>
<polygon style="fill: #0000ff; opacity: 1.000000" clip-path="url(#7240474723315632415)" points = "357.456411,325.170115 355.890411,326.070115 355.890411,327.870115 357.456411,328.770115 359.022411,327.870115 359.022411,326.070115"/>
<polygon style="fill: #0000ff; opacity: 1.000000" clip-path="url(#7240474723315632415)" points = "370.980587,293.570589 369.414587,294.470589 369.414587,296.270589 370.980587,297.170589 372.546587,296.270589 372.546587,294.470589"/>
<polygon style="fill: #0000ff; opacity: 1.000000" clip-path="url(#7240474723315632415)" points = "382.967822,318.779126 381.401822,319.679126 381.401822,321.479126 382.967822,322.379126 384.533822,321.479126 384.533822,319.679126"/>
<polygon style="fill: #0000ff; opacity: 1.000000" clip-path="url(#7240474723315632415)" points = "390.970798,331.856905 389.404798,332.756905 389.404798,334.556905 390.970798,335.456905 392.536798,334.556905 392.536798,332.756905"/>
<polygon style="fill: #0000ff; opacity: 1.000000" clip-path="url(#7240474723315632415)" points = "405.663775,328.959529 404.097775,329.859529 404.097775,331.659529 405.663775,332.559529 407.229775,331.659529 407.229775,329.859529"/>
<polygon style="fill: #0000ff; opacity: 1.000000" clip-path="url(#7240474723315632415)" points = "412.307532,315.414609 410.741532,316.314609 410.741532,318.114609 412.307532,319.014609 413.873532,318.114609 413.873532,316.314609"/>
<polygon style="fill: #0000ff; opacity: 1.000000" clip-path="url(#7240474723315632415)" points = "429.409744,319.109097 427.843744,320.009097 427.843744,321.809097 429.409744,322.709097 430.975744,321.809097 430.975744,320.009097"/>
<polygon style="fill: #0000ff; opacity: 1.000000" clip-path="url(#7240474723315632415)" points = "433.096589,318.716245 431.530589,319.616245 431.530589,321.416245 433.096589,322.316245 434.662589,321.416245 434.662589,319.616245"/>
<polygon style="fill: #0000ff; opacity: 1.000000" clip-path="url(#7240474723315632415)" points = "435.315406,335.270186 433.749407,336.170186 433.749407,337.970186 435.315406,338.870186 436.881406,337.970186 436.881406,336.170186"/>
<polygon style="fill: #0000ff; opacity: 1.000000" clip-path="url(#7240474723315632415)" points = "436.379931,300.002812 434.813931,300.902812 434.813931,302.702812 436.379931,303.602812 437.945931,302.702812 437.945931,300.902812"/>
<polygon style="fill: #0000ff; opacity: 1.000000" clip-path="url(#7240474723315632415)" points = "440.022346,284.338413 438.456346,285.238413 438.456346,287.038413 440.022346,287.938413 441.588346,287.038413 441.588346,285.238413"/>
<polygon style="fill: #0000ff; opacity: 1.000000" clip-path="url(#7240474723315632415)" points = "451.211641,287.745926 449.645641,288.645926 449.645641,290.445926 451.211641,291.345926 452.777641,290.445926 452.777641,288.645926"/>
<polygon style="fill: #0000ff; opacity: 1.000000" clip-path="url(#7240474723315632415)" points = "453.360638,336.176874 451.794638,337.076874 451.794638,338.876874 453.360638,339.776874 454.926638,338.876874 454.926638,337.076874"/>
<polygon style="fill: #0000ff; opacity: 1.000000" clip-path="url(#7240474723315632415)" points = "456.128946,332.045603 454.562946,332.945603 454.562946,334.745603 456.128946,335.645603 457.694946,334.745603 457.694946,332.945603"/>
<polygon style="fill: #0000ff; opacity: 1.000000" clip-path="url(#7240474723315632415)" points = "470.232535,332.820311 468.666536,333.720311 468.666536,335.520311 470.232535,336.420311 471.798535,335.520311 471.798535,333.720311"/>
<polygon style="fill: #0000ff; opacity: 1.000000" clip-path="url(#7240474723315632415)" points = "470.305982,329.189898 468.739982,330.089898 468.739982,331.889898 470.305982,332.789898 471.871982,331.889898 471.871982,330.089898"/>
<polygon style="fill: #0000ff; opacity: 1.000000" clip-path="url(#7240474723315632415)" points = "471.232681,335.589425 469.666681,336.489425 469.666681,338.289425 471.232681,339.189425 472.798681,338.289425 472.798681,336.489425"/>
<polygon style="fill: #0000ff; opacity: 1.000000" clip-path="url(#7240474723315632415)" points = "473.031673,305.374556 471.465673,306.274556 471.465673,308.074556 473.031673,308.974556 474.597673,308.074556 474.597673,306.274556"/>
<polygon style="fill: #0000ff; opacity: 1.000000" clip-path="url(#7240474723315632415)" points = "483.752178,305.797389 482.186178,306.697389 482.186178,308.497389 483.752178,309.397389 485.318178,308.497389 485.318178,306.697389"/>
<polygon style="fill: #0000ff; opacity: 1.000000" clip-path="url(#7240474723315632415)" points = "488.151729,323.462176 486.585729,324.362176 486.585729,326.162176 488.151729,327.062176 489.717729,326.162176 489.717729,324.362176"/>
<polygon style="fill: #0000ff; opacity: 1.000000" clip-path="url(#7240474723315632415)" points = "498.889462,336.107838 497.323463,337.007838 497.323463,338.807838 498.889462,339.707838 500.455462,338.807838 500.455462,337.007838"/>
<polygon style="fill: #0000ff; opacity: 1.000000" clip-path="url(#7240474723315632415)" points = "509.281724,327.567226 507.715724,328.467226 507.715724,330.267226 509.281724,331.167226 510.847724,330.267226 510.847724,328.467226"/>
<polygon style="fill: #0000ff; opacity: 1.000000" clip-path="url(#7240474723315632415)" points = "524.982101,331.840547 523.416100,332.740547 523.416100,334.540547 524.982101,335.440547 526.548101,334.540547 526.548101,332.740547"/>
<path style="fill: none; stroke: #008000; stroke-width: 0.500000; stroke-linejoin: miter; stroke-linecap: square;  opacity: 1.000000" clip-path="url(#7240474723315632415)" d="M 74.678263,254.290578 L 77.223510,256.880509 L 85.139437,264.563701 L 107.977750,283.719470 L 117.603808,290.530107 L 135.299941,301.242868 L 141.957299,304.700274 L 156.107133,311.077312 L 170.013958,316.139406 L 172.033290,316.780947 L 206.554169,324.466381 L 212.507890,325.226933 L 214.492765,325.447600 L 217.441517,325.746020 L 221.219037,326.078296 L 221.540027,326.103997 L 222.265426,326.160639 L 227.810203,326.529043 L 229.894821,326.638824 L 229.924744,326.640288 L 233.952527,326.809261 L 234.846583,326.839320 L 240.703281,326.971894 L 248.832295,326.981148 L 249.811585,326.969360 L 253.332495,326.905273 L 256.523348,326.818849 L 266.433219,326.391697 L 273.593824,325.948584 L 278.032365,325.623990 L 279.776045,325.486890 L 290.046803,324.581934 L 296.793929,323.909859 L 303.029649,323.245424 L 303.396883,323.205193 L 307.988665,322.693365 L 312.540550,322.172307 L 317.900349,321.545975 L 322.699777,320.977731 L 329.064255,320.220521 L 330.849646,320.008496 L 339.602504,318.980960 L 341.821321,318.725510 L 342.035314,318.701016 L 343.475233,318.536909 L 347.740585,318.058903 L 357.289569,317.044958 L 357.456411,317.028069 L 370.980587,315.779709 L 382.967822,314.919956 L 390.970798,314.507515 L 405.663775,314.157088 L 412.307532,314.196748 L 429.409744,314.960943 L 433.096589,315.263381 L 435.315406,315.470761 L 436.379931,315.577169 L 440.022346,315.975893 L 451.211641,317.551962 L 453.360638,317.918268 L 456.128946,318.421674 L 470.232535,321.565033 L 470.305982,321.584042 L 471.232681,321.826313 L 473.031673,322.309591 L 483.752178,325.555183 L 488.151729,327.075175 L 498.889462,331.269861 L 509.281724,336.018670 L 524.982101,344.569985 "/>
<g id="matplotlib.axis1">
<g id="xtick1">
<text style="font-size: 9.996000; font-family: Bitstream Vera Serif; font-style: Roman; fill: #000000;" x="70.625000" y="406.900000" >0</text>
</g>
<g id="xtick2">
<path style="fill: none; stroke: #000000; stroke-width: 0.500000; stroke-linejoin: miter; stroke-linecap: butt;  opacity: 1.000000"  d="M 163.800000,396.900000 L 163.800000,391.900000"/>
<path style="fill: none; stroke: #000000; stroke-width: 0.500000; stroke-linejoin: miter; stroke-linecap: butt;  opacity: 1.000000"  d="M 163.800000,49.100000 L 163.800000,44.100000"/>
<text style="font-size: 9.996000; font-family: Bitstream Vera Serif; font-style: Roman; fill: #000000;" x="162.300000" y="406.900000" >1</text>
</g>
<g id="xtick3">
<path style="fill: none; stroke: #000000; stroke-width: 0.500000; stroke-linejoin: miter; stroke-linecap: butt;  opacity: 1.000000"  d="M 254.475000,396.900000 L 254.475000,391.900000"/>
<path style="fill: none; stroke: #000000; stroke-width: 0.500000; stroke-linejoin: miter; stroke-linecap: butt;  opacity: 1.000000"  d="M 254.475000,49.100000 L 254.475000,44.100000"/>
<text style="font-size: 9.996000; font-family: Bitstream Vera Serif; font-style: Roman; fill: #000000;" x="251.975000" y="406.900000" >2</text>
</g>
<g id="xtick4">
<path style="fill: none; stroke: #000000; stroke-width: 0.500000; stroke-linejoin: miter; stroke-linecap: butt;  opacity: 1.000000"  d="M 345.150000,396.900000 L 345.150000,391.900000"/>
<path style="fill: none; stroke: #000000; stroke-width: 0.500000; stroke-linejoin: miter; stroke-linecap: butt;  opacity: 1.000000"  d="M 345.150000,49.100000 L 345.150000,44.100000"/>
<text style="font-size: 9.996000; font-family: Bitstream Vera Serif; font-style: Roman; fill: #000000;" x="342.650000" y="406.900000" >3</text>
</g>
<g id="xtick5">
<path style="fill: none; stroke: #000000; stroke-width: 0.500000; stroke-linejoin: miter; stroke-linecap: butt;  opacity: 1.000000"  d="M 435.825000,396.900000 L 435.825000,391.900000"/>
<path style="fill: none; stroke: #000000; stroke-width: 0.500000; stroke-linejoin: miter; stroke-linecap: butt;  opacity: 1.000000"  d="M 435.825000,49.100000 L 435.825000,44.100000"/>
<text style="font-size: 9.996000; font-family: Bitstream Vera Serif; font-style: Roman; fill: #000000;" x="433.325000" y="406.900000" >4</text>
</g>
<g id="xtick6">
<text style="font-size: 9.996000; font-family: Bitstream Vera Serif; font-style: Roman; fill: #000000;" x="524.000000" y="406.900000" >5</text>
</g>
<text style="font-size: 12.000000; font-family: Bitstream Vera Serif; font-style: Roman; fill: #000000;" x="273.812500" y="420.900000" >Distance</text>
<text style="font-size: 9.996000; font-family: Bitstream Vera Serif; font-style: Roman; fill: #000000;" x="495.500000" y="416.900000" >x1e+5</text>
</g>
<g id="matplotlib.axis2">
<g id="ytick1">
<text style="font-size: 9.996000; font-family: Bitstream Vera Serif; font-style: Roman; fill: #000000;" x="53.125000" y="400.400000" >-0.2</text>
</g>
<g id="ytick2">
<path style="fill: none; stroke: #000000; stroke-width: 0.500000; stroke-linejoin: miter; stroke-linecap: butt;  opacity: 1.000000"  d="M 73.125000,338.100000 L 78.125000,338.100000"/>
<path style="fill: none; stroke: #000000; stroke-width: 0.500000; stroke-linejoin: miter; stroke-linecap: butt;  opacity: 1.000000"  d="M 521.500000,338.100000 L 526.500000,338.100000"/>
<text style="font-size: 9.996000; font-family: Bitstream Vera Serif; font-style: Roman; fill: #000000;" x="56.125000" y="341.600000" >0.0</text>
</g>
<g id="ytick3">
<path style="fill: none; stroke: #000000; stroke-width: 0.500000; stroke-linejoin: miter; stroke-linecap: butt;  opacity: 1.000000"  d="M 73.125000,279.300000 L 78.125000,279.300000"/>
<path style="fill: none; stroke: #000000; stroke-width: 0.500000; stroke-linejoin: miter; stroke-linecap: butt;  opacity: 1.000000"  d="M 521.500000,279.300000 L 526.500000,279.300000"/>
<text style="font-size: 9.996000; font-family: Bitstream Vera Serif; font-style: Roman; fill: #000000;" x="56.125000" y="282.800000" >0.2</text>
</g>
<g id="ytick4">
<path style="fill: none; stroke: #000000; stroke-width: 0.500000; stroke-linejoin: miter; stroke-linecap: butt;  opacity: 1.000000"  d="M 73.125000,220.500000 L 78.125000,220.500000"/>
<path style="fill: none; stroke: #000000; stroke-width: 0.500000; stroke-linejoin: miter; stroke-linecap: butt;  opacity: 1.000000"  d="M 521.500000,220.500000 L 526.500000,220.500000"/>
<text style="font-size: 9.996000; font-family: Bitstream Vera Serif; font-style: Roman; fill: #000000;" x="56.125000" y="224.000000" >0.4</text>
</g>
<g id="ytick5">
<path style="fill: none; stroke: #000000; stroke-width: 0.500000; stroke-linejoin: miter; stroke-linecap: butt;  opacity: 1.000000"  d="M 73.125000,161.700000 L 78.125000,161.700000"/>
<path style="fill: none; stroke: #000000; stroke-width: 0.500000; stroke-linejoin: miter; stroke-linecap: butt;  opacity: 1.000000"  d="M 521.500000,161.700000 L 526.500000,161.700000"/>
<text style="font-size: 9.996000; font-family: Bitstream Vera Serif; font-style: Roman; fill: #000000;" x="56.125000" y="165.200000" >0.6</text>
</g>
<g id="ytick6">
<path style="fill: none; stroke: #000000; stroke-width: 0.500000; stroke-linejoin: miter; stroke-linecap: butt;  opacity: 1.000000"  d="M 73.125000,102.900000 L 78.125000,102.900000"/>
<path style="fill: none; stroke: #000000; stroke-width: 0.500000; stroke-linejoin: miter; stroke-linecap: butt;  opacity: 1.000000"  d="M 521.500000,102.900000 L 526.500000,102.900000"/>
<text style="font-size: 9.996000; font-family: Bitstream Vera Serif; font-style: Roman; fill: #000000;" x="56.125000" y="106.400000" >0.8</text>
</g>
<g id="ytick7">
<text style="font-size: 9.996000; font-family: Bitstream Vera Serif; font-style: Roman; fill: #000000;" x="57.125000" y="47.600000" >1.0</text>
</g>
<g id="mathtext1">
<text style="font-size: 8.400000; font-family: cmr10; fill: #000000;" x="52.125000" y="216.351562" transform="translate(48.125000,224.851562) rotate(-90.0) translate(-48.125000,-224.851562)">2</text>
<text style="font-size: 12.000000; font-family: cmmi10; fill: #000000;" x="48.125000" y="213.351562" transform="translate(48.125000,224.851562) rotate(-90.0) translate(-48.125000,-224.851562)">r</text>
</g>
</g>
<path style="fill: none; stroke: #000000; stroke-width: 1.000000; stroke-linejoin: miter; stroke-linecap: square;  opacity: 1.000000"  d="M 73.125000,396.900000 L 526.500000,396.900000 L 526.500000,44.100000 L 73.125000,44.100000 L 73.125000,396.900000 "/>
<text style="font-size: 14.400000; font-family: Bitstream Vera Serif; font-style: Roman; fill: #000000;" x="267.312500" y="37.044000" >LD decay</text>
</g>
</g>
</svg>
