<?xml version="1.0" standalone="no"?>
<!DOCTYPE svg PUBLIC "-//W3C//DTD SVG 1.1//EN"
  "http://www.w3.org/Graphics/SVG/1.1/DTD/svg11.dtd">
<!-- Created with matplotlib (http://matplotlib.sourceforge.net/) -->
<svg width="585" height="441" viewBox="0 0 585 441"
   xmlns="http://www.w3.org/2000/svg"
   xmlns:xlink="http://www.w3.org/1999/xlink"
   version="1.1"
   id="svg1">
<g id="figure1">
<polygon style="fill: #ffffff; stroke: #ffffff; stroke-width: 1.000000; stroke-linejoin: miter; stroke-linecap: square;  opacity: 1.000000"  points = "0.000000,441.000000 0.000000,0.000000 585.000000,0.000000 585.000000,441.000000"/>
<g id="axes1">
<polygon style="fill: #ffffff; stroke: #000000; stroke-width: 1.000000; stroke-linejoin: miter; stroke-linecap: square;  opacity: 1.000000"  points = "73.125000,396.900000 73.125000,44.100000 526.500000,44.100000 526.500000,396.900000"/>
<defs>
    <clipPath id="7240474723315632415">
    <rect x="73.125000" y="44.100000" width="453.375000" height="352.800000"
    style="stroke: gray; fill: none;"/>
    </clipPath>
</defs>
<polygon style="fill: #0000ff; opacity: 1.000000" clip-path="url(#7240474723315632415)" points = "73.901631,42.300000 72.335631,43.200000 72.335631,45.000000 73.901631,45.900000 75.467631,45.000000 75.467631,43.200000"/>
<polygon style="fill: #0000ff; opacity: 1.000000" clip-path="url(#7240474723315632415)" points = "75.174255,235.695876 73.608255,236.595876 73.608255,238.395876 75.174255,239.295876 76.740255,238.395876 76.740255,236.595876"/>
<polygon style="fill: #0000ff; opacity: 1.000000" clip-path="url(#7240474723315632415)" points = "79.132219,314.433662 77.566219,315.333662 77.566219,317.133662 79.132219,318.033662 80.698219,317.133662 80.698219,315.333662"/>
<polygon style="fill: #0000ff; opacity: 1.000000" clip-path="url(#7240474723315632415)" points = "90.551375,292.802466 88.985375,293.702466 88.985375,295.502466 90.551375,296.402466 92.117375,295.502466 92.117375,293.702466"/>
<polygon style="fill: #0000ff; opacity: 1.000000" clip-path="url(#7240474723315632415)" points = "95.364404,174.539763 93.798404,175.439763 93.798404,177.239763 95.364404,178.139763 96.930404,177.239763 96.930404,175.439763"/>
<polygon style="fill: #0000ff; opacity: 1.000000" clip-path="url(#7240474723315632415)" points = "104.212470,258.042234 102.646470,258.942234 102.646470,260.742234 104.212470,261.642234 105.778470,260.742234 105.778470,258.942234"/>
<polygon style="fill: #0000ff; opacity: 1.000000" clip-path="url(#7240474723315632415)" points = "107.541150,381.775449 105.975150,382.675449 105.975150,384.475449 107.541150,385.375449 109.107150,384.475449 109.107150,382.675449"/>
<polygon style="fill: #0000ff; opacity: 1.000000" clip-path="url(#7240474723315632415)" points = "114.616067,303.809975 113.050066,304.709975 113.050066,306.509975 114.616067,307.409975 116.182067,306.509975 116.182067,304.709975"/>
<polygon style="fill: #0000ff; opacity: 1.000000" clip-path="url(#7240474723315632415)" points = "121.569479,258.026343 120.003479,258.926343 120.003479,260.726343 121.569479,261.626343 123.135479,260.726343 123.135479,258.926343"/>
<polygon style="fill: #0000ff; opacity: 1.000000" clip-path="url(#7240474723315632415)" points = "122.579145,279.262771 121.013145,280.162771 121.013145,281.962771 122.579145,282.862771 124.145145,281.962771 124.145145,280.162771"/>
<polygon style="fill: #0000ff; opacity: 1.000000" clip-path="url(#7240474723315632415)" points = "139.839585,393.508483 138.273585,394.408483 138.273585,396.208483 139.839585,397.108483 141.405585,396.208483 141.405585,394.408483"/>
<polygon style="fill: #0000ff; opacity: 1.000000" clip-path="url(#7240474723315632415)" points = "142.816445,205.737009 141.250445,206.637009 141.250445,208.437009 142.816445,209.337009 144.382445,208.437009 144.382445,206.637009"/>
<polygon style="fill: #0000ff; opacity: 1.000000" clip-path="url(#7240474723315632415)" points = "143.808883,193.275113 142.242883,194.175113 142.242883,195.975113 143.808883,196.875113 145.374883,195.975113 145.374883,194.175113"/>
<polygon style="fill: #0000ff; opacity: 1.000000" clip-path="url(#7240474723315632415)" points = "145.283258,290.794947 143.717258,291.694947 143.717258,293.494947 145.283258,294.394947 146.849258,293.494947 146.849258,291.694947"/>
<polygon style="fill: #0000ff; opacity: 1.000000" clip-path="url(#7240474723315632415)" points = "147.172019,328.298853 145.606019,329.198853 145.606019,330.998853 147.172019,331.898853 148.738019,330.998853 148.738019,329.198853"/>
<polygon style="fill: #0000ff; opacity: 1.000000" clip-path="url(#7240474723315632415)" points = "147.332513,373.230507 145.766513,374.130507 145.766513,375.930507 147.332513,376.830507 148.898513,375.930507 148.898513,374.130507"/>
<polygon style="fill: #0000ff; opacity: 1.000000" clip-path="url(#7240474723315632415)" points = "147.695213,281.958706 146.129213,282.858706 146.129213,284.658706 147.695213,285.558706 149.261213,284.658706 149.261213,282.858706"/>
<polygon style="fill: #0000ff; opacity: 1.000000" clip-path="url(#7240474723315632415)" points = "150.467601,154.841627 148.901601,155.741627 148.901601,157.541627 150.467601,158.441627 152.033601,157.541627 152.033601,155.741627"/>
<polygon style="fill: #0000ff; opacity: 1.000000" clip-path="url(#7240474723315632415)" points = "151.509910,164.822795 149.943910,165.722795 149.943910,167.522795 151.509910,168.422795 153.075910,167.522795 153.075910,165.722795"/>
<polygon style="fill: #0000ff; opacity: 1.000000" clip-path="url(#7240474723315632415)" points = "151.524872,293.898996 149.958872,294.798996 149.958872,296.598996 151.524872,297.498996 153.090872,296.598996 153.090872,294.798996"/>
<polygon style="fill: #0000ff; opacity: 1.000000" clip-path="url(#7240474723315632415)" points = "153.538764,281.818751 151.972764,282.718751 151.972764,284.518751 153.538764,285.418751 155.104764,284.518751 155.104764,282.718751"/>
<polygon style="fill: #0000ff; opacity: 1.000000" clip-path="url(#7240474723315632415)" points = "153.985791,285.605032 152.419791,286.505032 152.419791,288.305032 153.985791,289.205032 155.551791,288.305032 155.551791,286.505032"/>
<polygon style="fill: #0000ff; opacity: 1.000000" clip-path="url(#7240474723315632415)" points = "156.914141,377.354743 155.348140,378.254743 155.348140,380.054743 156.914141,380.954743 158.480141,380.054743 158.480141,378.254743"/>
<polygon style="fill: #0000ff; opacity: 1.000000" clip-path="url(#7240474723315632415)" points = "160.978647,299.872569 159.412647,300.772569 159.412647,302.572569 160.978647,303.472569 162.544647,302.572569 162.544647,300.772569"/>
<polygon style="fill: #0000ff; opacity: 1.000000" clip-path="url(#7240474723315632415)" points = "161.468292,306.838025 159.902292,307.738025 159.902292,309.538025 161.468292,310.438025 163.034292,309.538025 163.034292,307.738025"/>
<polygon style="fill: #0000ff; opacity: 1.000000" clip-path="url(#7240474723315632415)" points = "163.228747,267.796199 161.662747,268.696199 161.662747,270.496199 163.228747,271.396199 164.794747,270.496199 164.794747,268.696199"/>
<polygon style="fill: #0000ff; opacity: 1.000000" clip-path="url(#7240474723315632415)" points = "164.824174,282.647041 163.258174,283.547041 163.258174,285.347041 164.824174,286.247041 166.390174,285.347041 166.390174,283.547041"/>
<polygon style="fill: #0000ff; opacity: 1.000000" clip-path="url(#7240474723315632415)" points = "169.779110,358.084900 168.213110,358.984900 168.213110,360.784900 169.779110,361.684900 171.345110,360.784900 171.345110,358.984900"/>
<polygon style="fill: #0000ff; opacity: 1.000000" clip-path="url(#7240474723315632415)" points = "173.359412,292.663388 171.793412,293.563388 171.793412,295.363388 173.359412,296.263388 174.925412,295.363388 174.925412,293.563388"/>
<polygon style="fill: #0000ff; opacity: 1.000000" clip-path="url(#7240474723315632415)" points = "175.578683,217.395368 174.012683,218.295368 174.012683,220.095368 175.578683,220.995368 177.144683,220.095368 177.144683,218.295368"/>
<polygon style="fill: #0000ff; opacity: 1.000000" clip-path="url(#7240474723315632415)" points = "176.450523,261.794792 174.884523,262.694792 174.884523,264.494792 176.450523,265.394792 178.016523,264.494792 178.016523,262.694792"/>
<polygon style="fill: #0000ff; opacity: 1.000000" clip-path="url(#7240474723315632415)" points = "181.585901,325.426575 180.019901,326.326575 180.019901,328.126575 181.585901,329.026575 183.151901,328.126575 183.151901,326.326575"/>
<polygon style="fill: #0000ff; opacity: 1.000000" clip-path="url(#7240474723315632415)" points = "184.959465,233.413341 183.393465,234.313341 183.393465,236.113341 184.959465,237.013341 186.525465,236.113341 186.525465,234.313341"/>
<polygon style="fill: #0000ff; opacity: 1.000000" clip-path="url(#7240474723315632415)" points = "188.077325,250.330772 186.511325,251.230772 186.511325,253.030772 188.077325,253.930772 189.643325,253.030772 189.643325,251.230772"/>
<polygon style="fill: #0000ff; opacity: 1.000000" clip-path="url(#7240474723315632415)" points = "188.260941,267.076876 186.694941,267.976876 186.694941,269.776876 188.260941,270.676876 189.826941,269.776876 189.826941,267.976876"/>
<polygon style="fill: #0000ff; opacity: 1.000000" clip-path="url(#7240474723315632415)" points = "190.556832,133.007596 188.990832,133.907596 188.990832,135.707596 190.556832,136.607596 192.122832,135.707596 192.122832,133.907596"/>
<polygon style="fill: #0000ff; opacity: 1.000000" clip-path="url(#7240474723315632415)" points = "192.832775,224.584959 191.266775,225.484959 191.266775,227.284959 192.832775,228.184959 194.398775,227.284959 194.398775,225.484959"/>
<polygon style="fill: #0000ff; opacity: 1.000000" clip-path="url(#7240474723315632415)" points = "195.512675,348.122489 193.946675,349.022489 193.946675,350.822489 195.512675,351.722489 197.078675,350.822489 197.078675,349.022489"/>
<polygon style="fill: #0000ff; opacity: 1.000000" clip-path="url(#7240474723315632415)" points = "197.912388,342.642552 196.346388,343.542552 196.346388,345.342552 197.912388,346.242552 199.478388,345.342552 199.478388,343.542552"/>
<polygon style="fill: #0000ff; opacity: 1.000000" clip-path="url(#7240474723315632415)" points = "201.094628,329.858730 199.528627,330.758730 199.528627,332.558730 201.094628,333.458730 202.660628,332.558730 202.660628,330.758730"/>
<polygon style="fill: #0000ff; opacity: 1.000000" clip-path="url(#7240474723315632415)" points = "201.987323,318.770311 200.421323,319.670311 200.421323,321.470311 201.987323,322.370311 203.553323,321.470311 203.553323,319.670311"/>
<polygon style="fill: #0000ff; opacity: 1.000000" clip-path="url(#7240474723315632415)" points = "206.363752,338.195662 204.797752,339.095662 204.797752,340.895662 206.363752,341.795662 207.929752,340.895662 207.929752,339.095662"/>
<polygon style="fill: #0000ff; opacity: 1.000000" clip-path="url(#7240474723315632415)" points = "207.473160,257.003746 205.907160,257.903746 205.907160,259.703746 207.473160,260.603746 209.039160,259.703746 209.039160,257.903746"/>
<polygon style="fill: #0000ff; opacity: 1.000000" clip-path="url(#7240474723315632415)" points = "207.580157,358.086485 206.014157,358.986485 206.014157,360.786485 207.580157,361.686485 209.146157,360.786485 209.146157,358.986485"/>
<polygon style="fill: #0000ff; opacity: 1.000000" clip-path="url(#7240474723315632415)" points = "208.300116,206.514273 206.734116,207.414273 206.734116,209.214273 208.300116,210.114273 209.866116,209.214273 209.866116,207.414273"/>
<polygon style="fill: #0000ff; opacity: 1.000000" clip-path="url(#7240474723315632415)" points = "210.432792,230.674382 208.866792,231.574382 208.866792,233.374382 210.432792,234.274382 211.998792,233.374382 211.998792,231.574382"/>
<polygon style="fill: #0000ff; opacity: 1.000000" clip-path="url(#7240474723315632415)" points = "215.207285,379.566425 213.641285,380.466425 213.641285,382.266425 215.207285,383.166425 216.773285,382.266425 216.773285,380.466425"/>
<polygon style="fill: #0000ff; opacity: 1.000000" clip-path="url(#7240474723315632415)" points = "215.290706,324.148753 213.724705,325.048753 213.724705,326.848753 215.290706,327.748753 216.856706,326.848753 216.856706,325.048753"/>
<polygon style="fill: #0000ff; opacity: 1.000000" clip-path="url(#7240474723315632415)" points = "222.052794,143.424387 220.486794,144.324387 220.486794,146.124387 222.052794,147.024387 223.618794,146.124387 223.618794,144.324387"/>
<polygon style="fill: #0000ff; opacity: 1.000000" clip-path="url(#7240474723315632415)" points = "228.046411,299.428782 226.480411,300.328782 226.480411,302.128782 228.046411,303.028782 229.612411,302.128782 229.612411,300.328782"/>
<polygon style="fill: #0000ff; opacity: 1.000000" clip-path="url(#7240474723315632415)" points = "232.047899,342.579383 230.481899,343.479383 230.481899,345.279383 232.047899,346.179383 233.613899,345.279383 233.613899,343.479383"/>
<polygon style="fill: #0000ff; opacity: 1.000000" clip-path="url(#7240474723315632415)" points = "239.394387,332.603859 237.828387,333.503859 237.828387,335.303859 239.394387,336.203859 240.960387,335.303859 240.960387,333.503859"/>
<polygon style="fill: #0000ff; opacity: 1.000000" clip-path="url(#7240474723315632415)" points = "242.716266,184.349303 241.150266,185.249303 241.150266,187.049303 242.716266,187.949303 244.282266,187.049303 244.282266,185.249303"/>
<polygon style="fill: #0000ff; opacity: 1.000000" clip-path="url(#7240474723315632415)" points = "251.267372,299.435096 249.701372,300.335096 249.701372,302.135096 251.267372,303.035096 252.833372,302.135096 252.833372,300.335096"/>
<polygon style="fill: #0000ff; opacity: 1.000000" clip-path="url(#7240474723315632415)" points = "253.110795,277.491942 251.544795,278.391942 251.544795,280.191942 253.110795,281.091942 254.676795,280.191942 254.676795,278.391942"/>
<polygon style="fill: #0000ff; opacity: 1.000000" clip-path="url(#7240474723315632415)" points = "254.220203,335.336978 252.654203,336.236978 252.654203,338.036978 254.220203,338.936978 255.786203,338.036978 255.786203,336.236978"/>
<polygon style="fill: #0000ff; opacity: 1.000000" clip-path="url(#7240474723315632415)" points = "254.752465,207.160412 253.186465,208.060412 253.186465,209.860412 254.752465,210.760412 256.318466,209.860412 256.318466,208.060412"/>
<polygon style="fill: #0000ff; opacity: 1.000000" clip-path="url(#7240474723315632415)" points = "256.573673,244.777963 255.007673,245.677963 255.007673,247.477963 256.573673,248.377963 258.139673,247.477963 258.139673,245.677963"/>
<polygon style="fill: #0000ff; opacity: 1.000000" clip-path="url(#7240474723315632415)" points = "262.168320,242.953282 260.602320,243.853282 260.602320,245.653282 262.168320,246.553282 263.734320,245.653282 263.734320,243.853282"/>
<polygon style="fill: #0000ff; opacity: 1.000000" clip-path="url(#7240474723315632415)" points = "263.242819,384.505371 261.676819,385.405371 261.676819,387.205371 263.242819,388.105371 264.808819,387.205371 264.808819,385.405371"/>
<polygon style="fill: #0000ff; opacity: 1.000000" clip-path="url(#7240474723315632415)" points = "264.626973,350.062613 263.060973,350.962613 263.060973,352.762613 264.626973,353.662613 266.192973,352.762613 266.192973,350.962613"/>
<polygon style="fill: #0000ff; opacity: 1.000000" clip-path="url(#7240474723315632415)" points = "271.678768,327.951429 270.112768,328.851429 270.112768,330.651429 271.678768,331.551429 273.244768,330.651429 273.244768,328.851429"/>
<polygon style="fill: #0000ff; opacity: 1.000000" clip-path="url(#7240474723315632415)" points = "271.715491,280.746847 270.149491,281.646847 270.149491,283.446847 271.715491,284.346847 273.281491,283.446847 273.281491,281.646847"/>
<polygon style="fill: #0000ff; opacity: 1.000000" clip-path="url(#7240474723315632415)" points = "272.178840,362.428693 270.612840,363.328693 270.612840,365.128693 272.178840,366.028693 273.744840,365.128693 273.744840,363.328693"/>
<polygon style="fill: #0000ff; opacity: 1.000000" clip-path="url(#7240474723315632415)" points = "273.078336,278.470352 271.512336,279.370352 271.512336,281.170352 273.078336,282.070352 274.644336,281.170352 274.644336,279.370352"/>
<polygon style="fill: #0000ff; opacity: 1.000000" clip-path="url(#7240474723315632415)" points = "278.438589,269.026085 276.872589,269.926085 276.872589,271.726085 278.438589,272.626085 280.004589,271.726085 280.004589,269.926085"/>
<polygon style="fill: #0000ff; opacity: 1.000000" clip-path="url(#7240474723315632415)" points = "280.638364,313.770676 279.072364,314.670676 279.072364,316.470676 280.638364,317.370676 282.204364,316.470676 282.204364,314.670676"/>
<polygon style="fill: #0000ff; opacity: 1.000000" clip-path="url(#7240474723315632415)" points = "286.007231,371.484400 284.441231,372.384400 284.441231,374.184400 286.007231,375.084400 287.573231,374.184400 287.573231,372.384400"/>
<polygon style="fill: #0000ff; opacity: 1.000000" clip-path="url(#7240474723315632415)" points = "291.203362,331.027499 289.637362,331.927499 289.637362,333.727499 291.203362,334.627499 292.769362,333.727499 292.769362,331.927499"/>
<polygon style="fill: #0000ff; opacity: 1.000000" clip-path="url(#7240474723315632415)" points = "299.053550,323.765128 297.487550,324.665128 297.487550,326.465128 299.053550,327.365128 300.619550,326.465128 300.619550,324.665128"/>
<polygon style="fill: #0000ff; opacity: 1.000000" clip-path="url(#7240474723315632415)" points = "300.462186,364.422075 298.896186,365.322075 298.896186,367.122075 300.462186,368.022075 302.028186,367.122075 302.028186,365.322075"/>
<polygon style="fill: #0000ff; opacity: 1.000000" clip-path="url(#7240474723315632415)" points = "301.630080,367.730560 300.064080,368.630560 300.064080,370.430560 301.630080,371.330560 303.196080,370.430560 303.196080,368.630560"/>
<polygon style="fill: #0000ff; opacity: 1.000000" clip-path="url(#7240474723315632415)" points = "302.554512,347.731983 300.988512,348.631983 300.988512,350.431983 302.554512,351.331983 304.120512,350.431983 304.120512,348.631983"/>
<polygon style="fill: #0000ff; opacity: 1.000000" clip-path="url(#7240474723315632415)" points = "302.564940,236.481818 300.998940,237.381818 300.998940,239.181818 302.564940,240.081818 304.130940,239.181818 304.130940,237.381818"/>
<polygon style="fill: #0000ff; opacity: 1.000000" clip-path="url(#7240474723315632415)" points = "303.167928,292.987679 301.601928,293.887679 301.601928,295.687679 303.167928,296.587679 304.733928,295.687679 304.733928,293.887679"/>
<polygon style="fill: #0000ff; opacity: 1.000000" clip-path="url(#7240474723315632415)" points = "305.060769,264.175472 303.494769,265.075472 303.494769,266.875472 305.060769,267.775472 306.626769,266.875472 306.626769,265.075472"/>
<polygon style="fill: #0000ff; opacity: 1.000000" clip-path="url(#7240474723315632415)" points = "307.259184,239.583044 305.693184,240.483044 305.693184,242.283044 307.259184,243.183044 308.825184,242.283044 308.825184,240.483044"/>
<polygon style="fill: #0000ff; opacity: 1.000000" clip-path="url(#7240474723315632415)" points = "310.464999,213.136994 308.898999,214.036994 308.898999,215.836994 310.464999,216.736994 312.030999,215.836994 312.030999,214.036994"/>
<polygon style="fill: #0000ff; opacity: 1.000000" clip-path="url(#7240474723315632415)" points = "320.148182,159.135514 318.582182,160.035514 318.582182,161.835514 320.148182,162.735514 321.714182,161.835514 321.714182,160.035514"/>
<polygon style="fill: #0000ff; opacity: 1.000000" clip-path="url(#7240474723315632415)" points = "323.689494,389.484332 322.123494,390.384332 322.123494,392.184332 323.689494,393.084332 325.255494,392.184332 325.255494,390.384332"/>
<polygon style="fill: #0000ff; opacity: 1.000000" clip-path="url(#7240474723315632415)" points = "326.883068,233.924351 325.317068,234.824351 325.317068,236.624351 326.883068,237.524351 328.449068,236.624351 328.449068,234.824351"/>
<polygon style="fill: #0000ff; opacity: 1.000000" clip-path="url(#7240474723315632415)" points = "327.253475,347.954915 325.687475,348.854915 325.687475,350.654915 327.253475,351.554915 328.819475,350.654915 328.819475,348.854915"/>
<polygon style="fill: #0000ff; opacity: 1.000000" clip-path="url(#7240474723315632415)" points = "328.799484,313.456499 327.233484,314.356499 327.233484,316.156499 328.799484,317.056499 330.365484,316.156499 330.365484,314.356499"/>
<polygon style="fill: #0000ff; opacity: 1.000000" clip-path="url(#7240474723315632415)" points = "329.246965,309.560903 327.680965,310.460903 327.680965,312.260903 329.246965,313.160903 330.812965,312.260903 330.812965,310.460903"/>
<polygon style="fill: #0000ff; opacity: 1.000000" clip-path="url(#7240474723315632415)" points = "329.667244,299.009619 328.101244,299.909619 328.101244,301.709619 329.667244,302.609619 331.233244,301.709619 331.233244,299.909619"/>
<polygon style="fill: #0000ff; opacity: 1.000000" clip-path="url(#7240474723315632415)" points = "331.786318,308.135125 330.220319,309.035125 330.220319,310.835125 331.786318,311.735125 333.352318,310.835125 333.352318,309.035125"/>
<polygon style="fill: #0000ff; opacity: 1.000000" clip-path="url(#7240474723315632415)" points = "332.021620,225.876997 330.455620,226.776997 330.455620,228.576997 332.021620,229.476997 333.587620,228.576997 333.587620,226.776997"/>
<polygon style="fill: #0000ff; opacity: 1.000000" clip-path="url(#7240474723315632415)" points = "333.034006,337.951287 331.468007,338.851287 331.468007,340.651287 333.034006,341.551287 334.600006,340.651287 334.600006,338.851287"/>
<polygon style="fill: #0000ff; opacity: 1.000000" clip-path="url(#7240474723315632415)" points = "339.484626,244.792432 337.918626,245.692432 337.918626,247.492432 339.484626,248.392432 341.050626,247.492432 341.050626,245.692432"/>
<polygon style="fill: #0000ff; opacity: 1.000000" clip-path="url(#7240474723315632415)" points = "339.880876,263.595039 338.314876,264.495039 338.314876,266.295039 339.880876,267.195039 341.446876,266.295039 341.446876,264.495039"/>
<polygon style="fill: #0000ff; opacity: 1.000000" clip-path="url(#7240474723315632415)" points = "345.546703,301.606382 343.980703,302.506382 343.980703,304.306382 345.546703,305.206382 347.112703,304.306382 347.112703,302.506382"/>
<polygon style="fill: #0000ff; opacity: 1.000000" clip-path="url(#7240474723315632415)" points = "346.225859,207.810818 344.659859,208.710818 344.659859,210.510818 346.225859,211.410818 347.791859,210.510818 347.791859,208.710818"/>
<polygon style="fill: #0000ff; opacity: 1.000000" clip-path="url(#7240474723315632415)" points = "347.989034,318.764007 346.423034,319.664007 346.423034,321.464007 347.989034,322.364007 349.555034,321.464007 349.555034,319.664007"/>
<polygon style="fill: #0000ff; opacity: 1.000000" clip-path="url(#7240474723315632415)" points = "348.765666,301.910718 347.199666,302.810718 347.199666,304.610718 348.765666,305.510718 350.331666,304.610718 350.331666,302.810718"/>
<polygon style="fill: #0000ff; opacity: 1.000000" clip-path="url(#7240474723315632415)" points = "349.122472,257.740445 347.556472,258.640445 347.556472,260.440445 349.122472,261.340445 350.688472,260.440445 350.688472,258.640445"/>
<polygon style="fill: #0000ff; opacity: 1.000000" clip-path="url(#7240474723315632415)" points = "349.183677,354.459719 347.617677,355.359719 347.617677,357.159719 349.183677,358.059719 350.749677,357.159719 350.749677,355.359719"/>
<polygon style="fill: #0000ff; opacity: 1.000000" clip-path="url(#7240474723315632415)" points = "349.304275,381.815151 347.738275,382.715151 347.738275,384.515151 349.304275,385.415151 350.870275,384.515151 350.870275,382.715151"/>
<polygon style="fill: #0000ff; opacity: 1.000000" clip-path="url(#7240474723315632415)" points = "360.334435,286.548538 358.768436,287.448538 358.768436,289.248538 360.334435,290.148538 361.900435,289.248538 361.900435,287.448538"/>
<polygon style="fill: #0000ff; opacity: 1.000000" clip-path="url(#7240474723315632415)" points = "364.355418,311.022161 362.789418,311.922161 362.789418,313.722161 364.355418,314.622161 365.921418,313.722161 365.921418,311.922161"/>
<polygon style="fill: #0000ff; opacity: 1.000000" clip-path="url(#7240474723315632415)" points = "368.981203,278.299456 367.415204,279.199456 367.415204,280.999456 368.981203,281.899456 370.547203,280.999456 370.547203,279.199456"/>
<polygon style="fill: #0000ff; opacity: 1.000000" clip-path="url(#7240474723315632415)" points = "371.709614,308.232879 370.143614,309.132879 370.143614,310.932879 371.709614,311.832879 373.275614,310.932879 373.275614,309.132879"/>
<polygon style="fill: #0000ff; opacity: 1.000000" clip-path="url(#7240474723315632415)" points = "375.405981,159.426901 373.839981,160.326901 373.839981,162.126901 375.405981,163.026901 376.971981,162.126901 376.971981,160.326901"/>
<polygon style="fill: #0000ff; opacity: 1.000000" clip-path="url(#7240474723315632415)" points = "379.914342,262.093847 378.348342,262.993847 378.348342,264.793847 379.914342,265.693847 381.480342,264.793847 381.480342,262.993847"/>
<polygon style="fill: #0000ff; opacity: 1.000000" clip-path="url(#7240474723315632415)" points = "380.939422,394.067470 379.373423,394.967470 379.373423,396.767470 380.939422,397.667470 382.505422,396.767470 382.505422,394.967470"/>
<polygon style="fill: #0000ff; opacity: 1.000000" clip-path="url(#7240474723315632415)" points = "380.975692,257.065173 379.409693,257.965173 379.409693,259.765173 380.975692,260.665173 382.541692,259.765173 382.541692,257.965173"/>
<polygon style="fill: #0000ff; opacity: 1.000000" clip-path="url(#7240474723315632415)" points = "381.107625,219.512210 379.541625,220.412210 379.541625,222.212210 381.107625,223.112210 382.673625,222.212210 382.673625,220.412210"/>
<polygon style="fill: #0000ff; opacity: 1.000000" clip-path="url(#7240474723315632415)" points = "385.921560,249.763746 384.355560,250.663746 384.355560,252.463746 385.921560,253.363746 387.487560,252.463746 387.487560,250.663746"/>
<polygon style="fill: #0000ff; opacity: 1.000000" clip-path="url(#7240474723315632415)" points = "388.494010,257.091133 386.928010,257.991133 386.928010,259.791133 388.494010,260.691133 390.060010,259.791133 390.060010,257.991133"/>
<polygon style="fill: #0000ff; opacity: 1.000000" clip-path="url(#7240474723315632415)" points = "390.418587,185.176928 388.852587,186.076928 388.852587,187.876928 390.418587,188.776928 391.984587,187.876928 391.984587,186.076928"/>
<polygon style="fill: #0000ff; opacity: 1.000000" clip-path="url(#7240474723315632415)" points = "391.220607,330.908818 389.654607,331.808818 389.654607,333.608818 391.220607,334.508818 392.786607,333.608818 392.786607,331.808818"/>
<polygon style="fill: #0000ff; opacity: 1.000000" clip-path="url(#7240474723315632415)" points = "391.423266,309.819105 389.857266,310.719105 389.857266,312.519105 391.423266,313.419105 392.989266,312.519105 392.989266,310.719105"/>
<polygon style="fill: #0000ff; opacity: 1.000000" clip-path="url(#7240474723315632415)" points = "391.733828,297.167823 390.167828,298.067823 390.167828,299.867823 391.733828,300.767823 393.299828,299.867823 393.299828,298.067823"/>
<polygon style="fill: #0000ff; opacity: 1.000000" clip-path="url(#7240474723315632415)" points = "397.865725,350.863712 396.299725,351.763712 396.299725,353.563712 397.865725,354.463712 399.431725,353.563712 399.431725,351.763712"/>
<polygon style="fill: #0000ff; opacity: 1.000000" clip-path="url(#7240474723315632415)" points = "398.244746,393.704825 396.678746,394.604825 396.678746,396.404825 398.244746,397.304825 399.810746,396.404825 399.810746,394.604825"/>
<polygon style="fill: #0000ff; opacity: 1.000000" clip-path="url(#7240474723315632415)" points = "403.274942,295.027119 401.708942,295.927119 401.708942,297.727119 403.274942,298.627119 404.840942,297.727119 404.840942,295.927119"/>
<polygon style="fill: #0000ff; opacity: 1.000000" clip-path="url(#7240474723315632415)" points = "406.068639,203.600717 404.502639,204.500717 404.502639,206.300717 406.068639,207.200717 407.634639,206.300717 407.634639,204.500717"/>
<polygon style="fill: #0000ff; opacity: 1.000000" clip-path="url(#7240474723315632415)" points = "407.514452,312.865618 405.948452,313.765618 405.948452,315.565618 407.514452,316.465618 409.080451,315.565618 409.080451,313.765618"/>
<polygon style="fill: #0000ff; opacity: 1.000000" clip-path="url(#7240474723315632415)" points = "407.844962,313.293551 406.278962,314.193551 406.278962,315.993551 407.844962,316.893551 409.410962,315.993551 409.410962,314.193551"/>
<polygon style="fill: #0000ff; opacity: 1.000000" clip-path="url(#7240474723315632415)" points = "407.981428,229.968600 406.415428,230.868600 406.415428,232.668600 407.981428,233.568600 409.547428,232.668600 409.547428,230.868600"/>
<polygon style="fill: #0000ff; opacity: 1.000000" clip-path="url(#7240474723315632415)" points = "416.131297,353.635350 414.565297,354.535350 414.565297,356.335350 416.131297,357.235350 417.697297,356.335350 417.697297,354.535350"/>
<polygon style="fill: #0000ff; opacity: 1.000000" clip-path="url(#7240474723315632415)" points = "420.129611,370.437593 418.563611,371.337593 418.563611,373.137593 420.129611,374.037593 421.695611,373.137593 421.695611,371.337593"/>
<polygon style="fill: #0000ff; opacity: 1.000000" clip-path="url(#7240474723315632415)" points = "420.355392,330.718324 418.789392,331.618324 418.789392,333.418324 420.355392,334.318324 421.921392,333.418324 421.921392,331.618324"/>
<polygon style="fill: #0000ff; opacity: 1.000000" clip-path="url(#7240474723315632415)" points = "428.143014,308.103702 426.577014,309.003702 426.577014,310.803702 428.143014,311.703702 429.709014,310.803702 429.709014,309.003702"/>
<polygon style="fill: #0000ff; opacity: 1.000000" clip-path="url(#7240474723315632415)" points = "439.665086,233.062686 438.099086,233.962686 438.099086,235.762686 439.665086,236.662686 441.231086,235.762686 441.231086,233.962686"/>
<polygon style="fill: #0000ff; opacity: 1.000000" clip-path="url(#7240474723315632415)" points = "440.667045,284.377283 439.101045,285.277283 439.101045,287.077283 440.667045,287.977283 442.233045,287.077283 442.233045,285.277283"/>
<polygon style="fill: #0000ff; opacity: 1.000000" clip-path="url(#7240474723315632415)" points = "444.766008,330.699744 443.200008,331.599744 443.200008,333.399744 444.766008,334.299744 446.332008,333.399744 446.332008,331.599744"/>
<polygon style="fill: #0000ff; opacity: 1.000000" clip-path="url(#7240474723315632415)" points = "445.781115,277.517028 444.215115,278.417028 444.215115,280.217028 445.781115,281.117028 447.347115,280.217028 447.347115,278.417028"/>
<polygon style="fill: #0000ff; opacity: 1.000000" clip-path="url(#7240474723315632415)" points = "446.691492,359.174655 445.125492,360.074655 445.125492,361.874655 446.691492,362.774655 448.257492,361.874655 448.257492,360.074655"/>
<polygon style="fill: #0000ff; opacity: 1.000000" clip-path="url(#7240474723315632415)" points = "446.813903,367.378321 445.247903,368.278321 445.247903,370.078321 446.813903,370.978321 448.379903,370.078321 448.379903,368.278321"/>
<polygon style="fill: #0000ff; opacity: 1.000000" clip-path="url(#7240474723315632415)" points = "455.819744,251.811356 454.253744,252.711356 454.253744,254.511356 455.819744,255.411356 457.385744,254.511356 457.385744,252.711356"/>
<polygon style="fill: #0000ff; opacity: 1.000000" clip-path="url(#7240474723315632415)" points = "458.069844,355.858568 456.503844,356.758568 456.503844,358.558568 458.069844,359.458568 459.635844,358.558568 459.635844,356.758568"/>
<polygon style="fill: #0000ff; opacity: 1.000000" clip-path="url(#7240474723315632415)" points = "461.238029,264.570013 459.672029,265.470013 459.672029,267.270013 461.238029,268.170013 462.804029,267.270013 462.804029,265.470013"/>
<polygon style="fill: #0000ff; opacity: 1.000000" clip-path="url(#7240474723315632415)" points = "466.134479,229.908515 464.568479,230.808515 464.568479,232.608515 466.134479,233.508515 467.700479,232.608515 467.700479,230.808515"/>
<polygon style="fill: #0000ff; opacity: 1.000000" clip-path="url(#7240474723315632415)" points = "472.306726,354.434501 470.740726,355.334501 470.740726,357.134501 472.306726,358.034501 473.872726,357.134501 473.872726,355.334501"/>
<polygon style="fill: #0000ff; opacity: 1.000000" clip-path="url(#7240474723315632415)" points = "477.932657,171.167876 476.366657,172.067876 476.366657,173.867876 477.932657,174.767876 479.498656,173.867876 479.498656,172.067876"/>
<polygon style="fill: #0000ff; opacity: 1.000000" clip-path="url(#7240474723315632415)" points = "480.148753,382.050424 478.582754,382.950424 478.582754,384.750424 480.148753,385.650424 481.714753,384.750424 481.714753,382.950424"/>
<polygon style="fill: #0000ff; opacity: 1.000000" clip-path="url(#7240474723315632415)" points = "480.832896,123.396679 479.266896,124.296679 479.266896,126.096679 480.832896,126.996679 482.398896,126.096679 482.398896,124.296679"/>
<polygon style="fill: #0000ff; opacity: 1.000000" clip-path="url(#7240474723315632415)" points = "482.086932,287.741025 480.520932,288.641025 480.520932,290.441025 482.086932,291.341025 483.652932,290.441025 483.652932,288.641025"/>
<polygon style="fill: #0000ff; opacity: 1.000000" clip-path="url(#7240474723315632415)" points = "486.155972,292.869327 484.589972,293.769327 484.589972,295.569327 486.155972,296.469327 487.721972,295.569327 487.721972,293.769327"/>
<polygon style="fill: #0000ff; opacity: 1.000000" clip-path="url(#7240474723315632415)" points = "488.375243,297.599802 486.809243,298.499802 486.809243,300.299802 488.375243,301.199802 489.941243,300.299802 489.941243,298.499802"/>
<polygon style="fill: #0000ff; opacity: 1.000000" clip-path="url(#7240474723315632415)" points = "490.541922,288.394804 488.975922,289.294804 488.975922,291.094804 490.541922,291.994804 492.107922,291.094804 492.107922,289.294804"/>
<polygon style="fill: #0000ff; opacity: 1.000000" clip-path="url(#7240474723315632415)" points = "491.062396,282.187577 489.496397,283.087577 489.496397,284.887577 491.062396,285.787577 492.628396,284.887577 492.628396,283.087577"/>
<polygon style="fill: #0000ff; opacity: 1.000000" clip-path="url(#7240474723315632415)" points = "493.217741,311.145341 491.651741,312.045341 491.651741,313.845341 493.217741,314.745341 494.783741,313.845341 494.783741,312.045341"/>
<polygon style="fill: #0000ff; opacity: 1.000000" clip-path="url(#7240474723315632415)" points = "494.546130,324.532074 492.980130,325.432074 492.980130,327.232074 494.546130,328.132074 496.112130,327.232074 496.112130,325.432074"/>
<polygon style="fill: #0000ff; opacity: 1.000000" clip-path="url(#7240474723315632415)" points = "497.142155,379.212263 495.576155,380.112263 495.576155,381.912263 497.142155,382.812263 498.708155,381.912263 498.708155,380.112263"/>
<polygon style="fill: #0000ff; opacity: 1.000000" clip-path="url(#7240474723315632415)" points = "498.810575,369.573437 497.244575,370.473437 497.244575,372.273437 498.810575,373.173437 500.376575,372.273437 500.376575,370.473437"/>
<polygon style="fill: #0000ff; opacity: 1.000000" clip-path="url(#7240474723315632415)" points = "504.474589,320.214264 502.908589,321.114264 502.908589,322.914264 504.474589,323.814264 506.040589,322.914264 506.040589,321.114264"/>
<polygon style="fill: #0000ff; opacity: 1.000000" clip-path="url(#7240474723315632415)" points = "504.635537,184.656645 503.069537,185.556645 503.069537,187.356645 504.635537,188.256645 506.201537,187.356645 506.201537,185.556645"/>
<polygon style="fill: #0000ff; opacity: 1.000000" clip-path="url(#7240474723315632415)" points = "516.050160,365.159133 514.484160,366.059133 514.484160,367.859133 516.050160,368.759133 517.616160,367.859133 517.616160,366.059133"/>
<polygon style="fill: #0000ff; opacity: 1.000000" clip-path="url(#7240474723315632415)" points = "519.437324,321.340546 517.871324,322.240546 517.871324,324.040546 519.437324,324.940546 521.003324,324.040546 521.003324,322.240546"/>
<path style="fill: none; stroke: #008000; stroke-width: 0.500000; stroke-linejoin: miter; stroke-linecap: square;  opacity: 1.000000" clip-path="url(#7240474723315632415)" d="M 73.901631,230.589576 L 75.174255,231.696925 L 79.132219,235.066018 L 90.551375,244.165109 L 95.364404,247.731357 L 104.212470,253.885661 L 107.541150,256.069473 L 114.616067,260.478997 L 121.569479,264.513266 L 122.579145,265.074942 L 139.839585,273.768480 L 142.816445,275.100328 L 143.808883,275.533787 L 145.283258,276.168083 L 147.172019,276.963922 L 147.332513,277.030686 L 147.695213,277.181071 L 150.467601,278.308065 L 151.509910,278.721549 L 151.524872,278.727444 L 153.538764,279.510549 L 153.985791,279.681597 L 156.914141,280.777362 L 160.978647,282.228180 L 161.468292,282.397538 L 163.228747,282.996931 L 164.824174,283.527379 L 169.779110,285.098736 L 173.359412,286.164004 L 175.578683,286.795421 L 176.450523,287.037509 L 181.585901,288.396383 L 184.959465,289.227910 L 188.077325,289.954404 L 188.260941,289.995949 L 190.556832,290.503937 L 192.832775,290.986750 L 195.512675,291.529215 L 197.912388,291.991484 L 201.094628,292.570973 L 201.987323,292.726779 L 206.363752,293.448723 L 207.473160,293.620859 L 207.580157,293.637232 L 208.300116,293.746357 L 210.432792,294.059039 L 215.207285,294.702949 L 215.290706,294.713523 L 222.052794,295.496003 L 228.046411,296.070841 L 232.047899,296.395673 L 239.394387,296.876004 L 242.716266,297.046321 L 251.267372,297.359664 L 253.110795,297.404846 L 254.220203,297.428392 L 254.752465,297.438730 L 256.573673,297.469474 L 262.168320,297.520656 L 263.242819,297.523301 L 264.626973,297.523426 L 271.678768,297.469343 L 271.715491,297.468833 L 272.178840,297.462194 L 273.078336,297.448279 L 278.438589,297.338320 L 280.638364,297.280457 L 286.007231,297.110590 L 291.203362,296.910798 L 299.053550,296.551830 L 300.462186,296.481032 L 301.630080,296.421008 L 302.554512,296.372677 L 302.564940,296.372128 L 303.167928,296.340219 L 305.060769,296.238188 L 307.259184,296.116334 L 310.464999,295.932781 L 320.148182,295.345024 L 323.689494,295.121195 L 326.883068,294.916934 L 327.253475,294.893139 L 328.799484,294.793662 L 329.246965,294.764831 L 329.667244,294.737740 L 331.786318,294.601053 L 332.021620,294.585872 L 333.034006,294.520573 L 339.484626,294.106792 L 339.880876,294.081604 L 345.546703,293.726379 L 346.225859,293.684555 L 347.989034,293.576894 L 348.765666,293.529924 L 349.122472,293.508443 L 349.183677,293.504764 L 349.304275,293.497522 L 360.334435,292.872452 L 364.355418,292.667296 L 368.981203,292.450006 L 371.709614,292.332311 L 375.405981,292.186492 L 379.914342,292.031777 L 380.939422,292.000394 L 380.975692,291.999311 L 381.107625,291.995384 L 385.921560,291.869374 L 388.494010,291.816478 L 390.418587,291.783861 L 391.220607,291.772081 L 391.423266,291.769276 L 391.733828,291.765113 L 397.865725,291.717688 L 398.244746,291.717009 L 403.274942,291.734298 L 406.068639,291.765881 L 407.514452,291.788659 L 407.844962,291.794494 L 407.981428,291.796973 L 416.131297,292.020658 L 420.129611,292.187644 L 420.355392,292.198253 L 428.143014,292.644920 L 439.665086,293.614111 L 440.667045,293.716985 L 444.766008,294.170456 L 445.781115,294.291007 L 446.691492,294.401956 L 446.813903,294.417080 L 455.819744,295.667419 L 458.069844,296.023583 L 461.238029,296.555903 L 466.134479,297.451457 L 472.306726,298.710981 L 477.932657,299.991164 L 480.148753,300.531186 L 480.832896,300.702060 L 482.086932,301.020417 L 486.155972,302.099872 L 488.375243,302.719045 L 490.541922,303.344646 L 491.062396,303.498065 L 493.217741,304.146462 L 494.546130,304.556661 L 497.142155,305.381875 L 498.810575,305.928879 L 504.474589,307.885021 L 504.635537,307.942878 L 516.050160,312.377035 L 519.437324,313.821911 "/>
<g id="matplotlib.axis1">
<g id="xtick1">
<text style="font-size: 9.996000; font-family: Bitstream Vera Serif; font-style: Roman; fill: #000000;" x="66.125000" y="406.900000" >0.0</text>
</g>
<g id="xtick2">
<path style="fill: none; stroke: #000000; stroke-width: 0.500000; stroke-linejoin: miter; stroke-linecap: butt;  opacity: 1.000000"  d="M 163.800000,396.900000 L 163.800000,391.900000"/>
<path style="fill: none; stroke: #000000; stroke-width: 0.500000; stroke-linejoin: miter; stroke-linecap: butt;  opacity: 1.000000"  d="M 163.800000,49.100000 L 163.800000,44.100000"/>
<text style="font-size: 9.996000; font-family: Bitstream Vera Serif; font-style: Roman; fill: #000000;" x="156.800000" y="406.900000" >0.2</text>
</g>
<g id="xtick3">
<path style="fill: none; stroke: #000000; stroke-width: 0.500000; stroke-linejoin: miter; stroke-linecap: butt;  opacity: 1.000000"  d="M 254.475000,396.900000 L 254.475000,391.900000"/>
<path style="fill: none; stroke: #000000; stroke-width: 0.500000; stroke-linejoin: miter; stroke-linecap: butt;  opacity: 1.000000"  d="M 254.475000,49.100000 L 254.475000,44.100000"/>
<text style="font-size: 9.996000; font-family: Bitstream Vera Serif; font-style: Roman; fill: #000000;" x="247.475000" y="406.900000" >0.4</text>
</g>
<g id="xtick4">
<path style="fill: none; stroke: #000000; stroke-width: 0.500000; stroke-linejoin: miter; stroke-linecap: butt;  opacity: 1.000000"  d="M 345.150000,396.900000 L 345.150000,391.900000"/>
<path style="fill: none; stroke: #000000; stroke-width: 0.500000; stroke-linejoin: miter; stroke-linecap: butt;  opacity: 1.000000"  d="M 345.150000,49.100000 L 345.150000,44.100000"/>
<text style="font-size: 9.996000; font-family: Bitstream Vera Serif; font-style: Roman; fill: #000000;" x="338.150000" y="406.900000" >0.6</text>
</g>
<g id="xtick5">
<path style="fill: none; stroke: #000000; stroke-width: 0.500000; stroke-linejoin: miter; stroke-linecap: butt;  opacity: 1.000000"  d="M 435.825000,396.900000 L 435.825000,391.900000"/>
<path style="fill: none; stroke: #000000; stroke-width: 0.500000; stroke-linejoin: miter; stroke-linecap: butt;  opacity: 1.000000"  d="M 435.825000,49.100000 L 435.825000,44.100000"/>
<text style="font-size: 9.996000; font-family: Bitstream Vera Serif; font-style: Roman; fill: #000000;" x="428.825000" y="406.900000" >0.8</text>
</g>
<g id="xtick6">
<text style="font-size: 9.996000; font-family: Bitstream Vera Serif; font-style: Roman; fill: #000000;" x="520.000000" y="406.900000" >1.0</text>
</g>
<text style="font-size: 12.000000; font-family: Bitstream Vera Serif; font-style: Roman; fill: #000000;" x="273.812500" y="420.900000" >Distance</text>
<text style="font-size: 9.996000; font-family: Bitstream Vera Serif; font-style: Roman; fill: #000000;" x="495.500000" y="416.900000" >x1e+6</text>
</g>
<g id="matplotlib.axis2">
<g id="ytick1">
<text style="font-size: 9.996000; font-family: Bitstream Vera Serif; font-style: Roman; fill: #000000;" x="56.125000" y="400.400000" >0.0</text>
</g>
<g id="ytick2">
<path style="fill: none; stroke: #000000; stroke-width: 0.500000; stroke-linejoin: miter; stroke-linecap: butt;  opacity: 1.000000"  d="M 73.125000,326.340000 L 78.125000,326.340000"/>
<path style="fill: none; stroke: #000000; stroke-width: 0.500000; stroke-linejoin: miter; stroke-linecap: butt;  opacity: 1.000000"  d="M 521.500000,326.340000 L 526.500000,326.340000"/>
<text style="font-size: 9.996000; font-family: Bitstream Vera Serif; font-style: Roman; fill: #000000;" x="56.125000" y="329.840000" >0.2</text>
</g>
<g id="ytick3">
<path style="fill: none; stroke: #000000; stroke-width: 0.500000; stroke-linejoin: miter; stroke-linecap: butt;  opacity: 1.000000"  d="M 73.125000,255.780000 L 78.125000,255.780000"/>
<path style="fill: none; stroke: #000000; stroke-width: 0.500000; stroke-linejoin: miter; stroke-linecap: butt;  opacity: 1.000000"  d="M 521.500000,255.780000 L 526.500000,255.780000"/>
<text style="font-size: 9.996000; font-family: Bitstream Vera Serif; font-style: Roman; fill: #000000;" x="56.125000" y="259.280000" >0.4</text>
</g>
<g id="ytick4">
<path style="fill: none; stroke: #000000; stroke-width: 0.500000; stroke-linejoin: miter; stroke-linecap: butt;  opacity: 1.000000"  d="M 73.125000,185.220000 L 78.125000,185.220000"/>
<path style="fill: none; stroke: #000000; stroke-width: 0.500000; stroke-linejoin: miter; stroke-linecap: butt;  opacity: 1.000000"  d="M 521.500000,185.220000 L 526.500000,185.220000"/>
<text style="font-size: 9.996000; font-family: Bitstream Vera Serif; font-style: Roman; fill: #000000;" x="56.125000" y="188.720000" >0.6</text>
</g>
<g id="ytick5">
<path style="fill: none; stroke: #000000; stroke-width: 0.500000; stroke-linejoin: miter; stroke-linecap: butt;  opacity: 1.000000"  d="M 73.125000,114.660000 L 78.125000,114.660000"/>
<path style="fill: none; stroke: #000000; stroke-width: 0.500000; stroke-linejoin: miter; stroke-linecap: butt;  opacity: 1.000000"  d="M 521.500000,114.660000 L 526.500000,114.660000"/>
<text style="font-size: 9.996000; font-family: Bitstream Vera Serif; font-style: Roman; fill: #000000;" x="56.125000" y="118.160000" >0.8</text>
</g>
<g id="ytick6">
<text style="font-size: 9.996000; font-family: Bitstream Vera Serif; font-style: Roman; fill: #000000;" x="57.125000" y="47.600000" >1.0</text>
</g>
<text style="font-size: 12.000000; font-family: Bitstream Vera Serif; font-style: Roman; fill: #000000;" x="51.125000" y="225.500000" transform="translate(51.125000,225.500000) rotate(-90.0) translate(-51.125000,-225.500000)">D'</text>
</g>
<path style="fill: none; stroke: #000000; stroke-width: 1.000000; stroke-linejoin: miter; stroke-linecap: square;  opacity: 1.000000"  d="M 73.125000,396.900000 L 526.500000,396.900000 L 526.500000,44.100000 L 73.125000,44.100000 L 73.125000,396.900000 "/>
<text style="font-size: 14.400000; font-family: Bitstream Vera Serif; font-style: Roman; fill: #000000;" x="267.312500" y="37.044000" >LD decay</text>
</g>
</g>
</svg>
