<?xml version="1.0" standalone="no"?>
<!DOCTYPE svg PUBLIC "-//W3C//DTD SVG 1.1//EN"
  "http://www.w3.org/Graphics/SVG/1.1/DTD/svg11.dtd">
<!-- Created with matplotlib (http://matplotlib.sourceforge.net/) -->
<svg width="585" height="441" viewBox="0 0 585 441"
   xmlns="http://www.w3.org/2000/svg"
   xmlns:xlink="http://www.w3.org/1999/xlink"
   version="1.1"
   id="svg1">
<g id="figure1">
<polygon style="fill: #ffffff; stroke: #ffffff; stroke-width: 1.000000; stroke-linejoin: miter; stroke-linecap: square;  opacity: 1.000000"  points = "0.000000,441.000000 0.000000,0.000000 585.000000,0.000000 585.000000,441.000000"/>
<g id="axes1">
<polygon style="fill: #ffffff; stroke: #000000; stroke-width: 1.000000; stroke-linejoin: miter; stroke-linecap: square;  opacity: 1.000000"  points = "73.125000,396.900000 73.125000,44.100000 526.500000,44.100000 526.500000,396.900000"/>
<defs>
    <clipPath id="7240474723315632415">
    <rect x="73.125000" y="44.100000" width="453.375000" height="352.800000"
    style="stroke: gray; fill: none;"/>
    </clipPath>
</defs>
<polygon style="fill: #0000ff; opacity: 1.000000" clip-path="url(#7240474723315632415)" points = "74.678263,43.437777 73.112263,44.337777 73.112263,46.137777 74.678263,47.037777 76.244263,46.137777 76.244263,44.337777"/>
<polygon style="fill: #0000ff; opacity: 1.000000" clip-path="url(#7240474723315632415)" points = "77.223510,393.129169 75.657510,394.029169 75.657510,395.829169 77.223510,396.729169 78.789510,395.829169 78.789510,394.029169"/>
<polygon style="fill: #0000ff; opacity: 1.000000" clip-path="url(#7240474723315632415)" points = "85.139437,395.092268 83.573437,395.992268 83.573437,397.792268 85.139437,398.692268 86.705438,397.792268 86.705438,395.992268"/>
<polygon style="fill: #0000ff; opacity: 1.000000" clip-path="url(#7240474723315632415)" points = "107.977750,233.332268 106.411750,234.232268 106.411750,236.032268 107.977750,236.932268 109.543750,236.032268 109.543750,234.232268"/>
<polygon style="fill: #0000ff; opacity: 1.000000" clip-path="url(#7240474723315632415)" points = "117.603808,193.387685 116.037808,194.287685 116.037808,196.087685 117.603808,196.987685 119.169808,196.087685 119.169808,194.287685"/>
<polygon style="fill: #0000ff; opacity: 1.000000" clip-path="url(#7240474723315632415)" points = "135.299941,305.801204 133.733941,306.701204 133.733941,308.501204 135.299941,309.401204 136.865941,308.501204 136.865941,306.701204"/>
<polygon style="fill: #0000ff; opacity: 1.000000" clip-path="url(#7240474723315632415)" points = "170.013958,271.901392 168.447958,272.801392 168.447958,274.601392 170.013958,275.501392 171.579958,274.601392 171.579958,272.801392"/>
<polygon style="fill: #0000ff; opacity: 1.000000" clip-path="url(#7240474723315632415)" points = "172.033290,342.672579 170.467290,343.572579 170.467290,345.372579 172.033290,346.272579 173.599290,345.372579 173.599290,343.572579"/>
<polygon style="fill: #0000ff; opacity: 1.000000" clip-path="url(#7240474723315632415)" points = "206.554169,384.215296 204.988169,385.115296 204.988169,386.915296 206.554169,387.815296 208.120169,386.915296 208.120169,385.115296"/>
<polygon style="fill: #0000ff; opacity: 1.000000" clip-path="url(#7240474723315632415)" points = "212.507890,352.686110 210.941890,353.586110 210.941890,355.386110 212.507890,356.286110 214.073890,355.386110 214.073890,353.586110"/>
<polygon style="fill: #0000ff; opacity: 1.000000" clip-path="url(#7240474723315632415)" points = "214.492765,310.998032 212.926765,311.898032 212.926765,313.698032 214.492765,314.598032 216.058765,313.698032 216.058765,311.898032"/>
<polygon style="fill: #0000ff; opacity: 1.000000" clip-path="url(#7240474723315632415)" points = "217.441517,394.082957 215.875517,394.982957 215.875517,396.782957 217.441517,397.682957 219.007517,396.782957 219.007517,394.982957"/>
<polygon style="fill: #0000ff; opacity: 1.000000" clip-path="url(#7240474723315632415)" points = "221.219037,308.119456 219.653037,309.019456 219.653037,310.819456 221.219037,311.719456 222.785037,310.819456 222.785037,309.019456"/>
<polygon style="fill: #0000ff; opacity: 1.000000" clip-path="url(#7240474723315632415)" points = "221.540027,355.148183 219.974027,356.048183 219.974027,357.848183 221.540027,358.748183 223.106027,357.848183 223.106027,356.048183"/>
<polygon style="fill: #0000ff; opacity: 1.000000" clip-path="url(#7240474723315632415)" points = "222.265426,270.247828 220.699426,271.147828 220.699426,272.947828 222.265426,273.847828 223.831426,272.947828 223.831426,271.147828"/>
<polygon style="fill: #0000ff; opacity: 1.000000" clip-path="url(#7240474723315632415)" points = "227.810203,326.742141 226.244203,327.642141 226.244203,329.442141 227.810203,330.342141 229.376203,329.442141 229.376203,327.642141"/>
<polygon style="fill: #0000ff; opacity: 1.000000" clip-path="url(#7240474723315632415)" points = "229.894821,311.664395 228.328821,312.564395 228.328821,314.364395 229.894821,315.264395 231.460821,314.364395 231.460821,312.564395"/>
<polygon style="fill: #0000ff; opacity: 1.000000" clip-path="url(#7240474723315632415)" points = "229.924744,370.477753 228.358744,371.377753 228.358744,373.177753 229.924744,374.077753 231.490744,373.177753 231.490744,371.377753"/>
<polygon style="fill: #0000ff; opacity: 1.000000" clip-path="url(#7240474723315632415)" points = "233.952527,393.007070 232.386527,393.907070 232.386527,395.707070 233.952527,396.607070 235.518527,395.707070 235.518527,393.907070"/>
<polygon style="fill: #0000ff; opacity: 1.000000" clip-path="url(#7240474723315632415)" points = "234.846583,273.076833 233.280583,273.976833 233.280583,275.776833 234.846583,276.676833 236.412583,275.776833 236.412583,273.976833"/>
<polygon style="fill: #0000ff; opacity: 1.000000" clip-path="url(#7240474723315632415)" points = "240.703281,281.103407 239.137281,282.003407 239.137281,283.803407 240.703281,284.703407 242.269281,283.803407 242.269281,282.003407"/>
<polygon style="fill: #0000ff; opacity: 1.000000" clip-path="url(#7240474723315632415)" points = "248.832295,362.331196 247.266295,363.231196 247.266295,365.031196 248.832295,365.931196 250.398295,365.031196 250.398295,363.231196"/>
<polygon style="fill: #0000ff; opacity: 1.000000" clip-path="url(#7240474723315632415)" points = "249.811585,372.769892 248.245585,373.669892 248.245585,375.469892 249.811585,376.369892 251.377585,375.469892 251.377585,373.669892"/>
<polygon style="fill: #0000ff; opacity: 1.000000" clip-path="url(#7240474723315632415)" points = "253.332495,299.909582 251.766495,300.809582 251.766495,302.609582 253.332495,303.509582 254.898495,302.609582 254.898495,300.809582"/>
<polygon style="fill: #0000ff; opacity: 1.000000" clip-path="url(#7240474723315632415)" points = "256.523348,385.369109 254.957348,386.269109 254.957348,388.069109 256.523348,388.969109 258.089348,388.069109 258.089348,386.269109"/>
<polygon style="fill: #0000ff; opacity: 1.000000" clip-path="url(#7240474723315632415)" points = "266.433219,391.285946 264.867219,392.185946 264.867219,393.985946 266.433219,394.885946 267.999219,393.985946 267.999219,392.185946"/>
<polygon style="fill: #0000ff; opacity: 1.000000" clip-path="url(#7240474723315632415)" points = "273.593824,393.512605 272.027824,394.412605 272.027824,396.212605 273.593824,397.112605 275.159824,396.212605 275.159824,394.412605"/>
<polygon style="fill: #0000ff; opacity: 1.000000" clip-path="url(#7240474723315632415)" points = "278.032365,361.754920 276.466365,362.654920 276.466365,364.454920 278.032365,365.354920 279.598365,364.454920 279.598365,362.654920"/>
<polygon style="fill: #0000ff; opacity: 1.000000" clip-path="url(#7240474723315632415)" points = "279.776045,260.676302 278.210045,261.576302 278.210045,263.376302 279.776045,264.276302 281.342045,263.376302 281.342045,261.576302"/>
<polygon style="fill: #0000ff; opacity: 1.000000" clip-path="url(#7240474723315632415)" points = "290.046803,377.199150 288.480803,378.099150 288.480803,379.899150 290.046803,380.799150 291.612802,379.899150 291.612802,378.099150"/>
<polygon style="fill: #0000ff; opacity: 1.000000" clip-path="url(#7240474723315632415)" points = "296.793929,302.996559 295.227929,303.896559 295.227929,305.696559 296.793929,306.596559 298.359929,305.696559 298.359929,303.896559"/>
<polygon style="fill: #0000ff; opacity: 1.000000" clip-path="url(#7240474723315632415)" points = "303.029649,303.071582 301.463649,303.971582 301.463649,305.771582 303.029649,306.671582 304.595649,305.771582 304.595649,303.971582"/>
<polygon style="fill: #0000ff; opacity: 1.000000" clip-path="url(#7240474723315632415)" points = "303.396883,341.642546 301.830883,342.542546 301.830883,344.342546 303.396883,345.242546 304.962883,344.342546 304.962883,342.542546"/>
<polygon style="fill: #0000ff; opacity: 1.000000" clip-path="url(#7240474723315632415)" points = "307.988665,369.615937 306.422665,370.515937 306.422665,372.315937 307.988665,373.215937 309.554665,372.315937 309.554665,370.515937"/>
<polygon style="fill: #0000ff; opacity: 1.000000" clip-path="url(#7240474723315632415)" points = "312.540550,333.884804 310.974550,334.784804 310.974550,336.584804 312.540550,337.484804 314.106550,336.584804 314.106550,334.784804"/>
<polygon style="fill: #0000ff; opacity: 1.000000" clip-path="url(#7240474723315632415)" points = "317.900349,326.393371 316.334349,327.293371 316.334349,329.093371 317.900349,329.993371 319.466349,329.093371 319.466349,327.293371"/>
<polygon style="fill: #0000ff; opacity: 1.000000" clip-path="url(#7240474723315632415)" points = "322.699777,378.839548 321.133777,379.739548 321.133777,381.539548 322.699777,382.439548 324.265777,381.539548 324.265777,379.739548"/>
<polygon style="fill: #0000ff; opacity: 1.000000" clip-path="url(#7240474723315632415)" points = "329.064255,337.290172 327.498255,338.190172 327.498255,339.990172 329.064255,340.890172 330.630255,339.990172 330.630255,338.190172"/>
<polygon style="fill: #0000ff; opacity: 1.000000" clip-path="url(#7240474723315632415)" points = "330.849646,367.606051 329.283646,368.506051 329.283646,370.306051 330.849646,371.206051 332.415646,370.306051 332.415646,368.506051"/>
<polygon style="fill: #0000ff; opacity: 1.000000" clip-path="url(#7240474723315632415)" points = "339.602504,358.022367 338.036504,358.922367 338.036504,360.722367 339.602504,361.622367 341.168503,360.722367 341.168503,358.922367"/>
<polygon style="fill: #0000ff; opacity: 1.000000" clip-path="url(#7240474723315632415)" points = "341.821321,192.125778 340.255321,193.025778 340.255321,194.825778 341.821321,195.725778 343.387321,194.825778 343.387321,193.025778"/>
<polygon style="fill: #0000ff; opacity: 1.000000" clip-path="url(#7240474723315632415)" points = "342.035314,394.562477 340.469314,395.462477 340.469314,397.262477 342.035314,398.162477 343.601314,397.262477 343.601314,395.462477"/>
<polygon style="fill: #0000ff; opacity: 1.000000" clip-path="url(#7240474723315632415)" points = "347.740585,323.659205 346.174585,324.559205 346.174585,326.359205 347.740585,327.259205 349.306585,326.359205 349.306585,324.559205"/>
<polygon style="fill: #0000ff; opacity: 1.000000" clip-path="url(#7240474723315632415)" points = "357.289569,376.780176 355.723569,377.680176 355.723569,379.480176 357.289569,380.380176 358.855569,379.480176 358.855569,377.680176"/>
<polygon style="fill: #0000ff; opacity: 1.000000" clip-path="url(#7240474723315632415)" points = "357.456411,331.729687 355.890411,332.629687 355.890411,334.429687 357.456411,335.329687 359.022411,334.429687 359.022411,332.629687"/>
<polygon style="fill: #0000ff; opacity: 1.000000" clip-path="url(#7240474723315632415)" points = "370.980587,349.587821 369.414587,350.487821 369.414587,352.287821 370.980587,353.187821 372.546587,352.287821 372.546587,350.487821"/>
<polygon style="fill: #0000ff; opacity: 1.000000" clip-path="url(#7240474723315632415)" points = "382.967822,375.553703 381.401822,376.453703 381.401822,378.253703 382.967822,379.153703 384.533822,378.253703 384.533822,376.453703"/>
<polygon style="fill: #0000ff; opacity: 1.000000" clip-path="url(#7240474723315632415)" points = "405.663775,328.302428 404.097775,329.202428 404.097775,331.002428 405.663775,331.902428 407.229775,331.002428 407.229775,329.202428"/>
<polygon style="fill: #0000ff; opacity: 1.000000" clip-path="url(#7240474723315632415)" points = "412.307532,347.934232 410.741532,348.834232 410.741532,350.634232 412.307532,351.534232 413.873532,350.634232 413.873532,348.834232"/>
<polygon style="fill: #0000ff; opacity: 1.000000" clip-path="url(#7240474723315632415)" points = "416.705269,356.739124 415.139270,357.639124 415.139270,359.439124 416.705269,360.339124 418.271269,359.439124 418.271269,357.639124"/>
<polygon style="fill: #0000ff; opacity: 1.000000" clip-path="url(#7240474723315632415)" points = "426.751153,316.232528 425.185153,317.132528 425.185153,318.932528 426.751153,319.832528 428.317153,318.932528 428.317153,317.132528"/>
<polygon style="fill: #0000ff; opacity: 1.000000" clip-path="url(#7240474723315632415)" points = "429.409744,393.189149 427.843744,394.089149 427.843744,395.889149 429.409744,396.789149 430.975744,395.889149 430.975744,394.089149"/>
<polygon style="fill: #0000ff; opacity: 1.000000" clip-path="url(#7240474723315632415)" points = "433.096589,314.573803 431.530589,315.473803 431.530589,317.273803 433.096589,318.173803 434.662589,317.273803 434.662589,315.473803"/>
<polygon style="fill: #0000ff; opacity: 1.000000" clip-path="url(#7240474723315632415)" points = "435.315406,395.083175 433.749407,395.983175 433.749407,397.783175 435.315406,398.683175 436.881406,397.783175 436.881406,395.983175"/>
<polygon style="fill: #0000ff; opacity: 1.000000" clip-path="url(#7240474723315632415)" points = "436.379931,295.784824 434.813931,296.684824 434.813931,298.484824 436.379931,299.384824 437.945931,298.484824 437.945931,296.684824"/>
<polygon style="fill: #0000ff; opacity: 1.000000" clip-path="url(#7240474723315632415)" points = "440.022346,285.126918 438.456346,286.026918 438.456346,287.826918 440.022346,288.726918 441.588346,287.826918 441.588346,286.026918"/>
<polygon style="fill: #0000ff; opacity: 1.000000" clip-path="url(#7240474723315632415)" points = "451.211641,359.456547 449.645641,360.356547 449.645641,362.156547 451.211641,363.056547 452.777641,362.156547 452.777641,360.356547"/>
<polygon style="fill: #0000ff; opacity: 1.000000" clip-path="url(#7240474723315632415)" points = "453.360638,387.954718 451.794638,388.854718 451.794638,390.654718 453.360638,391.554718 454.926638,390.654718 454.926638,388.854718"/>
<polygon style="fill: #0000ff; opacity: 1.000000" clip-path="url(#7240474723315632415)" points = "456.128946,339.280878 454.562946,340.180878 454.562946,341.980878 456.128946,342.880878 457.694946,341.980878 457.694946,340.180878"/>
<polygon style="fill: #0000ff; opacity: 1.000000" clip-path="url(#7240474723315632415)" points = "470.232535,371.913673 468.666536,372.813673 468.666536,374.613673 470.232535,375.513673 471.798535,374.613673 471.798535,372.813673"/>
<polygon style="fill: #0000ff; opacity: 1.000000" clip-path="url(#7240474723315632415)" points = "470.305982,394.926905 468.739982,395.826905 468.739982,397.626905 470.305982,398.526905 471.871982,397.626905 471.871982,395.826905"/>
<polygon style="fill: #0000ff; opacity: 1.000000" clip-path="url(#7240474723315632415)" points = "471.232681,392.055009 469.666681,392.955009 469.666681,394.755009 471.232681,395.655009 472.798681,394.755009 472.798681,392.955009"/>
<polygon style="fill: #0000ff; opacity: 1.000000" clip-path="url(#7240474723315632415)" points = "473.031673,387.654428 471.465673,388.554428 471.465673,390.354428 473.031673,391.254428 474.597673,390.354428 474.597673,388.554428"/>
<polygon style="fill: #0000ff; opacity: 1.000000" clip-path="url(#7240474723315632415)" points = "483.752178,270.213891 482.186178,271.113891 482.186178,272.913891 483.752178,273.813891 485.318178,272.913891 485.318178,271.113891"/>
<polygon style="fill: #0000ff; opacity: 1.000000" clip-path="url(#7240474723315632415)" points = "488.151729,351.676472 486.585729,352.576472 486.585729,354.376472 488.151729,355.276472 489.717729,354.376472 489.717729,352.576472"/>
<polygon style="fill: #0000ff; opacity: 1.000000" clip-path="url(#7240474723315632415)" points = "498.889462,385.303322 497.323463,386.203322 497.323463,388.003322 498.889462,388.903322 500.455462,388.003322 500.455462,386.203322"/>
<polygon style="fill: #0000ff; opacity: 1.000000" clip-path="url(#7240474723315632415)" points = "509.281724,336.905073 507.715724,337.805073 507.715724,339.605073 509.281724,340.505073 510.847724,339.605073 510.847724,337.805073"/>
<polygon style="fill: #0000ff; opacity: 1.000000" clip-path="url(#7240474723315632415)" points = "524.982101,376.685034 523.416100,377.585034 523.416100,379.385034 524.982101,380.285034 526.548101,379.385034 526.548101,377.585034"/>
<path style="fill: none; stroke: #008000; stroke-width: 0.500000; stroke-linejoin: miter; stroke-linecap: square;  opacity: 1.000000" clip-path="url(#7240474723315632415)" d="M 74.678263,243.402028 L 77.223510,246.238861 L 85.139437,254.724567 L 107.977750,276.466266 L 117.603808,284.474766 L 135.299941,297.532644 L 170.013958,317.456193 L 172.033290,318.403563 L 206.554169,331.456404 L 212.507890,333.159130 L 214.492765,333.694319 L 217.441517,334.460224 L 221.219037,335.391553 L 221.540027,335.468158 L 222.265426,335.639833 L 227.810203,336.887135 L 229.894821,337.327037 L 229.924744,337.333239 L 233.952527,338.139283 L 234.846583,338.310587 L 240.703281,339.366494 L 248.832295,340.650120 L 249.811585,340.791157 L 253.332495,341.275097 L 256.523348,341.683225 L 266.433219,342.777126 L 273.593824,343.416629 L 278.032365,343.755076 L 279.776045,343.876629 L 290.046803,344.472343 L 296.793929,344.762691 L 303.029649,344.969367 L 303.396883,344.979856 L 307.988665,345.096492 L 312.540550,345.187596 L 317.900349,345.267480 L 322.699777,345.317510 L 329.064255,345.358469 L 330.849646,345.365716 L 339.602504,345.382245 L 341.821321,345.382995 L 342.035314,345.383023 L 347.740585,345.382314 L 357.289569,345.386231 L 357.456411,345.386483 L 370.980587,345.449675 L 382.967822,345.616127 L 405.663775,346.407890 L 412.307532,346.798515 L 416.705269,347.104958 L 426.751153,347.963542 L 429.409744,348.230600 L 433.096589,348.630486 L 435.315406,348.888258 L 436.379931,349.016617 L 440.022346,349.479416 L 451.211641,351.142902 L 453.360638,351.506618 L 456.128946,351.997269 L 470.232535,354.906507 L 470.305982,354.923539 L 471.232681,355.140181 L 473.031673,355.570051 L 483.752178,358.395570 L 488.151729,359.691601 L 498.889462,363.209526 L 509.281724,367.121970 L 524.982101,374.056444 "/>
<g id="matplotlib.axis1">
<g id="xtick1">
<text style="font-size: 9.996000; font-family: Bitstream Vera Serif; font-style: Roman; fill: #000000;" x="70.625000" y="406.900000" >0</text>
</g>
<g id="xtick2">
<path style="fill: none; stroke: #000000; stroke-width: 0.500000; stroke-linejoin: miter; stroke-linecap: butt;  opacity: 1.000000"  d="M 163.800000,396.900000 L 163.800000,391.900000"/>
<path style="fill: none; stroke: #000000; stroke-width: 0.500000; stroke-linejoin: miter; stroke-linecap: butt;  opacity: 1.000000"  d="M 163.800000,49.100000 L 163.800000,44.100000"/>
<text style="font-size: 9.996000; font-family: Bitstream Vera Serif; font-style: Roman; fill: #000000;" x="162.300000" y="406.900000" >1</text>
</g>
<g id="xtick3">
<path style="fill: none; stroke: #000000; stroke-width: 0.500000; stroke-linejoin: miter; stroke-linecap: butt;  opacity: 1.000000"  d="M 254.475000,396.900000 L 254.475000,391.900000"/>
<path style="fill: none; stroke: #000000; stroke-width: 0.500000; stroke-linejoin: miter; stroke-linecap: butt;  opacity: 1.000000"  d="M 254.475000,49.100000 L 254.475000,44.100000"/>
<text style="font-size: 9.996000; font-family: Bitstream Vera Serif; font-style: Roman; fill: #000000;" x="251.975000" y="406.900000" >2</text>
</g>
<g id="xtick4">
<path style="fill: none; stroke: #000000; stroke-width: 0.500000; stroke-linejoin: miter; stroke-linecap: butt;  opacity: 1.000000"  d="M 345.150000,396.900000 L 345.150000,391.900000"/>
<path style="fill: none; stroke: #000000; stroke-width: 0.500000; stroke-linejoin: miter; stroke-linecap: butt;  opacity: 1.000000"  d="M 345.150000,49.100000 L 345.150000,44.100000"/>
<text style="font-size: 9.996000; font-family: Bitstream Vera Serif; font-style: Roman; fill: #000000;" x="342.650000" y="406.900000" >3</text>
</g>
<g id="xtick5">
<path style="fill: none; stroke: #000000; stroke-width: 0.500000; stroke-linejoin: miter; stroke-linecap: butt;  opacity: 1.000000"  d="M 435.825000,396.900000 L 435.825000,391.900000"/>
<path style="fill: none; stroke: #000000; stroke-width: 0.500000; stroke-linejoin: miter; stroke-linecap: butt;  opacity: 1.000000"  d="M 435.825000,49.100000 L 435.825000,44.100000"/>
<text style="font-size: 9.996000; font-family: Bitstream Vera Serif; font-style: Roman; fill: #000000;" x="433.325000" y="406.900000" >4</text>
</g>
<g id="xtick6">
<text style="font-size: 9.996000; font-family: Bitstream Vera Serif; font-style: Roman; fill: #000000;" x="524.000000" y="406.900000" >5</text>
</g>
<text style="font-size: 12.000000; font-family: Bitstream Vera Serif; font-style: Roman; fill: #000000;" x="273.812500" y="420.900000" >Distance</text>
<text style="font-size: 9.996000; font-family: Bitstream Vera Serif; font-style: Roman; fill: #000000;" x="495.500000" y="416.900000" >x1e+5</text>
</g>
<g id="matplotlib.axis2">
<g id="ytick1">
<text style="font-size: 9.996000; font-family: Bitstream Vera Serif; font-style: Roman; fill: #000000;" x="56.125000" y="400.400000" >0.0</text>
</g>
<g id="ytick2">
<path style="fill: none; stroke: #000000; stroke-width: 0.500000; stroke-linejoin: miter; stroke-linecap: butt;  opacity: 1.000000"  d="M 73.125000,326.340000 L 78.125000,326.340000"/>
<path style="fill: none; stroke: #000000; stroke-width: 0.500000; stroke-linejoin: miter; stroke-linecap: butt;  opacity: 1.000000"  d="M 521.500000,326.340000 L 526.500000,326.340000"/>
<text style="font-size: 9.996000; font-family: Bitstream Vera Serif; font-style: Roman; fill: #000000;" x="56.125000" y="329.840000" >0.2</text>
</g>
<g id="ytick3">
<path style="fill: none; stroke: #000000; stroke-width: 0.500000; stroke-linejoin: miter; stroke-linecap: butt;  opacity: 1.000000"  d="M 73.125000,255.780000 L 78.125000,255.780000"/>
<path style="fill: none; stroke: #000000; stroke-width: 0.500000; stroke-linejoin: miter; stroke-linecap: butt;  opacity: 1.000000"  d="M 521.500000,255.780000 L 526.500000,255.780000"/>
<text style="font-size: 9.996000; font-family: Bitstream Vera Serif; font-style: Roman; fill: #000000;" x="56.125000" y="259.280000" >0.4</text>
</g>
<g id="ytick4">
<path style="fill: none; stroke: #000000; stroke-width: 0.500000; stroke-linejoin: miter; stroke-linecap: butt;  opacity: 1.000000"  d="M 73.125000,185.220000 L 78.125000,185.220000"/>
<path style="fill: none; stroke: #000000; stroke-width: 0.500000; stroke-linejoin: miter; stroke-linecap: butt;  opacity: 1.000000"  d="M 521.500000,185.220000 L 526.500000,185.220000"/>
<text style="font-size: 9.996000; font-family: Bitstream Vera Serif; font-style: Roman; fill: #000000;" x="56.125000" y="188.720000" >0.6</text>
</g>
<g id="ytick5">
<path style="fill: none; stroke: #000000; stroke-width: 0.500000; stroke-linejoin: miter; stroke-linecap: butt;  opacity: 1.000000"  d="M 73.125000,114.660000 L 78.125000,114.660000"/>
<path style="fill: none; stroke: #000000; stroke-width: 0.500000; stroke-linejoin: miter; stroke-linecap: butt;  opacity: 1.000000"  d="M 521.500000,114.660000 L 526.500000,114.660000"/>
<text style="font-size: 9.996000; font-family: Bitstream Vera Serif; font-style: Roman; fill: #000000;" x="56.125000" y="118.160000" >0.8</text>
</g>
<g id="ytick6">
<text style="font-size: 9.996000; font-family: Bitstream Vera Serif; font-style: Roman; fill: #000000;" x="57.125000" y="47.600000" >1.0</text>
</g>
<g id="mathtext1">
<text style="font-size: 8.400000; font-family: cmr10; fill: #000000;" x="55.125000" y="216.351562" transform="translate(51.125000,224.851562) rotate(-90.0) translate(-51.125000,-224.851562)">2</text>
<text style="font-size: 12.000000; font-family: cmmi10; fill: #000000;" x="51.125000" y="213.351562" transform="translate(51.125000,224.851562) rotate(-90.0) translate(-51.125000,-224.851562)">r</text>
</g>
</g>
<path style="fill: none; stroke: #000000; stroke-width: 1.000000; stroke-linejoin: miter; stroke-linecap: square;  opacity: 1.000000"  d="M 73.125000,396.900000 L 526.500000,396.900000 L 526.500000,44.100000 L 73.125000,44.100000 L 73.125000,396.900000 "/>
<text style="font-size: 14.400000; font-family: Bitstream Vera Serif; font-style: Roman; fill: #000000;" x="267.312500" y="37.044000" >LD decay</text>
</g>
</g>
</svg>
