<?xml version="1.0" encoding="UTF-8" standalone="no"?>
<!-- Created with matplotlib (http://matplotlib.sourceforge.net/) -->
<svg
   xmlns:dc="http://purl.org/dc/elements/1.1/"
   xmlns:cc="http://creativecommons.org/ns#"
   xmlns:rdf="http://www.w3.org/1999/02/22-rdf-syntax-ns#"
   xmlns:svg="http://www.w3.org/2000/svg"
   xmlns="http://www.w3.org/2000/svg"
   xmlns:xlink="http://www.w3.org/1999/xlink"
   xmlns:sodipodi="http://sodipodi.sourceforge.net/DTD/sodipodi-0.dtd"
   xmlns:inkscape="http://www.inkscape.org/namespaces/inkscape"
   width="930pt"
   height="518pt"
   viewBox="0 0 930 518"
   version="1.1"
   id="svg1"
   sodipodi:version="0.32"
   inkscape:version="0.46"
   inkscape:output_extension="org.inkscape.output.svg.inkscape"
   sodipodi:docname="call_method_33_vs_2010_mismatch_rate_hist.svg"
   inkscape:export-filename="/usr/local/home_ubuntu/crocea/script/variation/doc/gwa/figures/call_method_33_vs_2010_mismatch_rate_hist.png"
   inkscape:export-xdpi="99.974808"
   inkscape:export-ydpi="99.974808">
  <metadata
     id="metadata5941">
    <rdf:RDF>
      <cc:Work
         rdf:about="">
        <dc:format>image/svg+xml</dc:format>
        <dc:type
           rdf:resource="http://purl.org/dc/dcmitype/StillImage" />
      </cc:Work>
    </rdf:RDF>
  </metadata>
  <sodipodi:namedview
     inkscape:window-height="998"
     inkscape:window-width="1506"
     inkscape:pageshadow="2"
     inkscape:pageopacity="0.0"
     guidetolerance="10.0"
     gridtolerance="10.0"
     objecttolerance="10.0"
     borderopacity="1.0"
     bordercolor="#666666"
     pagecolor="#ffffff"
     id="base"
     showgrid="false"
     inkscape:zoom="0.46537634"
     inkscape:cx="581.25"
     inkscape:cy="323.75"
     inkscape:window-x="6"
     inkscape:window-y="46"
     inkscape:current-layer="figure1" />
  <g
     id="figure1">
    <polygon
       style="fill: #ffffff; stroke: #ffffff; stroke-width: 1.0; stroke-linejoin: miter; stroke-linecap: square;  opacity: 1.0"
       points="0.0,518.4 0.0,0.0 930.6,0.0 930.6,518.4"
       id="polygon5589" />
    <g
       id="axes1">
      <polygon
         style="fill: #ffffff; stroke: #000000; stroke-width: 1.0; stroke-linejoin: miter; stroke-linecap: square;  opacity: 1.0"
         points="116.325,466.56 116.325,51.84 837.54,51.84 837.54,466.56"
         id="polygon5592" />
      <defs
         id="defs5594">
        <clipPath
           id="491023673880104469">
          <rect
             x="116.325"
             y="51.84"
             width="721.215"
             height="414.72"
             style="stroke: gray; fill: none;"
             id="rect5597" />
        </clipPath>
      </defs>
      <polygon
         style="fill: #0000ff; stroke: #000000; stroke-width: 1.0; stroke-linejoin: miter; stroke-linecap: square;  opacity: 1.0"
         clip-path="url(#491023673880104469)"
         points="184.236014776,466.56 184.236014776,333.8496 241.492129779,333.8496 241.492129779,466.56"
         id="polygon5599" />
      <polygon
         style="fill: #0000ff; stroke: #000000; stroke-width: 1.0; stroke-linejoin: miter; stroke-linecap: square;  opacity: 1.0"
         clip-path="url(#491023673880104469)"
         points="247.853920335,466.56 247.853920335,167.9616 305.110035338,167.9616 305.110035338,466.56"
         id="polygon5601" />
      <polygon
         style="fill: #0000ff; stroke: #000000; stroke-width: 1.0; stroke-linejoin: miter; stroke-linecap: square;  opacity: 1.0"
         clip-path="url(#491023673880104469)"
         points="311.471825894,466.56 311.471825894,51.84 368.727940897,51.84 368.727940897,466.56"
         id="polygon5603" />
      <polygon
         style="fill: #0000ff; stroke: #000000; stroke-width: 1.0; stroke-linejoin: miter; stroke-linecap: square;  opacity: 1.0"
         clip-path="url(#491023673880104469)"
         points="375.089731453,466.56 375.089731453,333.8496 432.345846456,333.8496 432.345846456,466.56"
         id="polygon5605" />
      <polygon
         style="fill: #0000ff; stroke: #000000; stroke-width: 1.0; stroke-linejoin: miter; stroke-linecap: square;  opacity: 1.0"
         clip-path="url(#491023673880104469)"
         points="438.707637012,466.56 438.707637012,367.0272 495.963752015,367.0272 495.963752015,466.56"
         id="polygon5607" />
      <polygon
         style="fill: #0000ff; stroke: #000000; stroke-width: 1.0; stroke-linejoin: miter; stroke-linecap: square;  opacity: 1.0"
         clip-path="url(#491023673880104469)"
         points="502.325542571,466.56 502.325542571,449.9712 559.581657574,449.9712 559.581657574,466.56"
         id="polygon5609" />
      <polygon
         style="fill: #0000ff; stroke: #000000; stroke-width: 1.0; stroke-linejoin: miter; stroke-linecap: square;  opacity: 1.0"
         clip-path="url(#491023673880104469)"
         points="565.943448129,466.56 565.943448129,416.7936 623.199563132,416.7936 623.199563132,466.56"
         id="polygon5611" />
      <polygon
         style="fill: #0000ff; stroke: #000000; stroke-width: 1.0; stroke-linejoin: miter; stroke-linecap: square;  opacity: 1.0"
         clip-path="url(#491023673880104469)"
         points="629.561353688,466.56 629.561353688,416.7936 686.817468691,416.7936 686.817468691,466.56"
         id="polygon5613" />
      <polygon
         style="fill: #0000ff; stroke: #000000; stroke-width: 1.0; stroke-linejoin: miter; stroke-linecap: square;  opacity: 1.0"
         clip-path="url(#491023673880104469)"
         points="693.179259247,466.56 693.179259247,449.9712 750.43537425,449.9712 750.43537425,466.56"
         id="polygon5615" />
      <polygon
         style="fill: #0000ff; stroke: #000000; stroke-width: 1.0; stroke-linejoin: miter; stroke-linecap: square;  opacity: 1.0"
         clip-path="url(#491023673880104469)"
         points="756.797164806,466.56 756.797164806,433.3824 814.053279809,433.3824 814.053279809,466.56"
         id="polygon5617" />
      <g
         id="matplotlib.axis1">
        <g
           id="xtick1">
          <g
             style="fill: #000000; opacity: 1.0"
             transform="translate(99.934375,479.46625)scale(0.12)"
             id="g5621">
            <use
               xlink:href="#c_0"
               id="use5623" />
            <use
               xlink:href="#c_1"
               transform="translate(63.623046875)"
               id="use5625" />
            <use
               xlink:href="#c_0"
               transform="translate(95.41015625)"
               id="use5627" />
            <use
               xlink:href="#c_0"
               transform="translate(159.033203125)"
               id="use5629" />
            <use
               xlink:href="#c_0"
               transform="translate(222.65625)"
               id="use5631" />
          </g>
        </g>
        <g
           id="xtick2">
          <path
             style="fill: none; stroke: #000000; stroke-width: 0.5; stroke-linejoin: miter; stroke-linecap: butt;  opacity: 1.0"
             d="M196.46,466.56L196.46,462.56"
             id="path5634" />
          <path
             style="fill: none; stroke: #000000; stroke-width: 0.5; stroke-linejoin: miter; stroke-linecap: butt;  opacity: 1.0"
             d="M196.46,55.84L196.46,51.84"
             id="path5636" />
          <g
             style="fill: #000000; opacity: 1.0"
             transform="translate(180.194375,479.46625)scale(0.12)"
             id="g5638">
            <use
               xlink:href="#c_0"
               id="use5640" />
            <use
               xlink:href="#c_1"
               transform="translate(63.623046875)"
               id="use5642" />
            <use
               xlink:href="#c_0"
               transform="translate(95.41015625)"
               id="use5644" />
            <use
               xlink:href="#c_0"
               transform="translate(159.033203125)"
               id="use5646" />
            <use
               xlink:href="#c_2"
               transform="translate(222.65625)"
               id="use5648" />
          </g>
        </g>
        <g
           id="xtick3">
          <path
             style="fill: none; stroke: #000000; stroke-width: 0.5; stroke-linejoin: miter; stroke-linecap: butt;  opacity: 1.0"
             d="M276.595,466.56L276.595,462.56"
             id="path5651" />
          <path
             style="fill: none; stroke: #000000; stroke-width: 0.5; stroke-linejoin: miter; stroke-linecap: butt;  opacity: 1.0"
             d="M276.595,55.84L276.595,51.84"
             id="path5653" />
          <g
             style="fill: #000000; opacity: 1.0"
             transform="translate(260.204375,479.46625)scale(0.12)"
             id="g5655">
            <use
               xlink:href="#c_0"
               id="use5657" />
            <use
               xlink:href="#c_1"
               transform="translate(63.623046875)"
               id="use5659" />
            <use
               xlink:href="#c_0"
               transform="translate(95.41015625)"
               id="use5661" />
            <use
               xlink:href="#c_3"
               transform="translate(159.033203125)"
               id="use5663" />
            <use
               xlink:href="#c_0"
               transform="translate(222.65625)"
               id="use5665" />
          </g>
        </g>
        <g
           id="xtick4">
          <path
             style="fill: none; stroke: #000000; stroke-width: 0.5; stroke-linejoin: miter; stroke-linecap: butt;  opacity: 1.0"
             d="M356.73,466.56L356.73,462.56"
             id="path5668" />
          <path
             style="fill: none; stroke: #000000; stroke-width: 0.5; stroke-linejoin: miter; stroke-linecap: butt;  opacity: 1.0"
             d="M356.73,55.84L356.73,51.84"
             id="path5670" />
          <g
             style="fill: #000000; opacity: 1.0"
             transform="translate(340.464375,479.46625)scale(0.12)"
             id="g5672">
            <use
               xlink:href="#c_0"
               id="use5674" />
            <use
               xlink:href="#c_1"
               transform="translate(63.623046875)"
               id="use5676" />
            <use
               xlink:href="#c_0"
               transform="translate(95.41015625)"
               id="use5678" />
            <use
               xlink:href="#c_3"
               transform="translate(159.033203125)"
               id="use5680" />
            <use
               xlink:href="#c_2"
               transform="translate(222.65625)"
               id="use5682" />
          </g>
        </g>
        <g
           id="xtick5">
          <path
             style="fill: none; stroke: #000000; stroke-width: 0.5; stroke-linejoin: miter; stroke-linecap: butt;  opacity: 1.0"
             d="M436.865,466.56L436.865,462.56"
             id="path5685" />
          <path
             style="fill: none; stroke: #000000; stroke-width: 0.5; stroke-linejoin: miter; stroke-linecap: butt;  opacity: 1.0"
             d="M436.865,55.84L436.865,51.84"
             id="path5687" />
          <g
             style="fill: #000000; opacity: 1.0"
             transform="translate(420.474375,479.46625)scale(0.12)"
             id="g5689">
            <use
               xlink:href="#c_0"
               id="use5691" />
            <use
               xlink:href="#c_1"
               transform="translate(63.623046875)"
               id="use5693" />
            <use
               xlink:href="#c_0"
               transform="translate(95.41015625)"
               id="use5695" />
            <use
               xlink:href="#c_4"
               transform="translate(159.033203125)"
               id="use5697" />
            <use
               xlink:href="#c_0"
               transform="translate(222.65625)"
               id="use5699" />
          </g>
        </g>
        <g
           id="xtick6">
          <path
             style="fill: none; stroke: #000000; stroke-width: 0.5; stroke-linejoin: miter; stroke-linecap: butt;  opacity: 1.0"
             d="M517.0,466.56L517.0,462.56"
             id="path5702" />
          <path
             style="fill: none; stroke: #000000; stroke-width: 0.5; stroke-linejoin: miter; stroke-linecap: butt;  opacity: 1.0"
             d="M517.0,55.84L517.0,51.84"
             id="path5704" />
          <g
             style="fill: #000000; opacity: 1.0"
             transform="translate(500.734375,479.46625)scale(0.12)"
             id="g5706">
            <use
               xlink:href="#c_0"
               id="use5708" />
            <use
               xlink:href="#c_1"
               transform="translate(63.623046875)"
               id="use5710" />
            <use
               xlink:href="#c_0"
               transform="translate(95.41015625)"
               id="use5712" />
            <use
               xlink:href="#c_4"
               transform="translate(159.033203125)"
               id="use5714" />
            <use
               xlink:href="#c_2"
               transform="translate(222.65625)"
               id="use5716" />
          </g>
        </g>
        <g
           id="xtick7">
          <path
             style="fill: none; stroke: #000000; stroke-width: 0.5; stroke-linejoin: miter; stroke-linecap: butt;  opacity: 1.0"
             d="M597.135,466.56L597.135,462.56"
             id="path5719" />
          <path
             style="fill: none; stroke: #000000; stroke-width: 0.5; stroke-linejoin: miter; stroke-linecap: butt;  opacity: 1.0"
             d="M597.135,55.84L597.135,51.84"
             id="path5721" />
          <g
             style="fill: #000000; opacity: 1.0"
             transform="translate(580.744375,479.46625)scale(0.12)"
             id="g5723">
            <use
               xlink:href="#c_0"
               id="use5725" />
            <use
               xlink:href="#c_1"
               transform="translate(63.623046875)"
               id="use5727" />
            <use
               xlink:href="#c_0"
               transform="translate(95.41015625)"
               id="use5729" />
            <use
               xlink:href="#c_5"
               transform="translate(159.033203125)"
               id="use5731" />
            <use
               xlink:href="#c_0"
               transform="translate(222.65625)"
               id="use5733" />
          </g>
        </g>
        <g
           id="xtick8">
          <path
             style="fill: none; stroke: #000000; stroke-width: 0.5; stroke-linejoin: miter; stroke-linecap: butt;  opacity: 1.0"
             d="M677.27,466.56L677.27,462.56"
             id="path5736" />
          <path
             style="fill: none; stroke: #000000; stroke-width: 0.5; stroke-linejoin: miter; stroke-linecap: butt;  opacity: 1.0"
             d="M677.27,55.84L677.27,51.84"
             id="path5738" />
          <g
             style="fill: #000000; opacity: 1.0"
             transform="translate(661.004375,479.46625)scale(0.12)"
             id="g5740">
            <use
               xlink:href="#c_0"
               id="use5742" />
            <use
               xlink:href="#c_1"
               transform="translate(63.623046875)"
               id="use5744" />
            <use
               xlink:href="#c_0"
               transform="translate(95.41015625)"
               id="use5746" />
            <use
               xlink:href="#c_5"
               transform="translate(159.033203125)"
               id="use5748" />
            <use
               xlink:href="#c_2"
               transform="translate(222.65625)"
               id="use5750" />
          </g>
        </g>
        <g
           id="xtick9">
          <path
             style="fill: none; stroke: #000000; stroke-width: 0.5; stroke-linejoin: miter; stroke-linecap: butt;  opacity: 1.0"
             d="M757.405,466.56L757.405,462.56"
             id="path5753" />
          <path
             style="fill: none; stroke: #000000; stroke-width: 0.5; stroke-linejoin: miter; stroke-linecap: butt;  opacity: 1.0"
             d="M757.405,55.84L757.405,51.84"
             id="path5755" />
          <g
             style="fill: #000000; opacity: 1.0"
             transform="translate(741.014375,479.46625)scale(0.12)"
             id="g5757">
            <use
               xlink:href="#c_0"
               id="use5759" />
            <use
               xlink:href="#c_1"
               transform="translate(63.623046875)"
               id="use5761" />
            <use
               xlink:href="#c_0"
               transform="translate(95.41015625)"
               id="use5763" />
            <use
               xlink:href="#c_6"
               transform="translate(159.033203125)"
               id="use5765" />
            <use
               xlink:href="#c_0"
               transform="translate(222.65625)"
               id="use5767" />
          </g>
        </g>
        <g
           id="xtick10">
          <g
             style="fill: #000000; opacity: 1.0"
             transform="translate(821.274375,479.46625)scale(0.12)"
             id="g5770">
            <use
               xlink:href="#c_0"
               id="use5772" />
            <use
               xlink:href="#c_1"
               transform="translate(63.623046875)"
               id="use5774" />
            <use
               xlink:href="#c_0"
               transform="translate(95.41015625)"
               id="use5776" />
            <use
               xlink:href="#c_6"
               transform="translate(159.033203125)"
               id="use5778" />
            <use
               xlink:href="#c_2"
               transform="translate(222.65625)"
               id="use5780" />
          </g>
        </g>
      </g>
      <g
         id="matplotlib.axis2">
        <g
           id="ytick1">
          <g
             style="fill: #000000; opacity: 1.0"
             transform="translate(106.278125,470.9271875)scale(0.12)"
             id="g5784">
            <use
               xlink:href="#c_0"
               id="use5786" />
          </g>
        </g>
        <g
           id="ytick2">
          <path
             style="fill: none; stroke: #000000; stroke-width: 0.5; stroke-linejoin: miter; stroke-linecap: butt;  opacity: 1.0"
             d="M116.325,383.616L120.325,383.616"
             id="path5789" />
          <path
             style="fill: none; stroke: #000000; stroke-width: 0.5; stroke-linejoin: miter; stroke-linecap: butt;  opacity: 1.0"
             d="M833.54,383.616L837.54,383.616"
             id="path5791" />
          <g
             style="fill: #000000; opacity: 1.0"
             transform="translate(106.653125,387.9050625)scale(0.12)"
             id="g5793">
            <use
               xlink:href="#c_2"
               id="use5795" />
          </g>
        </g>
        <g
           id="ytick3">
          <path
             style="fill: none; stroke: #000000; stroke-width: 0.5; stroke-linejoin: miter; stroke-linecap: butt;  opacity: 1.0"
             d="M116.325,300.672L120.325,300.672"
             id="path5798" />
          <path
             style="fill: none; stroke: #000000; stroke-width: 0.5; stroke-linejoin: miter; stroke-linecap: butt;  opacity: 1.0"
             d="M833.54,300.672L837.54,300.672"
             id="path5800" />
          <g
             style="fill: #000000; opacity: 1.0"
             transform="translate(99.153125,305.0391875)scale(0.12)"
             id="g5802">
            <use
               xlink:href="#c_3"
               id="use5804" />
            <use
               xlink:href="#c_0"
               transform="translate(63.623046875)"
               id="use5806" />
          </g>
        </g>
        <g
           id="ytick4">
          <path
             style="fill: none; stroke: #000000; stroke-width: 0.5; stroke-linejoin: miter; stroke-linecap: butt;  opacity: 1.0"
             d="M116.325,217.728L120.325,217.728"
             id="path5809" />
          <path
             style="fill: none; stroke: #000000; stroke-width: 0.5; stroke-linejoin: miter; stroke-linecap: butt;  opacity: 1.0"
             d="M833.54,217.728L837.54,217.728"
             id="path5811" />
          <g
             style="fill: #000000; opacity: 1.0"
             transform="translate(99.403125,222.0170625)scale(0.12)"
             id="g5813">
            <use
               xlink:href="#c_3"
               id="use5815" />
            <use
               xlink:href="#c_2"
               transform="translate(63.623046875)"
               id="use5817" />
          </g>
        </g>
        <g
           id="ytick5">
          <path
             style="fill: none; stroke: #000000; stroke-width: 0.5; stroke-linejoin: miter; stroke-linecap: butt;  opacity: 1.0"
             d="M116.325,134.784L120.325,134.784"
             id="path5820" />
          <path
             style="fill: none; stroke: #000000; stroke-width: 0.5; stroke-linejoin: miter; stroke-linecap: butt;  opacity: 1.0"
             d="M833.54,134.784L837.54,134.784"
             id="path5822" />
          <g
             style="fill: #000000; opacity: 1.0"
             transform="translate(98.715625,139.1511875)scale(0.12)"
             id="g5824">
            <use
               xlink:href="#c_4"
               id="use5826" />
            <use
               xlink:href="#c_0"
               transform="translate(63.623046875)"
               id="use5828" />
          </g>
        </g>
        <g
           id="ytick6">
          <g
             style="fill: #000000; opacity: 1.0"
             transform="translate(98.965625,56.2071875)scale(0.12)"
             id="g5831">
            <use
               xlink:href="#c_4"
               id="use5833" />
            <use
               xlink:href="#c_2"
               transform="translate(63.623046875)"
               id="use5835" />
          </g>
        </g>
      </g>
      <path
         style="fill: none; stroke: #000000; stroke-width: 1.0; stroke-linejoin: miter; stroke-linecap: square;  opacity: 1.0"
         d="M116.325,466.56L837.54,466.56L837.54,51.84L116.325,51.84L116.325,466.56"
         id="path5837" />
    </g>
    <text
       xml:space="preserve"
       style="font-size:20px;font-style:normal;font-weight:normal;fill:#000000;fill-opacity:1;stroke:none;stroke-width:1px;stroke-linecap:butt;stroke-linejoin:miter;stroke-opacity:1;font-family:Bitstream Vera Sans"
       x="395.37894"
       y="508.92868"
       id="text5945"><tspan
         sodipodi:role="line"
         id="tspan5947"
         x="395.37894"
         y="508.92868">Error Estimate</tspan></text>
    <text
       xml:space="preserve"
       style="font-size:20px;font-style:normal;font-weight:normal;fill:#000000;fill-opacity:1;stroke:none;stroke-width:1px;stroke-linecap:butt;stroke-linejoin:miter;stroke-opacity:1;font-family:Bitstream Vera Sans"
       x="-336.30829"
       y="72.747887"
       id="text5949"
       transform="matrix(0,-1,1,0,0,0)"><tspan
         sodipodi:role="line"
         id="tspan5951"
         x="-336.30829"
         y="72.747887">Number of Lines</tspan></text>
  </g>
  <defs
     id="fontpaths">
    <inkscape:perspective
       sodipodi:type="inkscape:persp3d"
       inkscape:vp_x="0 : 323.75 : 1"
       inkscape:vp_y="0 : 1000 : 0"
       inkscape:vp_z="1162.5 : 323.75 : 1"
       inkscape:persp3d-origin="581.25 : 215.83333 : 1"
       id="perspective5943" />
    <path
       id="c_1"
       d="M10.6875 -12.40625l10.3125 0.0l0.0 12.40625l-10.3125 0.0z" />
    <path
       id="c_3"
       d="M12.40625 -8.296875l16.109375 0.0l0.0 -55.625l-17.53125 3.515625l0.0 -8.984375l17.4375 -3.515625l9.859375 0.0l0.0 64.609375l16.109375 0.0l0.0 8.296875l-41.984375 0.0z" />
    <path
       id="c_0"
       d="M31.78125 -66.40625q-7.609375 0.0 -11.453125 7.5q-3.828125 7.484375 -3.828125 22.53125q0.0 14.984375 3.828125 22.484375q3.84375 7.5 11.453125 7.5q7.671875 0.0 11.5 -7.5q3.84375 -7.5 3.84375 -22.484375q0.0 -15.046875 -3.84375 -22.53125q-3.828125 -7.5 -11.5 -7.5M31.78125 -74.21875q12.265625 0.0 18.734375 9.703125q6.46875 9.6875 6.46875 28.140625q0.0 18.40625 -6.46875 28.109375q-6.46875 9.6875 -18.734375 9.6875q-12.25 0.0 -18.71875 -9.6875q-6.46875 -9.703125 -6.46875 -28.109375q0.0 -18.453125 6.46875 -28.140625q6.46875 -9.703125 18.71875 -9.703125" />
    <path
       id="c_17"
       d="M56.203125 -29.59375l0.0 4.390625l-41.3125 0.0q0.59375 9.28125 5.59375 14.140625q5.0 4.859375 13.9375 4.859375q5.171875 0.0 10.03125 -1.265625q4.859375 -1.265625 9.65625 -3.8125l0.0 8.5q-4.84375 2.046875 -9.921875 3.125q-5.078125 1.078125 -10.296875 1.078125q-13.09375 0.0 -20.734375 -7.609375q-7.640625 -7.625 -7.640625 -20.625q0.0 -13.421875 7.25 -21.296875q7.25 -7.890625 19.5625 -7.890625q11.03125 0.0 17.453125 7.109375q6.421875 7.09375 6.421875 19.296875M47.21875 -32.234375q-0.09375 -7.359375 -4.125 -11.75q-4.03125 -4.40625 -10.671875 -4.40625q-7.515625 0.0 -12.03125 4.25q-4.515625 4.25 -5.203125 11.96875z" />
    <path
       id="c_c"
       d="M45.40625 -27.984375q0.0 -9.765625 -4.03125 -15.125q-4.015625 -5.375 -11.296875 -5.375q-7.21875 0.0 -11.25 5.375q-4.03125 5.359375 -4.03125 15.125q0.0 9.71875 4.03125 15.09375q4.03125 5.375 11.25 5.375q7.28125 0.0 11.296875 -5.375q4.03125 -5.375 4.03125 -15.09375M54.390625 -6.78125q0.0 13.953125 -6.203125 20.765625q-6.1875 6.8125 -18.984375 6.8125q-4.734375 0.0 -8.9375 -0.703125q-4.203125 -0.703125 -8.15625 -2.171875l0.0 -8.734375q3.953125 2.140625 7.8125 3.15625q3.859375 1.03125 7.859375 1.03125q8.84375 0.0 13.234375 -4.609375q4.390625 -4.609375 4.390625 -13.9375l0.0 -4.453125q-2.78125 4.84375 -7.125 7.234375q-4.34375 2.390625 -10.40625 2.390625q-10.046875 0.0 -16.203125 -7.65625q-6.15625 -7.671875 -6.15625 -20.328125q0.0 -12.6875 6.15625 -20.34375q6.15625 -7.671875 16.203125 -7.671875q6.0625 0.0 10.40625 2.390625q4.34375 2.390625 7.125 7.21875l0.0 -8.296875l8.984375 0.0z" />
    <path
       id="c_11"
       d="M37.109375 -75.984375l0.0 7.484375l-8.59375 0.0q-4.828125 0.0 -6.71875 1.953125q-1.875 1.953125 -1.875 7.03125l0.0 4.828125l14.796875 0.0l0.0 6.984375l-14.796875 0.0l0.0 47.703125l-9.03125 0.0l0.0 -47.703125l-8.59375 0.0l0.0 -6.984375l8.59375 0.0l0.0 -3.8125q0.0 -9.125 4.25 -13.296875q4.25 -4.1875 13.46875 -4.1875z" />
    <path
       id="c_8"
       d="M9.421875 -54.6875l8.984375 0.0l0.0 54.6875l-8.984375 0.0zM9.421875 -75.984375l8.984375 0.0l0.0 11.390625l-8.984375 0.0z" />
    <path
       id="c_16"
       d="M54.890625 -33.015625l0.0 33.015625l-8.984375 0.0l0.0 -32.71875q0.0 -7.765625 -3.03125 -11.609375q-3.03125 -3.859375 -9.078125 -3.859375q-7.28125 0.0 -11.484375 4.640625q-4.203125 4.625 -4.203125 12.640625l0.0 30.90625l-9.03125 0.0l0.0 -75.984375l9.03125 0.0l0.0 29.796875q3.234375 -4.9375 7.59375 -7.375q4.375 -2.4375 10.09375 -2.4375q9.421875 0.0 14.25 5.828125q4.84375 5.828125 4.84375 17.15625" />
    <path
       id="c_f"
       d="M52.0 -44.1875q3.375 -6.0625 8.0625 -8.9375q4.6875 -2.875 11.03125 -2.875q8.546875 0.0 13.1875 5.984375q4.640625 5.96875 4.640625 17.0l0.0 33.015625l-9.03125 0.0l0.0 -32.71875q0.0 -7.859375 -2.796875 -11.65625q-2.78125 -3.8125 -8.484375 -3.8125q-6.984375 0.0 -11.046875 4.640625q-4.046875 4.625 -4.046875 12.640625l0.0 30.90625l-9.03125 0.0l0.0 -32.71875q0.0 -7.90625 -2.78125 -11.6875q-2.78125 -3.78125 -8.59375 -3.78125q-6.890625 0.0 -10.953125 4.65625q-4.046875 4.65625 -4.046875 12.625l0.0 30.90625l-9.03125 0.0l0.0 -54.6875l9.03125 0.0l0.0 8.5q3.078125 -5.03125 7.375 -7.421875q4.296875 -2.390625 10.203125 -2.390625q5.96875 0.0 10.140625 3.03125q4.171875 3.015625 6.171875 8.78125" />
    <path
       id="c_14"
       d="M9.421875 -75.984375l8.984375 0.0l0.0 75.984375l-8.984375 0.0z" />
    <path
       id="c_10"
       d="" />
    <path
       id="c_4"
       d="M19.1875 -8.296875l34.421875 0.0l0.0 8.296875l-46.28125 0.0l0.0 -8.296875q5.609375 -5.8125 15.296875 -15.59375q9.703125 -9.796875 12.1875 -12.640625q4.734375 -5.3125 6.609375 -9.0q1.890625 -3.6875 1.890625 -7.25q0.0 -5.8125 -4.078125 -9.46875q-4.078125 -3.671875 -10.625 -3.671875q-4.640625 0.0 -9.796875 1.609375q-5.140625 1.609375 -11.0 4.890625l0.0 -9.96875q5.953125 -2.390625 11.125 -3.609375q5.1875 -1.21875 9.484375 -1.21875q11.328125 0.0 18.0625 5.671875q6.734375 5.65625 6.734375 15.125q0.0 4.5 -1.6875 8.53125q-1.671875 4.015625 -6.125 9.484375q-1.21875 1.421875 -7.765625 8.1875q-6.53125 6.765625 -18.453125 18.921875" />
    <path
       id="c_5"
       d="M40.578125 -39.3125q7.078125 1.515625 11.046875 6.3125q3.984375 4.78125 3.984375 11.8125q0.0 10.78125 -7.421875 16.703125q-7.421875 5.90625 -21.09375 5.90625q-4.578125 0.0 -9.4375 -0.90625q-4.859375 -0.90625 -10.03125 -2.71875l0.0 -9.515625q4.09375 2.390625 8.96875 3.609375q4.890625 1.21875 10.21875 1.21875q9.265625 0.0 14.125 -3.65625q4.859375 -3.65625 4.859375 -10.640625q0.0 -6.453125 -4.515625 -10.078125q-4.515625 -3.640625 -12.5625 -3.640625l-8.5 0.0l0.0 -8.109375l8.890625 0.0q7.265625 0.0 11.125 -2.90625q3.859375 -2.90625 3.859375 -8.375q0.0 -5.609375 -3.984375 -8.609375q-3.96875 -3.015625 -11.390625 -3.015625q-4.0625 0.0 -8.703125 0.890625q-4.640625 0.875 -10.203125 2.71875l0.0 -8.78125q5.625 -1.5625 10.53125 -2.34375q4.90625 -0.78125 9.25 -0.78125q11.234375 0.0 17.765625 5.109375q6.546875 5.09375 6.546875 13.78125q0.0 6.0625 -3.46875 10.234375q-3.46875 4.171875 -9.859375 5.78125" />
    <path
       id="c_6"
       d="M37.796875 -64.3125l-24.90625 38.921875l24.90625 0.0zM35.203125 -72.90625l12.40625 0.0l0.0 47.515625l10.40625 0.0l0.0 8.203125l-10.40625 0.0l0.0 17.1875l-9.8125 0.0l0.0 -17.1875l-32.90625 0.0l0.0 -9.515625z" />
    <path
       id="c_2"
       d="M10.796875 -72.90625l38.71875 0.0l0.0 8.3125l-29.6875 0.0l0.0 17.859375q2.140625 -0.734375 4.28125 -1.09375q2.15625 -0.359375 4.3125 -0.359375q12.203125 0.0 19.328125 6.6875q7.140625 6.6875 7.140625 18.109375q0.0 11.765625 -7.328125 18.296875q-7.328125 6.515625 -20.65625 6.515625q-4.59375 0.0 -9.359375 -0.78125q-4.75 -0.78125 -9.828125 -2.34375l0.0 -9.921875q4.390625 2.390625 9.078125 3.5625q4.6875 1.171875 9.90625 1.171875q8.453125 0.0 13.375 -4.4375q4.9375 -4.4375 4.9375 -12.0625q0.0 -7.609375 -4.9375 -12.046875q-4.921875 -4.453125 -13.375 -4.453125q-3.953125 0.0 -7.890625 0.875q-3.921875 0.875 -8.015625 2.734375z" />
    <path
       id="c_12"
       d="M10.984375 -1.515625l0.0 -8.984375q3.71875 1.765625 7.515625 2.6875q3.8125 0.921875 7.484375 0.921875q9.765625 0.0 14.90625 -6.5625q5.15625 -6.5625 5.890625 -19.953125q-2.828125 4.203125 -7.1875 6.453125q-4.34375 2.25 -9.609375 2.25q-10.9375 0.0 -17.3125 -6.609375q-6.375 -6.625 -6.375 -18.109375q0.0 -11.21875 6.640625 -18.0q6.640625 -6.796875 17.671875 -6.796875q12.65625 0.0 19.3125 9.703125q6.671875 9.6875 6.671875 28.140625q0.0 17.234375 -8.1875 27.515625q-8.171875 10.28125 -21.984375 10.28125q-3.71875 0.0 -7.53125 -0.734375q-3.796875 -0.734375 -7.90625 -2.203125M30.609375 -32.421875q6.640625 0.0 10.515625 -4.53125q3.890625 -4.546875 3.890625 -12.46875q0.0 -7.859375 -3.890625 -12.421875q-3.875 -4.5625 -10.515625 -4.5625q-6.640625 0.0 -10.515625 4.5625q-3.875 4.5625 -3.875 12.421875q0.0 7.921875 3.875 12.46875q3.875 4.53125 10.515625 4.53125" />
    <path
       id="c_7"
       d="M9.8125 -72.90625l9.859375 0.0l0.0 29.890625l35.84375 0.0l0.0 -29.890625l9.859375 0.0l0.0 72.90625l-9.859375 0.0l0.0 -34.71875l-35.84375 0.0l0.0 34.71875l-9.859375 0.0z" />
    <path
       id="c_a"
       d="M18.3125 -70.21875l0.0 15.53125l18.5 0.0l0.0 6.984375l-18.5 0.0l0.0 29.6875q0.0 6.6875 1.828125 8.59375q1.828125 1.90625 7.453125 1.90625l9.21875 0.0l0.0 7.515625l-9.21875 0.0q-10.40625 0.0 -14.359375 -3.875q-3.953125 -3.890625 -3.953125 -14.140625l0.0 -29.6875l-6.59375 0.0l0.0 -6.984375l6.59375 0.0l0.0 -15.53125z" />
    <path
       id="c_d"
       d="M41.109375 -46.296875q-1.515625 -0.875 -3.296875 -1.28125q-1.78125 -0.421875 -3.921875 -0.421875q-7.625 0.0 -11.703125 4.953125q-4.078125 4.953125 -4.078125 14.234375l0.0 28.8125l-9.03125 0.0l0.0 -54.6875l9.03125 0.0l0.0 8.5q2.84375 -4.984375 7.375 -7.390625q4.546875 -2.421875 11.046875 -2.421875q0.921875 0.0 2.046875 0.125q1.125 0.109375 2.484375 0.359375z" />
    <path
       id="c_9"
       d="M44.28125 -53.078125l0.0 8.5q-3.796875 -1.953125 -7.90625 -2.921875q-4.09375 -0.984375 -8.5 -0.984375q-6.6875 0.0 -10.03125 2.046875q-3.34375 2.046875 -3.34375 6.15625q0.0 3.125 2.390625 4.90625q2.390625 1.78125 9.625 3.390625l3.078125 0.6875q9.5625 2.046875 13.59375 5.78125q4.03125 3.734375 4.03125 10.421875q0.0 7.625 -6.03125 12.078125q-6.03125 4.4375 -16.578125 4.4375q-4.390625 0.0 -9.15625 -0.859375q-4.765625 -0.859375 -10.03125 -2.5625l0.0 -9.28125q4.984375 2.59375 9.8125 3.890625q4.828125 1.28125 9.578125 1.28125q6.34375 0.0 9.75 -2.171875q3.421875 -2.171875 3.421875 -6.125q0.0 -3.65625 -2.46875 -5.609375q-2.453125 -1.953125 -10.8125 -3.765625l-3.125 -0.734375q-8.34375 -1.75 -12.0625 -5.390625q-3.703125 -3.640625 -3.703125 -9.984375q0.0 -7.71875 5.46875 -11.90625q5.46875 -4.203125 15.53125 -4.203125q4.96875 0.0 9.359375 0.734375q4.40625 0.71875 8.109375 2.1875" />
    <path
       id="c_13"
       d="M48.78125 -52.59375l0.0 8.40625q-3.8125 -2.109375 -7.640625 -3.15625q-3.828125 -1.046875 -7.734375 -1.046875q-8.75 0.0 -13.59375 5.546875q-4.828125 5.53125 -4.828125 15.546875q0.0 10.015625 4.828125 15.5625q4.84375 5.53125 13.59375 5.53125q3.90625 0.0 7.734375 -1.046875q3.828125 -1.046875 7.640625 -3.15625l0.0 8.3125q-3.765625 1.75 -7.796875 2.625q-4.015625 0.890625 -8.5625 0.890625q-12.359375 0.0 -19.640625 -7.765625q-7.265625 -7.765625 -7.265625 -20.953125q0.0 -13.375 7.34375 -21.03125q7.359375 -7.671875 20.15625 -7.671875q4.140625 0.0 8.09375 0.859375q3.953125 0.84375 7.671875 2.546875" />
    <path
       id="c_b"
       d="M30.609375 -48.390625q-7.21875 0.0 -11.421875 5.640625q-4.203125 5.640625 -4.203125 15.453125q0.0 9.8125 4.171875 15.453125q4.1875 5.640625 11.453125 5.640625q7.1875 0.0 11.375 -5.65625q4.203125 -5.671875 4.203125 -15.4375q0.0 -9.71875 -4.203125 -15.40625q-4.1875 -5.6875 -11.375 -5.6875M30.609375 -56.0q11.71875 0.0 18.40625 7.625q6.703125 7.609375 6.703125 21.078125q0.0 13.421875 -6.703125 21.078125q-6.6875 7.640625 -18.40625 7.640625q-11.765625 0.0 -18.4375 -7.640625q-6.65625 -7.65625 -6.65625 -21.078125q0.0 -13.46875 6.65625 -21.078125q6.671875 -7.625 18.4375 -7.625" />
    <path
       id="c_15"
       d="M50.984375 16.609375l0.0 6.96875l-51.96875 0.0l0.0 -6.96875z" />
    <path
       id="c_e"
       d="M34.28125 -27.484375q-10.890625 0.0 -15.09375 2.484375q-4.203125 2.484375 -4.203125 8.5q0.0 4.78125 3.15625 7.59375q3.15625 2.796875 8.5625 2.796875q7.484375 0.0 12.0 -5.296875q4.515625 -5.296875 4.515625 -14.078125l0.0 -2.0zM52.203125 -31.203125l0.0 31.203125l-8.984375 0.0l0.0 -8.296875q-3.078125 4.96875 -7.671875 7.34375q-4.59375 2.375 -11.234375 2.375q-8.390625 0.0 -13.359375 -4.71875q-4.953125 -4.71875 -4.953125 -12.625q0.0 -9.21875 6.171875 -13.90625q6.1875 -4.6875 18.4375 -4.6875l12.609375 0.0l0.0 -0.890625q0.0 -6.203125 -4.078125 -9.59375q-4.078125 -3.390625 -11.453125 -3.390625q-4.6875 0.0 -9.140625 1.125q-4.4375 1.125 -8.53125 3.375l0.0 -8.3125q4.921875 -1.90625 9.5625 -2.84375q4.640625 -0.953125 9.03125 -0.953125q11.875 0.0 17.734375 6.15625q5.859375 6.140625 5.859375 18.640625" />
  </defs>
</svg>
