<?xml version="1.0" standalone="no"?>
<!DOCTYPE svg PUBLIC "-//W3C//DTD SVG 1.1//EN"
  "http://www.w3.org/Graphics/SVG/1.1/DTD/svg11.dtd">
<!-- Created with matplotlib (http://matplotlib.sourceforge.net/) -->
<svg width="977" height="763" viewBox="0 0 977 763"
   xmlns="http://www.w3.org/2000/svg"
   xmlns:xlink="http://www.w3.org/1999/xlink"
   version="1.1"
   id="svg1">
<g id="figure1">
<polygon style="fill: #ffffff; stroke: #ffffff; stroke-width: 1.000000; stroke-linejoin: miter; stroke-linecap: square;  opacity: 1.000000"  points = "0.000000,763.200000 0.000000,0.000000 977.400000,0.000000 977.400000,763.200000"/>
<polygon style="fill: #ffffff; opacity: 1.000000"  points = "0.000000,763.200000 0.000000,0.000000 977.400000,0.000000 977.400000,763.200000"/>
<g id="axis3d1">
<polygon style="fill: #f2f2f2; stroke: #f2f2f2; stroke-width: 1.000000; stroke-linejoin: miter; stroke-linecap: square;  opacity: 0.100000"  points = "317.235607,544.743835 823.542081,560.206921 827.043755,148.094881 315.274431,142.589013"/>
<path style="fill: none; stroke: #000000; stroke-width: 0.750000; stroke-linejoin: miter; stroke-linecap: square;  opacity: 1.000000"  d="M 155.606232,609.007796 L 711.312276,627.886499 "/>
<text style="font-size: 12.000000; font-family: Bitstream Vera Sans; font-style: Roman; fill: #000000;" x="357.646639" y="663.898069" transform="translate(357.646639,663.898069) rotate(-357.5) translate(-357.646639,-663.898069)">min_call_probability</text>
<g id="linecollection1">
<path style="fill: none; stroke: #e6e6e6; stroke-width: 1.000000; stroke-linejoin: miter; stroke-linecap: butt;  opacity: 1.000000"  d="M 166.428106,609.375441 L 327.120457,545.045728 L 325.263344,142.696479 "/>
<path style="fill: none; stroke: #e6e6e6; stroke-width: 1.000000; stroke-linejoin: miter; stroke-linecap: butt;  opacity: 1.000000"  d="M 253.423030,612.330873 L 406.546698,547.471482 L 405.529486,143.560022 "/>
<path style="fill: none; stroke: #e6e6e6; stroke-width: 1.000000; stroke-linejoin: miter; stroke-linecap: butt;  opacity: 1.000000"  d="M 341.171376,615.311901 L 486.595749,549.916256 L 486.431766,144.430409 "/>
<path style="fill: none; stroke: #e6e6e6; stroke-width: 1.000000; stroke-linejoin: miter; stroke-linecap: butt;  opacity: 1.000000"  d="M 429.682974,618.318858 L 567.274965,552.380277 L 567.977775,145.307721 "/>
<path style="fill: none; stroke: #e6e6e6; stroke-width: 1.000000; stroke-linejoin: miter; stroke-linecap: butt;  opacity: 1.000000"  d="M 518.967826,621.352084 L 648.591817,554.863772 L 650.175228,146.192042 "/>
<path style="fill: none; stroke: #e6e6e6; stroke-width: 1.000000; stroke-linejoin: miter; stroke-linecap: butt;  opacity: 1.000000"  d="M 609.036109,624.411926 L 730.553894,557.366972 L 733.031962,147.083456 "/>
<path style="fill: none; stroke: #e6e6e6; stroke-width: 1.000000; stroke-linejoin: miter; stroke-linecap: butt;  opacity: 1.000000"  d="M 699.898181,627.498734 L 813.168906,559.890114 L 816.555940,147.982048 "/>
</g>
<g id="xtick1">
<text style="font-size: 12.000000; font-family: Bitstream Vera Sans; font-style: Roman; fill: #000000;" x="159.428106" y="613.875441" >70</text>
<path style="fill: none; stroke: #000000; stroke-width: 1.000000; stroke-linejoin: miter; stroke-linecap: square;  opacity: 1.000000"  d="M 166.428106,609.375441 L 166.080377,617.367881 "/>
</g>
<g id="xtick2">
<text style="font-size: 12.000000; font-family: Bitstream Vera Sans; font-style: Roman; fill: #000000;" x="246.423030" y="616.830873" >75</text>
<path style="fill: none; stroke: #000000; stroke-width: 1.000000; stroke-linejoin: miter; stroke-linecap: square;  opacity: 1.000000"  d="M 253.423030,612.330873 L 253.075302,620.323313 "/>
</g>
<g id="xtick3">
<text style="font-size: 12.000000; font-family: Bitstream Vera Sans; font-style: Roman; fill: #000000;" x="334.171376" y="619.811901" >80</text>
<path style="fill: none; stroke: #000000; stroke-width: 1.000000; stroke-linejoin: miter; stroke-linecap: square;  opacity: 1.000000"  d="M 341.171376,615.311901 L 340.823648,623.304340 "/>
</g>
<g id="xtick4">
<text style="font-size: 12.000000; font-family: Bitstream Vera Sans; font-style: Roman; fill: #000000;" x="422.682974" y="622.818858" >85</text>
<path style="fill: none; stroke: #000000; stroke-width: 1.000000; stroke-linejoin: miter; stroke-linecap: square;  opacity: 1.000000"  d="M 429.682974,618.318858 L 429.335246,626.311297 "/>
</g>
<g id="xtick5">
<text style="font-size: 12.000000; font-family: Bitstream Vera Sans; font-style: Roman; fill: #000000;" x="511.967826" y="625.852084" >90</text>
<path style="fill: none; stroke: #000000; stroke-width: 1.000000; stroke-linejoin: miter; stroke-linecap: square;  opacity: 1.000000"  d="M 518.967826,621.352084 L 518.620098,629.344524 "/>
</g>
<g id="xtick6">
<text style="font-size: 12.000000; font-family: Bitstream Vera Sans; font-style: Roman; fill: #000000;" x="602.036109" y="628.911926" >95</text>
<path style="fill: none; stroke: #000000; stroke-width: 1.000000; stroke-linejoin: miter; stroke-linecap: square;  opacity: 1.000000"  d="M 609.036109,624.411926 L 608.688381,632.404365 "/>
</g>
<g id="xtick7">
<text style="font-size: 12.000000; font-family: Bitstream Vera Sans; font-style: Roman; fill: #000000;" x="688.898181" y="631.998734" >100</text>
<path style="fill: none; stroke: #000000; stroke-width: 1.000000; stroke-linejoin: miter; stroke-linecap: square;  opacity: 1.000000"  d="M 699.898181,627.498734 L 699.550452,635.491174 "/>
</g>
</g>
<g id="axis3d2">
<polygon style="fill: #e6e6e6; stroke: #e6e6e6; stroke-width: 1.000000; stroke-linejoin: miter; stroke-linecap: square;  opacity: 0.500000"  points = "155.606232,609.007796 317.235607,544.743835 315.274431,142.589013 151.543443,165.490302"/>
<path style="fill: none; stroke: #000000; stroke-width: 0.750000; stroke-linejoin: miter; stroke-linecap: square;  opacity: 1.000000"  d="M 711.312276,627.886499 L 823.542081,560.206921 "/>
<text style="font-size: 12.000000; font-family: Bitstream Vera Sans; font-style: Roman; fill: #000000;" x="758.973222" y="678.386837" transform="translate(758.973222,678.386837) rotate(-37.7) translate(-758.973222,-678.386837)">max_call_mismatch_rate</text>
<g id="linecollection2">
<path style="fill: none; stroke: #e6e6e6; stroke-width: 1.000000; stroke-linejoin: miter; stroke-linecap: butt;  opacity: 1.000000"  d="M 713.790347,626.392111 L 159.166065,607.592404 L 155.153444,164.985366 "/>
<path style="fill: none; stroke: #e6e6e6; stroke-width: 1.000000; stroke-linejoin: miter; stroke-linecap: butt;  opacity: 1.000000"  d="M 737.055227,612.362352 L 192.606611,594.296417 L 189.056723,160.243265 "/>
<path style="fill: none; stroke: #e6e6e6; stroke-width: 1.000000; stroke-linejoin: miter; stroke-linecap: butt;  opacity: 1.000000"  d="M 759.409019,598.882018 L 224.771286,581.507718 L 221.651917,155.684129 "/>
<path style="fill: none; stroke: #e6e6e6; stroke-width: 1.000000; stroke-linejoin: miter; stroke-linecap: butt;  opacity: 1.000000"  d="M 780.904215,585.919456 L 255.731742,569.197818 L 253.013296,151.297568 "/>
<path style="fill: none; stroke: #e6e6e6; stroke-width: 1.000000; stroke-linejoin: miter; stroke-linecap: butt;  opacity: 1.000000"  d="M 801.589351,573.445396 L 285.554362,557.340322 L 283.209615,147.073965 "/>
<path style="fill: none; stroke: #e6e6e6; stroke-width: 1.000000; stroke-linejoin: miter; stroke-linecap: butt;  opacity: 1.000000"  d="M 821.509371,561.432735 L 314.300740,545.910741 L 312.304612,143.004406 "/>
</g>
<g id="xtick8">
<text style="font-size: 12.000000; font-family: Bitstream Vera Sans; font-style: Roman; fill: #000000;" x="700.790347" y="630.892111" >0.05</text>
<path style="fill: none; stroke: #000000; stroke-width: 1.000000; stroke-linejoin: miter; stroke-linecap: square;  opacity: 1.000000"  d="M 713.790347,626.392111 L 718.680215,632.723714 "/>
</g>
<g id="xtick9">
<text style="font-size: 12.000000; font-family: Bitstream Vera Sans; font-style: Roman; fill: #000000;" x="724.055227" y="616.862352" >0.10</text>
<path style="fill: none; stroke: #000000; stroke-width: 1.000000; stroke-linejoin: miter; stroke-linecap: square;  opacity: 1.000000"  d="M 737.055227,612.362352 L 741.945094,618.693955 "/>
</g>
<g id="xtick10">
<text style="font-size: 12.000000; font-family: Bitstream Vera Sans; font-style: Roman; fill: #000000;" x="746.409019" y="603.382018" >0.15</text>
<path style="fill: none; stroke: #000000; stroke-width: 1.000000; stroke-linejoin: miter; stroke-linecap: square;  opacity: 1.000000"  d="M 759.409019,598.882018 L 764.298886,605.213621 "/>
</g>
<g id="xtick11">
<text style="font-size: 12.000000; font-family: Bitstream Vera Sans; font-style: Roman; fill: #000000;" x="767.904215" y="590.419456" >0.20</text>
<path style="fill: none; stroke: #000000; stroke-width: 1.000000; stroke-linejoin: miter; stroke-linecap: square;  opacity: 1.000000"  d="M 780.904215,585.919456 L 785.794083,592.251059 "/>
</g>
<g id="xtick12">
<text style="font-size: 12.000000; font-family: Bitstream Vera Sans; font-style: Roman; fill: #000000;" x="788.589351" y="577.945396" >0.25</text>
<path style="fill: none; stroke: #000000; stroke-width: 1.000000; stroke-linejoin: miter; stroke-linecap: square;  opacity: 1.000000"  d="M 801.589351,573.445396 L 806.479218,579.776999 "/>
</g>
<g id="xtick13">
<text style="font-size: 12.000000; font-family: Bitstream Vera Sans; font-style: Roman; fill: #000000;" x="808.509371" y="565.932735" >0.30</text>
<path style="fill: none; stroke: #000000; stroke-width: 1.000000; stroke-linejoin: miter; stroke-linecap: square;  opacity: 1.000000"  d="M 821.509371,561.432735 L 826.399238,567.764338 "/>
</g>
</g>
<g id="axis3d3">
<polygon style="fill: #f2f2f2; stroke: #f2f2f2; stroke-width: 1.000000; stroke-linejoin: miter; stroke-linecap: square;  opacity: 0.100000"  points = "155.606232,609.007796 711.312276,627.886499 823.542081,560.206921 317.235607,544.743835"/>
<path style="fill: none; stroke: #000000; stroke-width: 0.750000; stroke-linejoin: miter; stroke-linecap: square;  opacity: 1.000000"  d="M 155.606232,609.007796 L 151.543443,165.490302 "/>
<text style="font-size: 12.000000; font-family: Bitstream Vera Sans; font-style: Roman; fill: #000000;" x="102.268030" y="450.379518" transform="translate(102.268030,450.379518) rotate(-90.4) translate(-102.268030,-450.379518)">avg_mismatch_rate</text>
<g id="linecollection3">
<path style="fill: none; stroke: #e6e6e6; stroke-width: 1.000000; stroke-linejoin: miter; stroke-linecap: butt;  opacity: 1.000000"  d="M 155.525900,600.238272 L 317.196787,536.783584 L 823.611375,552.051691 "/>
<path style="fill: none; stroke: #e6e6e6; stroke-width: 1.000000; stroke-linejoin: miter; stroke-linecap: butt;  opacity: 1.000000"  d="M 155.043123,547.535568 L 316.963527,488.951709 L 824.027768,503.046425 "/>
<path style="fill: none; stroke: #e6e6e6; stroke-width: 1.000000; stroke-linejoin: miter; stroke-linecap: butt;  opacity: 1.000000"  d="M 154.558999,494.685749 L 316.729677,440.998873 L 824.445240,453.914136 "/>
<path style="fill: none; stroke: #e6e6e6; stroke-width: 1.000000; stroke-linejoin: miter; stroke-linecap: butt;  opacity: 1.000000"  d="M 154.073521,441.688197 L 316.495235,392.924618 L 824.863796,404.654330 "/>
<path style="fill: none; stroke: #e6e6e6; stroke-width: 1.000000; stroke-linejoin: miter; stroke-linecap: butt;  opacity: 1.000000"  d="M 153.586684,388.542292 L 316.260198,344.728481 L 825.283439,355.266508 "/>
<path style="fill: none; stroke: #e6e6e6; stroke-width: 1.000000; stroke-linejoin: miter; stroke-linecap: butt;  opacity: 1.000000"  d="M 153.098483,335.247410 L 316.024565,296.409998 L 825.704174,305.750172 "/>
<path style="fill: none; stroke: #e6e6e6; stroke-width: 1.000000; stroke-linejoin: miter; stroke-linecap: butt;  opacity: 1.000000"  d="M 152.608911,281.802924 L 315.788333,247.968703 L 826.126005,256.104820 "/>
<path style="fill: none; stroke: #e6e6e6; stroke-width: 1.000000; stroke-linejoin: miter; stroke-linecap: butt;  opacity: 1.000000"  d="M 152.117963,228.208203 L 315.551499,199.404127 L 826.548937,206.329946 "/>
<path style="fill: none; stroke: #e6e6e6; stroke-width: 1.000000; stroke-linejoin: miter; stroke-linecap: butt;  opacity: 1.000000"  d="M 151.625633,174.462613 L 315.314062,150.715799 L 826.972974,156.425043 "/>
</g>
<g id="xtick14">
<text style="font-size: 12.000000; font-family: Bitstream Vera Sans; font-style: Roman; fill: #000000;" x="138.525900" y="604.738272" >0.005</text>
<path style="fill: none; stroke: #000000; stroke-width: 1.000000; stroke-linejoin: miter; stroke-linecap: square;  opacity: 1.000000"  d="M 155.525900,600.238272 L 147.526105,600.295493 "/>
</g>
<g id="xtick15">
<text style="font-size: 12.000000; font-family: Bitstream Vera Sans; font-style: Roman; fill: #000000;" x="138.043123" y="552.035568" >0.010</text>
<path style="fill: none; stroke: #000000; stroke-width: 1.000000; stroke-linejoin: miter; stroke-linecap: square;  opacity: 1.000000"  d="M 155.043123,547.535568 L 147.043328,547.592789 "/>
</g>
<g id="xtick16">
<text style="font-size: 12.000000; font-family: Bitstream Vera Sans; font-style: Roman; fill: #000000;" x="137.558999" y="499.185749" >0.015</text>
<path style="fill: none; stroke: #000000; stroke-width: 1.000000; stroke-linejoin: miter; stroke-linecap: square;  opacity: 1.000000"  d="M 154.558999,494.685749 L 146.559203,494.742970 "/>
</g>
<g id="xtick17">
<text style="font-size: 12.000000; font-family: Bitstream Vera Sans; font-style: Roman; fill: #000000;" x="137.073521" y="446.188197" >0.020</text>
<path style="fill: none; stroke: #000000; stroke-width: 1.000000; stroke-linejoin: miter; stroke-linecap: square;  opacity: 1.000000"  d="M 154.073521,441.688197 L 146.073726,441.745418 "/>
</g>
<g id="xtick18">
<text style="font-size: 12.000000; font-family: Bitstream Vera Sans; font-style: Roman; fill: #000000;" x="136.586684" y="393.042292" >0.025</text>
<path style="fill: none; stroke: #000000; stroke-width: 1.000000; stroke-linejoin: miter; stroke-linecap: square;  opacity: 1.000000"  d="M 153.586684,388.542292 L 145.586889,388.599513 "/>
</g>
<g id="xtick19">
<text style="font-size: 12.000000; font-family: Bitstream Vera Sans; font-style: Roman; fill: #000000;" x="136.098483" y="339.747410" >0.030</text>
<path style="fill: none; stroke: #000000; stroke-width: 1.000000; stroke-linejoin: miter; stroke-linecap: square;  opacity: 1.000000"  d="M 153.098483,335.247410 L 145.098687,335.304631 "/>
</g>
<g id="xtick20">
<text style="font-size: 12.000000; font-family: Bitstream Vera Sans; font-style: Roman; fill: #000000;" x="135.608911" y="286.302924" >0.035</text>
<path style="fill: none; stroke: #000000; stroke-width: 1.000000; stroke-linejoin: miter; stroke-linecap: square;  opacity: 1.000000"  d="M 152.608911,281.802924 L 144.609116,281.860145 "/>
</g>
<g id="xtick21">
<text style="font-size: 12.000000; font-family: Bitstream Vera Sans; font-style: Roman; fill: #000000;" x="135.117963" y="232.708203" >0.040</text>
<path style="fill: none; stroke: #000000; stroke-width: 1.000000; stroke-linejoin: miter; stroke-linecap: square;  opacity: 1.000000"  d="M 152.117963,228.208203 L 144.118168,228.265424 "/>
</g>
<g id="xtick22">
<text style="font-size: 12.000000; font-family: Bitstream Vera Sans; font-style: Roman; fill: #000000;" x="134.625633" y="178.962613" >0.045</text>
<path style="fill: none; stroke: #000000; stroke-width: 1.000000; stroke-linejoin: miter; stroke-linecap: square;  opacity: 1.000000"  d="M 151.625633,174.462613 L 143.625837,174.519834 "/>
</g>
</g>
<g id="axes1">
<g id="regpolycollection1">
<defs>
    <clipPath id="-8059334531519425607">
    <rect x="0.000000" y="0.000000" width="977.400000" height="763.200000"
    style="stroke: gray; fill: none;"/>
    </clipPath>
</defs>
<polygon style="fill: #0000ff; stroke: #000000; stroke-width: 1.000000; stroke-linejoin: miter; stroke-linecap: butt;  opacity: 0.631463" clip-path="url(#-8059334531519425607)" points = "233.165148,291.521599 233.944839,291.645090 234.648208,292.003475 235.206405,292.561672 235.564790,293.265041 235.688280,294.044732 235.564790,294.824422 235.206405,295.527792 234.648208,296.085989 233.944839,296.444373 233.165148,296.567864 232.385457,296.444373 231.682088,296.085989 231.123891,295.527792 230.765506,294.824422 230.642015,294.044732 230.765506,293.265041 231.123891,292.561672 231.682088,292.003475 232.385457,291.645090"/>
<polygon style="fill: #0000ff; stroke: #000000; stroke-width: 1.000000; stroke-linejoin: miter; stroke-linecap: butt;  opacity: 0.890083" clip-path="url(#-8059334531519425607)" points = "255.785004,452.298634 256.564695,452.422125 257.268065,452.780510 257.826262,453.338707 258.184646,454.042076 258.308137,454.821767 258.184646,455.601458 257.826262,456.304827 257.268065,456.863024 256.564695,457.221409 255.785004,457.344899 255.005314,457.221409 254.301944,456.863024 253.743747,456.304827 253.385363,455.601458 253.261872,454.821767 253.385363,454.042076 253.743747,453.338707 254.301944,452.780510 255.005314,452.422125"/>
<polygon style="fill: #0000ff; stroke: #000000; stroke-width: 1.000000; stroke-linejoin: miter; stroke-linecap: butt;  opacity: 0.770653" clip-path="url(#-8059334531519425607)" points = "287.270556,379.134714 288.050246,379.258205 288.753616,379.616590 289.311813,380.174787 289.670197,380.878156 289.793688,381.657847 289.670197,382.437538 289.311813,383.140907 288.753616,383.699104 288.050246,384.057489 287.270556,384.180979 286.490865,384.057489 285.787495,383.699104 285.229298,383.140907 284.870914,382.437538 284.747423,381.657847 284.870914,380.878156 285.229298,380.174787 285.787495,379.616590 286.490865,379.258205"/>
<polygon style="fill: #0000ff; stroke: #000000; stroke-width: 1.000000; stroke-linejoin: miter; stroke-linecap: butt;  opacity: 0.648750" clip-path="url(#-8059334531519425607)" points = "317.835520,348.421906 318.615211,348.545396 319.318580,348.903781 319.876777,349.461978 320.235161,350.165347 320.358652,350.945038 320.235161,351.724729 319.876777,352.428098 319.318580,352.986295 318.615211,353.344680 317.835520,353.468171 317.055829,353.344680 316.352460,352.986295 315.794263,352.428098 315.435878,351.724729 315.312387,350.945038 315.435878,350.165347 315.794263,349.461978 316.352460,348.903781 317.055829,348.545396"/>
<polygon style="fill: #0000ff; stroke: #000000; stroke-width: 1.000000; stroke-linejoin: miter; stroke-linecap: butt;  opacity: 0.537099" clip-path="url(#-8059334531519425607)" points = "347.135584,283.792933 347.915275,283.916424 348.618645,284.274808 349.176842,284.833005 349.535226,285.536374 349.658717,286.316065 349.535226,287.095756 349.176842,287.799125 348.618645,288.357322 347.915275,288.715707 347.135584,288.839198 346.355894,288.715707 345.652524,288.357322 345.094327,287.799125 344.735943,287.095756 344.612452,286.316065 344.735943,285.536374 345.094327,284.833005 345.652524,284.274808 346.355894,283.916424"/>
<polygon style="fill: #0000ff; stroke: #000000; stroke-width: 1.000000; stroke-linejoin: miter; stroke-linecap: butt;  opacity: 0.429409" clip-path="url(#-8059334531519425607)" points = "375.427307,220.584385 376.206998,220.707876 376.910367,221.066260 377.468564,221.624457 377.826949,222.327826 377.950440,223.107517 377.826949,223.887208 377.468564,224.590577 376.910367,225.148774 376.206998,225.507159 375.427307,225.630650 374.647617,225.507159 373.944247,225.148774 373.386050,224.590577 373.027666,223.887208 372.904175,223.107517 373.027666,222.327826 373.386050,221.624457 373.944247,221.066260 374.647617,220.707876"/>
<polygon style="fill: #0000ff; stroke: #000000; stroke-width: 1.000000; stroke-linejoin: miter; stroke-linecap: butt;  opacity: 0.319745" clip-path="url(#-8059334531519425607)" points = "402.856968,194.816272 403.636659,194.939763 404.340028,195.298147 404.898225,195.856344 405.256610,196.559714 405.380101,197.339405 405.256610,198.119095 404.898225,198.822465 404.340028,199.380662 403.636659,199.739046 402.856968,199.862537 402.077278,199.739046 401.373908,199.380662 400.815711,198.822465 400.457327,198.119095 400.333836,197.339405 400.457327,196.559714 400.815711,195.856344 401.373908,195.298147 402.077278,194.939763"/>
<polygon style="fill: #0000ff; stroke: #000000; stroke-width: 1.000000; stroke-linejoin: miter; stroke-linecap: butt;  opacity: 0.670338" clip-path="url(#-8059334531519425607)" points = "402.901310,380.697516 403.681001,380.821006 404.384370,381.179391 404.942567,381.737588 405.300952,382.440957 405.424443,383.220648 405.300952,384.000339 404.942567,384.703708 404.384370,385.261905 403.681001,385.620290 402.901310,385.743781 402.121620,385.620290 401.418250,385.261905 400.860053,384.703708 400.501669,384.000339 400.378178,383.220648 400.501669,382.440957 400.860053,381.737588 401.418250,381.179391 402.121620,380.821006"/>
<polygon style="fill: #0000ff; stroke: #000000; stroke-width: 1.000000; stroke-linejoin: miter; stroke-linecap: butt;  opacity: 0.713918" clip-path="url(#-8059334531519425607)" points = "574.767415,446.115267 575.547106,446.238758 576.250476,446.597143 576.808673,447.155340 577.167057,447.858709 577.290548,448.638400 577.167057,449.418091 576.808673,450.121460 576.250476,450.679657 575.547106,451.038041 574.767415,451.161532 573.987725,451.038041 573.284355,450.679657 572.726158,450.121460 572.367774,449.418091 572.244283,448.638400 572.367774,447.858709 572.726158,447.155340 573.284355,446.597143 573.987725,446.238758"/>
<polygon style="fill: #0000ff; stroke: #000000; stroke-width: 1.000000; stroke-linejoin: miter; stroke-linecap: butt;  opacity: 0.961376" clip-path="url(#-8059334531519425607)" points = "521.863664,548.690200 522.643355,548.813691 523.346724,549.172075 523.904921,549.730272 524.263306,550.433641 524.386797,551.213332 524.263306,551.993023 523.904921,552.696392 523.346724,553.254589 522.643355,553.612974 521.863664,553.736465 521.083973,553.612974 520.380604,553.254589 519.822407,552.696392 519.464022,551.993023 519.340532,551.213332 519.464022,550.433641 519.822407,549.730272 520.380604,549.172075 521.083973,548.813691"/>
<polygon style="fill: #0000ff; stroke: #000000; stroke-width: 1.000000; stroke-linejoin: miter; stroke-linecap: butt;  opacity: 0.834120" clip-path="url(#-8059334531519425607)" points = "548.804145,503.363384 549.583836,503.486874 550.287205,503.845259 550.845402,504.403456 551.203787,505.106825 551.327277,505.886516 551.203787,506.666207 550.845402,507.369576 550.287205,507.927773 549.583836,508.286158 548.804145,508.409649 548.024454,508.286158 547.321085,507.927773 546.762888,507.369576 546.404503,506.666207 546.281012,505.886516 546.404503,505.106825 546.762888,504.403456 547.321085,503.845259 548.024454,503.486874"/>
<polygon style="fill: #0000ff; stroke: #000000; stroke-width: 1.000000; stroke-linejoin: miter; stroke-linecap: butt;  opacity: 0.713918" clip-path="url(#-8059334531519425607)" points = "574.767415,446.115267 575.547106,446.238758 576.250476,446.597143 576.808673,447.155340 577.167057,447.858709 577.290548,448.638400 577.167057,449.418091 576.808673,450.121460 576.250476,450.679657 575.547106,451.038041 574.767415,451.161532 573.987725,451.038041 573.284355,450.679657 572.726158,450.121460 572.367774,449.418091 572.244283,448.638400 572.367774,447.858709 572.726158,447.155340 573.284355,446.597143 573.987725,446.238758"/>
<polygon style="fill: #0000ff; stroke: #000000; stroke-width: 1.000000; stroke-linejoin: miter; stroke-linecap: butt;  opacity: 0.597630" clip-path="url(#-8059334531519425607)" points = "599.792877,393.317102 600.572568,393.440593 601.275938,393.798977 601.834135,394.357174 602.192519,395.060544 602.316010,395.840234 602.192519,396.619925 601.834135,397.323295 601.275938,397.881492 600.572568,398.239876 599.792877,398.363367 599.013187,398.239876 598.309817,397.881492 597.751620,397.323295 597.393236,396.619925 597.269745,395.840234 597.393236,395.060544 597.751620,394.357174 598.309817,393.798977 599.013187,393.440593"/>
<polygon style="fill: #0000ff; stroke: #000000; stroke-width: 1.000000; stroke-linejoin: miter; stroke-linecap: butt;  opacity: 0.485997" clip-path="url(#-8059334531519425607)" points = "623.943786,339.080543 624.723476,339.204034 625.426846,339.562419 625.985043,340.120616 626.343427,340.823985 626.466918,341.603676 626.343427,342.383367 625.985043,343.086736 625.426846,343.644933 624.723476,344.003318 623.943786,344.126808 623.164095,344.003318 622.460726,343.644933 621.902529,343.086736 621.544144,342.383367 621.420653,341.603676 621.544144,340.823985 621.902529,340.120616 622.460726,339.562419 623.164095,339.204034"/>
<polygon style="fill: #0000ff; stroke: #000000; stroke-width: 1.000000; stroke-linejoin: miter; stroke-linecap: butt;  opacity: 0.375797" clip-path="url(#-8059334531519425607)" points = "647.201686,301.831354 647.981377,301.954845 648.684747,302.313229 649.242944,302.871426 649.601328,303.574795 649.724819,304.354486 649.601328,305.134177 649.242944,305.837546 648.684747,306.395743 647.981377,306.754128 647.201686,306.877619 646.421996,306.754128 645.718626,306.395743 645.160429,305.837546 644.802045,305.134177 644.678554,304.354486 644.802045,303.574795 645.160429,302.871426 645.718626,302.313229 646.421996,301.954845"/>
<polygon style="fill: #0000ff; stroke: #000000; stroke-width: 1.000000; stroke-linejoin: miter; stroke-linecap: butt;  opacity: 0.733787" clip-path="url(#-8059334531519425607)" points = "661.526224,491.707106 662.305914,491.830597 663.009284,492.188981 663.567481,492.747178 663.925865,493.450548 664.049356,494.230238 663.925865,495.009929 663.567481,495.713298 663.009284,496.271495 662.305914,496.629880 661.526224,496.753371 660.746533,496.629880 660.043164,496.271495 659.484966,495.713298 659.126582,495.009929 659.003091,494.230238 659.126582,493.450548 659.484966,492.747178 660.043164,492.188981 660.746533,491.830597"/>
<polygon style="fill: #0000ff; stroke: #000000; stroke-width: 1.000000; stroke-linejoin: miter; stroke-linecap: butt;  opacity: 0.986560" clip-path="url(#-8059334531519425607)" points = "611.849324,575.221095 612.629014,575.344586 613.332384,575.702971 613.890581,576.261168 614.248965,576.964537 614.372456,577.744228 614.248965,578.523919 613.890581,579.227288 613.332384,579.785485 612.629014,580.143870 611.849324,580.267360 611.069633,580.143870 610.366264,579.785485 609.808067,579.227288 609.449682,578.523919 609.326191,577.744228 609.449682,576.964537 609.808067,576.261168 610.366264,575.702971 611.069633,575.344586"/>
<polygon style="fill: #0000ff; stroke: #000000; stroke-width: 1.000000; stroke-linejoin: miter; stroke-linecap: butt;  opacity: 0.856418" clip-path="url(#-8059334531519425607)" points = "637.135627,540.337141 637.915318,540.460632 638.618687,540.819016 639.176884,541.377213 639.535269,542.080582 639.658760,542.860273 639.535269,543.639964 639.176884,544.343333 638.618687,544.901530 637.915318,545.259915 637.135627,545.383406 636.355936,545.259915 635.652567,544.901530 635.094370,544.343333 634.735986,543.639964 634.612495,542.860273 634.735986,542.080582 635.094370,541.377213 635.652567,540.819016 636.355936,540.460632"/>
<polygon style="fill: #0000ff; stroke: #000000; stroke-width: 1.000000; stroke-linejoin: miter; stroke-linecap: butt;  opacity: 0.733787" clip-path="url(#-8059334531519425607)" points = "661.526224,491.707106 662.305914,491.830597 663.009284,492.188981 663.567481,492.747178 663.925865,493.450548 664.049356,494.230238 663.925865,495.009929 663.567481,495.713298 663.009284,496.271495 662.305914,496.629880 661.526224,496.753371 660.746533,496.629880 660.043164,496.271495 659.484966,495.713298 659.126582,495.009929 659.003091,494.230238 659.126582,493.450548 659.484966,492.747178 660.043164,492.188981 660.746533,491.830597"/>
<polygon style="fill: #0000ff; stroke: #000000; stroke-width: 1.000000; stroke-linejoin: miter; stroke-linecap: butt;  opacity: 0.619819" clip-path="url(#-8059334531519425607)" points = "685.147814,419.845066 685.927505,419.968557 686.630875,420.326941 687.189072,420.885138 687.547456,421.588507 687.670947,422.368198 687.547456,423.147889 687.189072,423.851258 686.630875,424.409455 685.927505,424.767840 685.147814,424.891331 684.368124,424.767840 683.664754,424.409455 683.106557,423.851258 682.748173,423.147889 682.624682,422.368198 682.748173,421.588507 683.106557,420.885138 683.664754,420.326941 684.368124,419.968557"/>
<polygon style="fill: #0000ff; stroke: #000000; stroke-width: 1.000000; stroke-linejoin: miter; stroke-linecap: butt;  opacity: 0.502744" clip-path="url(#-8059334531519425607)" points = "707.720645,393.342223 708.500336,393.465713 709.203705,393.824098 709.761902,394.382295 710.120286,395.085664 710.243777,395.865355 710.120286,396.645046 709.761902,397.348415 709.203705,397.906612 708.500336,398.264997 707.720645,398.388488 706.940954,398.264997 706.237585,397.906612 705.679388,397.348415 705.321003,396.645046 705.197512,395.865355 705.321003,395.085664 705.679388,394.382295 706.237585,393.824098 706.940954,393.465713"/>
<polygon style="fill: #0000ff; stroke: #000000; stroke-width: 1.000000; stroke-linejoin: miter; stroke-linecap: butt;  opacity: 0.390753" clip-path="url(#-8059334531519425607)" points = "729.509830,362.492521 730.289521,362.616012 730.992891,362.974396 731.551088,363.532593 731.909472,364.235962 732.032963,365.015653 731.909472,365.795344 731.551088,366.498713 730.992891,367.056910 730.289521,367.415295 729.509830,367.538786 728.730140,367.415295 728.026770,367.056910 727.468573,366.498713 727.110189,365.795344 726.986698,365.015653 727.110189,364.235962 727.468573,363.532593 728.026770,362.974396 728.730140,362.616012"/>
<polygon style="fill: #0000ff; stroke: #000000; stroke-width: 1.000000; stroke-linejoin: miter; stroke-linecap: butt;  opacity: 0.995901" clip-path="url(#-8059334531519425607)" points = "648.016065,590.298854 648.795756,590.422345 649.499125,590.780729 650.057322,591.338926 650.415707,592.042296 650.539198,592.821987 650.415707,593.601677 650.057322,594.305047 649.499125,594.863244 648.795756,595.221628 648.016065,595.345119 647.236374,595.221628 646.533005,594.863244 645.974808,594.305047 645.616424,593.601677 645.492933,592.821987 645.616424,592.042296 645.974808,591.338926 646.533005,590.780729 647.236374,590.422345"/>
<polygon style="fill: #0000ff; stroke: #000000; stroke-width: 1.000000; stroke-linejoin: miter; stroke-linecap: butt;  opacity: 0.865249" clip-path="url(#-8059334531519425607)" points = "672.632717,555.945286 673.412408,556.068777 674.115777,556.427162 674.673974,556.985359 675.032359,557.688728 675.155850,558.468419 675.032359,559.248110 674.673974,559.951479 674.115777,560.509676 673.412408,560.868060 672.632717,560.991551 671.853026,560.868060 671.149657,560.509676 670.591460,559.951479 670.233075,559.248110 670.109585,558.468419 670.233075,557.688728 670.591460,556.985359 671.149657,556.427162 671.853026,556.068777"/>
<polygon style="fill: #0000ff; stroke: #000000; stroke-width: 1.000000; stroke-linejoin: miter; stroke-linecap: butt;  opacity: 0.742159" clip-path="url(#-8059334531519425607)" points = "696.391063,507.745729 697.170753,507.869220 697.874123,508.227605 698.432320,508.785802 698.790704,509.489171 698.914195,510.268862 698.790704,511.048553 698.432320,511.751922 697.874123,512.310119 697.170753,512.668503 696.391063,512.791994 695.611372,512.668503 694.908002,512.310119 694.349805,511.751922 693.991421,511.048553 693.867930,510.268862 693.991421,509.489171 694.349805,508.785802 694.908002,508.227605 695.611372,507.869220"/>
<polygon style="fill: #0000ff; stroke: #000000; stroke-width: 1.000000; stroke-linejoin: miter; stroke-linecap: butt;  opacity: 0.627245" clip-path="url(#-8059334531519425607)" points = "719.406284,439.402229 720.185975,439.525719 720.889344,439.884104 721.447541,440.442301 721.805926,441.145670 721.929417,441.925361 721.805926,442.705052 721.447541,443.408421 720.889344,443.966618 720.185975,444.325003 719.406284,444.448494 718.626593,444.325003 717.923224,443.966618 717.365027,443.408421 717.006643,442.705052 716.883152,441.925361 717.006643,441.145670 717.365027,440.442301 717.923224,439.884104 718.626593,439.525719"/>
<polygon style="fill: #0000ff; stroke: #000000; stroke-width: 1.000000; stroke-linejoin: miter; stroke-linecap: butt;  opacity: 0.507933" clip-path="url(#-8059334531519425607)" points = "741.298841,424.454549 742.078531,424.578040 742.781901,424.936425 743.340098,425.494622 743.698482,426.197991 743.821973,426.977682 743.698482,427.757372 743.340098,428.460742 742.781901,429.018939 742.078531,429.377323 741.298841,429.500814 740.519150,429.377323 739.815780,429.018939 739.257583,428.460742 738.899199,427.757372 738.775708,426.977682 738.899199,426.197991 739.257583,425.494622 739.815780,424.936425 740.519150,424.578040"/>
<polygon style="fill: #0000ff; stroke: #000000; stroke-width: 1.000000; stroke-linejoin: miter; stroke-linecap: butt;  opacity: 0.395834" clip-path="url(#-8059334531519425607)" points = "762.506669,392.551721 763.286360,392.675212 763.989730,393.033596 764.547927,393.591793 764.906311,394.295162 765.029802,395.074853 764.906311,395.854544 764.547927,396.557913 763.989730,397.116110 763.286360,397.474495 762.506669,397.597986 761.726979,397.474495 761.023609,397.116110 760.465412,396.557913 760.107028,395.854544 759.983537,395.074853 760.107028,394.295162 760.465412,393.591793 761.023609,393.033596 761.726979,392.675212"/>
<polygon style="fill: #0000ff; stroke: #000000; stroke-width: 1.000000; stroke-linejoin: miter; stroke-linecap: butt;  opacity: 0.995901" clip-path="url(#-8059334531519425607)" points = "648.016065,590.298854 648.795756,590.422345 649.499125,590.780729 650.057322,591.338926 650.415707,592.042296 650.539198,592.821987 650.415707,593.601677 650.057322,594.305047 649.499125,594.863244 648.795756,595.221628 648.016065,595.345119 647.236374,595.221628 646.533005,594.863244 645.974808,594.305047 645.616424,593.601677 645.492933,592.821987 645.616424,592.042296 645.974808,591.338926 646.533005,590.780729 647.236374,590.422345"/>
<polygon style="fill: #0000ff; stroke: #000000; stroke-width: 1.000000; stroke-linejoin: miter; stroke-linecap: butt;  opacity: 0.865249" clip-path="url(#-8059334531519425607)" points = "672.632717,555.945286 673.412408,556.068777 674.115777,556.427162 674.673974,556.985359 675.032359,557.688728 675.155850,558.468419 675.032359,559.248110 674.673974,559.951479 674.115777,560.509676 673.412408,560.868060 672.632717,560.991551 671.853026,560.868060 671.149657,560.509676 670.591460,559.951479 670.233075,559.248110 670.109585,558.468419 670.233075,557.688728 670.591460,556.985359 671.149657,556.427162 671.853026,556.068777"/>
<polygon style="fill: #0000ff; stroke: #000000; stroke-width: 1.000000; stroke-linejoin: miter; stroke-linecap: butt;  opacity: 0.742159" clip-path="url(#-8059334531519425607)" points = "696.391063,507.745729 697.170753,507.869220 697.874123,508.227605 698.432320,508.785802 698.790704,509.489171 698.914195,510.268862 698.790704,511.048553 698.432320,511.751922 697.874123,512.310119 697.170753,512.668503 696.391063,512.791994 695.611372,512.668503 694.908002,512.310119 694.349805,511.751922 693.991421,511.048553 693.867930,510.268862 693.991421,509.489171 694.349805,508.785802 694.908002,508.227605 695.611372,507.869220"/>
<polygon style="fill: #0000ff; stroke: #000000; stroke-width: 1.000000; stroke-linejoin: miter; stroke-linecap: butt;  opacity: 0.627245" clip-path="url(#-8059334531519425607)" points = "719.406284,439.402229 720.185975,439.525719 720.889344,439.884104 721.447541,440.442301 721.805926,441.145670 721.929417,441.925361 721.805926,442.705052 721.447541,443.408421 720.889344,443.966618 720.185975,444.325003 719.406284,444.448494 718.626593,444.325003 717.923224,443.966618 717.365027,443.408421 717.006643,442.705052 716.883152,441.925361 717.006643,441.145670 717.365027,440.442301 717.923224,439.884104 718.626593,439.525719"/>
<polygon style="fill: #0000ff; stroke: #000000; stroke-width: 1.000000; stroke-linejoin: miter; stroke-linecap: butt;  opacity: 0.507933" clip-path="url(#-8059334531519425607)" points = "741.298841,424.454549 742.078531,424.578040 742.781901,424.936425 743.340098,425.494622 743.698482,426.197991 743.821973,426.977682 743.698482,427.757372 743.340098,428.460742 742.781901,429.018939 742.078531,429.377323 741.298841,429.500814 740.519150,429.377323 739.815780,429.018939 739.257583,428.460742 738.899199,427.757372 738.775708,426.977682 738.899199,426.197991 739.257583,425.494622 739.815780,424.936425 740.519150,424.578040"/>
<polygon style="fill: #0000ff; stroke: #000000; stroke-width: 1.000000; stroke-linejoin: miter; stroke-linecap: butt;  opacity: 0.395834" clip-path="url(#-8059334531519425607)" points = "762.506669,392.551721 763.286360,392.675212 763.989730,393.033596 764.547927,393.591793 764.906311,394.295162 765.029802,395.074853 764.906311,395.854544 764.547927,396.557913 763.989730,397.116110 763.286360,397.474495 762.506669,397.597986 761.726979,397.474495 761.023609,397.116110 760.465412,396.557913 760.107028,395.854544 759.983537,395.074853 760.107028,394.295162 760.465412,393.591793 761.023609,393.033596 761.726979,392.675212"/>
<polygon style="fill: #0000ff; stroke: #000000; stroke-width: 1.000000; stroke-linejoin: miter; stroke-linecap: butt;  opacity: 1.000000" clip-path="url(#-8059334531519425607)" points = "666.122953,601.110740 666.902643,601.234230 667.606013,601.592615 668.164210,602.150812 668.522594,602.854181 668.646085,603.633872 668.522594,604.413563 668.164210,605.116932 667.606013,605.675129 666.902643,606.033514 666.122953,606.157005 665.343262,606.033514 664.639892,605.675129 664.081695,605.116932 663.723311,604.413563 663.599820,603.633872 663.723311,602.854181 664.081695,602.150812 664.639892,601.592615 665.343262,601.234230"/>
<polygon style="fill: #0000ff; stroke: #000000; stroke-width: 1.000000; stroke-linejoin: miter; stroke-linecap: butt;  opacity: 0.869414" clip-path="url(#-8059334531519425607)" points = "690.409519,565.246687 691.189210,565.370178 691.892579,565.728563 692.450776,566.286760 692.809161,566.990129 692.932651,567.769820 692.809161,568.549511 692.450776,569.252880 691.892579,569.811077 691.189210,570.169461 690.409519,570.292952 689.629828,570.169461 688.926459,569.811077 688.368262,569.252880 688.009877,568.549511 687.886386,567.769820 688.009877,566.990129 688.368262,566.286760 688.926459,565.728563 689.629828,565.370178"/>
<polygon style="fill: #0000ff; stroke: #000000; stroke-width: 1.000000; stroke-linejoin: miter; stroke-linecap: butt;  opacity: 0.745670" clip-path="url(#-8059334531519425607)" points = "713.835014,519.763408 714.614705,519.886899 715.318074,520.245283 715.876271,520.803480 716.234655,521.506850 716.358146,522.286541 716.234655,523.066231 715.876271,523.769601 715.318074,524.327798 714.614705,524.686182 713.835014,524.809673 713.055323,524.686182 712.351954,524.327798 711.793757,523.769601 711.435372,523.066231 711.311881,522.286541 711.435372,521.506850 711.793757,520.803480 712.351954,520.245283 713.055323,519.886899"/>
<polygon style="fill: #0000ff; stroke: #000000; stroke-width: 1.000000; stroke-linejoin: miter; stroke-linecap: butt;  opacity: 0.628929" clip-path="url(#-8059334531519425607)" points = "736.490606,461.316063 737.270297,461.439554 737.973666,461.797939 738.531863,462.356136 738.890248,463.059505 739.013739,463.839196 738.890248,464.618887 738.531863,465.322256 737.973666,465.880453 737.270297,466.238838 736.490606,466.362328 735.710915,466.238838 735.007546,465.880453 734.449349,465.322256 734.090964,464.618887 733.967474,463.839196 734.090964,463.059505 734.449349,462.356136 735.007546,461.797939 735.710915,461.439554"/>
<polygon style="fill: #0000ff; stroke: #000000; stroke-width: 1.000000; stroke-linejoin: miter; stroke-linecap: butt;  opacity: 0.509551" clip-path="url(#-8059334531519425607)" points = "758.068754,445.974304 758.848445,446.097795 759.551814,446.456180 760.110011,447.014377 760.468396,447.717746 760.591887,448.497437 760.468396,449.277127 760.110011,449.980497 759.551814,450.538694 758.848445,450.897078 758.068754,451.020569 757.289063,450.897078 756.585694,450.538694 756.027497,449.980497 755.669113,449.277127 755.545622,448.497437 755.669113,447.717746 756.027497,447.014377 756.585694,446.456180 757.289063,446.097795"/>
<polygon style="fill: #0000ff; stroke: #000000; stroke-width: 1.000000; stroke-linejoin: miter; stroke-linecap: butt;  opacity: 0.397262" clip-path="url(#-8059334531519425607)" points = "778.975293,414.497255 779.754984,414.620746 780.458353,414.979131 781.016550,415.537328 781.374934,416.240697 781.498425,417.020388 781.374934,417.800079 781.016550,418.503448 780.458353,419.061645 779.754984,419.420030 778.975293,419.543521 778.195602,419.420030 777.492233,419.061645 776.934036,418.503448 776.575651,417.800079 776.452160,417.020388 776.575651,416.240697 776.934036,415.537328 777.492233,414.979131 778.195602,414.620746"/>
<polygon style="fill: #0000ff; stroke: #000000; stroke-width: 1.000000; stroke-linejoin: miter; stroke-linecap: butt;  opacity: 0.863190" clip-path="url(#-8059334531519425607)" points = "168.519540,440.527285 169.299231,440.650776 170.002600,441.009161 170.560797,441.567358 170.919181,442.270727 171.042672,443.050418 170.919181,443.830109 170.560797,444.533478 170.002600,445.091675 169.299231,445.450060 168.519540,445.573550 167.739849,445.450060 167.036480,445.091675 166.478283,444.533478 166.119898,443.830109 165.996407,443.050418 166.119898,442.270727 166.478283,441.567358 167.036480,441.009161 167.739849,440.650776"/>
<polygon style="fill: #0000ff; stroke: #000000; stroke-width: 1.000000; stroke-linejoin: miter; stroke-linecap: butt;  opacity: 0.745473" clip-path="url(#-8059334531519425607)" points = "201.409235,363.438588 202.188926,363.562079 202.892295,363.920464 203.450492,364.478661 203.808877,365.182030 203.932368,365.961721 203.808877,366.741412 203.450492,367.444781 202.892295,368.002978 202.188926,368.361362 201.409235,368.484853 200.629545,368.361362 199.926175,368.002978 199.367978,367.444781 199.009594,366.741412 198.886103,365.961721 199.009594,365.182030 199.367978,364.478661 199.926175,363.920464 200.629545,363.562079"/>
<polygon style="fill: #0000ff; stroke: #000000; stroke-width: 1.000000; stroke-linejoin: miter; stroke-linecap: butt;  opacity: 0.631463" clip-path="url(#-8059334531519425607)" points = "233.165148,291.521599 233.944839,291.645090 234.648208,292.003475 235.206405,292.561672 235.564790,293.265041 235.688280,294.044732 235.564790,294.824422 235.206405,295.527792 234.648208,296.085989 233.944839,296.444373 233.165148,296.567864 232.385457,296.444373 231.682088,296.085989 231.123891,295.527792 230.765506,294.824422 230.642015,294.044732 230.765506,293.265041 231.123891,292.561672 231.682088,292.003475 232.385457,291.645090"/>
<polygon style="fill: #0000ff; stroke: #000000; stroke-width: 1.000000; stroke-linejoin: miter; stroke-linecap: butt;  opacity: 0.515849" clip-path="url(#-8059334531519425607)" points = "264.035192,255.845078 264.814882,255.968569 265.518252,256.326954 266.076449,256.885151 266.434833,257.588520 266.558324,258.368211 266.434833,259.147902 266.076449,259.851271 265.518252,260.409468 264.814882,260.767852 264.035192,260.891343 263.255501,260.767852 262.552132,260.409468 261.993935,259.851271 261.635550,259.147902 261.512059,258.368211 261.635550,257.588520 261.993935,256.885151 262.552132,256.326954 263.255501,255.968569"/>
<polygon style="fill: #0000ff; stroke: #000000; stroke-width: 1.000000; stroke-linejoin: miter; stroke-linecap: butt;  opacity: 0.408004" clip-path="url(#-8059334531519425607)" points = "293.682213,198.761197 294.461904,198.884688 295.165273,199.243073 295.723470,199.801270 296.081855,200.504639 296.205346,201.284330 296.081855,202.064021 295.723470,202.767390 295.165273,203.325587 294.461904,203.683971 293.682213,203.807462 292.902522,203.683971 292.199153,203.325587 291.640956,202.767390 291.282572,202.064021 291.159081,201.284330 291.282572,200.504639 291.640956,199.801270 292.199153,199.243073 292.902522,198.884688"/>
<polygon style="fill: #0000ff; stroke: #000000; stroke-width: 1.000000; stroke-linejoin: miter; stroke-linecap: butt;  opacity: 0.300000" clip-path="url(#-8059334531519425607)" points = "322.438393,167.725256 323.218084,167.848747 323.921453,168.207131 324.479650,168.765328 324.838035,169.468697 324.961525,170.248388 324.838035,171.028079 324.479650,171.731448 323.921453,172.289645 323.218084,172.648030 322.438393,172.771521 321.658702,172.648030 320.955333,172.289645 320.397136,171.731448 320.038751,171.028079 319.915260,170.248388 320.038751,169.468697 320.397136,168.765328 320.955333,168.207131 321.658702,167.848747"/>
<polygon style="fill: #0000ff; stroke: #000000; stroke-width: 1.000000; stroke-linejoin: miter; stroke-linecap: butt;  opacity: 0.986560" clip-path="url(#-8059334531519425607)" points = "611.849324,575.221095 612.629014,575.344586 613.332384,575.702971 613.890581,576.261168 614.248965,576.964537 614.372456,577.744228 614.248965,578.523919 613.890581,579.227288 613.332384,579.785485 612.629014,580.143870 611.849324,580.267360 611.069633,580.143870 610.366264,579.785485 609.808067,579.227288 609.449682,578.523919 609.326191,577.744228 609.449682,576.964537 609.808067,576.261168 610.366264,575.702971 611.069633,575.344586"/>
<polygon style="fill: #0000ff; stroke: #000000; stroke-width: 1.000000; stroke-linejoin: miter; stroke-linecap: butt;  opacity: 0.856418" clip-path="url(#-8059334531519425607)" points = "637.135627,540.337141 637.915318,540.460632 638.618687,540.819016 639.176884,541.377213 639.535269,542.080582 639.658760,542.860273 639.535269,543.639964 639.176884,544.343333 638.618687,544.901530 637.915318,545.259915 637.135627,545.383406 636.355936,545.259915 635.652567,544.901530 635.094370,544.343333 634.735986,543.639964 634.612495,542.860273 634.735986,542.080582 635.094370,541.377213 635.652567,540.819016 636.355936,540.460632"/>
<polygon style="fill: #0000ff; stroke: #000000; stroke-width: 1.000000; stroke-linejoin: miter; stroke-linecap: butt;  opacity: 0.733787" clip-path="url(#-8059334531519425607)" points = "661.526224,491.707106 662.305914,491.830597 663.009284,492.188981 663.567481,492.747178 663.925865,493.450548 664.049356,494.230238 663.925865,495.009929 663.567481,495.713298 663.009284,496.271495 662.305914,496.629880 661.526224,496.753371 660.746533,496.629880 660.043164,496.271495 659.484966,495.713298 659.126582,495.009929 659.003091,494.230238 659.126582,493.450548 659.484966,492.747178 660.043164,492.188981 660.746533,491.830597"/>
<polygon style="fill: #0000ff; stroke: #000000; stroke-width: 1.000000; stroke-linejoin: miter; stroke-linecap: butt;  opacity: 0.619819" clip-path="url(#-8059334531519425607)" points = "685.147814,419.845066 685.927505,419.968557 686.630875,420.326941 687.189072,420.885138 687.547456,421.588507 687.670947,422.368198 687.547456,423.147889 687.189072,423.851258 686.630875,424.409455 685.927505,424.767840 685.147814,424.891331 684.368124,424.767840 683.664754,424.409455 683.106557,423.851258 682.748173,423.147889 682.624682,422.368198 682.748173,421.588507 683.106557,420.885138 683.664754,420.326941 684.368124,419.968557"/>
<polygon style="fill: #0000ff; stroke: #000000; stroke-width: 1.000000; stroke-linejoin: miter; stroke-linecap: butt;  opacity: 0.502744" clip-path="url(#-8059334531519425607)" points = "707.720645,393.342223 708.500336,393.465713 709.203705,393.824098 709.761902,394.382295 710.120286,395.085664 710.243777,395.865355 710.120286,396.645046 709.761902,397.348415 709.203705,397.906612 708.500336,398.264997 707.720645,398.388488 706.940954,398.264997 706.237585,397.906612 705.679388,397.348415 705.321003,396.645046 705.197512,395.865355 705.321003,395.085664 705.679388,394.382295 706.237585,393.824098 706.940954,393.465713"/>
<polygon style="fill: #0000ff; stroke: #000000; stroke-width: 1.000000; stroke-linejoin: miter; stroke-linecap: butt;  opacity: 0.390753" clip-path="url(#-8059334531519425607)" points = "729.509830,362.492521 730.289521,362.616012 730.992891,362.974396 731.551088,363.532593 731.909472,364.235962 732.032963,365.015653 731.909472,365.795344 731.551088,366.498713 730.992891,367.056910 730.289521,367.415295 729.509830,367.538786 728.730140,367.415295 728.026770,367.056910 727.468573,366.498713 727.110189,365.795344 726.986698,365.015653 727.110189,364.235962 727.468573,363.532593 728.026770,362.974396 728.730140,362.616012"/>
</g>
<g id="matplotlib.axis1">
</g>
<g id="matplotlib.axis2">
</g>
</g>
</g>
</svg>
