<?xml version="1.0" standalone="no"?>
<!DOCTYPE svg PUBLIC "-//W3C//DTD SVG 1.1//EN"
  "http://www.w3.org/Graphics/SVG/1.1/DTD/svg11.dtd">
<!-- Created with matplotlib (http://matplotlib.sourceforge.net/) -->
<svg width="576" height="432" viewBox="0 0 576 432"
   xmlns="http://www.w3.org/2000/svg"
   xmlns:xlink="http://www.w3.org/1999/xlink"
   version="1.1"
   id="svg1">
<g id="figure1">
<polygon style="fill: #ffffff; stroke: #ffffff; stroke-width: 1.000000; stroke-linejoin: miter; stroke-linecap: square;  opacity: 1.000000"  points = "0.000000,432.000000 0.000000,0.000000 576.000000,0.000000 576.000000,432.000000"/>
<polygon style="fill: #ffffff; opacity: 1.000000"  points = "0.000000,432.000000 0.000000,0.000000 576.000000,0.000000 576.000000,432.000000"/>
<g id="axis3d1">
<polygon style="fill: #f2f2f2; stroke: #f2f2f2; stroke-width: 1.000000; stroke-linejoin: miter; stroke-linecap: square;  opacity: 0.100000"  points = "241.211914,230.626613 508.260241,289.840834 519.433224,81.348607 238.467267,28.237352"/>
<path style="fill: none; stroke: #000000; stroke-width: 0.750000; stroke-linejoin: miter; stroke-linecap: square;  opacity: 1.000000"  d="M 76.357701,336.543225 L 357.328625,405.507833 "/>
<text style="font-size: 12.000000; font-family: Bitstream Vera Sans; font-style: Roman; fill: #000000;" x="126.985725" y="379.092411" transform="translate(126.985725,379.092411) rotate(-341.9) translate(-126.985725,-379.092411)">max_snp_mismatch_rate</text>
<g id="linecollection1">
<path style="fill: none; stroke: #e6e6e6; stroke-width: 1.000000; stroke-linejoin: miter; stroke-linecap: butt;  opacity: 1.000000"  d="M 81.730847,337.862069 L 246.335639,231.762727 L 243.846516,29.254197 "/>
<path style="fill: none; stroke: #e6e6e6; stroke-width: 1.000000; stroke-linejoin: miter; stroke-linecap: butt;  opacity: 1.000000"  d="M 133.806316,350.644048 L 295.959675,242.766161 L 295.968604,39.106883 "/>
<path style="fill: none; stroke: #e6e6e6; stroke-width: 1.000000; stroke-linejoin: miter; stroke-linecap: butt;  opacity: 1.000000"  d="M 186.791666,363.649357 L 346.387419,253.947806 L 348.978075,49.127313 "/>
<path style="fill: none; stroke: #e6e6e6; stroke-width: 1.000000; stroke-linejoin: miter; stroke-linecap: butt;  opacity: 1.000000"  d="M 240.710954,376.883903 L 397.638557,265.312027 L 402.897787,59.319806 "/>
<path style="fill: none; stroke: #e6e6e6; stroke-width: 1.000000; stroke-linejoin: miter; stroke-linecap: butt;  opacity: 1.000000"  d="M 295.589092,390.353800 L 449.733420,276.863332 L 457.751387,69.688832 "/>
<path style="fill: none; stroke: #e6e6e6; stroke-width: 1.000000; stroke-linejoin: miter; stroke-linecap: butt;  opacity: 1.000000"  d="M 351.451887,404.065382 L 502.693018,288.606380 L 513.563349,80.239019 "/>
</g>
<g id="xtick1">
<text style="font-size: 12.000000; font-family: Bitstream Vera Sans; font-style: Roman; fill: #000000;" x="68.730847" y="342.362069" >0.05</text>
<path style="fill: none; stroke: #000000; stroke-width: 1.000000; stroke-linejoin: miter; stroke-linecap: square;  opacity: 1.000000"  d="M 81.730847,337.862069 L 79.242567,345.465257 "/>
</g>
<g id="xtick2">
<text style="font-size: 12.000000; font-family: Bitstream Vera Sans; font-style: Roman; fill: #000000;" x="120.806316" y="355.144048" >0.10</text>
<path style="fill: none; stroke: #000000; stroke-width: 1.000000; stroke-linejoin: miter; stroke-linecap: square;  opacity: 1.000000"  d="M 133.806316,350.644048 L 131.318036,358.247235 "/>
</g>
<g id="xtick3">
<text style="font-size: 12.000000; font-family: Bitstream Vera Sans; font-style: Roman; fill: #000000;" x="173.791666" y="368.149357" >0.15</text>
<path style="fill: none; stroke: #000000; stroke-width: 1.000000; stroke-linejoin: miter; stroke-linecap: square;  opacity: 1.000000"  d="M 186.791666,363.649357 L 184.303386,371.252545 "/>
</g>
<g id="xtick4">
<text style="font-size: 12.000000; font-family: Bitstream Vera Sans; font-style: Roman; fill: #000000;" x="227.710954" y="381.383903" >0.20</text>
<path style="fill: none; stroke: #000000; stroke-width: 1.000000; stroke-linejoin: miter; stroke-linecap: square;  opacity: 1.000000"  d="M 240.710954,376.883903 L 238.222674,384.487091 "/>
</g>
<g id="xtick5">
<text style="font-size: 12.000000; font-family: Bitstream Vera Sans; font-style: Roman; fill: #000000;" x="282.589092" y="394.853800" >0.25</text>
<path style="fill: none; stroke: #000000; stroke-width: 1.000000; stroke-linejoin: miter; stroke-linecap: square;  opacity: 1.000000"  d="M 295.589092,390.353800 L 293.100812,397.956987 "/>
</g>
<g id="xtick6">
<text style="font-size: 12.000000; font-family: Bitstream Vera Sans; font-style: Roman; fill: #000000;" x="338.451887" y="408.565382" >0.30</text>
<path style="fill: none; stroke: #000000; stroke-width: 1.000000; stroke-linejoin: miter; stroke-linecap: square;  opacity: 1.000000"  d="M 351.451887,404.065382 L 348.963607,411.668569 "/>
</g>
</g>
<g id="axis3d2">
<polygon style="fill: #e6e6e6; stroke: #e6e6e6; stroke-width: 1.000000; stroke-linejoin: miter; stroke-linecap: square;  opacity: 0.500000"  points = "76.357701,336.543225 241.211914,230.626613 238.467267,28.237352 64.421350,123.401250"/>
<path style="fill: none; stroke: #000000; stroke-width: 0.750000; stroke-linejoin: miter; stroke-linecap: square;  opacity: 1.000000"  d="M 357.328625,405.507833 L 508.260241,289.840834 "/>
<text style="font-size: 12.000000; font-family: Bitstream Vera Sans; font-style: Roman; fill: #000000;" x="424.901640" y="409.410201" transform="translate(424.901640,409.410201) rotate(-45.6) translate(-424.901640,-409.410201)">max_snp_NA_rate</text>
<g id="linecollection2">
<path style="fill: none; stroke: #e6e6e6; stroke-width: 1.000000; stroke-linejoin: miter; stroke-linecap: butt;  opacity: 1.000000"  d="M 360.586508,403.011142 L 79.904448,334.264487 L 68.180167,121.346024 "/>
<path style="fill: none; stroke: #e6e6e6; stroke-width: 1.000000; stroke-linejoin: miter; stroke-linecap: butt;  opacity: 1.000000"  d="M 386.275008,383.324666 L 107.888616,316.285036 L 97.815435,105.142210 "/>
<path style="fill: none; stroke: #e6e6e6; stroke-width: 1.000000; stroke-linejoin: miter; stroke-linecap: butt;  opacity: 1.000000"  d="M 411.315455,364.134828 L 135.197551,298.739413 L 126.697783,89.350074 "/>
<path style="fill: none; stroke: #e6e6e6; stroke-width: 1.000000; stroke-linejoin: miter; stroke-linecap: butt;  opacity: 1.000000"  d="M 435.732067,345.423067 L 161.855403,281.612103 L 154.855544,73.954124 "/>
<path style="fill: none; stroke: #e6e6e6; stroke-width: 1.000000; stroke-linejoin: miter; stroke-linecap: butt;  opacity: 1.000000"  d="M 459.547871,327.171738 L 187.885180,264.888322 L 182.315648,58.939635 "/>
<path style="fill: none; stroke: #e6e6e6; stroke-width: 1.000000; stroke-linejoin: miter; stroke-linecap: butt;  opacity: 1.000000"  d="M 482.784771,309.364054 L 213.308820,248.553975 L 209.103706,44.292603 "/>
<path style="fill: none; stroke: #e6e6e6; stroke-width: 1.000000; stroke-linejoin: miter; stroke-linecap: butt;  opacity: 1.000000"  d="M 505.463623,291.984033 L 238.147253,232.595617 L 235.244090,29.999704 "/>
</g>
<g id="xtick7">
<text style="font-size: 12.000000; font-family: Bitstream Vera Sans; font-style: Roman; fill: #000000;" x="352.086508" y="407.511142" >0.1</text>
<path style="fill: none; stroke: #000000; stroke-width: 1.000000; stroke-linejoin: miter; stroke-linecap: square;  opacity: 1.000000"  d="M 360.586508,403.011142 L 366.304039,408.606662 "/>
</g>
<g id="xtick8">
<text style="font-size: 12.000000; font-family: Bitstream Vera Sans; font-style: Roman; fill: #000000;" x="377.251570" y="387.824666" >0.2</text>
<path style="fill: none; stroke: #000000; stroke-width: 1.000000; stroke-linejoin: miter; stroke-linecap: square;  opacity: 1.000000"  d="M 386.275008,383.324666 L 391.992538,388.920187 "/>
</g>
<g id="xtick9">
<text style="font-size: 12.000000; font-family: Bitstream Vera Sans; font-style: Roman; fill: #000000;" x="402.315455" y="368.634828" >0.3</text>
<path style="fill: none; stroke: #000000; stroke-width: 1.000000; stroke-linejoin: miter; stroke-linecap: square;  opacity: 1.000000"  d="M 411.315455,364.134828 L 417.032985,369.730348 "/>
</g>
<g id="xtick10">
<text style="font-size: 12.000000; font-family: Bitstream Vera Sans; font-style: Roman; fill: #000000;" x="426.732067" y="349.923067" >0.4</text>
<path style="fill: none; stroke: #000000; stroke-width: 1.000000; stroke-linejoin: miter; stroke-linecap: square;  opacity: 1.000000"  d="M 435.732067,345.423067 L 441.449597,351.018587 "/>
</g>
<g id="xtick11">
<text style="font-size: 12.000000; font-family: Bitstream Vera Sans; font-style: Roman; fill: #000000;" x="450.547871" y="331.671738" >0.5</text>
<path style="fill: none; stroke: #000000; stroke-width: 1.000000; stroke-linejoin: miter; stroke-linecap: square;  opacity: 1.000000"  d="M 459.547871,327.171738 L 465.265401,332.767259 "/>
</g>
<g id="xtick12">
<text style="font-size: 12.000000; font-family: Bitstream Vera Sans; font-style: Roman; fill: #000000;" x="473.784771" y="313.864054" >0.6</text>
<path style="fill: none; stroke: #000000; stroke-width: 1.000000; stroke-linejoin: miter; stroke-linecap: square;  opacity: 1.000000"  d="M 482.784771,309.364054 L 488.502301,314.959575 "/>
</g>
<g id="xtick13">
<text style="font-size: 12.000000; font-family: Bitstream Vera Sans; font-style: Roman; fill: #000000;" x="496.463623" y="296.484033" >0.7</text>
<path style="fill: none; stroke: #000000; stroke-width: 1.000000; stroke-linejoin: miter; stroke-linecap: square;  opacity: 1.000000"  d="M 505.463623,291.984033 L 511.181153,297.579553 "/>
</g>
</g>
<g id="axis3d3">
<polygon style="fill: #f2f2f2; stroke: #f2f2f2; stroke-width: 1.000000; stroke-linejoin: miter; stroke-linecap: square;  opacity: 0.100000"  points = "76.357701,336.543225 357.328625,405.507833 508.260241,289.840834 241.211914,230.626613"/>
<path style="fill: none; stroke: #000000; stroke-width: 0.750000; stroke-linejoin: miter; stroke-linecap: square;  opacity: 1.000000"  d="M 76.357701,336.543225 L 64.421350,123.401250 "/>
<text style="font-size: 12.000000; font-family: Bitstream Vera Sans; font-style: Roman; fill: #000000;" x="43.657539" y="316.142687" transform="translate(43.657539,316.142687) rotate(-92.4) translate(-43.657539,-316.142687)">no_of_snps_filtered_by_na</text>
<g id="linecollection3">
<path style="fill: none; stroke: #e6e6e6; stroke-width: 1.000000; stroke-linejoin: miter; stroke-linecap: butt;  opacity: 1.000000"  d="M 76.131056,332.496136 L 241.159600,226.768965 L 508.472750,285.875342 "/>
<path style="fill: none; stroke: #e6e6e6; stroke-width: 1.000000; stroke-linejoin: miter; stroke-linecap: butt;  opacity: 1.000000"  d="M 74.300904,299.815941 L 240.737445,195.639460 L 510.188244,253.863550 "/>
<path style="fill: none; stroke: #e6e6e6; stroke-width: 1.000000; stroke-linejoin: miter; stroke-linecap: butt;  opacity: 1.000000"  d="M 72.439998,266.586586 L 240.308715,164.025048 L 511.931637,221.331161 "/>
<path style="fill: none; stroke: #e6e6e6; stroke-width: 1.000000; stroke-linejoin: miter; stroke-linecap: butt;  opacity: 1.000000"  d="M 70.547556,232.794112 L 239.873254,131.914310 L 513.703614,188.265371 "/>
<path style="fill: none; stroke: #e6e6e6; stroke-width: 1.000000; stroke-linejoin: miter; stroke-linecap: butt;  opacity: 1.000000"  d="M 68.622770,198.424081 L 239.430902,99.295467 L 515.504884,154.652955 "/>
<path style="fill: none; stroke: #e6e6e6; stroke-width: 1.000000; stroke-linejoin: miter; stroke-linecap: butt;  opacity: 1.000000"  d="M 66.664803,163.461560 L 238.981495,66.156361 L 517.336181,120.480244 "/>
<path style="fill: none; stroke: #e6e6e6; stroke-width: 1.000000; stroke-linejoin: miter; stroke-linecap: butt;  opacity: 1.000000"  d="M 64.672790,127.891094 L 238.524862,32.484445 L 519.198260,85.733110 "/>
</g>
<g id="xtick14">
<text style="font-size: 12.000000; font-family: Bitstream Vera Sans; font-style: Roman; fill: #000000;" x="73.131056" y="336.996136" >0</text>
<path style="fill: none; stroke: #000000; stroke-width: 1.000000; stroke-linejoin: miter; stroke-linecap: square;  opacity: 1.000000"  d="M 76.131056,332.496136 L 68.138103,332.831851 "/>
</g>
<g id="xtick15">
<text style="font-size: 12.000000; font-family: Bitstream Vera Sans; font-style: Roman; fill: #000000;" x="55.300904" y="304.315941" >10000</text>
<path style="fill: none; stroke: #000000; stroke-width: 1.000000; stroke-linejoin: miter; stroke-linecap: square;  opacity: 1.000000"  d="M 74.300904,299.815941 L 66.307951,300.151656 "/>
</g>
<g id="xtick16">
<text style="font-size: 12.000000; font-family: Bitstream Vera Sans; font-style: Roman; fill: #000000;" x="53.439998" y="271.086586" >20000</text>
<path style="fill: none; stroke: #000000; stroke-width: 1.000000; stroke-linejoin: miter; stroke-linecap: square;  opacity: 1.000000"  d="M 72.439998,266.586586 L 64.447045,266.922301 "/>
</g>
<g id="xtick17">
<text style="font-size: 12.000000; font-family: Bitstream Vera Sans; font-style: Roman; fill: #000000;" x="51.547556" y="237.294112" >30000</text>
<path style="fill: none; stroke: #000000; stroke-width: 1.000000; stroke-linejoin: miter; stroke-linecap: square;  opacity: 1.000000"  d="M 70.547556,232.794112 L 62.554603,233.129827 "/>
</g>
<g id="xtick18">
<text style="font-size: 12.000000; font-family: Bitstream Vera Sans; font-style: Roman; fill: #000000;" x="49.622770" y="202.924081" >40000</text>
<path style="fill: none; stroke: #000000; stroke-width: 1.000000; stroke-linejoin: miter; stroke-linecap: square;  opacity: 1.000000"  d="M 68.622770,198.424081 L 60.629817,198.759796 "/>
</g>
<g id="xtick19">
<text style="font-size: 12.000000; font-family: Bitstream Vera Sans; font-style: Roman; fill: #000000;" x="47.664803" y="167.961560" >50000</text>
<path style="fill: none; stroke: #000000; stroke-width: 1.000000; stroke-linejoin: miter; stroke-linecap: square;  opacity: 1.000000"  d="M 66.664803,163.461560 L 58.671850,163.797275 "/>
</g>
<g id="xtick20">
<text style="font-size: 12.000000; font-family: Bitstream Vera Sans; font-style: Roman; fill: #000000;" x="45.672790" y="132.391094" >60000</text>
<path style="fill: none; stroke: #000000; stroke-width: 1.000000; stroke-linejoin: miter; stroke-linecap: square;  opacity: 1.000000"  d="M 64.672790,127.891094 L 56.679837,128.226810 "/>
</g>
</g>
<g id="axes1">
<g id="regpolycollection1">
<defs>
    <clipPath id="4685744057707115011">
    <rect x="0.000000" y="0.000000" width="576.000000" height="432.000000"
    style="stroke: gray; fill: none;"/>
    </clipPath>
</defs>
<polygon style="fill: #0000ff; stroke: #000000; stroke-width: 1.000000; stroke-linejoin: miter; stroke-linecap: butt;  opacity: 0.656660" clip-path="url(#4685744057707115011)" points = "82.150688,274.937289 82.930379,275.060780 83.633749,275.419165 84.191946,275.977362 84.550330,276.680731 84.673821,277.460422 84.550330,278.240113 84.191946,278.943482 83.633749,279.501679 82.930379,279.860064 82.150688,279.983555 81.370998,279.860064 80.667628,279.501679 80.109431,278.943482 79.751047,278.240113 79.627556,277.460422 79.751047,276.680731 80.109431,275.977362 80.667628,275.419165 81.370998,275.060780"/>
<polygon style="fill: #0000ff; stroke: #000000; stroke-width: 1.000000; stroke-linejoin: miter; stroke-linecap: butt;  opacity: 0.560826" clip-path="url(#4685744057707115011)" points = "112.337348,296.102833 113.117039,296.226324 113.820408,296.584708 114.378605,297.142905 114.736989,297.846275 114.860480,298.625966 114.736989,299.405656 114.378605,300.109026 113.820408,300.667223 113.117039,301.025607 112.337348,301.149098 111.557657,301.025607 110.854288,300.667223 110.296091,300.109026 109.937706,299.405656 109.814215,298.625966 109.937706,297.846275 110.296091,297.142905 110.854288,296.584708 111.557657,296.226324"/>
<polygon style="fill: #0000ff; stroke: #000000; stroke-width: 1.000000; stroke-linejoin: miter; stroke-linecap: butt;  opacity: 0.445474" clip-path="url(#4685744057707115011)" points = "166.904192,274.210964 167.683883,274.334455 168.387252,274.692840 168.945449,275.251037 169.303833,275.954406 169.427324,276.734097 169.303833,277.513788 168.945449,278.217157 168.387252,278.775354 167.683883,279.133739 166.904192,279.257229 166.124501,279.133739 165.421132,278.775354 164.862935,278.217157 164.504550,277.513788 164.381059,276.734097 164.504550,275.954406 164.862935,275.251037 165.421132,274.692840 166.124501,274.334455"/>
<polygon style="fill: #0000ff; stroke: #000000; stroke-width: 1.000000; stroke-linejoin: miter; stroke-linecap: butt;  opacity: 0.395275" clip-path="url(#4685744057707115011)" points = "192.965988,258.668346 193.745679,258.791837 194.449048,259.150221 195.007245,259.708418 195.365629,260.411787 195.489120,261.191478 195.365629,261.971169 195.007245,262.674538 194.449048,263.232735 193.745679,263.591120 192.965988,263.714611 192.186297,263.591120 191.482928,263.232735 190.924731,262.674538 190.566346,261.971169 190.442855,261.191478 190.566346,260.411787 190.924731,259.708418 191.482928,259.150221 192.186297,258.791837"/>
<polygon style="fill: #0000ff; stroke: #000000; stroke-width: 1.000000; stroke-linejoin: miter; stroke-linecap: butt;  opacity: 0.498972" clip-path="url(#4685744057707115011)" points = "140.120202,288.201555 140.899893,288.325046 141.603262,288.683431 142.161459,289.241628 142.519843,289.944997 142.643334,290.724688 142.519843,291.504379 142.161459,292.207748 141.603262,292.765945 140.899893,293.124329 140.120202,293.247820 139.340511,293.124329 138.637142,292.765945 138.078945,292.207748 137.720560,291.504379 137.597069,290.724688 137.720560,289.944997 138.078945,289.241628 138.637142,288.683431 139.340511,288.325046"/>
<polygon style="fill: #0000ff; stroke: #000000; stroke-width: 1.000000; stroke-linejoin: miter; stroke-linecap: butt;  opacity: 0.346937" clip-path="url(#4685744057707115011)" points = "218.392197,242.842542 219.171888,242.966033 219.875257,243.324418 220.433454,243.882615 220.791839,244.585984 220.915330,245.365675 220.791839,246.145366 220.433454,246.848735 219.875257,247.406932 219.171888,247.765317 218.392197,247.888808 217.612506,247.765317 216.909137,247.406932 216.350940,246.848735 215.992556,246.145366 215.869065,245.365675 215.992556,244.585984 216.350940,243.882615 216.909137,243.324418 217.612506,242.966033"/>
<polygon style="fill: #0000ff; stroke: #000000; stroke-width: 1.000000; stroke-linejoin: miter; stroke-linecap: butt;  opacity: 0.753926" clip-path="url(#4685744057707115011)" points = "132.769590,234.198311 133.549281,234.321801 134.252650,234.680186 134.810847,235.238383 135.169232,235.941752 135.292723,236.721443 135.169232,237.501134 134.810847,238.204503 134.252650,238.762700 133.549281,239.121085 132.769590,239.244576 131.989899,239.121085 131.286530,238.762700 130.728333,238.204503 130.369949,237.501134 130.246458,236.721443 130.369949,235.941752 130.728333,235.238383 131.286530,234.680186 131.989899,234.321801"/>
<polygon style="fill: #0000ff; stroke: #000000; stroke-width: 1.000000; stroke-linejoin: miter; stroke-linecap: butt;  opacity: 0.300000" clip-path="url(#4685744057707115011)" points = "243.222246,227.110210 244.001937,227.233701 244.705306,227.592085 245.263503,228.150282 245.621887,228.853651 245.745378,229.633342 245.621887,230.413033 245.263503,231.116402 244.705306,231.674599 244.001937,232.032984 243.222246,232.156475 242.442555,232.032984 241.739186,231.674599 241.180989,231.116402 240.822604,230.413033 240.699113,229.633342 240.822604,228.853651 241.180989,228.150282 241.739186,227.592085 242.442555,227.233701"/>
<polygon style="fill: #0000ff; stroke: #000000; stroke-width: 1.000000; stroke-linejoin: miter; stroke-linecap: butt;  opacity: 0.619036" clip-path="url(#4685744057707115011)" points = "163.541689,288.626548 164.321380,288.750039 165.024749,289.108424 165.582946,289.666621 165.941331,290.369990 166.064822,291.149681 165.941331,291.929372 165.582946,292.632741 165.024749,293.190938 164.321380,293.549322 163.541689,293.672813 162.761998,293.549322 162.058629,293.190938 161.500432,292.632741 161.142047,291.929372 161.018557,291.149681 161.142047,290.369990 161.500432,289.666621 162.058629,289.108424 162.761998,288.750039"/>
<polygon style="fill: #0000ff; stroke: #000000; stroke-width: 1.000000; stroke-linejoin: miter; stroke-linecap: butt;  opacity: 0.542408" clip-path="url(#4685744057707115011)" points = "191.267640,292.928412 192.047331,293.051903 192.750700,293.410288 193.308897,293.968485 193.667282,294.671854 193.790773,295.451545 193.667282,296.231236 193.308897,296.934605 192.750700,297.492802 192.047331,297.851186 191.267640,297.974677 190.487949,297.851186 189.784580,297.492802 189.226383,296.934605 188.867999,296.231236 188.744508,295.451545 188.867999,294.671854 189.226383,293.968485 189.784580,293.410288 190.487949,293.051903"/>
<polygon style="fill: #0000ff; stroke: #000000; stroke-width: 1.000000; stroke-linejoin: miter; stroke-linecap: butt;  opacity: 0.429935" clip-path="url(#4685744057707115011)" points = "243.455578,269.384681 244.235269,269.508172 244.938638,269.866556 245.496835,270.424753 245.855220,271.128123 245.978711,271.907814 245.855220,272.687504 245.496835,273.390874 244.938638,273.949071 244.235269,274.307455 243.455578,274.430946 242.675887,274.307455 241.972518,273.949071 241.414321,273.390874 241.055937,272.687504 240.932446,271.907814 241.055937,271.128123 241.414321,270.424753 241.972518,269.866556 242.675887,269.508172"/>
<polygon style="fill: #0000ff; stroke: #000000; stroke-width: 1.000000; stroke-linejoin: miter; stroke-linecap: butt;  opacity: 0.482947" clip-path="url(#4685744057707115011)" points = "217.757799,283.339995 218.537490,283.463486 219.240859,283.821870 219.799056,284.380067 220.157440,285.083437 220.280931,285.863127 220.157440,286.642818 219.799056,287.346187 219.240859,287.904385 218.537490,288.262769 217.757799,288.386260 216.978108,288.262769 216.274739,287.904385 215.716542,287.346187 215.358157,286.642818 215.234666,285.863127 215.358157,285.083437 215.716542,284.380067 216.274739,283.821870 216.978108,283.463486"/>
<polygon style="fill: #0000ff; stroke: #000000; stroke-width: 1.000000; stroke-linejoin: miter; stroke-linecap: butt;  opacity: 0.380186" clip-path="url(#4685744057707115011)" points = "268.497921,253.882478 269.277612,254.005969 269.980981,254.364353 270.539178,254.922550 270.897562,255.625919 271.021053,256.405610 270.897562,257.185301 270.539178,257.888670 269.980981,258.446867 269.277612,258.805252 268.497921,258.928743 267.718230,258.805252 267.014861,258.446867 266.456664,257.888670 266.098279,257.185301 265.974788,256.405610 266.098279,255.625919 266.456664,254.922550 267.014861,254.364353 267.718230,254.005969"/>
<polygon style="fill: #0000ff; stroke: #000000; stroke-width: 1.000000; stroke-linejoin: miter; stroke-linecap: butt;  opacity: 0.830730" clip-path="url(#4685744057707115011)" points = "186.298927,213.772592 187.078618,213.896083 187.781987,214.254468 188.340184,214.812665 188.698569,215.516034 188.822060,216.295725 188.698569,217.075415 188.340184,217.778785 187.781987,218.336982 187.078618,218.695366 186.298927,218.818857 185.519236,218.695366 184.815867,218.336982 184.257670,217.778785 183.899286,217.075415 183.775795,216.295725 183.899286,215.516034 184.257670,214.812665 184.815867,214.254468 185.519236,213.896083"/>
<polygon style="fill: #0000ff; stroke: #000000; stroke-width: 1.000000; stroke-linejoin: miter; stroke-linecap: butt;  opacity: 0.332311" clip-path="url(#4685744057707115011)" points = "292.944292,238.061587 293.723983,238.185078 294.427353,238.543463 294.985550,239.101660 295.343934,239.805029 295.467425,240.584720 295.343934,241.364411 294.985550,242.067780 294.427353,242.625977 293.723983,242.984361 292.944292,243.107852 292.164602,242.984361 291.461232,242.625977 290.903035,242.067780 290.544651,241.364411 290.421160,240.584720 290.544651,239.805029 290.903035,239.101660 291.461232,238.543463 292.164602,238.185078"/>
<polygon style="fill: #0000ff; stroke: #000000; stroke-width: 1.000000; stroke-linejoin: miter; stroke-linecap: butt;  opacity: 0.676902" clip-path="url(#4685744057707115011)" points = "216.198419,282.713590 216.978110,282.837081 217.681479,283.195466 218.239676,283.753663 218.598060,284.457032 218.721551,285.236723 218.598060,286.016414 218.239676,286.719783 217.681479,287.277980 216.978110,287.636364 216.198419,287.759855 215.418728,287.636364 214.715359,287.277980 214.157162,286.719783 213.798777,286.016414 213.675286,285.236723 213.798777,284.457032 214.157162,283.753663 214.715359,283.195466 215.418728,282.837081"/>
<polygon style="fill: #0000ff; stroke: #000000; stroke-width: 1.000000; stroke-linejoin: miter; stroke-linecap: butt;  opacity: 0.588821" clip-path="url(#4685744057707115011)" points = "243.457939,295.847454 244.237630,295.970945 244.940999,296.329330 245.499196,296.887527 245.857581,297.590896 245.981072,298.370587 245.857581,299.150277 245.499196,299.853647 244.940999,300.411844 244.237630,300.770228 243.457939,300.893719 242.678248,300.770228 241.974879,300.411844 241.416682,299.853647 241.058298,299.150277 240.934807,298.370587 241.058298,297.590896 241.416682,296.887527 241.974879,296.329330 242.678248,295.970945"/>
<polygon style="fill: #0000ff; stroke: #000000; stroke-width: 1.000000; stroke-linejoin: miter; stroke-linecap: butt;  opacity: 0.522320" clip-path="url(#4685744057707115011)" points = "269.530578,291.494884 270.310269,291.618375 271.013638,291.976760 271.571835,292.534957 271.930219,293.238326 272.053710,294.018017 271.930219,294.797708 271.571835,295.501077 271.013638,296.059274 270.310269,296.417659 269.530578,296.541150 268.750887,296.417659 268.047518,296.059274 267.489321,295.501077 267.130936,294.797708 267.007445,294.018017 267.130936,293.238326 267.489321,292.534957 268.047518,291.976760 268.750887,291.618375"/>
<polygon style="fill: #0000ff; stroke: #000000; stroke-width: 1.000000; stroke-linejoin: miter; stroke-linecap: butt;  opacity: 0.895589" clip-path="url(#4685744057707115011)" points = "241.876340,205.507058 242.656031,205.630549 243.359400,205.988933 243.917597,206.547130 244.275982,207.250500 244.399473,208.030190 244.275982,208.809881 243.917597,209.513250 243.359400,210.071447 242.656031,210.429832 241.876340,210.553323 241.096649,210.429832 240.393280,210.071447 239.835083,209.513250 239.476699,208.809881 239.353208,208.030190 239.476699,207.250500 239.835083,206.547130 240.393280,205.988933 241.096649,205.630549"/>
<polygon style="fill: #0000ff; stroke: #000000; stroke-width: 1.000000; stroke-linejoin: miter; stroke-linecap: butt;  opacity: 0.414154" clip-path="url(#4685744057707115011)" points = "319.433807,264.941194 320.213498,265.064685 320.916868,265.423070 321.475065,265.981267 321.833449,266.684636 321.956940,267.464327 321.833449,268.244018 321.475065,268.947387 320.916868,269.505584 320.213498,269.863969 319.433807,269.987459 318.654117,269.863969 317.950747,269.505584 317.392550,268.947387 317.034166,268.244018 316.910675,267.464327 317.034166,266.684636 317.392550,265.981267 317.950747,265.423070 318.654117,265.064685"/>
<polygon style="fill: #0000ff; stroke: #000000; stroke-width: 1.000000; stroke-linejoin: miter; stroke-linecap: butt;  opacity: 0.465864" clip-path="url(#4685744057707115011)" points = "294.805974,279.638282 295.585664,279.761773 296.289034,280.120158 296.847231,280.678355 297.205615,281.381724 297.329106,282.161415 297.205615,282.941106 296.847231,283.644475 296.289034,284.202672 295.585664,284.561057 294.805974,284.684547 294.026283,284.561057 293.322913,284.202672 292.764716,283.644475 292.406332,282.941106 292.282841,282.161415 292.406332,281.381724 292.764716,280.678355 293.322913,280.120158 294.026283,279.761773"/>
<polygon style="fill: #0000ff; stroke: #000000; stroke-width: 1.000000; stroke-linejoin: miter; stroke-linecap: butt;  opacity: 0.365160" clip-path="url(#4685744057707115011)" points = "343.475377,249.178616 344.255068,249.302106 344.958437,249.660491 345.516634,250.218688 345.875019,250.922057 345.998510,251.701748 345.875019,252.481439 345.516634,253.184808 344.958437,253.743005 344.255068,254.101390 343.475377,254.224881 342.695686,254.101390 341.992317,253.743005 341.434120,253.184808 341.075736,252.481439 340.952245,251.701748 341.075736,250.922057 341.434120,250.218688 341.992317,249.660491 342.695686,249.302106"/>
<polygon style="fill: #0000ff; stroke: #000000; stroke-width: 1.000000; stroke-linejoin: miter; stroke-linecap: butt;  opacity: 0.732647" clip-path="url(#4685744057707115011)" points = "270.304961,279.945113 271.084651,280.068604 271.788021,280.426989 272.346218,280.985186 272.704602,281.688555 272.828093,282.468246 272.704602,283.247937 272.346218,283.951306 271.788021,284.509503 271.084651,284.867887 270.304961,284.991378 269.525270,284.867887 268.821901,284.509503 268.263704,283.951306 267.905319,283.247937 267.781828,282.468246 267.905319,281.688555 268.263704,280.985186 268.821901,280.426989 269.525270,280.068604"/>
<polygon style="fill: #0000ff; stroke: #000000; stroke-width: 1.000000; stroke-linejoin: miter; stroke-linecap: butt;  opacity: 0.636490" clip-path="url(#4685744057707115011)" points = "296.801599,298.620166 297.581290,298.743657 298.284659,299.102041 298.842856,299.660238 299.201241,300.363608 299.324732,301.143298 299.201241,301.922989 298.842856,302.626359 298.284659,303.184556 297.581290,303.542940 296.801599,303.666431 296.021908,303.542940 295.318539,303.184556 294.760342,302.626359 294.401957,301.922989 294.278467,301.143298 294.401957,300.363608 294.760342,299.660238 295.318539,299.102041 296.021908,298.743657"/>
<polygon style="fill: #0000ff; stroke: #000000; stroke-width: 1.000000; stroke-linejoin: miter; stroke-linecap: butt;  opacity: 0.563856" clip-path="url(#4685744057707115011)" points = "322.294971,298.493036 323.074662,298.616527 323.778031,298.974911 324.336228,299.533108 324.694612,300.236478 324.818103,301.016168 324.694612,301.795859 324.336228,302.499229 323.778031,303.057426 323.074662,303.415810 322.294971,303.539301 321.515280,303.415810 320.811911,303.057426 320.253714,302.499229 319.895329,301.795859 319.771838,301.016168 319.895329,300.236478 320.253714,299.533108 320.811911,298.974911 321.515280,298.616527"/>
<polygon style="fill: #0000ff; stroke: #000000; stroke-width: 1.000000; stroke-linejoin: miter; stroke-linecap: butt;  opacity: 0.949941" clip-path="url(#4685744057707115011)" points = "299.057706,207.766058 299.837397,207.889549 300.540766,208.247933 301.098963,208.806130 301.457348,209.509500 301.580839,210.289190 301.457348,211.068881 301.098963,211.772251 300.540766,212.330448 299.837397,212.688832 299.057706,212.812323 298.278015,212.688832 297.574646,212.330448 297.016449,211.772251 296.658064,211.068881 296.534574,210.289190 296.658064,209.509500 297.016449,208.806130 297.574646,208.247933 298.278015,207.889549"/>
<polygon style="fill: #0000ff; stroke: #000000; stroke-width: 1.000000; stroke-linejoin: miter; stroke-linecap: butt;  opacity: 0.503457" clip-path="url(#4685744057707115011)" points = "347.069258,289.098727 347.848949,289.222217 348.552318,289.580602 349.110515,290.138799 349.468899,290.842168 349.592390,291.621859 349.468899,292.401550 349.110515,293.104919 348.552318,293.663116 347.848949,294.021501 347.069258,294.144992 346.289567,294.021501 345.586198,293.663116 345.028001,293.104919 344.669616,292.401550 344.546125,291.621859 344.669616,290.842168 345.028001,290.138799 345.586198,289.580602 346.289567,289.222217"/>
<polygon style="fill: #0000ff; stroke: #000000; stroke-width: 1.000000; stroke-linejoin: miter; stroke-linecap: butt;  opacity: 0.449136" clip-path="url(#4685744057707115011)" points = "371.232010,275.760575 372.011701,275.884066 372.715070,276.242450 373.273267,276.800647 373.631651,277.504017 373.755142,278.283707 373.631651,279.063398 373.273267,279.766767 372.715070,280.324964 372.011701,280.683349 371.232010,280.806840 370.452319,280.683349 369.748950,280.324964 369.190753,279.766767 368.832368,279.063398 368.708877,278.283707 368.832368,277.504017 369.190753,276.800647 369.748950,276.242450 370.452319,275.884066"/>
<polygon style="fill: #0000ff; stroke: #000000; stroke-width: 1.000000; stroke-linejoin: miter; stroke-linecap: butt;  opacity: 0.398633" clip-path="url(#4685744057707115011)" points = "394.837606,260.396308 395.617297,260.519799 396.320667,260.878184 396.878864,261.436381 397.237248,262.139750 397.360739,262.919441 397.237248,263.699132 396.878864,264.402501 396.320667,264.960698 395.617297,265.319082 394.837606,265.442573 394.057916,265.319082 393.354546,264.960698 392.796349,264.402501 392.437965,263.699132 392.314474,262.919441 392.437965,262.139750 392.796349,261.436381 393.354546,260.878184 394.057916,260.519799"/>
<polygon style="fill: #0000ff; stroke: #000000; stroke-width: 1.000000; stroke-linejoin: miter; stroke-linecap: butt;  opacity: 0.781994" clip-path="url(#4685744057707115011)" points = "325.753683,284.034304 326.533373,284.157795 327.236743,284.516179 327.794940,285.074376 328.153324,285.777745 328.276815,286.557436 328.153324,287.337127 327.794940,288.040496 327.236743,288.598693 326.533373,288.957078 325.753683,289.080569 324.973992,288.957078 324.270623,288.598693 323.712426,288.040496 323.354041,287.337127 323.230550,286.557436 323.354041,285.777745 323.712426,285.074376 324.270623,284.516179 324.973992,284.157795"/>
<polygon style="fill: #0000ff; stroke: #000000; stroke-width: 1.000000; stroke-linejoin: miter; stroke-linecap: butt;  opacity: 0.681730" clip-path="url(#4685744057707115011)" points = "351.298805,304.605261 352.078495,304.728752 352.781865,305.087137 353.340062,305.645334 353.698446,306.348703 353.821937,307.128394 353.698446,307.908085 353.340062,308.611454 352.781865,309.169651 352.078495,309.528036 351.298805,309.651526 350.519114,309.528036 349.815744,309.169651 349.257547,308.611454 348.899163,307.908085 348.775672,307.128394 348.899163,306.348703 349.257547,305.645334 349.815744,305.087137 350.519114,304.728752"/>
<polygon style="fill: #0000ff; stroke: #000000; stroke-width: 1.000000; stroke-linejoin: miter; stroke-linecap: butt;  opacity: 0.605108" clip-path="url(#4685744057707115011)" points = "376.085984,306.645461 376.865675,306.768952 377.569044,307.127336 378.127241,307.685533 378.485626,308.388902 378.609117,309.168593 378.485626,309.948284 378.127241,310.651653 377.569044,311.209850 376.865675,311.568235 376.085984,311.691726 375.306293,311.568235 374.602924,311.209850 374.044727,310.651653 373.686342,309.948284 373.562851,309.168593 373.686342,308.388902 374.044727,307.685533 374.602924,307.127336 375.306293,306.768952"/>
<polygon style="fill: #0000ff; stroke: #000000; stroke-width: 1.000000; stroke-linejoin: miter; stroke-linecap: butt;  opacity: 1.000000" clip-path="url(#4685744057707115011)" points = "357.533044,214.879228 358.312735,215.002719 359.016104,215.361104 359.574301,215.919301 359.932686,216.622670 360.056177,217.402361 359.932686,218.182052 359.574301,218.885421 359.016104,219.443618 358.312735,219.802002 357.533044,219.925493 356.753353,219.802002 356.049984,219.443618 355.491787,218.885421 355.133403,218.182052 355.009912,217.402361 355.133403,216.622670 355.491787,215.919301 356.049984,215.361104 356.753353,215.002719"/>
<polygon style="fill: #0000ff; stroke: #000000; stroke-width: 1.000000; stroke-linejoin: miter; stroke-linecap: butt;  opacity: 0.541418" clip-path="url(#4685744057707115011)" points = "400.275557,299.024497 401.055248,299.147988 401.758617,299.506372 402.316814,300.064569 402.675199,300.767939 402.798690,301.547630 402.675199,302.327320 402.316814,303.030690 401.758617,303.588887 401.055248,303.947271 400.275557,304.070762 399.495866,303.947271 398.792497,303.588887 398.234300,303.030690 397.875916,302.327320 397.752425,301.547630 397.875916,300.767939 398.234300,300.064569 398.792497,299.506372 399.495866,299.147988"/>
<polygon style="fill: #0000ff; stroke: #000000; stroke-width: 1.000000; stroke-linejoin: miter; stroke-linecap: butt;  opacity: 0.484694" clip-path="url(#4685744057707115011)" points = "423.916907,286.787637 424.696598,286.911127 425.399967,287.269512 425.958164,287.827709 426.316549,288.531078 426.440040,289.310769 426.316549,290.090460 425.958164,290.793829 425.399967,291.352026 424.696598,291.710411 423.916907,291.833902 423.137216,291.710411 422.433847,291.352026 421.875650,290.793829 421.517265,290.090460 421.393775,289.310769 421.517265,288.531078 421.875650,287.827709 422.433847,287.269512 423.137216,286.911127"/>
<polygon style="fill: #0000ff; stroke: #000000; stroke-width: 1.000000; stroke-linejoin: miter; stroke-linecap: butt;  opacity: 0.432716" clip-path="url(#4685744057707115011)" points = "447.053759,271.746316 447.833449,271.869806 448.536819,272.228191 449.095016,272.786388 449.453400,273.489757 449.576891,274.269448 449.453400,275.049139 449.095016,275.752508 448.536819,276.310705 447.833449,276.669090 447.053759,276.792581 446.274068,276.669090 445.570699,276.310705 445.012502,275.752508 444.654117,275.049139 444.530626,274.269448 444.654117,273.489757 445.012502,272.786388 445.570699,272.228191 446.274068,271.869806"/>
<polygon style="fill: #0000ff; stroke: #000000; stroke-width: 1.000000; stroke-linejoin: miter; stroke-linecap: butt;  opacity: 0.828200" clip-path="url(#4685744057707115011)" points = "382.368370,291.930064 383.148061,292.053555 383.851430,292.411939 384.409627,292.970136 384.768011,293.673505 384.891502,294.453196 384.768011,295.232887 384.409627,295.936256 383.851430,296.494453 383.148061,296.852838 382.368370,296.976329 381.588679,296.852838 380.885310,296.494453 380.327113,295.936256 379.968728,295.232887 379.845237,294.453196 379.968728,293.673505 380.327113,292.970136 380.885310,292.411939 381.588679,292.053555"/>
<polygon style="fill: #0000ff; stroke: #000000; stroke-width: 1.000000; stroke-linejoin: miter; stroke-linecap: butt;  opacity: 0.725224" clip-path="url(#4685744057707115011)" points = "406.876161,313.116112 407.655852,313.239603 408.359221,313.597988 408.917418,314.156185 409.275803,314.859554 409.399294,315.639245 409.275803,316.418936 408.917418,317.122305 408.359221,317.680502 407.655852,318.038886 406.876161,318.162377 406.096470,318.038886 405.393101,317.680502 404.834904,317.122305 404.476519,316.418936 404.353029,315.639245 404.476519,314.859554 404.834904,314.156185 405.393101,313.597988 406.096470,313.239603"/>
<polygon style="fill: #0000ff; stroke: #000000; stroke-width: 1.000000; stroke-linejoin: miter; stroke-linecap: butt;  opacity: 0.645907" clip-path="url(#4685744057707115011)" points = "430.887804,316.094640 431.667495,316.218131 432.370864,316.576515 432.929061,317.134712 433.287445,317.838081 433.410936,318.617772 433.287445,319.397463 432.929061,320.100832 432.370864,320.659029 431.667495,321.017414 430.887804,321.140905 430.108113,321.017414 429.404744,320.659029 428.846547,320.100832 428.488162,319.397463 428.364671,318.617772 428.488162,317.838081 428.846547,317.134712 429.404744,316.576515 430.108113,316.218131"/>
<polygon style="fill: #0000ff; stroke: #000000; stroke-width: 1.000000; stroke-linejoin: miter; stroke-linecap: butt;  opacity: 0.579651" clip-path="url(#4685744057707115011)" points = "454.435025,309.516861 455.214716,309.640352 455.918085,309.998736 456.476282,310.556933 456.834666,311.260303 456.958157,312.039993 456.834666,312.819684 456.476282,313.523054 455.918085,314.081251 455.214716,314.439635 454.435025,314.563126 453.655334,314.439635 452.951965,314.081251 452.393768,313.523054 452.035383,312.819684 451.911892,312.039993 452.035383,311.260303 452.393768,310.556933 452.951965,309.998736 453.655334,309.640352"/>
<polygon style="fill: #0000ff; stroke: #000000; stroke-width: 1.000000; stroke-linejoin: miter; stroke-linecap: butt;  opacity: 0.520824" clip-path="url(#4685744057707115011)" points = "477.509833,298.043607 478.289523,298.167098 478.992893,298.525482 479.551090,299.083679 479.909474,299.787049 480.032965,300.566740 479.909474,301.346430 479.551090,302.049800 478.992893,302.607997 478.289523,302.966381 477.509833,303.089872 476.730142,302.966381 476.026772,302.607997 475.468575,302.049800 475.110191,301.346430 474.986700,300.566740 475.110191,299.787049 475.468575,299.083679 476.026772,298.525482 476.730142,298.167098"/>
<polygon style="fill: #0000ff; stroke: #000000; stroke-width: 1.000000; stroke-linejoin: miter; stroke-linecap: butt;  opacity: 0.467290" clip-path="url(#4685744057707115011)" points = "500.140714,283.362740 500.920405,283.486231 501.623774,283.844615 502.181971,284.402812 502.540356,285.106182 502.663847,285.885872 502.540356,286.665563 502.181971,287.368933 501.623774,287.927130 500.920405,288.285514 500.140714,288.409005 499.361023,288.285514 498.657654,287.927130 498.099457,287.368933 497.741073,286.665563 497.617582,285.885872 497.741073,285.106182 498.099457,284.402812 498.657654,283.844615 499.361023,283.486231"/>
</g>
<g id="matplotlib.axis1">
</g>
<g id="matplotlib.axis2">
</g>
</g>
</g>
</svg>
