<?xml version="1.0" standalone="no"?>
<!DOCTYPE svg PUBLIC "-//W3C//DTD SVG 1.1//EN"
  "http://www.w3.org/Graphics/SVG/1.1/DTD/svg11.dtd">
<!-- Created with matplotlib (http://matplotlib.sourceforge.net/) -->
<svg width="576" height="432" viewBox="0 0 576 432"
   xmlns="http://www.w3.org/2000/svg"
   xmlns:xlink="http://www.w3.org/1999/xlink"
   version="1.1"
   id="svg1">
<g id="figure1">
<polygon style="fill: #ffffff; stroke: #ffffff; stroke-width: 1.000000; stroke-linejoin: miter; stroke-linecap: square;  opacity: 1.000000"  points = "0.000000,432.000000 0.000000,0.000000 576.000000,0.000000 576.000000,432.000000"/>
<polygon style="fill: #ffffff; opacity: 1.000000"  points = "0.000000,432.000000 0.000000,0.000000 576.000000,0.000000 576.000000,432.000000"/>
<g id="axis3d1">
<polygon style="fill: #f2f2f2; stroke: #f2f2f2; stroke-width: 1.000000; stroke-linejoin: miter; stroke-linecap: square;  opacity: 0.100000"  points = "241.211914,230.626613 508.260241,289.840834 519.433224,81.348607 238.467267,28.237352"/>
<path style="fill: none; stroke: #000000; stroke-width: 0.750000; stroke-linejoin: miter; stroke-linecap: square;  opacity: 1.000000"  d="M 76.357701,336.543225 L 357.328625,405.507833 "/>
<text style="font-size: 12.000000; font-family: Bitstream Vera Sans; font-style: Roman; fill: #000000;" x="127.936123" y="379.403446" transform="translate(127.936123,379.403446) rotate(-341.9) translate(-127.936123,-379.403446)">max_call_mismatch_rate</text>
<g id="linecollection1">
<path style="fill: none; stroke: #e6e6e6; stroke-width: 1.000000; stroke-linejoin: miter; stroke-linecap: butt;  opacity: 1.000000"  d="M 81.730847,337.862069 L 246.335639,231.762727 L 243.846516,29.254197 "/>
<path style="fill: none; stroke: #e6e6e6; stroke-width: 1.000000; stroke-linejoin: miter; stroke-linecap: butt;  opacity: 1.000000"  d="M 133.806316,350.644048 L 295.959675,242.766161 L 295.968604,39.106883 "/>
<path style="fill: none; stroke: #e6e6e6; stroke-width: 1.000000; stroke-linejoin: miter; stroke-linecap: butt;  opacity: 1.000000"  d="M 186.791666,363.649357 L 346.387419,253.947806 L 348.978075,49.127313 "/>
<path style="fill: none; stroke: #e6e6e6; stroke-width: 1.000000; stroke-linejoin: miter; stroke-linecap: butt;  opacity: 1.000000"  d="M 240.710954,376.883903 L 397.638557,265.312027 L 402.897787,59.319806 "/>
<path style="fill: none; stroke: #e6e6e6; stroke-width: 1.000000; stroke-linejoin: miter; stroke-linecap: butt;  opacity: 1.000000"  d="M 295.589092,390.353800 L 449.733420,276.863332 L 457.751387,69.688832 "/>
<path style="fill: none; stroke: #e6e6e6; stroke-width: 1.000000; stroke-linejoin: miter; stroke-linecap: butt;  opacity: 1.000000"  d="M 351.451887,404.065382 L 502.693018,288.606380 L 513.563349,80.239019 "/>
</g>
<g id="xtick1">
<text style="font-size: 12.000000; font-family: Bitstream Vera Sans; font-style: Roman; fill: #000000;" x="68.730847" y="342.362069" >0.05</text>
<path style="fill: none; stroke: #000000; stroke-width: 1.000000; stroke-linejoin: miter; stroke-linecap: square;  opacity: 1.000000"  d="M 81.730847,337.862069 L 79.242567,345.465257 "/>
</g>
<g id="xtick2">
<text style="font-size: 12.000000; font-family: Bitstream Vera Sans; font-style: Roman; fill: #000000;" x="120.806316" y="355.144048" >0.10</text>
<path style="fill: none; stroke: #000000; stroke-width: 1.000000; stroke-linejoin: miter; stroke-linecap: square;  opacity: 1.000000"  d="M 133.806316,350.644048 L 131.318036,358.247235 "/>
</g>
<g id="xtick3">
<text style="font-size: 12.000000; font-family: Bitstream Vera Sans; font-style: Roman; fill: #000000;" x="173.791666" y="368.149357" >0.15</text>
<path style="fill: none; stroke: #000000; stroke-width: 1.000000; stroke-linejoin: miter; stroke-linecap: square;  opacity: 1.000000"  d="M 186.791666,363.649357 L 184.303386,371.252545 "/>
</g>
<g id="xtick4">
<text style="font-size: 12.000000; font-family: Bitstream Vera Sans; font-style: Roman; fill: #000000;" x="227.710954" y="381.383903" >0.20</text>
<path style="fill: none; stroke: #000000; stroke-width: 1.000000; stroke-linejoin: miter; stroke-linecap: square;  opacity: 1.000000"  d="M 240.710954,376.883903 L 238.222674,384.487091 "/>
</g>
<g id="xtick5">
<text style="font-size: 12.000000; font-family: Bitstream Vera Sans; font-style: Roman; fill: #000000;" x="282.589092" y="394.853800" >0.25</text>
<path style="fill: none; stroke: #000000; stroke-width: 1.000000; stroke-linejoin: miter; stroke-linecap: square;  opacity: 1.000000"  d="M 295.589092,390.353800 L 293.100812,397.956987 "/>
</g>
<g id="xtick6">
<text style="font-size: 12.000000; font-family: Bitstream Vera Sans; font-style: Roman; fill: #000000;" x="338.451887" y="408.565382" >0.30</text>
<path style="fill: none; stroke: #000000; stroke-width: 1.000000; stroke-linejoin: miter; stroke-linecap: square;  opacity: 1.000000"  d="M 351.451887,404.065382 L 348.963607,411.668569 "/>
</g>
</g>
<g id="axis3d2">
<polygon style="fill: #e6e6e6; stroke: #e6e6e6; stroke-width: 1.000000; stroke-linejoin: miter; stroke-linecap: square;  opacity: 0.500000"  points = "76.357701,336.543225 241.211914,230.626613 238.467267,28.237352 64.421350,123.401250"/>
<path style="fill: none; stroke: #000000; stroke-width: 0.750000; stroke-linejoin: miter; stroke-linecap: square;  opacity: 1.000000"  d="M 357.328625,405.507833 L 508.260241,289.840834 "/>
<text style="font-size: 12.000000; font-family: Bitstream Vera Sans; font-style: Roman; fill: #000000;" x="425.958426" y="409.045229" transform="translate(425.958426,409.045229) rotate(-45.6) translate(-425.958426,-409.045229)">max_call_NA_rate</text>
<g id="linecollection2">
<path style="fill: none; stroke: #e6e6e6; stroke-width: 1.000000; stroke-linejoin: miter; stroke-linecap: butt;  opacity: 1.000000"  d="M 360.586508,403.011142 L 79.904448,334.264487 L 68.180167,121.346024 "/>
<path style="fill: none; stroke: #e6e6e6; stroke-width: 1.000000; stroke-linejoin: miter; stroke-linecap: butt;  opacity: 1.000000"  d="M 379.914611,388.198980 L 100.956846,320.738605 L 90.478343,109.153946 "/>
<path style="fill: none; stroke: #e6e6e6; stroke-width: 1.000000; stroke-linejoin: miter; stroke-linecap: butt;  opacity: 1.000000"  d="M 398.874695,373.668849 L 121.625951,307.458984 L 112.348919,97.195669 "/>
<path style="fill: none; stroke: #e6e6e6; stroke-width: 1.000000; stroke-linejoin: miter; stroke-linecap: butt;  opacity: 1.000000"  d="M 417.477173,359.412772 L 141.922136,294.418958 L 133.804078,85.464532 "/>
<path style="fill: none; stroke: #e6e6e6; stroke-width: 1.000000; stroke-linejoin: miter; stroke-linecap: butt;  opacity: 1.000000"  d="M 435.732067,345.423067 L 161.855403,281.612103 L 154.855544,73.954124 "/>
<path style="fill: none; stroke: #e6e6e6; stroke-width: 1.000000; stroke-linejoin: miter; stroke-linecap: butt;  opacity: 1.000000"  d="M 453.649029,331.692337 L 181.435400,269.032219 L 175.514605,62.658273 "/>
<path style="fill: none; stroke: #e6e6e6; stroke-width: 1.000000; stroke-linejoin: miter; stroke-linecap: butt;  opacity: 1.000000"  d="M 471.237356,318.213458 L 200.671436,256.673325 L 195.792131,51.571035 "/>
<path style="fill: none; stroke: #e6e6e6; stroke-width: 1.000000; stroke-linejoin: miter; stroke-linecap: butt;  opacity: 1.000000"  d="M 488.506009,304.979563 L 219.572495,244.529648 L 215.698595,40.686685 "/>
<path style="fill: none; stroke: #e6e6e6; stroke-width: 1.000000; stroke-linejoin: miter; stroke-linecap: butt;  opacity: 1.000000"  d="M 505.463623,291.984033 L 238.147253,232.595617 L 235.244090,29.999704 "/>
</g>
<g id="xtick7">
<text style="font-size: 12.000000; font-family: Bitstream Vera Sans; font-style: Roman; fill: #000000;" x="352.086508" y="407.511142" >0.1</text>
<path style="fill: none; stroke: #000000; stroke-width: 1.000000; stroke-linejoin: miter; stroke-linecap: square;  opacity: 1.000000"  d="M 360.586508,403.011142 L 366.304039,408.606662 "/>
</g>
<g id="xtick8">
<text style="font-size: 12.000000; font-family: Bitstream Vera Sans; font-style: Roman; fill: #000000;" x="370.891174" y="392.698980" >0.2</text>
<path style="fill: none; stroke: #000000; stroke-width: 1.000000; stroke-linejoin: miter; stroke-linecap: square;  opacity: 1.000000"  d="M 379.914611,388.198980 L 385.632141,393.794500 "/>
</g>
<g id="xtick9">
<text style="font-size: 12.000000; font-family: Bitstream Vera Sans; font-style: Roman; fill: #000000;" x="389.874695" y="378.168849" >0.3</text>
<path style="fill: none; stroke: #000000; stroke-width: 1.000000; stroke-linejoin: miter; stroke-linecap: square;  opacity: 1.000000"  d="M 398.874695,373.668849 L 404.592225,379.264370 "/>
</g>
<g id="xtick10">
<text style="font-size: 12.000000; font-family: Bitstream Vera Sans; font-style: Roman; fill: #000000;" x="408.477173" y="363.912772" >0.4</text>
<path style="fill: none; stroke: #000000; stroke-width: 1.000000; stroke-linejoin: miter; stroke-linecap: square;  opacity: 1.000000"  d="M 417.477173,359.412772 L 423.194703,365.008292 "/>
</g>
<g id="xtick11">
<text style="font-size: 12.000000; font-family: Bitstream Vera Sans; font-style: Roman; fill: #000000;" x="426.732067" y="349.923067" >0.5</text>
<path style="fill: none; stroke: #000000; stroke-width: 1.000000; stroke-linejoin: miter; stroke-linecap: square;  opacity: 1.000000"  d="M 435.732067,345.423067 L 441.449597,351.018587 "/>
</g>
<g id="xtick12">
<text style="font-size: 12.000000; font-family: Bitstream Vera Sans; font-style: Roman; fill: #000000;" x="444.649029" y="336.192337" >0.6</text>
<path style="fill: none; stroke: #000000; stroke-width: 1.000000; stroke-linejoin: miter; stroke-linecap: square;  opacity: 1.000000"  d="M 453.649029,331.692337 L 459.366559,337.287858 "/>
</g>
<g id="xtick13">
<text style="font-size: 12.000000; font-family: Bitstream Vera Sans; font-style: Roman; fill: #000000;" x="462.237356" y="322.713458" >0.7</text>
<path style="fill: none; stroke: #000000; stroke-width: 1.000000; stroke-linejoin: miter; stroke-linecap: square;  opacity: 1.000000"  d="M 471.237356,318.213458 L 476.954887,323.808978 "/>
</g>
<g id="xtick14">
<text style="font-size: 12.000000; font-family: Bitstream Vera Sans; font-style: Roman; fill: #000000;" x="479.506009" y="309.479563" >0.8</text>
<path style="fill: none; stroke: #000000; stroke-width: 1.000000; stroke-linejoin: miter; stroke-linecap: square;  opacity: 1.000000"  d="M 488.506009,304.979563 L 494.223539,310.575083 "/>
</g>
<g id="xtick15">
<text style="font-size: 12.000000; font-family: Bitstream Vera Sans; font-style: Roman; fill: #000000;" x="496.463623" y="296.484033" >0.9</text>
<path style="fill: none; stroke: #000000; stroke-width: 1.000000; stroke-linejoin: miter; stroke-linecap: square;  opacity: 1.000000"  d="M 505.463623,291.984033 L 511.181153,297.579553 "/>
</g>
</g>
<g id="axis3d3">
<polygon style="fill: #f2f2f2; stroke: #f2f2f2; stroke-width: 1.000000; stroke-linejoin: miter; stroke-linecap: square;  opacity: 0.100000"  points = "76.357701,336.543225 357.328625,405.507833 508.260241,289.840834 241.211914,230.626613"/>
<path style="fill: none; stroke: #000000; stroke-width: 0.750000; stroke-linejoin: miter; stroke-linecap: square;  opacity: 1.000000"  d="M 76.357701,336.543225 L 64.421350,123.401250 "/>
<text style="font-size: 12.000000; font-family: Bitstream Vera Sans; font-style: Roman; fill: #000000;" x="44.496827" y="336.125069" transform="translate(44.496827,336.125069) rotate(-92.4) translate(-44.496827,-336.125069)">no_of_accessions_filtered_by_na</text>
<g id="linecollection3">
<path style="fill: none; stroke: #e6e6e6; stroke-width: 1.000000; stroke-linejoin: miter; stroke-linecap: butt;  opacity: 1.000000"  d="M 76.131056,332.496136 L 241.159600,226.768965 L 508.472750,285.875342 "/>
<path style="fill: none; stroke: #e6e6e6; stroke-width: 1.000000; stroke-linejoin: miter; stroke-linecap: butt;  opacity: 1.000000"  d="M 74.564219,304.517842 L 240.798152,200.115958 L 509.941481,258.468243 "/>
<path style="fill: none; stroke: #e6e6e6; stroke-width: 1.000000; stroke-linejoin: miter; stroke-linecap: butt;  opacity: 1.000000"  d="M 72.974868,276.137529 L 240.431889,173.107876 L 511.430638,230.679990 "/>
<path style="fill: none; stroke: #e6e6e6; stroke-width: 1.000000; stroke-linejoin: miter; stroke-linecap: butt;  opacity: 1.000000"  d="M 71.362515,247.346469 L 240.060714,145.737577 L 512.940650,202.502577 "/>
<path style="fill: none; stroke: #e6e6e6; stroke-width: 1.000000; stroke-linejoin: miter; stroke-linecap: butt;  opacity: 1.000000"  d="M 69.726656,218.135679 L 239.684528,117.997723 L 514.471958,173.927770 "/>
<path style="fill: none; stroke: #e6e6e6; stroke-width: 1.000000; stroke-linejoin: miter; stroke-linecap: butt;  opacity: 1.000000"  d="M 68.066774,188.495913 L 239.303227,89.880780 L 516.025016,144.947105 "/>
<path style="fill: none; stroke: #e6e6e6; stroke-width: 1.000000; stroke-linejoin: miter; stroke-linecap: butt;  opacity: 1.000000"  d="M 66.382335,158.417653 L 238.916708,61.379006 L 517.600290,115.551871 "/>
<path style="fill: none; stroke: #e6e6e6; stroke-width: 1.000000; stroke-linejoin: miter; stroke-linecap: butt;  opacity: 1.000000"  d="M 64.672790,127.891094 L 238.524862,32.484445 L 519.198260,85.733110 "/>
</g>
<g id="xtick16">
<text style="font-size: 12.000000; font-family: Bitstream Vera Sans; font-style: Roman; fill: #000000;" x="73.131056" y="336.996136" >0</text>
<path style="fill: none; stroke: #000000; stroke-width: 1.000000; stroke-linejoin: miter; stroke-linecap: square;  opacity: 1.000000"  d="M 76.131056,332.496136 L 68.138103,332.831851 "/>
</g>
<g id="xtick17">
<text style="font-size: 12.000000; font-family: Bitstream Vera Sans; font-style: Roman; fill: #000000;" x="67.564219" y="309.017842" >50</text>
<path style="fill: none; stroke: #000000; stroke-width: 1.000000; stroke-linejoin: miter; stroke-linecap: square;  opacity: 1.000000"  d="M 74.564219,304.517842 L 66.571266,304.853558 "/>
</g>
<g id="xtick18">
<text style="font-size: 12.000000; font-family: Bitstream Vera Sans; font-style: Roman; fill: #000000;" x="61.974868" y="280.637529" >100</text>
<path style="fill: none; stroke: #000000; stroke-width: 1.000000; stroke-linejoin: miter; stroke-linecap: square;  opacity: 1.000000"  d="M 72.974868,276.137529 L 64.981916,276.473245 "/>
</g>
<g id="xtick19">
<text style="font-size: 12.000000; font-family: Bitstream Vera Sans; font-style: Roman; fill: #000000;" x="60.362515" y="251.846469" >150</text>
<path style="fill: none; stroke: #000000; stroke-width: 1.000000; stroke-linejoin: miter; stroke-linecap: square;  opacity: 1.000000"  d="M 71.362515,247.346469 L 63.369562,247.682184 "/>
</g>
<g id="xtick20">
<text style="font-size: 12.000000; font-family: Bitstream Vera Sans; font-style: Roman; fill: #000000;" x="58.726656" y="222.635679" >200</text>
<path style="fill: none; stroke: #000000; stroke-width: 1.000000; stroke-linejoin: miter; stroke-linecap: square;  opacity: 1.000000"  d="M 69.726656,218.135679 L 61.733703,218.471394 "/>
</g>
<g id="xtick21">
<text style="font-size: 12.000000; font-family: Bitstream Vera Sans; font-style: Roman; fill: #000000;" x="57.066774" y="192.995913" >250</text>
<path style="fill: none; stroke: #000000; stroke-width: 1.000000; stroke-linejoin: miter; stroke-linecap: square;  opacity: 1.000000"  d="M 68.066774,188.495913 L 60.073821,188.831629 "/>
</g>
<g id="xtick22">
<text style="font-size: 12.000000; font-family: Bitstream Vera Sans; font-style: Roman; fill: #000000;" x="55.382335" y="162.917653" >300</text>
<path style="fill: none; stroke: #000000; stroke-width: 1.000000; stroke-linejoin: miter; stroke-linecap: square;  opacity: 1.000000"  d="M 66.382335,158.417653 L 58.389382,158.753368 "/>
</g>
<g id="xtick23">
<text style="font-size: 12.000000; font-family: Bitstream Vera Sans; font-style: Roman; fill: #000000;" x="53.672790" y="132.391094" >350</text>
<path style="fill: none; stroke: #000000; stroke-width: 1.000000; stroke-linejoin: miter; stroke-linecap: square;  opacity: 1.000000"  d="M 64.672790,127.891094 L 56.679837,128.226810 "/>
</g>
</g>
<g id="axes1">
<g id="regpolycollection1">
<defs>
    <clipPath id="4685744057707115011">
    <rect x="0.000000" y="0.000000" width="576.000000" height="432.000000"
    style="stroke: gray; fill: none;"/>
    </clipPath>
</defs>
<polygon style="fill: #0000ff; stroke: #000000; stroke-width: 1.000000; stroke-linejoin: miter; stroke-linecap: butt;  opacity: 0.521473" clip-path="url(#4685744057707115011)" points = "250.268764,313.443458 251.048455,313.566949 251.751824,313.925334 252.310021,314.483531 252.668406,315.186900 252.791897,315.966591 252.668406,316.746281 252.310021,317.449651 251.751824,318.007848 251.048455,318.366232 250.268764,318.489723 249.489074,318.366232 248.785704,318.007848 248.227507,317.449651 247.869123,316.746281 247.745632,315.966591 247.869123,315.186900 248.227507,314.483531 248.785704,313.925334 249.489074,313.566949"/>
<polygon style="fill: #0000ff; stroke: #000000; stroke-width: 1.000000; stroke-linejoin: miter; stroke-linecap: butt;  opacity: 0.749090" clip-path="url(#4685744057707115011)" points = "76.357701,167.087417 77.137392,167.210908 77.840761,167.569293 78.398958,168.127490 78.757342,168.830859 78.880833,169.610550 78.757342,170.390241 78.398958,171.093610 77.840761,171.651807 77.137392,172.010191 76.357701,172.133682 75.578010,172.010191 74.874641,171.651807 74.316444,171.093610 73.958059,170.390241 73.834568,169.610550 73.958059,168.830859 74.316444,168.127490 74.874641,167.569293 75.578010,167.210908"/>
<polygon style="fill: #0000ff; stroke: #000000; stroke-width: 1.000000; stroke-linejoin: miter; stroke-linecap: butt;  opacity: 0.580655" clip-path="url(#4685744057707115011)" points = "103.784377,267.418543 104.564067,267.542034 105.267437,267.900418 105.825634,268.458615 106.184018,269.161985 106.307509,269.941675 106.184018,270.721366 105.825634,271.424736 105.267437,271.982933 104.564067,272.341317 103.784377,272.464808 103.004686,272.341317 102.301317,271.982933 101.743120,271.424736 101.384735,270.721366 101.261244,269.941675 101.384735,269.161985 101.743120,268.458615 102.301317,267.900418 103.004686,267.542034"/>
<polygon style="fill: #0000ff; stroke: #000000; stroke-width: 1.000000; stroke-linejoin: miter; stroke-linecap: butt;  opacity: 0.491505" clip-path="url(#4685744057707115011)" points = "126.620540,298.907736 127.400231,299.031227 128.103600,299.389612 128.661797,299.947809 129.020181,300.651178 129.143672,301.430869 129.020181,302.210559 128.661797,302.913929 128.103600,303.472126 127.400231,303.830510 126.620540,303.954001 125.840849,303.830510 125.137480,303.472126 124.579283,302.913929 124.220898,302.210559 124.097407,301.430869 124.220898,300.651178 124.579283,299.947809 125.137480,299.389612 125.840849,299.031227"/>
<polygon style="fill: #0000ff; stroke: #000000; stroke-width: 1.000000; stroke-linejoin: miter; stroke-linecap: butt;  opacity: 0.373162" clip-path="url(#4685744057707115011)" points = "186.544361,263.779559 187.324052,263.903050 188.027421,264.261435 188.585618,264.819632 188.944003,265.523001 189.067494,266.302692 188.944003,267.082383 188.585618,267.785752 188.027421,268.343949 187.324052,268.702334 186.544361,268.825824 185.764671,268.702334 185.061301,268.343949 184.503104,267.785752 184.144720,267.082383 184.021229,266.302692 184.144720,265.523001 184.503104,264.819632 185.061301,264.261435 185.764671,263.903050"/>
<polygon style="fill: #0000ff; stroke: #000000; stroke-width: 1.000000; stroke-linejoin: miter; stroke-linecap: butt;  opacity: 0.448969" clip-path="url(#4685744057707115011)" points = "147.049403,289.164533 147.829094,289.288024 148.532463,289.646408 149.090660,290.204605 149.449045,290.907974 149.572535,291.687665 149.449045,292.467356 149.090660,293.170725 148.532463,293.728922 147.829094,294.087307 147.049403,294.210798 146.269712,294.087307 145.566343,293.728922 145.008146,293.170725 144.649761,292.467356 144.526270,291.687665 144.649761,290.907974 145.008146,290.204605 145.566343,289.646408 146.269712,289.288024"/>
<polygon style="fill: #0000ff; stroke: #000000; stroke-width: 1.000000; stroke-linejoin: miter; stroke-linecap: butt;  opacity: 0.410726" clip-path="url(#4685744057707115011)" points = "166.973763,276.358358 167.753454,276.481848 168.456823,276.840233 169.015020,277.398430 169.373405,278.101799 169.496896,278.881490 169.373405,279.661181 169.015020,280.364550 168.456823,280.922747 167.753454,281.281132 166.973763,281.404623 166.194072,281.281132 165.490703,280.922747 164.932506,280.364550 164.574122,279.661181 164.450631,278.881490 164.574122,278.101799 164.932506,277.398430 165.490703,276.840233 166.194072,276.481848"/>
<polygon style="fill: #0000ff; stroke: #000000; stroke-width: 1.000000; stroke-linejoin: miter; stroke-linecap: butt;  opacity: 0.801980" clip-path="url(#4685744057707115011)" points = "130.106277,168.552325 130.885968,168.675816 131.589337,169.034200 132.147534,169.592397 132.505919,170.295767 132.629410,171.075458 132.505919,171.855148 132.147534,172.558518 131.589337,173.116715 130.885968,173.475099 130.106277,173.598590 129.326586,173.475099 128.623217,173.116715 128.065020,172.558518 127.706636,171.855148 127.583145,171.075458 127.706636,170.295767 128.065020,169.592397 128.623217,169.034200 129.326586,168.675816"/>
<polygon style="fill: #0000ff; stroke: #000000; stroke-width: 1.000000; stroke-linejoin: miter; stroke-linecap: butt;  opacity: 0.336259" clip-path="url(#4685744057707115011)" points = "205.770536,251.422136 206.550227,251.545626 207.253596,251.904011 207.811793,252.462208 208.170178,253.165577 208.293669,253.945268 208.170178,254.724959 207.811793,255.428328 207.253596,255.986525 206.550227,256.344910 205.770536,256.468401 204.990846,256.344910 204.287476,255.986525 203.729279,255.428328 203.370895,254.724959 203.247404,253.945268 203.370895,253.165577 203.729279,252.462208 204.287476,251.904011 204.990846,251.545626"/>
<polygon style="fill: #0000ff; stroke: #000000; stroke-width: 1.000000; stroke-linejoin: miter; stroke-linecap: butt;  opacity: 0.300000" clip-path="url(#4685744057707115011)" points = "224.661301,239.280293 225.440992,239.403784 226.144361,239.762169 226.702558,240.320366 227.060943,241.023735 227.184434,241.803426 227.060943,242.583117 226.702558,243.286486 226.144361,243.844683 225.440992,244.203067 224.661301,244.326558 223.881610,244.203067 223.178241,243.844683 222.620044,243.286486 222.261659,242.583117 222.138169,241.803426 222.261659,241.023735 222.620044,240.320366 223.178241,239.762169 223.881610,239.403784"/>
<polygon style="fill: #0000ff; stroke: #000000; stroke-width: 1.000000; stroke-linejoin: miter; stroke-linecap: butt;  opacity: 0.627144" clip-path="url(#4685744057707115011)" points = "155.915669,272.232184 156.695360,272.355675 157.398729,272.714060 157.956926,273.272257 158.315311,273.975626 158.438801,274.755317 158.315311,275.535008 157.956926,276.238377 157.398729,276.796574 156.695360,277.154959 155.915669,277.278449 155.135978,277.154959 154.432609,276.796574 153.874412,276.238377 153.516027,275.535008 153.392536,274.755317 153.516027,273.975626 153.874412,273.272257 154.432609,272.714060 155.135978,272.355675"/>
<polygon style="fill: #0000ff; stroke: #000000; stroke-width: 1.000000; stroke-linejoin: miter; stroke-linecap: butt;  opacity: 0.528785" clip-path="url(#4685744057707115011)" points = "178.119650,310.595868 178.899340,310.719359 179.602710,311.077744 180.160907,311.635941 180.519291,312.339310 180.642782,313.119001 180.519291,313.898692 180.160907,314.602061 179.602710,315.160258 178.899340,315.518642 178.119650,315.642133 177.339959,315.518642 176.636589,315.160258 176.078392,314.602061 175.720008,313.898692 175.596517,313.119001 175.720008,312.339310 176.078392,311.635941 176.636589,311.077744 177.339959,310.719359"/>
<polygon style="fill: #0000ff; stroke: #000000; stroke-width: 1.000000; stroke-linejoin: miter; stroke-linecap: butt;  opacity: 0.484915" clip-path="url(#4685744057707115011)" points = "198.224565,301.201789 199.004255,301.325280 199.707625,301.683665 200.265822,302.241862 200.624206,302.945231 200.747697,303.724922 200.624206,304.504613 200.265822,305.207982 199.707625,305.766179 199.004255,306.124563 198.224565,306.248054 197.444874,306.124563 196.741505,305.766179 196.183308,305.207982 195.824923,304.504613 195.701432,303.724922 195.824923,302.945231 196.183308,302.241862 196.741505,301.683665 197.444874,301.325280"/>
<polygon style="fill: #0000ff; stroke: #000000; stroke-width: 1.000000; stroke-linejoin: miter; stroke-linecap: butt;  opacity: 0.446029" clip-path="url(#4685744057707115011)" points = "217.852952,288.180050 218.632643,288.303540 219.336012,288.661925 219.894209,289.220122 220.252593,289.923491 220.376084,290.703182 220.252593,291.482873 219.894209,292.186242 219.336012,292.744439 218.632643,293.102824 217.852952,293.226315 217.073261,293.102824 216.369892,292.744439 215.811695,292.186242 215.453310,291.482873 215.329819,290.703182 215.453310,289.923491 215.811695,289.220122 216.369892,288.661925 217.073261,288.303540"/>
<polygon style="fill: #0000ff; stroke: #000000; stroke-width: 1.000000; stroke-linejoin: miter; stroke-linecap: butt;  opacity: 0.407838" clip-path="url(#4685744057707115011)" points = "237.129950,275.391426 237.909641,275.514917 238.613011,275.873301 239.171208,276.431498 239.529592,277.134867 239.653083,277.914558 239.529592,278.694249 239.171208,279.397618 238.613011,279.955815 237.909641,280.314200 237.129950,280.437691 236.350260,280.314200 235.646890,279.955815 235.088693,279.397618 234.730309,278.694249 234.606818,277.914558 234.730309,277.134867 235.088693,276.431498 235.646890,275.873301 236.350260,275.514917"/>
<polygon style="fill: #0000ff; stroke: #000000; stroke-width: 1.000000; stroke-linejoin: miter; stroke-linecap: butt;  opacity: 0.853289" clip-path="url(#4685744057707115011)" points = "185.180360,172.513338 185.960051,172.636829 186.663421,172.995214 187.221618,173.553411 187.580002,174.256780 187.703493,175.036471 187.580002,175.816162 187.221618,176.519531 186.663421,177.077728 185.960051,177.436112 185.180360,177.559603 184.400670,177.436112 183.697300,177.077728 183.139103,176.519531 182.780719,175.816162 182.657228,175.036471 182.780719,174.256780 183.139103,173.553411 183.697300,172.995214 184.400670,172.636829"/>
<polygon style="fill: #0000ff; stroke: #000000; stroke-width: 1.000000; stroke-linejoin: miter; stroke-linecap: butt;  opacity: 0.370325" clip-path="url(#4685744057707115011)" points = "256.064913,262.829714 256.844603,262.953205 257.547973,263.311589 258.106170,263.869786 258.464554,264.573155 258.588045,265.352846 258.464554,266.132537 258.106170,266.835906 257.547973,267.394103 256.844603,267.752488 256.064913,267.875979 255.285222,267.752488 254.581853,267.394103 254.023656,266.835906 253.665271,266.132537 253.541780,265.352846 253.665271,264.573155 254.023656,263.869786 254.581853,263.311589 255.285222,262.953205"/>
<polygon style="fill: #0000ff; stroke: #000000; stroke-width: 1.000000; stroke-linejoin: miter; stroke-linecap: butt;  opacity: 0.333472" clip-path="url(#4685744057707115011)" points = "274.666862,250.488927 275.446552,250.612418 276.149922,250.970803 276.708119,251.529000 277.066503,252.232369 277.189994,253.012060 277.066503,253.791751 276.708119,254.495120 276.149922,255.053317 275.446552,255.411701 274.666862,255.535192 273.887171,255.411701 273.183802,255.053317 272.625604,254.495120 272.267220,253.791751 272.143729,253.012060 272.267220,252.232369 272.625604,251.529000 273.183802,250.970803 273.887171,250.612418"/>
<polygon style="fill: #0000ff; stroke: #000000; stroke-width: 1.000000; stroke-linejoin: miter; stroke-linecap: butt;  opacity: 0.673321" clip-path="url(#4685744057707115011)" points = "209.185114,278.301054 209.964804,278.424545 210.668174,278.782929 211.226371,279.341126 211.584755,280.044496 211.708246,280.824186 211.584755,281.603877 211.226371,282.307246 210.668174,282.865443 209.964804,283.223828 209.185114,283.347319 208.405423,283.223828 207.702053,282.865443 207.143856,282.307246 206.785472,281.603877 206.661981,280.824186 206.785472,280.044496 207.143856,279.341126 207.702053,278.782929 208.405423,278.424545"/>
<polygon style="fill: #0000ff; stroke: #000000; stroke-width: 1.000000; stroke-linejoin: miter; stroke-linecap: butt;  opacity: 0.566094" clip-path="url(#4685744057707115011)" points = "230.526223,323.043922 231.305913,323.167413 232.009283,323.525798 232.567480,324.083995 232.925864,324.787364 233.049355,325.567055 232.925864,326.346746 232.567480,327.050115 232.009283,327.608312 231.305913,327.966696 230.526223,328.090187 229.746532,327.966696 229.043163,327.608312 228.484966,327.050115 228.126581,326.346746 228.003090,325.567055 228.126581,324.787364 228.484966,324.083995 229.043163,323.525798 229.746532,323.167413"/>
<polygon style="fill: #0000ff; stroke: #000000; stroke-width: 1.000000; stroke-linejoin: miter; stroke-linecap: butt;  opacity: 0.521473" clip-path="url(#4685744057707115011)" points = "250.268764,313.443458 251.048455,313.566949 251.751824,313.925334 252.310021,314.483531 252.668406,315.186900 252.791897,315.966591 252.668406,316.746281 252.310021,317.449651 251.751824,318.007848 251.048455,318.366232 250.268764,318.489723 249.489074,318.366232 248.785704,318.007848 248.227507,317.449651 247.869123,316.746281 247.745632,315.966591 247.869123,315.186900 248.227507,314.483531 248.785704,313.925334 249.489074,313.566949"/>
<polygon style="fill: #0000ff; stroke: #000000; stroke-width: 1.000000; stroke-linejoin: miter; stroke-linecap: butt;  opacity: 0.481926" clip-path="url(#4685744057707115011)" points = "269.588283,300.200665 270.367974,300.324156 271.071343,300.682540 271.629540,301.240737 271.987925,301.944106 272.111416,302.723797 271.987925,303.503488 271.629540,304.206857 271.071343,304.765054 270.367974,305.123439 269.588283,305.246930 268.808592,305.123439 268.105223,304.765054 267.547026,304.206857 267.188642,303.503488 267.065151,302.723797 267.188642,301.944106 267.547026,301.240737 268.105223,300.682540 268.808592,300.324156"/>
<polygon style="fill: #0000ff; stroke: #000000; stroke-width: 1.000000; stroke-linejoin: miter; stroke-linecap: butt;  opacity: 0.905749" clip-path="url(#4685744057707115011)" points = "241.490771,176.563270 242.270462,176.686761 242.973831,177.045146 243.532028,177.603343 243.890413,178.306712 244.013903,179.086403 243.890413,179.866093 243.532028,180.569463 242.973831,181.127660 242.270462,181.486044 241.490771,181.609535 240.711080,181.486044 240.007711,181.127660 239.449514,180.569463 239.091129,179.866093 238.967638,179.086403 239.091129,178.306712 239.449514,177.603343 240.007711,177.045146 240.711080,176.686761"/>
<polygon style="fill: #0000ff; stroke: #000000; stroke-width: 1.000000; stroke-linejoin: miter; stroke-linecap: butt;  opacity: 0.443093" clip-path="url(#4685744057707115011)" points = "288.559059,287.196921 289.338750,287.320412 290.042119,287.678797 290.600316,288.236994 290.958701,288.940363 291.082192,289.720054 290.958701,290.499745 290.600316,291.203114 290.042119,291.761311 289.338750,292.119695 288.559059,292.243186 287.779368,292.119695 287.075999,291.761311 286.517802,291.203114 286.159418,290.499745 286.035927,289.720054 286.159418,288.940363 286.517802,288.236994 287.075999,287.678797 287.779368,287.320412"/>
<polygon style="fill: #0000ff; stroke: #000000; stroke-width: 1.000000; stroke-linejoin: miter; stroke-linecap: butt;  opacity: 0.404955" clip-path="url(#4685744057707115011)" points = "307.190451,274.425813 307.970142,274.549304 308.673511,274.907688 309.231708,275.465885 309.590092,276.169255 309.713583,276.948945 309.590092,277.728636 309.231708,278.432005 308.673511,278.990202 307.970142,279.348587 307.190451,279.472078 306.410760,279.348587 305.707391,278.990202 305.149194,278.432005 304.790809,277.728636 304.667318,276.948945 304.790809,276.169255 305.149194,275.465885 305.707391,274.907688 306.410760,274.549304"/>
<polygon style="fill: #0000ff; stroke: #000000; stroke-width: 1.000000; stroke-linejoin: miter; stroke-linecap: butt;  opacity: 0.367493" clip-path="url(#4685744057707115011)" points = "325.491484,261.881152 326.271175,262.004643 326.974545,262.363028 327.532742,262.921225 327.891126,263.624594 328.014617,264.404285 327.891126,265.183975 327.532742,265.887345 326.974545,266.445542 326.271175,266.803926 325.491484,266.927417 324.711794,266.803926 324.008424,266.445542 323.450227,265.887345 323.091843,265.183975 322.968352,264.404285 323.091843,263.624594 323.450227,262.921225 324.008424,262.363028 324.711794,262.004643"/>
<polygon style="fill: #0000ff; stroke: #000000; stroke-width: 1.000000; stroke-linejoin: miter; stroke-linecap: butt;  opacity: 0.721799" clip-path="url(#4685744057707115011)" points = "263.562844,283.334531 264.342535,283.458022 265.045904,283.816407 265.604101,284.374604 265.962486,285.077973 266.085977,285.857664 265.962486,286.637355 265.604101,287.340724 265.045904,287.898921 264.342535,288.257306 263.562844,288.380796 262.783153,288.257306 262.079784,287.898921 261.521587,287.340724 261.163203,286.637355 261.039712,285.857664 261.163203,285.077973 261.521587,284.374604 262.079784,283.816407 262.783153,283.458022"/>
<polygon style="fill: #0000ff; stroke: #000000; stroke-width: 1.000000; stroke-linejoin: miter; stroke-linecap: butt;  opacity: 0.604680" clip-path="url(#4685744057707115011)" points = "283.837965,335.148319 284.617656,335.271810 285.321025,335.630194 285.879222,336.188391 286.237607,336.891760 286.361097,337.671451 286.237607,338.451142 285.879222,339.154511 285.321025,339.712708 284.617656,340.071093 283.837965,340.194584 283.058274,340.071093 282.354905,339.712708 281.796708,339.154511 281.438323,338.451142 281.314832,337.671451 281.438323,336.891760 281.796708,336.188391 282.354905,335.630194 283.058274,335.271810"/>
<polygon style="fill: #0000ff; stroke: #000000; stroke-width: 1.000000; stroke-linejoin: miter; stroke-linecap: butt;  opacity: 0.952777" clip-path="url(#4685744057707115011)" points = "299.075044,186.347335 299.854735,186.470826 300.558104,186.829210 301.116301,187.387407 301.474686,188.090777 301.598177,188.870468 301.474686,189.650158 301.116301,190.353528 300.558104,190.911725 299.854735,191.270109 299.075044,191.393600 298.295353,191.270109 297.591984,190.911725 297.033787,190.353528 296.675403,189.650158 296.551912,188.870468 296.675403,188.090777 297.033787,187.387407 297.591984,186.829210 298.295353,186.470826"/>
<polygon style="fill: #0000ff; stroke: #000000; stroke-width: 1.000000; stroke-linejoin: miter; stroke-linecap: butt;  opacity: 0.558656" clip-path="url(#4685744057707115011)" points = "303.204328,325.894791 303.984019,326.018282 304.687388,326.376666 305.245585,326.934863 305.603970,327.638232 305.727461,328.417923 305.603970,329.197614 305.245585,329.900983 304.687388,330.459180 303.984019,330.817565 303.204328,330.941056 302.424637,330.817565 301.721268,330.459180 301.163071,329.900983 300.804687,329.197614 300.681196,328.417923 300.804687,327.638232 301.163071,326.934863 301.721268,326.376666 302.424637,326.018282"/>
<polygon style="fill: #0000ff; stroke: #000000; stroke-width: 1.000000; stroke-linejoin: miter; stroke-linecap: butt;  opacity: 0.518432" clip-path="url(#4685744057707115011)" points = "322.201550,312.425267 322.981241,312.548758 323.684610,312.907142 324.242807,313.465339 324.601192,314.168708 324.724682,314.948399 324.601192,315.728090 324.242807,316.431459 323.684610,316.989656 322.981241,317.348041 322.201550,317.471532 321.421859,317.348041 320.718490,316.989656 320.160293,316.431459 319.801908,315.728090 319.678417,314.948399 319.801908,314.168708 320.160293,313.465339 320.718490,312.907142 321.421859,312.548758"/>
<polygon style="fill: #0000ff; stroke: #000000; stroke-width: 1.000000; stroke-linejoin: miter; stroke-linecap: butt;  opacity: 0.478940" clip-path="url(#4685744057707115011)" points = "340.852963,299.200930 341.632654,299.324420 342.336024,299.682805 342.894221,300.241002 343.252605,300.944371 343.376096,301.724062 343.252605,302.503753 342.894221,303.207122 342.336024,303.765319 341.632654,304.123704 340.852963,304.247195 340.073273,304.123704 339.369903,303.765319 338.811706,303.207122 338.453322,302.503753 338.329831,301.724062 338.453322,300.944371 338.811706,300.241002 339.369903,299.682805 340.073273,299.324420"/>
<polygon style="fill: #0000ff; stroke: #000000; stroke-width: 1.000000; stroke-linejoin: miter; stroke-linecap: butt;  opacity: 0.440161" clip-path="url(#4685744057707115011)" points = "359.167926,286.215145 359.947617,286.338636 360.650986,286.697020 361.209183,287.255217 361.567567,287.958587 361.691058,288.738278 361.567567,289.517968 361.209183,290.221338 360.650986,290.779535 359.947617,291.137919 359.167926,291.261410 358.388235,291.137919 357.684866,290.779535 357.126669,290.221338 356.768284,289.517968 356.644793,288.738278 356.768284,287.958587 357.126669,287.255217 357.684866,286.697020 358.388235,286.338636"/>
<polygon style="fill: #0000ff; stroke: #000000; stroke-width: 1.000000; stroke-linejoin: miter; stroke-linecap: butt;  opacity: 0.402075" clip-path="url(#4685744057707115011)" points = "377.155460,273.461516 377.935150,273.585007 378.638520,273.943391 379.196717,274.501588 379.555101,275.204958 379.678592,275.984649 379.555101,276.764339 379.196717,277.467709 378.638520,278.025906 377.935150,278.384290 377.155460,278.507781 376.375769,278.384290 375.672399,278.025906 375.114202,277.467709 374.755818,276.764339 374.632327,275.984649 374.755818,275.204958 375.114202,274.501588 375.672399,273.943391 376.375769,273.585007"/>
<polygon style="fill: #0000ff; stroke: #000000; stroke-width: 1.000000; stroke-linejoin: miter; stroke-linecap: butt;  opacity: 0.765220" clip-path="url(#4685744057707115011)" points = "319.095477,293.754800 319.875168,293.878290 320.578537,294.236675 321.136734,294.794872 321.495118,295.498241 321.618609,296.277932 321.495118,297.057623 321.136734,297.760992 320.578537,298.319189 319.875168,298.677574 319.095477,298.801065 318.315786,298.677574 317.612417,298.319189 317.054220,297.760992 316.695835,297.057623 316.572344,296.277932 316.695835,295.498241 317.054220,294.794872 317.612417,294.236675 318.315786,293.878290"/>
<polygon style="fill: #0000ff; stroke: #000000; stroke-width: 1.000000; stroke-linejoin: miter; stroke-linecap: butt;  opacity: 0.643308" clip-path="url(#4685744057707115011)" points = "338.089827,348.029805 338.869518,348.153296 339.572888,348.511680 340.131085,349.069877 340.489469,349.773247 340.612960,350.552938 340.489469,351.332628 340.131085,352.035998 339.572888,352.594195 338.869518,352.952579 338.089827,353.076070 337.310137,352.952579 336.606767,352.594195 336.048570,352.035998 335.690186,351.332628 335.566695,350.552938 335.690186,349.773247 336.048570,349.069877 336.606767,348.511680 337.310137,348.153296"/>
<polygon style="fill: #0000ff; stroke: #000000; stroke-width: 1.000000; stroke-linejoin: miter; stroke-linecap: butt;  opacity: 0.596481" clip-path="url(#4685744057707115011)" points = "357.054354,338.561220 357.834044,338.684711 358.537414,339.043096 359.095611,339.601293 359.453995,340.304662 359.577486,341.084353 359.453995,341.864044 359.095611,342.567413 358.537414,343.125610 357.834044,343.483994 357.054354,343.607485 356.274663,343.483994 355.571294,343.125610 355.013097,342.567413 354.654712,341.864044 354.531221,341.084353 354.654712,340.304662 355.013097,339.601293 355.571294,339.043096 356.274663,338.684711"/>
<polygon style="fill: #0000ff; stroke: #000000; stroke-width: 1.000000; stroke-linejoin: miter; stroke-linecap: butt;  opacity: 1.000000" clip-path="url(#4685744057707115011)" points = "357.807130,196.958744 358.586821,197.082235 359.290190,197.440620 359.848387,197.998817 360.206772,198.702186 360.330263,199.481877 360.206772,200.261568 359.848387,200.964937 359.290190,201.523134 358.586821,201.881519 357.807130,202.005009 357.027439,201.881519 356.324070,201.523134 355.765873,200.964937 355.407489,200.261568 355.283998,199.481877 355.407489,198.702186 355.765873,197.998817 356.324070,197.440620 357.027439,197.082235"/>
<polygon style="fill: #0000ff; stroke: #000000; stroke-width: 1.000000; stroke-linejoin: miter; stroke-linecap: butt;  opacity: 0.555563" clip-path="url(#4685744057707115011)" points = "375.715291,324.859092 376.494982,324.982583 377.198351,325.340968 377.756548,325.899165 378.114932,326.602534 378.238423,327.382225 378.114932,328.161916 377.756548,328.865285 377.198351,329.423482 376.494982,329.781866 375.715291,329.905357 374.935600,329.781866 374.232231,329.423482 373.674034,328.865285 373.315649,328.161916 373.192158,327.382225 373.315649,326.602534 373.674034,325.899165 374.232231,325.340968 374.935600,324.982583"/>
<polygon style="fill: #0000ff; stroke: #000000; stroke-width: 1.000000; stroke-linejoin: miter; stroke-linecap: butt;  opacity: 0.515396" clip-path="url(#4685744057707115011)" points = "394.033661,311.408500 394.813352,311.531991 395.516721,311.890376 396.074918,312.448573 396.433303,313.151942 396.556794,313.931633 396.433303,314.711324 396.074918,315.414693 395.516721,315.972890 394.813352,316.331274 394.033661,316.454765 393.253970,316.331274 392.550601,315.972890 391.992404,315.414693 391.634019,314.711324 391.510528,313.931633 391.634019,313.151942 391.992404,312.448573 392.550601,311.890376 393.253970,311.531991"/>
<polygon style="fill: #0000ff; stroke: #000000; stroke-width: 1.000000; stroke-linejoin: miter; stroke-linecap: butt;  opacity: 0.475959" clip-path="url(#4685744057707115011)" points = "412.018811,298.202581 412.798502,298.326072 413.501872,298.684456 414.060069,299.242653 414.418453,299.946023 414.541944,300.725713 414.418453,301.505404 414.060069,302.208773 413.501872,302.766970 412.798502,303.125355 412.018811,303.248846 411.239121,303.125355 410.535751,302.766970 409.977554,302.208773 409.619170,301.505404 409.495679,300.725713 409.619170,299.946023 409.977554,299.242653 410.535751,298.684456 411.239121,298.326072"/>
<polygon style="fill: #0000ff; stroke: #000000; stroke-width: 1.000000; stroke-linejoin: miter; stroke-linecap: butt;  opacity: 0.808097" clip-path="url(#4685744057707115011)" points = "375.676183,305.555094 376.455874,305.678585 377.159243,306.036970 377.717440,306.595167 378.075825,307.298536 378.199316,308.078227 378.075825,308.857918 377.717440,309.561287 377.159243,310.119484 376.455874,310.477868 375.676183,310.601359 374.896492,310.477868 374.193123,310.119484 373.634926,309.561287 373.276541,308.857918 373.153050,308.078227 373.276541,307.298536 373.634926,306.595167 374.193123,306.036970 374.896492,305.678585"/>
<polygon style="fill: #0000ff; stroke: #000000; stroke-width: 1.000000; stroke-linejoin: miter; stroke-linecap: butt;  opacity: 0.437233" clip-path="url(#4685744057707115011)" points = "429.679752,285.234718 430.459443,285.358209 431.162813,285.716594 431.721010,286.274791 432.079394,286.978160 432.202885,287.757851 432.079394,288.537541 431.721010,289.240911 431.162813,289.799108 430.459443,290.157492 429.679752,290.280983 428.900062,290.157492 428.196692,289.799108 427.638495,289.240911 427.280111,288.537541 427.156620,287.757851 427.280111,286.978160 427.638495,286.274791 428.196692,285.716594 428.900062,285.358209"/>
<polygon style="fill: #0000ff; stroke: #000000; stroke-width: 1.000000; stroke-linejoin: miter; stroke-linecap: butt;  opacity: 0.682617" clip-path="url(#4685744057707115011)" points = "393.297167,361.138158 394.076857,361.261649 394.780227,361.620034 395.338424,362.178231 395.696808,362.881600 395.820299,363.661291 395.696808,364.440982 395.338424,365.144351 394.780227,365.702548 394.076857,366.060933 393.297167,366.184423 392.517476,366.060933 391.814107,365.702548 391.255910,365.144351 390.897525,364.440982 390.774034,363.661291 390.897525,362.881600 391.255910,362.178231 391.814107,361.620034 392.517476,361.261649"/>
<polygon style="fill: #0000ff; stroke: #000000; stroke-width: 1.000000; stroke-linejoin: miter; stroke-linecap: butt;  opacity: 0.634966" clip-path="url(#4685744057707115011)" points = "411.842743,351.448369 412.622434,351.571859 413.325803,351.930244 413.884000,352.488441 414.242385,353.191810 414.365876,353.971501 414.242385,354.751192 413.884000,355.454561 413.325803,356.012758 412.622434,356.371143 411.842743,356.494634 411.063052,356.371143 410.359683,356.012758 409.801486,355.454561 409.443102,354.751192 409.319611,353.971501 409.443102,353.191810 409.801486,352.488441 410.359683,351.930244 411.063052,351.571859"/>
<polygon style="fill: #0000ff; stroke: #000000; stroke-width: 1.000000; stroke-linejoin: miter; stroke-linecap: butt;  opacity: 0.552474" clip-path="url(#4685744057707115011)" points = "448.123902,323.824856 448.903593,323.948347 449.606962,324.306731 450.165159,324.864928 450.523544,325.568297 450.647034,326.347988 450.523544,327.127679 450.165159,327.831048 449.606962,328.389245 448.903593,328.747630 448.123902,328.871121 447.344211,328.747630 446.640842,328.389245 446.082645,327.831048 445.724260,327.127679 445.600769,326.347988 445.724260,325.568297 446.082645,324.864928 446.640842,324.306731 447.344211,323.948347"/>
<polygon style="fill: #0000ff; stroke: #000000; stroke-width: 1.000000; stroke-linejoin: miter; stroke-linecap: butt;  opacity: 0.593335" clip-path="url(#4685744057707115011)" points = "430.152823,337.507559 430.932514,337.631050 431.635883,337.989435 432.194080,338.547632 432.552464,339.251001 432.675955,340.030692 432.552464,340.810382 432.194080,341.513752 431.635883,342.071949 430.932514,342.430333 430.152823,342.553824 429.373132,342.430333 428.669763,342.071949 428.111566,341.513752 427.753181,340.810382 427.629690,340.030692 427.753181,339.251001 428.111566,338.547632 428.669763,337.989435 429.373132,337.631050"/>
<polygon style="fill: #0000ff; stroke: #000000; stroke-width: 1.000000; stroke-linejoin: miter; stroke-linecap: butt;  opacity: 0.472982" clip-path="url(#4685744057707115011)" points = "483.086033,297.205616 483.865724,297.329107 484.569093,297.687491 485.127290,298.245688 485.485674,298.949057 485.609165,299.728748 485.485674,300.508439 485.127290,301.211808 484.569093,301.770005 483.865724,302.128390 483.086033,302.251881 482.306342,302.128390 481.602973,301.770005 481.044776,301.211808 480.686391,300.508439 480.562900,299.728748 480.686391,298.949057 481.044776,298.245688 481.602973,297.687491 482.306342,297.329107"/>
<polygon style="fill: #0000ff; stroke: #000000; stroke-width: 1.000000; stroke-linejoin: miter; stroke-linecap: butt;  opacity: 0.512363" clip-path="url(#4685744057707115011)" points = "465.765309,310.393156 466.545000,310.516647 467.248369,310.875031 467.806566,311.433228 468.164950,312.136598 468.288441,312.916288 468.164950,313.695979 467.806566,314.399349 467.248369,314.957546 466.545000,315.315930 465.765309,315.439421 464.985618,315.315930 464.282249,314.957546 463.724052,314.399349 463.365667,313.695979 463.242176,312.916288 463.365667,312.136598 463.724052,311.433228 464.282249,310.875031 464.985618,310.516647"/>
<polygon style="fill: #0000ff; stroke: #000000; stroke-width: 1.000000; stroke-linejoin: miter; stroke-linecap: butt;  opacity: 0.448969" clip-path="url(#4685744057707115011)" points = "147.049403,289.164533 147.829094,289.288024 148.532463,289.646408 149.090660,290.204605 149.449045,290.907974 149.572535,291.687665 149.449045,292.467356 149.090660,293.170725 148.532463,293.728922 147.829094,294.087307 147.049403,294.210798 146.269712,294.087307 145.566343,293.728922 145.008146,293.170725 144.649761,292.467356 144.526270,291.687665 144.649761,290.907974 145.008146,290.204605 145.566343,289.646408 146.269712,289.288024"/>
<polygon style="fill: #0000ff; stroke: #000000; stroke-width: 1.000000; stroke-linejoin: miter; stroke-linecap: butt;  opacity: 0.484915" clip-path="url(#4685744057707115011)" points = "198.224565,301.201789 199.004255,301.325280 199.707625,301.683665 200.265822,302.241862 200.624206,302.945231 200.747697,303.724922 200.624206,304.504613 200.265822,305.207982 199.707625,305.766179 199.004255,306.124563 198.224565,306.248054 197.444874,306.124563 196.741505,305.766179 196.183308,305.207982 195.824923,304.504613 195.701432,303.724922 195.824923,302.945231 196.183308,302.241862 196.741505,301.683665 197.444874,301.325280"/>
<polygon style="fill: #0000ff; stroke: #000000; stroke-width: 1.000000; stroke-linejoin: miter; stroke-linecap: butt;  opacity: 0.521473" clip-path="url(#4685744057707115011)" points = "250.268764,313.443458 251.048455,313.566949 251.751824,313.925334 252.310021,314.483531 252.668406,315.186900 252.791897,315.966591 252.668406,316.746281 252.310021,317.449651 251.751824,318.007848 251.048455,318.366232 250.268764,318.489723 249.489074,318.366232 248.785704,318.007848 248.227507,317.449651 247.869123,316.746281 247.745632,315.966591 247.869123,315.186900 248.227507,314.483531 248.785704,313.925334 249.489074,313.566949"/>
<polygon style="fill: #0000ff; stroke: #000000; stroke-width: 1.000000; stroke-linejoin: miter; stroke-linecap: butt;  opacity: 0.558656" clip-path="url(#4685744057707115011)" points = "303.204328,325.894791 303.984019,326.018282 304.687388,326.376666 305.245585,326.934863 305.603970,327.638232 305.727461,328.417923 305.603970,329.197614 305.245585,329.900983 304.687388,330.459180 303.984019,330.817565 303.204328,330.941056 302.424637,330.817565 301.721268,330.459180 301.163071,329.900983 300.804687,329.197614 300.681196,328.417923 300.804687,327.638232 301.163071,326.934863 301.721268,326.376666 302.424637,326.018282"/>
<polygon style="fill: #0000ff; stroke: #000000; stroke-width: 1.000000; stroke-linejoin: miter; stroke-linecap: butt;  opacity: 0.596481" clip-path="url(#4685744057707115011)" points = "357.054354,338.561220 357.834044,338.684711 358.537414,339.043096 359.095611,339.601293 359.453995,340.304662 359.577486,341.084353 359.453995,341.864044 359.095611,342.567413 358.537414,343.125610 357.834044,343.483994 357.054354,343.607485 356.274663,343.483994 355.571294,343.125610 355.013097,342.567413 354.654712,341.864044 354.531221,341.084353 354.654712,340.304662 355.013097,339.601293 355.571294,339.043096 356.274663,338.684711"/>
<polygon style="fill: #0000ff; stroke: #000000; stroke-width: 1.000000; stroke-linejoin: miter; stroke-linecap: butt;  opacity: 0.634966" clip-path="url(#4685744057707115011)" points = "411.842743,351.448369 412.622434,351.571859 413.325803,351.930244 413.884000,352.488441 414.242385,353.191810 414.365876,353.971501 414.242385,354.751192 413.884000,355.454561 413.325803,356.012758 412.622434,356.371143 411.842743,356.494634 411.063052,356.371143 410.359683,356.012758 409.801486,355.454561 409.443102,354.751192 409.319611,353.971501 409.443102,353.191810 409.801486,352.488441 410.359683,351.930244 411.063052,351.571859"/>
<polygon style="fill: #0000ff; stroke: #000000; stroke-width: 1.000000; stroke-linejoin: miter; stroke-linecap: butt;  opacity: 0.491505" clip-path="url(#4685744057707115011)" points = "126.620540,298.907736 127.400231,299.031227 128.103600,299.389612 128.661797,299.947809 129.020181,300.651178 129.143672,301.430869 129.020181,302.210559 128.661797,302.913929 128.103600,303.472126 127.400231,303.830510 126.620540,303.954001 125.840849,303.830510 125.137480,303.472126 124.579283,302.913929 124.220898,302.210559 124.097407,301.430869 124.220898,300.651178 124.579283,299.947809 125.137480,299.389612 125.840849,299.031227"/>
</g>
<g id="matplotlib.axis1">
</g>
<g id="matplotlib.axis2">
</g>
</g>
</g>
</svg>
