<?xml version="1.0" standalone="no"?>
<!DOCTYPE svg PUBLIC "-//W3C//DTD SVG 1.1//EN"
  "http://www.w3.org/Graphics/SVG/1.1/DTD/svg11.dtd">
<!-- Created with matplotlib (http://matplotlib.sourceforge.net/) -->
<svg width="576" height="432" viewBox="0 0 576 432"
   xmlns="http://www.w3.org/2000/svg"
   xmlns:xlink="http://www.w3.org/1999/xlink"
   version="1.1"
   id="svg1">
<g id="figure1">
<polygon style="fill: #ffffff; stroke: #ffffff; stroke-width: 1.000000; stroke-linejoin: miter; stroke-linecap: square;  opacity: 1.000000"  points = "0.000000,432.000000 0.000000,0.000000 576.000000,0.000000 576.000000,432.000000"/>
<polygon style="fill: #ffffff; opacity: 1.000000"  points = "0.000000,432.000000 0.000000,0.000000 576.000000,0.000000 576.000000,432.000000"/>
<g id="axis3d1">
<polygon style="fill: #f2f2f2; stroke: #f2f2f2; stroke-width: 1.000000; stroke-linejoin: miter; stroke-linecap: square;  opacity: 0.100000"  points = "241.211914,230.626613 508.260241,289.840834 519.433224,81.348607 238.467267,28.237352"/>
<path style="fill: none; stroke: #000000; stroke-width: 0.750000; stroke-linejoin: miter; stroke-linecap: square;  opacity: 1.000000"  d="M 76.357701,336.543225 L 357.328625,405.507833 "/>
<text style="font-size: 12.000000; font-family: Bitstream Vera Sans; font-style: Roman; fill: #000000;" x="127.936123" y="379.403446" transform="translate(127.936123,379.403446) rotate(-341.9) translate(-127.936123,-379.403446)">max_call_mismatch_rate</text>
<g id="linecollection1">
<path style="fill: none; stroke: #e6e6e6; stroke-width: 1.000000; stroke-linejoin: miter; stroke-linecap: butt;  opacity: 1.000000"  d="M 81.730847,337.862069 L 246.335639,231.762727 L 243.846516,29.254197 "/>
<path style="fill: none; stroke: #e6e6e6; stroke-width: 1.000000; stroke-linejoin: miter; stroke-linecap: butt;  opacity: 1.000000"  d="M 133.806316,350.644048 L 295.959675,242.766161 L 295.968604,39.106883 "/>
<path style="fill: none; stroke: #e6e6e6; stroke-width: 1.000000; stroke-linejoin: miter; stroke-linecap: butt;  opacity: 1.000000"  d="M 186.791666,363.649357 L 346.387419,253.947806 L 348.978075,49.127313 "/>
<path style="fill: none; stroke: #e6e6e6; stroke-width: 1.000000; stroke-linejoin: miter; stroke-linecap: butt;  opacity: 1.000000"  d="M 240.710954,376.883903 L 397.638557,265.312027 L 402.897787,59.319806 "/>
<path style="fill: none; stroke: #e6e6e6; stroke-width: 1.000000; stroke-linejoin: miter; stroke-linecap: butt;  opacity: 1.000000"  d="M 295.589092,390.353800 L 449.733420,276.863332 L 457.751387,69.688832 "/>
<path style="fill: none; stroke: #e6e6e6; stroke-width: 1.000000; stroke-linejoin: miter; stroke-linecap: butt;  opacity: 1.000000"  d="M 351.451887,404.065382 L 502.693018,288.606380 L 513.563349,80.239019 "/>
</g>
<g id="xtick1">
<text style="font-size: 12.000000; font-family: Bitstream Vera Sans; font-style: Roman; fill: #000000;" x="68.730847" y="342.362069" >0.05</text>
<path style="fill: none; stroke: #000000; stroke-width: 1.000000; stroke-linejoin: miter; stroke-linecap: square;  opacity: 1.000000"  d="M 81.730847,337.862069 L 79.242567,345.465257 "/>
</g>
<g id="xtick2">
<text style="font-size: 12.000000; font-family: Bitstream Vera Sans; font-style: Roman; fill: #000000;" x="120.806316" y="355.144048" >0.10</text>
<path style="fill: none; stroke: #000000; stroke-width: 1.000000; stroke-linejoin: miter; stroke-linecap: square;  opacity: 1.000000"  d="M 133.806316,350.644048 L 131.318036,358.247235 "/>
</g>
<g id="xtick3">
<text style="font-size: 12.000000; font-family: Bitstream Vera Sans; font-style: Roman; fill: #000000;" x="173.791666" y="368.149357" >0.15</text>
<path style="fill: none; stroke: #000000; stroke-width: 1.000000; stroke-linejoin: miter; stroke-linecap: square;  opacity: 1.000000"  d="M 186.791666,363.649357 L 184.303386,371.252545 "/>
</g>
<g id="xtick4">
<text style="font-size: 12.000000; font-family: Bitstream Vera Sans; font-style: Roman; fill: #000000;" x="227.710954" y="381.383903" >0.20</text>
<path style="fill: none; stroke: #000000; stroke-width: 1.000000; stroke-linejoin: miter; stroke-linecap: square;  opacity: 1.000000"  d="M 240.710954,376.883903 L 238.222674,384.487091 "/>
</g>
<g id="xtick5">
<text style="font-size: 12.000000; font-family: Bitstream Vera Sans; font-style: Roman; fill: #000000;" x="282.589092" y="394.853800" >0.25</text>
<path style="fill: none; stroke: #000000; stroke-width: 1.000000; stroke-linejoin: miter; stroke-linecap: square;  opacity: 1.000000"  d="M 295.589092,390.353800 L 293.100812,397.956987 "/>
</g>
<g id="xtick6">
<text style="font-size: 12.000000; font-family: Bitstream Vera Sans; font-style: Roman; fill: #000000;" x="338.451887" y="408.565382" >0.30</text>
<path style="fill: none; stroke: #000000; stroke-width: 1.000000; stroke-linejoin: miter; stroke-linecap: square;  opacity: 1.000000"  d="M 351.451887,404.065382 L 348.963607,411.668569 "/>
</g>
</g>
<g id="axis3d2">
<polygon style="fill: #e6e6e6; stroke: #e6e6e6; stroke-width: 1.000000; stroke-linejoin: miter; stroke-linecap: square;  opacity: 0.500000"  points = "76.357701,336.543225 241.211914,230.626613 238.467267,28.237352 64.421350,123.401250"/>
<path style="fill: none; stroke: #000000; stroke-width: 0.750000; stroke-linejoin: miter; stroke-linecap: square;  opacity: 1.000000"  d="M 357.328625,405.507833 L 508.260241,289.840834 "/>
<text style="font-size: 12.000000; font-family: Bitstream Vera Sans; font-style: Roman; fill: #000000;" x="425.958426" y="409.045229" transform="translate(425.958426,409.045229) rotate(-45.6) translate(-425.958426,-409.045229)">max_call_NA_rate</text>
<g id="linecollection2">
<path style="fill: none; stroke: #e6e6e6; stroke-width: 1.000000; stroke-linejoin: miter; stroke-linecap: butt;  opacity: 1.000000"  d="M 360.586508,403.011142 L 79.904448,334.264487 L 68.180167,121.346024 "/>
<path style="fill: none; stroke: #e6e6e6; stroke-width: 1.000000; stroke-linejoin: miter; stroke-linecap: butt;  opacity: 1.000000"  d="M 379.914611,388.198980 L 100.956846,320.738605 L 90.478343,109.153946 "/>
<path style="fill: none; stroke: #e6e6e6; stroke-width: 1.000000; stroke-linejoin: miter; stroke-linecap: butt;  opacity: 1.000000"  d="M 398.874695,373.668849 L 121.625951,307.458984 L 112.348919,97.195669 "/>
<path style="fill: none; stroke: #e6e6e6; stroke-width: 1.000000; stroke-linejoin: miter; stroke-linecap: butt;  opacity: 1.000000"  d="M 417.477173,359.412772 L 141.922136,294.418958 L 133.804078,85.464532 "/>
<path style="fill: none; stroke: #e6e6e6; stroke-width: 1.000000; stroke-linejoin: miter; stroke-linecap: butt;  opacity: 1.000000"  d="M 435.732067,345.423067 L 161.855403,281.612103 L 154.855544,73.954124 "/>
<path style="fill: none; stroke: #e6e6e6; stroke-width: 1.000000; stroke-linejoin: miter; stroke-linecap: butt;  opacity: 1.000000"  d="M 453.649029,331.692337 L 181.435400,269.032219 L 175.514605,62.658273 "/>
<path style="fill: none; stroke: #e6e6e6; stroke-width: 1.000000; stroke-linejoin: miter; stroke-linecap: butt;  opacity: 1.000000"  d="M 471.237356,318.213458 L 200.671436,256.673325 L 195.792131,51.571035 "/>
<path style="fill: none; stroke: #e6e6e6; stroke-width: 1.000000; stroke-linejoin: miter; stroke-linecap: butt;  opacity: 1.000000"  d="M 488.506009,304.979563 L 219.572495,244.529648 L 215.698595,40.686685 "/>
<path style="fill: none; stroke: #e6e6e6; stroke-width: 1.000000; stroke-linejoin: miter; stroke-linecap: butt;  opacity: 1.000000"  d="M 505.463623,291.984033 L 238.147253,232.595617 L 235.244090,29.999704 "/>
</g>
<g id="xtick7">
<text style="font-size: 12.000000; font-family: Bitstream Vera Sans; font-style: Roman; fill: #000000;" x="352.086508" y="407.511142" >0.1</text>
<path style="fill: none; stroke: #000000; stroke-width: 1.000000; stroke-linejoin: miter; stroke-linecap: square;  opacity: 1.000000"  d="M 360.586508,403.011142 L 366.304039,408.606662 "/>
</g>
<g id="xtick8">
<text style="font-size: 12.000000; font-family: Bitstream Vera Sans; font-style: Roman; fill: #000000;" x="370.891174" y="392.698980" >0.2</text>
<path style="fill: none; stroke: #000000; stroke-width: 1.000000; stroke-linejoin: miter; stroke-linecap: square;  opacity: 1.000000"  d="M 379.914611,388.198980 L 385.632141,393.794500 "/>
</g>
<g id="xtick9">
<text style="font-size: 12.000000; font-family: Bitstream Vera Sans; font-style: Roman; fill: #000000;" x="389.874695" y="378.168849" >0.3</text>
<path style="fill: none; stroke: #000000; stroke-width: 1.000000; stroke-linejoin: miter; stroke-linecap: square;  opacity: 1.000000"  d="M 398.874695,373.668849 L 404.592225,379.264370 "/>
</g>
<g id="xtick10">
<text style="font-size: 12.000000; font-family: Bitstream Vera Sans; font-style: Roman; fill: #000000;" x="408.477173" y="363.912772" >0.4</text>
<path style="fill: none; stroke: #000000; stroke-width: 1.000000; stroke-linejoin: miter; stroke-linecap: square;  opacity: 1.000000"  d="M 417.477173,359.412772 L 423.194703,365.008292 "/>
</g>
<g id="xtick11">
<text style="font-size: 12.000000; font-family: Bitstream Vera Sans; font-style: Roman; fill: #000000;" x="426.732067" y="349.923067" >0.5</text>
<path style="fill: none; stroke: #000000; stroke-width: 1.000000; stroke-linejoin: miter; stroke-linecap: square;  opacity: 1.000000"  d="M 435.732067,345.423067 L 441.449597,351.018587 "/>
</g>
<g id="xtick12">
<text style="font-size: 12.000000; font-family: Bitstream Vera Sans; font-style: Roman; fill: #000000;" x="444.649029" y="336.192337" >0.6</text>
<path style="fill: none; stroke: #000000; stroke-width: 1.000000; stroke-linejoin: miter; stroke-linecap: square;  opacity: 1.000000"  d="M 453.649029,331.692337 L 459.366559,337.287858 "/>
</g>
<g id="xtick13">
<text style="font-size: 12.000000; font-family: Bitstream Vera Sans; font-style: Roman; fill: #000000;" x="462.237356" y="322.713458" >0.7</text>
<path style="fill: none; stroke: #000000; stroke-width: 1.000000; stroke-linejoin: miter; stroke-linecap: square;  opacity: 1.000000"  d="M 471.237356,318.213458 L 476.954887,323.808978 "/>
</g>
<g id="xtick14">
<text style="font-size: 12.000000; font-family: Bitstream Vera Sans; font-style: Roman; fill: #000000;" x="479.506009" y="309.479563" >0.8</text>
<path style="fill: none; stroke: #000000; stroke-width: 1.000000; stroke-linejoin: miter; stroke-linecap: square;  opacity: 1.000000"  d="M 488.506009,304.979563 L 494.223539,310.575083 "/>
</g>
<g id="xtick15">
<text style="font-size: 12.000000; font-family: Bitstream Vera Sans; font-style: Roman; fill: #000000;" x="496.463623" y="296.484033" >0.9</text>
<path style="fill: none; stroke: #000000; stroke-width: 1.000000; stroke-linejoin: miter; stroke-linecap: square;  opacity: 1.000000"  d="M 505.463623,291.984033 L 511.181153,297.579553 "/>
</g>
</g>
<g id="axis3d3">
<polygon style="fill: #f2f2f2; stroke: #f2f2f2; stroke-width: 1.000000; stroke-linejoin: miter; stroke-linecap: square;  opacity: 0.100000"  points = "76.357701,336.543225 357.328625,405.507833 508.260241,289.840834 241.211914,230.626613"/>
<path style="fill: none; stroke: #000000; stroke-width: 0.750000; stroke-linejoin: miter; stroke-linecap: square;  opacity: 1.000000"  d="M 76.357701,336.543225 L 64.421350,123.401250 "/>
<text style="font-size: 12.000000; font-family: Bitstream Vera Sans; font-style: Roman; fill: #000000;" x="44.349952" y="332.628152" transform="translate(44.349952,332.628152) rotate(-92.4) translate(-44.349952,-332.628152)">no_of_total_accessions_filtered</text>
<g id="linecollection3">
<path style="fill: none; stroke: #e6e6e6; stroke-width: 1.000000; stroke-linejoin: miter; stroke-linecap: butt;  opacity: 1.000000"  d="M 76.131056,332.496136 L 241.159600,226.768965 L 508.472750,285.875342 "/>
<path style="fill: none; stroke: #e6e6e6; stroke-width: 1.000000; stroke-linejoin: miter; stroke-linecap: butt;  opacity: 1.000000"  d="M 74.564219,304.517842 L 240.798152,200.115958 L 509.941481,258.468243 "/>
<path style="fill: none; stroke: #e6e6e6; stroke-width: 1.000000; stroke-linejoin: miter; stroke-linecap: butt;  opacity: 1.000000"  d="M 72.974868,276.137529 L 240.431889,173.107876 L 511.430638,230.679990 "/>
<path style="fill: none; stroke: #e6e6e6; stroke-width: 1.000000; stroke-linejoin: miter; stroke-linecap: butt;  opacity: 1.000000"  d="M 71.362515,247.346469 L 240.060714,145.737577 L 512.940650,202.502577 "/>
<path style="fill: none; stroke: #e6e6e6; stroke-width: 1.000000; stroke-linejoin: miter; stroke-linecap: butt;  opacity: 1.000000"  d="M 69.726656,218.135679 L 239.684528,117.997723 L 514.471958,173.927770 "/>
<path style="fill: none; stroke: #e6e6e6; stroke-width: 1.000000; stroke-linejoin: miter; stroke-linecap: butt;  opacity: 1.000000"  d="M 68.066774,188.495913 L 239.303227,89.880780 L 516.025016,144.947105 "/>
<path style="fill: none; stroke: #e6e6e6; stroke-width: 1.000000; stroke-linejoin: miter; stroke-linecap: butt;  opacity: 1.000000"  d="M 66.382335,158.417653 L 238.916708,61.379006 L 517.600290,115.551871 "/>
<path style="fill: none; stroke: #e6e6e6; stroke-width: 1.000000; stroke-linejoin: miter; stroke-linecap: butt;  opacity: 1.000000"  d="M 64.672790,127.891094 L 238.524862,32.484445 L 519.198260,85.733110 "/>
</g>
<g id="xtick16">
<text style="font-size: 12.000000; font-family: Bitstream Vera Sans; font-style: Roman; fill: #000000;" x="73.131056" y="336.996136" >0</text>
<path style="fill: none; stroke: #000000; stroke-width: 1.000000; stroke-linejoin: miter; stroke-linecap: square;  opacity: 1.000000"  d="M 76.131056,332.496136 L 68.138103,332.831851 "/>
</g>
<g id="xtick17">
<text style="font-size: 12.000000; font-family: Bitstream Vera Sans; font-style: Roman; fill: #000000;" x="67.564219" y="309.017842" >50</text>
<path style="fill: none; stroke: #000000; stroke-width: 1.000000; stroke-linejoin: miter; stroke-linecap: square;  opacity: 1.000000"  d="M 74.564219,304.517842 L 66.571266,304.853558 "/>
</g>
<g id="xtick18">
<text style="font-size: 12.000000; font-family: Bitstream Vera Sans; font-style: Roman; fill: #000000;" x="61.974868" y="280.637529" >100</text>
<path style="fill: none; stroke: #000000; stroke-width: 1.000000; stroke-linejoin: miter; stroke-linecap: square;  opacity: 1.000000"  d="M 72.974868,276.137529 L 64.981916,276.473245 "/>
</g>
<g id="xtick19">
<text style="font-size: 12.000000; font-family: Bitstream Vera Sans; font-style: Roman; fill: #000000;" x="60.362515" y="251.846469" >150</text>
<path style="fill: none; stroke: #000000; stroke-width: 1.000000; stroke-linejoin: miter; stroke-linecap: square;  opacity: 1.000000"  d="M 71.362515,247.346469 L 63.369562,247.682184 "/>
</g>
<g id="xtick20">
<text style="font-size: 12.000000; font-family: Bitstream Vera Sans; font-style: Roman; fill: #000000;" x="58.726656" y="222.635679" >200</text>
<path style="fill: none; stroke: #000000; stroke-width: 1.000000; stroke-linejoin: miter; stroke-linecap: square;  opacity: 1.000000"  d="M 69.726656,218.135679 L 61.733703,218.471394 "/>
</g>
<g id="xtick21">
<text style="font-size: 12.000000; font-family: Bitstream Vera Sans; font-style: Roman; fill: #000000;" x="57.066774" y="192.995913" >250</text>
<path style="fill: none; stroke: #000000; stroke-width: 1.000000; stroke-linejoin: miter; stroke-linecap: square;  opacity: 1.000000"  d="M 68.066774,188.495913 L 60.073821,188.831629 "/>
</g>
<g id="xtick22">
<text style="font-size: 12.000000; font-family: Bitstream Vera Sans; font-style: Roman; fill: #000000;" x="55.382335" y="162.917653" >300</text>
<path style="fill: none; stroke: #000000; stroke-width: 1.000000; stroke-linejoin: miter; stroke-linecap: square;  opacity: 1.000000"  d="M 66.382335,158.417653 L 58.389382,158.753368 "/>
</g>
<g id="xtick23">
<text style="font-size: 12.000000; font-family: Bitstream Vera Sans; font-style: Roman; fill: #000000;" x="53.672790" y="132.391094" >350</text>
<path style="fill: none; stroke: #000000; stroke-width: 1.000000; stroke-linejoin: miter; stroke-linecap: square;  opacity: 1.000000"  d="M 64.672790,127.891094 L 56.679837,128.226810 "/>
</g>
</g>
<g id="axes1">
<g id="regpolycollection1">
<defs>
    <clipPath id="4685744057707115011">
    <rect x="0.000000" y="0.000000" width="576.000000" height="432.000000"
    style="stroke: gray; fill: none;"/>
    </clipPath>
</defs>
<polygon style="fill: #0000ff; stroke: #000000; stroke-width: 1.000000; stroke-linejoin: miter; stroke-linecap: butt;  opacity: 0.514522" clip-path="url(#4685744057707115011)" points = "250.083137,297.379708 250.862828,297.503199 251.566197,297.861584 252.124394,298.419781 252.482779,299.123150 252.606270,299.902841 252.482779,300.682532 252.124394,301.385901 251.566197,301.944098 250.862828,302.302482 250.083137,302.425973 249.303446,302.302482 248.600077,301.944098 248.041880,301.385901 247.683496,300.682532 247.560005,299.902841 247.683496,299.123150 248.041880,298.419781 248.600077,297.861584 249.303446,297.503199"/>
<polygon style="fill: #0000ff; stroke: #000000; stroke-width: 1.000000; stroke-linejoin: miter; stroke-linecap: butt;  opacity: 0.774094" clip-path="url(#4685744057707115011)" points = "74.432640,131.247955 75.212331,131.371446 75.915700,131.729831 76.473897,132.288028 76.832282,132.991397 76.955772,133.771088 76.832282,134.550778 76.473897,135.254148 75.915700,135.812345 75.212331,136.170729 74.432640,136.294220 73.652949,136.170729 72.949580,135.812345 72.391383,135.254148 72.032998,134.550778 71.909507,133.771088 72.032998,132.991397 72.391383,132.288028 72.949580,131.729831 73.652949,131.371446"/>
<polygon style="fill: #0000ff; stroke: #000000; stroke-width: 1.000000; stroke-linejoin: miter; stroke-linecap: butt;  opacity: 0.596186" clip-path="url(#4685744057707115011)" points = "102.162546,233.758759 102.942237,233.882250 103.645606,234.240635 104.203803,234.798832 104.562188,235.502201 104.685679,236.281892 104.562188,237.061583 104.203803,237.764952 103.645606,238.323149 102.942237,238.681534 102.162546,238.805024 101.382855,238.681534 100.679486,238.323149 100.121289,237.764952 99.762905,237.061583 99.639414,236.281892 99.762905,235.502201 100.121289,234.798832 100.679486,234.240635 101.382855,233.882250"/>
<polygon style="fill: #0000ff; stroke: #000000; stroke-width: 1.000000; stroke-linejoin: miter; stroke-linecap: butt;  opacity: 0.502067" clip-path="url(#4685744057707115011)" points = "125.220792,266.195958 126.000482,266.319449 126.703852,266.677834 127.262049,267.236031 127.620433,267.939400 127.743924,268.719091 127.620433,269.498782 127.262049,270.202151 126.703852,270.760348 126.000482,271.118732 125.220792,271.242223 124.441101,271.118732 123.737731,270.760348 123.179534,270.202151 122.821150,269.498782 122.697659,268.719091 122.821150,267.939400 123.179534,267.236031 123.737731,266.677834 124.441101,266.319449"/>
<polygon style="fill: #0000ff; stroke: #000000; stroke-width: 1.000000; stroke-linejoin: miter; stroke-linecap: butt;  opacity: 0.377180" clip-path="url(#4685744057707115011)" points = "185.665462,231.690136 186.445153,231.813627 187.148522,232.172012 187.706719,232.730209 188.065104,233.433578 188.188595,234.213269 188.065104,234.992960 187.706719,235.696329 187.148522,236.254526 186.445153,236.612910 185.665462,236.736401 184.885771,236.612910 184.182402,236.254526 183.624205,235.696329 183.265820,234.992960 183.142330,234.213269 183.265820,233.433578 183.624205,232.730209 184.182402,232.172012 184.885771,231.813627"/>
<polygon style="fill: #0000ff; stroke: #000000; stroke-width: 1.000000; stroke-linejoin: miter; stroke-linecap: butt;  opacity: 0.457172" clip-path="url(#4685744057707115011)" points = "145.830934,256.698263 146.610625,256.821754 147.313994,257.180138 147.872191,257.738335 148.230575,258.441705 148.354066,259.221395 148.230575,260.001086 147.872191,260.704455 147.313994,261.262652 146.610625,261.621037 145.830934,261.744528 145.051243,261.621037 144.347874,261.262652 143.789677,260.704455 143.431292,260.001086 143.307801,259.221395 143.431292,258.441705 143.789677,257.738335 144.347874,257.180138 145.051243,256.821754"/>
<polygon style="fill: #0000ff; stroke: #000000; stroke-width: 1.000000; stroke-linejoin: miter; stroke-linecap: butt;  opacity: 0.416815" clip-path="url(#4685744057707115011)" points = "165.928048,244.081290 166.707739,244.204781 167.411108,244.563165 167.969305,245.121362 168.327690,245.824731 168.451181,246.604422 168.327690,247.384113 167.969305,248.087482 167.411108,248.645679 166.707739,249.004064 165.928048,249.127555 165.148357,249.004064 164.444988,248.645679 163.886791,248.087482 163.528406,247.384113 163.404916,246.604422 163.528406,245.824731 163.886791,245.121362 164.444988,244.563165 165.148357,244.204781"/>
<polygon style="fill: #0000ff; stroke: #000000; stroke-width: 1.000000; stroke-linejoin: miter; stroke-linecap: butt;  opacity: 0.817631" clip-path="url(#4685744057707115011)" points = "129.062159,142.816647 129.841850,142.940138 130.545219,143.298522 131.103416,143.856719 131.461801,144.560088 131.585292,145.339779 131.461801,146.119470 131.103416,146.822839 130.545219,147.381036 129.841850,147.739421 129.062159,147.862912 128.282468,147.739421 127.579099,147.381036 127.020902,146.822839 126.662517,146.119470 126.539027,145.339779 126.662517,144.560088 127.020902,143.856719 127.579099,143.298522 128.282468,142.940138"/>
<polygon style="fill: #0000ff; stroke: #000000; stroke-width: 1.000000; stroke-linejoin: miter; stroke-linecap: butt;  opacity: 0.338248" clip-path="url(#4685744057707115011)" points = "205.052747,219.518794 205.832438,219.642285 206.535807,220.000669 207.094004,220.558866 207.452389,221.262236 207.575880,222.041926 207.452389,222.821617 207.094004,223.524987 206.535807,224.083184 205.832438,224.441568 205.052747,224.565059 204.273056,224.441568 203.569687,224.083184 203.011490,223.524987 202.653106,222.821617 202.529615,222.041926 202.653106,221.262236 203.011490,220.558866 203.569687,220.000669 204.273056,219.642285"/>
<polygon style="fill: #0000ff; stroke: #000000; stroke-width: 1.000000; stroke-linejoin: miter; stroke-linecap: butt;  opacity: 0.300000" clip-path="url(#4685744057707115011)" points = "224.099138,207.561465 224.878829,207.684956 225.582198,208.043341 226.140395,208.601538 226.498780,209.304907 226.622271,210.084598 226.498780,210.864288 226.140395,211.567658 225.582198,212.125855 224.878829,212.484239 224.099138,212.607730 223.319447,212.484239 222.616078,212.125855 222.057881,211.567658 221.699496,210.864288 221.576006,210.084598 221.699496,209.304907 222.057881,208.601538 222.616078,208.043341 223.319447,207.684956"/>
<polygon style="fill: #0000ff; stroke: #000000; stroke-width: 1.000000; stroke-linejoin: miter; stroke-linecap: butt;  opacity: 0.633849" clip-path="url(#4685744057707115011)" points = "155.067746,248.104334 155.847437,248.227825 156.550806,248.586209 157.109003,249.144406 157.467387,249.847775 157.590878,250.627466 157.467387,251.407157 157.109003,252.110526 156.550806,252.668723 155.847437,253.027108 155.067746,253.150599 154.288055,253.027108 153.584686,252.668723 153.026489,252.110526 152.668104,251.407157 152.544613,250.627466 152.668104,249.847775 153.026489,249.144406 153.584686,248.586209 154.288055,248.227825"/>
<polygon style="fill: #0000ff; stroke: #000000; stroke-width: 1.000000; stroke-linejoin: miter; stroke-linecap: butt;  opacity: 0.530496" clip-path="url(#4685744057707115011)" points = "177.422202,287.232154 178.201893,287.355645 178.905262,287.714029 179.463459,288.272226 179.821843,288.975596 179.945334,289.755286 179.821843,290.534977 179.463459,291.238346 178.905262,291.796543 178.201893,292.154928 177.422202,292.278419 176.642511,292.154928 175.939142,291.796543 175.380945,291.238346 175.022560,290.534977 174.899069,289.755286 175.022560,288.975596 175.380945,288.272226 175.939142,287.714029 176.642511,287.355645"/>
<polygon style="fill: #0000ff; stroke: #000000; stroke-width: 1.000000; stroke-linejoin: miter; stroke-linecap: butt;  opacity: 0.484408" clip-path="url(#4685744057707115011)" points = "197.652155,278.019995 198.431845,278.143486 199.135215,278.501870 199.693412,279.060067 200.051796,279.763436 200.175287,280.543127 200.051796,281.322818 199.693412,282.026187 199.135215,282.584384 198.431845,282.942769 197.652155,283.066260 196.872464,282.942769 196.169094,282.584384 195.610897,282.026187 195.252513,281.322818 195.129022,280.543127 195.252513,279.763436 195.610897,279.060067 196.169094,278.501870 196.872464,278.143486"/>
<polygon style="fill: #0000ff; stroke: #000000; stroke-width: 1.000000; stroke-linejoin: miter; stroke-linecap: butt;  opacity: 0.443559" clip-path="url(#4685744057707115011)" points = "217.399861,265.133139 218.179552,265.256630 218.882921,265.615014 219.441118,266.173211 219.799503,266.876581 219.922994,267.656271 219.799503,268.435962 219.441118,269.139332 218.882921,269.697529 218.179552,270.055913 217.399861,270.179404 216.620171,270.055913 215.916801,269.697529 215.358604,269.139332 215.000220,268.435962 214.876729,267.656271 215.000220,266.876581 215.358604,266.173211 215.916801,265.615014 216.620171,265.256630"/>
<polygon style="fill: #0000ff; stroke: #000000; stroke-width: 1.000000; stroke-linejoin: miter; stroke-linecap: butt;  opacity: 0.403446" clip-path="url(#4685744057707115011)" points = "236.792007,252.478314 237.571697,252.601805 238.275067,252.960189 238.833264,253.518386 239.191648,254.221755 239.315139,255.001446 239.191648,255.781137 238.833264,256.484506 238.275067,257.042703 237.571697,257.401088 236.792007,257.524579 236.012316,257.401088 235.308947,257.042703 234.750750,256.484506 234.392365,255.781137 234.268874,255.001446 234.392365,254.221755 234.750750,253.518386 235.308947,252.960189 236.012316,252.601805"/>
<polygon style="fill: #0000ff; stroke: #000000; stroke-width: 1.000000; stroke-linejoin: miter; stroke-linecap: butt;  opacity: 0.861968" clip-path="url(#4685744057707115011)" points = "184.694656,154.597735 185.474347,154.721226 186.177716,155.079611 186.735913,155.637808 187.094298,156.341177 187.217789,157.120868 187.094298,157.900559 186.735913,158.603928 186.177716,159.162125 185.474347,159.520510 184.694656,159.644000 183.914965,159.520510 183.211596,159.162125 182.653399,158.603928 182.295015,157.900559 182.171524,157.120868 182.295015,156.341177 182.653399,155.637808 183.211596,155.079611 183.914965,154.721226"/>
<polygon style="fill: #0000ff; stroke: #000000; stroke-width: 1.000000; stroke-linejoin: miter; stroke-linecap: butt;  opacity: 0.364049" clip-path="url(#4685744057707115011)" points = "255.838108,240.049308 256.617798,240.172799 257.321168,240.531184 257.879365,241.089381 258.237749,241.792750 258.361240,242.572441 258.237749,243.352131 257.879365,244.055501 257.321168,244.613698 256.617798,244.972082 255.838108,245.095573 255.058417,244.972082 254.355048,244.613698 253.796851,244.055501 253.438466,243.352131 253.314975,242.572441 253.438466,241.792750 253.796851,241.089381 254.355048,240.531184 255.058417,240.172799"/>
<polygon style="fill: #0000ff; stroke: #000000; stroke-width: 1.000000; stroke-linejoin: miter; stroke-linecap: butt;  opacity: 0.325348" clip-path="url(#4685744057707115011)" points = "274.547345,227.840131 275.327036,227.963622 276.030405,228.322007 276.588602,228.880204 276.946986,229.583573 277.070477,230.363264 276.946986,231.142955 276.588602,231.846324 276.030405,232.404521 275.327036,232.762906 274.547345,232.886396 273.767654,232.762906 273.064285,232.404521 272.506088,231.846324 272.147703,231.142955 272.024212,230.363264 272.147703,229.583573 272.506088,228.880204 273.064285,228.322007 273.767654,227.963622"/>
<polygon style="fill: #0000ff; stroke: #000000; stroke-width: 1.000000; stroke-linejoin: miter; stroke-linecap: butt;  opacity: 0.673496" clip-path="url(#4685744057707115011)" points = "208.819529,261.524799 209.599220,261.648290 210.302589,262.006674 210.860786,262.564871 211.219170,263.268240 211.342661,264.047931 211.219170,264.827622 210.860786,265.530991 210.302589,266.089188 209.599220,266.447573 208.819529,266.571064 208.039838,266.447573 207.336469,266.089188 206.778272,265.530991 206.419887,264.827622 206.296396,264.047931 206.419887,263.268240 206.778272,262.564871 207.336469,262.006674 208.039838,261.648290"/>
<polygon style="fill: #0000ff; stroke: #000000; stroke-width: 1.000000; stroke-linejoin: miter; stroke-linecap: butt;  opacity: 0.561233" clip-path="url(#4685744057707115011)" points = "230.257332,306.853971 231.037023,306.977461 231.740392,307.335846 232.298589,307.894043 232.656974,308.597412 232.780464,309.377103 232.656974,310.156794 232.298589,310.860163 231.740392,311.418360 231.037023,311.776745 230.257332,311.900236 229.477641,311.776745 228.774272,311.418360 228.216075,310.860163 227.857690,310.156794 227.734199,309.377103 227.857690,308.597412 228.216075,307.894043 228.774272,307.335846 229.477641,306.977461"/>
<polygon style="fill: #0000ff; stroke: #000000; stroke-width: 1.000000; stroke-linejoin: miter; stroke-linecap: butt;  opacity: 0.514522" clip-path="url(#4685744057707115011)" points = "250.083137,297.379708 250.862828,297.503199 251.566197,297.861584 252.124394,298.419781 252.482779,299.123150 252.606270,299.902841 252.482779,300.682532 252.124394,301.385901 251.566197,301.944098 250.862828,302.302482 250.083137,302.425973 249.303446,302.302482 248.600077,301.944098 248.041880,301.385901 247.683496,300.682532 247.560005,299.902841 247.683496,299.123150 248.041880,298.419781 248.600077,297.861584 249.303446,297.503199"/>
<polygon style="fill: #0000ff; stroke: #000000; stroke-width: 1.000000; stroke-linejoin: miter; stroke-linecap: butt;  opacity: 0.473127" clip-path="url(#4685744057707115011)" points = "269.482425,284.230297 270.262116,284.353788 270.965485,284.712173 271.523682,285.270370 271.882067,285.973739 272.005558,286.753430 271.882067,287.533121 271.523682,288.236490 270.965485,288.794687 270.262116,289.153072 269.482425,289.276562 268.702734,289.153072 267.999365,288.794687 267.441168,288.236490 267.082784,287.533121 266.959293,286.753430 267.082784,285.973739 267.441168,285.270370 267.999365,284.712173 268.702734,284.353788"/>
<polygon style="fill: #0000ff; stroke: #000000; stroke-width: 1.000000; stroke-linejoin: miter; stroke-linecap: butt;  opacity: 0.907126" clip-path="url(#4685744057707115011)" points = "241.358009,166.597125 242.137700,166.720615 242.841069,167.079000 243.399266,167.637197 243.757650,168.340566 243.881141,169.120257 243.757650,169.899948 243.399266,170.603317 242.841069,171.161514 242.137700,171.519899 241.358009,171.643390 240.578318,171.519899 239.874949,171.161514 239.316752,170.603317 238.958367,169.899948 238.834876,169.120257 238.958367,168.340566 239.316752,167.637197 239.874949,167.079000 240.578318,166.720615"/>
<polygon style="fill: #0000ff; stroke: #000000; stroke-width: 1.000000; stroke-linejoin: miter; stroke-linecap: butt;  opacity: 0.432482" clip-path="url(#4685744057707115011)" points = "288.530128,271.319201 289.309819,271.442692 290.013188,271.801077 290.571385,272.359274 290.929770,273.062643 291.053261,273.842334 290.929770,274.622025 290.571385,275.325394 290.013188,275.883591 289.309819,276.241976 288.530128,276.365466 287.750437,276.241976 287.047068,275.883591 286.488871,275.325394 286.130486,274.622025 286.006996,273.842334 286.130486,273.062643 286.488871,272.359274 287.047068,271.801077 287.750437,271.442692"/>
<polygon style="fill: #0000ff; stroke: #000000; stroke-width: 1.000000; stroke-linejoin: miter; stroke-linecap: butt;  opacity: 0.392568" clip-path="url(#4685744057707115011)" points = "307.235718,258.640000 308.015409,258.763490 308.718778,259.121875 309.276975,259.680072 309.635360,260.383441 309.758851,261.163132 309.635360,261.942823 309.276975,262.646192 308.718778,263.204389 308.015409,263.562774 307.235718,263.686265 306.456027,263.562774 305.752658,263.204389 305.194461,262.646192 304.836076,261.942823 304.712585,261.163132 304.836076,260.383441 305.194461,259.680072 305.752658,259.121875 306.456027,258.763490"/>
<polygon style="fill: #0000ff; stroke: #000000; stroke-width: 1.000000; stroke-linejoin: miter; stroke-linecap: butt;  opacity: 0.353363" clip-path="url(#4685744057707115011)" points = "325.608330,246.186500 326.388021,246.309991 327.091390,246.668376 327.649587,247.226573 328.007972,247.929942 328.131462,248.709633 328.007972,249.489324 327.649587,250.192693 327.091390,250.750890 326.388021,251.109274 325.608330,251.232765 324.828639,251.109274 324.125270,250.750890 323.567073,250.192693 323.208688,249.489324 323.085197,248.709633 323.208688,247.929942 323.567073,247.226573 324.125270,246.668376 324.828639,246.309991"/>
<polygon style="fill: #0000ff; stroke: #000000; stroke-width: 1.000000; stroke-linejoin: miter; stroke-linecap: butt;  opacity: 0.715215" clip-path="url(#4685744057707115011)" points = "263.487128,274.008086 264.266819,274.131577 264.970189,274.489961 265.528386,275.048158 265.886770,275.751527 266.010261,276.531218 265.886770,277.310909 265.528386,278.014278 264.970189,278.572475 264.266819,278.930860 263.487128,279.054351 262.707438,278.930860 262.004068,278.572475 261.445871,278.014278 261.087487,277.310909 260.963996,276.531218 261.087487,275.751527 261.445871,275.048158 262.004068,274.489961 262.707438,274.131577"/>
<polygon style="fill: #0000ff; stroke: #000000; stroke-width: 1.000000; stroke-linejoin: miter; stroke-linecap: butt;  opacity: 0.593047" clip-path="url(#4685744057707115011)" points = "283.810619,326.181503 284.590310,326.304994 285.293679,326.663378 285.851876,327.221575 286.210261,327.924944 286.333751,328.704635 286.210261,329.484326 285.851876,330.187695 285.293679,330.745892 284.590310,331.104277 283.810619,331.227768 283.030928,331.104277 282.327559,330.745892 281.769362,330.187695 281.410977,329.484326 281.287486,328.704635 281.410977,327.924944 281.769362,327.221575 282.327559,326.663378 283.030928,326.304994"/>
<polygon style="fill: #0000ff; stroke: #000000; stroke-width: 1.000000; stroke-linejoin: miter; stroke-linecap: butt;  opacity: 0.953129" clip-path="url(#4685744057707115011)" points = "299.081137,178.820938 299.860828,178.944429 300.564197,179.302814 301.122394,179.861011 301.480778,180.564380 301.604269,181.344071 301.480778,182.123762 301.122394,182.827131 300.564197,183.385328 299.860828,183.743713 299.081137,183.867203 298.301446,183.743713 297.598077,183.385328 297.039880,182.827131 296.681495,182.123762 296.558004,181.344071 296.681495,180.564380 297.039880,179.861011 297.598077,179.302814 298.301446,178.944429"/>
<polygon style="fill: #0000ff; stroke: #000000; stroke-width: 1.000000; stroke-linejoin: miter; stroke-linecap: butt;  opacity: 0.545043" clip-path="url(#4685744057707115011)" points = "303.221138,317.000482 304.000829,317.123973 304.704198,317.482358 305.262395,318.040555 305.620780,318.743924 305.744271,319.523615 305.620780,320.303306 305.262395,321.006675 304.704198,321.564872 304.000829,321.923256 303.221138,322.046747 302.441447,321.923256 301.738078,321.564872 301.179881,321.006675 300.821496,320.303306 300.698005,319.523615 300.821496,318.743924 301.179881,318.040555 301.738078,317.482358 302.441447,317.123973"/>
<polygon style="fill: #0000ff; stroke: #000000; stroke-width: 1.000000; stroke-linejoin: miter; stroke-linecap: butt;  opacity: 0.503090" clip-path="url(#4685744057707115011)" points = "322.260843,303.582605 323.040534,303.706096 323.743903,304.064481 324.302100,304.622678 324.660485,305.326047 324.783976,306.105738 324.660485,306.885429 324.302100,307.588798 323.743903,308.146995 323.040534,308.505380 322.260843,308.628870 321.481152,308.505380 320.777783,308.146995 320.219586,307.588798 319.861202,306.885429 319.737711,306.105738 319.861202,305.326047 320.219586,304.622678 320.777783,304.064481 321.481152,303.706096"/>
<polygon style="fill: #0000ff; stroke: #000000; stroke-width: 1.000000; stroke-linejoin: miter; stroke-linecap: butt;  opacity: 0.461903" clip-path="url(#4685744057707115011)" points = "340.953196,290.409518 341.732887,290.533009 342.436256,290.891394 342.994453,291.449591 343.352838,292.152960 343.476329,292.932651 343.352838,293.712342 342.994453,294.415711 342.436256,294.973908 341.732887,295.332293 340.953196,295.455784 340.173506,295.332293 339.470136,294.973908 338.911939,294.415711 338.553555,293.712342 338.430064,292.932651 338.553555,292.152960 338.911939,291.449591 339.470136,290.891394 340.173506,290.533009"/>
<polygon style="fill: #0000ff; stroke: #000000; stroke-width: 1.000000; stroke-linejoin: miter; stroke-linecap: butt;  opacity: 0.421461" clip-path="url(#4685744057707115011)" points = "359.307617,277.474583 360.087307,277.598074 360.790677,277.956459 361.348874,278.514656 361.707258,279.218025 361.830749,279.997716 361.707258,280.777407 361.348874,281.480776 360.790677,282.038973 360.087307,282.397358 359.307617,282.520848 358.527926,282.397358 357.824557,282.038973 357.266360,281.480776 356.907975,280.777407 356.784484,279.997716 356.907975,279.218025 357.266360,278.514656 357.824557,277.956459 358.527926,277.598074"/>
<polygon style="fill: #0000ff; stroke: #000000; stroke-width: 1.000000; stroke-linejoin: miter; stroke-linecap: butt;  opacity: 0.381743" clip-path="url(#4685744057707115011)" points = "377.333186,264.771400 378.112877,264.894891 378.816246,265.253275 379.374443,265.811472 379.732828,266.514841 379.856319,267.294532 379.732828,268.074223 379.374443,268.777592 378.816246,269.335789 378.112877,269.694174 377.333186,269.817665 376.553495,269.694174 375.850126,269.335789 375.291929,268.777592 374.933544,268.074223 374.810054,267.294532 374.933544,266.514841 375.291929,265.811472 375.850126,265.253275 376.553495,264.894891"/>
<polygon style="fill: #0000ff; stroke: #000000; stroke-width: 1.000000; stroke-linejoin: miter; stroke-linecap: butt;  opacity: 0.757683" clip-path="url(#4685744057707115011)" points = "319.136931,286.715658 319.916622,286.839149 320.619991,287.197533 321.178188,287.755730 321.536573,288.459099 321.660064,289.238790 321.536573,290.018481 321.178188,290.721850 320.619991,291.280047 319.916622,291.638432 319.136931,291.761923 318.357240,291.638432 317.653871,291.280047 317.095674,290.721850 316.737289,290.018481 316.613798,289.238790 316.737289,288.459099 317.095674,287.755730 317.653871,287.197533 318.357240,286.839149"/>
<polygon style="fill: #0000ff; stroke: #000000; stroke-width: 1.000000; stroke-linejoin: miter; stroke-linecap: butt;  opacity: 0.630659" clip-path="url(#4685744057707115011)" points = "338.163055,341.272064 338.942746,341.395555 339.646115,341.753940 340.204312,342.312137 340.562696,343.015506 340.686187,343.795197 340.562696,344.574888 340.204312,345.278257 339.646115,345.836454 338.942746,346.194838 338.163055,346.318329 337.383364,346.194838 336.679995,345.836454 336.121798,345.278257 335.763413,344.574888 335.639922,343.795197 335.763413,343.015506 336.121798,342.312137 336.679995,341.753940 337.383364,341.395555"/>
<polygon style="fill: #0000ff; stroke: #000000; stroke-width: 1.000000; stroke-linejoin: miter; stroke-linecap: butt;  opacity: 0.581871" clip-path="url(#4685744057707115011)" points = "357.159292,331.858274 357.938983,331.981765 358.642352,332.340149 359.200549,332.898346 359.558934,333.601716 359.682425,334.381406 359.558934,335.161097 359.200549,335.864467 358.642352,336.422664 357.938983,336.781048 357.159292,336.904539 356.379602,336.781048 355.676232,336.422664 355.118035,335.864467 354.759651,335.161097 354.636160,334.381406 354.759651,333.601716 355.118035,332.898346 355.676232,332.340149 356.379602,331.981765"/>
<polygon style="fill: #0000ff; stroke: #000000; stroke-width: 1.000000; stroke-linejoin: miter; stroke-linecap: butt;  opacity: 1.000000" clip-path="url(#4685744057707115011)" points = "357.894053,191.275533 358.673743,191.399024 359.377113,191.757408 359.935310,192.315605 360.293694,193.018974 360.417185,193.798665 360.293694,194.578356 359.935310,195.281725 359.377113,195.839922 358.673743,196.198307 357.894053,196.321798 357.114362,196.198307 356.410992,195.839922 355.852795,195.281725 355.494411,194.578356 355.370920,193.798665 355.494411,193.018974 355.852795,192.315605 356.410992,191.757408 357.114362,191.399024"/>
<polygon style="fill: #0000ff; stroke: #000000; stroke-width: 1.000000; stroke-linejoin: miter; stroke-linecap: butt;  opacity: 0.539241" clip-path="url(#4685744057707115011)" points = "375.850920,318.195096 376.630611,318.318587 377.333980,318.676971 377.892177,319.235168 378.250561,319.938538 378.374052,320.718228 378.250561,321.497919 377.892177,322.201288 377.333980,322.759485 376.630611,323.117870 375.850920,323.241361 375.071229,323.117870 374.367860,322.759485 373.809663,322.201288 373.451278,321.497919 373.327787,320.718228 373.451278,319.938538 373.809663,319.235168 374.367860,318.676971 375.071229,318.318587"/>
<polygon style="fill: #0000ff; stroke: #000000; stroke-width: 1.000000; stroke-linejoin: miter; stroke-linecap: butt;  opacity: 0.497395" clip-path="url(#4685744057707115011)" points = "394.198840,304.783160 394.978531,304.906651 395.681900,305.265036 396.240097,305.823233 396.598482,306.526602 396.721973,307.306293 396.598482,308.085984 396.240097,308.789353 395.681900,309.347550 394.978531,309.705934 394.198840,309.829425 393.419149,309.705934 392.715780,309.347550 392.157583,308.789353 391.799199,308.085984 391.675708,307.306293 391.799199,306.526602 392.157583,305.823233 392.715780,305.265036 393.419149,304.906651"/>
<polygon style="fill: #0000ff; stroke: #000000; stroke-width: 1.000000; stroke-linejoin: miter; stroke-linecap: butt;  opacity: 0.456311" clip-path="url(#4685744057707115011)" points = "412.212447,291.615601 412.992138,291.739091 413.695507,292.097476 414.253704,292.655673 414.612089,293.359042 414.735580,294.138733 414.612089,294.918424 414.253704,295.621793 413.695507,296.179990 412.992138,296.538375 412.212447,296.661866 411.432756,296.538375 410.729387,296.179990 410.171190,295.621793 409.812806,294.918424 409.689315,294.138733 409.812806,293.359042 410.171190,292.655673 410.729387,292.097476 411.432756,291.739091"/>
<polygon style="fill: #0000ff; stroke: #000000; stroke-width: 1.000000; stroke-linejoin: miter; stroke-linecap: butt;  opacity: 0.800201" clip-path="url(#4685744057707115011)" points = "375.783685,300.244556 376.563375,300.368047 377.266745,300.726432 377.824942,301.284629 378.183326,301.987998 378.306817,302.767689 378.183326,303.547379 377.824942,304.250749 377.266745,304.808946 376.563375,305.167330 375.783685,305.290821 375.003994,305.167330 374.300624,304.808946 373.742427,304.250749 373.384043,303.547379 373.260552,302.767689 373.384043,301.987998 373.742427,301.284629 374.300624,300.726432 375.003994,300.368047"/>
<polygon style="fill: #0000ff; stroke: #000000; stroke-width: 1.000000; stroke-linejoin: miter; stroke-linecap: butt;  opacity: 0.415969" clip-path="url(#4685744057707115011)" points = "429.900796,278.685798 430.680487,278.809289 431.383856,279.167673 431.942053,279.725870 432.300437,280.429240 432.423928,281.208930 432.300437,281.988621 431.942053,282.691990 431.383856,283.250187 430.680487,283.608572 429.900796,283.732063 429.121105,283.608572 428.417736,283.250187 427.859539,282.691990 427.501154,281.988621 427.377663,281.208930 427.501154,280.429240 427.859539,279.725870 428.417736,279.167673 429.121105,278.809289"/>
<polygon style="fill: #0000ff; stroke: #000000; stroke-width: 1.000000; stroke-linejoin: miter; stroke-linecap: butt;  opacity: 0.669571" clip-path="url(#4685744057707115011)" points = "393.424817,356.044534 394.204508,356.168025 394.907877,356.526410 395.466074,357.084607 395.824459,357.787976 395.947949,358.567667 395.824459,359.347358 395.466074,360.050727 394.907877,360.608924 394.204508,360.967308 393.424817,361.090799 392.645126,360.967308 391.941757,360.608924 391.383560,360.050727 391.025175,359.347358 390.901684,358.567667 391.025175,357.787976 391.383560,357.084607 391.941757,356.526410 392.645126,356.168025"/>
<polygon style="fill: #0000ff; stroke: #000000; stroke-width: 1.000000; stroke-linejoin: miter; stroke-linecap: butt;  opacity: 0.619967" clip-path="url(#4685744057707115011)" points = "411.993061,346.396163 412.772752,346.519654 413.476121,346.878038 414.034318,347.436235 414.392702,348.139605 414.516193,348.919295 414.392702,349.698986 414.034318,350.402356 413.476121,350.960553 412.772752,351.318937 411.993061,351.442428 411.213370,351.318937 410.510001,350.960553 409.951804,350.402356 409.593419,349.698986 409.469928,348.919295 409.593419,348.139605 409.951804,347.436235 410.510001,346.878038 411.213370,346.519654"/>
<polygon style="fill: #0000ff; stroke: #000000; stroke-width: 1.000000; stroke-linejoin: miter; stroke-linecap: butt;  opacity: 0.534096" clip-path="url(#4685744057707115011)" points = "448.317553,318.831193 449.097243,318.954684 449.800613,319.313069 450.358810,319.871266 450.717194,320.574635 450.840685,321.354326 450.717194,322.134017 450.358810,322.837386 449.800613,323.395583 449.097243,323.753968 448.317553,323.877458 447.537862,323.753968 446.834493,323.395583 446.276296,322.837386 445.917911,322.134017 445.794420,321.354326 445.917911,320.574635 446.276296,319.871266 446.834493,319.313069 447.537862,318.954684"/>
<polygon style="fill: #0000ff; stroke: #000000; stroke-width: 1.000000; stroke-linejoin: miter; stroke-linecap: butt;  opacity: 0.576630" clip-path="url(#4685744057707115011)" points = "430.325227,332.484733 431.104918,332.608224 431.808287,332.966609 432.366484,333.524806 432.724869,334.228175 432.848360,335.007866 432.724869,335.787557 432.366484,336.490926 431.808287,337.049123 431.104918,337.407508 430.325227,337.530998 429.545536,337.407508 428.842167,337.049123 428.283970,336.490926 427.925586,335.787557 427.802095,335.007866 427.925586,334.228175 428.283970,333.524806 428.842167,332.966609 429.545536,332.608224"/>
<polygon style="fill: #0000ff; stroke: #000000; stroke-width: 1.000000; stroke-linejoin: miter; stroke-linecap: butt;  opacity: 0.451352" clip-path="url(#4685744057707115011)" points = "483.319793,292.269619 484.099484,292.393110 484.802853,292.751494 485.361050,293.309691 485.719435,294.013061 485.842926,294.792752 485.719435,295.572442 485.361050,296.275812 484.802853,296.834009 484.099484,297.192393 483.319793,297.315884 482.540102,297.192393 481.836733,296.834009 481.278536,296.275812 480.920151,295.572442 480.796660,294.792752 480.920151,294.013061 481.278536,293.309691 481.836733,292.751494 482.540102,292.393110"/>
<polygon style="fill: #0000ff; stroke: #000000; stroke-width: 1.000000; stroke-linejoin: miter; stroke-linecap: butt;  opacity: 0.492344" clip-path="url(#4685744057707115011)" points = "465.979400,305.428437 466.759091,305.551928 467.462461,305.910313 468.020658,306.468510 468.379042,307.171879 468.502533,307.951570 468.379042,308.731261 468.020658,309.434630 467.462461,309.992827 466.759091,310.351212 465.979400,310.474702 465.199710,310.351212 464.496340,309.992827 463.938143,309.434630 463.579759,308.731261 463.456268,307.951570 463.579759,307.171879 463.938143,306.468510 464.496340,305.910313 465.199710,305.551928"/>
<polygon style="fill: #0000ff; stroke: #000000; stroke-width: 1.000000; stroke-linejoin: miter; stroke-linecap: butt;  opacity: 0.457172" clip-path="url(#4685744057707115011)" points = "145.830934,256.698263 146.610625,256.821754 147.313994,257.180138 147.872191,257.738335 148.230575,258.441705 148.354066,259.221395 148.230575,260.001086 147.872191,260.704455 147.313994,261.262652 146.610625,261.621037 145.830934,261.744528 145.051243,261.621037 144.347874,261.262652 143.789677,260.704455 143.431292,260.001086 143.307801,259.221395 143.431292,258.441705 143.789677,257.738335 144.347874,257.180138 145.051243,256.821754"/>
<polygon style="fill: #0000ff; stroke: #000000; stroke-width: 1.000000; stroke-linejoin: miter; stroke-linecap: butt;  opacity: 0.484408" clip-path="url(#4685744057707115011)" points = "197.652155,278.019995 198.431845,278.143486 199.135215,278.501870 199.693412,279.060067 200.051796,279.763436 200.175287,280.543127 200.051796,281.322818 199.693412,282.026187 199.135215,282.584384 198.431845,282.942769 197.652155,283.066260 196.872464,282.942769 196.169094,282.584384 195.610897,282.026187 195.252513,281.322818 195.129022,280.543127 195.252513,279.763436 195.610897,279.060067 196.169094,278.501870 196.872464,278.143486"/>
<polygon style="fill: #0000ff; stroke: #000000; stroke-width: 1.000000; stroke-linejoin: miter; stroke-linecap: butt;  opacity: 0.514522" clip-path="url(#4685744057707115011)" points = "250.083137,297.379708 250.862828,297.503199 251.566197,297.861584 252.124394,298.419781 252.482779,299.123150 252.606270,299.902841 252.482779,300.682532 252.124394,301.385901 251.566197,301.944098 250.862828,302.302482 250.083137,302.425973 249.303446,302.302482 248.600077,301.944098 248.041880,301.385901 247.683496,300.682532 247.560005,299.902841 247.683496,299.123150 248.041880,298.419781 248.600077,297.861584 249.303446,297.503199"/>
<polygon style="fill: #0000ff; stroke: #000000; stroke-width: 1.000000; stroke-linejoin: miter; stroke-linecap: butt;  opacity: 0.545043" clip-path="url(#4685744057707115011)" points = "303.221138,317.000482 304.000829,317.123973 304.704198,317.482358 305.262395,318.040555 305.620780,318.743924 305.744271,319.523615 305.620780,320.303306 305.262395,321.006675 304.704198,321.564872 304.000829,321.923256 303.221138,322.046747 302.441447,321.923256 301.738078,321.564872 301.179881,321.006675 300.821496,320.303306 300.698005,319.523615 300.821496,318.743924 301.179881,318.040555 301.738078,317.482358 302.441447,317.123973"/>
<polygon style="fill: #0000ff; stroke: #000000; stroke-width: 1.000000; stroke-linejoin: miter; stroke-linecap: butt;  opacity: 0.581871" clip-path="url(#4685744057707115011)" points = "357.159292,331.858274 357.938983,331.981765 358.642352,332.340149 359.200549,332.898346 359.558934,333.601716 359.682425,334.381406 359.558934,335.161097 359.200549,335.864467 358.642352,336.422664 357.938983,336.781048 357.159292,336.904539 356.379602,336.781048 355.676232,336.422664 355.118035,335.864467 354.759651,335.161097 354.636160,334.381406 354.759651,333.601716 355.118035,332.898346 355.676232,332.340149 356.379602,331.981765"/>
<polygon style="fill: #0000ff; stroke: #000000; stroke-width: 1.000000; stroke-linejoin: miter; stroke-linecap: butt;  opacity: 0.619967" clip-path="url(#4685744057707115011)" points = "411.993061,346.396163 412.772752,346.519654 413.476121,346.878038 414.034318,347.436235 414.392702,348.139605 414.516193,348.919295 414.392702,349.698986 414.034318,350.402356 413.476121,350.960553 412.772752,351.318937 411.993061,351.442428 411.213370,351.318937 410.510001,350.960553 409.951804,350.402356 409.593419,349.698986 409.469928,348.919295 409.593419,348.139605 409.951804,347.436235 410.510001,346.878038 411.213370,346.519654"/>
<polygon style="fill: #0000ff; stroke: #000000; stroke-width: 1.000000; stroke-linejoin: miter; stroke-linecap: butt;  opacity: 0.502067" clip-path="url(#4685744057707115011)" points = "125.220792,266.195958 126.000482,266.319449 126.703852,266.677834 127.262049,267.236031 127.620433,267.939400 127.743924,268.719091 127.620433,269.498782 127.262049,270.202151 126.703852,270.760348 126.000482,271.118732 125.220792,271.242223 124.441101,271.118732 123.737731,270.760348 123.179534,270.202151 122.821150,269.498782 122.697659,268.719091 122.821150,267.939400 123.179534,267.236031 123.737731,266.677834 124.441101,266.319449"/>
</g>
<g id="matplotlib.axis1">
</g>
<g id="matplotlib.axis2">
</g>
</g>
</g>
</svg>
