<?xml version="1.0" standalone="no"?>
<!DOCTYPE svg PUBLIC "-//W3C//DTD SVG 1.1//EN"
  "http://www.w3.org/Graphics/SVG/1.1/DTD/svg11.dtd">
<!-- Created with matplotlib (http://matplotlib.sourceforge.net/) -->
<svg width="576" height="432" viewBox="0 0 576 432"
   xmlns="http://www.w3.org/2000/svg"
   xmlns:xlink="http://www.w3.org/1999/xlink"
   version="1.1"
   id="svg1">
<g id="figure1">
<polygon style="fill: #ffffff; stroke: #ffffff; stroke-width: 1.000000; stroke-linejoin: miter; stroke-linecap: square;  opacity: 1.000000"  points = "0.000000,432.000000 0.000000,0.000000 576.000000,0.000000 576.000000,432.000000"/>
<polygon style="fill: #ffffff; opacity: 1.000000"  points = "0.000000,432.000000 0.000000,0.000000 576.000000,0.000000 576.000000,432.000000"/>
<g id="axis3d1">
<polygon style="fill: #f2f2f2; stroke: #f2f2f2; stroke-width: 1.000000; stroke-linejoin: miter; stroke-linecap: square;  opacity: 0.100000"  points = "241.211914,230.626613 508.260241,289.840834 519.433224,81.348607 238.467267,28.237352"/>
<path style="fill: none; stroke: #000000; stroke-width: 0.750000; stroke-linejoin: miter; stroke-linecap: square;  opacity: 1.000000"  d="M 76.357701,336.543225 L 357.328625,405.507833 "/>
<text style="font-size: 12.000000; font-family: Bitstream Vera Sans; font-style: Roman; fill: #000000;" x="141.598101" y="383.874575" transform="translate(141.598101,383.874575) rotate(-341.9) translate(-141.598101,-383.874575)">min_call_probability</text>
<g id="linecollection1">
<path style="fill: none; stroke: #e6e6e6; stroke-width: 1.000000; stroke-linejoin: miter; stroke-linecap: butt;  opacity: 1.000000"  d="M 81.730847,337.862069 L 246.335639,231.762727 L 243.846516,29.254197 "/>
<path style="fill: none; stroke: #e6e6e6; stroke-width: 1.000000; stroke-linejoin: miter; stroke-linecap: butt;  opacity: 1.000000"  d="M 125.064523,348.498365 L 287.633711,240.919995 L 287.220571,37.453235 "/>
<path style="fill: none; stroke: #e6e6e6; stroke-width: 1.000000; stroke-linejoin: miter; stroke-linecap: butt;  opacity: 1.000000"  d="M 169.027317,359.289079 L 329.487668,250.200523 L 331.208258,45.768268 "/>
<path style="fill: none; stroke: #e6e6e6; stroke-width: 1.000000; stroke-linejoin: miter; stroke-linecap: butt;  opacity: 1.000000"  d="M 213.633031,370.237599 L 371.908809,259.606816 L 375.822692,54.201775 "/>
<path style="fill: none; stroke: #e6e6e6; stroke-width: 1.000000; stroke-linejoin: miter; stroke-linecap: butt;  opacity: 1.000000"  d="M 258.895872,381.347411 L 414.908741,269.141448 L 421.077363,62.756308 "/>
<path style="fill: none; stroke: #e6e6e6; stroke-width: 1.000000; stroke-linejoin: miter; stroke-linecap: butt;  opacity: 1.000000"  d="M 304.830469,392.622106 L 458.499392,278.807063 L 466.986154,71.434489 "/>
<path style="fill: none; stroke: #e6e6e6; stroke-width: 1.000000; stroke-linejoin: miter; stroke-linecap: butt;  opacity: 1.000000"  d="M 351.451887,404.065382 L 502.693018,288.606380 L 513.563349,80.239019 "/>
</g>
<g id="xtick1">
<text style="font-size: 12.000000; font-family: Bitstream Vera Sans; font-style: Roman; fill: #000000;" x="74.730847" y="342.362069" >70</text>
<path style="fill: none; stroke: #000000; stroke-width: 1.000000; stroke-linejoin: miter; stroke-linecap: square;  opacity: 1.000000"  d="M 81.730847,337.862069 L 79.242567,345.465257 "/>
</g>
<g id="xtick2">
<text style="font-size: 12.000000; font-family: Bitstream Vera Sans; font-style: Roman; fill: #000000;" x="118.064523" y="352.998365" >75</text>
<path style="fill: none; stroke: #000000; stroke-width: 1.000000; stroke-linejoin: miter; stroke-linecap: square;  opacity: 1.000000"  d="M 125.064523,348.498365 L 122.576242,356.101553 "/>
</g>
<g id="xtick3">
<text style="font-size: 12.000000; font-family: Bitstream Vera Sans; font-style: Roman; fill: #000000;" x="162.027317" y="363.789079" >80</text>
<path style="fill: none; stroke: #000000; stroke-width: 1.000000; stroke-linejoin: miter; stroke-linecap: square;  opacity: 1.000000"  d="M 169.027317,359.289079 L 166.539037,366.892267 "/>
</g>
<g id="xtick4">
<text style="font-size: 12.000000; font-family: Bitstream Vera Sans; font-style: Roman; fill: #000000;" x="206.633031" y="374.737599" >85</text>
<path style="fill: none; stroke: #000000; stroke-width: 1.000000; stroke-linejoin: miter; stroke-linecap: square;  opacity: 1.000000"  d="M 213.633031,370.237599 L 211.144751,377.840786 "/>
</g>
<g id="xtick5">
<text style="font-size: 12.000000; font-family: Bitstream Vera Sans; font-style: Roman; fill: #000000;" x="251.895872" y="385.847411" >90</text>
<path style="fill: none; stroke: #000000; stroke-width: 1.000000; stroke-linejoin: miter; stroke-linecap: square;  opacity: 1.000000"  d="M 258.895872,381.347411 L 256.407592,388.950598 "/>
</g>
<g id="xtick6">
<text style="font-size: 12.000000; font-family: Bitstream Vera Sans; font-style: Roman; fill: #000000;" x="297.830469" y="397.122106" >95</text>
<path style="fill: none; stroke: #000000; stroke-width: 1.000000; stroke-linejoin: miter; stroke-linecap: square;  opacity: 1.000000"  d="M 304.830469,392.622106 L 302.342189,400.225293 "/>
</g>
<g id="xtick7">
<text style="font-size: 12.000000; font-family: Bitstream Vera Sans; font-style: Roman; fill: #000000;" x="340.451887" y="408.565382" >100</text>
<path style="fill: none; stroke: #000000; stroke-width: 1.000000; stroke-linejoin: miter; stroke-linecap: square;  opacity: 1.000000"  d="M 351.451887,404.065382 L 348.963607,411.668569 "/>
</g>
</g>
<g id="axis3d2">
<polygon style="fill: #e6e6e6; stroke: #e6e6e6; stroke-width: 1.000000; stroke-linejoin: miter; stroke-linecap: square;  opacity: 0.500000"  points = "76.357701,336.543225 241.211914,230.626613 238.467267,28.237352 64.421350,123.401250"/>
<path style="fill: none; stroke: #000000; stroke-width: 0.750000; stroke-linejoin: miter; stroke-linecap: square;  opacity: 1.000000"  d="M 357.328625,405.507833 L 508.260241,289.840834 "/>
<text style="font-size: 12.000000; font-family: Bitstream Vera Sans; font-style: Roman; fill: #000000;" x="410.920465" y="424.411092" transform="translate(410.920465,424.411092) rotate(-45.6) translate(-410.920465,-424.411092)">max_call_mismatch_rate</text>
<g id="linecollection2">
<path style="fill: none; stroke: #e6e6e6; stroke-width: 1.000000; stroke-linejoin: miter; stroke-linecap: butt;  opacity: 1.000000"  d="M 360.586508,403.011142 L 79.904448,334.264487 L 68.180167,121.346024 "/>
<path style="fill: none; stroke: #e6e6e6; stroke-width: 1.000000; stroke-linejoin: miter; stroke-linecap: butt;  opacity: 1.000000"  d="M 391.334149,379.447575 L 113.403632,312.741713 L 103.651211,101.951356 "/>
<path style="fill: none; stroke: #e6e6e6; stroke-width: 1.000000; stroke-linejoin: miter; stroke-linecap: butt;  opacity: 1.000000"  d="M 421.155645,356.593762 L 145.937509,291.839135 L 138.046299,83.144993 "/>
<path style="fill: none; stroke: #e6e6e6; stroke-width: 1.000000; stroke-linejoin: miter; stroke-linecap: butt;  opacity: 1.000000"  d="M 450.092220,334.418111 L 177.547210,271.530328 L 171.413658,64.900567 "/>
<path style="fill: none; stroke: #e6e6e6; stroke-width: 1.000000; stroke-linejoin: miter; stroke-linecap: butt;  opacity: 1.000000"  d="M 478.182688,312.890878 L 208.271564,251.790344 L 203.798671,47.193262 "/>
<path style="fill: none; stroke: #e6e6e6; stroke-width: 1.000000; stroke-linejoin: miter; stroke-linecap: butt;  opacity: 1.000000"  d="M 505.463623,291.984033 L 238.147253,232.595617 L 235.244090,29.999704 "/>
</g>
<g id="xtick8">
<text style="font-size: 12.000000; font-family: Bitstream Vera Sans; font-style: Roman; fill: #000000;" x="347.586508" y="407.511142" >0.05</text>
<path style="fill: none; stroke: #000000; stroke-width: 1.000000; stroke-linejoin: miter; stroke-linecap: square;  opacity: 1.000000"  d="M 360.586508,403.011142 L 366.304039,408.606662 "/>
</g>
<g id="xtick9">
<text style="font-size: 12.000000; font-family: Bitstream Vera Sans; font-style: Roman; fill: #000000;" x="378.334149" y="383.947575" >0.10</text>
<path style="fill: none; stroke: #000000; stroke-width: 1.000000; stroke-linejoin: miter; stroke-linecap: square;  opacity: 1.000000"  d="M 391.334149,379.447575 L 397.051679,385.043095 "/>
</g>
<g id="xtick10">
<text style="font-size: 12.000000; font-family: Bitstream Vera Sans; font-style: Roman; fill: #000000;" x="408.155645" y="361.093762" >0.15</text>
<path style="fill: none; stroke: #000000; stroke-width: 1.000000; stroke-linejoin: miter; stroke-linecap: square;  opacity: 1.000000"  d="M 421.155645,356.593762 L 426.873175,362.189282 "/>
</g>
<g id="xtick11">
<text style="font-size: 12.000000; font-family: Bitstream Vera Sans; font-style: Roman; fill: #000000;" x="437.092220" y="338.918111" >0.20</text>
<path style="fill: none; stroke: #000000; stroke-width: 1.000000; stroke-linejoin: miter; stroke-linecap: square;  opacity: 1.000000"  d="M 450.092220,334.418111 L 455.809750,340.013631 "/>
</g>
<g id="xtick12">
<text style="font-size: 12.000000; font-family: Bitstream Vera Sans; font-style: Roman; fill: #000000;" x="465.182688" y="317.390878" >0.25</text>
<path style="fill: none; stroke: #000000; stroke-width: 1.000000; stroke-linejoin: miter; stroke-linecap: square;  opacity: 1.000000"  d="M 478.182688,312.890878 L 483.900218,318.486398 "/>
</g>
<g id="xtick13">
<text style="font-size: 12.000000; font-family: Bitstream Vera Sans; font-style: Roman; fill: #000000;" x="492.463623" y="296.484033" >0.30</text>
<path style="fill: none; stroke: #000000; stroke-width: 1.000000; stroke-linejoin: miter; stroke-linecap: square;  opacity: 1.000000"  d="M 505.463623,291.984033 L 511.181153,297.579553 "/>
</g>
</g>
<g id="axis3d3">
<polygon style="fill: #f2f2f2; stroke: #f2f2f2; stroke-width: 1.000000; stroke-linejoin: miter; stroke-linecap: square;  opacity: 0.100000"  points = "76.357701,336.543225 357.328625,405.507833 508.260241,289.840834 241.211914,230.626613"/>
<path style="fill: none; stroke: #000000; stroke-width: 0.750000; stroke-linejoin: miter; stroke-linecap: square;  opacity: 1.000000"  d="M 76.357701,336.543225 L 64.421350,123.401250 "/>
<text style="font-size: 12.000000; font-family: Bitstream Vera Sans; font-style: Roman; fill: #000000;" x="43.510664" y="312.645770" transform="translate(43.510664,312.645770) rotate(-92.4) translate(-43.510664,-312.645770)">no_of_total_snps_filtered</text>
<g id="linecollection3">
<path style="fill: none; stroke: #e6e6e6; stroke-width: 1.000000; stroke-linejoin: miter; stroke-linecap: butt;  opacity: 1.000000"  d="M 76.131056,332.496136 L 241.159600,226.768965 L 508.472750,285.875342 "/>
<path style="fill: none; stroke: #e6e6e6; stroke-width: 1.000000; stroke-linejoin: miter; stroke-linecap: butt;  opacity: 1.000000"  d="M 74.564219,304.517842 L 240.798152,200.115958 L 509.941481,258.468243 "/>
<path style="fill: none; stroke: #e6e6e6; stroke-width: 1.000000; stroke-linejoin: miter; stroke-linecap: butt;  opacity: 1.000000"  d="M 72.974868,276.137529 L 240.431889,173.107876 L 511.430638,230.679990 "/>
<path style="fill: none; stroke: #e6e6e6; stroke-width: 1.000000; stroke-linejoin: miter; stroke-linecap: butt;  opacity: 1.000000"  d="M 71.362515,247.346469 L 240.060714,145.737577 L 512.940650,202.502577 "/>
<path style="fill: none; stroke: #e6e6e6; stroke-width: 1.000000; stroke-linejoin: miter; stroke-linecap: butt;  opacity: 1.000000"  d="M 69.726656,218.135679 L 239.684528,117.997723 L 514.471958,173.927770 "/>
<path style="fill: none; stroke: #e6e6e6; stroke-width: 1.000000; stroke-linejoin: miter; stroke-linecap: butt;  opacity: 1.000000"  d="M 68.066774,188.495913 L 239.303227,89.880780 L 516.025016,144.947105 "/>
<path style="fill: none; stroke: #e6e6e6; stroke-width: 1.000000; stroke-linejoin: miter; stroke-linecap: butt;  opacity: 1.000000"  d="M 66.382335,158.417653 L 238.916708,61.379006 L 517.600290,115.551871 "/>
<path style="fill: none; stroke: #e6e6e6; stroke-width: 1.000000; stroke-linejoin: miter; stroke-linecap: butt;  opacity: 1.000000"  d="M 64.672790,127.891094 L 238.524862,32.484445 L 519.198260,85.733110 "/>
</g>
<g id="xtick14">
<text style="font-size: 12.000000; font-family: Bitstream Vera Sans; font-style: Roman; fill: #000000;" x="73.131056" y="336.996136" >0</text>
<path style="fill: none; stroke: #000000; stroke-width: 1.000000; stroke-linejoin: miter; stroke-linecap: square;  opacity: 1.000000"  d="M 76.131056,332.496136 L 68.138103,332.831851 "/>
</g>
<g id="xtick15">
<text style="font-size: 12.000000; font-family: Bitstream Vera Sans; font-style: Roman; fill: #000000;" x="55.564219" y="309.017842" >10000</text>
<path style="fill: none; stroke: #000000; stroke-width: 1.000000; stroke-linejoin: miter; stroke-linecap: square;  opacity: 1.000000"  d="M 74.564219,304.517842 L 66.571266,304.853558 "/>
</g>
<g id="xtick16">
<text style="font-size: 12.000000; font-family: Bitstream Vera Sans; font-style: Roman; fill: #000000;" x="53.974868" y="280.637529" >20000</text>
<path style="fill: none; stroke: #000000; stroke-width: 1.000000; stroke-linejoin: miter; stroke-linecap: square;  opacity: 1.000000"  d="M 72.974868,276.137529 L 64.981916,276.473245 "/>
</g>
<g id="xtick17">
<text style="font-size: 12.000000; font-family: Bitstream Vera Sans; font-style: Roman; fill: #000000;" x="52.362515" y="251.846469" >30000</text>
<path style="fill: none; stroke: #000000; stroke-width: 1.000000; stroke-linejoin: miter; stroke-linecap: square;  opacity: 1.000000"  d="M 71.362515,247.346469 L 63.369562,247.682184 "/>
</g>
<g id="xtick18">
<text style="font-size: 12.000000; font-family: Bitstream Vera Sans; font-style: Roman; fill: #000000;" x="50.726656" y="222.635679" >40000</text>
<path style="fill: none; stroke: #000000; stroke-width: 1.000000; stroke-linejoin: miter; stroke-linecap: square;  opacity: 1.000000"  d="M 69.726656,218.135679 L 61.733703,218.471394 "/>
</g>
<g id="xtick19">
<text style="font-size: 12.000000; font-family: Bitstream Vera Sans; font-style: Roman; fill: #000000;" x="49.066774" y="192.995913" >50000</text>
<path style="fill: none; stroke: #000000; stroke-width: 1.000000; stroke-linejoin: miter; stroke-linecap: square;  opacity: 1.000000"  d="M 68.066774,188.495913 L 60.073821,188.831629 "/>
</g>
<g id="xtick20">
<text style="font-size: 12.000000; font-family: Bitstream Vera Sans; font-style: Roman; fill: #000000;" x="47.382335" y="162.917653" >60000</text>
<path style="fill: none; stroke: #000000; stroke-width: 1.000000; stroke-linejoin: miter; stroke-linecap: square;  opacity: 1.000000"  d="M 66.382335,158.417653 L 58.389382,158.753368 "/>
</g>
<g id="xtick21">
<text style="font-size: 12.000000; font-family: Bitstream Vera Sans; font-style: Roman; fill: #000000;" x="45.672790" y="132.391094" >70000</text>
<path style="fill: none; stroke: #000000; stroke-width: 1.000000; stroke-linejoin: miter; stroke-linecap: square;  opacity: 1.000000"  d="M 64.672790,127.891094 L 56.679837,128.226810 "/>
</g>
</g>
<g id="axes1">
<g id="regpolycollection1">
<defs>
    <clipPath id="4685744057707115011">
    <rect x="0.000000" y="0.000000" width="576.000000" height="432.000000"
    style="stroke: gray; fill: none;"/>
    </clipPath>
</defs>
<polygon style="fill: #0000ff; stroke: #000000; stroke-width: 1.000000; stroke-linejoin: miter; stroke-linecap: butt;  opacity: 0.481377" clip-path="url(#4685744057707115011)" points = "150.054821,258.957784 150.834511,259.081275 151.537881,259.439660 152.096078,259.997857 152.454462,260.701226 152.577953,261.480917 152.454462,262.260608 152.096078,262.963977 151.537881,263.522174 150.834511,263.880558 150.054821,264.004049 149.275130,263.880558 148.571761,263.522174 148.013564,262.963977 147.655179,262.260608 147.531688,261.480917 147.655179,260.701226 148.013564,259.997857 148.571761,259.439660 149.275130,259.081275"/>
<polygon style="fill: #0000ff; stroke: #000000; stroke-width: 1.000000; stroke-linejoin: miter; stroke-linecap: butt;  opacity: 0.642345" clip-path="url(#4685744057707115011)" points = "127.439019,317.361998 128.218709,317.485489 128.922079,317.843874 129.480276,318.402071 129.838660,319.105440 129.962151,319.885131 129.838660,320.664821 129.480276,321.368191 128.922079,321.926388 128.218709,322.284772 127.439019,322.408263 126.659328,322.284772 125.955959,321.926388 125.397762,321.368191 125.039377,320.664821 124.915886,319.885131 125.039377,319.105440 125.397762,318.402071 125.955959,317.843874 126.659328,317.485489"/>
<polygon style="fill: #0000ff; stroke: #000000; stroke-width: 1.000000; stroke-linejoin: miter; stroke-linecap: butt;  opacity: 0.577446" clip-path="url(#4685744057707115011)" points = "160.602194,292.165189 161.381885,292.288680 162.085254,292.647064 162.643451,293.205261 163.001836,293.908630 163.125327,294.688321 163.001836,295.468012 162.643451,296.171381 162.085254,296.729578 161.381885,297.087963 160.602194,297.211454 159.822503,297.087963 159.119134,296.729578 158.560937,296.171381 158.202553,295.468012 158.079062,294.688321 158.202553,293.908630 158.560937,293.205261 159.119134,292.647064 159.822503,292.288680"/>
<polygon style="fill: #0000ff; stroke: #000000; stroke-width: 1.000000; stroke-linejoin: miter; stroke-linecap: butt;  opacity: 0.512938" clip-path="url(#4685744057707115011)" points = "192.884984,268.888955 193.664675,269.012446 194.368044,269.370830 194.926241,269.929027 195.284625,270.632397 195.408116,271.412087 195.284625,272.191778 194.926241,272.895147 194.368044,273.453344 193.664675,273.811729 192.884984,273.935220 192.105293,273.811729 191.401924,273.453344 190.843727,272.895147 190.485342,272.191778 190.361851,271.412087 190.485342,270.632397 190.843727,269.929027 191.401924,269.370830 192.105293,269.012446"/>
<polygon style="fill: #0000ff; stroke: #000000; stroke-width: 1.000000; stroke-linejoin: miter; stroke-linecap: butt;  opacity: 0.451061" clip-path="url(#4685744057707115011)" points = "224.259330,245.500602 225.039021,245.624093 225.742390,245.982477 226.300587,246.540674 226.658972,247.244043 226.782463,248.023734 226.658972,248.803425 226.300587,249.506794 225.742390,250.064991 225.039021,250.423376 224.259330,250.546867 223.479640,250.423376 222.776270,250.064991 222.218073,249.506794 221.859689,248.803425 221.736198,248.023734 221.859689,247.244043 222.218073,246.540674 222.776270,245.982477 223.479640,245.624093"/>
<polygon style="fill: #0000ff; stroke: #000000; stroke-width: 1.000000; stroke-linejoin: miter; stroke-linecap: butt;  opacity: 0.387440" clip-path="url(#4685744057707115011)" points = "254.818995,225.867228 255.598685,225.990719 256.302055,226.349104 256.860252,226.907301 257.218636,227.610670 257.342127,228.390361 257.218636,229.170052 256.860252,229.873421 256.302055,230.431618 255.598685,230.790002 254.818995,230.913493 254.039304,230.790002 253.335935,230.431618 252.777738,229.873421 252.419353,229.170052 252.295862,228.390361 252.419353,227.610670 252.777738,226.907301 253.335935,226.349104 254.039304,225.990719"/>
<polygon style="fill: #0000ff; stroke: #000000; stroke-width: 1.000000; stroke-linejoin: miter; stroke-linecap: butt;  opacity: 0.327454" clip-path="url(#4685744057707115011)" points = "284.514875,205.063158 285.294566,205.186649 285.997935,205.545033 286.556132,206.103230 286.914517,206.806599 287.038008,207.586290 286.914517,208.365981 286.556132,209.069350 285.997935,209.627547 285.294566,209.985932 284.514875,210.109423 283.735184,209.985932 283.031815,209.627547 282.473618,209.069350 282.115233,208.365981 281.991743,207.586290 282.115233,206.806599 282.473618,206.103230 283.031815,205.545033 283.735184,205.186649"/>
<polygon style="fill: #0000ff; stroke: #000000; stroke-width: 1.000000; stroke-linejoin: miter; stroke-linecap: butt;  opacity: 0.550527" clip-path="url(#4685744057707115011)" points = "236.248209,274.093360 237.027900,274.216851 237.731270,274.575236 238.289467,275.133433 238.647851,275.836802 238.771342,276.616493 238.647851,277.396184 238.289467,278.099553 237.731270,278.657750 237.027900,279.016134 236.248209,279.139625 235.468519,279.016134 234.765149,278.657750 234.206952,278.099553 233.848568,277.396184 233.725077,276.616493 233.848568,275.836802 234.206952,275.133433 234.765149,274.575236 235.468519,274.216851"/>
<polygon style="fill: #0000ff; stroke: #000000; stroke-width: 1.000000; stroke-linejoin: miter; stroke-linecap: butt;  opacity: 0.657387" clip-path="url(#4685744057707115011)" points = "325.361087,259.305370 326.140778,259.428861 326.844147,259.787245 327.402344,260.345442 327.760729,261.048812 327.884220,261.828502 327.760729,262.608193 327.402344,263.311562 326.844147,263.869759 326.140778,264.228144 325.361087,264.351635 324.581396,264.228144 323.878027,263.869759 323.319830,263.311562 322.961445,262.608193 322.837954,261.828502 322.961445,261.048812 323.319830,260.345442 323.878027,259.787245 324.581396,259.428861"/>
<polygon style="fill: #0000ff; stroke: #000000; stroke-width: 1.000000; stroke-linejoin: miter; stroke-linecap: butt;  opacity: 0.800817" clip-path="url(#4685744057707115011)" points = "261.638267,304.574812 262.417958,304.698302 263.121327,305.056687 263.679524,305.614884 264.037909,306.318253 264.161400,307.097944 264.037909,307.877635 263.679524,308.581004 263.121327,309.139201 262.417958,309.497586 261.638267,309.621077 260.858576,309.497586 260.155207,309.139201 259.597010,308.581004 259.238625,307.877635 259.115135,307.097944 259.238625,306.318253 259.597010,305.614884 260.155207,305.056687 260.858576,304.698302"/>
<polygon style="fill: #0000ff; stroke: #000000; stroke-width: 1.000000; stroke-linejoin: miter; stroke-linecap: butt;  opacity: 0.729343" clip-path="url(#4685744057707115011)" points = "293.981105,280.487030 294.760796,280.610521 295.464165,280.968906 296.022362,281.527103 296.380747,282.230472 296.504238,283.010163 296.380747,283.789854 296.022362,284.493223 295.464165,285.051420 294.760796,285.409804 293.981105,285.533295 293.201414,285.409804 292.498045,285.051420 291.939848,284.493223 291.581463,283.789854 291.457973,283.010163 291.581463,282.230472 291.939848,281.527103 292.498045,280.968906 293.201414,280.610521"/>
<polygon style="fill: #0000ff; stroke: #000000; stroke-width: 1.000000; stroke-linejoin: miter; stroke-linecap: butt;  opacity: 0.657387" clip-path="url(#4685744057707115011)" points = "325.361087,259.305370 326.140778,259.428861 326.844147,259.787245 327.402344,260.345442 327.760729,261.048812 327.884220,261.828502 327.760729,262.608193 327.402344,263.311562 326.844147,263.869759 326.140778,264.228144 325.361087,264.351635 324.581396,264.228144 323.878027,263.869759 323.319830,263.311562 322.961445,262.608193 322.837954,261.828502 322.961445,261.048812 323.319830,260.345442 323.878027,259.787245 324.581396,259.428861"/>
<polygon style="fill: #0000ff; stroke: #000000; stroke-width: 1.000000; stroke-linejoin: miter; stroke-linecap: butt;  opacity: 0.587885" clip-path="url(#4685744057707115011)" points = "355.806818,238.492529 356.586509,238.616020 357.289878,238.974405 357.848075,239.532602 358.206459,240.235971 358.329950,241.015662 358.206459,241.795353 357.848075,242.498722 357.289878,243.056919 356.586509,243.415303 355.806818,243.538794 355.027127,243.415303 354.323758,243.056919 353.765561,242.498722 353.407176,241.795353 353.283685,241.015662 353.407176,240.235971 353.765561,239.532602 354.323758,238.974405 355.027127,238.616020"/>
<polygon style="fill: #0000ff; stroke: #000000; stroke-width: 1.000000; stroke-linejoin: miter; stroke-linecap: butt;  opacity: 0.521127" clip-path="url(#4685744057707115011)" points = "385.373468,217.662014 386.153159,217.785505 386.856528,218.143890 387.414725,218.702087 387.773109,219.405456 387.896600,220.185147 387.773109,220.964837 387.414725,221.668207 386.856528,222.226404 386.153159,222.584788 385.373468,222.708279 384.593777,222.584788 383.890408,222.226404 383.332211,221.668207 382.973826,220.964837 382.850335,220.185147 382.973826,219.405456 383.332211,218.702087 383.890408,218.143890 384.593777,217.785505"/>
<polygon style="fill: #0000ff; stroke: #000000; stroke-width: 1.000000; stroke-linejoin: miter; stroke-linecap: butt;  opacity: 0.455136" clip-path="url(#4685744057707115011)" points = "414.063938,198.465403 414.843628,198.588894 415.546998,198.947279 416.105195,199.505476 416.463579,200.208845 416.587070,200.988536 416.463579,201.768227 416.105195,202.471596 415.546998,203.029793 414.843628,203.388177 414.063938,203.511668 413.284247,203.388177 412.580877,203.029793 412.022680,202.471596 411.664296,201.768227 411.540805,200.988536 411.664296,200.208845 412.022680,199.505476 412.580877,198.947279 413.284247,198.588894"/>
<polygon style="fill: #0000ff; stroke: #000000; stroke-width: 1.000000; stroke-linejoin: miter; stroke-linecap: butt;  opacity: 0.746044" clip-path="url(#4685744057707115011)" points = "372.035466,223.429631 372.815157,223.553122 373.518526,223.911507 374.076723,224.469704 374.435108,225.173073 374.558599,225.952764 374.435108,226.732455 374.076723,227.435824 373.518526,227.994021 372.815157,228.352406 372.035466,228.475896 371.255776,228.352406 370.552406,227.994021 369.994209,227.435824 369.635825,226.732455 369.512334,225.952764 369.635825,225.173073 369.994209,224.469704 370.552406,223.911507 371.255776,223.553122"/>
<polygon style="fill: #0000ff; stroke: #000000; stroke-width: 1.000000; stroke-linejoin: miter; stroke-linecap: butt;  opacity: 0.894825" clip-path="url(#4685744057707115011)" points = "308.526029,268.651640 309.305719,268.775131 310.009089,269.133516 310.567286,269.691713 310.925670,270.395082 311.049161,271.174773 310.925670,271.954464 310.567286,272.657833 310.009089,273.216030 309.305719,273.574415 308.526029,273.697905 307.746338,273.574415 307.042968,273.216030 306.484771,272.657833 306.126387,271.954464 306.002896,271.174773 306.126387,270.395082 306.484771,269.691713 307.042968,269.133516 307.746338,268.775131"/>
<polygon style="fill: #0000ff; stroke: #000000; stroke-width: 1.000000; stroke-linejoin: miter; stroke-linecap: butt;  opacity: 0.819324" clip-path="url(#4685744057707115011)" points = "340.769888,245.664243 341.549579,245.787733 342.252948,246.146118 342.811145,246.704315 343.169530,247.407684 343.293021,248.187375 343.169530,248.967066 342.811145,249.670435 342.252948,250.228632 341.549579,250.587017 340.769888,250.710508 339.990197,250.587017 339.286828,250.228632 338.728631,249.670435 338.370246,248.967066 338.246756,248.187375 338.370246,247.407684 338.728631,246.704315 339.286828,246.146118 339.990197,245.787733"/>
<polygon style="fill: #0000ff; stroke: #000000; stroke-width: 1.000000; stroke-linejoin: miter; stroke-linecap: butt;  opacity: 0.746044" clip-path="url(#4685744057707115011)" points = "372.035466,223.429631 372.815157,223.553122 373.518526,223.911507 374.076723,224.469704 374.435108,225.173073 374.558599,225.952764 374.435108,226.732455 374.076723,227.435824 373.518526,227.994021 372.815157,228.352406 372.035466,228.475896 371.255776,228.352406 370.552406,227.994021 369.994209,227.435824 369.635825,226.732455 369.512334,225.952764 369.635825,225.173073 369.994209,224.469704 370.552406,223.911507 371.255776,223.553122"/>
<polygon style="fill: #0000ff; stroke: #000000; stroke-width: 1.000000; stroke-linejoin: miter; stroke-linecap: butt;  opacity: 0.674493" clip-path="url(#4685744057707115011)" points = "402.356323,202.257083 403.136013,202.380574 403.839383,202.738959 404.397580,203.297156 404.755964,204.000525 404.879455,204.780216 404.755964,205.559907 404.397580,206.263276 403.839383,206.821473 403.136013,207.179858 402.356323,207.303348 401.576632,207.179858 400.873263,206.821473 400.315066,206.263276 399.956681,205.559907 399.833190,204.780216 399.956681,204.000525 400.315066,203.297156 400.873263,202.738959 401.576632,202.380574"/>
<polygon style="fill: #0000ff; stroke: #000000; stroke-width: 1.000000; stroke-linejoin: miter; stroke-linecap: butt;  opacity: 0.604219" clip-path="url(#4685744057707115011)" points = "431.753942,182.455741 432.533633,182.579232 433.237002,182.937617 433.795199,183.495814 434.153584,184.199183 434.277075,184.978874 434.153584,185.758565 433.795199,186.461934 433.237002,187.020131 432.533633,187.378515 431.753942,187.502006 430.974251,187.378515 430.270882,187.020131 429.712685,186.461934 429.354300,185.758565 429.230810,184.978874 429.354300,184.199183 429.712685,183.495814 430.270882,182.937617 430.974251,182.579232"/>
<polygon style="fill: #0000ff; stroke: #000000; stroke-width: 1.000000; stroke-linejoin: miter; stroke-linecap: butt;  opacity: 0.536407" clip-path="url(#4685744057707115011)" points = "460.296917,162.892803 461.076608,163.016294 461.779977,163.374678 462.338174,163.932875 462.696559,164.636245 462.820050,165.415935 462.696559,166.195626 462.338174,166.898995 461.779977,167.457192 461.076608,167.815577 460.296917,167.939068 459.517226,167.815577 458.813857,167.457192 458.255660,166.898995 457.897275,166.195626 457.773785,165.415935 457.897275,164.636245 458.255660,163.932875 458.813857,163.374678 459.517226,163.016294"/>
<polygon style="fill: #0000ff; stroke: #000000; stroke-width: 1.000000; stroke-linejoin: miter; stroke-linecap: butt;  opacity: 0.953794" clip-path="url(#4685744057707115011)" points = "327.929634,237.450844 328.709325,237.574335 329.412694,237.932720 329.970891,238.490917 330.329276,239.194286 330.452766,239.973977 330.329276,240.753668 329.970891,241.457037 329.412694,242.015234 328.709325,242.373619 327.929634,242.497109 327.149943,242.373619 326.446574,242.015234 325.888377,241.457037 325.529992,240.753668 325.406501,239.973977 325.529992,239.194286 325.888377,238.490917 326.446574,237.932720 327.149943,237.574335"/>
<polygon style="fill: #0000ff; stroke: #000000; stroke-width: 1.000000; stroke-linejoin: miter; stroke-linecap: butt;  opacity: 0.876721" clip-path="url(#4685744057707115011)" points = "360.256015,214.479623 361.035706,214.603113 361.739075,214.961498 362.297272,215.519695 362.655657,216.223064 362.779147,217.002755 362.655657,217.782446 362.297272,218.485815 361.739075,219.044012 361.035706,219.402397 360.256015,219.525888 359.476324,219.402397 358.772955,219.044012 358.214758,218.485815 357.856373,217.782446 357.732882,217.002755 357.856373,216.223064 358.214758,215.519695 358.772955,214.961498 359.476324,214.603113"/>
<polygon style="fill: #0000ff; stroke: #000000; stroke-width: 1.000000; stroke-linejoin: miter; stroke-linecap: butt;  opacity: 0.802024" clip-path="url(#4685744057707115011)" points = "391.594710,192.192492 392.374401,192.315983 393.077770,192.674367 393.635967,193.232564 393.994351,193.935934 394.117842,194.715624 393.994351,195.495315 393.635967,196.198685 393.077770,196.756882 392.374401,197.115266 391.594710,197.238757 390.815019,197.115266 390.111650,196.756882 389.553453,196.198685 389.195068,195.495315 389.071577,194.715624 389.195068,193.935934 389.553453,193.232564 390.111650,192.674367 390.815019,192.315983"/>
<polygon style="fill: #0000ff; stroke: #000000; stroke-width: 1.000000; stroke-linejoin: miter; stroke-linecap: butt;  opacity: 0.728585" clip-path="url(#4685744057707115011)" points = "421.963811,171.428609 422.743502,171.552100 423.446871,171.910484 424.005068,172.468681 424.363453,173.172050 424.486944,173.951741 424.363453,174.731432 424.005068,175.434801 423.446871,175.992998 422.743502,176.351383 421.963811,176.474874 421.184120,176.351383 420.480751,175.992998 419.922554,175.434801 419.564169,174.731432 419.440679,173.951741 419.564169,173.172050 419.922554,172.468681 420.480751,171.910484 421.184120,171.552100"/>
<polygon style="fill: #0000ff; stroke: #000000; stroke-width: 1.000000; stroke-linejoin: miter; stroke-linecap: butt;  opacity: 0.656887" clip-path="url(#4685744057707115011)" points = "451.404729,151.698667 452.184419,151.822157 452.887789,152.180542 453.445986,152.738739 453.804370,153.442108 453.927861,154.221799 453.804370,155.001490 453.445986,155.704859 452.887789,156.263056 452.184419,156.621441 451.404729,156.744932 450.625038,156.621441 449.921668,156.263056 449.363471,155.704859 449.005087,155.001490 448.881596,154.221799 449.005087,153.442108 449.363471,152.738739 449.921668,152.180542 450.625038,151.822157"/>
<polygon style="fill: #0000ff; stroke: #000000; stroke-width: 1.000000; stroke-linejoin: miter; stroke-linecap: butt;  opacity: 0.587657" clip-path="url(#4685744057707115011)" points = "479.981695,132.258895 480.761386,132.382386 481.464755,132.740771 482.022952,133.298968 482.381336,134.002337 482.504827,134.782028 482.381336,135.561719 482.022952,136.265088 481.464755,136.823285 480.761386,137.181670 479.981695,137.305161 479.202004,137.181670 478.498635,136.823285 477.940438,136.265088 477.582053,135.561719 477.458562,134.782028 477.582053,134.002337 477.940438,133.298968 478.498635,132.740771 479.202004,132.382386"/>
<polygon style="fill: #0000ff; stroke: #000000; stroke-width: 1.000000; stroke-linejoin: miter; stroke-linecap: butt;  opacity: 0.953794" clip-path="url(#4685744057707115011)" points = "327.929634,237.450844 328.709325,237.574335 329.412694,237.932720 329.970891,238.490917 330.329276,239.194286 330.452766,239.973977 330.329276,240.753668 329.970891,241.457037 329.412694,242.015234 328.709325,242.373619 327.929634,242.497109 327.149943,242.373619 326.446574,242.015234 325.888377,241.457037 325.529992,240.753668 325.406501,239.973977 325.529992,239.194286 325.888377,238.490917 326.446574,237.932720 327.149943,237.574335"/>
<polygon style="fill: #0000ff; stroke: #000000; stroke-width: 1.000000; stroke-linejoin: miter; stroke-linecap: butt;  opacity: 0.876721" clip-path="url(#4685744057707115011)" points = "360.256015,214.479623 361.035706,214.603113 361.739075,214.961498 362.297272,215.519695 362.655657,216.223064 362.779147,217.002755 362.655657,217.782446 362.297272,218.485815 361.739075,219.044012 361.035706,219.402397 360.256015,219.525888 359.476324,219.402397 358.772955,219.044012 358.214758,218.485815 357.856373,217.782446 357.732882,217.002755 357.856373,216.223064 358.214758,215.519695 358.772955,214.961498 359.476324,214.603113"/>
<polygon style="fill: #0000ff; stroke: #000000; stroke-width: 1.000000; stroke-linejoin: miter; stroke-linecap: butt;  opacity: 0.802024" clip-path="url(#4685744057707115011)" points = "391.594710,192.192492 392.374401,192.315983 393.077770,192.674367 393.635967,193.232564 393.994351,193.935934 394.117842,194.715624 393.994351,195.495315 393.635967,196.198685 393.077770,196.756882 392.374401,197.115266 391.594710,197.238757 390.815019,197.115266 390.111650,196.756882 389.553453,196.198685 389.195068,195.495315 389.071577,194.715624 389.195068,193.935934 389.553453,193.232564 390.111650,192.674367 390.815019,192.315983"/>
<polygon style="fill: #0000ff; stroke: #000000; stroke-width: 1.000000; stroke-linejoin: miter; stroke-linecap: butt;  opacity: 0.728585" clip-path="url(#4685744057707115011)" points = "421.963811,171.428609 422.743502,171.552100 423.446871,171.910484 424.005068,172.468681 424.363453,173.172050 424.486944,173.951741 424.363453,174.731432 424.005068,175.434801 423.446871,175.992998 422.743502,176.351383 421.963811,176.474874 421.184120,176.351383 420.480751,175.992998 419.922554,175.434801 419.564169,174.731432 419.440679,173.951741 419.564169,173.172050 419.922554,172.468681 420.480751,171.910484 421.184120,171.552100"/>
<polygon style="fill: #0000ff; stroke: #000000; stroke-width: 1.000000; stroke-linejoin: miter; stroke-linecap: butt;  opacity: 0.656887" clip-path="url(#4685744057707115011)" points = "451.404729,151.698667 452.184419,151.822157 452.887789,152.180542 453.445986,152.738739 453.804370,153.442108 453.927861,154.221799 453.804370,155.001490 453.445986,155.704859 452.887789,156.263056 452.184419,156.621441 451.404729,156.744932 450.625038,156.621441 449.921668,156.263056 449.363471,155.704859 449.005087,155.001490 448.881596,154.221799 449.005087,153.442108 449.363471,152.738739 449.921668,152.180542 450.625038,151.822157"/>
<polygon style="fill: #0000ff; stroke: #000000; stroke-width: 1.000000; stroke-linejoin: miter; stroke-linecap: butt;  opacity: 0.587657" clip-path="url(#4685744057707115011)" points = "479.981695,132.258895 480.761386,132.382386 481.464755,132.740771 482.022952,133.298968 482.381336,134.002337 482.504827,134.782028 482.381336,135.561719 482.022952,136.265088 481.464755,136.823285 480.761386,137.181670 479.981695,137.305161 479.202004,137.181670 478.498635,136.823285 477.940438,136.265088 477.582053,135.561719 477.458562,134.782028 477.582053,134.002337 477.940438,133.298968 478.498635,132.740771 479.202004,132.382386"/>
<polygon style="fill: #0000ff; stroke: #000000; stroke-width: 1.000000; stroke-linejoin: miter; stroke-linecap: butt;  opacity: 1.000000" clip-path="url(#4685744057707115011)" points = "337.943533,208.508612 338.723223,208.632103 339.426593,208.990488 339.984790,209.548685 340.343174,210.252054 340.466665,211.031745 340.343174,211.811435 339.984790,212.514805 339.426593,213.073002 338.723223,213.431386 337.943533,213.554877 337.163842,213.431386 336.460473,213.073002 335.902276,212.514805 335.543891,211.811435 335.420400,211.031745 335.543891,210.252054 335.902276,209.548685 336.460473,208.990488 337.163842,208.632103"/>
<polygon style="fill: #0000ff; stroke: #000000; stroke-width: 1.000000; stroke-linejoin: miter; stroke-linecap: butt;  opacity: 0.921110" clip-path="url(#4685744057707115011)" points = "370.403299,186.098593 371.182990,186.222084 371.886359,186.580469 372.444556,187.138666 372.802940,187.842035 372.926431,188.621726 372.802940,189.401417 372.444556,190.104786 371.886359,190.662983 371.182990,191.021368 370.403299,191.144858 369.623608,191.021368 368.920239,190.662983 368.362042,190.104786 368.003657,189.401417 367.880166,188.621726 368.003657,187.842035 368.362042,187.138666 368.920239,186.580469 369.623608,186.222084"/>
<polygon style="fill: #0000ff; stroke: #000000; stroke-width: 1.000000; stroke-linejoin: miter; stroke-linecap: butt;  opacity: 0.845563" clip-path="url(#4685744057707115011)" points = "401.876685,163.627586 402.656375,163.751076 403.359745,164.109461 403.917942,164.667658 404.276326,165.371027 404.399817,166.150718 404.276326,166.930409 403.917942,167.633778 403.359745,168.191975 402.656375,168.550360 401.876685,168.673851 401.096994,168.550360 400.393624,168.191975 399.835427,167.633778 399.477043,166.930409 399.353552,166.150718 399.477043,165.371027 399.835427,164.667658 400.393624,164.109461 401.096994,163.751076"/>
<polygon style="fill: #0000ff; stroke: #000000; stroke-width: 1.000000; stroke-linejoin: miter; stroke-linecap: butt;  opacity: 0.772084" clip-path="url(#4685744057707115011)" points = "432.394607,142.016182 433.174298,142.139673 433.877668,142.498057 434.435865,143.056254 434.794249,143.759624 434.917740,144.539315 434.794249,145.319005 434.435865,146.022375 433.877668,146.580572 433.174298,146.938956 432.394607,147.062447 431.614917,146.938956 430.911547,146.580572 430.353350,146.022375 429.994966,145.319005 429.871475,144.539315 429.994966,143.759624 430.353350,143.056254 430.911547,142.498057 431.614917,142.139673"/>
<polygon style="fill: #0000ff; stroke: #000000; stroke-width: 1.000000; stroke-linejoin: miter; stroke-linecap: butt;  opacity: 0.698335" clip-path="url(#4685744057707115011)" points = "461.916314,123.204048 462.696005,123.327539 463.399375,123.685924 463.957572,124.244121 464.315956,124.947490 464.439447,125.727181 464.315956,126.506871 463.957572,127.210241 463.399375,127.768438 462.696005,128.126822 461.916314,128.250313 461.136624,128.126822 460.433254,127.768438 459.875057,127.210241 459.516673,126.506871 459.393182,125.727181 459.516673,124.947490 459.875057,124.244121 460.433254,123.685924 461.136624,123.327539"/>
<polygon style="fill: #0000ff; stroke: #000000; stroke-width: 1.000000; stroke-linejoin: miter; stroke-linecap: butt;  opacity: 0.627890" clip-path="url(#4685744057707115011)" points = "490.586367,104.011589 491.366058,104.135080 492.069427,104.493465 492.627624,105.051662 492.986009,105.755031 493.109500,106.534722 492.986009,107.314413 492.627624,108.017782 492.069427,108.575979 491.366058,108.934363 490.586367,109.057854 489.806676,108.934363 489.103307,108.575979 488.545110,108.017782 488.186725,107.314413 488.063235,106.534722 488.186725,105.755031 488.545110,105.051662 489.103307,104.493465 489.806676,104.135080"/>
<polygon style="fill: #0000ff; stroke: #000000; stroke-width: 1.000000; stroke-linejoin: miter; stroke-linecap: butt;  opacity: 0.607214" clip-path="url(#4685744057707115011)" points = "83.942278,308.291870 84.721969,308.415361 85.425338,308.773745 85.983535,309.331942 86.341919,310.035311 86.465410,310.815002 86.341919,311.594693 85.983535,312.298062 85.425338,312.856259 84.721969,313.214644 83.942278,313.338135 83.162587,313.214644 82.459218,312.856259 81.901021,312.298062 81.542636,311.594693 81.419145,310.815002 81.542636,310.035311 81.901021,309.331942 82.459218,308.773745 83.162587,308.415361"/>
<polygon style="fill: #0000ff; stroke: #000000; stroke-width: 1.000000; stroke-linejoin: miter; stroke-linecap: butt;  opacity: 0.544982" clip-path="url(#4685744057707115011)" points = "117.394117,281.928800 118.173808,282.052291 118.877177,282.410675 119.435374,282.968872 119.793759,283.672242 119.917250,284.451932 119.793759,285.231623 119.435374,285.934992 118.877177,286.493189 118.173808,286.851574 117.394117,286.975065 116.614427,286.851574 115.911057,286.493189 115.352860,285.934992 114.994476,285.231623 114.870985,284.451932 114.994476,283.672242 115.352860,282.968872 115.911057,282.410675 116.614427,282.052291"/>
<polygon style="fill: #0000ff; stroke: #000000; stroke-width: 1.000000; stroke-linejoin: miter; stroke-linecap: butt;  opacity: 0.481377" clip-path="url(#4685744057707115011)" points = "150.054821,258.957784 150.834511,259.081275 151.537881,259.439660 152.096078,259.997857 152.454462,260.701226 152.577953,261.480917 152.454462,262.260608 152.096078,262.963977 151.537881,263.522174 150.834511,263.880558 150.054821,264.004049 149.275130,263.880558 148.571761,263.522174 148.013564,262.963977 147.655179,262.260608 147.531688,261.480917 147.655179,260.701226 148.013564,259.997857 148.571761,259.439660 149.275130,259.081275"/>
<polygon style="fill: #0000ff; stroke: #000000; stroke-width: 1.000000; stroke-linejoin: miter; stroke-linecap: butt;  opacity: 0.421571" clip-path="url(#4685744057707115011)" points = "181.763659,234.762536 182.543349,234.886027 183.246719,235.244411 183.804916,235.802608 184.163300,236.505978 184.286791,237.285668 184.163300,238.065359 183.804916,238.768728 183.246719,239.326925 182.543349,239.685310 181.763659,239.808801 180.983968,239.685310 180.280599,239.326925 179.722402,238.768728 179.364017,238.065359 179.240526,237.285668 179.364017,236.505978 179.722402,235.802608 180.280599,235.244411 180.983968,234.886027"/>
<polygon style="fill: #0000ff; stroke: #000000; stroke-width: 1.000000; stroke-linejoin: miter; stroke-linecap: butt;  opacity: 0.358844" clip-path="url(#4685744057707115011)" points = "212.724905,215.352042 213.504595,215.475533 214.207965,215.833917 214.766162,216.392114 215.124546,217.095484 215.248037,217.875174 215.124546,218.654865 214.766162,219.358235 214.207965,219.916432 213.504595,220.274816 212.724905,220.398307 211.945214,220.274816 211.241844,219.916432 210.683647,219.358235 210.325263,218.654865 210.201772,217.875174 210.325263,217.095484 210.683647,216.392114 211.241844,215.833917 211.945214,215.475533"/>
<polygon style="fill: #0000ff; stroke: #000000; stroke-width: 1.000000; stroke-linejoin: miter; stroke-linecap: butt;  opacity: 0.300000" clip-path="url(#4685744057707115011)" points = "242.796096,194.476152 243.575787,194.599643 244.279156,194.958027 244.837353,195.516224 245.195738,196.219594 245.319229,196.999284 245.195738,197.778975 244.837353,198.482344 244.279156,199.040541 243.575787,199.398926 242.796096,199.522417 242.016405,199.398926 241.313036,199.040541 240.754839,198.482344 240.396454,197.778975 240.272963,196.999284 240.396454,196.219594 240.754839,195.516224 241.313036,194.958027 242.016405,194.599643"/>
<polygon style="fill: #0000ff; stroke: #000000; stroke-width: 1.000000; stroke-linejoin: miter; stroke-linecap: butt;  opacity: 0.894825" clip-path="url(#4685744057707115011)" points = "308.526029,268.651640 309.305719,268.775131 310.009089,269.133516 310.567286,269.691713 310.925670,270.395082 311.049161,271.174773 310.925670,271.954464 310.567286,272.657833 310.009089,273.216030 309.305719,273.574415 308.526029,273.697905 307.746338,273.574415 307.042968,273.216030 306.484771,272.657833 306.126387,271.954464 306.002896,271.174773 306.126387,270.395082 306.484771,269.691713 307.042968,269.133516 307.746338,268.775131"/>
<polygon style="fill: #0000ff; stroke: #000000; stroke-width: 1.000000; stroke-linejoin: miter; stroke-linecap: butt;  opacity: 0.819324" clip-path="url(#4685744057707115011)" points = "340.769888,245.664243 341.549579,245.787733 342.252948,246.146118 342.811145,246.704315 343.169530,247.407684 343.293021,248.187375 343.169530,248.967066 342.811145,249.670435 342.252948,250.228632 341.549579,250.587017 340.769888,250.710508 339.990197,250.587017 339.286828,250.228632 338.728631,249.670435 338.370246,248.967066 338.246756,248.187375 338.370246,247.407684 338.728631,246.704315 339.286828,246.146118 339.990197,245.787733"/>
<polygon style="fill: #0000ff; stroke: #000000; stroke-width: 1.000000; stroke-linejoin: miter; stroke-linecap: butt;  opacity: 0.746044" clip-path="url(#4685744057707115011)" points = "372.035466,223.429631 372.815157,223.553122 373.518526,223.911507 374.076723,224.469704 374.435108,225.173073 374.558599,225.952764 374.435108,226.732455 374.076723,227.435824 373.518526,227.994021 372.815157,228.352406 372.035466,228.475896 371.255776,228.352406 370.552406,227.994021 369.994209,227.435824 369.635825,226.732455 369.512334,225.952764 369.635825,225.173073 369.994209,224.469704 370.552406,223.911507 371.255776,223.553122"/>
<polygon style="fill: #0000ff; stroke: #000000; stroke-width: 1.000000; stroke-linejoin: miter; stroke-linecap: butt;  opacity: 0.674493" clip-path="url(#4685744057707115011)" points = "402.356323,202.257083 403.136013,202.380574 403.839383,202.738959 404.397580,203.297156 404.755964,204.000525 404.879455,204.780216 404.755964,205.559907 404.397580,206.263276 403.839383,206.821473 403.136013,207.179858 402.356323,207.303348 401.576632,207.179858 400.873263,206.821473 400.315066,206.263276 399.956681,205.559907 399.833190,204.780216 399.956681,204.000525 400.315066,203.297156 400.873263,202.738959 401.576632,202.380574"/>
<polygon style="fill: #0000ff; stroke: #000000; stroke-width: 1.000000; stroke-linejoin: miter; stroke-linecap: butt;  opacity: 0.604219" clip-path="url(#4685744057707115011)" points = "431.753942,182.455741 432.533633,182.579232 433.237002,182.937617 433.795199,183.495814 434.153584,184.199183 434.277075,184.978874 434.153584,185.758565 433.795199,186.461934 433.237002,187.020131 432.533633,187.378515 431.753942,187.502006 430.974251,187.378515 430.270882,187.020131 429.712685,186.461934 429.354300,185.758565 429.230810,184.978874 429.354300,184.199183 429.712685,183.495814 430.270882,182.937617 430.974251,182.579232"/>
<polygon style="fill: #0000ff; stroke: #000000; stroke-width: 1.000000; stroke-linejoin: miter; stroke-linecap: butt;  opacity: 0.536407" clip-path="url(#4685744057707115011)" points = "460.296917,162.892803 461.076608,163.016294 461.779977,163.374678 462.338174,163.932875 462.696559,164.636245 462.820050,165.415935 462.696559,166.195626 462.338174,166.898995 461.779977,167.457192 461.076608,167.815577 460.296917,167.939068 459.517226,167.815577 458.813857,167.457192 458.255660,166.898995 457.897275,166.195626 457.773785,165.415935 457.897275,164.636245 458.255660,163.932875 458.813857,163.374678 459.517226,163.016294"/>
</g>
<g id="matplotlib.axis1">
</g>
<g id="matplotlib.axis2">
</g>
</g>
</g>
</svg>
