<?xml version="1.0" standalone="no"?>
<!DOCTYPE svg PUBLIC "-//W3C//DTD SVG 1.1//EN"
  "http://www.w3.org/Graphics/SVG/1.1/DTD/svg11.dtd">
<!-- Created with matplotlib (http://matplotlib.sourceforge.net/) -->
<svg width="576" height="432" viewBox="0 0 576 432"
   xmlns="http://www.w3.org/2000/svg"
   xmlns:xlink="http://www.w3.org/1999/xlink"
   version="1.1"
   id="svg1">
<g id="figure1">
<polygon style="fill: #ffffff; stroke: #ffffff; stroke-width: 1.000000; stroke-linejoin: miter; stroke-linecap: square;  opacity: 1.000000"  points = "0.000000,432.000000 0.000000,0.000000 576.000000,0.000000 576.000000,432.000000"/>
<polygon style="fill: #ffffff; opacity: 1.000000"  points = "0.000000,432.000000 0.000000,0.000000 576.000000,0.000000 576.000000,432.000000"/>
<g id="axis3d1">
<polygon style="fill: #f2f2f2; stroke: #f2f2f2; stroke-width: 1.000000; stroke-linejoin: miter; stroke-linecap: square;  opacity: 0.100000"  points = "241.211914,230.626613 508.260241,289.840834 519.433224,81.348607 238.467267,28.237352"/>
<path style="fill: none; stroke: #000000; stroke-width: 0.750000; stroke-linejoin: miter; stroke-linecap: square;  opacity: 1.000000"  d="M 76.357701,336.543225 L 357.328625,405.507833 "/>
<text style="font-size: 12.000000; font-family: Bitstream Vera Sans; font-style: Roman; fill: #000000;" x="127.936123" y="379.403446" transform="translate(127.936123,379.403446) rotate(-341.9) translate(-127.936123,-379.403446)">max_call_mismatch_rate</text>
<g id="linecollection1">
<path style="fill: none; stroke: #e6e6e6; stroke-width: 1.000000; stroke-linejoin: miter; stroke-linecap: butt;  opacity: 1.000000"  d="M 81.730847,337.862069 L 246.335639,231.762727 L 243.846516,29.254197 "/>
<path style="fill: none; stroke: #e6e6e6; stroke-width: 1.000000; stroke-linejoin: miter; stroke-linecap: butt;  opacity: 1.000000"  d="M 133.806316,350.644048 L 295.959675,242.766161 L 295.968604,39.106883 "/>
<path style="fill: none; stroke: #e6e6e6; stroke-width: 1.000000; stroke-linejoin: miter; stroke-linecap: butt;  opacity: 1.000000"  d="M 186.791666,363.649357 L 346.387419,253.947806 L 348.978075,49.127313 "/>
<path style="fill: none; stroke: #e6e6e6; stroke-width: 1.000000; stroke-linejoin: miter; stroke-linecap: butt;  opacity: 1.000000"  d="M 240.710954,376.883903 L 397.638557,265.312027 L 402.897787,59.319806 "/>
<path style="fill: none; stroke: #e6e6e6; stroke-width: 1.000000; stroke-linejoin: miter; stroke-linecap: butt;  opacity: 1.000000"  d="M 295.589092,390.353800 L 449.733420,276.863332 L 457.751387,69.688832 "/>
<path style="fill: none; stroke: #e6e6e6; stroke-width: 1.000000; stroke-linejoin: miter; stroke-linecap: butt;  opacity: 1.000000"  d="M 351.451887,404.065382 L 502.693018,288.606380 L 513.563349,80.239019 "/>
</g>
<g id="xtick1">
<text style="font-size: 12.000000; font-family: Bitstream Vera Sans; font-style: Roman; fill: #000000;" x="68.730847" y="342.362069" >0.05</text>
<path style="fill: none; stroke: #000000; stroke-width: 1.000000; stroke-linejoin: miter; stroke-linecap: square;  opacity: 1.000000"  d="M 81.730847,337.862069 L 79.242567,345.465257 "/>
</g>
<g id="xtick2">
<text style="font-size: 12.000000; font-family: Bitstream Vera Sans; font-style: Roman; fill: #000000;" x="120.806316" y="355.144048" >0.10</text>
<path style="fill: none; stroke: #000000; stroke-width: 1.000000; stroke-linejoin: miter; stroke-linecap: square;  opacity: 1.000000"  d="M 133.806316,350.644048 L 131.318036,358.247235 "/>
</g>
<g id="xtick3">
<text style="font-size: 12.000000; font-family: Bitstream Vera Sans; font-style: Roman; fill: #000000;" x="173.791666" y="368.149357" >0.15</text>
<path style="fill: none; stroke: #000000; stroke-width: 1.000000; stroke-linejoin: miter; stroke-linecap: square;  opacity: 1.000000"  d="M 186.791666,363.649357 L 184.303386,371.252545 "/>
</g>
<g id="xtick4">
<text style="font-size: 12.000000; font-family: Bitstream Vera Sans; font-style: Roman; fill: #000000;" x="227.710954" y="381.383903" >0.20</text>
<path style="fill: none; stroke: #000000; stroke-width: 1.000000; stroke-linejoin: miter; stroke-linecap: square;  opacity: 1.000000"  d="M 240.710954,376.883903 L 238.222674,384.487091 "/>
</g>
<g id="xtick5">
<text style="font-size: 12.000000; font-family: Bitstream Vera Sans; font-style: Roman; fill: #000000;" x="282.589092" y="394.853800" >0.25</text>
<path style="fill: none; stroke: #000000; stroke-width: 1.000000; stroke-linejoin: miter; stroke-linecap: square;  opacity: 1.000000"  d="M 295.589092,390.353800 L 293.100812,397.956987 "/>
</g>
<g id="xtick6">
<text style="font-size: 12.000000; font-family: Bitstream Vera Sans; font-style: Roman; fill: #000000;" x="338.451887" y="408.565382" >0.30</text>
<path style="fill: none; stroke: #000000; stroke-width: 1.000000; stroke-linejoin: miter; stroke-linecap: square;  opacity: 1.000000"  d="M 351.451887,404.065382 L 348.963607,411.668569 "/>
</g>
</g>
<g id="axis3d2">
<polygon style="fill: #e6e6e6; stroke: #e6e6e6; stroke-width: 1.000000; stroke-linejoin: miter; stroke-linecap: square;  opacity: 0.500000"  points = "76.357701,336.543225 241.211914,230.626613 238.467267,28.237352 64.421350,123.401250"/>
<path style="fill: none; stroke: #000000; stroke-width: 0.750000; stroke-linejoin: miter; stroke-linecap: square;  opacity: 1.000000"  d="M 357.328625,405.507833 L 508.260241,289.840834 "/>
<text style="font-size: 12.000000; font-family: Bitstream Vera Sans; font-style: Roman; fill: #000000;" x="425.958426" y="409.045229" transform="translate(425.958426,409.045229) rotate(-45.6) translate(-425.958426,-409.045229)">max_call_NA_rate</text>
<g id="linecollection2">
<path style="fill: none; stroke: #e6e6e6; stroke-width: 1.000000; stroke-linejoin: miter; stroke-linecap: butt;  opacity: 1.000000"  d="M 360.586508,403.011142 L 79.904448,334.264487 L 68.180167,121.346024 "/>
<path style="fill: none; stroke: #e6e6e6; stroke-width: 1.000000; stroke-linejoin: miter; stroke-linecap: butt;  opacity: 1.000000"  d="M 386.275008,383.324666 L 107.888616,316.285036 L 97.815435,105.142210 "/>
<path style="fill: none; stroke: #e6e6e6; stroke-width: 1.000000; stroke-linejoin: miter; stroke-linecap: butt;  opacity: 1.000000"  d="M 411.315455,364.134828 L 135.197551,298.739413 L 126.697783,89.350074 "/>
<path style="fill: none; stroke: #e6e6e6; stroke-width: 1.000000; stroke-linejoin: miter; stroke-linecap: butt;  opacity: 1.000000"  d="M 435.732067,345.423067 L 161.855403,281.612103 L 154.855544,73.954124 "/>
<path style="fill: none; stroke: #e6e6e6; stroke-width: 1.000000; stroke-linejoin: miter; stroke-linecap: butt;  opacity: 1.000000"  d="M 459.547871,327.171738 L 187.885180,264.888322 L 182.315648,58.939635 "/>
<path style="fill: none; stroke: #e6e6e6; stroke-width: 1.000000; stroke-linejoin: miter; stroke-linecap: butt;  opacity: 1.000000"  d="M 482.784771,309.364054 L 213.308820,248.553975 L 209.103706,44.292603 "/>
<path style="fill: none; stroke: #e6e6e6; stroke-width: 1.000000; stroke-linejoin: miter; stroke-linecap: butt;  opacity: 1.000000"  d="M 505.463623,291.984033 L 238.147253,232.595617 L 235.244090,29.999704 "/>
</g>
<g id="xtick7">
<text style="font-size: 12.000000; font-family: Bitstream Vera Sans; font-style: Roman; fill: #000000;" x="347.586508" y="407.511142" >0.36</text>
<path style="fill: none; stroke: #000000; stroke-width: 1.000000; stroke-linejoin: miter; stroke-linecap: square;  opacity: 1.000000"  d="M 360.586508,403.011142 L 366.304039,408.606662 "/>
</g>
<g id="xtick8">
<text style="font-size: 12.000000; font-family: Bitstream Vera Sans; font-style: Roman; fill: #000000;" x="373.275008" y="387.824666" >0.37</text>
<path style="fill: none; stroke: #000000; stroke-width: 1.000000; stroke-linejoin: miter; stroke-linecap: square;  opacity: 1.000000"  d="M 386.275008,383.324666 L 391.992538,388.920187 "/>
</g>
<g id="xtick9">
<text style="font-size: 12.000000; font-family: Bitstream Vera Sans; font-style: Roman; fill: #000000;" x="398.315455" y="368.634828" >0.38</text>
<path style="fill: none; stroke: #000000; stroke-width: 1.000000; stroke-linejoin: miter; stroke-linecap: square;  opacity: 1.000000"  d="M 411.315455,364.134828 L 417.032985,369.730348 "/>
</g>
<g id="xtick10">
<text style="font-size: 12.000000; font-family: Bitstream Vera Sans; font-style: Roman; fill: #000000;" x="422.732067" y="349.923067" >0.39</text>
<path style="fill: none; stroke: #000000; stroke-width: 1.000000; stroke-linejoin: miter; stroke-linecap: square;  opacity: 1.000000"  d="M 435.732067,345.423067 L 441.449597,351.018587 "/>
</g>
<g id="xtick11">
<text style="font-size: 12.000000; font-family: Bitstream Vera Sans; font-style: Roman; fill: #000000;" x="446.547871" y="331.671738" >0.40</text>
<path style="fill: none; stroke: #000000; stroke-width: 1.000000; stroke-linejoin: miter; stroke-linecap: square;  opacity: 1.000000"  d="M 459.547871,327.171738 L 465.265401,332.767259 "/>
</g>
<g id="xtick12">
<text style="font-size: 12.000000; font-family: Bitstream Vera Sans; font-style: Roman; fill: #000000;" x="470.284771" y="313.864054" >0.41</text>
<path style="fill: none; stroke: #000000; stroke-width: 1.000000; stroke-linejoin: miter; stroke-linecap: square;  opacity: 1.000000"  d="M 482.784771,309.364054 L 488.502301,314.959575 "/>
</g>
<g id="xtick13">
<text style="font-size: 12.000000; font-family: Bitstream Vera Sans; font-style: Roman; fill: #000000;" x="492.440186" y="296.484033" >0.42</text>
<path style="fill: none; stroke: #000000; stroke-width: 1.000000; stroke-linejoin: miter; stroke-linecap: square;  opacity: 1.000000"  d="M 505.463623,291.984033 L 511.181153,297.579553 "/>
</g>
</g>
<g id="axis3d3">
<polygon style="fill: #f2f2f2; stroke: #f2f2f2; stroke-width: 1.000000; stroke-linejoin: miter; stroke-linecap: square;  opacity: 0.100000"  points = "76.357701,336.543225 357.328625,405.507833 508.260241,289.840834 241.211914,230.626613"/>
<path style="fill: none; stroke: #000000; stroke-width: 0.750000; stroke-linejoin: miter; stroke-linecap: square;  opacity: 1.000000"  d="M 76.357701,336.543225 L 64.421350,123.401250 "/>
<text style="font-size: 12.000000; font-family: Bitstream Vera Sans; font-style: Roman; fill: #000000;" x="42.776287" y="295.161185" transform="translate(42.776287,295.161185) rotate(-92.4) translate(-42.776287,-295.161185)">avg_mismatch_rate</text>
<g id="linecollection3">
<path style="fill: none; stroke: #e6e6e6; stroke-width: 1.000000; stroke-linejoin: miter; stroke-linecap: butt;  opacity: 1.000000"  d="M 76.131056,332.496136 L 241.159600,226.768965 L 508.472750,285.875342 "/>
<path style="fill: none; stroke: #e6e6e6; stroke-width: 1.000000; stroke-linejoin: miter; stroke-linecap: butt;  opacity: 1.000000"  d="M 74.761295,308.036938 L 240.843595,203.466858 L 509.756781,261.914813 "/>
<path style="fill: none; stroke: #e6e6e6; stroke-width: 1.000000; stroke-linejoin: miter; stroke-linecap: butt;  opacity: 1.000000"  d="M 73.374343,283.270770 L 240.523912,179.893572 L 511.056411,237.663220 "/>
<path style="fill: none; stroke: #e6e6e6; stroke-width: 1.000000; stroke-linejoin: miter; stroke-linecap: butt;  opacity: 1.000000"  d="M 71.969875,258.191816 L 240.200487,156.044348 L 512.371924,213.115229 "/>
<path style="fill: none; stroke: #e6e6e6; stroke-width: 1.000000; stroke-linejoin: miter; stroke-linecap: butt;  opacity: 1.000000"  d="M 70.547556,232.794112 L 239.873254,131.914310 L 513.703614,188.265371 "/>
<path style="fill: none; stroke: #e6e6e6; stroke-width: 1.000000; stroke-linejoin: miter; stroke-linecap: butt;  opacity: 1.000000"  d="M 69.107044,207.071543 L 239.542145,107.498471 L 515.051781,163.108045 "/>
<path style="fill: none; stroke: #e6e6e6; stroke-width: 1.000000; stroke-linejoin: miter; stroke-linecap: butt;  opacity: 1.000000"  d="M 67.647987,181.017835 L 239.207091,82.791721 L 516.416733,137.637508 "/>
<path style="fill: none; stroke: #e6e6e6; stroke-width: 1.000000; stroke-linejoin: miter; stroke-linecap: butt;  opacity: 1.000000"  d="M 66.170026,154.626554 L 238.868021,57.788832 L 517.798785,111.847874 "/>
<path style="fill: none; stroke: #e6e6e6; stroke-width: 1.000000; stroke-linejoin: miter; stroke-linecap: butt;  opacity: 1.000000"  d="M 64.672790,127.891094 L 238.524862,32.484445 L 519.198260,85.733110 "/>
</g>
<g id="xtick14">
<text style="font-size: 12.000000; font-family: Bitstream Vera Sans; font-style: Roman; fill: #000000;" x="59.131056" y="336.996136" >0.010</text>
<path style="fill: none; stroke: #000000; stroke-width: 1.000000; stroke-linejoin: miter; stroke-linecap: square;  opacity: 1.000000"  d="M 76.131056,332.496136 L 68.138103,332.831851 "/>
</g>
<g id="xtick15">
<text style="font-size: 12.000000; font-family: Bitstream Vera Sans; font-style: Roman; fill: #000000;" x="57.761295" y="312.536938" >0.015</text>
<path style="fill: none; stroke: #000000; stroke-width: 1.000000; stroke-linejoin: miter; stroke-linecap: square;  opacity: 1.000000"  d="M 74.761295,308.036938 L 66.768342,308.372654 "/>
</g>
<g id="xtick16">
<text style="font-size: 12.000000; font-family: Bitstream Vera Sans; font-style: Roman; fill: #000000;" x="56.374343" y="287.770770" >0.020</text>
<path style="fill: none; stroke: #000000; stroke-width: 1.000000; stroke-linejoin: miter; stroke-linecap: square;  opacity: 1.000000"  d="M 73.374343,283.270770 L 65.381390,283.606485 "/>
</g>
<g id="xtick17">
<text style="font-size: 12.000000; font-family: Bitstream Vera Sans; font-style: Roman; fill: #000000;" x="54.969875" y="262.691816" >0.025</text>
<path style="fill: none; stroke: #000000; stroke-width: 1.000000; stroke-linejoin: miter; stroke-linecap: square;  opacity: 1.000000"  d="M 71.969875,258.191816 L 63.976922,258.527531 "/>
</g>
<g id="xtick18">
<text style="font-size: 12.000000; font-family: Bitstream Vera Sans; font-style: Roman; fill: #000000;" x="53.547556" y="237.294112" >0.030</text>
<path style="fill: none; stroke: #000000; stroke-width: 1.000000; stroke-linejoin: miter; stroke-linecap: square;  opacity: 1.000000"  d="M 70.547556,232.794112 L 62.554603,233.129827 "/>
</g>
<g id="xtick19">
<text style="font-size: 12.000000; font-family: Bitstream Vera Sans; font-style: Roman; fill: #000000;" x="52.107044" y="211.571543" >0.035</text>
<path style="fill: none; stroke: #000000; stroke-width: 1.000000; stroke-linejoin: miter; stroke-linecap: square;  opacity: 1.000000"  d="M 69.107044,207.071543 L 61.114091,207.407258 "/>
</g>
<g id="xtick20">
<text style="font-size: 12.000000; font-family: Bitstream Vera Sans; font-style: Roman; fill: #000000;" x="50.647987" y="185.517835" >0.040</text>
<path style="fill: none; stroke: #000000; stroke-width: 1.000000; stroke-linejoin: miter; stroke-linecap: square;  opacity: 1.000000"  d="M 67.647987,181.017835 L 59.655034,181.353551 "/>
</g>
<g id="xtick21">
<text style="font-size: 12.000000; font-family: Bitstream Vera Sans; font-style: Roman; fill: #000000;" x="49.170026" y="159.126554" >0.045</text>
<path style="fill: none; stroke: #000000; stroke-width: 1.000000; stroke-linejoin: miter; stroke-linecap: square;  opacity: 1.000000"  d="M 66.170026,154.626554 L 58.177073,154.962269 "/>
</g>
<g id="xtick22">
<text style="font-size: 12.000000; font-family: Bitstream Vera Sans; font-style: Roman; fill: #000000;" x="47.672790" y="132.391094" >0.050</text>
<path style="fill: none; stroke: #000000; stroke-width: 1.000000; stroke-linejoin: miter; stroke-linecap: square;  opacity: 1.000000"  d="M 64.672790,127.891094 L 56.679837,128.226810 "/>
</g>
</g>
<g id="axes1">
<g id="regpolycollection1">
<defs>
    <clipPath id="4685744057707115011">
    <rect x="0.000000" y="0.000000" width="576.000000" height="432.000000"
    style="stroke: gray; fill: none;"/>
    </clipPath>
</defs>
<polygon style="fill: #0000ff; stroke: #000000; stroke-width: 1.000000; stroke-linejoin: miter; stroke-linecap: butt;  opacity: 0.679054" clip-path="url(#4685744057707115011)" points = "268.712992,168.148998 269.492683,168.272489 270.196052,168.630874 270.754249,169.189071 271.112634,169.892440 271.236125,170.672131 271.112634,171.451821 270.754249,172.155191 270.196052,172.713388 269.492683,173.071772 268.712992,173.195263 267.933301,173.071772 267.229932,172.713388 266.671735,172.155191 266.313351,171.451821 266.189860,170.672131 266.313351,169.892440 266.671735,169.189071 267.229932,168.630874 267.933301,168.272489"/>
<polygon style="fill: #0000ff; stroke: #000000; stroke-width: 1.000000; stroke-linejoin: miter; stroke-linecap: butt;  opacity: 0.408755" clip-path="url(#4685744057707115011)" points = "164.939917,213.581605 165.719608,213.705096 166.422977,214.063480 166.981174,214.621677 167.339558,215.325046 167.463049,216.104737 167.339558,216.884428 166.981174,217.587797 166.422977,218.145994 165.719608,218.504379 164.939917,218.627870 164.160226,218.504379 163.456857,218.145994 162.898660,217.587797 162.540275,216.884428 162.416784,216.104737 162.540275,215.325046 162.898660,214.621677 163.456857,214.063480 164.160226,213.705096"/>
<polygon style="fill: #0000ff; stroke: #000000; stroke-width: 1.000000; stroke-linejoin: miter; stroke-linecap: butt;  opacity: 0.537082" clip-path="url(#4685744057707115011)" points = "215.992742,193.558567 216.772433,193.682058 217.475802,194.040443 218.033999,194.598640 218.392384,195.302009 218.515875,196.081700 218.392384,196.861390 218.033999,197.564760 217.475802,198.122957 216.772433,198.481341 215.992742,198.604832 215.213051,198.481341 214.509682,198.122957 213.951485,197.564760 213.593100,196.861390 213.469609,196.081700 213.593100,195.302009 213.951485,194.598640 214.509682,194.040443 215.213051,193.682058"/>
<polygon style="fill: #0000ff; stroke: #000000; stroke-width: 1.000000; stroke-linejoin: miter; stroke-linecap: butt;  opacity: 0.656247" clip-path="url(#4685744057707115011)" points = "268.789101,179.631157 269.568791,179.754648 270.272161,180.113033 270.830358,180.671230 271.188742,181.374599 271.312233,182.154290 271.188742,182.933981 270.830358,183.637350 270.272161,184.195547 269.568791,184.553932 268.789101,184.677422 268.009410,184.553932 267.306040,184.195547 266.747843,183.637350 266.389459,182.933981 266.265968,182.154290 266.389459,181.374599 266.747843,180.671230 267.306040,180.113033 268.009410,179.754648"/>
<polygon style="fill: #0000ff; stroke: #000000; stroke-width: 1.000000; stroke-linejoin: miter; stroke-linecap: butt;  opacity: 0.741822" clip-path="url(#4685744057707115011)" points = "323.064039,183.798828 323.843730,183.922319 324.547099,184.280704 325.105296,184.838901 325.463681,185.542270 325.587172,186.321961 325.463681,187.101652 325.105296,187.805021 324.547099,188.363218 323.843730,188.721602 323.064039,188.845093 322.284348,188.721602 321.580979,188.363218 321.022782,187.805021 320.664397,187.101652 320.540907,186.321961 320.664397,185.542270 321.022782,184.838901 321.580979,184.280704 322.284348,183.922319"/>
<polygon style="fill: #0000ff; stroke: #000000; stroke-width: 1.000000; stroke-linejoin: miter; stroke-linecap: butt;  opacity: 0.870384" clip-path="url(#4685744057707115011)" points = "378.911627,167.810408 379.691317,167.933899 380.394687,168.292284 380.952884,168.850481 381.311268,169.553850 381.434759,170.333541 381.311268,171.113232 380.952884,171.816601 380.394687,172.374798 379.691317,172.733182 378.911627,172.856673 378.131936,172.733182 377.428567,172.374798 376.870370,171.816601 376.511985,171.113232 376.388494,170.333541 376.511985,169.553850 376.870370,168.850481 377.428567,168.292284 378.131936,167.933899"/>
<polygon style="fill: #0000ff; stroke: #000000; stroke-width: 1.000000; stroke-linejoin: miter; stroke-linecap: butt;  opacity: 0.965625" clip-path="url(#4685744057707115011)" points = "435.919328,169.506342 436.699019,169.629833 437.402388,169.988217 437.960585,170.546414 438.318970,171.249783 438.442460,172.029474 438.318970,172.809165 437.960585,173.512534 437.402388,174.070731 436.699019,174.429116 435.919328,174.552607 435.139637,174.429116 434.436268,174.070731 433.878071,173.512534 433.519686,172.809165 433.396195,172.029474 433.519686,171.249783 433.878071,170.546414 434.436268,169.988217 435.139637,169.629833"/>
<polygon style="fill: #0000ff; stroke: #000000; stroke-width: 1.000000; stroke-linejoin: miter; stroke-linecap: butt;  opacity: 0.589886" clip-path="url(#4685744057707115011)" points = "269.010557,213.041420 269.790248,213.164911 270.493617,213.523295 271.051814,214.081492 271.410199,214.784862 271.533690,215.564552 271.410199,216.344243 271.051814,217.047613 270.493617,217.605810 269.790248,217.964194 269.010557,218.087685 268.230866,217.964194 267.527497,217.605810 266.969300,217.047613 266.610915,216.344243 266.487425,215.564552 266.610915,214.784862 266.969300,214.081492 267.527497,213.523295 268.230866,213.164911"/>
<polygon style="fill: #0000ff; stroke: #000000; stroke-width: 1.000000; stroke-linejoin: miter; stroke-linecap: butt;  opacity: 0.351094" clip-path="url(#4685744057707115011)" points = "165.902015,243.277742 166.681706,243.401233 167.385075,243.759618 167.943272,244.317815 168.301656,245.021184 168.425147,245.800875 168.301656,246.580565 167.943272,247.283935 167.385075,247.842132 166.681706,248.200516 165.902015,248.324007 165.122324,248.200516 164.418955,247.842132 163.860758,247.283935 163.502373,246.580565 163.378882,245.800875 163.502373,245.021184 163.860758,244.317815 164.418955,243.759618 165.122324,243.401233"/>
<polygon style="fill: #0000ff; stroke: #000000; stroke-width: 1.000000; stroke-linejoin: miter; stroke-linecap: butt;  opacity: 0.455071" clip-path="url(#4685744057707115011)" points = "216.813776,235.321320 217.593467,235.444811 218.296836,235.803196 218.855033,236.361393 219.213418,237.064762 219.336909,237.844453 219.213418,238.624144 218.855033,239.327513 218.296836,239.885710 217.593467,240.244095 216.813776,240.367585 216.034085,240.244095 215.330716,239.885710 214.772519,239.327513 214.414135,238.624144 214.290644,237.844453 214.414135,237.064762 214.772519,236.361393 215.330716,235.803196 216.034085,235.444811"/>
<polygon style="fill: #0000ff; stroke: #000000; stroke-width: 1.000000; stroke-linejoin: miter; stroke-linecap: butt;  opacity: 0.559689" clip-path="url(#4685744057707115011)" points = "269.111326,228.244082 269.891017,228.367573 270.594386,228.725958 271.152583,229.284155 271.510968,229.987524 271.634459,230.767215 271.510968,231.546905 271.152583,232.250275 270.594386,232.808472 269.891017,233.166856 269.111326,233.290347 268.331635,233.166856 267.628266,232.808472 267.070069,232.250275 266.711685,231.546905 266.588194,230.767215 266.711685,229.987524 267.070069,229.284155 267.628266,228.725958 268.331635,228.367573"/>
<polygon style="fill: #0000ff; stroke: #000000; stroke-width: 1.000000; stroke-linejoin: miter; stroke-linecap: butt;  opacity: 0.674494" clip-path="url(#4685744057707115011)" points = "322.839359,217.306317 323.619049,217.429808 324.322419,217.788193 324.880616,218.346390 325.239000,219.049759 325.362491,219.829450 325.239000,220.609141 324.880616,221.312510 324.322419,221.870707 323.619049,222.229092 322.839359,222.352582 322.059668,222.229092 321.356299,221.870707 320.798102,221.312510 320.439717,220.609141 320.316226,219.829450 320.439717,219.049759 320.798102,218.346390 321.356299,217.788193 322.059668,217.429808"/>
<polygon style="fill: #0000ff; stroke: #000000; stroke-width: 1.000000; stroke-linejoin: miter; stroke-linecap: butt;  opacity: 0.792836" clip-path="url(#4685744057707115011)" points = "378.135263,205.956218 378.914954,206.079708 379.618324,206.438093 380.176521,206.996290 380.534905,207.699659 380.658396,208.479350 380.534905,209.259041 380.176521,209.962410 379.618324,210.520607 378.914954,210.878992 378.135263,211.002483 377.355573,210.878992 376.652203,210.520607 376.094006,209.962410 375.735622,209.259041 375.612131,208.479350 375.735622,207.699659 376.094006,206.996290 376.652203,206.438093 377.355573,206.079708"/>
<polygon style="fill: #0000ff; stroke: #000000; stroke-width: 1.000000; stroke-linejoin: miter; stroke-linecap: butt;  opacity: 0.886741" clip-path="url(#4685744057707115011)" points = "434.603102,207.853249 435.382792,207.976740 436.086162,208.335124 436.644359,208.893321 437.002743,209.596690 437.126234,210.376381 437.002743,211.156072 436.644359,211.859441 436.086162,212.417638 435.382792,212.776023 434.603102,212.899514 433.823411,212.776023 433.120041,212.417638 432.561844,211.859441 432.203460,211.156072 432.079969,210.376381 432.203460,209.596690 432.561844,208.893321 433.120041,208.335124 433.823411,207.976740"/>
<polygon style="fill: #0000ff; stroke: #000000; stroke-width: 1.000000; stroke-linejoin: miter; stroke-linecap: butt;  opacity: 0.527132" clip-path="url(#4685744057707115011)" points = "269.219974,244.635299 269.999665,244.758790 270.703034,245.117175 271.261231,245.675372 271.619615,246.378741 271.743106,247.158432 271.619615,247.938123 271.261231,248.641492 270.703034,249.199689 269.999665,249.558073 269.219974,249.681564 268.440283,249.558073 267.736914,249.199689 267.178717,248.641492 266.820332,247.938123 266.696841,247.158432 266.820332,246.378741 267.178717,245.675372 267.736914,245.117175 268.440283,244.758790"/>
<polygon style="fill: #0000ff; stroke: #000000; stroke-width: 1.000000; stroke-linejoin: miter; stroke-linecap: butt;  opacity: 0.325384" clip-path="url(#4685744057707115011)" points = "166.331012,256.519175 167.110703,256.642665 167.814072,257.001050 168.372269,257.559247 168.730653,258.262616 168.854144,259.042307 168.730653,259.821998 168.372269,260.525367 167.814072,261.083564 167.110703,261.441949 166.331012,261.565440 165.551321,261.441949 164.847952,261.083564 164.289755,260.525367 163.931370,259.821998 163.807879,259.042307 163.931370,258.262616 164.289755,257.559247 164.847952,257.001050 165.551321,256.642665"/>
<polygon style="fill: #0000ff; stroke: #000000; stroke-width: 1.000000; stroke-linejoin: miter; stroke-linecap: butt;  opacity: 0.421561" clip-path="url(#4685744057707115011)" points = "217.149255,252.385768 217.928945,252.509258 218.632315,252.867643 219.190512,253.425840 219.548896,254.129209 219.672387,254.908900 219.548896,255.688591 219.190512,256.391960 218.632315,256.950157 217.928945,257.308542 217.149255,257.432033 216.369564,257.308542 215.666195,256.950157 215.107998,256.391960 214.749613,255.688591 214.626122,254.908900 214.749613,254.129209 215.107998,253.425840 215.666195,252.867643 216.369564,252.509258"/>
<polygon style="fill: #0000ff; stroke: #000000; stroke-width: 1.000000; stroke-linejoin: miter; stroke-linecap: butt;  opacity: 0.527132" clip-path="url(#4685744057707115011)" points = "269.219974,244.635299 269.999665,244.758790 270.703034,245.117175 271.261231,245.675372 271.619615,246.378741 271.743106,247.158432 271.619615,247.938123 271.261231,248.641492 270.703034,249.199689 269.999665,249.558073 269.219974,249.681564 268.440283,249.558073 267.736914,249.199689 267.178717,248.641492 266.820332,247.938123 266.696841,247.158432 266.820332,246.378741 267.178717,245.675372 267.736914,245.117175 268.440283,244.758790"/>
<polygon style="fill: #0000ff; stroke: #000000; stroke-width: 1.000000; stroke-linejoin: miter; stroke-linecap: butt;  opacity: 0.632079" clip-path="url(#4685744057707115011)" points = "322.697814,238.415394 323.477505,238.538885 324.180874,238.897269 324.739071,239.455466 325.097456,240.158836 325.220947,240.938527 325.097456,241.718217 324.739071,242.421587 324.180874,242.979784 323.477505,243.338168 322.697814,243.461659 321.918123,243.338168 321.214754,242.979784 320.656557,242.421587 320.298173,241.718217 320.174682,240.938527 320.298173,240.158836 320.656557,239.455466 321.214754,238.897269 321.918123,238.538885"/>
<polygon style="fill: #0000ff; stroke: #000000; stroke-width: 1.000000; stroke-linejoin: miter; stroke-linecap: butt;  opacity: 0.744513" clip-path="url(#4685744057707115011)" points = "377.651490,229.725942 378.431181,229.849433 379.134550,230.207817 379.692747,230.766014 380.051131,231.469384 380.174622,232.249074 380.051131,233.028765 379.692747,233.732134 379.134550,234.290331 378.431181,234.648716 377.651490,234.772207 376.871799,234.648716 376.168430,234.290331 375.610233,233.732134 375.251848,233.028765 375.128357,232.249074 375.251848,231.469384 375.610233,230.766014 376.168430,230.207817 376.871799,229.849433"/>
<polygon style="fill: #0000ff; stroke: #000000; stroke-width: 1.000000; stroke-linejoin: miter; stroke-linecap: butt;  opacity: 0.848003" clip-path="url(#4685744057707115011)" points = "433.956743,226.684237 434.736434,226.807728 435.439803,227.166112 435.998000,227.724309 436.356385,228.427678 436.479876,229.207369 436.356385,229.987060 435.998000,230.690429 435.439803,231.248626 434.736434,231.607011 433.956743,231.730502 433.177052,231.607011 432.473683,231.248626 431.915486,230.690429 431.557102,229.987060 431.433611,229.207369 431.557102,228.427678 431.915486,227.724309 432.473683,227.166112 433.177052,226.807728"/>
<polygon style="fill: #0000ff; stroke: #000000; stroke-width: 1.000000; stroke-linejoin: miter; stroke-linecap: butt;  opacity: 0.500329" clip-path="url(#4685744057707115011)" points = "269.309416,258.129079 270.089107,258.252569 270.792476,258.610954 271.350673,259.169151 271.709058,259.872520 271.832548,260.652211 271.709058,261.431902 271.350673,262.135271 270.792476,262.693468 270.089107,263.051853 269.309416,263.175344 268.529725,263.051853 267.826356,262.693468 267.268159,262.135271 266.909774,261.431902 266.786283,260.652211 266.909774,259.872520 267.268159,259.169151 267.826356,258.610954 268.529725,258.252569"/>
<polygon style="fill: #0000ff; stroke: #000000; stroke-width: 1.000000; stroke-linejoin: miter; stroke-linecap: butt;  opacity: 0.317199" clip-path="url(#4685744057707115011)" points = "166.467569,260.734147 167.247260,260.857638 167.950629,261.216022 168.508826,261.774219 168.867210,262.477588 168.990701,263.257279 168.867210,264.036970 168.508826,264.740339 167.950629,265.298536 167.247260,265.656921 166.467569,265.780412 165.687878,265.656921 164.984509,265.298536 164.426312,264.740339 164.067927,264.036970 163.944436,263.257279 164.067927,262.477588 164.426312,261.774219 164.984509,261.216022 165.687878,260.857638"/>
<polygon style="fill: #0000ff; stroke: #000000; stroke-width: 1.000000; stroke-linejoin: miter; stroke-linecap: butt;  opacity: 0.397291" clip-path="url(#4685744057707115011)" points = "217.392230,264.744947 218.171921,264.868438 218.875290,265.226823 219.433487,265.785020 219.791871,266.488389 219.915362,267.268080 219.791871,268.047771 219.433487,268.751140 218.875290,269.309337 218.171921,269.667721 217.392230,269.791212 216.612539,269.667721 215.909170,269.309337 215.350973,268.751140 214.992588,268.047771 214.869097,267.268080 214.992588,266.488389 215.350973,265.785020 215.909170,265.226823 216.612539,264.868438"/>
<polygon style="fill: #0000ff; stroke: #000000; stroke-width: 1.000000; stroke-linejoin: miter; stroke-linecap: butt;  opacity: 0.491760" clip-path="url(#4685744057707115011)" points = "269.338014,262.443477 270.117704,262.566968 270.821074,262.925353 271.379271,263.483550 271.737655,264.186919 271.861146,264.966610 271.737655,265.746300 271.379271,266.449670 270.821074,267.007867 270.117704,267.366251 269.338014,267.489742 268.558323,267.366251 267.854953,267.007867 267.296756,266.449670 266.938372,265.746300 266.814881,264.966610 266.938372,264.186919 267.296756,263.483550 267.854953,262.925353 268.558323,262.566968"/>
<polygon style="fill: #0000ff; stroke: #000000; stroke-width: 1.000000; stroke-linejoin: miter; stroke-linecap: butt;  opacity: 0.607104" clip-path="url(#4685744057707115011)" points = "322.614469,250.845000 323.394160,250.968491 324.097529,251.326875 324.655726,251.885072 325.014111,252.588442 325.137602,253.368132 325.014111,254.147823 324.655726,254.851193 324.097529,255.409390 323.394160,255.767774 322.614469,255.891265 321.834778,255.767774 321.131409,255.409390 320.573212,254.851193 320.214827,254.147823 320.091336,253.368132 320.214827,252.588442 320.573212,251.885072 321.131409,251.326875 321.834778,250.968491"/>
<polygon style="fill: #0000ff; stroke: #000000; stroke-width: 1.000000; stroke-linejoin: miter; stroke-linecap: butt;  opacity: 0.682054" clip-path="url(#4685744057707115011)" points = "377.026191,260.449357 377.805882,260.572848 378.509251,260.931232 379.067448,261.489429 379.425833,262.192799 379.549323,262.972490 379.425833,263.752180 379.067448,264.455550 378.509251,265.013747 377.805882,265.372131 377.026191,265.495622 376.246500,265.372131 375.543131,265.013747 374.984934,264.455550 374.626549,263.752180 374.503058,262.972490 374.626549,262.192799 374.984934,261.489429 375.543131,260.931232 376.246500,260.572848"/>
<polygon style="fill: #0000ff; stroke: #000000; stroke-width: 1.000000; stroke-linejoin: miter; stroke-linecap: butt;  opacity: 0.776618" clip-path="url(#4685744057707115011)" points = "432.765649,261.385533 433.545340,261.509024 434.248709,261.867409 434.806906,262.425606 435.165291,263.128975 435.288782,263.908666 435.165291,264.688357 434.806906,265.391726 434.248709,265.949923 433.545340,266.308308 432.765649,266.431798 431.985959,266.308308 431.282589,265.949923 430.724392,265.391726 430.366008,264.688357 430.242517,263.908666 430.366008,263.128975 430.724392,262.425606 431.282589,261.867409 431.985959,261.509024"/>
<polygon style="fill: #0000ff; stroke: #000000; stroke-width: 1.000000; stroke-linejoin: miter; stroke-linecap: butt;  opacity: 0.300000" clip-path="url(#4685744057707115011)" points = "166.754551,269.592136 167.534241,269.715627 168.237611,270.074011 168.795808,270.632208 169.154192,271.335577 169.277683,272.115268 169.154192,272.894959 168.795808,273.598328 168.237611,274.156525 167.534241,274.514910 166.754551,274.638401 165.974860,274.514910 165.271490,274.156525 164.713293,273.598328 164.354909,272.894959 164.231418,272.115268 164.354909,271.335577 164.713293,270.632208 165.271490,270.074011 165.974860,269.715627"/>
<polygon style="fill: #0000ff; stroke: #000000; stroke-width: 1.000000; stroke-linejoin: miter; stroke-linecap: butt;  opacity: 0.381277" clip-path="url(#4685744057707115011)" points = "217.552553,272.899973 218.332244,273.023463 219.035613,273.381848 219.593810,273.940045 219.952195,274.643414 220.075686,275.423105 219.952195,276.202796 219.593810,276.906165 219.035613,277.464362 218.332244,277.822747 217.552553,277.946238 216.772863,277.822747 216.069493,277.464362 215.511296,276.906165 215.152912,276.202796 215.029421,275.423105 215.152912,274.643414 215.511296,273.940045 216.069493,273.381848 216.772863,273.023463"/>
<polygon style="fill: #0000ff; stroke: #000000; stroke-width: 1.000000; stroke-linejoin: miter; stroke-linecap: butt;  opacity: 0.473204" clip-path="url(#4685744057707115011)" points = "269.399937,271.785633 270.179628,271.909124 270.882997,272.267509 271.441194,272.825706 271.799579,273.529075 271.923070,274.308766 271.799579,275.088457 271.441194,275.791826 270.882997,276.350023 270.179628,276.708407 269.399937,276.831898 268.620246,276.708407 267.916877,276.350023 267.358680,275.791826 267.000295,275.088457 266.876805,274.308766 267.000295,273.529075 267.358680,272.825706 267.916877,272.267509 268.620246,271.909124"/>
<polygon style="fill: #0000ff; stroke: #000000; stroke-width: 1.000000; stroke-linejoin: miter; stroke-linecap: butt;  opacity: 0.577940" clip-path="url(#4685744057707115011)" points = "322.517147,265.359042 323.296838,265.482533 324.000207,265.840918 324.558404,266.399115 324.916788,267.102484 325.040279,267.882175 324.916788,268.661866 324.558404,269.365235 324.000207,269.923432 323.296838,270.281817 322.517147,270.405307 321.737456,270.281817 321.034087,269.923432 320.475890,269.365235 320.117505,268.661866 319.994014,267.882175 320.117505,267.102484 320.475890,266.399115 321.034087,265.840918 321.737456,265.482533"/>
<polygon style="fill: #0000ff; stroke: #000000; stroke-width: 1.000000; stroke-linejoin: miter; stroke-linecap: butt;  opacity: 0.652544" clip-path="url(#4685744057707115011)" points = "376.730755,274.965286 377.510446,275.088777 378.213815,275.447162 378.772012,276.005359 379.130397,276.708728 379.253888,277.488419 379.130397,278.268110 378.772012,278.971479 378.213815,279.529676 377.510446,279.888060 376.730755,280.011551 375.951064,279.888060 375.247695,279.529676 374.689498,278.971479 374.331114,278.268110 374.207623,277.488419 374.331114,276.708728 374.689498,276.005359 375.247695,275.447162 375.951064,275.088777"/>
<polygon style="fill: #0000ff; stroke: #000000; stroke-width: 1.000000; stroke-linejoin: miter; stroke-linecap: butt;  opacity: 0.745534" clip-path="url(#4685744057707115011)" points = "432.246993,276.496055 433.026684,276.619546 433.730053,276.977931 434.288250,277.536128 434.646635,278.239497 434.770126,279.019188 434.646635,279.798879 434.288250,280.502248 433.730053,281.060445 433.026684,281.418830 432.246993,281.542320 431.467302,281.418830 430.763933,281.060445 430.205736,280.502248 429.847351,279.798879 429.723860,279.019188 429.847351,278.239497 430.205736,277.536128 430.763933,276.977931 431.467302,276.619546"/>
<polygon style="fill: #0000ff; stroke: #000000; stroke-width: 1.000000; stroke-linejoin: miter; stroke-linecap: butt;  opacity: 0.430958" clip-path="url(#4685744057707115011)" points = "164.569449,202.146750 165.349140,202.270241 166.052510,202.628626 166.610707,203.186823 166.969091,203.890192 167.092582,204.669883 166.969091,205.449573 166.610707,206.152943 166.052510,206.711140 165.349140,207.069524 164.569449,207.193015 163.789759,207.069524 163.086389,206.711140 162.528192,206.152943 162.169808,205.449573 162.046317,204.669883 162.169808,203.890192 162.528192,203.186823 163.086389,202.628626 163.789759,202.270241"/>
<polygon style="fill: #0000ff; stroke: #000000; stroke-width: 1.000000; stroke-linejoin: miter; stroke-linecap: butt;  opacity: 0.549980" clip-path="url(#4685744057707115011)" points = "215.863615,186.990396 216.643306,187.113887 217.346675,187.472271 217.904872,188.030468 218.263257,188.733838 218.386748,189.513528 218.263257,190.293219 217.904872,190.996588 217.346675,191.554785 216.643306,191.913170 215.863615,192.036661 215.083924,191.913170 214.380555,191.554785 213.822358,190.996588 213.463973,190.293219 213.340483,189.513528 213.463973,188.733838 213.822358,188.030468 214.380555,187.472271 215.083924,187.113887"/>
<polygon style="fill: #0000ff; stroke: #000000; stroke-width: 1.000000; stroke-linejoin: miter; stroke-linecap: butt;  opacity: 0.679054" clip-path="url(#4685744057707115011)" points = "268.712992,168.148998 269.492683,168.272489 270.196052,168.630874 270.754249,169.189071 271.112634,169.892440 271.236125,170.672131 271.112634,171.451821 270.754249,172.155191 270.196052,172.713388 269.492683,173.071772 268.712992,173.195263 267.933301,173.071772 267.229932,172.713388 266.671735,172.155191 266.313351,171.451821 266.189860,170.672131 266.313351,169.892440 266.671735,169.189071 267.229932,168.630874 267.933301,168.272489"/>
<polygon style="fill: #0000ff; stroke: #000000; stroke-width: 1.000000; stroke-linejoin: miter; stroke-linecap: butt;  opacity: 0.808267" clip-path="url(#4685744057707115011)" points = "323.285773,150.730719 324.065464,150.854210 324.768833,151.212594 325.327030,151.770791 325.685415,152.474161 325.808906,153.253851 325.685415,154.033542 325.327030,154.736912 324.768833,155.295109 324.065464,155.653493 323.285773,155.776984 322.506082,155.653493 321.802713,155.295109 321.244516,154.736912 320.886132,154.033542 320.762641,153.253851 320.886132,152.474161 321.244516,151.770791 321.802713,151.212594 322.506082,150.854210"/>
<polygon style="fill: #0000ff; stroke: #000000; stroke-width: 1.000000; stroke-linejoin: miter; stroke-linecap: butt;  opacity: 0.933676" clip-path="url(#4685744057707115011)" points = "379.545259,136.677533 380.324950,136.801024 381.028319,137.159408 381.586516,137.717605 381.944901,138.420975 382.068391,139.200665 381.944901,139.980356 381.586516,140.683726 381.028319,141.241923 380.324950,141.600307 379.545259,141.723798 378.765568,141.600307 378.062199,141.241923 377.504002,140.683726 377.145617,139.980356 377.022126,139.200665 377.145617,138.420975 377.504002,137.717605 378.062199,137.159408 378.765568,136.801024"/>
<polygon style="fill: #0000ff; stroke: #000000; stroke-width: 1.000000; stroke-linejoin: miter; stroke-linecap: butt;  opacity: 1.000000" clip-path="url(#4685744057707115011)" points = "436.492898,152.795981 437.272588,152.919472 437.975958,153.277857 438.534155,153.836054 438.892539,154.539423 439.016030,155.319114 438.892539,156.098804 438.534155,156.802174 437.975958,157.360371 437.272588,157.718755 436.492898,157.842246 435.713207,157.718755 435.009837,157.360371 434.451640,156.802174 434.093256,156.098804 433.969765,155.319114 434.093256,154.539423 434.451640,153.836054 435.009837,153.277857 435.713207,152.919472"/>
<polygon style="fill: #0000ff; stroke: #000000; stroke-width: 1.000000; stroke-linejoin: miter; stroke-linecap: butt;  opacity: 0.318416" clip-path="url(#4685744057707115011)" points = "166.447272,260.107683 167.226963,260.231174 167.930333,260.589558 168.488530,261.147755 168.846914,261.851125 168.970405,262.630815 168.846914,263.410506 168.488530,264.113875 167.930333,264.672072 167.226963,265.030457 166.447272,265.153948 165.667582,265.030457 164.964212,264.672072 164.406015,264.113875 164.047631,263.410506 163.924140,262.630815 164.047631,261.851125 164.406015,261.147755 164.964212,260.589558 165.667582,260.231174"/>
<polygon style="fill: #0000ff; stroke: #000000; stroke-width: 1.000000; stroke-linejoin: miter; stroke-linecap: butt;  opacity: 0.403181" clip-path="url(#4685744057707115011)" points = "217.333268,261.745801 218.112959,261.869292 218.816328,262.227676 219.374525,262.785873 219.732910,263.489243 219.856401,264.268933 219.732910,265.048624 219.374525,265.751994 218.816328,266.310191 218.112959,266.668575 217.333268,266.792066 216.553577,266.668575 215.850208,266.310191 215.292011,265.751994 214.933626,265.048624 214.810136,264.268933 214.933626,263.489243 215.292011,262.785873 215.850208,262.227676 216.553577,261.869292"/>
<polygon style="fill: #0000ff; stroke: #000000; stroke-width: 1.000000; stroke-linejoin: miter; stroke-linecap: butt;  opacity: 0.500329" clip-path="url(#4685744057707115011)" points = "269.309416,258.129079 270.089107,258.252569 270.792476,258.610954 271.350673,259.169151 271.709058,259.872520 271.832548,260.652211 271.709058,261.431902 271.350673,262.135271 270.792476,262.693468 270.089107,263.051853 269.309416,263.175344 268.529725,263.051853 267.826356,262.693468 267.268159,262.135271 266.909774,261.431902 266.786283,260.652211 266.909774,259.872520 267.268159,259.169151 267.826356,258.610954 268.529725,258.252569"/>
<polygon style="fill: #0000ff; stroke: #000000; stroke-width: 1.000000; stroke-linejoin: miter; stroke-linecap: butt;  opacity: 0.617564" clip-path="url(#4685744057707115011)" points = "322.649375,245.639281 323.429066,245.762772 324.132435,246.121156 324.690632,246.679353 325.049017,247.382723 325.172508,248.162413 325.049017,248.942104 324.690632,249.645473 324.132435,250.203670 323.429066,250.562055 322.649375,250.685546 321.869684,250.562055 321.166315,250.203670 320.608118,249.645473 320.249734,248.942104 320.126243,248.162413 320.249734,247.382723 320.608118,246.679353 321.166315,246.121156 321.869684,245.762772"/>
<polygon style="fill: #0000ff; stroke: #000000; stroke-width: 1.000000; stroke-linejoin: miter; stroke-linecap: butt;  opacity: 0.701764" clip-path="url(#4685744057707115011)" points = "377.223513,250.754120 378.003204,250.877611 378.706573,251.235996 379.264770,251.794193 379.623155,252.497562 379.746646,253.277253 379.623155,254.056944 379.264770,254.760313 378.706573,255.318510 378.003204,255.676894 377.223513,255.800385 376.443823,255.676894 375.740453,255.318510 375.182256,254.760313 374.823872,254.056944 374.700381,253.277253 374.823872,252.497562 375.182256,251.794193 375.740453,251.235996 376.443823,250.877611"/>
<polygon style="fill: #0000ff; stroke: #000000; stroke-width: 1.000000; stroke-linejoin: miter; stroke-linecap: butt;  opacity: 0.796929" clip-path="url(#4685744057707115011)" points = "433.104547,251.512102 433.884238,251.635593 434.587607,251.993977 435.145804,252.552174 435.504189,253.255543 435.627679,254.035234 435.504189,254.814925 435.145804,255.518294 434.587607,256.076491 433.884238,256.434876 433.104547,256.558367 432.324856,256.434876 431.621487,256.076491 431.063290,255.518294 430.704905,254.814925 430.581414,254.035234 430.704905,253.255543 431.063290,252.552174 431.621487,251.993977 432.324856,251.635593"/>
</g>
<g id="matplotlib.axis1">
</g>
<g id="matplotlib.axis2">
</g>
</g>
</g>
</svg>
