<?xml version="1.0" standalone="no"?>
<!DOCTYPE svg PUBLIC "-//W3C//DTD SVG 1.1//EN"
  "http://www.w3.org/Graphics/SVG/1.1/DTD/svg11.dtd">
<!-- Created with matplotlib (http://matplotlib.sourceforge.net/) -->
<svg width="576" height="432" viewBox="0 0 576 432"
   xmlns="http://www.w3.org/2000/svg"
   xmlns:xlink="http://www.w3.org/1999/xlink"
   version="1.1"
   id="svg1">
<g id="figure1">
<polygon style="fill: #ffffff; stroke: #ffffff; stroke-width: 1.000000; stroke-linejoin: miter; stroke-linecap: square;  opacity: 1.000000"  points = "0.000000,432.000000 0.000000,0.000000 576.000000,0.000000 576.000000,432.000000"/>
<polygon style="fill: #ffffff; opacity: 1.000000"  points = "0.000000,432.000000 0.000000,0.000000 576.000000,0.000000 576.000000,432.000000"/>
<g id="axis3d1">
<polygon style="fill: #f2f2f2; stroke: #f2f2f2; stroke-width: 1.000000; stroke-linejoin: miter; stroke-linecap: square;  opacity: 0.100000"  points = "241.211914,230.626613 508.260241,289.840834 519.433224,81.348607 238.467267,28.237352"/>
<path style="fill: none; stroke: #000000; stroke-width: 0.750000; stroke-linejoin: miter; stroke-linecap: square;  opacity: 1.000000"  d="M 76.357701,336.543225 L 357.328625,405.507833 "/>
<text style="font-size: 12.000000; font-family: Bitstream Vera Sans; font-style: Roman; fill: #000000;" x="127.936123" y="379.403446" transform="translate(127.936123,379.403446) rotate(-341.9) translate(-127.936123,-379.403446)">max_call_mismatch_rate</text>
<g id="linecollection1">
<path style="fill: none; stroke: #e6e6e6; stroke-width: 1.000000; stroke-linejoin: miter; stroke-linecap: butt;  opacity: 1.000000"  d="M 81.730847,337.862069 L 246.335639,231.762727 L 243.846516,29.254197 "/>
<path style="fill: none; stroke: #e6e6e6; stroke-width: 1.000000; stroke-linejoin: miter; stroke-linecap: butt;  opacity: 1.000000"  d="M 133.806316,350.644048 L 295.959675,242.766161 L 295.968604,39.106883 "/>
<path style="fill: none; stroke: #e6e6e6; stroke-width: 1.000000; stroke-linejoin: miter; stroke-linecap: butt;  opacity: 1.000000"  d="M 186.791666,363.649357 L 346.387419,253.947806 L 348.978075,49.127313 "/>
<path style="fill: none; stroke: #e6e6e6; stroke-width: 1.000000; stroke-linejoin: miter; stroke-linecap: butt;  opacity: 1.000000"  d="M 240.710954,376.883903 L 397.638557,265.312027 L 402.897787,59.319806 "/>
<path style="fill: none; stroke: #e6e6e6; stroke-width: 1.000000; stroke-linejoin: miter; stroke-linecap: butt;  opacity: 1.000000"  d="M 295.589092,390.353800 L 449.733420,276.863332 L 457.751387,69.688832 "/>
<path style="fill: none; stroke: #e6e6e6; stroke-width: 1.000000; stroke-linejoin: miter; stroke-linecap: butt;  opacity: 1.000000"  d="M 351.451887,404.065382 L 502.693018,288.606380 L 513.563349,80.239019 "/>
</g>
<g id="xtick1">
<text style="font-size: 12.000000; font-family: Bitstream Vera Sans; font-style: Roman; fill: #000000;" x="68.730847" y="342.362069" >0.05</text>
<path style="fill: none; stroke: #000000; stroke-width: 1.000000; stroke-linejoin: miter; stroke-linecap: square;  opacity: 1.000000"  d="M 81.730847,337.862069 L 79.242567,345.465257 "/>
</g>
<g id="xtick2">
<text style="font-size: 12.000000; font-family: Bitstream Vera Sans; font-style: Roman; fill: #000000;" x="120.806316" y="355.144048" >0.10</text>
<path style="fill: none; stroke: #000000; stroke-width: 1.000000; stroke-linejoin: miter; stroke-linecap: square;  opacity: 1.000000"  d="M 133.806316,350.644048 L 131.318036,358.247235 "/>
</g>
<g id="xtick3">
<text style="font-size: 12.000000; font-family: Bitstream Vera Sans; font-style: Roman; fill: #000000;" x="173.791666" y="368.149357" >0.15</text>
<path style="fill: none; stroke: #000000; stroke-width: 1.000000; stroke-linejoin: miter; stroke-linecap: square;  opacity: 1.000000"  d="M 186.791666,363.649357 L 184.303386,371.252545 "/>
</g>
<g id="xtick4">
<text style="font-size: 12.000000; font-family: Bitstream Vera Sans; font-style: Roman; fill: #000000;" x="227.710954" y="381.383903" >0.20</text>
<path style="fill: none; stroke: #000000; stroke-width: 1.000000; stroke-linejoin: miter; stroke-linecap: square;  opacity: 1.000000"  d="M 240.710954,376.883903 L 238.222674,384.487091 "/>
</g>
<g id="xtick5">
<text style="font-size: 12.000000; font-family: Bitstream Vera Sans; font-style: Roman; fill: #000000;" x="282.589092" y="394.853800" >0.25</text>
<path style="fill: none; stroke: #000000; stroke-width: 1.000000; stroke-linejoin: miter; stroke-linecap: square;  opacity: 1.000000"  d="M 295.589092,390.353800 L 293.100812,397.956987 "/>
</g>
<g id="xtick6">
<text style="font-size: 12.000000; font-family: Bitstream Vera Sans; font-style: Roman; fill: #000000;" x="338.451887" y="408.565382" >0.30</text>
<path style="fill: none; stroke: #000000; stroke-width: 1.000000; stroke-linejoin: miter; stroke-linecap: square;  opacity: 1.000000"  d="M 351.451887,404.065382 L 348.963607,411.668569 "/>
</g>
</g>
<g id="axis3d2">
<polygon style="fill: #e6e6e6; stroke: #e6e6e6; stroke-width: 1.000000; stroke-linejoin: miter; stroke-linecap: square;  opacity: 0.500000"  points = "76.357701,336.543225 241.211914,230.626613 238.467267,28.237352 64.421350,123.401250"/>
<path style="fill: none; stroke: #000000; stroke-width: 0.750000; stroke-linejoin: miter; stroke-linecap: square;  opacity: 1.000000"  d="M 357.328625,405.507833 L 508.260241,289.840834 "/>
<text style="font-size: 12.000000; font-family: Bitstream Vera Sans; font-style: Roman; fill: #000000;" x="425.958426" y="409.045229" transform="translate(425.958426,409.045229) rotate(-45.6) translate(-425.958426,-409.045229)">max_call_NA_rate</text>
<g id="linecollection2">
<path style="fill: none; stroke: #e6e6e6; stroke-width: 1.000000; stroke-linejoin: miter; stroke-linecap: butt;  opacity: 1.000000"  d="M 360.586508,403.011142 L 79.904448,334.264487 L 68.180167,121.346024 "/>
<path style="fill: none; stroke: #e6e6e6; stroke-width: 1.000000; stroke-linejoin: miter; stroke-linecap: butt;  opacity: 1.000000"  d="M 379.914611,388.198980 L 100.956846,320.738605 L 90.478343,109.153946 "/>
<path style="fill: none; stroke: #e6e6e6; stroke-width: 1.000000; stroke-linejoin: miter; stroke-linecap: butt;  opacity: 1.000000"  d="M 398.874695,373.668849 L 121.625951,307.458984 L 112.348919,97.195669 "/>
<path style="fill: none; stroke: #e6e6e6; stroke-width: 1.000000; stroke-linejoin: miter; stroke-linecap: butt;  opacity: 1.000000"  d="M 417.477173,359.412772 L 141.922136,294.418958 L 133.804078,85.464532 "/>
<path style="fill: none; stroke: #e6e6e6; stroke-width: 1.000000; stroke-linejoin: miter; stroke-linecap: butt;  opacity: 1.000000"  d="M 435.732067,345.423067 L 161.855403,281.612103 L 154.855544,73.954124 "/>
<path style="fill: none; stroke: #e6e6e6; stroke-width: 1.000000; stroke-linejoin: miter; stroke-linecap: butt;  opacity: 1.000000"  d="M 453.649029,331.692337 L 181.435400,269.032219 L 175.514605,62.658273 "/>
<path style="fill: none; stroke: #e6e6e6; stroke-width: 1.000000; stroke-linejoin: miter; stroke-linecap: butt;  opacity: 1.000000"  d="M 471.237356,318.213458 L 200.671436,256.673325 L 195.792131,51.571035 "/>
<path style="fill: none; stroke: #e6e6e6; stroke-width: 1.000000; stroke-linejoin: miter; stroke-linecap: butt;  opacity: 1.000000"  d="M 488.506009,304.979563 L 219.572495,244.529648 L 215.698595,40.686685 "/>
<path style="fill: none; stroke: #e6e6e6; stroke-width: 1.000000; stroke-linejoin: miter; stroke-linecap: butt;  opacity: 1.000000"  d="M 505.463623,291.984033 L 238.147253,232.595617 L 235.244090,29.999704 "/>
</g>
<g id="xtick7">
<text style="font-size: 12.000000; font-family: Bitstream Vera Sans; font-style: Roman; fill: #000000;" x="352.086508" y="407.511142" >0.1</text>
<path style="fill: none; stroke: #000000; stroke-width: 1.000000; stroke-linejoin: miter; stroke-linecap: square;  opacity: 1.000000"  d="M 360.586508,403.011142 L 366.304039,408.606662 "/>
</g>
<g id="xtick8">
<text style="font-size: 12.000000; font-family: Bitstream Vera Sans; font-style: Roman; fill: #000000;" x="370.891174" y="392.698980" >0.2</text>
<path style="fill: none; stroke: #000000; stroke-width: 1.000000; stroke-linejoin: miter; stroke-linecap: square;  opacity: 1.000000"  d="M 379.914611,388.198980 L 385.632141,393.794500 "/>
</g>
<g id="xtick9">
<text style="font-size: 12.000000; font-family: Bitstream Vera Sans; font-style: Roman; fill: #000000;" x="389.874695" y="378.168849" >0.3</text>
<path style="fill: none; stroke: #000000; stroke-width: 1.000000; stroke-linejoin: miter; stroke-linecap: square;  opacity: 1.000000"  d="M 398.874695,373.668849 L 404.592225,379.264370 "/>
</g>
<g id="xtick10">
<text style="font-size: 12.000000; font-family: Bitstream Vera Sans; font-style: Roman; fill: #000000;" x="408.477173" y="363.912772" >0.4</text>
<path style="fill: none; stroke: #000000; stroke-width: 1.000000; stroke-linejoin: miter; stroke-linecap: square;  opacity: 1.000000"  d="M 417.477173,359.412772 L 423.194703,365.008292 "/>
</g>
<g id="xtick11">
<text style="font-size: 12.000000; font-family: Bitstream Vera Sans; font-style: Roman; fill: #000000;" x="426.732067" y="349.923067" >0.5</text>
<path style="fill: none; stroke: #000000; stroke-width: 1.000000; stroke-linejoin: miter; stroke-linecap: square;  opacity: 1.000000"  d="M 435.732067,345.423067 L 441.449597,351.018587 "/>
</g>
<g id="xtick12">
<text style="font-size: 12.000000; font-family: Bitstream Vera Sans; font-style: Roman; fill: #000000;" x="444.649029" y="336.192337" >0.6</text>
<path style="fill: none; stroke: #000000; stroke-width: 1.000000; stroke-linejoin: miter; stroke-linecap: square;  opacity: 1.000000"  d="M 453.649029,331.692337 L 459.366559,337.287858 "/>
</g>
<g id="xtick13">
<text style="font-size: 12.000000; font-family: Bitstream Vera Sans; font-style: Roman; fill: #000000;" x="462.237356" y="322.713458" >0.7</text>
<path style="fill: none; stroke: #000000; stroke-width: 1.000000; stroke-linejoin: miter; stroke-linecap: square;  opacity: 1.000000"  d="M 471.237356,318.213458 L 476.954887,323.808978 "/>
</g>
<g id="xtick14">
<text style="font-size: 12.000000; font-family: Bitstream Vera Sans; font-style: Roman; fill: #000000;" x="479.506009" y="309.479563" >0.8</text>
<path style="fill: none; stroke: #000000; stroke-width: 1.000000; stroke-linejoin: miter; stroke-linecap: square;  opacity: 1.000000"  d="M 488.506009,304.979563 L 494.223539,310.575083 "/>
</g>
<g id="xtick15">
<text style="font-size: 12.000000; font-family: Bitstream Vera Sans; font-style: Roman; fill: #000000;" x="496.463623" y="296.484033" >0.9</text>
<path style="fill: none; stroke: #000000; stroke-width: 1.000000; stroke-linejoin: miter; stroke-linecap: square;  opacity: 1.000000"  d="M 505.463623,291.984033 L 511.181153,297.579553 "/>
</g>
</g>
<g id="axis3d3">
<polygon style="fill: #f2f2f2; stroke: #f2f2f2; stroke-width: 1.000000; stroke-linejoin: miter; stroke-linecap: square;  opacity: 0.100000"  points = "76.357701,336.543225 357.328625,405.507833 508.260241,289.840834 241.211914,230.626613"/>
<path style="fill: none; stroke: #000000; stroke-width: 0.750000; stroke-linejoin: miter; stroke-linecap: square;  opacity: 1.000000"  d="M 76.357701,336.543225 L 64.421350,123.401250 "/>
<text style="font-size: 12.000000; font-family: Bitstream Vera Sans; font-style: Roman; fill: #000000;" x="43.657539" y="316.142687" transform="translate(43.657539,316.142687) rotate(-92.4) translate(-43.657539,-316.142687)">no_of_snps_filtered_by_na</text>
<g id="linecollection3">
<path style="fill: none; stroke: #e6e6e6; stroke-width: 1.000000; stroke-linejoin: miter; stroke-linecap: butt;  opacity: 1.000000"  d="M 76.131056,332.496136 L 241.159600,226.768965 L 508.472750,285.875342 "/>
<path style="fill: none; stroke: #e6e6e6; stroke-width: 1.000000; stroke-linejoin: miter; stroke-linecap: butt;  opacity: 1.000000"  d="M 74.914334,310.769681 L 240.878887,206.069286 L 509.613346,264.591371 "/>
<path style="fill: none; stroke: #e6e6e6; stroke-width: 1.000000; stroke-linejoin: miter; stroke-linecap: butt;  opacity: 1.000000"  d="M 73.684057,288.801187 L 240.595274,185.155757 L 510.766242,243.077888 "/>
<path style="fill: none; stroke: #e6e6e6; stroke-width: 1.000000; stroke-linejoin: miter; stroke-linecap: butt;  opacity: 1.000000"  d="M 72.439998,266.586586 L 240.308715,164.025048 L 511.931637,221.331161 "/>
<path style="fill: none; stroke: #e6e6e6; stroke-width: 1.000000; stroke-linejoin: miter; stroke-linecap: butt;  opacity: 1.000000"  d="M 71.181923,244.121720 L 240.019165,142.673756 L 513.109735,199.347375 "/>
<path style="fill: none; stroke: #e6e6e6; stroke-width: 1.000000; stroke-linejoin: miter; stroke-linecap: butt;  opacity: 1.000000"  d="M 69.909595,221.402335 L 239.726577,121.098411 L 514.300747,177.122634 "/>
<path style="fill: none; stroke: #e6e6e6; stroke-width: 1.000000; stroke-linejoin: miter; stroke-linecap: butt;  opacity: 1.000000"  d="M 68.622770,198.424081 L 239.430902,99.295467 L 515.504884,154.652955 "/>
<path style="fill: none; stroke: #e6e6e6; stroke-width: 1.000000; stroke-linejoin: miter; stroke-linecap: butt;  opacity: 1.000000"  d="M 67.321198,175.182509 L 239.132092,77.261303 L 516.722366,131.934265 "/>
<path style="fill: none; stroke: #e6e6e6; stroke-width: 1.000000; stroke-linejoin: miter; stroke-linecap: butt;  opacity: 1.000000"  d="M 66.004625,151.673066 L 238.830096,54.992221 L 517.953416,108.962402 "/>
<path style="fill: none; stroke: #e6e6e6; stroke-width: 1.000000; stroke-linejoin: miter; stroke-linecap: butt;  opacity: 1.000000"  d="M 64.672790,127.891094 L 238.524862,32.484445 L 519.198260,85.733110 "/>
</g>
<g id="xtick16">
<text style="font-size: 12.000000; font-family: Bitstream Vera Sans; font-style: Roman; fill: #000000;" x="57.131056" y="336.996136" >18000</text>
<path style="fill: none; stroke: #000000; stroke-width: 1.000000; stroke-linejoin: miter; stroke-linecap: square;  opacity: 1.000000"  d="M 76.131056,332.496136 L 68.138103,332.831851 "/>
</g>
<g id="xtick17">
<text style="font-size: 12.000000; font-family: Bitstream Vera Sans; font-style: Roman; fill: #000000;" x="55.914334" y="315.269681" >20000</text>
<path style="fill: none; stroke: #000000; stroke-width: 1.000000; stroke-linejoin: miter; stroke-linecap: square;  opacity: 1.000000"  d="M 74.914334,310.769681 L 66.921381,311.105396 "/>
</g>
<g id="xtick18">
<text style="font-size: 12.000000; font-family: Bitstream Vera Sans; font-style: Roman; fill: #000000;" x="54.684057" y="293.301187" >22000</text>
<path style="fill: none; stroke: #000000; stroke-width: 1.000000; stroke-linejoin: miter; stroke-linecap: square;  opacity: 1.000000"  d="M 73.684057,288.801187 L 65.691104,289.136902 "/>
</g>
<g id="xtick19">
<text style="font-size: 12.000000; font-family: Bitstream Vera Sans; font-style: Roman; fill: #000000;" x="53.439998" y="271.086586" >24000</text>
<path style="fill: none; stroke: #000000; stroke-width: 1.000000; stroke-linejoin: miter; stroke-linecap: square;  opacity: 1.000000"  d="M 72.439998,266.586586 L 64.447045,266.922301 "/>
</g>
<g id="xtick20">
<text style="font-size: 12.000000; font-family: Bitstream Vera Sans; font-style: Roman; fill: #000000;" x="52.181923" y="248.621720" >26000</text>
<path style="fill: none; stroke: #000000; stroke-width: 1.000000; stroke-linejoin: miter; stroke-linecap: square;  opacity: 1.000000"  d="M 71.181923,244.121720 L 63.188970,244.457435 "/>
</g>
<g id="xtick21">
<text style="font-size: 12.000000; font-family: Bitstream Vera Sans; font-style: Roman; fill: #000000;" x="50.909595" y="225.902335" >28000</text>
<path style="fill: none; stroke: #000000; stroke-width: 1.000000; stroke-linejoin: miter; stroke-linecap: square;  opacity: 1.000000"  d="M 69.909595,221.402335 L 61.916642,221.738050 "/>
</g>
<g id="xtick22">
<text style="font-size: 12.000000; font-family: Bitstream Vera Sans; font-style: Roman; fill: #000000;" x="49.622770" y="202.924081" >30000</text>
<path style="fill: none; stroke: #000000; stroke-width: 1.000000; stroke-linejoin: miter; stroke-linecap: square;  opacity: 1.000000"  d="M 68.622770,198.424081 L 60.629817,198.759796 "/>
</g>
<g id="xtick23">
<text style="font-size: 12.000000; font-family: Bitstream Vera Sans; font-style: Roman; fill: #000000;" x="48.321198" y="179.682509" >32000</text>
<path style="fill: none; stroke: #000000; stroke-width: 1.000000; stroke-linejoin: miter; stroke-linecap: square;  opacity: 1.000000"  d="M 67.321198,175.182509 L 59.328245,175.518224 "/>
</g>
<g id="xtick24">
<text style="font-size: 12.000000; font-family: Bitstream Vera Sans; font-style: Roman; fill: #000000;" x="47.004625" y="156.173066" >34000</text>
<path style="fill: none; stroke: #000000; stroke-width: 1.000000; stroke-linejoin: miter; stroke-linecap: square;  opacity: 1.000000"  d="M 66.004625,151.673066 L 58.011672,152.008781 "/>
</g>
<g id="xtick25">
<text style="font-size: 12.000000; font-family: Bitstream Vera Sans; font-style: Roman; fill: #000000;" x="45.672790" y="132.391094" >36000</text>
<path style="fill: none; stroke: #000000; stroke-width: 1.000000; stroke-linejoin: miter; stroke-linecap: square;  opacity: 1.000000"  d="M 64.672790,127.891094 L 56.679837,128.226810 "/>
</g>
</g>
<g id="axes1">
<g id="regpolycollection1">
<defs>
    <clipPath id="4685744057707115011">
    <rect x="0.000000" y="0.000000" width="576.000000" height="432.000000"
    style="stroke: gray; fill: none;"/>
    </clipPath>
</defs>
<polygon style="fill: #0000ff; stroke: #000000; stroke-width: 1.000000; stroke-linejoin: miter; stroke-linecap: butt;  opacity: 0.716763" clip-path="url(#4685744057707115011)" points = "248.142456,129.437475 248.922147,129.560966 249.625516,129.919351 250.183713,130.477548 250.542098,131.180917 250.665589,131.960608 250.542098,132.740299 250.183713,133.443668 249.625516,134.001865 248.922147,134.360249 248.142456,134.483740 247.362765,134.360249 246.659396,134.001865 246.101199,133.443668 245.742814,132.740299 245.619323,131.960608 245.742814,131.180917 246.101199,130.477548 246.659396,129.919351 247.362765,129.560966"/>
<polygon style="fill: #0000ff; stroke: #000000; stroke-width: 1.000000; stroke-linejoin: miter; stroke-linecap: butt;  opacity: 0.468734" clip-path="url(#4685744057707115011)" points = "83.934958,308.155604 84.714649,308.279095 85.418019,308.637480 85.976216,309.195677 86.334600,309.899046 86.458091,310.678737 86.334600,311.458428 85.976216,312.161797 85.418019,312.719994 84.714649,313.078379 83.934958,313.201869 83.155268,313.078379 82.451898,312.719994 81.893701,312.161797 81.535317,311.458428 81.411826,310.678737 81.535317,309.899046 81.893701,309.195677 82.451898,308.637480 83.155268,308.279095"/>
<polygon style="fill: #0000ff; stroke: #000000; stroke-width: 1.000000; stroke-linejoin: miter; stroke-linecap: butt;  opacity: 0.635743" clip-path="url(#4685744057707115011)" points = "99.412868,176.691401 100.192559,176.814891 100.895928,177.173276 101.454125,177.731473 101.812510,178.434842 101.936001,179.214533 101.812510,179.994224 101.454125,180.697593 100.895928,181.255790 100.192559,181.614175 99.412868,181.737666 98.633177,181.614175 97.929808,181.255790 97.371611,180.697593 97.013226,179.994224 96.889736,179.214533 97.013226,178.434842 97.371611,177.731473 97.929808,177.173276 98.633177,176.814891"/>
<polygon style="fill: #0000ff; stroke: #000000; stroke-width: 1.000000; stroke-linejoin: miter; stroke-linecap: butt;  opacity: 0.674093" clip-path="url(#4685744057707115011)" points = "118.385068,106.446757 119.164759,106.570248 119.868128,106.928632 120.426325,107.486829 120.784710,108.190198 120.908201,108.969889 120.784710,109.749580 120.426325,110.452949 119.868128,111.011146 119.164759,111.369531 118.385068,111.493022 117.605377,111.369531 116.902008,111.011146 116.343811,110.452949 115.985426,109.749580 115.861936,108.969889 115.985426,108.190198 116.343811,107.486829 116.902008,106.928632 117.605377,106.570248"/>
<polygon style="fill: #0000ff; stroke: #000000; stroke-width: 1.000000; stroke-linejoin: miter; stroke-linecap: butt;  opacity: 0.450156" clip-path="url(#4685744057707115011)" points = "181.122070,65.806699 181.901761,65.930190 182.605130,66.288575 183.163327,66.846772 183.521712,67.550141 183.645203,68.329832 183.521712,69.109522 183.163327,69.812892 182.605130,70.371089 181.901761,70.729473 181.122070,70.852964 180.342379,70.729473 179.639010,70.371089 179.080813,69.812892 178.722428,69.109522 178.598938,68.329832 178.722428,67.550141 179.080813,66.846772 179.639010,66.288575 180.342379,65.930190"/>
<polygon style="fill: #0000ff; stroke: #000000; stroke-width: 1.000000; stroke-linejoin: miter; stroke-linecap: butt;  opacity: 0.606015" clip-path="url(#4685744057707115011)" points = "139.526509,88.716029 140.306200,88.839520 141.009569,89.197904 141.567766,89.756101 141.926151,90.459471 142.049641,91.239161 141.926151,92.018852 141.567766,92.722222 141.009569,93.280419 140.306200,93.638803 139.526509,93.762294 138.746818,93.638803 138.043449,93.280419 137.485252,92.722222 137.126867,92.018852 137.003376,91.239161 137.126867,90.459471 137.485252,89.756101 138.043449,89.197904 138.746818,88.839520"/>
<polygon style="fill: #0000ff; stroke: #000000; stroke-width: 1.000000; stroke-linejoin: miter; stroke-linecap: butt;  opacity: 0.527353" clip-path="url(#4685744057707115011)" points = "160.519912,77.153622 161.299603,77.277113 162.002972,77.635498 162.561169,78.193695 162.919554,78.897064 163.043044,79.676755 162.919554,80.456446 162.561169,81.159815 162.002972,81.718012 161.299603,82.076396 160.519912,82.199887 159.740221,82.076396 159.036852,81.718012 158.478655,81.159815 158.120270,80.456446 157.996779,79.676755 158.120270,78.897064 158.478655,78.193695 159.036852,77.635498 159.740221,77.277113"/>
<polygon style="fill: #0000ff; stroke: #000000; stroke-width: 1.000000; stroke-linejoin: miter; stroke-linecap: butt;  opacity: 0.540318" clip-path="url(#4685744057707115011)" points = "136.281587,320.762871 137.061278,320.886361 137.764648,321.244746 138.322845,321.802943 138.681229,322.506312 138.804720,323.286003 138.681229,324.065694 138.322845,324.769063 137.764648,325.327260 137.061278,325.685645 136.281587,325.809136 135.501897,325.685645 134.798527,325.327260 134.240330,324.769063 133.881946,324.065694 133.758455,323.286003 133.881946,322.506312 134.240330,321.802943 134.798527,321.244746 135.501897,320.886361"/>
<polygon style="fill: #0000ff; stroke: #000000; stroke-width: 1.000000; stroke-linejoin: miter; stroke-linecap: butt;  opacity: 0.374385" clip-path="url(#4685744057707115011)" points = "201.343820,54.669291 202.123510,54.792782 202.826880,55.151167 203.385077,55.709364 203.743461,56.412733 203.866952,57.192424 203.743461,57.972115 203.385077,58.675484 202.826880,59.233681 202.123510,59.592065 201.343820,59.715556 200.564129,59.592065 199.860759,59.233681 199.302562,58.675484 198.944178,57.972115 198.820687,57.192424 198.944178,56.412733 199.302562,55.709364 199.860759,55.151167 200.564129,54.792782"/>
<polygon style="fill: #0000ff; stroke: #000000; stroke-width: 1.000000; stroke-linejoin: miter; stroke-linecap: butt;  opacity: 0.300000" clip-path="url(#4685744057707115011)" points = "221.195600,43.735649 221.975291,43.859140 222.678660,44.217524 223.236857,44.775721 223.595242,45.479091 223.718733,46.258782 223.595242,47.038472 223.236857,47.741842 222.678660,48.300039 221.975291,48.658423 221.195600,48.781914 220.415909,48.658423 219.712540,48.300039 219.154343,47.741842 218.795958,47.038472 218.672468,46.258782 218.795958,45.479091 219.154343,44.775721 219.712540,44.217524 220.415909,43.859140"/>
<polygon style="fill: #0000ff; stroke: #000000; stroke-width: 1.000000; stroke-linejoin: miter; stroke-linecap: butt;  opacity: 0.684668" clip-path="url(#4685744057707115011)" points = "153.401125,200.680264 154.180816,200.803754 154.884185,201.162139 155.442382,201.720336 155.800767,202.423705 155.924258,203.203396 155.800767,203.983087 155.442382,204.686456 154.884185,205.244653 154.180816,205.603038 153.401125,205.726529 152.621434,205.603038 151.918065,205.244653 151.359868,204.686456 151.001484,203.983087 150.877993,203.203396 151.001484,202.423705 151.359868,201.720336 151.918065,201.162139 152.621434,200.803754"/>
<polygon style="fill: #0000ff; stroke: #000000; stroke-width: 1.000000; stroke-linejoin: miter; stroke-linecap: butt;  opacity: 0.722959" clip-path="url(#4685744057707115011)" points = "172.739934,130.381454 173.519625,130.504945 174.222994,130.863329 174.781191,131.421526 175.139575,132.124896 175.263066,132.904587 175.139575,133.684277 174.781191,134.387647 174.222994,134.945844 173.519625,135.304228 172.739934,135.427719 171.960243,135.304228 171.256874,134.945844 170.698677,134.387647 170.340292,133.684277 170.216801,132.904587 170.340292,132.124896 170.698677,131.421526 171.256874,130.863329 171.960243,130.504945"/>
<polygon style="fill: #0000ff; stroke: #000000; stroke-width: 1.000000; stroke-linejoin: miter; stroke-linecap: butt;  opacity: 0.655141" clip-path="url(#4685744057707115011)" points = "193.548775,111.838942 194.328466,111.962433 195.031835,112.320817 195.590032,112.879014 195.948417,113.582383 196.071907,114.362074 195.948417,115.141765 195.590032,115.845134 195.031835,116.403331 194.328466,116.761716 193.548775,116.885207 192.769084,116.761716 192.065715,116.403331 191.507518,115.845134 191.149133,115.141765 191.025642,114.362074 191.149133,113.582383 191.507518,112.879014 192.065715,112.320817 192.769084,111.962433"/>
<polygon style="fill: #0000ff; stroke: #000000; stroke-width: 1.000000; stroke-linejoin: miter; stroke-linecap: butt;  opacity: 0.575556" clip-path="url(#4685744057707115011)" points = "214.153242,99.990501 214.932933,100.113992 215.636302,100.472377 216.194499,101.030574 216.552883,101.733943 216.676374,102.513634 216.552883,103.293325 216.194499,103.996694 215.636302,104.554891 214.932933,104.913276 214.153242,105.036766 213.373551,104.913276 212.670182,104.554891 212.111985,103.996694 211.753600,103.293325 211.630109,102.513634 211.753600,101.733943 212.111985,101.030574 212.670182,100.472377 213.373551,100.113992"/>
<polygon style="fill: #0000ff; stroke: #000000; stroke-width: 1.000000; stroke-linejoin: miter; stroke-linecap: butt;  opacity: 0.497462" clip-path="url(#4685744057707115011)" points = "234.371499,88.364148 235.151190,88.487639 235.854559,88.846023 236.412756,89.404220 236.771140,90.107590 236.894631,90.887281 236.771140,91.666971 236.412756,92.370341 235.854559,92.928538 235.151190,93.286922 234.371499,93.410413 233.591808,93.286922 232.888439,92.928538 232.330242,92.370341 231.971857,91.666971 231.848366,90.887281 231.971857,90.107590 232.330242,89.404220 232.888439,88.846023 233.591808,88.487639"/>
<polygon style="fill: #0000ff; stroke: #000000; stroke-width: 1.000000; stroke-linejoin: miter; stroke-linecap: butt;  opacity: 0.613160" clip-path="url(#4685744057707115011)" points = "189.547300,333.591491 190.326991,333.714981 191.030360,334.073366 191.588557,334.631563 191.946941,335.334932 192.070432,336.114623 191.946941,336.894314 191.588557,337.597683 191.030360,338.155880 190.326991,338.514265 189.547300,338.637756 188.767609,338.514265 188.064240,338.155880 187.506043,337.597683 187.147658,336.894314 187.024167,336.114623 187.147658,335.334932 187.506043,334.631563 188.064240,334.073366 188.767609,333.714981"/>
<polygon style="fill: #0000ff; stroke: #000000; stroke-width: 1.000000; stroke-linejoin: miter; stroke-linecap: butt;  opacity: 0.420819" clip-path="url(#4685744057707115011)" points = "254.214304,76.953695 254.993995,77.077186 255.697364,77.435571 256.255561,77.993768 256.613945,78.697137 256.737436,79.476828 256.613945,80.256519 256.255561,80.959888 255.697364,81.518085 254.993995,81.876470 254.214304,81.999960 253.434613,81.876470 252.731244,81.518085 252.173047,80.959888 251.814662,80.256519 251.691171,79.476828 251.814662,78.697137 252.173047,77.993768 252.731244,77.435571 253.434613,77.077186"/>
<polygon style="fill: #0000ff; stroke: #000000; stroke-width: 1.000000; stroke-linejoin: miter; stroke-linecap: butt;  opacity: 0.345586" clip-path="url(#4685744057707115011)" points = "273.692019,65.753185 274.471710,65.876676 275.175079,66.235060 275.733276,66.793257 276.091661,67.496627 276.215151,68.276317 276.091661,69.056008 275.733276,69.759378 275.175079,70.317575 274.471710,70.675959 273.692019,70.799450 272.912328,70.675959 272.208959,70.317575 271.650762,69.759378 271.292377,69.056008 271.168886,68.276317 271.292377,67.496627 271.650762,66.793257 272.208959,66.235060 272.912328,65.876676"/>
<polygon style="fill: #0000ff; stroke: #000000; stroke-width: 1.000000; stroke-linejoin: miter; stroke-linecap: butt;  opacity: 0.756760" clip-path="url(#4685744057707115011)" points = "207.788996,214.234855 208.568687,214.358345 209.272056,214.716730 209.830253,215.274927 210.188637,215.978296 210.312128,216.757987 210.188637,217.537678 209.830253,218.241047 209.272056,218.799244 208.568687,219.157629 207.788996,219.281120 207.009305,219.157629 206.305936,218.799244 205.747739,218.241047 205.389354,217.537678 205.265863,216.757987 205.389354,215.978296 205.747739,215.274927 206.305936,214.716730 207.009305,214.358345"/>
<polygon style="fill: #0000ff; stroke: #000000; stroke-width: 1.000000; stroke-linejoin: miter; stroke-linecap: butt;  opacity: 0.784821" clip-path="url(#4685744057707115011)" points = "227.629394,148.625426 228.409085,148.748917 229.112454,149.107301 229.670651,149.665498 230.029036,150.368868 230.152527,151.148559 230.029036,151.928249 229.670651,152.631619 229.112454,153.189816 228.409085,153.548200 227.629394,153.671691 226.849703,153.548200 226.146334,153.189816 225.588137,152.631619 225.229752,151.928249 225.106261,151.148559 225.229752,150.368868 225.588137,149.665498 226.146334,149.107301 226.849703,148.748917"/>
<polygon style="fill: #0000ff; stroke: #000000; stroke-width: 1.000000; stroke-linejoin: miter; stroke-linecap: butt;  opacity: 0.716763" clip-path="url(#4685744057707115011)" points = "248.142456,129.437475 248.922147,129.560966 249.625516,129.919351 250.183713,130.477548 250.542098,131.180917 250.665589,131.960608 250.542098,132.740299 250.183713,133.443668 249.625516,134.001865 248.922147,134.360249 248.142456,134.483740 247.362765,134.360249 246.659396,134.001865 246.101199,133.443668 245.742814,132.740299 245.619323,131.960608 245.742814,131.180917 246.101199,130.477548 246.659396,129.919351 247.362765,129.560966"/>
<polygon style="fill: #0000ff; stroke: #000000; stroke-width: 1.000000; stroke-linejoin: miter; stroke-linecap: butt;  opacity: 0.636013" clip-path="url(#4685744057707115011)" points = "268.376179,117.335367 269.155870,117.458858 269.859239,117.817242 270.417436,118.375439 270.775821,119.078808 270.899312,119.858499 270.775821,120.638190 270.417436,121.341559 269.859239,121.899756 269.155870,122.258141 268.376179,122.381632 267.596488,122.258141 266.893119,121.899756 266.334922,121.341559 265.976538,120.638190 265.853047,119.858499 265.976538,119.078808 266.334922,118.375439 266.893119,117.817242 267.596488,117.458858"/>
<polygon style="fill: #0000ff; stroke: #000000; stroke-width: 1.000000; stroke-linejoin: miter; stroke-linecap: butt;  opacity: 0.687291" clip-path="url(#4685744057707115011)" points = "243.756515,346.647346 244.536206,346.770837 245.239575,347.129221 245.797772,347.687418 246.156157,348.390787 246.279648,349.170478 246.156157,349.950169 245.797772,350.653538 245.239575,351.211735 244.536206,351.570120 243.756515,351.693611 242.976824,351.570120 242.273455,351.211735 241.715258,350.653538 241.356873,349.950169 241.233383,349.170478 241.356873,348.390787 241.715258,347.687418 242.273455,347.129221 242.976824,346.770837"/>
<polygon style="fill: #0000ff; stroke: #000000; stroke-width: 1.000000; stroke-linejoin: miter; stroke-linecap: butt;  opacity: 0.556788" clip-path="url(#4685744057707115011)" points = "288.227916,105.461730 289.007607,105.585221 289.710976,105.943606 290.269173,106.501803 290.627558,107.205172 290.751049,107.984863 290.627558,108.764553 290.269173,109.467923 289.710976,110.026120 289.007607,110.384504 288.227916,110.507995 287.448225,110.384504 286.744856,110.026120 286.186659,109.467923 285.828275,108.764553 285.704784,107.984863 285.828275,107.205172 286.186659,106.501803 286.744856,105.943606 287.448225,105.585221"/>
<polygon style="fill: #0000ff; stroke: #000000; stroke-width: 1.000000; stroke-linejoin: miter; stroke-linecap: butt;  opacity: 0.479044" clip-path="url(#4685744057707115011)" points = "307.708383,93.810156 308.488074,93.933647 309.191443,94.292032 309.749640,94.850229 310.108024,95.553598 310.231515,96.333289 310.108024,97.112980 309.749640,97.816349 309.191443,98.374546 308.488074,98.732930 307.708383,98.856421 306.928692,98.732930 306.225323,98.374546 305.667126,97.816349 305.308741,97.112980 305.185250,96.333289 305.308741,95.553598 305.667126,94.850229 306.225323,94.292032 306.928692,93.933647"/>
<polygon style="fill: #0000ff; stroke: #000000; stroke-width: 1.000000; stroke-linejoin: miter; stroke-linecap: butt;  opacity: 0.402741" clip-path="url(#4685744057707115011)" points = "326.827898,82.374473 327.607589,82.497964 328.310958,82.856349 328.869155,83.414546 329.227539,84.117915 329.351030,84.897606 329.227539,85.677296 328.869155,86.380666 328.310958,86.938863 327.607589,87.297247 326.827898,87.420738 326.048207,87.297247 325.344838,86.938863 324.786641,86.380666 324.428256,85.677296 324.304765,84.897606 324.428256,84.117915 324.786641,83.414546 325.344838,82.856349 326.048207,82.497964"/>
<polygon style="fill: #0000ff; stroke: #000000; stroke-width: 1.000000; stroke-linejoin: miter; stroke-linecap: butt;  opacity: 0.833469" clip-path="url(#4685744057707115011)" points = "263.100962,226.441325 263.880653,226.564816 264.584022,226.923201 265.142219,227.481398 265.500604,228.184767 265.624095,228.964458 265.500604,229.744149 265.142219,230.447518 264.584022,231.005715 263.880653,231.364100 263.100962,231.487590 262.321272,231.364100 261.617902,231.005715 261.059705,230.447518 260.701321,229.744149 260.577830,228.964458 260.701321,228.184767 261.059705,227.481398 261.617902,226.923201 262.321272,226.564816"/>
<polygon style="fill: #0000ff; stroke: #000000; stroke-width: 1.000000; stroke-linejoin: miter; stroke-linecap: butt;  opacity: 0.861714" clip-path="url(#4685744057707115011)" points = "283.305140,160.433629 284.084831,160.557119 284.788200,160.915504 285.346397,161.473701 285.704781,162.177070 285.828272,162.956761 285.704781,163.736452 285.346397,164.439821 284.788200,164.998018 284.084831,165.356403 283.305140,165.479894 282.525449,165.356403 281.822080,164.998018 281.263883,164.439821 280.905498,163.736452 280.782007,162.956761 280.905498,162.177070 281.263883,161.473701 281.822080,160.915504 282.525449,160.557119"/>
<polygon style="fill: #0000ff; stroke: #000000; stroke-width: 1.000000; stroke-linejoin: miter; stroke-linecap: butt;  opacity: 0.762748" clip-path="url(#4685744057707115011)" points = "298.934526,359.936528 299.714217,360.060018 300.417586,360.418403 300.975783,360.976600 301.334168,361.679969 301.457659,362.459660 301.334168,363.239351 300.975783,363.942720 300.417586,364.500917 299.714217,364.859302 298.934526,364.982793 298.154835,364.859302 297.451466,364.500917 296.893269,363.942720 296.534885,363.239351 296.411394,362.459660 296.534885,361.679969 296.893269,360.976600 297.451466,360.418403 298.154835,360.060018"/>
<polygon style="fill: #0000ff; stroke: #000000; stroke-width: 1.000000; stroke-linejoin: miter; stroke-linecap: butt;  opacity: 0.796932" clip-path="url(#4685744057707115011)" points = "303.557901,138.814416 304.337592,138.937907 305.040961,139.296291 305.599158,139.854488 305.957542,140.557857 306.081033,141.337548 305.957542,142.117239 305.599158,142.820608 305.040961,143.378805 304.337592,143.737190 303.557901,143.860681 302.778210,143.737190 302.074841,143.378805 301.516644,142.820608 301.158259,142.117239 301.034768,141.337548 301.158259,140.557857 301.516644,139.854488 302.074841,139.296291 302.778210,138.937907"/>
<polygon style="fill: #0000ff; stroke: #000000; stroke-width: 1.000000; stroke-linejoin: miter; stroke-linecap: butt;  opacity: 0.714654" clip-path="url(#4685744057707115011)" points = "323.448191,126.508720 324.227882,126.632211 324.931251,126.990596 325.489448,127.548793 325.847833,128.252162 325.971324,129.031853 325.847833,129.811544 325.489448,130.514913 324.931251,131.073110 324.227882,131.431495 323.448191,131.554985 322.668500,131.431495 321.965131,131.073110 321.406934,130.514913 321.048549,129.811544 320.925058,129.031853 321.048549,128.252162 321.406934,127.548793 321.965131,126.990596 322.668500,126.632211"/>
<polygon style="fill: #0000ff; stroke: #000000; stroke-width: 1.000000; stroke-linejoin: miter; stroke-linecap: butt;  opacity: 0.633945" clip-path="url(#4685744057707115011)" points = "342.959494,114.437497 343.739184,114.560987 344.442554,114.919372 345.000751,115.477569 345.359135,116.180938 345.482626,116.960629 345.359135,117.740320 345.000751,118.443689 344.442554,119.001886 343.739184,119.360271 342.959494,119.483762 342.179803,119.360271 341.476433,119.001886 340.918236,118.443689 340.559852,117.740320 340.436361,116.960629 340.559852,116.180938 340.918236,115.477569 341.476433,114.919372 342.179803,114.560987"/>
<polygon style="fill: #0000ff; stroke: #000000; stroke-width: 1.000000; stroke-linejoin: miter; stroke-linecap: butt;  opacity: 0.554758" clip-path="url(#4685744057707115011)" points = "362.102538,102.594106 362.882229,102.717597 363.585598,103.075981 364.143795,103.634178 364.502180,104.337548 364.625671,105.117239 364.502180,105.896929 364.143795,106.600299 363.585598,107.158496 362.882229,107.516880 362.102538,107.640371 361.322847,107.516880 360.619478,107.158496 360.061281,106.600299 359.702896,105.896929 359.579406,105.117239 359.702896,104.337548 360.061281,103.634178 360.619478,103.075981 361.322847,102.717597"/>
<polygon style="fill: #0000ff; stroke: #000000; stroke-width: 1.000000; stroke-linejoin: miter; stroke-linecap: butt;  opacity: 0.477052" clip-path="url(#4685744057707115011)" points = "380.887653,90.972159 381.667344,91.095650 382.370713,91.454034 382.928910,92.012231 383.287294,92.715601 383.410785,93.495291 383.287294,94.274982 382.928910,94.978352 382.370713,95.536549 381.667344,95.894933 380.887653,96.018424 380.107962,95.894933 379.404593,95.536549 378.846396,94.978352 378.488011,94.274982 378.364520,93.495291 378.488011,92.715601 378.846396,92.012231 379.404593,91.454034 380.107962,91.095650"/>
<polygon style="fill: #0000ff; stroke: #000000; stroke-width: 1.000000; stroke-linejoin: miter; stroke-linecap: butt;  opacity: 0.911572" clip-path="url(#4685744057707115011)" points = "319.418700,238.869754 320.198390,238.993245 320.901760,239.351629 321.459957,239.909826 321.818341,240.613195 321.941832,241.392886 321.818341,242.172577 321.459957,242.875946 320.901760,243.434143 320.198390,243.792528 319.418700,243.916019 318.639009,243.792528 317.935640,243.434143 317.377443,242.875946 317.019058,242.172577 316.895567,241.392886 317.019058,240.613195 317.377443,239.909826 317.935640,239.351629 318.639009,238.993245"/>
<polygon style="fill: #0000ff; stroke: #000000; stroke-width: 1.000000; stroke-linejoin: miter; stroke-linecap: butt;  opacity: 0.928416" clip-path="url(#4685744057707115011)" points = "339.933454,177.892093 340.713145,178.015584 341.416514,178.373969 341.974711,178.932166 342.333096,179.635535 342.456586,180.415226 342.333096,181.194917 341.974711,181.898286 341.416514,182.456483 340.713145,182.814868 339.933454,182.938358 339.153763,182.814868 338.450394,182.456483 337.892197,181.898286 337.533812,181.194917 337.410321,180.415226 337.533812,179.635535 337.892197,178.932166 338.450394,178.373969 339.153763,178.015584"/>
<polygon style="fill: #0000ff; stroke: #000000; stroke-width: 1.000000; stroke-linejoin: miter; stroke-linecap: butt;  opacity: 0.854665" clip-path="url(#4685744057707115011)" points = "359.853592,159.760179 360.633283,159.883670 361.336652,160.242055 361.894849,160.800252 362.253234,161.503621 362.376725,162.283312 362.253234,163.063003 361.894849,163.766372 361.336652,164.324569 360.633283,164.682953 359.853592,164.806444 359.073901,164.682953 358.370532,164.324569 357.812335,163.766372 357.453951,163.063003 357.330460,162.283312 357.453951,161.503621 357.812335,160.800252 358.370532,160.242055 359.073901,159.883670"/>
<polygon style="fill: #0000ff; stroke: #000000; stroke-width: 1.000000; stroke-linejoin: miter; stroke-linecap: butt;  opacity: 0.839565" clip-path="url(#4685744057707115011)" points = "355.107538,373.465347 355.887229,373.588838 356.590598,373.947223 357.148795,374.505420 357.507179,375.208789 357.630670,375.988480 357.507179,376.768171 357.148795,377.471540 356.590598,378.029737 355.887229,378.388122 355.107538,378.511612 354.327847,378.388122 353.624478,378.029737 353.066281,377.471540 352.707896,376.768171 352.584405,375.988480 352.707896,375.208789 353.066281,374.505420 353.624478,373.947223 354.327847,373.588838"/>
<polygon style="fill: #0000ff; stroke: #000000; stroke-width: 1.000000; stroke-linejoin: miter; stroke-linecap: butt;  opacity: 0.771278" clip-path="url(#4685744057707115011)" points = "379.331723,147.169419 380.111414,147.292910 380.814783,147.651294 381.372980,148.209491 381.731364,148.912860 381.854855,149.692551 381.731364,150.472242 381.372980,151.175611 380.814783,151.733808 380.111414,152.092193 379.331723,152.215684 378.552032,152.092193 377.848663,151.733808 377.290466,151.175611 376.932081,150.472242 376.808590,149.692551 376.932081,148.912860 377.290466,148.209491 377.848663,147.651294 378.552032,147.292910"/>
<polygon style="fill: #0000ff; stroke: #000000; stroke-width: 1.000000; stroke-linejoin: miter; stroke-linecap: butt;  opacity: 0.689491" clip-path="url(#4685744057707115011)" points = "398.436262,134.820149 399.215953,134.943640 399.919322,135.302025 400.477519,135.860222 400.835904,136.563591 400.959394,137.343282 400.835904,138.122973 400.477519,138.826342 399.919322,139.384539 399.215953,139.742924 398.436262,139.866414 397.656571,139.742924 396.953202,139.384539 396.395005,138.826342 396.036620,138.122973 395.913129,137.343282 396.036620,136.563591 396.395005,135.860222 396.953202,135.302025 397.656571,134.943640"/>
<polygon style="fill: #0000ff; stroke: #000000; stroke-width: 1.000000; stroke-linejoin: miter; stroke-linecap: butt;  opacity: 0.609258" clip-path="url(#4685744057707115011)" points = "417.177856,122.705490 417.957547,122.828981 418.660916,123.187365 419.219113,123.745562 419.577498,124.448931 419.700989,125.228622 419.577498,126.008313 419.219113,126.711682 418.660916,127.269879 417.957547,127.628264 417.177856,127.751755 416.398165,127.628264 415.694796,127.269879 415.136599,126.711682 414.778214,126.008313 414.654723,125.228622 414.778214,124.448931 415.136599,123.745562 415.694796,123.187365 416.398165,122.828981"/>
<polygon style="fill: #0000ff; stroke: #000000; stroke-width: 1.000000; stroke-linejoin: miter; stroke-linecap: butt;  opacity: 0.994457" clip-path="url(#4685744057707115011)" points = "376.800888,249.995066 377.580579,250.118557 378.283948,250.476941 378.842145,251.035138 379.200530,251.738507 379.324020,252.518198 379.200530,253.297889 378.842145,254.001258 378.283948,254.559455 377.580579,254.917840 376.800888,255.041331 376.021197,254.917840 375.317828,254.559455 374.759631,254.001258 374.401246,253.297889 374.277755,252.518198 374.401246,251.738507 374.759631,251.035138 375.317828,250.476941 376.021197,250.118557"/>
<polygon style="fill: #0000ff; stroke: #000000; stroke-width: 1.000000; stroke-linejoin: miter; stroke-linecap: butt;  opacity: 0.530535" clip-path="url(#4685744057707115011)" points = "435.566751,110.818817 436.346441,110.942308 437.049811,111.300692 437.608008,111.858889 437.966392,112.562258 438.089883,113.341949 437.966392,114.121640 437.608008,114.825009 437.049811,115.383206 436.346441,115.741591 435.566751,115.865082 434.787060,115.741591 434.083690,115.383206 433.525493,114.825009 433.167109,114.121640 433.043618,113.341949 433.167109,112.562258 433.525493,111.858889 434.083690,111.300692 434.787060,110.942308"/>
<polygon style="fill: #0000ff; stroke: #000000; stroke-width: 1.000000; stroke-linejoin: miter; stroke-linecap: butt;  opacity: 1.000000" clip-path="url(#4685744057707115011)" points = "397.489734,193.842270 398.269425,193.965761 398.972794,194.324145 399.530991,194.882342 399.889376,195.585712 400.012867,196.365402 399.889376,197.145093 399.530991,197.848463 398.972794,198.406660 398.269425,198.765044 397.489734,198.888535 396.710043,198.765044 396.006674,198.406660 395.448477,197.848463 395.090092,197.145093 394.966601,196.365402 395.090092,195.585712 395.448477,194.882342 396.006674,194.324145 396.710043,193.965761"/>
<polygon style="fill: #0000ff; stroke: #000000; stroke-width: 1.000000; stroke-linejoin: miter; stroke-linecap: butt;  opacity: 0.934020" clip-path="url(#4685744057707115011)" points = "417.205469,171.206150 417.985160,171.329641 418.688529,171.688025 419.246726,172.246222 419.605111,172.949592 419.728601,173.729282 419.605111,174.508973 419.246726,175.212342 418.688529,175.770539 417.985160,176.128924 417.205469,176.252415 416.425778,176.128924 415.722409,175.770539 415.164212,175.212342 414.805827,174.508973 414.682336,173.729282 414.805827,172.949592 415.164212,172.246222 415.722409,171.688025 416.425778,171.329641"/>
<polygon style="fill: #0000ff; stroke: #000000; stroke-width: 1.000000; stroke-linejoin: miter; stroke-linecap: butt;  opacity: 0.765818" clip-path="url(#4685744057707115011)" points = "455.026836,145.819234 455.806527,145.942725 456.509897,146.301109 457.068094,146.859306 457.426478,147.562675 457.549969,148.342366 457.426478,149.122057 457.068094,149.825426 456.509897,150.383623 455.806527,150.742008 455.026836,150.865499 454.247146,150.742008 453.543776,150.383623 452.985579,149.825426 452.627195,149.122057 452.503704,148.342366 452.627195,147.562675 452.985579,146.859306 453.543776,146.301109 454.247146,145.942725"/>
<polygon style="fill: #0000ff; stroke: #000000; stroke-width: 1.000000; stroke-linejoin: miter; stroke-linecap: butt;  opacity: 0.849097" clip-path="url(#4685744057707115011)" points = "436.300933,158.388661 437.080624,158.512152 437.783993,158.870537 438.342190,159.428734 438.700575,160.132103 438.824066,160.911794 438.700575,161.691484 438.342190,162.394854 437.783993,162.953051 437.080624,163.311435 436.300933,163.434926 435.521242,163.311435 434.817873,162.953051 434.259676,162.394854 433.901292,161.691484 433.777801,160.911794 433.901292,160.132103 434.259676,159.428734 434.817873,158.870537 435.521242,158.512152"/>
<polygon style="fill: #0000ff; stroke: #000000; stroke-width: 1.000000; stroke-linejoin: miter; stroke-linecap: butt;  opacity: 0.604003" clip-path="url(#4685744057707115011)" points = "491.412058,121.396305 492.191748,121.519796 492.895118,121.878181 493.453315,122.436378 493.811699,123.139747 493.935190,123.919438 493.811699,124.699129 493.453315,125.402498 492.895118,125.960695 492.191748,126.319079 491.412058,126.442570 490.632367,126.319079 489.928998,125.960695 489.370801,125.402498 489.012416,124.699129 488.888925,123.919438 489.012416,123.139747 489.370801,122.436378 489.928998,121.878181 490.632367,121.519796"/>
<polygon style="fill: #0000ff; stroke: #000000; stroke-width: 1.000000; stroke-linejoin: miter; stroke-linecap: butt;  opacity: 0.684135" clip-path="url(#4685744057707115011)" points = "473.393804,133.490736 474.173495,133.614227 474.876864,133.972611 475.435061,134.530808 475.793445,135.234177 475.916936,136.013868 475.793445,136.793559 475.435061,137.496928 474.876864,138.055125 474.173495,138.413510 473.393804,138.537001 472.614113,138.413510 471.910744,138.055125 471.352547,137.496928 470.994162,136.793559 470.870671,136.013868 470.994162,135.234177 471.352547,134.530808 471.910744,133.972611 472.614113,133.614227"/>
<polygon style="fill: #0000ff; stroke: #000000; stroke-width: 1.000000; stroke-linejoin: miter; stroke-linecap: butt;  opacity: 0.606015" clip-path="url(#4685744057707115011)" points = "139.526509,88.716029 140.306200,88.839520 141.009569,89.197904 141.567766,89.756101 141.926151,90.459471 142.049641,91.239161 141.926151,92.018852 141.567766,92.722222 141.009569,93.280419 140.306200,93.638803 139.526509,93.762294 138.746818,93.638803 138.043449,93.280419 137.485252,92.722222 137.126867,92.018852 137.003376,91.239161 137.126867,90.459471 137.485252,89.756101 138.043449,89.197904 138.746818,88.839520"/>
<polygon style="fill: #0000ff; stroke: #000000; stroke-width: 1.000000; stroke-linejoin: miter; stroke-linecap: butt;  opacity: 0.655141" clip-path="url(#4685744057707115011)" points = "193.548775,111.838942 194.328466,111.962433 195.031835,112.320817 195.590032,112.879014 195.948417,113.582383 196.071907,114.362074 195.948417,115.141765 195.590032,115.845134 195.031835,116.403331 194.328466,116.761716 193.548775,116.885207 192.769084,116.761716 192.065715,116.403331 191.507518,115.845134 191.149133,115.141765 191.025642,114.362074 191.149133,113.582383 191.507518,112.879014 192.065715,112.320817 192.769084,111.962433"/>
<polygon style="fill: #0000ff; stroke: #000000; stroke-width: 1.000000; stroke-linejoin: miter; stroke-linecap: butt;  opacity: 0.716763" clip-path="url(#4685744057707115011)" points = "248.142456,129.437475 248.922147,129.560966 249.625516,129.919351 250.183713,130.477548 250.542098,131.180917 250.665589,131.960608 250.542098,132.740299 250.183713,133.443668 249.625516,134.001865 248.922147,134.360249 248.142456,134.483740 247.362765,134.360249 246.659396,134.001865 246.101199,133.443668 245.742814,132.740299 245.619323,131.960608 245.742814,131.180917 246.101199,130.477548 246.659396,129.919351 247.362765,129.560966"/>
<polygon style="fill: #0000ff; stroke: #000000; stroke-width: 1.000000; stroke-linejoin: miter; stroke-linecap: butt;  opacity: 0.796932" clip-path="url(#4685744057707115011)" points = "303.557901,138.814416 304.337592,138.937907 305.040961,139.296291 305.599158,139.854488 305.957542,140.557857 306.081033,141.337548 305.957542,142.117239 305.599158,142.820608 305.040961,143.378805 304.337592,143.737190 303.557901,143.860681 302.778210,143.737190 302.074841,143.378805 301.516644,142.820608 301.158259,142.117239 301.034768,141.337548 301.158259,140.557857 301.516644,139.854488 302.074841,139.296291 302.778210,138.937907"/>
<polygon style="fill: #0000ff; stroke: #000000; stroke-width: 1.000000; stroke-linejoin: miter; stroke-linecap: butt;  opacity: 0.854665" clip-path="url(#4685744057707115011)" points = "359.853592,159.760179 360.633283,159.883670 361.336652,160.242055 361.894849,160.800252 362.253234,161.503621 362.376725,162.283312 362.253234,163.063003 361.894849,163.766372 361.336652,164.324569 360.633283,164.682953 359.853592,164.806444 359.073901,164.682953 358.370532,164.324569 357.812335,163.766372 357.453951,163.063003 357.330460,162.283312 357.453951,161.503621 357.812335,160.800252 358.370532,160.242055 359.073901,159.883670"/>
<polygon style="fill: #0000ff; stroke: #000000; stroke-width: 1.000000; stroke-linejoin: miter; stroke-linecap: butt;  opacity: 0.934020" clip-path="url(#4685744057707115011)" points = "417.205469,171.206150 417.985160,171.329641 418.688529,171.688025 419.246726,172.246222 419.605111,172.949592 419.728601,173.729282 419.605111,174.508973 419.246726,175.212342 418.688529,175.770539 417.985160,176.128924 417.205469,176.252415 416.425778,176.128924 415.722409,175.770539 415.164212,175.212342 414.805827,174.508973 414.682336,173.729282 414.805827,172.949592 415.164212,172.246222 415.722409,171.688025 416.425778,171.329641"/>
<polygon style="fill: #0000ff; stroke: #000000; stroke-width: 1.000000; stroke-linejoin: miter; stroke-linecap: butt;  opacity: 0.674093" clip-path="url(#4685744057707115011)" points = "118.385068,106.446757 119.164759,106.570248 119.868128,106.928632 120.426325,107.486829 120.784710,108.190198 120.908201,108.969889 120.784710,109.749580 120.426325,110.452949 119.868128,111.011146 119.164759,111.369531 118.385068,111.493022 117.605377,111.369531 116.902008,111.011146 116.343811,110.452949 115.985426,109.749580 115.861936,108.969889 115.985426,108.190198 116.343811,107.486829 116.902008,106.928632 117.605377,106.570248"/>
</g>
<g id="matplotlib.axis1">
</g>
<g id="matplotlib.axis2">
</g>
</g>
</g>
</svg>
