<?xml version="1.0" standalone="no"?>
<!DOCTYPE svg PUBLIC "-//W3C//DTD SVG 1.1//EN"
  "http://www.w3.org/Graphics/SVG/1.1/DTD/svg11.dtd">
<!-- Created with matplotlib (http://matplotlib.sourceforge.net/) -->
<svg width="576" height="432" viewBox="0 0 576 432"
   xmlns="http://www.w3.org/2000/svg"
   xmlns:xlink="http://www.w3.org/1999/xlink"
   version="1.1"
   id="svg1">
<g id="figure1">
<polygon style="fill: #ffffff; stroke: #ffffff; stroke-width: 1.000000; stroke-linejoin: miter; stroke-linecap: square;  opacity: 1.000000"  points = "0.000000,432.000000 0.000000,0.000000 576.000000,0.000000 576.000000,432.000000"/>
<polygon style="fill: #ffffff; opacity: 1.000000"  points = "0.000000,432.000000 0.000000,0.000000 576.000000,0.000000 576.000000,432.000000"/>
<g id="axis3d1">
<polygon style="fill: #f2f2f2; stroke: #f2f2f2; stroke-width: 1.000000; stroke-linejoin: miter; stroke-linecap: square;  opacity: 0.100000"  points = "241.211914,230.626613 508.260241,289.840834 519.433224,81.348607 238.467267,28.237352"/>
<path style="fill: none; stroke: #000000; stroke-width: 0.750000; stroke-linejoin: miter; stroke-linecap: square;  opacity: 1.000000"  d="M 76.357701,336.543225 L 357.328625,405.507833 "/>
<text style="font-size: 12.000000; font-family: Bitstream Vera Sans; font-style: Roman; fill: #000000;" x="141.598101" y="383.874575" transform="translate(141.598101,383.874575) rotate(-341.9) translate(-141.598101,-383.874575)">min_call_probability</text>
<g id="linecollection1">
<path style="fill: none; stroke: #e6e6e6; stroke-width: 1.000000; stroke-linejoin: miter; stroke-linecap: butt;  opacity: 1.000000"  d="M 81.730847,337.862069 L 246.335639,231.762727 L 243.846516,29.254197 "/>
<path style="fill: none; stroke: #e6e6e6; stroke-width: 1.000000; stroke-linejoin: miter; stroke-linecap: butt;  opacity: 1.000000"  d="M 125.064523,348.498365 L 287.633711,240.919995 L 287.220571,37.453235 "/>
<path style="fill: none; stroke: #e6e6e6; stroke-width: 1.000000; stroke-linejoin: miter; stroke-linecap: butt;  opacity: 1.000000"  d="M 169.027317,359.289079 L 329.487668,250.200523 L 331.208258,45.768268 "/>
<path style="fill: none; stroke: #e6e6e6; stroke-width: 1.000000; stroke-linejoin: miter; stroke-linecap: butt;  opacity: 1.000000"  d="M 213.633031,370.237599 L 371.908809,259.606816 L 375.822692,54.201775 "/>
<path style="fill: none; stroke: #e6e6e6; stroke-width: 1.000000; stroke-linejoin: miter; stroke-linecap: butt;  opacity: 1.000000"  d="M 258.895872,381.347411 L 414.908741,269.141448 L 421.077363,62.756308 "/>
<path style="fill: none; stroke: #e6e6e6; stroke-width: 1.000000; stroke-linejoin: miter; stroke-linecap: butt;  opacity: 1.000000"  d="M 304.830469,392.622106 L 458.499392,278.807063 L 466.986154,71.434489 "/>
<path style="fill: none; stroke: #e6e6e6; stroke-width: 1.000000; stroke-linejoin: miter; stroke-linecap: butt;  opacity: 1.000000"  d="M 351.451887,404.065382 L 502.693018,288.606380 L 513.563349,80.239019 "/>
</g>
<g id="xtick1">
<text style="font-size: 12.000000; font-family: Bitstream Vera Sans; font-style: Roman; fill: #000000;" x="74.730847" y="342.362069" >70</text>
<path style="fill: none; stroke: #000000; stroke-width: 1.000000; stroke-linejoin: miter; stroke-linecap: square;  opacity: 1.000000"  d="M 81.730847,337.862069 L 79.242567,345.465257 "/>
</g>
<g id="xtick2">
<text style="font-size: 12.000000; font-family: Bitstream Vera Sans; font-style: Roman; fill: #000000;" x="118.064523" y="352.998365" >75</text>
<path style="fill: none; stroke: #000000; stroke-width: 1.000000; stroke-linejoin: miter; stroke-linecap: square;  opacity: 1.000000"  d="M 125.064523,348.498365 L 122.576242,356.101553 "/>
</g>
<g id="xtick3">
<text style="font-size: 12.000000; font-family: Bitstream Vera Sans; font-style: Roman; fill: #000000;" x="162.027317" y="363.789079" >80</text>
<path style="fill: none; stroke: #000000; stroke-width: 1.000000; stroke-linejoin: miter; stroke-linecap: square;  opacity: 1.000000"  d="M 169.027317,359.289079 L 166.539037,366.892267 "/>
</g>
<g id="xtick4">
<text style="font-size: 12.000000; font-family: Bitstream Vera Sans; font-style: Roman; fill: #000000;" x="206.633031" y="374.737599" >85</text>
<path style="fill: none; stroke: #000000; stroke-width: 1.000000; stroke-linejoin: miter; stroke-linecap: square;  opacity: 1.000000"  d="M 213.633031,370.237599 L 211.144751,377.840786 "/>
</g>
<g id="xtick5">
<text style="font-size: 12.000000; font-family: Bitstream Vera Sans; font-style: Roman; fill: #000000;" x="251.895872" y="385.847411" >90</text>
<path style="fill: none; stroke: #000000; stroke-width: 1.000000; stroke-linejoin: miter; stroke-linecap: square;  opacity: 1.000000"  d="M 258.895872,381.347411 L 256.407592,388.950598 "/>
</g>
<g id="xtick6">
<text style="font-size: 12.000000; font-family: Bitstream Vera Sans; font-style: Roman; fill: #000000;" x="297.830469" y="397.122106" >95</text>
<path style="fill: none; stroke: #000000; stroke-width: 1.000000; stroke-linejoin: miter; stroke-linecap: square;  opacity: 1.000000"  d="M 304.830469,392.622106 L 302.342189,400.225293 "/>
</g>
<g id="xtick7">
<text style="font-size: 12.000000; font-family: Bitstream Vera Sans; font-style: Roman; fill: #000000;" x="340.451887" y="408.565382" >100</text>
<path style="fill: none; stroke: #000000; stroke-width: 1.000000; stroke-linejoin: miter; stroke-linecap: square;  opacity: 1.000000"  d="M 351.451887,404.065382 L 348.963607,411.668569 "/>
</g>
</g>
<g id="axis3d2">
<polygon style="fill: #e6e6e6; stroke: #e6e6e6; stroke-width: 1.000000; stroke-linejoin: miter; stroke-linecap: square;  opacity: 0.500000"  points = "76.357701,336.543225 241.211914,230.626613 238.467267,28.237352 64.421350,123.401250"/>
<path style="fill: none; stroke: #000000; stroke-width: 0.750000; stroke-linejoin: miter; stroke-linecap: square;  opacity: 1.000000"  d="M 357.328625,405.507833 L 508.260241,289.840834 "/>
<text style="font-size: 12.000000; font-family: Bitstream Vera Sans; font-style: Roman; fill: #000000;" x="410.920465" y="424.411092" transform="translate(410.920465,424.411092) rotate(-45.6) translate(-410.920465,-424.411092)">max_call_mismatch_rate</text>
<g id="linecollection2">
<path style="fill: none; stroke: #e6e6e6; stroke-width: 1.000000; stroke-linejoin: miter; stroke-linecap: butt;  opacity: 1.000000"  d="M 360.586508,403.011142 L 79.904448,334.264487 L 68.180167,121.346024 "/>
<path style="fill: none; stroke: #e6e6e6; stroke-width: 1.000000; stroke-linejoin: miter; stroke-linecap: butt;  opacity: 1.000000"  d="M 391.334149,379.447575 L 113.403632,312.741713 L 103.651211,101.951356 "/>
<path style="fill: none; stroke: #e6e6e6; stroke-width: 1.000000; stroke-linejoin: miter; stroke-linecap: butt;  opacity: 1.000000"  d="M 421.155645,356.593762 L 145.937509,291.839135 L 138.046299,83.144993 "/>
<path style="fill: none; stroke: #e6e6e6; stroke-width: 1.000000; stroke-linejoin: miter; stroke-linecap: butt;  opacity: 1.000000"  d="M 450.092220,334.418111 L 177.547210,271.530328 L 171.413658,64.900567 "/>
<path style="fill: none; stroke: #e6e6e6; stroke-width: 1.000000; stroke-linejoin: miter; stroke-linecap: butt;  opacity: 1.000000"  d="M 478.182688,312.890878 L 208.271564,251.790344 L 203.798671,47.193262 "/>
<path style="fill: none; stroke: #e6e6e6; stroke-width: 1.000000; stroke-linejoin: miter; stroke-linecap: butt;  opacity: 1.000000"  d="M 505.463623,291.984033 L 238.147253,232.595617 L 235.244090,29.999704 "/>
</g>
<g id="xtick8">
<text style="font-size: 12.000000; font-family: Bitstream Vera Sans; font-style: Roman; fill: #000000;" x="347.586508" y="407.511142" >0.05</text>
<path style="fill: none; stroke: #000000; stroke-width: 1.000000; stroke-linejoin: miter; stroke-linecap: square;  opacity: 1.000000"  d="M 360.586508,403.011142 L 366.304039,408.606662 "/>
</g>
<g id="xtick9">
<text style="font-size: 12.000000; font-family: Bitstream Vera Sans; font-style: Roman; fill: #000000;" x="378.334149" y="383.947575" >0.10</text>
<path style="fill: none; stroke: #000000; stroke-width: 1.000000; stroke-linejoin: miter; stroke-linecap: square;  opacity: 1.000000"  d="M 391.334149,379.447575 L 397.051679,385.043095 "/>
</g>
<g id="xtick10">
<text style="font-size: 12.000000; font-family: Bitstream Vera Sans; font-style: Roman; fill: #000000;" x="408.155645" y="361.093762" >0.15</text>
<path style="fill: none; stroke: #000000; stroke-width: 1.000000; stroke-linejoin: miter; stroke-linecap: square;  opacity: 1.000000"  d="M 421.155645,356.593762 L 426.873175,362.189282 "/>
</g>
<g id="xtick11">
<text style="font-size: 12.000000; font-family: Bitstream Vera Sans; font-style: Roman; fill: #000000;" x="437.092220" y="338.918111" >0.20</text>
<path style="fill: none; stroke: #000000; stroke-width: 1.000000; stroke-linejoin: miter; stroke-linecap: square;  opacity: 1.000000"  d="M 450.092220,334.418111 L 455.809750,340.013631 "/>
</g>
<g id="xtick12">
<text style="font-size: 12.000000; font-family: Bitstream Vera Sans; font-style: Roman; fill: #000000;" x="465.182688" y="317.390878" >0.25</text>
<path style="fill: none; stroke: #000000; stroke-width: 1.000000; stroke-linejoin: miter; stroke-linecap: square;  opacity: 1.000000"  d="M 478.182688,312.890878 L 483.900218,318.486398 "/>
</g>
<g id="xtick13">
<text style="font-size: 12.000000; font-family: Bitstream Vera Sans; font-style: Roman; fill: #000000;" x="492.463623" y="296.484033" >0.30</text>
<path style="fill: none; stroke: #000000; stroke-width: 1.000000; stroke-linejoin: miter; stroke-linecap: square;  opacity: 1.000000"  d="M 505.463623,291.984033 L 511.181153,297.579553 "/>
</g>
</g>
<g id="axis3d3">
<polygon style="fill: #f2f2f2; stroke: #f2f2f2; stroke-width: 1.000000; stroke-linejoin: miter; stroke-linecap: square;  opacity: 0.100000"  points = "76.357701,336.543225 357.328625,405.507833 508.260241,289.840834 241.211914,230.626613"/>
<path style="fill: none; stroke: #000000; stroke-width: 0.750000; stroke-linejoin: miter; stroke-linecap: square;  opacity: 1.000000"  d="M 76.357701,336.543225 L 64.421350,123.401250 "/>
<text style="font-size: 12.000000; font-family: Bitstream Vera Sans; font-style: Roman; fill: #000000;" x="44.580756" y="338.123307" transform="translate(44.580756,338.123307) rotate(-92.4) translate(-44.580756,-338.123307)">no_of_snps_filtered_by_mismatch</text>
<g id="linecollection3">
<path style="fill: none; stroke: #e6e6e6; stroke-width: 1.000000; stroke-linejoin: miter; stroke-linecap: butt;  opacity: 1.000000"  d="M 75.036612,312.953152 L 240.907088,208.148823 L 509.498736,266.730035 "/>
<path style="fill: none; stroke: #e6e6e6; stroke-width: 1.000000; stroke-linejoin: miter; stroke-linecap: butt;  opacity: 1.000000"  d="M 72.814676,273.277053 L 240.394995,170.387266 L 511.580694,227.879895 "/>
<path style="fill: none; stroke: #e6e6e6; stroke-width: 1.000000; stroke-linejoin: miter; stroke-linecap: butt;  opacity: 1.000000"  d="M 70.547556,232.794112 L 239.873254,131.914310 L 513.703614,188.265371 "/>
<path style="fill: none; stroke: #e6e6e6; stroke-width: 1.000000; stroke-linejoin: miter; stroke-linecap: butt;  opacity: 1.000000"  d="M 68.233858,191.479463 L 239.341591,92.709662 L 515.868718,147.863681 "/>
<path style="fill: none; stroke: #e6e6e6; stroke-width: 1.000000; stroke-linejoin: miter; stroke-linecap: butt;  opacity: 1.000000"  d="M 65.872133,149.307210 L 238.799719,52.752248 L 518.077276,106.651128 "/>
</g>
<g id="xtick14">
<text style="font-size: 12.000000; font-family: Bitstream Vera Sans; font-style: Roman; fill: #000000;" x="60.036612" y="317.453152" >2000</text>
<path style="fill: none; stroke: #000000; stroke-width: 1.000000; stroke-linejoin: miter; stroke-linecap: square;  opacity: 1.000000"  d="M 75.036612,312.953152 L 67.043660,313.288867 "/>
</g>
<g id="xtick15">
<text style="font-size: 12.000000; font-family: Bitstream Vera Sans; font-style: Roman; fill: #000000;" x="57.814676" y="277.777053" >4000</text>
<path style="fill: none; stroke: #000000; stroke-width: 1.000000; stroke-linejoin: miter; stroke-linecap: square;  opacity: 1.000000"  d="M 72.814676,273.277053 L 64.821724,273.612768 "/>
</g>
<g id="xtick16">
<text style="font-size: 12.000000; font-family: Bitstream Vera Sans; font-style: Roman; fill: #000000;" x="55.547556" y="237.294112" >6000</text>
<path style="fill: none; stroke: #000000; stroke-width: 1.000000; stroke-linejoin: miter; stroke-linecap: square;  opacity: 1.000000"  d="M 70.547556,232.794112 L 62.554603,233.129827 "/>
</g>
<g id="xtick17">
<text style="font-size: 12.000000; font-family: Bitstream Vera Sans; font-style: Roman; fill: #000000;" x="53.233858" y="195.979463" >8000</text>
<path style="fill: none; stroke: #000000; stroke-width: 1.000000; stroke-linejoin: miter; stroke-linecap: square;  opacity: 1.000000"  d="M 68.233858,191.479463 L 60.240905,191.815178 "/>
</g>
<g id="xtick18">
<text style="font-size: 12.000000; font-family: Bitstream Vera Sans; font-style: Roman; fill: #000000;" x="46.872133" y="153.807210" >10000</text>
<path style="fill: none; stroke: #000000; stroke-width: 1.000000; stroke-linejoin: miter; stroke-linecap: square;  opacity: 1.000000"  d="M 65.872133,149.307210 L 57.879180,149.642926 "/>
</g>
</g>
<g id="axes1">
<g id="regpolycollection1">
<defs>
    <clipPath id="4685744057707115011">
    <rect x="0.000000" y="0.000000" width="576.000000" height="432.000000"
    style="stroke: gray; fill: none;"/>
    </clipPath>
</defs>
<polygon style="fill: #0000ff; stroke: #000000; stroke-width: 1.000000; stroke-linejoin: miter; stroke-linecap: butt;  opacity: 0.614619" clip-path="url(#4685744057707115011)" points = "146.204947,153.463842 146.984638,153.587332 147.688007,153.945717 148.246204,154.503914 148.604589,155.207283 148.728080,155.986974 148.604589,156.766665 148.246204,157.470034 147.688007,158.028231 146.984638,158.386616 146.204947,158.510107 145.425256,158.386616 144.721887,158.028231 144.163690,157.470034 143.805305,156.766665 143.681815,155.986974 143.805305,155.207283 144.163690,154.503914 144.721887,153.945717 145.425256,153.587332"/>
<polygon style="fill: #0000ff; stroke: #000000; stroke-width: 1.000000; stroke-linejoin: miter; stroke-linecap: butt;  opacity: 0.803626" clip-path="url(#4685744057707115011)" points = "125.737558,277.592474 126.517249,277.715965 127.220618,278.074350 127.778815,278.632547 128.137200,279.335916 128.260691,280.115607 128.137200,280.895298 127.778815,281.598667 127.220618,282.156864 126.517249,282.515249 125.737558,282.638739 124.957867,282.515249 124.254498,282.156864 123.696301,281.598667 123.337917,280.895298 123.214426,280.115607 123.337917,279.335916 123.696301,278.632547 124.254498,278.074350 124.957867,277.715965"/>
<polygon style="fill: #0000ff; stroke: #000000; stroke-width: 1.000000; stroke-linejoin: miter; stroke-linecap: butt;  opacity: 0.725352" clip-path="url(#4685744057707115011)" points = "158.394354,227.488118 159.174045,227.611609 159.877414,227.969993 160.435611,228.528190 160.793996,229.231559 160.917487,230.011250 160.793996,230.790941 160.435611,231.494310 159.877414,232.052507 159.174045,232.410892 158.394354,232.534383 157.614663,232.410892 156.911294,232.052507 156.353097,231.494310 155.994712,230.790941 155.871222,230.011250 155.994712,229.231559 156.353097,228.528190 156.911294,227.969993 157.614663,227.611609"/>
<polygon style="fill: #0000ff; stroke: #000000; stroke-width: 1.000000; stroke-linejoin: miter; stroke-linecap: butt;  opacity: 0.627763" clip-path="url(#4685744057707115011)" points = "190.762030,186.707158 191.541721,186.830649 192.245091,187.189033 192.803288,187.747230 193.161672,188.450599 193.285163,189.230290 193.161672,190.009981 192.803288,190.713350 192.245091,191.271547 191.541721,191.629932 190.762030,191.753423 189.982340,191.629932 189.278970,191.271547 188.720773,190.713350 188.362389,190.009981 188.238898,189.230290 188.362389,188.450599 188.720773,187.747230 189.278970,187.189033 189.982340,186.830649"/>
<polygon style="fill: #0000ff; stroke: #000000; stroke-width: 1.000000; stroke-linejoin: miter; stroke-linecap: butt;  opacity: 0.545897" clip-path="url(#4685744057707115011)" points = "222.391473,140.865521 223.171163,140.989012 223.874533,141.347397 224.432730,141.905594 224.791114,142.608963 224.914605,143.388654 224.791114,144.168345 224.432730,144.871714 223.874533,145.429911 223.171163,145.788295 222.391473,145.911786 221.611782,145.788295 220.908412,145.429911 220.350215,144.871714 219.991831,144.168345 219.868340,143.388654 219.991831,142.608963 220.350215,141.905594 220.908412,141.347397 221.611782,140.989012"/>
<polygon style="fill: #0000ff; stroke: #000000; stroke-width: 1.000000; stroke-linejoin: miter; stroke-linecap: butt;  opacity: 0.404398" clip-path="url(#4685744057707115011)" points = "253.763850,122.159222 254.543541,122.282712 255.246910,122.641097 255.805107,123.199294 256.163491,123.902663 256.286982,124.682354 256.163491,125.462045 255.805107,126.165414 255.246910,126.723611 254.543541,127.081996 253.763850,127.205487 252.984159,127.081996 252.280790,126.723611 251.722593,126.165414 251.364208,125.462045 251.240717,124.682354 251.364208,123.902663 251.722593,123.199294 252.280790,122.641097 252.984159,122.282712"/>
<polygon style="fill: #0000ff; stroke: #000000; stroke-width: 1.000000; stroke-linejoin: miter; stroke-linecap: butt;  opacity: 0.300000" clip-path="url(#4685744057707115011)" points = "284.192925,89.436881 284.972615,89.560372 285.675985,89.918757 286.234182,90.476954 286.592566,91.180323 286.716057,91.960014 286.592566,92.739705 286.234182,93.443074 285.675985,94.001271 284.972615,94.359656 284.192925,94.483146 283.413234,94.359656 282.709864,94.001271 282.151667,93.443074 281.793283,92.739705 281.669792,91.960014 281.793283,91.180323 282.151667,90.476954 282.709864,89.918757 283.413234,89.560372"/>
<polygon style="fill: #0000ff; stroke: #000000; stroke-width: 1.000000; stroke-linejoin: miter; stroke-linecap: butt;  opacity: 0.642601" clip-path="url(#4685744057707115011)" points = "235.429029,219.356373 236.208720,219.479864 236.912089,219.838248 237.470286,220.396445 237.828670,221.099814 237.952161,221.879505 237.828670,222.659196 237.470286,223.362565 236.912089,223.920762 236.208720,224.279147 235.429029,224.402638 234.649338,224.279147 233.945969,223.920762 233.387772,223.362565 233.029387,222.659196 232.905896,221.879505 233.029387,221.099814 233.387772,220.396445 233.945969,219.838248 234.649338,219.479864"/>
<polygon style="fill: #0000ff; stroke: #000000; stroke-width: 1.000000; stroke-linejoin: miter; stroke-linecap: butt;  opacity: 0.694816" clip-path="url(#4685744057707115011)" points = "325.238146,275.902303 326.017837,276.025794 326.721206,276.384179 327.279403,276.942376 327.637787,277.645745 327.761278,278.425436 327.637787,279.205127 327.279403,279.908496 326.721206,280.466693 326.017837,280.825077 325.238146,280.948568 324.458455,280.825077 323.755086,280.466693 323.196889,279.908496 322.838504,279.205127 322.715013,278.425436 322.838504,277.645745 323.196889,276.942376 323.755086,276.384179 324.458455,276.025794"/>
<polygon style="fill: #0000ff; stroke: #000000; stroke-width: 1.000000; stroke-linejoin: miter; stroke-linecap: butt;  opacity: 0.890083" clip-path="url(#4685744057707115011)" points = "262.139002,362.465815 262.918692,362.589306 263.622062,362.947691 264.180259,363.505888 264.538643,364.209257 264.662134,364.988948 264.538643,365.768639 264.180259,366.472008 263.622062,367.030205 262.918692,367.388589 262.139002,367.512080 261.359311,367.388589 260.655942,367.030205 260.097745,366.472008 259.739360,365.768639 259.615869,364.988948 259.739360,364.209257 260.097745,363.505888 260.655942,362.947691 261.359311,362.589306"/>
<polygon style="fill: #0000ff; stroke: #000000; stroke-width: 1.000000; stroke-linejoin: miter; stroke-linecap: butt;  opacity: 0.804642" clip-path="url(#4685744057707115011)" points = "293.996113,313.553947 294.775804,313.677438 295.479174,314.035823 296.037371,314.594020 296.395755,315.297389 296.519246,316.077080 296.395755,316.856771 296.037371,317.560140 295.479174,318.118337 294.775804,318.476721 293.996113,318.600212 293.216423,318.476721 292.513053,318.118337 291.954856,317.560140 291.596472,316.856771 291.472981,316.077080 291.596472,315.297389 291.954856,314.594020 292.513053,314.035823 293.216423,313.677438"/>
<polygon style="fill: #0000ff; stroke: #000000; stroke-width: 1.000000; stroke-linejoin: miter; stroke-linecap: butt;  opacity: 0.694816" clip-path="url(#4685744057707115011)" points = "325.238146,275.902303 326.017837,276.025794 326.721206,276.384179 327.279403,276.942376 327.637787,277.645745 327.761278,278.425436 327.637787,279.205127 327.279403,279.908496 326.721206,280.466693 326.017837,280.825077 325.238146,280.948568 324.458455,280.825077 323.755086,280.466693 323.196889,279.908496 322.838504,279.205127 322.715013,278.425436 322.838504,277.645745 323.196889,276.942376 323.755086,276.384179 324.458455,276.025794"/>
<polygon style="fill: #0000ff; stroke: #000000; stroke-width: 1.000000; stroke-linejoin: miter; stroke-linecap: butt;  opacity: 0.568693" clip-path="url(#4685744057707115011)" points = "355.682885,246.779859 356.462576,246.903349 357.165945,247.261734 357.724142,247.819931 358.082527,248.523300 358.206018,249.302991 358.082527,250.082682 357.724142,250.786051 357.165945,251.344248 356.462576,251.702633 355.682885,251.826124 354.903194,251.702633 354.199825,251.344248 353.641628,250.786051 353.283243,250.082682 353.159753,249.302991 353.283243,248.523300 353.641628,247.819931 354.199825,247.261734 354.903194,246.903349"/>
<polygon style="fill: #0000ff; stroke: #000000; stroke-width: 1.000000; stroke-linejoin: miter; stroke-linecap: butt;  opacity: 0.454724" clip-path="url(#4685744057707115011)" points = "385.440895,214.625530 386.220586,214.749021 386.923955,215.107405 387.482152,215.665602 387.840536,216.368972 387.964027,217.148662 387.840536,217.928353 387.482152,218.631723 386.923955,219.189920 386.220586,219.548304 385.440895,219.671795 384.661204,219.548304 383.957835,219.189920 383.399638,218.631723 383.041253,217.928353 382.917762,217.148662 383.041253,216.368972 383.399638,215.665602 383.957835,215.107405 384.661204,214.749021"/>
<polygon style="fill: #0000ff; stroke: #000000; stroke-width: 1.000000; stroke-linejoin: miter; stroke-linecap: butt;  opacity: 0.315855" clip-path="url(#4685744057707115011)" points = "414.164296,195.025862 414.943987,195.149353 415.647357,195.507737 416.205554,196.065934 416.563938,196.769303 416.687429,197.548994 416.563938,198.328685 416.205554,199.032054 415.647357,199.590251 414.943987,199.948636 414.164296,200.072127 413.384606,199.948636 412.681236,199.590251 412.123039,199.032054 411.764655,198.328685 411.641164,197.548994 411.764655,196.769303 412.123039,196.065934 412.681236,195.507737 413.384606,195.149353"/>
<polygon style="fill: #0000ff; stroke: #000000; stroke-width: 1.000000; stroke-linejoin: miter; stroke-linecap: butt;  opacity: 0.761858" clip-path="url(#4685744057707115011)" points = "370.811278,288.109992 371.590969,288.233483 372.294339,288.591868 372.852536,289.150065 373.210920,289.853434 373.334411,290.633125 373.210920,291.412816 372.852536,292.116185 372.294339,292.674382 371.590969,293.032767 370.811278,293.156257 370.031588,293.032767 369.328218,292.674382 368.770021,292.116185 368.411637,291.412816 368.288146,290.633125 368.411637,289.853434 368.770021,289.150065 369.328218,288.591868 370.031588,288.233483"/>
<polygon style="fill: #0000ff; stroke: #000000; stroke-width: 1.000000; stroke-linejoin: miter; stroke-linecap: butt;  opacity: 0.954567" clip-path="url(#4685744057707115011)" points = "308.177746,377.533854 308.957437,377.657345 309.660806,378.015730 310.219003,378.573927 310.577388,379.277296 310.700879,380.056987 310.577388,380.836678 310.219003,381.540047 309.660806,382.098244 308.957437,382.456628 308.177746,382.580119 307.398055,382.456628 306.694686,382.098244 306.136489,381.540047 305.778104,380.836678 305.654614,380.056987 305.778104,379.277296 306.136489,378.573927 306.694686,378.015730 307.398055,377.657345"/>
<polygon style="fill: #0000ff; stroke: #000000; stroke-width: 1.000000; stroke-linejoin: miter; stroke-linecap: butt;  opacity: 0.870381" clip-path="url(#4685744057707115011)" points = "339.853717,327.260160 340.633408,327.383651 341.336777,327.742035 341.894974,328.300232 342.253359,329.003602 342.376850,329.783292 342.253359,330.562983 341.894974,331.266353 341.336777,331.824550 340.633408,332.182934 339.853717,332.306425 339.074026,332.182934 338.370657,331.824550 337.812460,331.266353 337.454075,330.562983 337.330585,329.783292 337.454075,329.003602 337.812460,328.300232 338.370657,327.742035 339.074026,327.383651"/>
<polygon style="fill: #0000ff; stroke: #000000; stroke-width: 1.000000; stroke-linejoin: miter; stroke-linecap: butt;  opacity: 0.761858" clip-path="url(#4685744057707115011)" points = "370.811278,288.109992 371.590969,288.233483 372.294339,288.591868 372.852536,289.150065 373.210920,289.853434 373.334411,290.633125 373.210920,291.412816 372.852536,292.116185 372.294339,292.674382 371.590969,293.032767 370.811278,293.156257 370.031588,293.032767 369.328218,292.674382 368.770021,292.116185 368.411637,291.412816 368.288146,290.633125 368.411637,289.853434 368.770021,289.150065 369.328218,288.591868 370.031588,288.233483"/>
<polygon style="fill: #0000ff; stroke: #000000; stroke-width: 1.000000; stroke-linejoin: miter; stroke-linecap: butt;  opacity: 0.614031" clip-path="url(#4685744057707115011)" points = "400.658001,266.796463 401.437692,266.919954 402.141061,267.278338 402.699258,267.836535 403.057643,268.539904 403.181134,269.319595 403.057643,270.099286 402.699258,270.802655 402.141061,271.360852 401.437692,271.719237 400.658001,271.842728 399.878310,271.719237 399.174941,271.360852 398.616744,270.802655 398.258359,270.099286 398.134868,269.319595 398.258359,268.539904 398.616744,267.836535 399.174941,267.278338 399.878310,266.919954"/>
<polygon style="fill: #0000ff; stroke: #000000; stroke-width: 1.000000; stroke-linejoin: miter; stroke-linecap: butt;  opacity: 0.503697" clip-path="url(#4685744057707115011)" points = "430.088575,232.302250 430.868266,232.425740 431.571635,232.784125 432.129832,233.342322 432.488217,234.045691 432.611708,234.825382 432.488217,235.605073 432.129832,236.308442 431.571635,236.866639 430.868266,237.225024 430.088575,237.348515 429.308884,237.225024 428.605515,236.866639 428.047318,236.308442 427.688933,235.605073 427.565443,234.825382 427.688933,234.045691 428.047318,233.342322 428.605515,232.784125 429.308884,232.425740"/>
<polygon style="fill: #0000ff; stroke: #000000; stroke-width: 1.000000; stroke-linejoin: miter; stroke-linecap: butt;  opacity: 0.363418" clip-path="url(#4685744057707115011)" points = "458.307372,212.347129 459.087062,212.470619 459.790432,212.829004 460.348629,213.387201 460.707013,214.090570 460.830504,214.870261 460.707013,215.649952 460.348629,216.353321 459.790432,216.911518 459.087062,217.269903 458.307372,217.393394 457.527681,217.269903 456.824311,216.911518 456.266114,216.353321 455.907730,215.649952 455.784239,214.870261 455.907730,214.090570 456.266114,213.387201 456.824311,212.829004 457.527681,212.470619"/>
<polygon style="fill: #0000ff; stroke: #000000; stroke-width: 1.000000; stroke-linejoin: miter; stroke-linecap: butt;  opacity: 0.983364" clip-path="url(#4685744057707115011)" points = "326.767779,382.557232 327.547470,382.680723 328.250839,383.039107 328.809036,383.597304 329.167421,384.300674 329.290912,385.080364 329.167421,385.860055 328.809036,386.563424 328.250839,387.121621 327.547470,387.480006 326.767779,387.603497 325.988089,387.480006 325.284719,387.121621 324.726522,386.563424 324.368138,385.860055 324.244647,385.080364 324.368138,384.300674 324.726522,383.597304 325.284719,383.039107 325.988089,382.680723"/>
<polygon style="fill: #0000ff; stroke: #000000; stroke-width: 1.000000; stroke-linejoin: miter; stroke-linecap: butt;  opacity: 0.886785" clip-path="url(#4685744057707115011)" points = "358.303695,336.748445 359.083386,336.871936 359.786755,337.230320 360.344952,337.788517 360.703337,338.491886 360.826828,339.271577 360.703337,340.051268 360.344952,340.754637 359.786755,341.312834 359.083386,341.671219 358.303695,341.794710 357.524004,341.671219 356.820635,341.312834 356.262438,340.754637 355.904054,340.051268 355.780563,339.271577 355.904054,338.491886 356.262438,337.788517 356.820635,337.230320 357.524004,336.871936"/>
<polygon style="fill: #0000ff; stroke: #000000; stroke-width: 1.000000; stroke-linejoin: miter; stroke-linecap: butt;  opacity: 0.783934" clip-path="url(#4685744057707115011)" points = "389.167865,295.030848 389.947556,295.154339 390.650925,295.512723 391.209122,296.070920 391.567506,296.774290 391.690997,297.553980 391.567506,298.333671 391.209122,299.037041 390.650925,299.595238 389.947556,299.953622 389.167865,300.077113 388.388174,299.953622 387.684805,299.595238 387.126608,299.037041 386.768223,298.333671 386.644732,297.553980 386.768223,296.774290 387.126608,296.070920 387.684805,295.512723 388.388174,295.154339"/>
<polygon style="fill: #0000ff; stroke: #000000; stroke-width: 1.000000; stroke-linejoin: miter; stroke-linecap: butt;  opacity: 0.635453" clip-path="url(#4685744057707115011)" points = "418.805635,273.567068 419.585325,273.690559 420.288695,274.048944 420.846892,274.607141 421.205276,275.310510 421.328767,276.090201 421.205276,276.869892 420.846892,277.573261 420.288695,278.131458 419.585325,278.489842 418.805635,278.613333 418.025944,278.489842 417.322574,278.131458 416.764377,277.573261 416.405993,276.869892 416.282502,276.090201 416.405993,275.310510 416.764377,274.607141 417.322574,274.048944 418.025944,273.690559"/>
<polygon style="fill: #0000ff; stroke: #000000; stroke-width: 1.000000; stroke-linejoin: miter; stroke-linecap: butt;  opacity: 0.530979" clip-path="url(#4685744057707115011)" points = "448.194371,236.289557 448.974061,236.413048 449.677431,236.771433 450.235628,237.329630 450.594012,238.032999 450.717503,238.812690 450.594012,239.592380 450.235628,240.295750 449.677431,240.853947 448.974061,241.212331 448.194371,241.335822 447.414680,241.212331 446.711311,240.853947 446.153114,240.295750 445.794729,239.592380 445.671238,238.812690 445.794729,238.032999 446.153114,237.329630 446.711311,236.771433 447.414680,236.413048"/>
<polygon style="fill: #0000ff; stroke: #000000; stroke-width: 1.000000; stroke-linejoin: miter; stroke-linecap: butt;  opacity: 0.389912" clip-path="url(#4685744057707115011)" points = "476.227867,216.220728 477.007558,216.344219 477.710927,216.702603 478.269124,217.260800 478.627508,217.964169 478.750999,218.743860 478.627508,219.523551 478.269124,220.226920 477.710927,220.785117 477.007558,221.143502 476.227867,221.266993 475.448176,221.143502 474.744807,220.785117 474.186610,220.226920 473.828225,219.523551 473.704734,218.743860 473.828225,217.964169 474.186610,217.260800 474.744807,216.702603 475.448176,216.344219"/>
<polygon style="fill: #0000ff; stroke: #000000; stroke-width: 1.000000; stroke-linejoin: miter; stroke-linecap: butt;  opacity: 0.983364" clip-path="url(#4685744057707115011)" points = "326.767779,382.557232 327.547470,382.680723 328.250839,383.039107 328.809036,383.597304 329.167421,384.300674 329.290912,385.080364 329.167421,385.860055 328.809036,386.563424 328.250839,387.121621 327.547470,387.480006 326.767779,387.603497 325.988089,387.480006 325.284719,387.121621 324.726522,386.563424 324.368138,385.860055 324.244647,385.080364 324.368138,384.300674 324.726522,383.597304 325.284719,383.039107 325.988089,382.680723"/>
<polygon style="fill: #0000ff; stroke: #000000; stroke-width: 1.000000; stroke-linejoin: miter; stroke-linecap: butt;  opacity: 0.886785" clip-path="url(#4685744057707115011)" points = "358.303695,336.748445 359.083386,336.871936 359.786755,337.230320 360.344952,337.788517 360.703337,338.491886 360.826828,339.271577 360.703337,340.051268 360.344952,340.754637 359.786755,341.312834 359.083386,341.671219 358.303695,341.794710 357.524004,341.671219 356.820635,341.312834 356.262438,340.754637 355.904054,340.051268 355.780563,339.271577 355.904054,338.491886 356.262438,337.788517 356.820635,337.230320 357.524004,336.871936"/>
<polygon style="fill: #0000ff; stroke: #000000; stroke-width: 1.000000; stroke-linejoin: miter; stroke-linecap: butt;  opacity: 0.783934" clip-path="url(#4685744057707115011)" points = "389.167865,295.030848 389.947556,295.154339 390.650925,295.512723 391.209122,296.070920 391.567506,296.774290 391.690997,297.553980 391.567506,298.333671 391.209122,299.037041 390.650925,299.595238 389.947556,299.953622 389.167865,300.077113 388.388174,299.953622 387.684805,299.595238 387.126608,299.037041 386.768223,298.333671 386.644732,297.553980 386.768223,296.774290 387.126608,296.070920 387.684805,295.512723 388.388174,295.154339"/>
<polygon style="fill: #0000ff; stroke: #000000; stroke-width: 1.000000; stroke-linejoin: miter; stroke-linecap: butt;  opacity: 0.635453" clip-path="url(#4685744057707115011)" points = "418.805635,273.567068 419.585325,273.690559 420.288695,274.048944 420.846892,274.607141 421.205276,275.310510 421.328767,276.090201 421.205276,276.869892 420.846892,277.573261 420.288695,278.131458 419.585325,278.489842 418.805635,278.613333 418.025944,278.489842 417.322574,278.131458 416.764377,277.573261 416.405993,276.869892 416.282502,276.090201 416.405993,275.310510 416.764377,274.607141 417.322574,274.048944 418.025944,273.690559"/>
<polygon style="fill: #0000ff; stroke: #000000; stroke-width: 1.000000; stroke-linejoin: miter; stroke-linecap: butt;  opacity: 0.530979" clip-path="url(#4685744057707115011)" points = "448.194371,236.289557 448.974061,236.413048 449.677431,236.771433 450.235628,237.329630 450.594012,238.032999 450.717503,238.812690 450.594012,239.592380 450.235628,240.295750 449.677431,240.853947 448.974061,241.212331 448.194371,241.335822 447.414680,241.212331 446.711311,240.853947 446.153114,240.295750 445.794729,239.592380 445.671238,238.812690 445.794729,238.032999 446.153114,237.329630 446.711311,236.771433 447.414680,236.413048"/>
<polygon style="fill: #0000ff; stroke: #000000; stroke-width: 1.000000; stroke-linejoin: miter; stroke-linecap: butt;  opacity: 0.389912" clip-path="url(#4685744057707115011)" points = "476.227867,216.220728 477.007558,216.344219 477.710927,216.702603 478.269124,217.260800 478.627508,217.964169 478.750999,218.743860 478.627508,219.523551 478.269124,220.226920 477.710927,220.785117 477.007558,221.143502 476.227867,221.266993 475.448176,221.143502 474.744807,220.785117 474.186610,220.226920 473.828225,219.523551 473.704734,218.743860 473.828225,217.964169 474.186610,217.260800 474.744807,216.702603 475.448176,216.344219"/>
<polygon style="fill: #0000ff; stroke: #000000; stroke-width: 1.000000; stroke-linejoin: miter; stroke-linecap: butt;  opacity: 1.000000" clip-path="url(#4685744057707115011)" points = "336.111248,384.250048 336.890939,384.373539 337.594308,384.731923 338.152505,385.290120 338.510890,385.993489 338.634381,386.773180 338.510890,387.552871 338.152505,388.256240 337.594308,388.814437 336.890939,389.172822 336.111248,389.296313 335.331557,389.172822 334.628188,388.814437 334.069991,388.256240 333.711606,387.552871 333.588116,386.773180 333.711606,385.993489 334.069991,385.290120 334.628188,384.731923 335.331557,384.373539"/>
<polygon style="fill: #0000ff; stroke: #000000; stroke-width: 1.000000; stroke-linejoin: miter; stroke-linecap: butt;  opacity: 0.913923" clip-path="url(#4685744057707115011)" points = "367.686549,334.137781 368.466240,334.261272 369.169609,334.619656 369.727806,335.177853 370.086190,335.881223 370.209681,336.660913 370.086190,337.440604 369.727806,338.143973 369.169609,338.702170 368.466240,339.060555 367.686549,339.184046 366.906858,339.060555 366.203489,338.702170 365.645292,338.143973 365.286907,337.440604 365.163416,336.660913 365.286907,335.881223 365.645292,335.177853 366.203489,334.619656 366.906858,334.261272"/>
<polygon style="fill: #0000ff; stroke: #000000; stroke-width: 1.000000; stroke-linejoin: miter; stroke-linecap: butt;  opacity: 0.790051" clip-path="url(#4685744057707115011)" points = "398.325706,300.474401 399.105397,300.597892 399.808766,300.956276 400.366963,301.514473 400.725347,302.217843 400.848838,302.997533 400.725347,303.777224 400.366963,304.480594 399.808766,305.038791 399.105397,305.397175 398.325706,305.520666 397.546015,305.397175 396.842646,305.038791 396.284449,304.480594 395.926064,303.777224 395.802573,302.997533 395.926064,302.217843 396.284449,301.514473 396.842646,300.956276 397.546015,300.597892"/>
<polygon style="fill: #0000ff; stroke: #000000; stroke-width: 1.000000; stroke-linejoin: miter; stroke-linecap: butt;  opacity: 0.686553" clip-path="url(#4685744057707115011)" points = "428.453784,260.583314 429.233475,260.706805 429.936844,261.065189 430.495041,261.623386 430.853426,262.326756 430.976917,263.106447 430.853426,263.886137 430.495041,264.589507 429.936844,265.147704 429.233475,265.506088 428.453784,265.629579 427.674094,265.506088 426.970724,265.147704 426.412527,264.589507 426.054143,263.886137 425.930652,263.106447 426.054143,262.326756 426.412527,261.623386 426.970724,261.065189 427.674094,260.706805"/>
<polygon style="fill: #0000ff; stroke: #000000; stroke-width: 1.000000; stroke-linejoin: miter; stroke-linecap: butt;  opacity: 0.540947" clip-path="url(#4685744057707115011)" points = "457.223536,239.836946 458.003227,239.960437 458.706596,240.318821 459.264793,240.877018 459.623178,241.580387 459.746668,242.360078 459.623178,243.139769 459.264793,243.843138 458.706596,244.401335 458.003227,244.759720 457.223536,244.883211 456.443845,244.759720 455.740476,244.401335 455.182279,243.843138 454.823894,243.139769 454.700403,242.360078 454.823894,241.580387 455.182279,240.877018 455.740476,240.318821 456.443845,239.960437"/>
<polygon style="fill: #0000ff; stroke: #000000; stroke-width: 1.000000; stroke-linejoin: miter; stroke-linecap: butt;  opacity: 0.399591" clip-path="url(#4685744057707115011)" points = "485.153741,219.695989 485.933432,219.819480 486.636801,220.177865 487.194998,220.736062 487.553383,221.439431 487.676874,222.219122 487.553383,222.998812 487.194998,223.702182 486.636801,224.260379 485.933432,224.618763 485.153741,224.742254 484.374050,224.618763 483.670681,224.260379 483.112484,223.702182 482.754099,222.998812 482.630608,222.219122 482.754099,221.439431 483.112484,220.736062 483.670681,220.177865 484.374050,219.819480"/>
<polygon style="fill: #0000ff; stroke: #000000; stroke-width: 1.000000; stroke-linejoin: miter; stroke-linecap: butt;  opacity: 0.778449" clip-path="url(#4685744057707115011)" points = "80.719346,248.289542 81.499037,248.413033 82.202406,248.771417 82.760603,249.329614 83.118988,250.032983 83.242479,250.812674 83.118988,251.592365 82.760603,252.295734 82.202406,252.853931 81.499037,253.212316 80.719346,253.335807 79.939655,253.212316 79.236286,252.853931 78.678089,252.295734 78.319705,251.592365 78.196214,250.812674 78.319705,250.032983 78.678089,249.329614 79.236286,248.771417 79.939655,248.413033"/>
<polygon style="fill: #0000ff; stroke: #000000; stroke-width: 1.000000; stroke-linejoin: miter; stroke-linecap: butt;  opacity: 0.718932" clip-path="url(#4685744057707115011)" points = "113.307757,190.981801 114.087448,191.105291 114.790818,191.463676 115.349015,192.021873 115.707399,192.725242 115.830890,193.504933 115.707399,194.284624 115.349015,194.987993 114.790818,195.546190 114.087448,195.904575 113.307757,196.028066 112.528067,195.904575 111.824697,195.546190 111.266500,194.987993 110.908116,194.284624 110.784625,193.504933 110.908116,192.725242 111.266500,192.021873 111.824697,191.463676 112.528067,191.105291"/>
<polygon style="fill: #0000ff; stroke: #000000; stroke-width: 1.000000; stroke-linejoin: miter; stroke-linecap: butt;  opacity: 0.614619" clip-path="url(#4685744057707115011)" points = "146.204947,153.463842 146.984638,153.587332 147.688007,153.945717 148.246204,154.503914 148.604589,155.207283 148.728080,155.986974 148.604589,156.766665 148.246204,157.470034 147.688007,158.028231 146.984638,158.386616 146.204947,158.510107 145.425256,158.386616 144.721887,158.028231 144.163690,157.470034 143.805305,156.766665 143.681815,155.986974 143.805305,155.207283 144.163690,154.503914 144.721887,153.945717 145.425256,153.587332"/>
<polygon style="fill: #0000ff; stroke: #000000; stroke-width: 1.000000; stroke-linejoin: miter; stroke-linecap: butt;  opacity: 0.545544" clip-path="url(#4685744057707115011)" points = "178.012137,102.579313 178.791828,102.702803 179.495197,103.061188 180.053394,103.619385 180.411779,104.322754 180.535270,105.102445 180.411779,105.882136 180.053394,106.585505 179.495197,107.143702 178.791828,107.502087 178.012137,107.625578 177.232446,107.502087 176.529077,107.143702 175.970880,106.585505 175.612495,105.882136 175.489004,105.102445 175.612495,104.322754 175.970880,103.619385 176.529077,103.061188 177.232446,102.702803"/>
<polygon style="fill: #0000ff; stroke: #000000; stroke-width: 1.000000; stroke-linejoin: miter; stroke-linecap: butt;  opacity: 0.404055" clip-path="url(#4685744057707115011)" points = "210.031220,84.432571 210.810911,84.556062 211.514281,84.914447 212.072478,85.472644 212.430862,86.176013 212.554353,86.955704 212.430862,87.735395 212.072478,88.438764 211.514281,88.996961 210.810911,89.355345 210.031220,89.478836 209.251530,89.355345 208.548160,88.996961 207.989963,88.438764 207.631579,87.735395 207.508088,86.955704 207.631579,86.176013 207.989963,85.472644 208.548160,84.914447 209.251530,84.556062"/>
<polygon style="fill: #0000ff; stroke: #000000; stroke-width: 1.000000; stroke-linejoin: miter; stroke-linecap: butt;  opacity: 0.301029" clip-path="url(#4685744057707115011)" points = "240.929276,51.517231 241.708967,51.640722 242.412336,51.999107 242.970533,52.557304 243.328917,53.260673 243.452408,54.040364 243.328917,54.820055 242.970533,55.523424 242.412336,56.081621 241.708967,56.440006 240.929276,56.563496 240.149585,56.440006 239.446216,56.081621 238.888019,55.523424 238.529634,54.820055 238.406143,54.040364 238.529634,53.260673 238.888019,52.557304 239.446216,51.999107 240.149585,51.640722"/>
<polygon style="fill: #0000ff; stroke: #000000; stroke-width: 1.000000; stroke-linejoin: miter; stroke-linecap: butt;  opacity: 0.954567" clip-path="url(#4685744057707115011)" points = "308.177746,377.533854 308.957437,377.657345 309.660806,378.015730 310.219003,378.573927 310.577388,379.277296 310.700879,380.056987 310.577388,380.836678 310.219003,381.540047 309.660806,382.098244 308.957437,382.456628 308.177746,382.580119 307.398055,382.456628 306.694686,382.098244 306.136489,381.540047 305.778104,380.836678 305.654614,380.056987 305.778104,379.277296 306.136489,378.573927 306.694686,378.015730 307.398055,377.657345"/>
<polygon style="fill: #0000ff; stroke: #000000; stroke-width: 1.000000; stroke-linejoin: miter; stroke-linecap: butt;  opacity: 0.870381" clip-path="url(#4685744057707115011)" points = "339.853717,327.260160 340.633408,327.383651 341.336777,327.742035 341.894974,328.300232 342.253359,329.003602 342.376850,329.783292 342.253359,330.562983 341.894974,331.266353 341.336777,331.824550 340.633408,332.182934 339.853717,332.306425 339.074026,332.182934 338.370657,331.824550 337.812460,331.266353 337.454075,330.562983 337.330585,329.783292 337.454075,329.003602 337.812460,328.300232 338.370657,327.742035 339.074026,327.383651"/>
<polygon style="fill: #0000ff; stroke: #000000; stroke-width: 1.000000; stroke-linejoin: miter; stroke-linecap: butt;  opacity: 0.761858" clip-path="url(#4685744057707115011)" points = "370.811278,288.109992 371.590969,288.233483 372.294339,288.591868 372.852536,289.150065 373.210920,289.853434 373.334411,290.633125 373.210920,291.412816 372.852536,292.116185 372.294339,292.674382 371.590969,293.032767 370.811278,293.156257 370.031588,293.032767 369.328218,292.674382 368.770021,292.116185 368.411637,291.412816 368.288146,290.633125 368.411637,289.853434 368.770021,289.150065 369.328218,288.591868 370.031588,288.233483"/>
<polygon style="fill: #0000ff; stroke: #000000; stroke-width: 1.000000; stroke-linejoin: miter; stroke-linecap: butt;  opacity: 0.614031" clip-path="url(#4685744057707115011)" points = "400.658001,266.796463 401.437692,266.919954 402.141061,267.278338 402.699258,267.836535 403.057643,268.539904 403.181134,269.319595 403.057643,270.099286 402.699258,270.802655 402.141061,271.360852 401.437692,271.719237 400.658001,271.842728 399.878310,271.719237 399.174941,271.360852 398.616744,270.802655 398.258359,270.099286 398.134868,269.319595 398.258359,268.539904 398.616744,267.836535 399.174941,267.278338 399.878310,266.919954"/>
<polygon style="fill: #0000ff; stroke: #000000; stroke-width: 1.000000; stroke-linejoin: miter; stroke-linecap: butt;  opacity: 0.503697" clip-path="url(#4685744057707115011)" points = "430.088575,232.302250 430.868266,232.425740 431.571635,232.784125 432.129832,233.342322 432.488217,234.045691 432.611708,234.825382 432.488217,235.605073 432.129832,236.308442 431.571635,236.866639 430.868266,237.225024 430.088575,237.348515 429.308884,237.225024 428.605515,236.866639 428.047318,236.308442 427.688933,235.605073 427.565443,234.825382 427.688933,234.045691 428.047318,233.342322 428.605515,232.784125 429.308884,232.425740"/>
<polygon style="fill: #0000ff; stroke: #000000; stroke-width: 1.000000; stroke-linejoin: miter; stroke-linecap: butt;  opacity: 0.363418" clip-path="url(#4685744057707115011)" points = "458.307372,212.347129 459.087062,212.470619 459.790432,212.829004 460.348629,213.387201 460.707013,214.090570 460.830504,214.870261 460.707013,215.649952 460.348629,216.353321 459.790432,216.911518 459.087062,217.269903 458.307372,217.393394 457.527681,217.269903 456.824311,216.911518 456.266114,216.353321 455.907730,215.649952 455.784239,214.870261 455.907730,214.090570 456.266114,213.387201 456.824311,212.829004 457.527681,212.470619"/>
</g>
<g id="matplotlib.axis1">
</g>
<g id="matplotlib.axis2">
</g>
</g>
</g>
</svg>
