<?xml version="1.0" standalone="no"?>
<!DOCTYPE svg PUBLIC "-//W3C//DTD SVG 1.1//EN"
  "http://www.w3.org/Graphics/SVG/1.1/DTD/svg11.dtd">
<!-- Created with matplotlib (http://matplotlib.sourceforge.net/) -->
<svg width="576" height="432" viewBox="0 0 576 432"
   xmlns="http://www.w3.org/2000/svg"
   xmlns:xlink="http://www.w3.org/1999/xlink"
   version="1.1"
   id="svg1">
<g id="figure1">
<polygon style="fill: #ffffff; stroke: #ffffff; stroke-width: 1.000000; stroke-linejoin: miter; stroke-linecap: square;  opacity: 1.000000"  points = "0.000000,432.000000 0.000000,0.000000 576.000000,0.000000 576.000000,432.000000"/>
<polygon style="fill: #ffffff; opacity: 1.000000"  points = "0.000000,432.000000 0.000000,0.000000 576.000000,0.000000 576.000000,432.000000"/>
<g id="axis3d1">
<polygon style="fill: #f2f2f2; stroke: #f2f2f2; stroke-width: 1.000000; stroke-linejoin: miter; stroke-linecap: square;  opacity: 0.100000"  points = "241.211914,230.626613 508.260241,289.840834 519.433224,81.348607 238.467267,28.237352"/>
<path style="fill: none; stroke: #000000; stroke-width: 0.750000; stroke-linejoin: miter; stroke-linecap: square;  opacity: 1.000000"  d="M 76.357701,336.543225 L 357.328625,405.507833 "/>
<text style="font-size: 12.000000; font-family: Bitstream Vera Sans; font-style: Roman; fill: #000000;" x="141.598101" y="383.874575" transform="translate(141.598101,383.874575) rotate(-341.9) translate(-141.598101,-383.874575)">min_call_probability</text>
<g id="linecollection1">
<path style="fill: none; stroke: #e6e6e6; stroke-width: 1.000000; stroke-linejoin: miter; stroke-linecap: butt;  opacity: 1.000000"  d="M 81.730847,337.862069 L 246.335639,231.762727 L 243.846516,29.254197 "/>
<path style="fill: none; stroke: #e6e6e6; stroke-width: 1.000000; stroke-linejoin: miter; stroke-linecap: butt;  opacity: 1.000000"  d="M 125.064523,348.498365 L 287.633711,240.919995 L 287.220571,37.453235 "/>
<path style="fill: none; stroke: #e6e6e6; stroke-width: 1.000000; stroke-linejoin: miter; stroke-linecap: butt;  opacity: 1.000000"  d="M 169.027317,359.289079 L 329.487668,250.200523 L 331.208258,45.768268 "/>
<path style="fill: none; stroke: #e6e6e6; stroke-width: 1.000000; stroke-linejoin: miter; stroke-linecap: butt;  opacity: 1.000000"  d="M 213.633031,370.237599 L 371.908809,259.606816 L 375.822692,54.201775 "/>
<path style="fill: none; stroke: #e6e6e6; stroke-width: 1.000000; stroke-linejoin: miter; stroke-linecap: butt;  opacity: 1.000000"  d="M 258.895872,381.347411 L 414.908741,269.141448 L 421.077363,62.756308 "/>
<path style="fill: none; stroke: #e6e6e6; stroke-width: 1.000000; stroke-linejoin: miter; stroke-linecap: butt;  opacity: 1.000000"  d="M 304.830469,392.622106 L 458.499392,278.807063 L 466.986154,71.434489 "/>
<path style="fill: none; stroke: #e6e6e6; stroke-width: 1.000000; stroke-linejoin: miter; stroke-linecap: butt;  opacity: 1.000000"  d="M 351.451887,404.065382 L 502.693018,288.606380 L 513.563349,80.239019 "/>
</g>
<g id="xtick1">
<text style="font-size: 12.000000; font-family: Bitstream Vera Sans; font-style: Roman; fill: #000000;" x="74.730847" y="342.362069" >70</text>
<path style="fill: none; stroke: #000000; stroke-width: 1.000000; stroke-linejoin: miter; stroke-linecap: square;  opacity: 1.000000"  d="M 81.730847,337.862069 L 79.242567,345.465257 "/>
</g>
<g id="xtick2">
<text style="font-size: 12.000000; font-family: Bitstream Vera Sans; font-style: Roman; fill: #000000;" x="118.064523" y="352.998365" >75</text>
<path style="fill: none; stroke: #000000; stroke-width: 1.000000; stroke-linejoin: miter; stroke-linecap: square;  opacity: 1.000000"  d="M 125.064523,348.498365 L 122.576242,356.101553 "/>
</g>
<g id="xtick3">
<text style="font-size: 12.000000; font-family: Bitstream Vera Sans; font-style: Roman; fill: #000000;" x="162.027317" y="363.789079" >80</text>
<path style="fill: none; stroke: #000000; stroke-width: 1.000000; stroke-linejoin: miter; stroke-linecap: square;  opacity: 1.000000"  d="M 169.027317,359.289079 L 166.539037,366.892267 "/>
</g>
<g id="xtick4">
<text style="font-size: 12.000000; font-family: Bitstream Vera Sans; font-style: Roman; fill: #000000;" x="206.633031" y="374.737599" >85</text>
<path style="fill: none; stroke: #000000; stroke-width: 1.000000; stroke-linejoin: miter; stroke-linecap: square;  opacity: 1.000000"  d="M 213.633031,370.237599 L 211.144751,377.840786 "/>
</g>
<g id="xtick5">
<text style="font-size: 12.000000; font-family: Bitstream Vera Sans; font-style: Roman; fill: #000000;" x="251.895872" y="385.847411" >90</text>
<path style="fill: none; stroke: #000000; stroke-width: 1.000000; stroke-linejoin: miter; stroke-linecap: square;  opacity: 1.000000"  d="M 258.895872,381.347411 L 256.407592,388.950598 "/>
</g>
<g id="xtick6">
<text style="font-size: 12.000000; font-family: Bitstream Vera Sans; font-style: Roman; fill: #000000;" x="297.830469" y="397.122106" >95</text>
<path style="fill: none; stroke: #000000; stroke-width: 1.000000; stroke-linejoin: miter; stroke-linecap: square;  opacity: 1.000000"  d="M 304.830469,392.622106 L 302.342189,400.225293 "/>
</g>
<g id="xtick7">
<text style="font-size: 12.000000; font-family: Bitstream Vera Sans; font-style: Roman; fill: #000000;" x="340.451887" y="408.565382" >100</text>
<path style="fill: none; stroke: #000000; stroke-width: 1.000000; stroke-linejoin: miter; stroke-linecap: square;  opacity: 1.000000"  d="M 351.451887,404.065382 L 348.963607,411.668569 "/>
</g>
</g>
<g id="axis3d2">
<polygon style="fill: #e6e6e6; stroke: #e6e6e6; stroke-width: 1.000000; stroke-linejoin: miter; stroke-linecap: square;  opacity: 0.500000"  points = "76.357701,336.543225 241.211914,230.626613 238.467267,28.237352 64.421350,123.401250"/>
<path style="fill: none; stroke: #000000; stroke-width: 0.750000; stroke-linejoin: miter; stroke-linecap: square;  opacity: 1.000000"  d="M 357.328625,405.507833 L 508.260241,289.840834 "/>
<text style="font-size: 12.000000; font-family: Bitstream Vera Sans; font-style: Roman; fill: #000000;" x="410.920465" y="424.411092" transform="translate(410.920465,424.411092) rotate(-45.6) translate(-410.920465,-424.411092)">max_call_mismatch_rate</text>
<g id="linecollection2">
<path style="fill: none; stroke: #e6e6e6; stroke-width: 1.000000; stroke-linejoin: miter; stroke-linecap: butt;  opacity: 1.000000"  d="M 360.586508,403.011142 L 79.904448,334.264487 L 68.180167,121.346024 "/>
<path style="fill: none; stroke: #e6e6e6; stroke-width: 1.000000; stroke-linejoin: miter; stroke-linecap: butt;  opacity: 1.000000"  d="M 391.334149,379.447575 L 113.403632,312.741713 L 103.651211,101.951356 "/>
<path style="fill: none; stroke: #e6e6e6; stroke-width: 1.000000; stroke-linejoin: miter; stroke-linecap: butt;  opacity: 1.000000"  d="M 421.155645,356.593762 L 145.937509,291.839135 L 138.046299,83.144993 "/>
<path style="fill: none; stroke: #e6e6e6; stroke-width: 1.000000; stroke-linejoin: miter; stroke-linecap: butt;  opacity: 1.000000"  d="M 450.092220,334.418111 L 177.547210,271.530328 L 171.413658,64.900567 "/>
<path style="fill: none; stroke: #e6e6e6; stroke-width: 1.000000; stroke-linejoin: miter; stroke-linecap: butt;  opacity: 1.000000"  d="M 478.182688,312.890878 L 208.271564,251.790344 L 203.798671,47.193262 "/>
<path style="fill: none; stroke: #e6e6e6; stroke-width: 1.000000; stroke-linejoin: miter; stroke-linecap: butt;  opacity: 1.000000"  d="M 505.463623,291.984033 L 238.147253,232.595617 L 235.244090,29.999704 "/>
</g>
<g id="xtick8">
<text style="font-size: 12.000000; font-family: Bitstream Vera Sans; font-style: Roman; fill: #000000;" x="347.586508" y="407.511142" >0.05</text>
<path style="fill: none; stroke: #000000; stroke-width: 1.000000; stroke-linejoin: miter; stroke-linecap: square;  opacity: 1.000000"  d="M 360.586508,403.011142 L 366.304039,408.606662 "/>
</g>
<g id="xtick9">
<text style="font-size: 12.000000; font-family: Bitstream Vera Sans; font-style: Roman; fill: #000000;" x="378.334149" y="383.947575" >0.10</text>
<path style="fill: none; stroke: #000000; stroke-width: 1.000000; stroke-linejoin: miter; stroke-linecap: square;  opacity: 1.000000"  d="M 391.334149,379.447575 L 397.051679,385.043095 "/>
</g>
<g id="xtick10">
<text style="font-size: 12.000000; font-family: Bitstream Vera Sans; font-style: Roman; fill: #000000;" x="408.155645" y="361.093762" >0.15</text>
<path style="fill: none; stroke: #000000; stroke-width: 1.000000; stroke-linejoin: miter; stroke-linecap: square;  opacity: 1.000000"  d="M 421.155645,356.593762 L 426.873175,362.189282 "/>
</g>
<g id="xtick11">
<text style="font-size: 12.000000; font-family: Bitstream Vera Sans; font-style: Roman; fill: #000000;" x="437.092220" y="338.918111" >0.20</text>
<path style="fill: none; stroke: #000000; stroke-width: 1.000000; stroke-linejoin: miter; stroke-linecap: square;  opacity: 1.000000"  d="M 450.092220,334.418111 L 455.809750,340.013631 "/>
</g>
<g id="xtick12">
<text style="font-size: 12.000000; font-family: Bitstream Vera Sans; font-style: Roman; fill: #000000;" x="465.182688" y="317.390878" >0.25</text>
<path style="fill: none; stroke: #000000; stroke-width: 1.000000; stroke-linejoin: miter; stroke-linecap: square;  opacity: 1.000000"  d="M 478.182688,312.890878 L 483.900218,318.486398 "/>
</g>
<g id="xtick13">
<text style="font-size: 12.000000; font-family: Bitstream Vera Sans; font-style: Roman; fill: #000000;" x="492.463623" y="296.484033" >0.30</text>
<path style="fill: none; stroke: #000000; stroke-width: 1.000000; stroke-linejoin: miter; stroke-linecap: square;  opacity: 1.000000"  d="M 505.463623,291.984033 L 511.181153,297.579553 "/>
</g>
</g>
<g id="axis3d3">
<polygon style="fill: #f2f2f2; stroke: #f2f2f2; stroke-width: 1.000000; stroke-linejoin: miter; stroke-linecap: square;  opacity: 0.100000"  points = "76.357701,336.543225 357.328625,405.507833 508.260241,289.840834 241.211914,230.626613"/>
<path style="fill: none; stroke: #000000; stroke-width: 0.750000; stroke-linejoin: miter; stroke-linecap: square;  opacity: 1.000000"  d="M 76.357701,336.543225 L 64.421350,123.401250 "/>
<text style="font-size: 12.000000; font-family: Bitstream Vera Sans; font-style: Roman; fill: #000000;" x="45.420044" y="358.105689" transform="translate(45.420044,358.105689) rotate(-92.4) translate(-45.420044,-358.105689)">no_of_accessions_filtered_by_mismatch</text>
<g id="linecollection3">
<path style="fill: none; stroke: #e6e6e6; stroke-width: 1.000000; stroke-linejoin: miter; stroke-linecap: butt;  opacity: 1.000000"  d="M 76.131056,332.496136 L 241.159600,226.768965 L 508.472750,285.875342 "/>
<path style="fill: none; stroke: #e6e6e6; stroke-width: 1.000000; stroke-linejoin: miter; stroke-linecap: butt;  opacity: 1.000000"  d="M 74.564219,304.517842 L 240.798152,200.115958 L 509.941481,258.468243 "/>
<path style="fill: none; stroke: #e6e6e6; stroke-width: 1.000000; stroke-linejoin: miter; stroke-linecap: butt;  opacity: 1.000000"  d="M 72.974868,276.137529 L 240.431889,173.107876 L 511.430638,230.679990 "/>
<path style="fill: none; stroke: #e6e6e6; stroke-width: 1.000000; stroke-linejoin: miter; stroke-linecap: butt;  opacity: 1.000000"  d="M 71.362515,247.346469 L 240.060714,145.737577 L 512.940650,202.502577 "/>
<path style="fill: none; stroke: #e6e6e6; stroke-width: 1.000000; stroke-linejoin: miter; stroke-linecap: butt;  opacity: 1.000000"  d="M 69.726656,218.135679 L 239.684528,117.997723 L 514.471958,173.927770 "/>
<path style="fill: none; stroke: #e6e6e6; stroke-width: 1.000000; stroke-linejoin: miter; stroke-linecap: butt;  opacity: 1.000000"  d="M 68.066774,188.495913 L 239.303227,89.880780 L 516.025016,144.947105 "/>
<path style="fill: none; stroke: #e6e6e6; stroke-width: 1.000000; stroke-linejoin: miter; stroke-linecap: butt;  opacity: 1.000000"  d="M 66.382335,158.417653 L 238.916708,61.379006 L 517.600290,115.551871 "/>
<path style="fill: none; stroke: #e6e6e6; stroke-width: 1.000000; stroke-linejoin: miter; stroke-linecap: butt;  opacity: 1.000000"  d="M 64.672790,127.891094 L 238.524862,32.484445 L 519.198260,85.733110 "/>
</g>
<g id="xtick14">
<text style="font-size: 12.000000; font-family: Bitstream Vera Sans; font-style: Roman; fill: #000000;" x="73.131056" y="336.996136" >0</text>
<path style="fill: none; stroke: #000000; stroke-width: 1.000000; stroke-linejoin: miter; stroke-linecap: square;  opacity: 1.000000"  d="M 76.131056,332.496136 L 68.138103,332.831851 "/>
</g>
<g id="xtick15">
<text style="font-size: 12.000000; font-family: Bitstream Vera Sans; font-style: Roman; fill: #000000;" x="67.564219" y="309.017842" >20</text>
<path style="fill: none; stroke: #000000; stroke-width: 1.000000; stroke-linejoin: miter; stroke-linecap: square;  opacity: 1.000000"  d="M 74.564219,304.517842 L 66.571266,304.853558 "/>
</g>
<g id="xtick16">
<text style="font-size: 12.000000; font-family: Bitstream Vera Sans; font-style: Roman; fill: #000000;" x="65.974868" y="280.637529" >40</text>
<path style="fill: none; stroke: #000000; stroke-width: 1.000000; stroke-linejoin: miter; stroke-linecap: square;  opacity: 1.000000"  d="M 72.974868,276.137529 L 64.981916,276.473245 "/>
</g>
<g id="xtick17">
<text style="font-size: 12.000000; font-family: Bitstream Vera Sans; font-style: Roman; fill: #000000;" x="64.362515" y="251.846469" >60</text>
<path style="fill: none; stroke: #000000; stroke-width: 1.000000; stroke-linejoin: miter; stroke-linecap: square;  opacity: 1.000000"  d="M 71.362515,247.346469 L 63.369562,247.682184 "/>
</g>
<g id="xtick18">
<text style="font-size: 12.000000; font-family: Bitstream Vera Sans; font-style: Roman; fill: #000000;" x="62.726656" y="222.635679" >80</text>
<path style="fill: none; stroke: #000000; stroke-width: 1.000000; stroke-linejoin: miter; stroke-linecap: square;  opacity: 1.000000"  d="M 69.726656,218.135679 L 61.733703,218.471394 "/>
</g>
<g id="xtick19">
<text style="font-size: 12.000000; font-family: Bitstream Vera Sans; font-style: Roman; fill: #000000;" x="57.066774" y="192.995913" >100</text>
<path style="fill: none; stroke: #000000; stroke-width: 1.000000; stroke-linejoin: miter; stroke-linecap: square;  opacity: 1.000000"  d="M 68.066774,188.495913 L 60.073821,188.831629 "/>
</g>
<g id="xtick20">
<text style="font-size: 12.000000; font-family: Bitstream Vera Sans; font-style: Roman; fill: #000000;" x="55.382335" y="162.917653" >120</text>
<path style="fill: none; stroke: #000000; stroke-width: 1.000000; stroke-linejoin: miter; stroke-linecap: square;  opacity: 1.000000"  d="M 66.382335,158.417653 L 58.389382,158.753368 "/>
</g>
<g id="xtick21">
<text style="font-size: 12.000000; font-family: Bitstream Vera Sans; font-style: Roman; fill: #000000;" x="53.672790" y="132.391094" >140</text>
<path style="fill: none; stroke: #000000; stroke-width: 1.000000; stroke-linejoin: miter; stroke-linecap: square;  opacity: 1.000000"  d="M 64.672790,127.891094 L 56.679837,128.226810 "/>
</g>
</g>
<g id="axes1">
<g id="regpolycollection1">
<defs>
    <clipPath id="4685744057707115011">
    <rect x="0.000000" y="0.000000" width="576.000000" height="432.000000"
    style="stroke: gray; fill: none;"/>
    </clipPath>
</defs>
<polygon style="fill: #0000ff; stroke: #000000; stroke-width: 1.000000; stroke-linejoin: miter; stroke-linecap: butt;  opacity: 0.584641" clip-path="url(#4685744057707115011)" points = "148.840930,225.694856 149.620621,225.818347 150.323990,226.176731 150.882187,226.734928 151.240572,227.438298 151.364063,228.217989 151.240572,228.997679 150.882187,229.701049 150.323990,230.259246 149.620621,230.617630 148.840930,230.741121 148.061240,230.617630 147.357870,230.259246 146.799673,229.701049 146.441289,228.997679 146.317798,228.217989 146.441289,227.438298 146.799673,226.734928 147.357870,226.176731 148.061240,225.818347"/>
<polygon style="fill: #0000ff; stroke: #000000; stroke-width: 1.000000; stroke-linejoin: miter; stroke-linecap: butt;  opacity: 0.937259" clip-path="url(#4685744057707115011)" points = "121.235125,172.353681 122.014815,172.477172 122.718185,172.835557 123.276382,173.393754 123.634766,174.097123 123.758257,174.876814 123.634766,175.656505 123.276382,176.359874 122.718185,176.918071 122.014815,177.276455 121.235125,177.399946 120.455434,177.276455 119.752064,176.918071 119.193867,176.359874 118.835483,175.656505 118.711992,174.876814 118.835483,174.097123 119.193867,173.393754 119.752064,172.835557 120.455434,172.477172"/>
<polygon style="fill: #0000ff; stroke: #000000; stroke-width: 1.000000; stroke-linejoin: miter; stroke-linecap: butt;  opacity: 0.740559" clip-path="url(#4685744057707115011)" points = "158.486492,230.187243 159.266183,230.310734 159.969553,230.669119 160.527750,231.227316 160.886134,231.930685 161.009625,232.710376 160.886134,233.490067 160.527750,234.193436 159.969553,234.751633 159.266183,235.110017 158.486492,235.233508 157.706802,235.110017 157.003432,234.751633 156.445235,234.193436 156.086851,233.490067 155.963360,232.710376 156.086851,231.930685 156.445235,231.227316 157.003432,230.669119 157.706802,230.310734"/>
<polygon style="fill: #0000ff; stroke: #000000; stroke-width: 1.000000; stroke-linejoin: miter; stroke-linecap: butt;  opacity: 0.617351" clip-path="url(#4685744057707115011)" points = "192.129106,239.628099 192.908796,239.751590 193.612166,240.109975 194.170363,240.668172 194.528747,241.371541 194.652238,242.151232 194.528747,242.930923 194.170363,243.634292 193.612166,244.192489 192.908796,244.550873 192.129106,244.674364 191.349415,244.550873 190.646046,244.192489 190.087849,243.634292 189.729464,242.930923 189.605973,242.151232 189.729464,241.371541 190.087849,240.668172 190.646046,240.109975 191.349415,239.751590"/>
<polygon style="fill: #0000ff; stroke: #000000; stroke-width: 1.000000; stroke-linejoin: miter; stroke-linecap: butt;  opacity: 0.508644" clip-path="url(#4685744057707115011)" points = "224.192787,241.772934 224.972478,241.896425 225.675847,242.254810 226.234044,242.813007 226.592429,243.516376 226.715920,244.296067 226.592429,245.075758 226.234044,245.779127 225.675847,246.337324 224.972478,246.695708 224.192787,246.819199 223.413096,246.695708 222.709727,246.337324 222.151530,245.779127 221.793146,245.075758 221.669655,244.296067 221.793146,243.516376 222.151530,242.813007 222.709727,242.254810 223.413096,241.896425"/>
<polygon style="fill: #0000ff; stroke: #000000; stroke-width: 1.000000; stroke-linejoin: miter; stroke-linecap: butt;  opacity: 0.414806" clip-path="url(#4685744057707115011)" points = "254.919080,235.704395 255.698771,235.827886 256.402140,236.186271 256.960337,236.744468 257.318721,237.447837 257.442212,238.227528 257.318721,239.007219 256.960337,239.710588 256.402140,240.268785 255.698771,240.627169 254.919080,240.750660 254.139389,240.627169 253.436020,240.268785 252.877823,239.710588 252.519438,239.007219 252.395947,238.227528 252.519438,237.447837 252.877823,236.744468 253.436020,236.186271 254.139389,235.827886"/>
<polygon style="fill: #0000ff; stroke: #000000; stroke-width: 1.000000; stroke-linejoin: miter; stroke-linecap: butt;  opacity: 0.334504" clip-path="url(#4685744057707115011)" points = "284.561512,221.812593 285.341203,221.936083 286.044572,222.294468 286.602769,222.852665 286.961154,223.556034 287.084645,224.335725 286.961154,225.115416 286.602769,225.818785 286.044572,226.376982 285.341203,226.735367 284.561512,226.858858 283.781822,226.735367 283.078452,226.376982 282.520255,225.818785 282.161871,225.115416 282.038380,224.335725 282.161871,223.556034 282.520255,222.852665 283.078452,222.294468 283.781822,221.936083"/>
<polygon style="fill: #0000ff; stroke: #000000; stroke-width: 1.000000; stroke-linejoin: miter; stroke-linecap: butt;  opacity: 0.652395" clip-path="url(#4685744057707115011)" points = "235.922323,252.317920 236.702014,252.441411 237.405383,252.799795 237.963580,253.357992 238.321965,254.061361 238.445456,254.841052 238.321965,255.620743 237.963580,256.324112 237.405383,256.882309 236.702014,257.240694 235.922323,257.364185 235.142633,257.240694 234.439263,256.882309 233.881066,256.324112 233.522682,255.620743 233.399191,254.841052 233.522682,254.061361 233.881066,253.357992 234.439263,252.799795 235.142633,252.441411"/>
<polygon style="fill: #0000ff; stroke: #000000; stroke-width: 1.000000; stroke-linejoin: miter; stroke-linecap: butt;  opacity: 0.717896" clip-path="url(#4685744057707115011)" points = "325.189596,282.456520 325.969287,282.580011 326.672656,282.938396 327.230853,283.496593 327.589237,284.199962 327.712728,284.979653 327.589237,285.759344 327.230853,286.462713 326.672656,287.020910 325.969287,287.379294 325.189596,287.502785 324.409905,287.379294 323.706536,287.020910 323.148339,286.462713 322.789954,285.759344 322.666463,284.979653 322.789954,284.199962 323.148339,283.496593 323.706536,282.938396 324.409905,282.580011"/>
<polygon style="fill: #0000ff; stroke: #000000; stroke-width: 1.000000; stroke-linejoin: miter; stroke-linecap: butt;  opacity: 0.988344" clip-path="url(#4685744057707115011)" points = "261.242369,258.804125 262.022059,258.927616 262.725429,259.286001 263.283626,259.844198 263.642010,260.547567 263.765501,261.327258 263.642010,262.106949 263.283626,262.810318 262.725429,263.368515 262.022059,263.726900 261.242369,263.850390 260.462678,263.726900 259.759308,263.368515 259.201111,262.810318 258.842727,262.106949 258.719236,261.327258 258.842727,260.547567 259.201111,259.844198 259.759308,259.286001 260.462678,258.927616"/>
<polygon style="fill: #0000ff; stroke: #000000; stroke-width: 1.000000; stroke-linejoin: miter; stroke-linecap: butt;  opacity: 0.835385" clip-path="url(#4685744057707115011)" points = "293.981378,281.087402 294.761068,281.210893 295.464438,281.569277 296.022635,282.127474 296.381019,282.830844 296.504510,283.610535 296.381019,284.390225 296.022635,285.093595 295.464438,285.651792 294.761068,286.010176 293.981378,286.133667 293.201687,286.010176 292.498318,285.651792 291.940120,285.093595 291.581736,284.390225 291.458245,283.610535 291.581736,282.830844 291.940120,282.127474 292.498318,281.569277 293.201687,281.210893"/>
<polygon style="fill: #0000ff; stroke: #000000; stroke-width: 1.000000; stroke-linejoin: miter; stroke-linecap: butt;  opacity: 0.717896" clip-path="url(#4685744057707115011)" points = "325.189596,282.456520 325.969287,282.580011 326.672656,282.938396 327.230853,283.496593 327.589237,284.199962 327.712728,284.979653 327.589237,285.759344 327.230853,286.462713 326.672656,287.020910 325.969287,287.379294 325.189596,287.502785 324.409905,287.379294 323.706536,287.020910 323.148339,286.462713 322.789954,285.759344 322.666463,284.979653 322.789954,284.199962 323.148339,283.496593 323.706536,282.938396 324.409905,282.580011"/>
<polygon style="fill: #0000ff; stroke: #000000; stroke-width: 1.000000; stroke-linejoin: miter; stroke-linecap: butt;  opacity: 0.616628" clip-path="url(#4685744057707115011)" points = "355.254709,275.411852 356.034400,275.535343 356.737769,275.893727 357.295966,276.451924 357.654351,277.155294 357.777841,277.934984 357.654351,278.714675 357.295966,279.418044 356.737769,279.976241 356.034400,280.334626 355.254709,280.458117 354.475018,280.334626 353.771649,279.976241 353.213452,279.418044 352.855067,278.714675 352.731576,277.934984 352.855067,277.155294 353.213452,276.451924 353.771649,275.893727 354.475018,275.535343"/>
<polygon style="fill: #0000ff; stroke: #000000; stroke-width: 1.000000; stroke-linejoin: miter; stroke-linecap: butt;  opacity: 0.520835" clip-path="url(#4685744057707115011)" points = "384.272425,267.246000 385.052115,267.369491 385.755485,267.727876 386.313682,268.286073 386.672066,268.989442 386.795557,269.769133 386.672066,270.548823 386.313682,271.252193 385.755485,271.810390 385.052115,272.168774 384.272425,272.292265 383.492734,272.168774 382.789364,271.810390 382.231167,271.252193 381.872783,270.548823 381.749292,269.769133 381.872783,268.989442 382.231167,268.286073 382.789364,267.727876 383.492734,267.369491"/>
<polygon style="fill: #0000ff; stroke: #000000; stroke-width: 1.000000; stroke-linejoin: miter; stroke-linecap: butt;  opacity: 0.437279" clip-path="url(#4685744057707115011)" points = "412.484831,252.585211 413.264521,252.708701 413.967891,253.067086 414.526088,253.625283 414.884472,254.328652 415.007963,255.108343 414.884472,255.888034 414.526088,256.591403 413.967891,257.149600 413.264521,257.507985 412.484831,257.631476 411.705140,257.507985 411.001771,257.149600 410.443574,256.591403 410.085189,255.888034 409.961698,255.108343 410.085189,254.328652 410.443574,253.625283 411.001771,253.067086 411.705140,252.708701"/>
<polygon style="fill: #0000ff; stroke: #000000; stroke-width: 1.000000; stroke-linejoin: miter; stroke-linecap: butt;  opacity: 0.752241" clip-path="url(#4685744057707115011)" points = "370.641389,297.086171 371.421080,297.209662 372.124449,297.568047 372.682646,298.126244 373.041030,298.829613 373.164521,299.609304 373.041030,300.388995 372.682646,301.092364 372.124449,301.650561 371.421080,302.008945 370.641389,302.132436 369.861698,302.008945 369.158329,301.650561 368.600132,301.092364 368.241747,300.388995 368.118256,299.609304 368.241747,298.829613 368.600132,298.126244 369.158329,297.568047 369.861698,297.209662"/>
<polygon style="fill: #0000ff; stroke: #000000; stroke-width: 1.000000; stroke-linejoin: miter; stroke-linecap: butt;  opacity: 0.990979" clip-path="url(#4685744057707115011)" points = "308.432545,297.876928 309.212236,298.000418 309.915605,298.358803 310.473802,298.917000 310.832187,299.620369 310.955678,300.400060 310.832187,301.179751 310.473802,301.883120 309.915605,302.441317 309.212236,302.799702 308.432545,302.923193 307.652855,302.799702 306.949485,302.441317 306.391288,301.883120 306.032904,301.179751 305.909413,300.400060 306.032904,299.620369 306.391288,298.917000 306.949485,298.358803 307.652855,298.000418"/>
<polygon style="fill: #0000ff; stroke: #000000; stroke-width: 1.000000; stroke-linejoin: miter; stroke-linecap: butt;  opacity: 0.864928" clip-path="url(#4685744057707115011)" points = "340.155573,300.376274 340.935264,300.499765 341.638633,300.858149 342.196830,301.416346 342.555215,302.119715 342.678706,302.899406 342.555215,303.679097 342.196830,304.382466 341.638633,304.940663 340.935264,305.299048 340.155573,305.422539 339.375882,305.299048 338.672513,304.940663 338.114316,304.382466 337.755932,303.679097 337.632441,302.899406 337.755932,302.119715 338.114316,301.416346 338.672513,300.858149 339.375882,300.499765"/>
<polygon style="fill: #0000ff; stroke: #000000; stroke-width: 1.000000; stroke-linejoin: miter; stroke-linecap: butt;  opacity: 0.752241" clip-path="url(#4685744057707115011)" points = "370.641389,297.086171 371.421080,297.209662 372.124449,297.568047 372.682646,298.126244 373.041030,298.829613 373.164521,299.609304 373.041030,300.388995 372.682646,301.092364 372.124449,301.650561 371.421080,302.008945 370.641389,302.132436 369.861698,302.008945 369.158329,301.650561 368.600132,301.092364 368.241747,300.388995 368.118256,299.609304 368.241747,298.829613 368.600132,298.126244 369.158329,297.568047 369.861698,297.209662"/>
<polygon style="fill: #0000ff; stroke: #000000; stroke-width: 1.000000; stroke-linejoin: miter; stroke-linecap: butt;  opacity: 0.643927" clip-path="url(#4685744057707115011)" points = "399.944160,293.923746 400.723851,294.047237 401.427220,294.405621 401.985417,294.963818 402.343802,295.667187 402.467293,296.446878 402.343802,297.226569 401.985417,297.929938 401.427220,298.488135 400.723851,298.846520 399.944160,298.970011 399.164469,298.846520 398.461100,298.488135 397.902903,297.929938 397.544518,297.226569 397.421028,296.446878 397.544518,295.667187 397.902903,294.963818 398.461100,294.405621 399.164469,294.047237"/>
<polygon style="fill: #0000ff; stroke: #000000; stroke-width: 1.000000; stroke-linejoin: miter; stroke-linecap: butt;  opacity: 0.556514" clip-path="url(#4685744057707115011)" points = "428.544943,278.505066 429.324634,278.628557 430.028003,278.986942 430.586200,279.545139 430.944585,280.248508 431.068076,281.028199 430.944585,281.807890 430.586200,282.511259 430.028003,283.069456 429.324634,283.427840 428.544943,283.551331 427.765253,283.427840 427.061883,283.069456 426.503686,282.511259 426.145302,281.807890 426.021811,281.028199 426.145302,280.248508 426.503686,279.545139 427.061883,278.986942 427.765253,278.628557"/>
<polygon style="fill: #0000ff; stroke: #000000; stroke-width: 1.000000; stroke-linejoin: miter; stroke-linecap: butt;  opacity: 0.473660" clip-path="url(#4685744057707115011)" points = "456.301482,262.207723 457.081173,262.331214 457.784542,262.689598 458.342739,263.247795 458.701124,263.951165 458.824614,264.730855 458.701124,265.510546 458.342739,266.213915 457.784542,266.772112 457.081173,267.130497 456.301482,267.253988 455.521791,267.130497 454.818422,266.772112 454.260225,266.213915 453.901840,265.510546 453.778349,264.730855 453.901840,263.951165 454.260225,263.247795 454.818422,262.689598 455.521791,262.331214"/>
<polygon style="fill: #0000ff; stroke: #000000; stroke-width: 1.000000; stroke-linejoin: miter; stroke-linecap: butt;  opacity: 0.995532" clip-path="url(#4685744057707115011)" points = "327.339532,311.149935 328.119222,311.273426 328.822592,311.631811 329.380789,312.190008 329.739173,312.893377 329.862664,313.673068 329.739173,314.452759 329.380789,315.156128 328.822592,315.714325 328.119222,316.072709 327.339532,316.196200 326.559841,316.072709 325.856471,315.714325 325.298274,315.156128 324.939890,314.452759 324.816399,313.673068 324.939890,312.893377 325.298274,312.190008 325.856471,311.631811 326.559841,311.273426"/>
<polygon style="fill: #0000ff; stroke: #000000; stroke-width: 1.000000; stroke-linejoin: miter; stroke-linecap: butt;  opacity: 0.875572" clip-path="url(#4685744057707115011)" points = "358.746472,309.018439 359.526163,309.141930 360.229532,309.500314 360.787729,310.058511 361.146114,310.761880 361.269605,311.541571 361.146114,312.321262 360.787729,313.024631 360.229532,313.582828 359.526163,313.941213 358.746472,314.064704 357.966782,313.941213 357.263412,313.582828 356.705215,313.024631 356.346831,312.321262 356.223340,311.541571 356.346831,310.761880 356.705215,310.058511 357.263412,309.500314 357.966782,309.141930"/>
<polygon style="fill: #0000ff; stroke: #000000; stroke-width: 1.000000; stroke-linejoin: miter; stroke-linecap: butt;  opacity: 0.762468" clip-path="url(#4685744057707115011)" points = "388.919604,305.550992 389.699294,305.674483 390.402664,306.032867 390.960861,306.591064 391.319245,307.294433 391.442736,308.074124 391.319245,308.853815 390.960861,309.557184 390.402664,310.115381 389.699294,310.473766 388.919604,310.597257 388.139913,310.473766 387.436544,310.115381 386.878347,309.557184 386.519962,308.853815 386.396471,308.074124 386.519962,307.294433 386.878347,306.591064 387.436544,306.032867 388.139913,305.674483"/>
<polygon style="fill: #0000ff; stroke: #000000; stroke-width: 1.000000; stroke-linejoin: miter; stroke-linecap: butt;  opacity: 0.655699" clip-path="url(#4685744057707115011)" points = "417.962902,300.821849 418.742593,300.945340 419.445962,301.303725 420.004159,301.861922 420.362544,302.565291 420.486034,303.344982 420.362544,304.124673 420.004159,304.828042 419.445962,305.386239 418.742593,305.744624 417.962902,305.868114 417.183211,305.744624 416.479842,305.386239 415.921645,304.828042 415.563260,304.124673 415.439769,303.344982 415.563260,302.565291 415.921645,301.861922 416.479842,301.303725 417.183211,300.945340"/>
<polygon style="fill: #0000ff; stroke: #000000; stroke-width: 1.000000; stroke-linejoin: miter; stroke-linecap: butt;  opacity: 0.571671" clip-path="url(#4685744057707115011)" points = "446.440682,282.498135 447.220373,282.621626 447.923742,282.980011 448.481939,283.538208 448.840324,284.241577 448.963815,285.021268 448.840324,285.800959 448.481939,286.504328 447.923742,287.062525 447.220373,287.420909 446.440682,287.544400 445.660991,287.420909 444.957622,287.062525 444.399425,286.504328 444.041041,285.800959 443.917550,285.021268 444.041041,284.241577 444.399425,283.538208 444.957622,282.980011 445.660991,282.621626"/>
<polygon style="fill: #0000ff; stroke: #000000; stroke-width: 1.000000; stroke-linejoin: miter; stroke-linecap: butt;  opacity: 0.488354" clip-path="url(#4685744057707115011)" points = "473.998093,266.094050 474.777784,266.217541 475.481153,266.575926 476.039350,267.134123 476.397735,267.837492 476.521226,268.617183 476.397735,269.396874 476.039350,270.100243 475.481153,270.658440 474.777784,271.016825 473.998093,271.140316 473.218402,271.016825 472.515033,270.658440 471.956836,270.100243 471.598452,269.396874 471.474961,268.617183 471.598452,267.837492 471.956836,267.134123 472.515033,266.575926 473.218402,266.217541"/>
<polygon style="fill: #0000ff; stroke: #000000; stroke-width: 1.000000; stroke-linejoin: miter; stroke-linecap: butt;  opacity: 0.995532" clip-path="url(#4685744057707115011)" points = "327.339532,311.149935 328.119222,311.273426 328.822592,311.631811 329.380789,312.190008 329.739173,312.893377 329.862664,313.673068 329.739173,314.452759 329.380789,315.156128 328.822592,315.714325 328.119222,316.072709 327.339532,316.196200 326.559841,316.072709 325.856471,315.714325 325.298274,315.156128 324.939890,314.452759 324.816399,313.673068 324.939890,312.893377 325.298274,312.190008 325.856471,311.631811 326.559841,311.273426"/>
<polygon style="fill: #0000ff; stroke: #000000; stroke-width: 1.000000; stroke-linejoin: miter; stroke-linecap: butt;  opacity: 0.875572" clip-path="url(#4685744057707115011)" points = "358.746472,309.018439 359.526163,309.141930 360.229532,309.500314 360.787729,310.058511 361.146114,310.761880 361.269605,311.541571 361.146114,312.321262 360.787729,313.024631 360.229532,313.582828 359.526163,313.941213 358.746472,314.064704 357.966782,313.941213 357.263412,313.582828 356.705215,313.024631 356.346831,312.321262 356.223340,311.541571 356.346831,310.761880 356.705215,310.058511 357.263412,309.500314 357.966782,309.141930"/>
<polygon style="fill: #0000ff; stroke: #000000; stroke-width: 1.000000; stroke-linejoin: miter; stroke-linecap: butt;  opacity: 0.762468" clip-path="url(#4685744057707115011)" points = "388.919604,305.550992 389.699294,305.674483 390.402664,306.032867 390.960861,306.591064 391.319245,307.294433 391.442736,308.074124 391.319245,308.853815 390.960861,309.557184 390.402664,310.115381 389.699294,310.473766 388.919604,310.597257 388.139913,310.473766 387.436544,310.115381 386.878347,309.557184 386.519962,308.853815 386.396471,308.074124 386.519962,307.294433 386.878347,306.591064 387.436544,306.032867 388.139913,305.674483"/>
<polygon style="fill: #0000ff; stroke: #000000; stroke-width: 1.000000; stroke-linejoin: miter; stroke-linecap: butt;  opacity: 0.655699" clip-path="url(#4685744057707115011)" points = "417.962902,300.821849 418.742593,300.945340 419.445962,301.303725 420.004159,301.861922 420.362544,302.565291 420.486034,303.344982 420.362544,304.124673 420.004159,304.828042 419.445962,305.386239 418.742593,305.744624 417.962902,305.868114 417.183211,305.744624 416.479842,305.386239 415.921645,304.828042 415.563260,304.124673 415.439769,303.344982 415.563260,302.565291 415.921645,301.861922 416.479842,301.303725 417.183211,300.945340"/>
<polygon style="fill: #0000ff; stroke: #000000; stroke-width: 1.000000; stroke-linejoin: miter; stroke-linecap: butt;  opacity: 0.571671" clip-path="url(#4685744057707115011)" points = "446.440682,282.498135 447.220373,282.621626 447.923742,282.980011 448.481939,283.538208 448.840324,284.241577 448.963815,285.021268 448.840324,285.800959 448.481939,286.504328 447.923742,287.062525 447.220373,287.420909 446.440682,287.544400 445.660991,287.420909 444.957622,287.062525 444.399425,286.504328 444.041041,285.800959 443.917550,285.021268 444.041041,284.241577 444.399425,283.538208 444.957622,282.980011 445.660991,282.621626"/>
<polygon style="fill: #0000ff; stroke: #000000; stroke-width: 1.000000; stroke-linejoin: miter; stroke-linecap: butt;  opacity: 0.488354" clip-path="url(#4685744057707115011)" points = "473.998093,266.094050 474.777784,266.217541 475.481153,266.575926 476.039350,267.134123 476.397735,267.837492 476.521226,268.617183 476.397735,269.396874 476.039350,270.100243 475.481153,270.658440 474.777784,271.016825 473.998093,271.140316 473.218402,271.016825 472.515033,270.658440 471.956836,270.100243 471.598452,269.396874 471.474961,268.617183 471.598452,267.837492 471.956836,267.134123 472.515033,266.575926 473.218402,266.217541"/>
<polygon style="fill: #0000ff; stroke: #000000; stroke-width: 1.000000; stroke-linejoin: miter; stroke-linecap: butt;  opacity: 1.000000" clip-path="url(#4685744057707115011)" points = "336.819531,316.315935 337.599222,316.439426 338.302591,316.797810 338.860788,317.356007 339.219172,318.059376 339.342663,318.839067 339.219172,319.618758 338.860788,320.322127 338.302591,320.880324 337.599222,321.238709 336.819531,321.362200 336.039840,321.238709 335.336471,320.880324 334.778274,320.322127 334.419889,319.618758 334.296398,318.839067 334.419889,318.059376 334.778274,317.356007 335.336471,316.797810 336.039840,316.439426"/>
<polygon style="fill: #0000ff; stroke: #000000; stroke-width: 1.000000; stroke-linejoin: miter; stroke-linecap: butt;  opacity: 0.877758" clip-path="url(#4685744057707115011)" points = "368.028122,315.525042 368.807812,315.648533 369.511182,316.006917 370.069379,316.565114 370.427763,317.268484 370.551254,318.048175 370.427763,318.827865 370.069379,319.531235 369.511182,320.089432 368.807812,320.447816 368.028122,320.571307 367.248431,320.447816 366.545062,320.089432 365.986865,319.531235 365.628480,318.827865 365.504989,318.048175 365.628480,317.268484 365.986865,316.565114 366.545062,316.006917 367.248431,315.648533"/>
<polygon style="fill: #0000ff; stroke: #000000; stroke-width: 1.000000; stroke-linejoin: miter; stroke-linecap: butt;  opacity: 0.766585" clip-path="url(#4685744057707115011)" points = "398.065399,310.506039 398.845090,310.629530 399.548459,310.987915 400.106656,311.546112 400.465041,312.249481 400.588532,313.029172 400.465041,313.808863 400.106656,314.512232 399.548459,315.070429 398.845090,315.428813 398.065399,315.552304 397.285708,315.428813 396.582339,315.070429 396.024142,314.512232 395.665757,313.808863 395.542267,313.029172 395.665757,312.249481 396.024142,311.546112 396.582339,310.987915 397.285708,310.629530"/>
<polygon style="fill: #0000ff; stroke: #000000; stroke-width: 1.000000; stroke-linejoin: miter; stroke-linecap: butt;  opacity: 0.661604" clip-path="url(#4685744057707115011)" points = "427.001367,304.282039 427.781058,304.405530 428.484427,304.763915 429.042624,305.322112 429.401009,306.025481 429.524500,306.805172 429.401009,307.584863 429.042624,308.288232 428.484427,308.846429 427.781058,309.204814 427.001367,309.328304 426.221676,309.204814 425.518307,308.846429 424.960110,308.288232 424.601725,307.584863 424.478235,306.805172 424.601725,306.025481 424.960110,305.322112 425.518307,304.763915 426.221676,304.405530"/>
<polygon style="fill: #0000ff; stroke: #000000; stroke-width: 1.000000; stroke-linejoin: miter; stroke-linecap: butt;  opacity: 0.579281" clip-path="url(#4685744057707115011)" points = "455.426372,284.503109 456.206063,284.626599 456.909432,284.984984 457.467629,285.543181 457.826014,286.246550 457.949505,287.026241 457.826014,287.805932 457.467629,288.509301 456.909432,289.067498 456.206063,289.425883 455.426372,289.549374 454.646681,289.425883 453.943312,289.067498 453.385115,288.509301 453.026731,287.805932 452.903240,287.026241 453.026731,286.246550 453.385115,285.543181 453.943312,284.984984 454.646681,284.626599"/>
<polygon style="fill: #0000ff; stroke: #000000; stroke-width: 1.000000; stroke-linejoin: miter; stroke-linecap: butt;  opacity: 0.495732" clip-path="url(#4685744057707115011)" points = "482.883221,268.045301 483.662912,268.168792 484.366281,268.527176 484.924478,269.085373 485.282863,269.788742 485.406354,270.568433 485.282863,271.348124 484.924478,272.051493 484.366281,272.609690 483.662912,272.968075 482.883221,273.091566 482.103530,272.968075 481.400161,272.609690 480.841964,272.051493 480.483580,271.348124 480.360089,270.568433 480.483580,269.788742 480.841964,269.085373 481.400161,268.527176 482.103530,268.168792"/>
<polygon style="fill: #0000ff; stroke: #000000; stroke-width: 1.000000; stroke-linejoin: miter; stroke-linecap: butt;  opacity: 0.921851" clip-path="url(#4685744057707115011)" points = "75.056252,142.857931 75.835943,142.981422 76.539312,143.339807 77.097509,143.898004 77.455893,144.601373 77.579384,145.381064 77.455893,146.160755 77.097509,146.864124 76.539312,147.422321 75.835943,147.780705 75.056252,147.904196 74.276561,147.780705 73.573192,147.422321 73.014995,146.864124 72.656610,146.160755 72.533119,145.381064 72.656610,144.601373 73.014995,143.898004 73.573192,143.339807 74.276561,142.981422"/>
<polygon style="fill: #0000ff; stroke: #000000; stroke-width: 1.000000; stroke-linejoin: miter; stroke-linecap: butt;  opacity: 0.712290" clip-path="url(#4685744057707115011)" points = "114.237468,211.673661 115.017159,211.797152 115.720528,212.155537 116.278725,212.713734 116.637110,213.417103 116.760601,214.196794 116.637110,214.976485 116.278725,215.679854 115.720528,216.238051 115.017159,216.596435 114.237468,216.719926 113.457777,216.596435 112.754408,216.238051 112.196211,215.679854 111.837826,214.976485 111.714336,214.196794 111.837826,213.417103 112.196211,212.713734 112.754408,212.155537 113.457777,211.797152"/>
<polygon style="fill: #0000ff; stroke: #000000; stroke-width: 1.000000; stroke-linejoin: miter; stroke-linecap: butt;  opacity: 0.584641" clip-path="url(#4685744057707115011)" points = "148.840930,225.694856 149.620621,225.818347 150.323990,226.176731 150.882187,226.734928 151.240572,227.438298 151.364063,228.217989 151.240572,228.997679 150.882187,229.701049 150.323990,230.259246 149.620621,230.617630 148.840930,230.741121 148.061240,230.617630 147.357870,230.259246 146.799673,229.701049 146.441289,228.997679 146.317798,228.217989 146.441289,227.438298 146.799673,226.734928 147.357870,226.176731 148.061240,225.818347"/>
<polygon style="fill: #0000ff; stroke: #000000; stroke-width: 1.000000; stroke-linejoin: miter; stroke-linecap: butt;  opacity: 0.471782" clip-path="url(#4685744057707115011)" points = "181.691739,232.228484 182.471430,232.351975 183.174799,232.710359 183.732996,233.268556 184.091381,233.971926 184.214872,234.751617 184.091381,235.531307 183.732996,236.234677 183.174799,236.792874 182.471430,237.151258 181.691739,237.274749 180.912048,237.151258 180.208679,236.792874 179.650482,236.234677 179.292098,235.531307 179.168607,234.751617 179.292098,233.971926 179.650482,233.268556 180.208679,232.710359 180.912048,232.351975"/>
<polygon style="fill: #0000ff; stroke: #000000; stroke-width: 1.000000; stroke-linejoin: miter; stroke-linecap: butt;  opacity: 0.380974" clip-path="url(#4685744057707115011)" points = "212.923736,225.015706 213.703426,225.139197 214.406796,225.497581 214.964993,226.055778 215.323377,226.759147 215.446868,227.538838 215.323377,228.318529 214.964993,229.021898 214.406796,229.580095 213.703426,229.938480 212.923736,230.061971 212.144045,229.938480 211.440675,229.580095 210.882478,229.021898 210.524094,228.318529 210.400603,227.538838 210.524094,226.759147 210.882478,226.055778 211.440675,225.497581 212.144045,225.139197"/>
<polygon style="fill: #0000ff; stroke: #000000; stroke-width: 1.000000; stroke-linejoin: miter; stroke-linecap: butt;  opacity: 0.300000" clip-path="url(#4685744057707115011)" points = "243.034211,212.710743 243.813902,212.834234 244.517271,213.192619 245.075468,213.750816 245.433853,214.454185 245.557344,215.233876 245.433853,216.013566 245.075468,216.716936 244.517271,217.275133 243.813902,217.633517 243.034211,217.757008 242.254520,217.633517 241.551151,217.275133 240.992954,216.716936 240.634570,216.013566 240.511079,215.233876 240.634570,214.454185 240.992954,213.750816 241.551151,213.192619 242.254520,212.834234"/>
<polygon style="fill: #0000ff; stroke: #000000; stroke-width: 1.000000; stroke-linejoin: miter; stroke-linecap: butt;  opacity: 0.990979" clip-path="url(#4685744057707115011)" points = "308.432545,297.876928 309.212236,298.000418 309.915605,298.358803 310.473802,298.917000 310.832187,299.620369 310.955678,300.400060 310.832187,301.179751 310.473802,301.883120 309.915605,302.441317 309.212236,302.799702 308.432545,302.923193 307.652855,302.799702 306.949485,302.441317 306.391288,301.883120 306.032904,301.179751 305.909413,300.400060 306.032904,299.620369 306.391288,298.917000 306.949485,298.358803 307.652855,298.000418"/>
<polygon style="fill: #0000ff; stroke: #000000; stroke-width: 1.000000; stroke-linejoin: miter; stroke-linecap: butt;  opacity: 0.864928" clip-path="url(#4685744057707115011)" points = "340.155573,300.376274 340.935264,300.499765 341.638633,300.858149 342.196830,301.416346 342.555215,302.119715 342.678706,302.899406 342.555215,303.679097 342.196830,304.382466 341.638633,304.940663 340.935264,305.299048 340.155573,305.422539 339.375882,305.299048 338.672513,304.940663 338.114316,304.382466 337.755932,303.679097 337.632441,302.899406 337.755932,302.119715 338.114316,301.416346 338.672513,300.858149 339.375882,300.499765"/>
<polygon style="fill: #0000ff; stroke: #000000; stroke-width: 1.000000; stroke-linejoin: miter; stroke-linecap: butt;  opacity: 0.752241" clip-path="url(#4685744057707115011)" points = "370.641389,297.086171 371.421080,297.209662 372.124449,297.568047 372.682646,298.126244 373.041030,298.829613 373.164521,299.609304 373.041030,300.388995 372.682646,301.092364 372.124449,301.650561 371.421080,302.008945 370.641389,302.132436 369.861698,302.008945 369.158329,301.650561 368.600132,301.092364 368.241747,300.388995 368.118256,299.609304 368.241747,298.829613 368.600132,298.126244 369.158329,297.568047 369.861698,297.209662"/>
<polygon style="fill: #0000ff; stroke: #000000; stroke-width: 1.000000; stroke-linejoin: miter; stroke-linecap: butt;  opacity: 0.643927" clip-path="url(#4685744057707115011)" points = "399.944160,293.923746 400.723851,294.047237 401.427220,294.405621 401.985417,294.963818 402.343802,295.667187 402.467293,296.446878 402.343802,297.226569 401.985417,297.929938 401.427220,298.488135 400.723851,298.846520 399.944160,298.970011 399.164469,298.846520 398.461100,298.488135 397.902903,297.929938 397.544518,297.226569 397.421028,296.446878 397.544518,295.667187 397.902903,294.963818 398.461100,294.405621 399.164469,294.047237"/>
<polygon style="fill: #0000ff; stroke: #000000; stroke-width: 1.000000; stroke-linejoin: miter; stroke-linecap: butt;  opacity: 0.556514" clip-path="url(#4685744057707115011)" points = "428.544943,278.505066 429.324634,278.628557 430.028003,278.986942 430.586200,279.545139 430.944585,280.248508 431.068076,281.028199 430.944585,281.807890 430.586200,282.511259 430.028003,283.069456 429.324634,283.427840 428.544943,283.551331 427.765253,283.427840 427.061883,283.069456 426.503686,282.511259 426.145302,281.807890 426.021811,281.028199 426.145302,280.248508 426.503686,279.545139 427.061883,278.986942 427.765253,278.628557"/>
<polygon style="fill: #0000ff; stroke: #000000; stroke-width: 1.000000; stroke-linejoin: miter; stroke-linecap: butt;  opacity: 0.473660" clip-path="url(#4685744057707115011)" points = "456.301482,262.207723 457.081173,262.331214 457.784542,262.689598 458.342739,263.247795 458.701124,263.951165 458.824614,264.730855 458.701124,265.510546 458.342739,266.213915 457.784542,266.772112 457.081173,267.130497 456.301482,267.253988 455.521791,267.130497 454.818422,266.772112 454.260225,266.213915 453.901840,265.510546 453.778349,264.730855 453.901840,263.951165 454.260225,263.247795 454.818422,262.689598 455.521791,262.331214"/>
</g>
<g id="matplotlib.axis1">
</g>
<g id="matplotlib.axis2">
</g>
</g>
</g>
</svg>
