<?xml version="1.0" standalone="no"?>
<!DOCTYPE svg PUBLIC "-//W3C//DTD SVG 1.1//EN"
  "http://www.w3.org/Graphics/SVG/1.1/DTD/svg11.dtd">
<!-- Created with matplotlib (http://matplotlib.sourceforge.net/) -->
<svg width="576" height="432" viewBox="0 0 576 432"
   xmlns="http://www.w3.org/2000/svg"
   xmlns:xlink="http://www.w3.org/1999/xlink"
   version="1.1"
   id="svg1">
<g id="figure1">
<polygon style="fill: #ffffff; stroke: #ffffff; stroke-width: 1.000000; stroke-linejoin: miter; stroke-linecap: square;  opacity: 1.000000"  points = "0.000000,432.000000 0.000000,0.000000 576.000000,0.000000 576.000000,432.000000"/>
<polygon style="fill: #ffffff; opacity: 1.000000"  points = "0.000000,432.000000 0.000000,0.000000 576.000000,0.000000 576.000000,432.000000"/>
<g id="axis3d1">
<polygon style="fill: #f2f2f2; stroke: #f2f2f2; stroke-width: 1.000000; stroke-linejoin: miter; stroke-linecap: square;  opacity: 0.100000"  points = "241.211914,230.626613 508.260241,289.840834 519.433224,81.348607 238.467267,28.237352"/>
<path style="fill: none; stroke: #000000; stroke-width: 0.750000; stroke-linejoin: miter; stroke-linecap: square;  opacity: 1.000000"  d="M 76.357701,336.543225 L 357.328625,405.507833 "/>
<text style="font-size: 12.000000; font-family: Bitstream Vera Sans; font-style: Roman; fill: #000000;" x="141.598101" y="383.874575" transform="translate(141.598101,383.874575) rotate(-341.9) translate(-141.598101,-383.874575)">min_call_probability</text>
<g id="linecollection1">
<path style="fill: none; stroke: #e6e6e6; stroke-width: 1.000000; stroke-linejoin: miter; stroke-linecap: butt;  opacity: 1.000000"  d="M 81.730847,337.862069 L 246.335639,231.762727 L 243.846516,29.254197 "/>
<path style="fill: none; stroke: #e6e6e6; stroke-width: 1.000000; stroke-linejoin: miter; stroke-linecap: butt;  opacity: 1.000000"  d="M 125.064523,348.498365 L 287.633711,240.919995 L 287.220571,37.453235 "/>
<path style="fill: none; stroke: #e6e6e6; stroke-width: 1.000000; stroke-linejoin: miter; stroke-linecap: butt;  opacity: 1.000000"  d="M 169.027317,359.289079 L 329.487668,250.200523 L 331.208258,45.768268 "/>
<path style="fill: none; stroke: #e6e6e6; stroke-width: 1.000000; stroke-linejoin: miter; stroke-linecap: butt;  opacity: 1.000000"  d="M 213.633031,370.237599 L 371.908809,259.606816 L 375.822692,54.201775 "/>
<path style="fill: none; stroke: #e6e6e6; stroke-width: 1.000000; stroke-linejoin: miter; stroke-linecap: butt;  opacity: 1.000000"  d="M 258.895872,381.347411 L 414.908741,269.141448 L 421.077363,62.756308 "/>
<path style="fill: none; stroke: #e6e6e6; stroke-width: 1.000000; stroke-linejoin: miter; stroke-linecap: butt;  opacity: 1.000000"  d="M 304.830469,392.622106 L 458.499392,278.807063 L 466.986154,71.434489 "/>
<path style="fill: none; stroke: #e6e6e6; stroke-width: 1.000000; stroke-linejoin: miter; stroke-linecap: butt;  opacity: 1.000000"  d="M 351.451887,404.065382 L 502.693018,288.606380 L 513.563349,80.239019 "/>
</g>
<g id="xtick1">
<text style="font-size: 12.000000; font-family: Bitstream Vera Sans; font-style: Roman; fill: #000000;" x="74.730847" y="342.362069" >70</text>
<path style="fill: none; stroke: #000000; stroke-width: 1.000000; stroke-linejoin: miter; stroke-linecap: square;  opacity: 1.000000"  d="M 81.730847,337.862069 L 79.242567,345.465257 "/>
</g>
<g id="xtick2">
<text style="font-size: 12.000000; font-family: Bitstream Vera Sans; font-style: Roman; fill: #000000;" x="118.064523" y="352.998365" >75</text>
<path style="fill: none; stroke: #000000; stroke-width: 1.000000; stroke-linejoin: miter; stroke-linecap: square;  opacity: 1.000000"  d="M 125.064523,348.498365 L 122.576242,356.101553 "/>
</g>
<g id="xtick3">
<text style="font-size: 12.000000; font-family: Bitstream Vera Sans; font-style: Roman; fill: #000000;" x="162.027317" y="363.789079" >80</text>
<path style="fill: none; stroke: #000000; stroke-width: 1.000000; stroke-linejoin: miter; stroke-linecap: square;  opacity: 1.000000"  d="M 169.027317,359.289079 L 166.539037,366.892267 "/>
</g>
<g id="xtick4">
<text style="font-size: 12.000000; font-family: Bitstream Vera Sans; font-style: Roman; fill: #000000;" x="206.633031" y="374.737599" >85</text>
<path style="fill: none; stroke: #000000; stroke-width: 1.000000; stroke-linejoin: miter; stroke-linecap: square;  opacity: 1.000000"  d="M 213.633031,370.237599 L 211.144751,377.840786 "/>
</g>
<g id="xtick5">
<text style="font-size: 12.000000; font-family: Bitstream Vera Sans; font-style: Roman; fill: #000000;" x="251.895872" y="385.847411" >90</text>
<path style="fill: none; stroke: #000000; stroke-width: 1.000000; stroke-linejoin: miter; stroke-linecap: square;  opacity: 1.000000"  d="M 258.895872,381.347411 L 256.407592,388.950598 "/>
</g>
<g id="xtick6">
<text style="font-size: 12.000000; font-family: Bitstream Vera Sans; font-style: Roman; fill: #000000;" x="297.830469" y="397.122106" >95</text>
<path style="fill: none; stroke: #000000; stroke-width: 1.000000; stroke-linejoin: miter; stroke-linecap: square;  opacity: 1.000000"  d="M 304.830469,392.622106 L 302.342189,400.225293 "/>
</g>
<g id="xtick7">
<text style="font-size: 12.000000; font-family: Bitstream Vera Sans; font-style: Roman; fill: #000000;" x="340.451887" y="408.565382" >100</text>
<path style="fill: none; stroke: #000000; stroke-width: 1.000000; stroke-linejoin: miter; stroke-linecap: square;  opacity: 1.000000"  d="M 351.451887,404.065382 L 348.963607,411.668569 "/>
</g>
</g>
<g id="axis3d2">
<polygon style="fill: #e6e6e6; stroke: #e6e6e6; stroke-width: 1.000000; stroke-linejoin: miter; stroke-linecap: square;  opacity: 0.500000"  points = "76.357701,336.543225 241.211914,230.626613 238.467267,28.237352 64.421350,123.401250"/>
<path style="fill: none; stroke: #000000; stroke-width: 0.750000; stroke-linejoin: miter; stroke-linecap: square;  opacity: 1.000000"  d="M 357.328625,405.507833 L 508.260241,289.840834 "/>
<text style="font-size: 12.000000; font-family: Bitstream Vera Sans; font-style: Roman; fill: #000000;" x="410.920465" y="424.411092" transform="translate(410.920465,424.411092) rotate(-45.6) translate(-410.920465,-424.411092)">max_call_mismatch_rate</text>
<g id="linecollection2">
<path style="fill: none; stroke: #e6e6e6; stroke-width: 1.000000; stroke-linejoin: miter; stroke-linecap: butt;  opacity: 1.000000"  d="M 360.586508,403.011142 L 79.904448,334.264487 L 68.180167,121.346024 "/>
<path style="fill: none; stroke: #e6e6e6; stroke-width: 1.000000; stroke-linejoin: miter; stroke-linecap: butt;  opacity: 1.000000"  d="M 391.334149,379.447575 L 113.403632,312.741713 L 103.651211,101.951356 "/>
<path style="fill: none; stroke: #e6e6e6; stroke-width: 1.000000; stroke-linejoin: miter; stroke-linecap: butt;  opacity: 1.000000"  d="M 421.155645,356.593762 L 145.937509,291.839135 L 138.046299,83.144993 "/>
<path style="fill: none; stroke: #e6e6e6; stroke-width: 1.000000; stroke-linejoin: miter; stroke-linecap: butt;  opacity: 1.000000"  d="M 450.092220,334.418111 L 177.547210,271.530328 L 171.413658,64.900567 "/>
<path style="fill: none; stroke: #e6e6e6; stroke-width: 1.000000; stroke-linejoin: miter; stroke-linecap: butt;  opacity: 1.000000"  d="M 478.182688,312.890878 L 208.271564,251.790344 L 203.798671,47.193262 "/>
<path style="fill: none; stroke: #e6e6e6; stroke-width: 1.000000; stroke-linejoin: miter; stroke-linecap: butt;  opacity: 1.000000"  d="M 505.463623,291.984033 L 238.147253,232.595617 L 235.244090,29.999704 "/>
</g>
<g id="xtick8">
<text style="font-size: 12.000000; font-family: Bitstream Vera Sans; font-style: Roman; fill: #000000;" x="347.586508" y="407.511142" >0.05</text>
<path style="fill: none; stroke: #000000; stroke-width: 1.000000; stroke-linejoin: miter; stroke-linecap: square;  opacity: 1.000000"  d="M 360.586508,403.011142 L 366.304039,408.606662 "/>
</g>
<g id="xtick9">
<text style="font-size: 12.000000; font-family: Bitstream Vera Sans; font-style: Roman; fill: #000000;" x="378.334149" y="383.947575" >0.10</text>
<path style="fill: none; stroke: #000000; stroke-width: 1.000000; stroke-linejoin: miter; stroke-linecap: square;  opacity: 1.000000"  d="M 391.334149,379.447575 L 397.051679,385.043095 "/>
</g>
<g id="xtick10">
<text style="font-size: 12.000000; font-family: Bitstream Vera Sans; font-style: Roman; fill: #000000;" x="408.155645" y="361.093762" >0.15</text>
<path style="fill: none; stroke: #000000; stroke-width: 1.000000; stroke-linejoin: miter; stroke-linecap: square;  opacity: 1.000000"  d="M 421.155645,356.593762 L 426.873175,362.189282 "/>
</g>
<g id="xtick11">
<text style="font-size: 12.000000; font-family: Bitstream Vera Sans; font-style: Roman; fill: #000000;" x="437.092220" y="338.918111" >0.20</text>
<path style="fill: none; stroke: #000000; stroke-width: 1.000000; stroke-linejoin: miter; stroke-linecap: square;  opacity: 1.000000"  d="M 450.092220,334.418111 L 455.809750,340.013631 "/>
</g>
<g id="xtick12">
<text style="font-size: 12.000000; font-family: Bitstream Vera Sans; font-style: Roman; fill: #000000;" x="465.182688" y="317.390878" >0.25</text>
<path style="fill: none; stroke: #000000; stroke-width: 1.000000; stroke-linejoin: miter; stroke-linecap: square;  opacity: 1.000000"  d="M 478.182688,312.890878 L 483.900218,318.486398 "/>
</g>
<g id="xtick13">
<text style="font-size: 12.000000; font-family: Bitstream Vera Sans; font-style: Roman; fill: #000000;" x="492.463623" y="296.484033" >0.30</text>
<path style="fill: none; stroke: #000000; stroke-width: 1.000000; stroke-linejoin: miter; stroke-linecap: square;  opacity: 1.000000"  d="M 505.463623,291.984033 L 511.181153,297.579553 "/>
</g>
</g>
<g id="axis3d3">
<polygon style="fill: #f2f2f2; stroke: #f2f2f2; stroke-width: 1.000000; stroke-linejoin: miter; stroke-linecap: square;  opacity: 0.100000"  points = "76.357701,336.543225 357.328625,405.507833 508.260241,289.840834 241.211914,230.626613"/>
<path style="fill: none; stroke: #000000; stroke-width: 0.750000; stroke-linejoin: miter; stroke-linecap: square;  opacity: 1.000000"  d="M 76.357701,336.543225 L 64.421350,123.401250 "/>
<text style="font-size: 12.000000; font-family: Bitstream Vera Sans; font-style: Roman; fill: #000000;" x="42.776287" y="295.161185" transform="translate(42.776287,295.161185) rotate(-92.4) translate(-42.776287,-295.161185)">avg_mismatch_rate</text>
<g id="linecollection3">
<path style="fill: none; stroke: #e6e6e6; stroke-width: 1.000000; stroke-linejoin: miter; stroke-linecap: butt;  opacity: 1.000000"  d="M 76.131056,332.496136 L 241.159600,226.768965 L 508.472750,285.875342 "/>
<path style="fill: none; stroke: #e6e6e6; stroke-width: 1.000000; stroke-linejoin: miter; stroke-linecap: butt;  opacity: 1.000000"  d="M 74.761295,308.036938 L 240.843595,203.466858 L 509.756781,261.914813 "/>
<path style="fill: none; stroke: #e6e6e6; stroke-width: 1.000000; stroke-linejoin: miter; stroke-linecap: butt;  opacity: 1.000000"  d="M 73.374343,283.270770 L 240.523912,179.893572 L 511.056411,237.663220 "/>
<path style="fill: none; stroke: #e6e6e6; stroke-width: 1.000000; stroke-linejoin: miter; stroke-linecap: butt;  opacity: 1.000000"  d="M 71.969875,258.191816 L 240.200487,156.044348 L 512.371924,213.115229 "/>
<path style="fill: none; stroke: #e6e6e6; stroke-width: 1.000000; stroke-linejoin: miter; stroke-linecap: butt;  opacity: 1.000000"  d="M 70.547556,232.794112 L 239.873254,131.914310 L 513.703614,188.265371 "/>
<path style="fill: none; stroke: #e6e6e6; stroke-width: 1.000000; stroke-linejoin: miter; stroke-linecap: butt;  opacity: 1.000000"  d="M 69.107044,207.071543 L 239.542145,107.498471 L 515.051781,163.108045 "/>
<path style="fill: none; stroke: #e6e6e6; stroke-width: 1.000000; stroke-linejoin: miter; stroke-linecap: butt;  opacity: 1.000000"  d="M 67.647987,181.017835 L 239.207091,82.791721 L 516.416733,137.637508 "/>
<path style="fill: none; stroke: #e6e6e6; stroke-width: 1.000000; stroke-linejoin: miter; stroke-linecap: butt;  opacity: 1.000000"  d="M 66.170026,154.626554 L 238.868021,57.788832 L 517.798785,111.847874 "/>
<path style="fill: none; stroke: #e6e6e6; stroke-width: 1.000000; stroke-linejoin: miter; stroke-linecap: butt;  opacity: 1.000000"  d="M 64.672790,127.891094 L 238.524862,32.484445 L 519.198260,85.733110 "/>
</g>
<g id="xtick14">
<text style="font-size: 12.000000; font-family: Bitstream Vera Sans; font-style: Roman; fill: #000000;" x="59.131056" y="336.996136" >0.010</text>
<path style="fill: none; stroke: #000000; stroke-width: 1.000000; stroke-linejoin: miter; stroke-linecap: square;  opacity: 1.000000"  d="M 76.131056,332.496136 L 68.138103,332.831851 "/>
</g>
<g id="xtick15">
<text style="font-size: 12.000000; font-family: Bitstream Vera Sans; font-style: Roman; fill: #000000;" x="57.761295" y="312.536938" >0.015</text>
<path style="fill: none; stroke: #000000; stroke-width: 1.000000; stroke-linejoin: miter; stroke-linecap: square;  opacity: 1.000000"  d="M 74.761295,308.036938 L 66.768342,308.372654 "/>
</g>
<g id="xtick16">
<text style="font-size: 12.000000; font-family: Bitstream Vera Sans; font-style: Roman; fill: #000000;" x="56.374343" y="287.770770" >0.020</text>
<path style="fill: none; stroke: #000000; stroke-width: 1.000000; stroke-linejoin: miter; stroke-linecap: square;  opacity: 1.000000"  d="M 73.374343,283.270770 L 65.381390,283.606485 "/>
</g>
<g id="xtick17">
<text style="font-size: 12.000000; font-family: Bitstream Vera Sans; font-style: Roman; fill: #000000;" x="54.969875" y="262.691816" >0.025</text>
<path style="fill: none; stroke: #000000; stroke-width: 1.000000; stroke-linejoin: miter; stroke-linecap: square;  opacity: 1.000000"  d="M 71.969875,258.191816 L 63.976922,258.527531 "/>
</g>
<g id="xtick18">
<text style="font-size: 12.000000; font-family: Bitstream Vera Sans; font-style: Roman; fill: #000000;" x="53.547556" y="237.294112" >0.030</text>
<path style="fill: none; stroke: #000000; stroke-width: 1.000000; stroke-linejoin: miter; stroke-linecap: square;  opacity: 1.000000"  d="M 70.547556,232.794112 L 62.554603,233.129827 "/>
</g>
<g id="xtick19">
<text style="font-size: 12.000000; font-family: Bitstream Vera Sans; font-style: Roman; fill: #000000;" x="52.107044" y="211.571543" >0.035</text>
<path style="fill: none; stroke: #000000; stroke-width: 1.000000; stroke-linejoin: miter; stroke-linecap: square;  opacity: 1.000000"  d="M 69.107044,207.071543 L 61.114091,207.407258 "/>
</g>
<g id="xtick20">
<text style="font-size: 12.000000; font-family: Bitstream Vera Sans; font-style: Roman; fill: #000000;" x="50.647987" y="185.517835" >0.040</text>
<path style="fill: none; stroke: #000000; stroke-width: 1.000000; stroke-linejoin: miter; stroke-linecap: square;  opacity: 1.000000"  d="M 67.647987,181.017835 L 59.655034,181.353551 "/>
</g>
<g id="xtick21">
<text style="font-size: 12.000000; font-family: Bitstream Vera Sans; font-style: Roman; fill: #000000;" x="49.170026" y="159.126554" >0.045</text>
<path style="fill: none; stroke: #000000; stroke-width: 1.000000; stroke-linejoin: miter; stroke-linecap: square;  opacity: 1.000000"  d="M 66.170026,154.626554 L 58.177073,154.962269 "/>
</g>
<g id="xtick22">
<text style="font-size: 12.000000; font-family: Bitstream Vera Sans; font-style: Roman; fill: #000000;" x="47.672790" y="132.391094" >0.050</text>
<path style="fill: none; stroke: #000000; stroke-width: 1.000000; stroke-linejoin: miter; stroke-linecap: square;  opacity: 1.000000"  d="M 64.672790,127.891094 L 56.679837,128.226810 "/>
</g>
</g>
<g id="axes1">
<g id="regpolycollection1">
<defs>
    <clipPath id="4685744057707115011">
    <rect x="0.000000" y="0.000000" width="576.000000" height="432.000000"
    style="stroke: gray; fill: none;"/>
    </clipPath>
</defs>
<polygon style="fill: #0000ff; stroke: #000000; stroke-width: 1.000000; stroke-linejoin: miter; stroke-linecap: butt;  opacity: 0.601291" clip-path="url(#4685744057707115011)" points = "146.445820,160.064227 147.225511,160.187718 147.928880,160.546103 148.487077,161.104300 148.845462,161.807669 148.968953,162.587360 148.845462,163.367051 148.487077,164.070420 147.928880,164.628617 147.225511,164.987002 146.445820,165.110492 145.666129,164.987002 144.962760,164.628617 144.404563,164.070420 144.046179,163.367051 143.922688,162.587360 144.046179,161.807669 144.404563,161.104300 144.962760,160.546103 145.666129,160.187718"/>
<polygon style="fill: #0000ff; stroke: #000000; stroke-width: 1.000000; stroke-linejoin: miter; stroke-linecap: butt;  opacity: 0.803448" clip-path="url(#4685744057707115011)" points = "125.655809,275.681695 126.435500,275.805186 127.138869,276.163570 127.697066,276.721767 128.055451,277.425137 128.178942,278.204827 128.055451,278.984518 127.697066,279.687887 127.138869,280.246084 126.435500,280.604469 125.655809,280.727960 124.876118,280.604469 124.172749,280.246084 123.614552,279.687887 123.256168,278.984518 123.132677,278.204827 123.256168,277.425137 123.614552,276.721767 124.172749,276.163570 124.876118,275.805186"/>
<polygon style="fill: #0000ff; stroke: #000000; stroke-width: 1.000000; stroke-linejoin: miter; stroke-linecap: butt;  opacity: 0.730746" clip-path="url(#4685744057707115011)" points = "158.287034,224.344239 159.066724,224.467730 159.770094,224.826115 160.328291,225.384312 160.686675,226.087681 160.810166,226.867372 160.686675,227.647063 160.328291,228.350432 159.770094,228.908629 159.066724,229.267013 158.287034,229.390504 157.507343,229.267013 156.803973,228.908629 156.245776,228.350432 155.887392,227.647063 155.763901,226.867372 155.887392,226.087681 156.245776,225.384312 156.803973,224.826115 157.507343,224.467730"/>
<polygon style="fill: #0000ff; stroke: #000000; stroke-width: 1.000000; stroke-linejoin: miter; stroke-linecap: butt;  opacity: 0.603167" clip-path="url(#4685744057707115011)" points = "191.051254,197.903304 191.830945,198.026795 192.534314,198.385180 193.092511,198.943377 193.450895,199.646746 193.574386,200.426437 193.450895,201.206128 193.092511,201.909497 192.534314,202.467694 191.830945,202.826078 191.051254,202.949569 190.271563,202.826078 189.568194,202.467694 189.009997,201.909497 188.651612,201.206128 188.528121,200.426437 188.651612,199.646746 189.009997,198.943377 189.568194,198.385180 190.271563,198.026795"/>
<polygon style="fill: #0000ff; stroke: #000000; stroke-width: 1.000000; stroke-linejoin: miter; stroke-linecap: butt;  opacity: 0.524417" clip-path="url(#4685744057707115011)" points = "222.593405,152.177523 223.373096,152.301014 224.076465,152.659398 224.634662,153.217595 224.993047,153.920964 225.116537,154.700655 224.993047,155.480346 224.634662,156.183715 224.076465,156.741912 223.373096,157.100297 222.593405,157.223788 221.813714,157.100297 221.110345,156.741912 220.552148,156.183715 220.193763,155.480346 220.070272,154.700655 220.193763,153.920964 220.552148,153.217595 221.110345,152.659398 221.813714,152.301014"/>
<polygon style="fill: #0000ff; stroke: #000000; stroke-width: 1.000000; stroke-linejoin: miter; stroke-linecap: butt;  opacity: 0.448202" clip-path="url(#4685744057707115011)" points = "253.606167,106.660917 254.385858,106.784408 255.089227,107.142793 255.647424,107.700990 256.005809,108.404359 256.129300,109.184050 256.005809,109.963741 255.647424,110.667110 255.089227,111.225307 254.385858,111.583691 253.606167,111.707182 252.826476,111.583691 252.123107,111.225307 251.564910,110.667110 251.206525,109.963741 251.083035,109.184050 251.206525,108.404359 251.564910,107.700990 252.123107,107.142793 252.826476,106.784408"/>
<polygon style="fill: #0000ff; stroke: #000000; stroke-width: 1.000000; stroke-linejoin: miter; stroke-linecap: butt;  opacity: 0.336135" clip-path="url(#4685744057707115011)" points = "284.163359,78.818559 284.943050,78.942050 285.646419,79.300434 286.204616,79.858631 286.563000,80.562001 286.686491,81.341691 286.563000,82.121382 286.204616,82.824751 285.646419,83.382948 284.943050,83.741333 284.163359,83.864824 283.383668,83.741333 282.680299,83.382948 282.122102,82.824751 281.763717,82.121382 281.640226,81.341691 281.763717,80.562001 282.122102,79.858631 282.680299,79.300434 283.383668,78.942050"/>
<polygon style="fill: #0000ff; stroke: #000000; stroke-width: 1.000000; stroke-linejoin: miter; stroke-linecap: butt;  opacity: 0.641423" clip-path="url(#4685744057707115011)" points = "235.442037,220.225554 236.221728,220.349045 236.925097,220.707430 237.483294,221.265627 237.841678,221.968996 237.965169,222.748687 237.841678,223.528378 237.483294,224.231747 236.925097,224.789944 236.221728,225.148329 235.442037,225.271820 234.662346,225.148329 233.958977,224.789944 233.400780,224.231747 233.042395,223.528378 232.918904,222.748687 233.042395,221.968996 233.400780,221.265627 233.958977,220.707430 234.662346,220.349045"/>
<polygon style="fill: #0000ff; stroke: #000000; stroke-width: 1.000000; stroke-linejoin: miter; stroke-linecap: butt;  opacity: 0.705115" clip-path="url(#4685744057707115011)" points = "325.273113,271.181721 326.052804,271.305212 326.756173,271.663596 327.314370,272.221793 327.672755,272.925163 327.796246,273.704853 327.672755,274.484544 327.314370,275.187913 326.756173,275.746111 326.052804,276.104495 325.273113,276.227986 324.493423,276.104495 323.790053,275.746111 323.231856,275.187913 322.873472,274.484544 322.749981,273.704853 322.873472,272.925163 323.231856,272.221793 323.790053,271.663596 324.493423,271.305212"/>
<polygon style="fill: #0000ff; stroke: #000000; stroke-width: 1.000000; stroke-linejoin: miter; stroke-linecap: butt;  opacity: 0.908223" clip-path="url(#4685744057707115011)" points = "262.048786,352.035765 262.828477,352.159256 263.531846,352.517641 264.090043,353.075838 264.448427,353.779207 264.571918,354.558898 264.448427,355.338588 264.090043,356.041958 263.531846,356.600155 262.828477,356.958539 262.048786,357.082030 261.269095,356.958539 260.565726,356.600155 260.007529,356.041958 259.649144,355.338588 259.525653,354.558898 259.649144,353.779207 260.007529,353.075838 260.565726,352.517641 261.269095,352.159256"/>
<polygon style="fill: #0000ff; stroke: #000000; stroke-width: 1.000000; stroke-linejoin: miter; stroke-linecap: butt;  opacity: 0.801602" clip-path="url(#4685744057707115011)" points = "293.995780,312.819609 294.775471,312.943100 295.478840,313.301485 296.037037,313.859682 296.395422,314.563051 296.518913,315.342742 296.395422,316.122433 296.037037,316.825802 295.478840,317.383999 294.775471,317.742383 293.995780,317.865874 293.216089,317.742383 292.512720,317.383999 291.954523,316.825802 291.596139,316.122433 291.472648,315.342742 291.596139,314.563051 291.954523,313.859682 292.512720,313.301485 293.216089,312.943100"/>
<polygon style="fill: #0000ff; stroke: #000000; stroke-width: 1.000000; stroke-linejoin: miter; stroke-linecap: butt;  opacity: 0.705115" clip-path="url(#4685744057707115011)" points = "325.273113,271.181721 326.052804,271.305212 326.756173,271.663596 327.314370,272.221793 327.672755,272.925163 327.796246,273.704853 327.672755,274.484544 327.314370,275.187913 326.756173,275.746111 326.052804,276.104495 325.273113,276.227986 324.493423,276.104495 323.790053,275.746111 323.231856,275.187913 322.873472,274.484544 322.749981,273.704853 322.873472,272.925163 323.231856,272.221793 323.790053,271.663596 324.493423,271.305212"/>
<polygon style="fill: #0000ff; stroke: #000000; stroke-width: 1.000000; stroke-linejoin: miter; stroke-linecap: butt;  opacity: 0.606341" clip-path="url(#4685744057707115011)" points = "355.901377,232.169410 356.681067,232.292901 357.384437,232.651285 357.942634,233.209482 358.301018,233.912852 358.424509,234.692543 358.301018,235.472233 357.942634,236.175603 357.384437,236.733800 356.681067,237.092184 355.901377,237.215675 355.121686,237.092184 354.418317,236.733800 353.860120,236.175603 353.501735,235.472233 353.378244,234.692543 353.501735,233.912852 353.860120,233.209482 354.418317,232.651285 355.121686,232.292901"/>
<polygon style="fill: #0000ff; stroke: #000000; stroke-width: 1.000000; stroke-linejoin: miter; stroke-linecap: butt;  opacity: 0.514713" clip-path="url(#4685744057707115011)" points = "385.949294,191.730462 386.728985,191.853953 387.432354,192.212338 387.990551,192.770535 388.348936,193.473904 388.472427,194.253595 388.348936,195.033286 387.990551,195.736655 387.432354,196.294852 386.728985,196.653236 385.949294,196.776727 385.169603,196.653236 384.466234,196.294852 383.908037,195.736655 383.549652,195.033286 383.426161,194.253595 383.549652,193.473904 383.908037,192.770535 384.466234,192.212338 385.169603,191.853953"/>
<polygon style="fill: #0000ff; stroke: #000000; stroke-width: 1.000000; stroke-linejoin: miter; stroke-linecap: butt;  opacity: 0.412211" clip-path="url(#4685744057707115011)" points = "415.253727,157.688454 416.033418,157.811945 416.736787,158.170329 417.294984,158.728526 417.653368,159.431896 417.776859,160.211586 417.653368,160.991277 417.294984,161.694646 416.736787,162.252843 416.033418,162.611228 415.253727,162.734719 414.474036,162.611228 413.770667,162.252843 413.212470,161.694646 412.854085,160.991277 412.730594,160.211586 412.854085,159.431896 413.212470,158.728526 413.770667,158.170329 414.474036,157.811945"/>
<polygon style="fill: #0000ff; stroke: #000000; stroke-width: 1.000000; stroke-linejoin: miter; stroke-linecap: butt;  opacity: 0.741545" clip-path="url(#4685744057707115011)" points = "370.678001,295.151768 371.457692,295.275259 372.161061,295.633643 372.719258,296.191840 373.077642,296.895209 373.201133,297.674900 373.077642,298.454591 372.719258,299.157960 372.161061,299.716157 371.457692,300.074542 370.678001,300.198033 369.898310,300.074542 369.194941,299.716157 368.636744,299.157960 368.278359,298.454591 368.154868,297.674900 368.278359,296.895209 368.636744,296.191840 369.194941,295.633643 369.898310,295.275259"/>
<polygon style="fill: #0000ff; stroke: #000000; stroke-width: 1.000000; stroke-linejoin: miter; stroke-linecap: butt;  opacity: 0.972248" clip-path="url(#4685744057707115011)" points = "308.213063,366.492986 308.992753,366.616477 309.696123,366.974861 310.254320,367.533058 310.612704,368.236428 310.736195,369.016118 310.612704,369.795809 310.254320,370.499178 309.696123,371.057375 308.992753,371.415760 308.213063,371.539251 307.433372,371.415760 306.730003,371.057375 306.171806,370.499178 305.813421,369.795809 305.689930,369.016118 305.813421,368.236428 306.171806,367.533058 306.730003,366.974861 307.433372,366.616477"/>
<polygon style="fill: #0000ff; stroke: #000000; stroke-width: 1.000000; stroke-linejoin: miter; stroke-linecap: butt;  opacity: 0.848902" clip-path="url(#4685744057707115011)" points = "339.788332,333.083505 340.568023,333.206995 341.271392,333.565380 341.829589,334.123577 342.187973,334.826946 342.311464,335.606637 342.187973,336.386328 341.829589,337.089697 341.271392,337.647894 340.568023,338.006279 339.788332,338.129770 339.008641,338.006279 338.305272,337.647894 337.747075,337.089697 337.388690,336.386328 337.265199,335.606637 337.388690,334.826946 337.747075,334.123577 338.305272,333.565380 339.008641,333.206995"/>
<polygon style="fill: #0000ff; stroke: #000000; stroke-width: 1.000000; stroke-linejoin: miter; stroke-linecap: butt;  opacity: 0.741545" clip-path="url(#4685744057707115011)" points = "370.678001,295.151768 371.457692,295.275259 372.161061,295.633643 372.719258,296.191840 373.077642,296.895209 373.201133,297.674900 373.077642,298.454591 372.719258,299.157960 372.161061,299.716157 371.457692,300.074542 370.678001,300.198033 369.898310,300.074542 369.194941,299.716157 368.636744,299.157960 368.278359,298.454591 368.154868,297.674900 368.278359,296.895209 368.636744,296.191840 369.194941,295.633643 369.898310,295.275259"/>
<polygon style="fill: #0000ff; stroke: #000000; stroke-width: 1.000000; stroke-linejoin: miter; stroke-linecap: butt;  opacity: 0.657371" clip-path="url(#4685744057707115011)" points = "401.119869,249.244614 401.899560,249.368105 402.602929,249.726490 403.161126,250.284687 403.519511,250.988056 403.643002,251.767747 403.519511,252.547438 403.161126,253.250807 402.602929,253.809004 401.899560,254.167389 401.119869,254.290879 400.340178,254.167389 399.636809,253.809004 399.078612,253.250807 398.720228,252.547438 398.596737,251.767747 398.720228,250.988056 399.078612,250.284687 399.636809,249.726490 400.340178,249.368105"/>
<polygon style="fill: #0000ff; stroke: #000000; stroke-width: 1.000000; stroke-linejoin: miter; stroke-linecap: butt;  opacity: 0.533568" clip-path="url(#4685744057707115011)" points = "430.436699,221.882475 431.216390,222.005966 431.919759,222.364351 432.477956,222.922548 432.836340,223.625917 432.959831,224.405608 432.836340,225.185299 432.477956,225.888668 431.919759,226.446865 431.216390,226.805249 430.436699,226.928740 429.657008,226.805249 428.953639,226.446865 428.395442,225.888668 428.037057,225.185299 427.913566,224.405608 428.037057,223.625917 428.395442,222.922548 428.953639,222.364351 429.657008,222.005966"/>
<polygon style="fill: #0000ff; stroke: #000000; stroke-width: 1.000000; stroke-linejoin: miter; stroke-linecap: butt;  opacity: 0.422837" clip-path="url(#4685744057707115011)" points = "459.170953,190.881005 459.950644,191.004496 460.654013,191.362881 461.212210,191.921078 461.570594,192.624447 461.694085,193.404138 461.570594,194.183829 461.212210,194.887198 460.654013,195.445395 459.950644,195.803779 459.170953,195.927270 458.391262,195.803779 457.687893,195.445395 457.129696,194.887198 456.771311,194.183829 456.647820,193.404138 456.771311,192.624447 457.129696,191.921078 457.687893,191.362881 458.391262,191.004496"/>
<polygon style="fill: #0000ff; stroke: #000000; stroke-width: 1.000000; stroke-linejoin: miter; stroke-linecap: butt;  opacity: 1.000000" clip-path="url(#4685744057707115011)" points = "326.855709,371.575572 327.635399,371.699063 328.338769,372.057447 328.896966,372.615644 329.255350,373.319013 329.378841,374.098704 329.255350,374.878395 328.896966,375.581764 328.338769,376.139961 327.635399,376.498346 326.855709,376.621837 326.076018,376.498346 325.372648,376.139961 324.814451,375.581764 324.456067,374.878395 324.332576,374.098704 324.456067,373.319013 324.814451,372.615644 325.372648,372.057447 326.076018,371.699063"/>
<polygon style="fill: #0000ff; stroke: #000000; stroke-width: 1.000000; stroke-linejoin: miter; stroke-linecap: butt;  opacity: 0.869965" clip-path="url(#4685744057707115011)" points = "358.244894,340.431038 359.024584,340.554528 359.727954,340.912913 360.286151,341.471110 360.644535,342.174479 360.768026,342.954170 360.644535,343.733861 360.286151,344.437230 359.727954,344.995427 359.024584,345.353812 358.244894,345.477303 357.465203,345.353812 356.761834,344.995427 356.203637,344.437230 355.845252,343.733861 355.721761,342.954170 355.845252,342.174479 356.203637,341.471110 356.761834,340.912913 357.465203,340.554528"/>
<polygon style="fill: #0000ff; stroke: #000000; stroke-width: 1.000000; stroke-linejoin: miter; stroke-linecap: butt;  opacity: 0.759047" clip-path="url(#4685744057707115011)" points = "388.965315,303.613966 389.745006,303.737457 390.448375,304.095842 391.006572,304.654039 391.364956,305.357408 391.488447,306.137099 391.364956,306.916790 391.006572,307.620159 390.448375,308.178356 389.745006,308.536740 388.965315,308.660231 388.185624,308.536740 387.482255,308.178356 386.924058,307.620159 386.565673,306.916790 386.442182,306.137099 386.565673,305.357408 386.924058,304.654039 387.482255,304.095842 388.185624,303.737457"/>
<polygon style="fill: #0000ff; stroke: #000000; stroke-width: 1.000000; stroke-linejoin: miter; stroke-linecap: butt;  opacity: 0.672617" clip-path="url(#4685744057707115011)" points = "419.275547,258.369640 420.055238,258.493131 420.758607,258.851516 421.316804,259.409713 421.675189,260.113082 421.798680,260.892773 421.675189,261.672464 421.316804,262.375833 420.758607,262.934030 420.055238,263.292414 419.275547,263.415905 418.495856,263.292414 417.792487,262.934030 417.234290,262.375833 416.875906,261.672464 416.752415,260.892773 416.875906,260.113082 417.234290,259.409713 417.792487,258.851516 418.495856,258.493131"/>
<polygon style="fill: #0000ff; stroke: #000000; stroke-width: 1.000000; stroke-linejoin: miter; stroke-linecap: butt;  opacity: 0.538074" clip-path="url(#4685744057707115011)" points = "448.232208,235.292557 449.011899,235.416048 449.715268,235.774432 450.273465,236.332629 450.631850,237.035999 450.755341,237.815689 450.631850,238.595380 450.273465,239.298750 449.715268,239.856947 449.011899,240.215331 448.232208,240.338822 447.452518,240.215331 446.749148,239.856947 446.190951,239.298750 445.832567,238.595380 445.709076,237.815689 445.832567,237.035999 446.190951,236.332629 446.749148,235.774432 447.452518,235.416048"/>
<polygon style="fill: #0000ff; stroke: #000000; stroke-width: 1.000000; stroke-linejoin: miter; stroke-linecap: butt;  opacity: 0.427086" clip-path="url(#4685744057707115011)" points = "476.766065,204.182851 477.545756,204.306342 478.249125,204.664726 478.807322,205.222923 479.165707,205.926292 479.289198,206.705983 479.165707,207.485674 478.807322,208.189043 478.249125,208.747240 477.545756,209.105625 476.766065,209.229116 475.986374,209.105625 475.283005,208.747240 474.724808,208.189043 474.366424,207.485674 474.242933,206.705983 474.366424,205.926292 474.724808,205.222923 475.283005,204.664726 475.986374,204.306342"/>
<polygon style="fill: #0000ff; stroke: #000000; stroke-width: 1.000000; stroke-linejoin: miter; stroke-linecap: butt;  opacity: 1.000000" clip-path="url(#4685744057707115011)" points = "326.855709,371.575572 327.635399,371.699063 328.338769,372.057447 328.896966,372.615644 329.255350,373.319013 329.378841,374.098704 329.255350,374.878395 328.896966,375.581764 328.338769,376.139961 327.635399,376.498346 326.855709,376.621837 326.076018,376.498346 325.372648,376.139961 324.814451,375.581764 324.456067,374.878395 324.332576,374.098704 324.456067,373.319013 324.814451,372.615644 325.372648,372.057447 326.076018,371.699063"/>
<polygon style="fill: #0000ff; stroke: #000000; stroke-width: 1.000000; stroke-linejoin: miter; stroke-linecap: butt;  opacity: 0.869965" clip-path="url(#4685744057707115011)" points = "358.244894,340.431038 359.024584,340.554528 359.727954,340.912913 360.286151,341.471110 360.644535,342.174479 360.768026,342.954170 360.644535,343.733861 360.286151,344.437230 359.727954,344.995427 359.024584,345.353812 358.244894,345.477303 357.465203,345.353812 356.761834,344.995427 356.203637,344.437230 355.845252,343.733861 355.721761,342.954170 355.845252,342.174479 356.203637,341.471110 356.761834,340.912913 357.465203,340.554528"/>
<polygon style="fill: #0000ff; stroke: #000000; stroke-width: 1.000000; stroke-linejoin: miter; stroke-linecap: butt;  opacity: 0.759047" clip-path="url(#4685744057707115011)" points = "388.965315,303.613966 389.745006,303.737457 390.448375,304.095842 391.006572,304.654039 391.364956,305.357408 391.488447,306.137099 391.364956,306.916790 391.006572,307.620159 390.448375,308.178356 389.745006,308.536740 388.965315,308.660231 388.185624,308.536740 387.482255,308.178356 386.924058,307.620159 386.565673,306.916790 386.442182,306.137099 386.565673,305.357408 386.924058,304.654039 387.482255,304.095842 388.185624,303.737457"/>
<polygon style="fill: #0000ff; stroke: #000000; stroke-width: 1.000000; stroke-linejoin: miter; stroke-linecap: butt;  opacity: 0.672617" clip-path="url(#4685744057707115011)" points = "419.275547,258.369640 420.055238,258.493131 420.758607,258.851516 421.316804,259.409713 421.675189,260.113082 421.798680,260.892773 421.675189,261.672464 421.316804,262.375833 420.758607,262.934030 420.055238,263.292414 419.275547,263.415905 418.495856,263.292414 417.792487,262.934030 417.234290,262.375833 416.875906,261.672464 416.752415,260.892773 416.875906,260.113082 417.234290,259.409713 417.792487,258.851516 418.495856,258.493131"/>
<polygon style="fill: #0000ff; stroke: #000000; stroke-width: 1.000000; stroke-linejoin: miter; stroke-linecap: butt;  opacity: 0.538074" clip-path="url(#4685744057707115011)" points = "448.232208,235.292557 449.011899,235.416048 449.715268,235.774432 450.273465,236.332629 450.631850,237.035999 450.755341,237.815689 450.631850,238.595380 450.273465,239.298750 449.715268,239.856947 449.011899,240.215331 448.232208,240.338822 447.452518,240.215331 446.749148,239.856947 446.190951,239.298750 445.832567,238.595380 445.709076,237.815689 445.832567,237.035999 446.190951,236.332629 446.749148,235.774432 447.452518,235.416048"/>
<polygon style="fill: #0000ff; stroke: #000000; stroke-width: 1.000000; stroke-linejoin: miter; stroke-linecap: butt;  opacity: 0.427086" clip-path="url(#4685744057707115011)" points = "476.766065,204.182851 477.545756,204.306342 478.249125,204.664726 478.807322,205.222923 479.165707,205.926292 479.289198,206.705983 479.165707,207.485674 478.807322,208.189043 478.249125,208.747240 477.545756,209.105625 476.766065,209.229116 475.986374,209.105625 475.283005,208.747240 474.724808,208.189043 474.366424,207.485674 474.242933,206.705983 474.366424,205.926292 474.724808,205.222923 475.283005,204.664726 475.986374,204.306342"/>
<polygon style="fill: #0000ff; stroke: #000000; stroke-width: 1.000000; stroke-linejoin: miter; stroke-linecap: butt;  opacity: 0.990927" clip-path="url(#4685744057707115011)" points = "336.122016,383.217237 336.901707,383.340728 337.605076,383.699112 338.163273,384.257309 338.521658,384.960678 338.645149,385.740369 338.521658,386.520060 338.163273,387.223429 337.605076,387.781626 336.901707,388.140011 336.122016,388.263502 335.342325,388.140011 334.638956,387.781626 334.080759,387.223429 333.722375,386.520060 333.598884,385.740369 333.722375,384.960678 334.080759,384.257309 334.638956,383.699112 335.342325,383.340728"/>
<polygon style="fill: #0000ff; stroke: #000000; stroke-width: 1.000000; stroke-linejoin: miter; stroke-linecap: butt;  opacity: 0.863124" clip-path="url(#4685744057707115011)" points = "367.374483,351.142644 368.154174,351.266135 368.857543,351.624520 369.415740,352.182717 369.774125,352.886086 369.897616,353.665777 369.774125,354.445467 369.415740,355.148837 368.857543,355.707034 368.154174,356.065418 367.374483,356.188909 366.594792,356.065418 365.891423,355.707034 365.333226,355.148837 364.974841,354.445467 364.851351,353.665777 364.974841,352.886086 365.333226,352.182717 365.891423,351.624520 366.594792,351.266135"/>
<polygon style="fill: #0000ff; stroke: #000000; stroke-width: 1.000000; stroke-linejoin: miter; stroke-linecap: butt;  opacity: 0.749591" clip-path="url(#4685744057707115011)" points = "397.939185,315.370049 398.718876,315.493540 399.422245,315.851924 399.980442,316.410121 400.338827,317.113491 400.462318,317.893181 400.338827,318.672872 399.980442,319.376242 399.422245,319.934439 398.718876,320.292823 397.939185,320.416314 397.159494,320.292823 396.456125,319.934439 395.897928,319.376242 395.539543,318.672872 395.416052,317.893181 395.539543,317.113491 395.897928,316.410121 396.456125,315.851924 397.159494,315.493540"/>
<polygon style="fill: #0000ff; stroke: #000000; stroke-width: 1.000000; stroke-linejoin: miter; stroke-linecap: butt;  opacity: 0.651321" clip-path="url(#4685744057707115011)" points = "427.970751,275.116291 428.750442,275.239781 429.453811,275.598166 430.012008,276.156363 430.370393,276.859732 430.493883,277.639423 430.370393,278.419114 430.012008,279.122483 429.453811,279.680680 428.750442,280.039065 427.970751,280.162556 427.191060,280.039065 426.487691,279.680680 425.929494,279.122483 425.571109,278.419114 425.447618,277.639423 425.571109,276.859732 425.929494,276.156363 426.487691,275.598166 427.191060,275.239781"/>
<polygon style="fill: #0000ff; stroke: #000000; stroke-width: 1.000000; stroke-linejoin: miter; stroke-linecap: butt;  opacity: 0.517764" clip-path="url(#4685744057707115011)" points = "456.746722,251.687544 457.526412,251.811035 458.229782,252.169420 458.787979,252.727617 459.146363,253.430986 459.269854,254.210677 459.146363,254.990368 458.787979,255.693737 458.229782,256.251934 457.526412,256.610318 456.746722,256.733809 455.967031,256.610318 455.263662,256.251934 454.705465,255.693737 454.347080,254.990368 454.223589,254.210677 454.347080,253.430986 454.705465,252.727617 455.263662,252.169420 455.967031,251.811035"/>
<polygon style="fill: #0000ff; stroke: #000000; stroke-width: 1.000000; stroke-linejoin: miter; stroke-linecap: butt;  opacity: 0.406302" clip-path="url(#4685744057707115011)" points = "485.098703,220.867991 485.878394,220.991482 486.581763,221.349867 487.139960,221.908064 487.498345,222.611433 487.621835,223.391124 487.498345,224.170815 487.139960,224.874184 486.581763,225.432381 485.878394,225.790765 485.098703,225.914256 484.319012,225.790765 483.615643,225.432381 483.057446,224.874184 482.699061,224.170815 482.575570,223.391124 482.699061,222.611433 483.057446,221.908064 483.615643,221.349867 484.319012,220.991482"/>
<polygon style="fill: #0000ff; stroke: #000000; stroke-width: 1.000000; stroke-linejoin: miter; stroke-linecap: butt;  opacity: 0.739134" clip-path="url(#4685744057707115011)" points = "81.514385,263.091022 82.294076,263.214513 82.997445,263.572897 83.555642,264.131095 83.914026,264.834464 84.037517,265.614155 83.914026,266.393845 83.555642,267.097215 82.997445,267.655412 82.294076,268.013796 81.514385,268.137287 80.734694,268.013796 80.031325,267.655412 79.473128,267.097215 79.114743,266.393845 78.991252,265.614155 79.114743,264.834464 79.473128,264.131095 80.031325,263.572897 80.734694,263.214513"/>
<polygon style="fill: #0000ff; stroke: #000000; stroke-width: 1.000000; stroke-linejoin: miter; stroke-linecap: butt;  opacity: 0.672653" clip-path="url(#4685744057707115011)" points = "114.159926,209.947872 114.939617,210.071363 115.642986,210.429747 116.201183,210.987944 116.559568,211.691314 116.683059,212.471004 116.559568,213.250695 116.201183,213.954064 115.642986,214.512261 114.939617,214.870646 114.159926,214.994137 113.380235,214.870646 112.676866,214.512261 112.118669,213.954064 111.760285,213.250695 111.636794,212.471004 111.760285,211.691314 112.118669,210.987944 112.676866,210.429747 113.380235,210.071363"/>
<polygon style="fill: #0000ff; stroke: #000000; stroke-width: 1.000000; stroke-linejoin: miter; stroke-linecap: butt;  opacity: 0.601291" clip-path="url(#4685744057707115011)" points = "146.445820,160.064227 147.225511,160.187718 147.928880,160.546103 148.487077,161.104300 148.845462,161.807669 148.968953,162.587360 148.845462,163.367051 148.487077,164.070420 147.928880,164.628617 147.225511,164.987002 146.445820,165.110492 145.666129,164.987002 144.962760,164.628617 144.404563,164.070420 144.046179,163.367051 143.922688,162.587360 144.046179,161.807669 144.404563,161.104300 144.962760,160.546103 145.666129,160.187718"/>
<polygon style="fill: #0000ff; stroke: #000000; stroke-width: 1.000000; stroke-linejoin: miter; stroke-linecap: butt;  opacity: 0.487051" clip-path="url(#4685744057707115011)" points = "178.802429,130.424919 179.582120,130.548409 180.285489,130.906794 180.843686,131.464991 181.202071,132.168360 181.325562,132.948051 181.202071,133.727742 180.843686,134.431111 180.285489,134.989308 179.582120,135.347693 178.802429,135.471184 178.022739,135.347693 177.319369,134.989308 176.761172,134.431111 176.402788,133.727742 176.279297,132.948051 176.402788,132.168360 176.761172,131.464991 177.319369,130.906794 178.022739,130.548409"/>
<polygon style="fill: #0000ff; stroke: #000000; stroke-width: 1.000000; stroke-linejoin: miter; stroke-linecap: butt;  opacity: 0.406125" clip-path="url(#4685744057707115011)" points = "210.097857,87.671268 210.877548,87.794759 211.580917,88.153144 212.139114,88.711341 212.497499,89.414710 212.620990,90.194401 212.497499,90.974092 212.139114,91.677461 211.580917,92.235658 210.877548,92.594042 210.097857,92.717533 209.318166,92.594042 208.614797,92.235658 208.056600,91.677461 207.698215,90.974092 207.574725,90.194401 207.698215,89.414710 208.056600,88.711341 208.614797,88.153144 209.318166,87.794759"/>
<polygon style="fill: #0000ff; stroke: #000000; stroke-width: 1.000000; stroke-linejoin: miter; stroke-linecap: butt;  opacity: 0.300000" clip-path="url(#4685744057707115011)" points = "241.012771,57.911208 241.792462,58.034698 242.495831,58.393083 243.054028,58.951280 243.412413,59.654649 243.535904,60.434340 243.412413,61.214031 243.054028,61.917400 242.495831,62.475597 241.792462,62.833982 241.012771,62.957473 240.233080,62.833982 239.529711,62.475597 238.971514,61.917400 238.613130,61.214031 238.489639,60.434340 238.613130,59.654649 238.971514,58.951280 239.529711,58.393083 240.233080,58.034698"/>
<polygon style="fill: #0000ff; stroke: #000000; stroke-width: 1.000000; stroke-linejoin: miter; stroke-linecap: butt;  opacity: 0.972248" clip-path="url(#4685744057707115011)" points = "308.213063,366.492986 308.992753,366.616477 309.696123,366.974861 310.254320,367.533058 310.612704,368.236428 310.736195,369.016118 310.612704,369.795809 310.254320,370.499178 309.696123,371.057375 308.992753,371.415760 308.213063,371.539251 307.433372,371.415760 306.730003,371.057375 306.171806,370.499178 305.813421,369.795809 305.689930,369.016118 305.813421,368.236428 306.171806,367.533058 306.730003,366.974861 307.433372,366.616477"/>
<polygon style="fill: #0000ff; stroke: #000000; stroke-width: 1.000000; stroke-linejoin: miter; stroke-linecap: butt;  opacity: 0.848902" clip-path="url(#4685744057707115011)" points = "339.788332,333.083505 340.568023,333.206995 341.271392,333.565380 341.829589,334.123577 342.187973,334.826946 342.311464,335.606637 342.187973,336.386328 341.829589,337.089697 341.271392,337.647894 340.568023,338.006279 339.788332,338.129770 339.008641,338.006279 338.305272,337.647894 337.747075,337.089697 337.388690,336.386328 337.265199,335.606637 337.388690,334.826946 337.747075,334.123577 338.305272,333.565380 339.008641,333.206995"/>
<polygon style="fill: #0000ff; stroke: #000000; stroke-width: 1.000000; stroke-linejoin: miter; stroke-linecap: butt;  opacity: 0.741545" clip-path="url(#4685744057707115011)" points = "370.678001,295.151768 371.457692,295.275259 372.161061,295.633643 372.719258,296.191840 373.077642,296.895209 373.201133,297.674900 373.077642,298.454591 372.719258,299.157960 372.161061,299.716157 371.457692,300.074542 370.678001,300.198033 369.898310,300.074542 369.194941,299.716157 368.636744,299.157960 368.278359,298.454591 368.154868,297.674900 368.278359,296.895209 368.636744,296.191840 369.194941,295.633643 369.898310,295.275259"/>
<polygon style="fill: #0000ff; stroke: #000000; stroke-width: 1.000000; stroke-linejoin: miter; stroke-linecap: butt;  opacity: 0.657371" clip-path="url(#4685744057707115011)" points = "401.119869,249.244614 401.899560,249.368105 402.602929,249.726490 403.161126,250.284687 403.519511,250.988056 403.643002,251.767747 403.519511,252.547438 403.161126,253.250807 402.602929,253.809004 401.899560,254.167389 401.119869,254.290879 400.340178,254.167389 399.636809,253.809004 399.078612,253.250807 398.720228,252.547438 398.596737,251.767747 398.720228,250.988056 399.078612,250.284687 399.636809,249.726490 400.340178,249.368105"/>
<polygon style="fill: #0000ff; stroke: #000000; stroke-width: 1.000000; stroke-linejoin: miter; stroke-linecap: butt;  opacity: 0.533568" clip-path="url(#4685744057707115011)" points = "430.436699,221.882475 431.216390,222.005966 431.919759,222.364351 432.477956,222.922548 432.836340,223.625917 432.959831,224.405608 432.836340,225.185299 432.477956,225.888668 431.919759,226.446865 431.216390,226.805249 430.436699,226.928740 429.657008,226.805249 428.953639,226.446865 428.395442,225.888668 428.037057,225.185299 427.913566,224.405608 428.037057,223.625917 428.395442,222.922548 428.953639,222.364351 429.657008,222.005966"/>
<polygon style="fill: #0000ff; stroke: #000000; stroke-width: 1.000000; stroke-linejoin: miter; stroke-linecap: butt;  opacity: 0.422837" clip-path="url(#4685744057707115011)" points = "459.170953,190.881005 459.950644,191.004496 460.654013,191.362881 461.212210,191.921078 461.570594,192.624447 461.694085,193.404138 461.570594,194.183829 461.212210,194.887198 460.654013,195.445395 459.950644,195.803779 459.170953,195.927270 458.391262,195.803779 457.687893,195.445395 457.129696,194.887198 456.771311,194.183829 456.647820,193.404138 456.771311,192.624447 457.129696,191.921078 457.687893,191.362881 458.391262,191.004496"/>
</g>
<g id="matplotlib.axis1">
</g>
<g id="matplotlib.axis2">
</g>
</g>
</g>
</svg>
