<?xml version="1.0" standalone="no"?>
<!DOCTYPE svg PUBLIC "-//W3C//DTD SVG 1.1//EN"
  "http://www.w3.org/Graphics/SVG/1.1/DTD/svg11.dtd">
<!-- Created with matplotlib (http://matplotlib.sourceforge.net/) -->
<svg width="576" height="432" viewBox="0 0 576 432"
   xmlns="http://www.w3.org/2000/svg"
   xmlns:xlink="http://www.w3.org/1999/xlink"
   version="1.1"
   id="svg1">
<g id="figure1">
<polygon style="fill: #ffffff; stroke: #ffffff; stroke-width: 1.000000; stroke-linejoin: miter; stroke-linecap: square;  opacity: 1.000000"  points = "0.000000,432.000000 0.000000,0.000000 576.000000,0.000000 576.000000,432.000000"/>
<polygon style="fill: #ffffff; opacity: 1.000000"  points = "0.000000,432.000000 0.000000,0.000000 576.000000,0.000000 576.000000,432.000000"/>
<g id="axis3d1">
<polygon style="fill: #f2f2f2; stroke: #f2f2f2; stroke-width: 1.000000; stroke-linejoin: miter; stroke-linecap: square;  opacity: 0.100000"  points = "241.211914,230.626613 508.260241,289.840834 519.433224,81.348607 238.467267,28.237352"/>
<path style="fill: none; stroke: #000000; stroke-width: 0.750000; stroke-linejoin: miter; stroke-linecap: square;  opacity: 1.000000"  d="M 76.357701,336.543225 L 357.328625,405.507833 "/>
<text style="font-size: 12.000000; font-family: Bitstream Vera Sans; font-style: Roman; fill: #000000;" x="127.936123" y="379.403446" transform="translate(127.936123,379.403446) rotate(-341.9) translate(-127.936123,-379.403446)">max_call_mismatch_rate</text>
<g id="linecollection1">
<path style="fill: none; stroke: #e6e6e6; stroke-width: 1.000000; stroke-linejoin: miter; stroke-linecap: butt;  opacity: 1.000000"  d="M 81.730847,337.862069 L 246.335639,231.762727 L 243.846516,29.254197 "/>
<path style="fill: none; stroke: #e6e6e6; stroke-width: 1.000000; stroke-linejoin: miter; stroke-linecap: butt;  opacity: 1.000000"  d="M 133.806316,350.644048 L 295.959675,242.766161 L 295.968604,39.106883 "/>
<path style="fill: none; stroke: #e6e6e6; stroke-width: 1.000000; stroke-linejoin: miter; stroke-linecap: butt;  opacity: 1.000000"  d="M 186.791666,363.649357 L 346.387419,253.947806 L 348.978075,49.127313 "/>
<path style="fill: none; stroke: #e6e6e6; stroke-width: 1.000000; stroke-linejoin: miter; stroke-linecap: butt;  opacity: 1.000000"  d="M 240.710954,376.883903 L 397.638557,265.312027 L 402.897787,59.319806 "/>
<path style="fill: none; stroke: #e6e6e6; stroke-width: 1.000000; stroke-linejoin: miter; stroke-linecap: butt;  opacity: 1.000000"  d="M 295.589092,390.353800 L 449.733420,276.863332 L 457.751387,69.688832 "/>
<path style="fill: none; stroke: #e6e6e6; stroke-width: 1.000000; stroke-linejoin: miter; stroke-linecap: butt;  opacity: 1.000000"  d="M 351.451887,404.065382 L 502.693018,288.606380 L 513.563349,80.239019 "/>
</g>
<g id="xtick1">
<text style="font-size: 12.000000; font-family: Bitstream Vera Sans; font-style: Roman; fill: #000000;" x="68.730847" y="342.362069" >0.05</text>
<path style="fill: none; stroke: #000000; stroke-width: 1.000000; stroke-linejoin: miter; stroke-linecap: square;  opacity: 1.000000"  d="M 81.730847,337.862069 L 79.242567,345.465257 "/>
</g>
<g id="xtick2">
<text style="font-size: 12.000000; font-family: Bitstream Vera Sans; font-style: Roman; fill: #000000;" x="120.806316" y="355.144048" >0.10</text>
<path style="fill: none; stroke: #000000; stroke-width: 1.000000; stroke-linejoin: miter; stroke-linecap: square;  opacity: 1.000000"  d="M 133.806316,350.644048 L 131.318036,358.247235 "/>
</g>
<g id="xtick3">
<text style="font-size: 12.000000; font-family: Bitstream Vera Sans; font-style: Roman; fill: #000000;" x="173.791666" y="368.149357" >0.15</text>
<path style="fill: none; stroke: #000000; stroke-width: 1.000000; stroke-linejoin: miter; stroke-linecap: square;  opacity: 1.000000"  d="M 186.791666,363.649357 L 184.303386,371.252545 "/>
</g>
<g id="xtick4">
<text style="font-size: 12.000000; font-family: Bitstream Vera Sans; font-style: Roman; fill: #000000;" x="227.710954" y="381.383903" >0.20</text>
<path style="fill: none; stroke: #000000; stroke-width: 1.000000; stroke-linejoin: miter; stroke-linecap: square;  opacity: 1.000000"  d="M 240.710954,376.883903 L 238.222674,384.487091 "/>
</g>
<g id="xtick5">
<text style="font-size: 12.000000; font-family: Bitstream Vera Sans; font-style: Roman; fill: #000000;" x="282.589092" y="394.853800" >0.25</text>
<path style="fill: none; stroke: #000000; stroke-width: 1.000000; stroke-linejoin: miter; stroke-linecap: square;  opacity: 1.000000"  d="M 295.589092,390.353800 L 293.100812,397.956987 "/>
</g>
<g id="xtick6">
<text style="font-size: 12.000000; font-family: Bitstream Vera Sans; font-style: Roman; fill: #000000;" x="338.451887" y="408.565382" >0.30</text>
<path style="fill: none; stroke: #000000; stroke-width: 1.000000; stroke-linejoin: miter; stroke-linecap: square;  opacity: 1.000000"  d="M 351.451887,404.065382 L 348.963607,411.668569 "/>
</g>
</g>
<g id="axis3d2">
<polygon style="fill: #e6e6e6; stroke: #e6e6e6; stroke-width: 1.000000; stroke-linejoin: miter; stroke-linecap: square;  opacity: 0.500000"  points = "76.357701,336.543225 241.211914,230.626613 238.467267,28.237352 64.421350,123.401250"/>
<path style="fill: none; stroke: #000000; stroke-width: 0.750000; stroke-linejoin: miter; stroke-linecap: square;  opacity: 1.000000"  d="M 357.328625,405.507833 L 508.260241,289.840834 "/>
<text style="font-size: 12.000000; font-family: Bitstream Vera Sans; font-style: Roman; fill: #000000;" x="425.958426" y="409.045229" transform="translate(425.958426,409.045229) rotate(-45.6) translate(-425.958426,-409.045229)">max_call_NA_rate</text>
<g id="linecollection2">
<path style="fill: none; stroke: #e6e6e6; stroke-width: 1.000000; stroke-linejoin: miter; stroke-linecap: butt;  opacity: 1.000000"  d="M 360.586508,403.011142 L 79.904448,334.264487 L 68.180167,121.346024 "/>
<path style="fill: none; stroke: #e6e6e6; stroke-width: 1.000000; stroke-linejoin: miter; stroke-linecap: butt;  opacity: 1.000000"  d="M 379.914611,388.198980 L 100.956846,320.738605 L 90.478343,109.153946 "/>
<path style="fill: none; stroke: #e6e6e6; stroke-width: 1.000000; stroke-linejoin: miter; stroke-linecap: butt;  opacity: 1.000000"  d="M 398.874695,373.668849 L 121.625951,307.458984 L 112.348919,97.195669 "/>
<path style="fill: none; stroke: #e6e6e6; stroke-width: 1.000000; stroke-linejoin: miter; stroke-linecap: butt;  opacity: 1.000000"  d="M 417.477173,359.412772 L 141.922136,294.418958 L 133.804078,85.464532 "/>
<path style="fill: none; stroke: #e6e6e6; stroke-width: 1.000000; stroke-linejoin: miter; stroke-linecap: butt;  opacity: 1.000000"  d="M 435.732067,345.423067 L 161.855403,281.612103 L 154.855544,73.954124 "/>
<path style="fill: none; stroke: #e6e6e6; stroke-width: 1.000000; stroke-linejoin: miter; stroke-linecap: butt;  opacity: 1.000000"  d="M 453.649029,331.692337 L 181.435400,269.032219 L 175.514605,62.658273 "/>
<path style="fill: none; stroke: #e6e6e6; stroke-width: 1.000000; stroke-linejoin: miter; stroke-linecap: butt;  opacity: 1.000000"  d="M 471.237356,318.213458 L 200.671436,256.673325 L 195.792131,51.571035 "/>
<path style="fill: none; stroke: #e6e6e6; stroke-width: 1.000000; stroke-linejoin: miter; stroke-linecap: butt;  opacity: 1.000000"  d="M 488.506009,304.979563 L 219.572495,244.529648 L 215.698595,40.686685 "/>
<path style="fill: none; stroke: #e6e6e6; stroke-width: 1.000000; stroke-linejoin: miter; stroke-linecap: butt;  opacity: 1.000000"  d="M 505.463623,291.984033 L 238.147253,232.595617 L 235.244090,29.999704 "/>
</g>
<g id="xtick7">
<text style="font-size: 12.000000; font-family: Bitstream Vera Sans; font-style: Roman; fill: #000000;" x="352.086508" y="407.511142" >0.1</text>
<path style="fill: none; stroke: #000000; stroke-width: 1.000000; stroke-linejoin: miter; stroke-linecap: square;  opacity: 1.000000"  d="M 360.586508,403.011142 L 366.304039,408.606662 "/>
</g>
<g id="xtick8">
<text style="font-size: 12.000000; font-family: Bitstream Vera Sans; font-style: Roman; fill: #000000;" x="370.891174" y="392.698980" >0.2</text>
<path style="fill: none; stroke: #000000; stroke-width: 1.000000; stroke-linejoin: miter; stroke-linecap: square;  opacity: 1.000000"  d="M 379.914611,388.198980 L 385.632141,393.794500 "/>
</g>
<g id="xtick9">
<text style="font-size: 12.000000; font-family: Bitstream Vera Sans; font-style: Roman; fill: #000000;" x="389.874695" y="378.168849" >0.3</text>
<path style="fill: none; stroke: #000000; stroke-width: 1.000000; stroke-linejoin: miter; stroke-linecap: square;  opacity: 1.000000"  d="M 398.874695,373.668849 L 404.592225,379.264370 "/>
</g>
<g id="xtick10">
<text style="font-size: 12.000000; font-family: Bitstream Vera Sans; font-style: Roman; fill: #000000;" x="408.477173" y="363.912772" >0.4</text>
<path style="fill: none; stroke: #000000; stroke-width: 1.000000; stroke-linejoin: miter; stroke-linecap: square;  opacity: 1.000000"  d="M 417.477173,359.412772 L 423.194703,365.008292 "/>
</g>
<g id="xtick11">
<text style="font-size: 12.000000; font-family: Bitstream Vera Sans; font-style: Roman; fill: #000000;" x="426.732067" y="349.923067" >0.5</text>
<path style="fill: none; stroke: #000000; stroke-width: 1.000000; stroke-linejoin: miter; stroke-linecap: square;  opacity: 1.000000"  d="M 435.732067,345.423067 L 441.449597,351.018587 "/>
</g>
<g id="xtick12">
<text style="font-size: 12.000000; font-family: Bitstream Vera Sans; font-style: Roman; fill: #000000;" x="444.649029" y="336.192337" >0.6</text>
<path style="fill: none; stroke: #000000; stroke-width: 1.000000; stroke-linejoin: miter; stroke-linecap: square;  opacity: 1.000000"  d="M 453.649029,331.692337 L 459.366559,337.287858 "/>
</g>
<g id="xtick13">
<text style="font-size: 12.000000; font-family: Bitstream Vera Sans; font-style: Roman; fill: #000000;" x="462.237356" y="322.713458" >0.7</text>
<path style="fill: none; stroke: #000000; stroke-width: 1.000000; stroke-linejoin: miter; stroke-linecap: square;  opacity: 1.000000"  d="M 471.237356,318.213458 L 476.954887,323.808978 "/>
</g>
<g id="xtick14">
<text style="font-size: 12.000000; font-family: Bitstream Vera Sans; font-style: Roman; fill: #000000;" x="479.506009" y="309.479563" >0.8</text>
<path style="fill: none; stroke: #000000; stroke-width: 1.000000; stroke-linejoin: miter; stroke-linecap: square;  opacity: 1.000000"  d="M 488.506009,304.979563 L 494.223539,310.575083 "/>
</g>
<g id="xtick15">
<text style="font-size: 12.000000; font-family: Bitstream Vera Sans; font-style: Roman; fill: #000000;" x="496.463623" y="296.484033" >0.9</text>
<path style="fill: none; stroke: #000000; stroke-width: 1.000000; stroke-linejoin: miter; stroke-linecap: square;  opacity: 1.000000"  d="M 505.463623,291.984033 L 511.181153,297.579553 "/>
</g>
</g>
<g id="axis3d3">
<polygon style="fill: #f2f2f2; stroke: #f2f2f2; stroke-width: 1.000000; stroke-linejoin: miter; stroke-linecap: square;  opacity: 0.100000"  points = "76.357701,336.543225 357.328625,405.507833 508.260241,289.840834 241.211914,230.626613"/>
<path style="fill: none; stroke: #000000; stroke-width: 0.750000; stroke-linejoin: miter; stroke-linecap: square;  opacity: 1.000000"  d="M 76.357701,336.543225 L 64.421350,123.401250 "/>
<text style="font-size: 12.000000; font-family: Bitstream Vera Sans; font-style: Roman; fill: #000000;" x="44.895489" y="345.616700" transform="translate(44.895489,345.616700) rotate(-92.4) translate(-44.895489,-345.616700)">no_of_monomorphic_snps_removed</text>
<g id="linecollection3">
<path style="fill: none; stroke: #e6e6e6; stroke-width: 1.000000; stroke-linejoin: miter; stroke-linecap: butt;  opacity: 1.000000"  d="M 76.131056,332.496136 L 241.159600,226.768965 L 508.472750,285.875342 "/>
<path style="fill: none; stroke: #e6e6e6; stroke-width: 1.000000; stroke-linejoin: miter; stroke-linecap: butt;  opacity: 1.000000"  d="M 74.300904,299.815941 L 240.737445,195.639460 L 510.188244,253.863550 "/>
<path style="fill: none; stroke: #e6e6e6; stroke-width: 1.000000; stroke-linejoin: miter; stroke-linecap: butt;  opacity: 1.000000"  d="M 72.439998,266.586586 L 240.308715,164.025048 L 511.931637,221.331161 "/>
<path style="fill: none; stroke: #e6e6e6; stroke-width: 1.000000; stroke-linejoin: miter; stroke-linecap: butt;  opacity: 1.000000"  d="M 70.547556,232.794112 L 239.873254,131.914310 L 513.703614,188.265371 "/>
<path style="fill: none; stroke: #e6e6e6; stroke-width: 1.000000; stroke-linejoin: miter; stroke-linecap: butt;  opacity: 1.000000"  d="M 68.622770,198.424081 L 239.430902,99.295467 L 515.504884,154.652955 "/>
<path style="fill: none; stroke: #e6e6e6; stroke-width: 1.000000; stroke-linejoin: miter; stroke-linecap: butt;  opacity: 1.000000"  d="M 66.664803,163.461560 L 238.981495,66.156361 L 517.336181,120.480244 "/>
<path style="fill: none; stroke: #e6e6e6; stroke-width: 1.000000; stroke-linejoin: miter; stroke-linecap: butt;  opacity: 1.000000"  d="M 64.672790,127.891094 L 238.524862,32.484445 L 519.198260,85.733110 "/>
</g>
<g id="xtick16">
<text style="font-size: 12.000000; font-family: Bitstream Vera Sans; font-style: Roman; fill: #000000;" x="73.131056" y="336.996136" >0</text>
<path style="fill: none; stroke: #000000; stroke-width: 1.000000; stroke-linejoin: miter; stroke-linecap: square;  opacity: 1.000000"  d="M 76.131056,332.496136 L 68.138103,332.831851 "/>
</g>
<g id="xtick17">
<text style="font-size: 12.000000; font-family: Bitstream Vera Sans; font-style: Roman; fill: #000000;" x="55.300904" y="304.315941" >10000</text>
<path style="fill: none; stroke: #000000; stroke-width: 1.000000; stroke-linejoin: miter; stroke-linecap: square;  opacity: 1.000000"  d="M 74.300904,299.815941 L 66.307951,300.151656 "/>
</g>
<g id="xtick18">
<text style="font-size: 12.000000; font-family: Bitstream Vera Sans; font-style: Roman; fill: #000000;" x="53.439998" y="271.086586" >20000</text>
<path style="fill: none; stroke: #000000; stroke-width: 1.000000; stroke-linejoin: miter; stroke-linecap: square;  opacity: 1.000000"  d="M 72.439998,266.586586 L 64.447045,266.922301 "/>
</g>
<g id="xtick19">
<text style="font-size: 12.000000; font-family: Bitstream Vera Sans; font-style: Roman; fill: #000000;" x="51.547556" y="237.294112" >30000</text>
<path style="fill: none; stroke: #000000; stroke-width: 1.000000; stroke-linejoin: miter; stroke-linecap: square;  opacity: 1.000000"  d="M 70.547556,232.794112 L 62.554603,233.129827 "/>
</g>
<g id="xtick20">
<text style="font-size: 12.000000; font-family: Bitstream Vera Sans; font-style: Roman; fill: #000000;" x="49.622770" y="202.924081" >40000</text>
<path style="fill: none; stroke: #000000; stroke-width: 1.000000; stroke-linejoin: miter; stroke-linecap: square;  opacity: 1.000000"  d="M 68.622770,198.424081 L 60.629817,198.759796 "/>
</g>
<g id="xtick21">
<text style="font-size: 12.000000; font-family: Bitstream Vera Sans; font-style: Roman; fill: #000000;" x="47.664803" y="167.961560" >50000</text>
<path style="fill: none; stroke: #000000; stroke-width: 1.000000; stroke-linejoin: miter; stroke-linecap: square;  opacity: 1.000000"  d="M 66.664803,163.461560 L 58.671850,163.797275 "/>
</g>
<g id="xtick22">
<text style="font-size: 12.000000; font-family: Bitstream Vera Sans; font-style: Roman; fill: #000000;" x="45.672790" y="132.391094" >60000</text>
<path style="fill: none; stroke: #000000; stroke-width: 1.000000; stroke-linejoin: miter; stroke-linecap: square;  opacity: 1.000000"  d="M 64.672790,127.891094 L 56.679837,128.226810 "/>
</g>
</g>
<g id="axes1">
<g id="regpolycollection1">
<defs>
    <clipPath id="4685744057707115011">
    <rect x="0.000000" y="0.000000" width="576.000000" height="432.000000"
    style="stroke: gray; fill: none;"/>
    </clipPath>
</defs>
<polygon style="fill: #0000ff; stroke: #000000; stroke-width: 1.000000; stroke-linejoin: miter; stroke-linecap: butt;  opacity: 0.527196" clip-path="url(#4685744057707115011)" points = "250.268764,313.443458 251.048455,313.566949 251.751824,313.925334 252.310021,314.483531 252.668406,315.186900 252.791897,315.966591 252.668406,316.746281 252.310021,317.449651 251.751824,318.007848 251.048455,318.366232 250.268764,318.489723 249.489074,318.366232 248.785704,318.007848 248.227507,317.449651 247.869123,316.746281 247.745632,315.966591 247.869123,315.186900 248.227507,314.483531 248.785704,313.925334 249.489074,313.566949"/>
<polygon style="fill: #0000ff; stroke: #000000; stroke-width: 1.000000; stroke-linejoin: miter; stroke-linecap: butt;  opacity: 0.779001" clip-path="url(#4685744057707115011)" points = "75.500799,151.134209 76.280490,151.257700 76.983859,151.616084 77.542056,152.174281 77.900441,152.877650 78.023932,153.657341 77.900441,154.437032 77.542056,155.140401 76.983859,155.698598 76.280490,156.056983 75.500799,156.180474 74.721108,156.056983 74.017739,155.698598 73.459542,155.140401 73.101157,154.437032 72.977667,153.657341 73.101157,152.877650 73.459542,152.174281 74.017739,151.616084 74.721108,151.257700"/>
<polygon style="fill: #0000ff; stroke: #000000; stroke-width: 1.000000; stroke-linejoin: miter; stroke-linecap: butt;  opacity: 0.533659" clip-path="url(#4685744057707115011)" points = "106.091320,315.297305 106.871011,315.420796 107.574380,315.779180 108.132577,316.337377 108.490962,317.040746 108.614453,317.820437 108.490962,318.600128 108.132577,319.303497 107.574380,319.861694 106.871011,320.220079 106.091320,320.343570 105.311630,320.220079 104.608260,319.861694 104.050063,319.303497 103.691679,318.600128 103.568188,317.820437 103.691679,317.040746 104.050063,316.337377 104.608260,315.779180 105.311630,315.420796"/>
<polygon style="fill: #0000ff; stroke: #000000; stroke-width: 1.000000; stroke-linejoin: miter; stroke-linecap: butt;  opacity: 0.492765" clip-path="url(#4685744057707115011)" points = "126.761601,302.204306 127.541292,302.327797 128.244661,302.686181 128.802858,303.244378 129.161243,303.947748 129.284734,304.727438 129.161243,305.507129 128.802858,306.210499 128.244661,306.768696 127.541292,307.127080 126.761601,307.250571 125.981910,307.127080 125.278541,306.768696 124.720344,306.210499 124.361960,305.507129 124.238469,304.727438 124.361960,303.947748 124.720344,303.244378 125.278541,302.686181 125.981910,302.327797"/>
<polygon style="fill: #0000ff; stroke: #000000; stroke-width: 1.000000; stroke-linejoin: miter; stroke-linecap: butt;  opacity: 0.375052" clip-path="url(#4685744057707115011)" points = "186.544361,263.779559 187.324052,263.903050 188.027421,264.261435 188.585618,264.819632 188.944003,265.523001 189.067494,266.302692 188.944003,267.082383 188.585618,267.785752 188.027421,268.343949 187.324052,268.702334 186.544361,268.825824 185.764671,268.702334 185.061301,268.343949 184.503104,267.785752 184.144720,267.082383 184.021229,266.302692 184.144720,265.523001 184.503104,264.819632 185.061301,264.261435 185.764671,263.903050"/>
<polygon style="fill: #0000ff; stroke: #000000; stroke-width: 1.000000; stroke-linejoin: miter; stroke-linecap: butt;  opacity: 0.452818" clip-path="url(#4685744057707115011)" points = "147.049403,289.164533 147.829094,289.288024 148.532463,289.646408 149.090660,290.204605 149.449045,290.907974 149.572535,291.687665 149.449045,292.467356 149.090660,293.170725 148.532463,293.728922 147.829094,294.087307 147.049403,294.210798 146.269712,294.087307 145.566343,293.728922 145.008146,293.170725 144.649761,292.467356 144.526270,291.687665 144.649761,290.907974 145.008146,290.204605 145.566343,289.646408 146.269712,289.288024"/>
<polygon style="fill: #0000ff; stroke: #000000; stroke-width: 1.000000; stroke-linejoin: miter; stroke-linecap: butt;  opacity: 0.413587" clip-path="url(#4685744057707115011)" points = "166.973763,276.358358 167.753454,276.481848 168.456823,276.840233 169.015020,277.398430 169.373405,278.101799 169.496896,278.881490 169.373405,279.661181 169.015020,280.364550 168.456823,280.922747 167.753454,281.281132 166.973763,281.404623 166.194072,281.281132 165.490703,280.922747 164.932506,280.364550 164.574122,279.661181 164.450631,278.881490 164.574122,278.101799 164.932506,277.398430 165.490703,276.840233 166.194072,276.481848"/>
<polygon style="fill: #0000ff; stroke: #000000; stroke-width: 1.000000; stroke-linejoin: miter; stroke-linecap: butt;  opacity: 0.821601" clip-path="url(#4685744057707115011)" points = "129.873979,162.826580 130.653670,162.950070 131.357039,163.308455 131.915236,163.866652 132.273621,164.570021 132.397111,165.349712 132.273621,166.129403 131.915236,166.832772 131.357039,167.390969 130.653670,167.749354 129.873979,167.872845 129.094288,167.749354 128.390919,167.390969 127.832722,166.832772 127.474337,166.129403 127.350846,165.349712 127.474337,164.570021 127.832722,163.866652 128.390919,163.308455 129.094288,162.950070"/>
<polygon style="fill: #0000ff; stroke: #000000; stroke-width: 1.000000; stroke-linejoin: miter; stroke-linecap: butt;  opacity: 0.337196" clip-path="url(#4685744057707115011)" points = "205.770536,251.422136 206.550227,251.545626 207.253596,251.904011 207.811793,252.462208 208.170178,253.165577 208.293669,253.945268 208.170178,254.724959 207.811793,255.428328 207.253596,255.986525 206.550227,256.344910 205.770536,256.468401 204.990846,256.344910 204.287476,255.986525 203.729279,255.428328 203.370895,254.724959 203.247404,253.945268 203.370895,253.165577 203.729279,252.462208 204.287476,251.904011 204.990846,251.545626"/>
<polygon style="fill: #0000ff; stroke: #000000; stroke-width: 1.000000; stroke-linejoin: miter; stroke-linecap: butt;  opacity: 0.300000" clip-path="url(#4685744057707115011)" points = "224.661301,239.280293 225.440992,239.403784 226.144361,239.762169 226.702558,240.320366 227.060943,241.023735 227.184434,241.803426 227.060943,242.583117 226.702558,243.286486 226.144361,243.844683 225.440992,244.203067 224.661301,244.326558 223.881610,244.203067 223.178241,243.844683 222.620044,243.286486 222.261659,242.583117 222.138169,241.803426 222.261659,241.023735 222.620044,240.320366 223.178241,239.762169 223.881610,239.403784"/>
<polygon style="fill: #0000ff; stroke: #000000; stroke-width: 1.000000; stroke-linejoin: miter; stroke-linecap: butt;  opacity: 0.571795" clip-path="url(#4685744057707115011)" points = "157.871520,327.886389 158.651211,328.009880 159.354580,328.368265 159.912777,328.926462 160.271162,329.629831 160.394653,330.409522 160.271162,331.189213 159.912777,331.892582 159.354580,332.450779 158.651211,332.809164 157.871520,332.932655 157.091830,332.809164 156.388460,332.450779 155.830263,331.892582 155.471879,331.189213 155.348388,330.409522 155.471879,329.629831 155.830263,328.926462 156.388460,328.368265 157.091830,328.009880"/>
<polygon style="fill: #0000ff; stroke: #000000; stroke-width: 1.000000; stroke-linejoin: miter; stroke-linecap: butt;  opacity: 0.530319" clip-path="url(#4685744057707115011)" points = "178.235093,314.463078 179.014783,314.586568 179.718153,314.944953 180.276350,315.503150 180.634734,316.206519 180.758225,316.986210 180.634734,317.765901 180.276350,318.469270 179.718153,319.027467 179.014783,319.385852 178.235093,319.509343 177.455402,319.385852 176.752032,319.027467 176.193835,318.469270 175.835451,317.765901 175.711960,316.986210 175.835451,316.206519 176.193835,315.503150 176.752032,314.944953 177.455402,314.586568"/>
<polygon style="fill: #0000ff; stroke: #000000; stroke-width: 1.000000; stroke-linejoin: miter; stroke-linecap: butt;  opacity: 0.489694" clip-path="url(#4685744057707115011)" points = "198.224565,301.201789 199.004255,301.325280 199.707625,301.683665 200.265822,302.241862 200.624206,302.945231 200.747697,303.724922 200.624206,304.504613 200.265822,305.207982 199.707625,305.766179 199.004255,306.124563 198.224565,306.248054 197.444874,306.124563 196.741505,305.766179 196.183308,305.207982 195.824923,304.504613 195.701432,303.724922 195.824923,302.945231 196.183308,302.241862 196.741505,301.683665 197.444874,301.325280"/>
<polygon style="fill: #0000ff; stroke: #000000; stroke-width: 1.000000; stroke-linejoin: miter; stroke-linecap: butt;  opacity: 0.449802" clip-path="url(#4685744057707115011)" points = "217.852952,288.180050 218.632643,288.303540 219.336012,288.661925 219.894209,289.220122 220.252593,289.923491 220.376084,290.703182 220.252593,291.482873 219.894209,292.186242 219.336012,292.744439 218.632643,293.102824 217.852952,293.226315 217.073261,293.102824 216.369892,292.744439 215.811695,292.186242 215.453310,291.482873 215.329819,290.703182 215.453310,289.923491 215.811695,289.220122 216.369892,288.661925 217.073261,288.303540"/>
<polygon style="fill: #0000ff; stroke: #000000; stroke-width: 1.000000; stroke-linejoin: miter; stroke-linecap: butt;  opacity: 0.410625" clip-path="url(#4685744057707115011)" points = "237.129950,275.391426 237.909641,275.514917 238.613011,275.873301 239.171208,276.431498 239.529592,277.134867 239.653083,277.914558 239.529592,278.694249 239.171208,279.397618 238.613011,279.955815 237.909641,280.314200 237.129950,280.437691 236.350260,280.314200 235.646890,279.955815 235.088693,279.397618 234.730309,278.694249 234.606818,277.914558 234.730309,277.134867 235.088693,276.431498 235.646890,275.873301 236.350260,275.514917"/>
<polygon style="fill: #0000ff; stroke: #000000; stroke-width: 1.000000; stroke-linejoin: miter; stroke-linecap: butt;  opacity: 0.864978" clip-path="url(#4685744057707115011)" points = "185.240525,174.732563 186.020216,174.856054 186.723585,175.214439 187.281782,175.772636 187.640167,176.476005 187.763658,177.255696 187.640167,178.035387 187.281782,178.738756 186.723585,179.296953 186.020216,179.655337 185.240525,179.778828 184.460834,179.655337 183.757465,179.296953 183.199268,178.738756 182.840884,178.035387 182.717393,177.255696 182.840884,176.476005 183.199268,175.772636 183.757465,175.214439 184.460834,174.856054"/>
<polygon style="fill: #0000ff; stroke: #000000; stroke-width: 1.000000; stroke-linejoin: miter; stroke-linecap: butt;  opacity: 0.372143" clip-path="url(#4685744057707115011)" points = "256.064913,262.829714 256.844603,262.953205 257.547973,263.311589 258.106170,263.869786 258.464554,264.573155 258.588045,265.352846 258.464554,266.132537 258.106170,266.835906 257.547973,267.394103 256.844603,267.752488 256.064913,267.875979 255.285222,267.752488 254.581853,267.394103 254.023656,266.835906 253.665271,266.132537 253.541780,265.352846 253.665271,264.573155 254.023656,263.869786 254.581853,263.311589 255.285222,262.953205"/>
<polygon style="fill: #0000ff; stroke: #000000; stroke-width: 1.000000; stroke-linejoin: miter; stroke-linecap: butt;  opacity: 0.334337" clip-path="url(#4685744057707115011)" points = "274.666862,250.488927 275.446552,250.612418 276.149922,250.970803 276.708119,251.529000 277.066503,252.232369 277.189994,253.012060 277.066503,253.791751 276.708119,254.495120 276.149922,255.053317 275.446552,255.411701 274.666862,255.535192 273.887171,255.411701 273.183802,255.053317 272.625604,254.495120 272.267220,253.791751 272.143729,253.012060 272.267220,252.232369 272.625604,251.529000 273.183802,250.970803 273.887171,250.612418"/>
<polygon style="fill: #0000ff; stroke: #000000; stroke-width: 1.000000; stroke-linejoin: miter; stroke-linecap: butt;  opacity: 0.610707" clip-path="url(#4685744057707115011)" points = "210.542538,340.591661 211.322229,340.715152 212.025598,341.073537 212.583795,341.631734 212.942180,342.335103 213.065671,343.114794 212.942180,343.894485 212.583795,344.597854 212.025598,345.156051 211.322229,345.514436 210.542538,345.637926 209.762847,345.514436 209.059478,345.156051 208.501281,344.597854 208.142896,343.894485 208.019406,343.114794 208.142896,342.335103 208.501281,341.631734 209.059478,341.073537 209.762847,340.715152"/>
<polygon style="fill: #0000ff; stroke: #000000; stroke-width: 1.000000; stroke-linejoin: miter; stroke-linecap: butt;  opacity: 0.568517" clip-path="url(#4685744057707115011)" points = "230.590797,326.931954 231.370488,327.055445 232.073857,327.413830 232.632054,327.972027 232.990439,328.675396 233.113929,329.455087 232.990439,330.234778 232.632054,330.938147 232.073857,331.496344 231.370488,331.854728 230.590797,331.978219 229.811106,331.854728 229.107737,331.496344 228.549540,330.938147 228.191155,330.234778 228.067664,329.455087 228.191155,328.675396 228.549540,327.972027 229.107737,327.413830 229.811106,327.055445"/>
<polygon style="fill: #0000ff; stroke: #000000; stroke-width: 1.000000; stroke-linejoin: miter; stroke-linecap: butt;  opacity: 0.527196" clip-path="url(#4685744057707115011)" points = "250.268764,313.443458 251.048455,313.566949 251.751824,313.925334 252.310021,314.483531 252.668406,315.186900 252.791897,315.966591 252.668406,316.746281 252.310021,317.449651 251.751824,318.007848 251.048455,318.366232 250.268764,318.489723 249.489074,318.366232 248.785704,318.007848 248.227507,317.449651 247.869123,316.746281 247.745632,315.966591 247.869123,315.186900 248.227507,314.483531 248.785704,313.925334 249.489074,313.566949"/>
<polygon style="fill: #0000ff; stroke: #000000; stroke-width: 1.000000; stroke-linejoin: miter; stroke-linecap: butt;  opacity: 0.486627" clip-path="url(#4685744057707115011)" points = "269.588283,300.200665 270.367974,300.324156 271.071343,300.682540 271.629540,301.240737 271.987925,301.944106 272.111416,302.723797 271.987925,303.503488 271.629540,304.206857 271.071343,304.765054 270.367974,305.123439 269.588283,305.246930 268.808592,305.123439 268.105223,304.765054 267.547026,304.206857 267.188642,303.503488 267.065151,302.723797 267.188642,301.944106 267.547026,301.240737 268.105223,300.682540 268.808592,300.324156"/>
<polygon style="fill: #0000ff; stroke: #000000; stroke-width: 1.000000; stroke-linejoin: miter; stroke-linecap: butt;  opacity: 0.909156" clip-path="url(#4685744057707115011)" points = "241.627911,186.858068 242.407602,186.981559 243.110971,187.339943 243.669168,187.898140 244.027553,188.601509 244.151044,189.381200 244.027553,190.160891 243.669168,190.864260 243.110971,191.422457 242.407602,191.780842 241.627911,191.904333 240.848220,191.780842 240.144851,191.422457 239.586654,190.864260 239.228270,190.160891 239.104779,189.381200 239.228270,188.601509 239.586654,187.898140 240.144851,187.339943 240.848220,186.981559"/>
<polygon style="fill: #0000ff; stroke: #000000; stroke-width: 1.000000; stroke-linejoin: miter; stroke-linecap: butt;  opacity: 0.446790" clip-path="url(#4685744057707115011)" points = "288.559059,287.196921 289.338750,287.320412 290.042119,287.678797 290.600316,288.236994 290.958701,288.940363 291.082192,289.720054 290.958701,290.499745 290.600316,291.203114 290.042119,291.761311 289.338750,292.119695 288.559059,292.243186 287.779368,292.119695 287.075999,291.761311 286.517802,291.203114 286.159418,290.499745 286.035927,289.720054 286.159418,288.940363 286.517802,288.236994 287.075999,287.678797 287.779368,287.320412"/>
<polygon style="fill: #0000ff; stroke: #000000; stroke-width: 1.000000; stroke-linejoin: miter; stroke-linecap: butt;  opacity: 0.407667" clip-path="url(#4685744057707115011)" points = "307.190451,274.425813 307.970142,274.549304 308.673511,274.907688 309.231708,275.465885 309.590092,276.169255 309.713583,276.948945 309.590092,277.728636 309.231708,278.432005 308.673511,278.990202 307.970142,279.348587 307.190451,279.472078 306.410760,279.348587 305.707391,278.990202 305.149194,278.432005 304.790809,277.728636 304.667318,276.948945 304.790809,276.169255 305.149194,275.465885 305.707391,274.907688 306.410760,274.549304"/>
<polygon style="fill: #0000ff; stroke: #000000; stroke-width: 1.000000; stroke-linejoin: miter; stroke-linecap: butt;  opacity: 0.369237" clip-path="url(#4685744057707115011)" points = "325.491484,261.881152 326.271175,262.004643 326.974545,262.363028 327.532742,262.921225 327.891126,263.624594 328.014617,264.404285 327.891126,265.183975 327.532742,265.887345 326.974545,266.445542 326.271175,266.803926 325.491484,266.927417 324.711794,266.803926 324.008424,266.445542 323.450227,265.887345 323.091843,265.183975 322.968352,264.404285 323.091843,263.624594 323.450227,262.921225 324.008424,262.363028 324.711794,262.004643"/>
<polygon style="fill: #0000ff; stroke: #000000; stroke-width: 1.000000; stroke-linejoin: miter; stroke-linecap: butt;  opacity: 0.650301" clip-path="url(#4685744057707115011)" points = "264.132600,353.515358 264.912291,353.638849 265.615660,353.997233 266.173857,354.555430 266.532242,355.258799 266.655733,356.038490 266.532242,356.818181 266.173857,357.521550 265.615660,358.079747 264.912291,358.438132 264.132600,358.561623 263.352910,358.438132 262.649540,358.079747 262.091343,357.521550 261.732959,356.818181 261.609468,356.038490 261.732959,355.258799 262.091343,354.555430 262.649540,353.997233 263.352910,353.638849"/>
<polygon style="fill: #0000ff; stroke: #000000; stroke-width: 1.000000; stroke-linejoin: miter; stroke-linecap: butt;  opacity: 0.607375" clip-path="url(#4685744057707115011)" points = "283.851591,339.616384 284.631282,339.739875 285.334651,340.098260 285.892848,340.656457 286.251233,341.359826 286.374724,342.139517 286.251233,342.919208 285.892848,343.622577 285.334651,344.180774 284.631282,344.539159 283.851591,344.662650 283.071900,344.539159 282.368531,344.180774 281.810334,343.622577 281.451950,342.919208 281.328459,342.139517 281.451950,341.359826 281.810334,340.656457 282.368531,340.098260 283.071900,339.739875"/>
<polygon style="fill: #0000ff; stroke: #000000; stroke-width: 1.000000; stroke-linejoin: miter; stroke-linecap: butt;  opacity: 0.954155" clip-path="url(#4685744057707115011)" points = "299.064633,199.209221 299.844324,199.332711 300.547693,199.691096 301.105890,200.249293 301.464274,200.952662 301.587765,201.732353 301.464274,202.512044 301.105890,203.215413 300.547693,203.773610 299.844324,204.131995 299.064633,204.255486 298.284942,204.131995 297.581573,203.773610 297.023376,203.215413 296.664991,202.512044 296.541500,201.732353 296.664991,200.952662 297.023376,200.249293 297.581573,199.691096 298.284942,199.332711"/>
<polygon style="fill: #0000ff; stroke: #000000; stroke-width: 1.000000; stroke-linejoin: miter; stroke-linecap: butt;  opacity: 0.565340" clip-path="url(#4685744057707115011)" points = "303.204328,325.894791 303.984019,326.018282 304.687388,326.376666 305.245585,326.934863 305.603970,327.638232 305.727461,328.417923 305.603970,329.197614 305.245585,329.900983 304.687388,330.459180 303.984019,330.817565 303.204328,330.941056 302.424637,330.817565 301.721268,330.459180 301.163071,329.900983 300.804687,329.197614 300.681196,328.417923 300.804687,327.638232 301.163071,326.934863 301.721268,326.376666 302.424637,326.018282"/>
<polygon style="fill: #0000ff; stroke: #000000; stroke-width: 1.000000; stroke-linejoin: miter; stroke-linecap: butt;  opacity: 0.524076" clip-path="url(#4685744057707115011)" points = "322.201550,312.425267 322.981241,312.548758 323.684610,312.907142 324.242807,313.465339 324.601192,314.168708 324.724682,314.948399 324.601192,315.728090 324.242807,316.431459 323.684610,316.989656 322.981241,317.348041 322.201550,317.471532 321.421859,317.348041 320.718490,316.989656 320.160293,316.431459 319.801908,315.728090 319.678417,314.948399 319.801908,314.168708 320.160293,313.465339 320.718490,312.907142 321.421859,312.548758"/>
<polygon style="fill: #0000ff; stroke: #000000; stroke-width: 1.000000; stroke-linejoin: miter; stroke-linecap: butt;  opacity: 0.483564" clip-path="url(#4685744057707115011)" points = "340.852963,299.200930 341.632654,299.324420 342.336024,299.682805 342.894221,300.241002 343.252605,300.944371 343.376096,301.724062 343.252605,302.503753 342.894221,303.207122 342.336024,303.765319 341.632654,304.123704 340.852963,304.247195 340.073273,304.123704 339.369903,303.765319 338.811706,303.207122 338.453322,302.503753 338.329831,301.724062 338.453322,300.944371 338.811706,300.241002 339.369903,299.682805 340.073273,299.324420"/>
<polygon style="fill: #0000ff; stroke: #000000; stroke-width: 1.000000; stroke-linejoin: miter; stroke-linecap: butt;  opacity: 0.443783" clip-path="url(#4685744057707115011)" points = "359.167926,286.215145 359.947617,286.338636 360.650986,286.697020 361.209183,287.255217 361.567567,287.958587 361.691058,288.738278 361.567567,289.517968 361.209183,290.221338 360.650986,290.779535 359.947617,291.137919 359.167926,291.261410 358.388235,291.137919 357.684866,290.779535 357.126669,290.221338 356.768284,289.517968 356.644793,288.738278 356.768284,287.958587 357.126669,287.255217 357.684866,286.697020 358.388235,286.338636"/>
<polygon style="fill: #0000ff; stroke: #000000; stroke-width: 1.000000; stroke-linejoin: miter; stroke-linecap: butt;  opacity: 0.404713" clip-path="url(#4685744057707115011)" points = "377.155460,273.461516 377.935150,273.585007 378.638520,273.943391 379.196717,274.501588 379.555101,275.204958 379.678592,275.984649 379.555101,276.764339 379.196717,277.467709 378.638520,278.025906 377.935150,278.384290 377.155460,278.507781 376.375769,278.384290 375.672399,278.025906 375.114202,277.467709 374.755818,276.764339 374.632327,275.984649 374.755818,275.204958 375.114202,274.501588 375.672399,273.943391 376.375769,273.585007"/>
<polygon style="fill: #0000ff; stroke: #000000; stroke-width: 1.000000; stroke-linejoin: miter; stroke-linecap: butt;  opacity: 0.690592" clip-path="url(#4685744057707115011)" points = "318.666093,366.666570 319.445784,366.790061 320.149153,367.148446 320.707350,367.706643 321.065735,368.410012 321.189226,369.189703 321.065735,369.969394 320.707350,370.672763 320.149153,371.230960 319.445784,371.589344 318.666093,371.712835 317.886402,371.589344 317.183033,371.230960 316.624836,370.672763 316.266452,369.969394 316.142961,369.189703 316.266452,368.410012 316.624836,367.706643 317.183033,367.148446 317.886402,366.790061"/>
<polygon style="fill: #0000ff; stroke: #000000; stroke-width: 1.000000; stroke-linejoin: miter; stroke-linecap: butt;  opacity: 0.646911" clip-path="url(#4685744057707115011)" points = "338.041150,352.522006 338.820840,352.645497 339.524210,353.003882 340.082407,353.562079 340.440791,354.265448 340.564282,355.045139 340.440791,355.824830 340.082407,356.528199 339.524210,357.086396 338.820840,357.444781 338.041150,357.568271 337.261459,357.444781 336.558089,357.086396 335.999892,356.528199 335.641508,355.824830 335.518017,355.045139 335.641508,354.265448 335.999892,353.562079 336.558089,353.003882 337.261459,352.645497"/>
<polygon style="fill: #0000ff; stroke: #000000; stroke-width: 1.000000; stroke-linejoin: miter; stroke-linecap: butt;  opacity: 0.604143" clip-path="url(#4685744057707115011)" points = "357.054354,338.561220 357.834044,338.684711 358.537414,339.043096 359.095611,339.601293 359.453995,340.304662 359.577486,341.084353 359.453995,341.864044 359.095611,342.567413 358.537414,343.125610 357.834044,343.483994 357.054354,343.607485 356.274663,343.483994 355.571294,343.125610 355.013097,342.567413 354.654712,341.864044 354.531221,341.084353 354.654712,340.304662 355.013097,339.601293 355.571294,339.043096 356.274663,338.684711"/>
<polygon style="fill: #0000ff; stroke: #000000; stroke-width: 1.000000; stroke-linejoin: miter; stroke-linecap: butt;  opacity: 1.000000" clip-path="url(#4685744057707115011)" points = "357.580256,211.792380 358.359947,211.915871 359.063316,212.274255 359.621513,212.832452 359.979898,213.535821 360.103389,214.315512 359.979898,215.095203 359.621513,215.798572 359.063316,216.356769 358.359947,216.715154 357.580256,216.838645 356.800565,216.715154 356.097196,216.356769 355.538999,215.798572 355.180615,215.095203 355.057124,214.315512 355.180615,213.535821 355.538999,212.832452 356.097196,212.274255 356.800565,211.915871"/>
<polygon style="fill: #0000ff; stroke: #000000; stroke-width: 1.000000; stroke-linejoin: miter; stroke-linecap: butt;  opacity: 0.562167" clip-path="url(#4685744057707115011)" points = "375.715291,324.859092 376.494982,324.982583 377.198351,325.340968 377.756548,325.899165 378.114932,326.602534 378.238423,327.382225 378.114932,328.161916 377.756548,328.865285 377.198351,329.423482 376.494982,329.781866 375.715291,329.905357 374.935600,329.781866 374.232231,329.423482 373.674034,328.865285 373.315649,328.161916 373.192158,327.382225 373.315649,326.602534 373.674034,325.899165 374.232231,325.340968 374.935600,324.982583"/>
<polygon style="fill: #0000ff; stroke: #000000; stroke-width: 1.000000; stroke-linejoin: miter; stroke-linecap: butt;  opacity: 0.520962" clip-path="url(#4685744057707115011)" points = "394.033661,311.408500 394.813352,311.531991 395.516721,311.890376 396.074918,312.448573 396.433303,313.151942 396.556794,313.931633 396.433303,314.711324 396.074918,315.414693 395.516721,315.972890 394.813352,316.331274 394.033661,316.454765 393.253970,316.331274 392.550601,315.972890 391.992404,315.414693 391.634019,314.711324 391.510528,313.931633 391.634019,313.151942 391.992404,312.448573 392.550601,311.890376 393.253970,311.531991"/>
<polygon style="fill: #0000ff; stroke: #000000; stroke-width: 1.000000; stroke-linejoin: miter; stroke-linecap: butt;  opacity: 0.480506" clip-path="url(#4685744057707115011)" points = "412.018811,298.202581 412.798502,298.326072 413.501872,298.684456 414.060069,299.242653 414.418453,299.946023 414.541944,300.725713 414.418453,301.505404 414.060069,302.208773 413.501872,302.766970 412.798502,303.125355 412.018811,303.248846 411.239121,303.125355 410.535751,302.766970 409.977554,302.208773 409.619170,301.505404 409.495679,300.725713 409.619170,299.946023 409.977554,299.242653 410.535751,298.684456 411.239121,298.326072"/>
<polygon style="fill: #0000ff; stroke: #000000; stroke-width: 1.000000; stroke-linejoin: miter; stroke-linecap: butt;  opacity: 0.731599" clip-path="url(#4685744057707115011)" points = "374.168151,380.051360 374.947842,380.174851 375.651211,380.533236 376.209408,381.091433 376.567792,381.794802 376.691283,382.574493 376.567792,383.354184 376.209408,384.057553 375.651211,384.615750 374.947842,384.974134 374.168151,385.097625 373.388460,384.974134 372.685091,384.615750 372.126894,384.057553 371.768509,383.354184 371.645018,382.574493 371.768509,381.794802 372.126894,381.091433 372.685091,380.533236 373.388460,380.174851"/>
<polygon style="fill: #0000ff; stroke: #000000; stroke-width: 1.000000; stroke-linejoin: miter; stroke-linecap: butt;  opacity: 0.440779" clip-path="url(#4685744057707115011)" points = "429.679752,285.234718 430.459443,285.358209 431.162813,285.716594 431.721010,286.274791 432.079394,286.978160 432.202885,287.757851 432.079394,288.537541 431.721010,289.240911 431.162813,289.799108 430.459443,290.157492 429.679752,290.280983 428.900062,290.157492 428.196692,289.799108 427.638495,289.240911 427.280111,288.537541 427.156620,287.757851 427.280111,286.978160 427.638495,286.274791 428.196692,285.716594 428.900062,285.358209"/>
<polygon style="fill: #0000ff; stroke: #000000; stroke-width: 1.000000; stroke-linejoin: miter; stroke-linecap: butt;  opacity: 0.687142" clip-path="url(#4685744057707115011)" points = "393.183980,365.654657 393.963670,365.778148 394.667040,366.136532 395.225237,366.694729 395.583621,367.398098 395.707112,368.177789 395.583621,368.957480 395.225237,369.660849 394.667040,370.219046 393.963670,370.577431 393.183980,370.700922 392.404289,370.577431 391.700920,370.219046 391.142723,369.660849 390.784338,368.957480 390.660847,368.177789 390.784338,367.398098 391.142723,366.694729 391.700920,366.136532 392.404289,365.778148"/>
<polygon style="fill: #0000ff; stroke: #000000; stroke-width: 1.000000; stroke-linejoin: miter; stroke-linecap: butt;  opacity: 0.643622" clip-path="url(#4685744057707115011)" points = "411.842743,351.448369 412.622434,351.571859 413.325803,351.930244 413.884000,352.488441 414.242385,353.191810 414.365876,353.971501 414.242385,354.751192 413.884000,355.454561 413.325803,356.012758 412.622434,356.371143 411.842743,356.494634 411.063052,356.371143 410.359683,356.012758 409.801486,355.454561 409.443102,354.751192 409.319611,353.971501 409.443102,353.191810 409.801486,352.488441 410.359683,351.930244 411.063052,351.571859"/>
<polygon style="fill: #0000ff; stroke: #000000; stroke-width: 1.000000; stroke-linejoin: miter; stroke-linecap: butt;  opacity: 0.558999" clip-path="url(#4685744057707115011)" points = "448.123902,323.824856 448.903593,323.948347 449.606962,324.306731 450.165159,324.864928 450.523544,325.568297 450.647034,326.347988 450.523544,327.127679 450.165159,327.831048 449.606962,328.389245 448.903593,328.747630 448.123902,328.871121 447.344211,328.747630 446.640842,328.389245 446.082645,327.831048 445.724260,327.127679 445.600769,326.347988 445.724260,325.568297 446.082645,324.864928 446.640842,324.306731 447.344211,323.948347"/>
<polygon style="fill: #0000ff; stroke: #000000; stroke-width: 1.000000; stroke-linejoin: miter; stroke-linecap: butt;  opacity: 0.600915" clip-path="url(#4685744057707115011)" points = "430.152823,337.507559 430.932514,337.631050 431.635883,337.989435 432.194080,338.547632 432.552464,339.251001 432.675955,340.030692 432.552464,340.810382 432.194080,341.513752 431.635883,342.071949 430.932514,342.430333 430.152823,342.553824 429.373132,342.430333 428.669763,342.071949 428.111566,341.513752 427.753181,340.810382 427.629690,340.030692 427.753181,339.251001 428.111566,338.547632 428.669763,337.989435 429.373132,337.631050"/>
<polygon style="fill: #0000ff; stroke: #000000; stroke-width: 1.000000; stroke-linejoin: miter; stroke-linecap: butt;  opacity: 0.477452" clip-path="url(#4685744057707115011)" points = "483.086033,297.205616 483.865724,297.329107 484.569093,297.687491 485.127290,298.245688 485.485674,298.949057 485.609165,299.728748 485.485674,300.508439 485.127290,301.211808 484.569093,301.770005 483.865724,302.128390 483.086033,302.251881 482.306342,302.128390 481.602973,301.770005 481.044776,301.211808 480.686391,300.508439 480.562900,299.728748 480.686391,298.949057 481.044776,298.245688 481.602973,297.687491 482.306342,297.329107"/>
<polygon style="fill: #0000ff; stroke: #000000; stroke-width: 1.000000; stroke-linejoin: miter; stroke-linecap: butt;  opacity: 0.517851" clip-path="url(#4685744057707115011)" points = "465.765309,310.393156 466.545000,310.516647 467.248369,310.875031 467.806566,311.433228 468.164950,312.136598 468.288441,312.916288 468.164950,313.695979 467.806566,314.399349 467.248369,314.957546 466.545000,315.315930 465.765309,315.439421 464.985618,315.315930 464.282249,314.957546 463.724052,314.399349 463.365667,313.695979 463.242176,312.916288 463.365667,312.136598 463.724052,311.433228 464.282249,310.875031 464.985618,310.516647"/>
<polygon style="fill: #0000ff; stroke: #000000; stroke-width: 1.000000; stroke-linejoin: miter; stroke-linecap: butt;  opacity: 0.452818" clip-path="url(#4685744057707115011)" points = "147.049403,289.164533 147.829094,289.288024 148.532463,289.646408 149.090660,290.204605 149.449045,290.907974 149.572535,291.687665 149.449045,292.467356 149.090660,293.170725 148.532463,293.728922 147.829094,294.087307 147.049403,294.210798 146.269712,294.087307 145.566343,293.728922 145.008146,293.170725 144.649761,292.467356 144.526270,291.687665 144.649761,290.907974 145.008146,290.204605 145.566343,289.646408 146.269712,289.288024"/>
<polygon style="fill: #0000ff; stroke: #000000; stroke-width: 1.000000; stroke-linejoin: miter; stroke-linecap: butt;  opacity: 0.489694" clip-path="url(#4685744057707115011)" points = "198.224565,301.201789 199.004255,301.325280 199.707625,301.683665 200.265822,302.241862 200.624206,302.945231 200.747697,303.724922 200.624206,304.504613 200.265822,305.207982 199.707625,305.766179 199.004255,306.124563 198.224565,306.248054 197.444874,306.124563 196.741505,305.766179 196.183308,305.207982 195.824923,304.504613 195.701432,303.724922 195.824923,302.945231 196.183308,302.241862 196.741505,301.683665 197.444874,301.325280"/>
<polygon style="fill: #0000ff; stroke: #000000; stroke-width: 1.000000; stroke-linejoin: miter; stroke-linecap: butt;  opacity: 0.527196" clip-path="url(#4685744057707115011)" points = "250.268764,313.443458 251.048455,313.566949 251.751824,313.925334 252.310021,314.483531 252.668406,315.186900 252.791897,315.966591 252.668406,316.746281 252.310021,317.449651 251.751824,318.007848 251.048455,318.366232 250.268764,318.489723 249.489074,318.366232 248.785704,318.007848 248.227507,317.449651 247.869123,316.746281 247.745632,315.966591 247.869123,315.186900 248.227507,314.483531 248.785704,313.925334 249.489074,313.566949"/>
<polygon style="fill: #0000ff; stroke: #000000; stroke-width: 1.000000; stroke-linejoin: miter; stroke-linecap: butt;  opacity: 0.565340" clip-path="url(#4685744057707115011)" points = "303.204328,325.894791 303.984019,326.018282 304.687388,326.376666 305.245585,326.934863 305.603970,327.638232 305.727461,328.417923 305.603970,329.197614 305.245585,329.900983 304.687388,330.459180 303.984019,330.817565 303.204328,330.941056 302.424637,330.817565 301.721268,330.459180 301.163071,329.900983 300.804687,329.197614 300.681196,328.417923 300.804687,327.638232 301.163071,326.934863 301.721268,326.376666 302.424637,326.018282"/>
<polygon style="fill: #0000ff; stroke: #000000; stroke-width: 1.000000; stroke-linejoin: miter; stroke-linecap: butt;  opacity: 0.604143" clip-path="url(#4685744057707115011)" points = "357.054354,338.561220 357.834044,338.684711 358.537414,339.043096 359.095611,339.601293 359.453995,340.304662 359.577486,341.084353 359.453995,341.864044 359.095611,342.567413 358.537414,343.125610 357.834044,343.483994 357.054354,343.607485 356.274663,343.483994 355.571294,343.125610 355.013097,342.567413 354.654712,341.864044 354.531221,341.084353 354.654712,340.304662 355.013097,339.601293 355.571294,339.043096 356.274663,338.684711"/>
<polygon style="fill: #0000ff; stroke: #000000; stroke-width: 1.000000; stroke-linejoin: miter; stroke-linecap: butt;  opacity: 0.643622" clip-path="url(#4685744057707115011)" points = "411.842743,351.448369 412.622434,351.571859 413.325803,351.930244 413.884000,352.488441 414.242385,353.191810 414.365876,353.971501 414.242385,354.751192 413.884000,355.454561 413.325803,356.012758 412.622434,356.371143 411.842743,356.494634 411.063052,356.371143 410.359683,356.012758 409.801486,355.454561 409.443102,354.751192 409.319611,353.971501 409.443102,353.191810 409.801486,352.488441 410.359683,351.930244 411.063052,351.571859"/>
<polygon style="fill: #0000ff; stroke: #000000; stroke-width: 1.000000; stroke-linejoin: miter; stroke-linecap: butt;  opacity: 0.492765" clip-path="url(#4685744057707115011)" points = "126.761601,302.204306 127.541292,302.327797 128.244661,302.686181 128.802858,303.244378 129.161243,303.947748 129.284734,304.727438 129.161243,305.507129 128.802858,306.210499 128.244661,306.768696 127.541292,307.127080 126.761601,307.250571 125.981910,307.127080 125.278541,306.768696 124.720344,306.210499 124.361960,305.507129 124.238469,304.727438 124.361960,303.947748 124.720344,303.244378 125.278541,302.686181 125.981910,302.327797"/>
</g>
<g id="matplotlib.axis1">
</g>
<g id="matplotlib.axis2">
</g>
</g>
</g>
</svg>
