<?xml version="1.0" standalone="no"?>
<!DOCTYPE svg PUBLIC "-//W3C//DTD SVG 1.1//EN"
  "http://www.w3.org/Graphics/SVG/1.1/DTD/svg11.dtd">
<!-- Created with matplotlib (http://matplotlib.sourceforge.net/) -->
<svg width="576" height="432" viewBox="0 0 576 432"
   xmlns="http://www.w3.org/2000/svg"
   xmlns:xlink="http://www.w3.org/1999/xlink"
   version="1.1"
   id="svg1">
<g id="figure1">
<polygon style="fill: #ffffff; stroke: #ffffff; stroke-width: 1.000000; stroke-linejoin: miter; stroke-linecap: square;  opacity: 1.000000"  points = "0.000000,432.000000 0.000000,0.000000 576.000000,0.000000 576.000000,432.000000"/>
<polygon style="fill: #ffffff; opacity: 1.000000"  points = "0.000000,432.000000 0.000000,0.000000 576.000000,0.000000 576.000000,432.000000"/>
<g id="axis3d1">
<polygon style="fill: #f2f2f2; stroke: #f2f2f2; stroke-width: 1.000000; stroke-linejoin: miter; stroke-linecap: square;  opacity: 0.100000"  points = "241.211914,230.626613 508.260241,289.840834 519.433224,81.348607 238.467267,28.237352"/>
<path style="fill: none; stroke: #000000; stroke-width: 0.750000; stroke-linejoin: miter; stroke-linecap: square;  opacity: 1.000000"  d="M 76.357701,336.543225 L 357.328625,405.507833 "/>
<text style="font-size: 12.000000; font-family: Bitstream Vera Sans; font-style: Roman; fill: #000000;" x="127.936123" y="379.403446" transform="translate(127.936123,379.403446) rotate(-341.9) translate(-127.936123,-379.403446)">max_call_mismatch_rate</text>
<g id="linecollection1">
<path style="fill: none; stroke: #e6e6e6; stroke-width: 1.000000; stroke-linejoin: miter; stroke-linecap: butt;  opacity: 1.000000"  d="M 81.730847,337.862069 L 246.335639,231.762727 L 243.846516,29.254197 "/>
<path style="fill: none; stroke: #e6e6e6; stroke-width: 1.000000; stroke-linejoin: miter; stroke-linecap: butt;  opacity: 1.000000"  d="M 133.806316,350.644048 L 295.959675,242.766161 L 295.968604,39.106883 "/>
<path style="fill: none; stroke: #e6e6e6; stroke-width: 1.000000; stroke-linejoin: miter; stroke-linecap: butt;  opacity: 1.000000"  d="M 186.791666,363.649357 L 346.387419,253.947806 L 348.978075,49.127313 "/>
<path style="fill: none; stroke: #e6e6e6; stroke-width: 1.000000; stroke-linejoin: miter; stroke-linecap: butt;  opacity: 1.000000"  d="M 240.710954,376.883903 L 397.638557,265.312027 L 402.897787,59.319806 "/>
<path style="fill: none; stroke: #e6e6e6; stroke-width: 1.000000; stroke-linejoin: miter; stroke-linecap: butt;  opacity: 1.000000"  d="M 295.589092,390.353800 L 449.733420,276.863332 L 457.751387,69.688832 "/>
<path style="fill: none; stroke: #e6e6e6; stroke-width: 1.000000; stroke-linejoin: miter; stroke-linecap: butt;  opacity: 1.000000"  d="M 351.451887,404.065382 L 502.693018,288.606380 L 513.563349,80.239019 "/>
</g>
<g id="xtick1">
<text style="font-size: 12.000000; font-family: Bitstream Vera Sans; font-style: Roman; fill: #000000;" x="68.730847" y="342.362069" >0.05</text>
<path style="fill: none; stroke: #000000; stroke-width: 1.000000; stroke-linejoin: miter; stroke-linecap: square;  opacity: 1.000000"  d="M 81.730847,337.862069 L 79.242567,345.465257 "/>
</g>
<g id="xtick2">
<text style="font-size: 12.000000; font-family: Bitstream Vera Sans; font-style: Roman; fill: #000000;" x="120.806316" y="355.144048" >0.10</text>
<path style="fill: none; stroke: #000000; stroke-width: 1.000000; stroke-linejoin: miter; stroke-linecap: square;  opacity: 1.000000"  d="M 133.806316,350.644048 L 131.318036,358.247235 "/>
</g>
<g id="xtick3">
<text style="font-size: 12.000000; font-family: Bitstream Vera Sans; font-style: Roman; fill: #000000;" x="173.791666" y="368.149357" >0.15</text>
<path style="fill: none; stroke: #000000; stroke-width: 1.000000; stroke-linejoin: miter; stroke-linecap: square;  opacity: 1.000000"  d="M 186.791666,363.649357 L 184.303386,371.252545 "/>
</g>
<g id="xtick4">
<text style="font-size: 12.000000; font-family: Bitstream Vera Sans; font-style: Roman; fill: #000000;" x="227.710954" y="381.383903" >0.20</text>
<path style="fill: none; stroke: #000000; stroke-width: 1.000000; stroke-linejoin: miter; stroke-linecap: square;  opacity: 1.000000"  d="M 240.710954,376.883903 L 238.222674,384.487091 "/>
</g>
<g id="xtick5">
<text style="font-size: 12.000000; font-family: Bitstream Vera Sans; font-style: Roman; fill: #000000;" x="282.589092" y="394.853800" >0.25</text>
<path style="fill: none; stroke: #000000; stroke-width: 1.000000; stroke-linejoin: miter; stroke-linecap: square;  opacity: 1.000000"  d="M 295.589092,390.353800 L 293.100812,397.956987 "/>
</g>
<g id="xtick6">
<text style="font-size: 12.000000; font-family: Bitstream Vera Sans; font-style: Roman; fill: #000000;" x="338.451887" y="408.565382" >0.30</text>
<path style="fill: none; stroke: #000000; stroke-width: 1.000000; stroke-linejoin: miter; stroke-linecap: square;  opacity: 1.000000"  d="M 351.451887,404.065382 L 348.963607,411.668569 "/>
</g>
</g>
<g id="axis3d2">
<polygon style="fill: #e6e6e6; stroke: #e6e6e6; stroke-width: 1.000000; stroke-linejoin: miter; stroke-linecap: square;  opacity: 0.500000"  points = "76.357701,336.543225 241.211914,230.626613 238.467267,28.237352 64.421350,123.401250"/>
<path style="fill: none; stroke: #000000; stroke-width: 0.750000; stroke-linejoin: miter; stroke-linecap: square;  opacity: 1.000000"  d="M 357.328625,405.507833 L 508.260241,289.840834 "/>
<text style="font-size: 12.000000; font-family: Bitstream Vera Sans; font-style: Roman; fill: #000000;" x="425.958426" y="409.045229" transform="translate(425.958426,409.045229) rotate(-45.6) translate(-425.958426,-409.045229)">max_call_NA_rate</text>
<g id="linecollection2">
<path style="fill: none; stroke: #e6e6e6; stroke-width: 1.000000; stroke-linejoin: miter; stroke-linecap: butt;  opacity: 1.000000"  d="M 360.586508,403.011142 L 79.904448,334.264487 L 68.180167,121.346024 "/>
<path style="fill: none; stroke: #e6e6e6; stroke-width: 1.000000; stroke-linejoin: miter; stroke-linecap: butt;  opacity: 1.000000"  d="M 379.914611,388.198980 L 100.956846,320.738605 L 90.478343,109.153946 "/>
<path style="fill: none; stroke: #e6e6e6; stroke-width: 1.000000; stroke-linejoin: miter; stroke-linecap: butt;  opacity: 1.000000"  d="M 398.874695,373.668849 L 121.625951,307.458984 L 112.348919,97.195669 "/>
<path style="fill: none; stroke: #e6e6e6; stroke-width: 1.000000; stroke-linejoin: miter; stroke-linecap: butt;  opacity: 1.000000"  d="M 417.477173,359.412772 L 141.922136,294.418958 L 133.804078,85.464532 "/>
<path style="fill: none; stroke: #e6e6e6; stroke-width: 1.000000; stroke-linejoin: miter; stroke-linecap: butt;  opacity: 1.000000"  d="M 435.732067,345.423067 L 161.855403,281.612103 L 154.855544,73.954124 "/>
<path style="fill: none; stroke: #e6e6e6; stroke-width: 1.000000; stroke-linejoin: miter; stroke-linecap: butt;  opacity: 1.000000"  d="M 453.649029,331.692337 L 181.435400,269.032219 L 175.514605,62.658273 "/>
<path style="fill: none; stroke: #e6e6e6; stroke-width: 1.000000; stroke-linejoin: miter; stroke-linecap: butt;  opacity: 1.000000"  d="M 471.237356,318.213458 L 200.671436,256.673325 L 195.792131,51.571035 "/>
<path style="fill: none; stroke: #e6e6e6; stroke-width: 1.000000; stroke-linejoin: miter; stroke-linecap: butt;  opacity: 1.000000"  d="M 488.506009,304.979563 L 219.572495,244.529648 L 215.698595,40.686685 "/>
<path style="fill: none; stroke: #e6e6e6; stroke-width: 1.000000; stroke-linejoin: miter; stroke-linecap: butt;  opacity: 1.000000"  d="M 505.463623,291.984033 L 238.147253,232.595617 L 235.244090,29.999704 "/>
</g>
<g id="xtick7">
<text style="font-size: 12.000000; font-family: Bitstream Vera Sans; font-style: Roman; fill: #000000;" x="352.086508" y="407.511142" >0.1</text>
<path style="fill: none; stroke: #000000; stroke-width: 1.000000; stroke-linejoin: miter; stroke-linecap: square;  opacity: 1.000000"  d="M 360.586508,403.011142 L 366.304039,408.606662 "/>
</g>
<g id="xtick8">
<text style="font-size: 12.000000; font-family: Bitstream Vera Sans; font-style: Roman; fill: #000000;" x="370.891174" y="392.698980" >0.2</text>
<path style="fill: none; stroke: #000000; stroke-width: 1.000000; stroke-linejoin: miter; stroke-linecap: square;  opacity: 1.000000"  d="M 379.914611,388.198980 L 385.632141,393.794500 "/>
</g>
<g id="xtick9">
<text style="font-size: 12.000000; font-family: Bitstream Vera Sans; font-style: Roman; fill: #000000;" x="389.874695" y="378.168849" >0.3</text>
<path style="fill: none; stroke: #000000; stroke-width: 1.000000; stroke-linejoin: miter; stroke-linecap: square;  opacity: 1.000000"  d="M 398.874695,373.668849 L 404.592225,379.264370 "/>
</g>
<g id="xtick10">
<text style="font-size: 12.000000; font-family: Bitstream Vera Sans; font-style: Roman; fill: #000000;" x="408.477173" y="363.912772" >0.4</text>
<path style="fill: none; stroke: #000000; stroke-width: 1.000000; stroke-linejoin: miter; stroke-linecap: square;  opacity: 1.000000"  d="M 417.477173,359.412772 L 423.194703,365.008292 "/>
</g>
<g id="xtick11">
<text style="font-size: 12.000000; font-family: Bitstream Vera Sans; font-style: Roman; fill: #000000;" x="426.732067" y="349.923067" >0.5</text>
<path style="fill: none; stroke: #000000; stroke-width: 1.000000; stroke-linejoin: miter; stroke-linecap: square;  opacity: 1.000000"  d="M 435.732067,345.423067 L 441.449597,351.018587 "/>
</g>
<g id="xtick12">
<text style="font-size: 12.000000; font-family: Bitstream Vera Sans; font-style: Roman; fill: #000000;" x="444.649029" y="336.192337" >0.6</text>
<path style="fill: none; stroke: #000000; stroke-width: 1.000000; stroke-linejoin: miter; stroke-linecap: square;  opacity: 1.000000"  d="M 453.649029,331.692337 L 459.366559,337.287858 "/>
</g>
<g id="xtick13">
<text style="font-size: 12.000000; font-family: Bitstream Vera Sans; font-style: Roman; fill: #000000;" x="462.237356" y="322.713458" >0.7</text>
<path style="fill: none; stroke: #000000; stroke-width: 1.000000; stroke-linejoin: miter; stroke-linecap: square;  opacity: 1.000000"  d="M 471.237356,318.213458 L 476.954887,323.808978 "/>
</g>
<g id="xtick14">
<text style="font-size: 12.000000; font-family: Bitstream Vera Sans; font-style: Roman; fill: #000000;" x="479.506009" y="309.479563" >0.8</text>
<path style="fill: none; stroke: #000000; stroke-width: 1.000000; stroke-linejoin: miter; stroke-linecap: square;  opacity: 1.000000"  d="M 488.506009,304.979563 L 494.223539,310.575083 "/>
</g>
<g id="xtick15">
<text style="font-size: 12.000000; font-family: Bitstream Vera Sans; font-style: Roman; fill: #000000;" x="496.463623" y="296.484033" >0.9</text>
<path style="fill: none; stroke: #000000; stroke-width: 1.000000; stroke-linejoin: miter; stroke-linecap: square;  opacity: 1.000000"  d="M 505.463623,291.984033 L 511.181153,297.579553 "/>
</g>
</g>
<g id="axis3d3">
<polygon style="fill: #f2f2f2; stroke: #f2f2f2; stroke-width: 1.000000; stroke-linejoin: miter; stroke-linecap: square;  opacity: 0.100000"  points = "76.357701,336.543225 357.328625,405.507833 508.260241,289.840834 241.211914,230.626613"/>
<path style="fill: none; stroke: #000000; stroke-width: 0.750000; stroke-linejoin: miter; stroke-linecap: square;  opacity: 1.000000"  d="M 76.357701,336.543225 L 64.421350,123.401250 "/>
<text style="font-size: 12.000000; font-family: Bitstream Vera Sans; font-style: Roman; fill: #000000;" x="45.420044" y="358.105689" transform="translate(45.420044,358.105689) rotate(-92.4) translate(-45.420044,-358.105689)">no_of_accessions_filtered_by_mismatch</text>
<g id="linecollection3">
<path style="fill: none; stroke: #e6e6e6; stroke-width: 1.000000; stroke-linejoin: miter; stroke-linecap: butt;  opacity: 1.000000"  d="M 76.131056,332.496136 L 241.159600,226.768965 L 508.472750,285.875342 "/>
<path style="fill: none; stroke: #e6e6e6; stroke-width: 1.000000; stroke-linejoin: miter; stroke-linecap: butt;  opacity: 1.000000"  d="M 74.300904,299.815941 L 240.737445,195.639460 L 510.188244,253.863550 "/>
<path style="fill: none; stroke: #e6e6e6; stroke-width: 1.000000; stroke-linejoin: miter; stroke-linecap: butt;  opacity: 1.000000"  d="M 72.439998,266.586586 L 240.308715,164.025048 L 511.931637,221.331161 "/>
<path style="fill: none; stroke: #e6e6e6; stroke-width: 1.000000; stroke-linejoin: miter; stroke-linecap: butt;  opacity: 1.000000"  d="M 70.547556,232.794112 L 239.873254,131.914310 L 513.703614,188.265371 "/>
<path style="fill: none; stroke: #e6e6e6; stroke-width: 1.000000; stroke-linejoin: miter; stroke-linecap: butt;  opacity: 1.000000"  d="M 68.622770,198.424081 L 239.430902,99.295467 L 515.504884,154.652955 "/>
<path style="fill: none; stroke: #e6e6e6; stroke-width: 1.000000; stroke-linejoin: miter; stroke-linecap: butt;  opacity: 1.000000"  d="M 66.664803,163.461560 L 238.981495,66.156361 L 517.336181,120.480244 "/>
<path style="fill: none; stroke: #e6e6e6; stroke-width: 1.000000; stroke-linejoin: miter; stroke-linecap: butt;  opacity: 1.000000"  d="M 64.672790,127.891094 L 238.524862,32.484445 L 519.198260,85.733110 "/>
</g>
<g id="xtick16">
<text style="font-size: 12.000000; font-family: Bitstream Vera Sans; font-style: Roman; fill: #000000;" x="73.131056" y="336.996136" >0</text>
<path style="fill: none; stroke: #000000; stroke-width: 1.000000; stroke-linejoin: miter; stroke-linecap: square;  opacity: 1.000000"  d="M 76.131056,332.496136 L 68.138103,332.831851 "/>
</g>
<g id="xtick17">
<text style="font-size: 12.000000; font-family: Bitstream Vera Sans; font-style: Roman; fill: #000000;" x="67.300904" y="304.315941" >10</text>
<path style="fill: none; stroke: #000000; stroke-width: 1.000000; stroke-linejoin: miter; stroke-linecap: square;  opacity: 1.000000"  d="M 74.300904,299.815941 L 66.307951,300.151656 "/>
</g>
<g id="xtick18">
<text style="font-size: 12.000000; font-family: Bitstream Vera Sans; font-style: Roman; fill: #000000;" x="65.439998" y="271.086586" >20</text>
<path style="fill: none; stroke: #000000; stroke-width: 1.000000; stroke-linejoin: miter; stroke-linecap: square;  opacity: 1.000000"  d="M 72.439998,266.586586 L 64.447045,266.922301 "/>
</g>
<g id="xtick19">
<text style="font-size: 12.000000; font-family: Bitstream Vera Sans; font-style: Roman; fill: #000000;" x="63.547556" y="237.294112" >30</text>
<path style="fill: none; stroke: #000000; stroke-width: 1.000000; stroke-linejoin: miter; stroke-linecap: square;  opacity: 1.000000"  d="M 70.547556,232.794112 L 62.554603,233.129827 "/>
</g>
<g id="xtick20">
<text style="font-size: 12.000000; font-family: Bitstream Vera Sans; font-style: Roman; fill: #000000;" x="61.622770" y="202.924081" >40</text>
<path style="fill: none; stroke: #000000; stroke-width: 1.000000; stroke-linejoin: miter; stroke-linecap: square;  opacity: 1.000000"  d="M 68.622770,198.424081 L 60.629817,198.759796 "/>
</g>
<g id="xtick21">
<text style="font-size: 12.000000; font-family: Bitstream Vera Sans; font-style: Roman; fill: #000000;" x="59.664803" y="167.961560" >50</text>
<path style="fill: none; stroke: #000000; stroke-width: 1.000000; stroke-linejoin: miter; stroke-linecap: square;  opacity: 1.000000"  d="M 66.664803,163.461560 L 58.671850,163.797275 "/>
</g>
<g id="xtick22">
<text style="font-size: 12.000000; font-family: Bitstream Vera Sans; font-style: Roman; fill: #000000;" x="57.672790" y="132.391094" >60</text>
<path style="fill: none; stroke: #000000; stroke-width: 1.000000; stroke-linejoin: miter; stroke-linecap: square;  opacity: 1.000000"  d="M 64.672790,127.891094 L 56.679837,128.226810 "/>
</g>
</g>
<g id="axes1">
<g id="regpolycollection1">
<defs>
    <clipPath id="4685744057707115011">
    <rect x="0.000000" y="0.000000" width="576.000000" height="432.000000"
    style="stroke: gray; fill: none;"/>
    </clipPath>
</defs>
<polygon style="fill: #0000ff; stroke: #000000; stroke-width: 1.000000; stroke-linejoin: miter; stroke-linecap: butt;  opacity: 0.646599" clip-path="url(#4685744057707115011)" points = "249.164166,217.853979 249.943857,217.977470 250.647226,218.335855 251.205423,218.894052 251.563808,219.597421 251.687299,220.377112 251.563808,221.156803 251.205423,221.860172 250.647226,222.418369 249.943857,222.776754 249.164166,222.900244 248.384475,222.776754 247.681106,222.418369 247.122909,221.860172 246.764524,221.156803 246.641033,220.377112 246.764524,219.597421 247.122909,218.894052 247.681106,218.335855 248.384475,217.977470"/>
<polygon style="fill: #0000ff; stroke: #000000; stroke-width: 1.000000; stroke-linejoin: miter; stroke-linecap: butt;  opacity: 0.983995" clip-path="url(#4685744057707115011)" points = "74.262451,128.079502 75.042142,128.202993 75.745512,128.561378 76.303709,129.119575 76.662093,129.822944 76.785584,130.602635 76.662093,131.382326 76.303709,132.085695 75.745512,132.643892 75.042142,133.002277 74.262451,133.125767 73.482761,133.002277 72.779391,132.643892 72.221194,132.085695 71.862810,131.382326 71.739319,130.602635 71.862810,129.822944 72.221194,129.119575 72.779391,128.561378 73.482761,128.202993"/>
<polygon style="fill: #0000ff; stroke: #000000; stroke-width: 1.000000; stroke-linejoin: miter; stroke-linecap: butt;  opacity: 0.893243" clip-path="url(#4685744057707115011)" points = "96.479424,115.810137 97.259115,115.933628 97.962484,116.292013 98.520681,116.850210 98.879066,117.553579 99.002557,118.333270 98.879066,119.112961 98.520681,119.816330 97.962484,120.374527 97.259115,120.732911 96.479424,120.856402 95.699734,120.732911 94.996364,120.374527 94.438167,119.816330 94.079783,119.112961 93.956292,118.333270 94.079783,117.553579 94.438167,116.850210 94.996364,116.292013 95.699734,115.933628"/>
<polygon style="fill: #0000ff; stroke: #000000; stroke-width: 1.000000; stroke-linejoin: miter; stroke-linecap: butt;  opacity: 0.804230" clip-path="url(#4685744057707115011)" points = "118.270778,103.775821 119.050469,103.899312 119.753838,104.257697 120.312035,104.815894 120.670419,105.519263 120.793910,106.298954 120.670419,107.078645 120.312035,107.782014 119.753838,108.340211 119.050469,108.698596 118.270778,108.822086 117.491087,108.698596 116.787718,108.340211 116.229521,107.782014 115.871136,107.078645 115.747645,106.298954 115.871136,105.519263 116.229521,104.815894 116.787718,104.257697 117.491087,103.899312"/>
<polygon style="fill: #0000ff; stroke: #000000; stroke-width: 1.000000; stroke-linejoin: miter; stroke-linecap: butt;  opacity: 0.547136" clip-path="url(#4685744057707115011)" points = "181.210011,69.017511 181.989702,69.141002 182.693071,69.499387 183.251268,70.057584 183.609653,70.760953 183.733144,71.540644 183.609653,72.320335 183.251268,73.023704 182.693071,73.581901 181.989702,73.940285 181.210011,74.063776 180.430320,73.940285 179.726951,73.581901 179.168754,73.023704 178.810370,72.320335 178.686879,71.540644 178.810370,70.760953 179.168754,70.057584 179.726951,69.499387 180.430320,69.141002"/>
<polygon style="fill: #0000ff; stroke: #000000; stroke-width: 1.000000; stroke-linejoin: miter; stroke-linecap: butt;  opacity: 0.716906" clip-path="url(#4685744057707115011)" points = "139.648626,91.969864 140.428317,92.093355 141.131686,92.451740 141.689883,93.009937 142.048268,93.713306 142.171759,94.492997 142.048268,95.272688 141.689883,95.976057 141.131686,96.534254 140.428317,96.892638 139.648626,97.016129 138.868936,96.892638 138.165566,96.534254 137.607369,95.976057 137.248985,95.272688 137.125494,94.492997 137.248985,93.713306 137.607369,93.009937 138.165566,92.451740 138.868936,92.093355"/>
<polygon style="fill: #0000ff; stroke: #000000; stroke-width: 1.000000; stroke-linejoin: miter; stroke-linecap: butt;  opacity: 0.631223" clip-path="url(#4685744057707115011)" points = "160.624629,80.385827 161.404320,80.509318 162.107689,80.867703 162.665886,81.425900 163.024271,82.129269 163.147762,82.908960 163.024271,83.688651 162.665886,84.392020 162.107689,84.950217 161.404320,85.308601 160.624629,85.432092 159.844938,85.308601 159.141569,84.950217 158.583372,84.392020 158.224988,83.688651 158.101497,82.908960 158.224988,82.129269 158.583372,81.425900 159.141569,80.867703 159.844938,80.509318"/>
<polygon style="fill: #0000ff; stroke: #000000; stroke-width: 1.000000; stroke-linejoin: miter; stroke-linecap: butt;  opacity: 0.930478" clip-path="url(#4685744057707115011)" points = "131.381015,199.972375 132.160706,200.095865 132.864075,200.454250 133.422272,201.012447 133.780657,201.715816 133.904148,202.495507 133.780657,203.275198 133.422272,203.978567 132.864075,204.536764 132.160706,204.895149 131.381015,205.018640 130.601324,204.895149 129.897955,204.536764 129.339758,203.978567 128.981373,203.275198 128.857883,202.495507 128.981373,201.715816 129.339758,201.012447 129.897955,200.454250 130.601324,200.095865"/>
<polygon style="fill: #0000ff; stroke: #000000; stroke-width: 1.000000; stroke-linejoin: miter; stroke-linecap: butt;  opacity: 0.464600" clip-path="url(#4685744057707115011)" points = "201.415583,57.858946 202.195274,57.982437 202.898643,58.340822 203.456840,58.899019 203.815225,59.602388 203.938716,60.382079 203.815225,61.161769 203.456840,61.865139 202.898643,62.423336 202.195274,62.781720 201.415583,62.905211 200.635892,62.781720 199.932523,62.423336 199.374326,61.865139 199.015942,61.161769 198.892451,60.382079 199.015942,59.602388 199.374326,58.899019 199.932523,58.340822 200.635892,57.982437"/>
<polygon style="fill: #0000ff; stroke: #000000; stroke-width: 1.000000; stroke-linejoin: miter; stroke-linecap: butt;  opacity: 0.383573" clip-path="url(#4685744057707115011)" points = "221.251761,46.904380 222.031451,47.027871 222.734821,47.386255 223.293018,47.944452 223.651402,48.647822 223.774893,49.427512 223.651402,50.207203 223.293018,50.910572 222.734821,51.468769 222.031451,51.827154 221.251761,51.950645 220.472070,51.827154 219.768700,51.468769 219.210503,50.910572 218.852119,50.207203 218.728628,49.427512 218.852119,48.647822 219.210503,47.944452 219.768700,47.386255 220.472070,47.027871"/>
<polygon style="fill: #0000ff; stroke: #000000; stroke-width: 1.000000; stroke-linejoin: miter; stroke-linecap: butt;  opacity: 0.840754" clip-path="url(#4685744057707115011)" points = "152.923205,187.080938 153.702896,187.204429 154.406265,187.562814 154.964462,188.121011 155.322847,188.824380 155.446338,189.604071 155.322847,190.383762 154.964462,191.087131 154.406265,191.645328 153.702896,192.003713 152.923205,192.127203 152.143514,192.003713 151.440145,191.645328 150.881948,191.087131 150.523564,190.383762 150.400073,189.604071 150.523564,188.824380 150.881948,188.121011 151.440145,187.562814 152.143514,187.204429"/>
<polygon style="fill: #0000ff; stroke: #000000; stroke-width: 1.000000; stroke-linejoin: miter; stroke-linecap: butt;  opacity: 0.752738" clip-path="url(#4685744057707115011)" points = "174.055012,174.435087 174.834703,174.558578 175.538072,174.916962 176.096269,175.475159 176.454653,176.178529 176.578144,176.958220 176.454653,177.737910 176.096269,178.441280 175.538072,178.999477 174.834703,179.357861 174.055012,179.481352 173.275321,179.357861 172.571952,178.999477 172.013755,178.441280 171.655370,177.737910 171.531879,176.958220 171.655370,176.178529 172.013755,175.475159 172.571952,174.916962 173.275321,174.558578"/>
<polygon style="fill: #0000ff; stroke: #000000; stroke-width: 1.000000; stroke-linejoin: miter; stroke-linecap: butt;  opacity: 0.666384" clip-path="url(#4685744057707115011)" points = "194.788051,162.027869 195.567742,162.151360 196.271111,162.509744 196.829308,163.067941 197.187693,163.771311 197.311184,164.551001 197.187693,165.330692 196.829308,166.034062 196.271111,166.592259 195.567742,166.950643 194.788051,167.074134 194.008360,166.950643 193.304991,166.592259 192.746794,166.034062 192.388409,165.330692 192.264919,164.551001 192.388409,163.771311 192.746794,163.067941 193.304991,162.509744 194.008360,162.151360"/>
<polygon style="fill: #0000ff; stroke: #000000; stroke-width: 1.000000; stroke-linejoin: miter; stroke-linecap: butt;  opacity: 0.581644" clip-path="url(#4685744057707115011)" points = "215.133505,149.852593 215.913196,149.976084 216.616565,150.334468 217.174762,150.892665 217.533147,151.596034 217.656637,152.375725 217.533147,153.155416 217.174762,153.858785 216.616565,154.416982 215.913196,154.775367 215.133505,154.898858 214.353814,154.775367 213.650445,154.416982 213.092248,153.858785 212.733863,153.155416 212.610372,152.375725 212.733863,151.596034 213.092248,150.892665 213.650445,150.334468 214.353814,149.976084"/>
<polygon style="fill: #0000ff; stroke: #000000; stroke-width: 1.000000; stroke-linejoin: miter; stroke-linecap: butt;  opacity: 0.498473" clip-path="url(#4685744057707115011)" points = "235.102141,137.902814 235.881832,138.026305 236.585201,138.384690 237.143398,138.942887 237.501783,139.646256 237.625273,140.425947 237.501783,141.205638 237.143398,141.909007 236.585201,142.467204 235.881832,142.825589 235.102141,142.949079 234.322450,142.825589 233.619081,142.467204 233.060884,141.909007 232.702499,141.205638 232.579008,140.425947 232.702499,139.646256 233.060884,138.942887 233.619081,138.384690 234.322450,138.026305"/>
<polygon style="fill: #0000ff; stroke: #000000; stroke-width: 1.000000; stroke-linejoin: miter; stroke-linecap: butt;  opacity: 0.909526" clip-path="url(#4685744057707115011)" points = "187.479957,257.335851 188.259648,257.459342 188.963017,257.817726 189.521214,258.375923 189.879599,259.079293 190.003090,259.858984 189.879599,260.638674 189.521214,261.342044 188.963017,261.900241 188.259648,262.258625 187.479957,262.382116 186.700266,262.258625 185.996897,261.900241 185.438700,261.342044 185.080315,260.638674 184.956824,259.858984 185.080315,259.079293 185.438700,258.375923 185.996897,257.817726 186.700266,257.459342"/>
<polygon style="fill: #0000ff; stroke: #000000; stroke-width: 1.000000; stroke-linejoin: miter; stroke-linecap: butt;  opacity: 0.416829" clip-path="url(#4685744057707115011)" points = "254.704332,126.172327 255.484023,126.295818 256.187392,126.654202 256.745589,127.212399 257.103973,127.915769 257.227464,128.695459 257.103973,129.475150 256.745589,130.178520 256.187392,130.736717 255.484023,131.095101 254.704332,131.218592 253.924641,131.095101 253.221272,130.736717 252.663075,130.178520 252.304690,129.475150 252.181199,128.695459 252.304690,127.915769 252.663075,127.212399 253.221272,126.654202 253.924641,126.295818"/>
<polygon style="fill: #0000ff; stroke: #000000; stroke-width: 1.000000; stroke-linejoin: miter; stroke-linecap: butt;  opacity: 0.336669" clip-path="url(#4685744057707115011)" points = "273.950072,114.655149 274.729763,114.778640 275.433133,115.137024 275.991330,115.695221 276.349714,116.398591 276.473205,117.178282 276.349714,117.957972 275.991330,118.661342 275.433133,119.219539 274.729763,119.577923 273.950072,119.701414 273.170382,119.577923 272.467012,119.219539 271.908815,118.661342 271.550431,117.957972 271.426940,117.178282 271.550431,116.398591 271.908815,115.695221 272.467012,115.137024 273.170382,114.778640"/>
<polygon style="fill: #0000ff; stroke: #000000; stroke-width: 1.000000; stroke-linejoin: miter; stroke-linecap: butt;  opacity: 0.820202" clip-path="url(#4685744057707115011)" points = "208.435947,243.922666 209.215637,244.046157 209.919007,244.404542 210.477204,244.962739 210.835588,245.666108 210.959079,246.445799 210.835588,247.225490 210.477204,247.928859 209.919007,248.487056 209.215637,248.845440 208.435947,248.968931 207.656256,248.845440 206.952887,248.487056 206.394690,247.928859 206.036305,247.225490 205.912814,246.445799 206.036305,245.666108 206.394690,244.962739 206.952887,244.404542 207.656256,244.046157"/>
<polygon style="fill: #0000ff; stroke: #000000; stroke-width: 1.000000; stroke-linejoin: miter; stroke-linecap: butt;  opacity: 0.732576" clip-path="url(#4685744057707115011)" points = "228.993599,230.764443 229.773290,230.887934 230.476659,231.246318 231.034856,231.804515 231.393241,232.507884 231.516732,233.287575 231.393241,234.067266 231.034856,234.770635 230.476659,235.328832 229.773290,235.687217 228.993599,235.810708 228.213909,235.687217 227.510539,235.328832 226.952342,234.770635 226.593958,234.067266 226.470467,233.287575 226.593958,232.507884 226.952342,231.804515 227.510539,231.246318 228.213909,230.887934"/>
<polygon style="fill: #0000ff; stroke: #000000; stroke-width: 1.000000; stroke-linejoin: miter; stroke-linecap: butt;  opacity: 0.646599" clip-path="url(#4685744057707115011)" points = "249.164166,217.853979 249.943857,217.977470 250.647226,218.335855 251.205423,218.894052 251.563808,219.597421 251.687299,220.377112 251.563808,221.156803 251.205423,221.860172 250.647226,222.418369 249.943857,222.776754 249.164166,222.900244 248.384475,222.776754 247.681106,222.418369 247.122909,221.860172 246.764524,221.156803 246.641033,220.377112 246.764524,219.597421 247.122909,218.894052 247.681106,218.335855 248.384475,217.977470"/>
<polygon style="fill: #0000ff; stroke: #000000; stroke-width: 1.000000; stroke-linejoin: miter; stroke-linecap: butt;  opacity: 0.562227" clip-path="url(#4685744057707115011)" points = "268.958477,205.184344 269.738168,205.307835 270.441537,205.666219 270.999734,206.224416 271.358119,206.927785 271.481610,207.707476 271.358119,208.487167 270.999734,209.190536 270.441537,209.748733 269.738168,210.107118 268.958477,210.230609 268.178786,210.107118 267.475417,209.748733 266.917220,209.190536 266.558836,208.487167 266.435345,207.707476 266.558836,206.927785 266.917220,206.224416 267.475417,205.666219 268.178786,205.307835"/>
<polygon style="fill: #0000ff; stroke: #000000; stroke-width: 1.000000; stroke-linejoin: miter; stroke-linecap: butt;  opacity: 0.888667" clip-path="url(#4685744057707115011)" points = "243.327501,314.442263 244.107192,314.565754 244.810561,314.924138 245.368758,315.482335 245.727143,316.185704 245.850633,316.965395 245.727143,317.745086 245.368758,318.448455 244.810561,319.006652 244.107192,319.365037 243.327501,319.488528 242.547810,319.365037 241.844441,319.006652 241.286244,318.448455 240.927859,317.745086 240.804368,316.965395 240.927859,316.185704 241.286244,315.482335 241.844441,314.924138 242.547810,314.565754"/>
<polygon style="fill: #0000ff; stroke: #000000; stroke-width: 1.000000; stroke-linejoin: miter; stroke-linecap: butt;  opacity: 0.479414" clip-path="url(#4685744057707115011)" points = "288.386964,192.748860 289.166654,192.872350 289.870024,193.230735 290.428221,193.788932 290.786605,194.492301 290.910096,195.271992 290.786605,196.051683 290.428221,196.755052 289.870024,197.313249 289.166654,197.671634 288.386964,197.795125 287.607273,197.671634 286.903904,197.313249 286.345707,196.755052 285.987322,196.051683 285.863831,195.271992 285.987322,194.492301 286.345707,193.788932 286.903904,193.230735 287.607273,192.872350"/>
<polygon style="fill: #0000ff; stroke: #000000; stroke-width: 1.000000; stroke-linejoin: miter; stroke-linecap: butt;  opacity: 0.398117" clip-path="url(#4685744057707115011)" points = "307.459674,180.541095 308.239365,180.664586 308.942734,181.022971 309.500931,181.581168 309.859315,182.284537 309.982806,183.064228 309.859315,183.843918 309.500931,184.547288 308.942734,185.105485 308.239365,185.463869 307.459674,185.587360 306.679983,185.463869 305.976614,185.105485 305.418417,184.547288 305.060032,183.843918 304.936541,183.064228 305.060032,182.284537 305.418417,181.581168 305.976614,181.022971 306.679983,180.664586"/>
<polygon style="fill: #0000ff; stroke: #000000; stroke-width: 1.000000; stroke-linejoin: miter; stroke-linecap: butt;  opacity: 0.318296" clip-path="url(#4685744057707115011)" points = "326.186292,168.554852 326.965982,168.678343 327.669352,169.036728 328.227549,169.594925 328.585933,170.298294 328.709424,171.077985 328.585933,171.857675 328.227549,172.561045 327.669352,173.119242 326.965982,173.477626 326.186292,173.601117 325.406601,173.477626 324.703231,173.119242 324.145034,172.561045 323.786650,171.857675 323.663159,171.077985 323.786650,170.298294 324.145034,169.594925 324.703231,169.036728 325.406601,168.678343"/>
<polygon style="fill: #0000ff; stroke: #000000; stroke-width: 1.000000; stroke-linejoin: miter; stroke-linecap: butt;  opacity: 0.799741" clip-path="url(#4685744057707115011)" points = "263.702299,300.512106 264.481990,300.635597 265.185359,300.993982 265.743556,301.552179 266.101940,302.255548 266.225431,303.035239 266.101940,303.814930 265.743556,304.518299 265.185359,305.076496 264.481990,305.434880 263.702299,305.558371 262.922608,305.434880 262.219239,305.076496 261.661042,304.518299 261.302657,303.814930 261.179166,303.035239 261.302657,302.255548 261.661042,301.552179 262.219239,300.993982 262.922608,300.635597"/>
<polygon style="fill: #0000ff; stroke: #000000; stroke-width: 1.000000; stroke-linejoin: miter; stroke-linecap: butt;  opacity: 0.712502" clip-path="url(#4685744057707115011)" points = "283.690658,286.846156 284.470349,286.969647 285.173719,287.328031 285.731916,287.886228 286.090300,288.589597 286.213791,289.369288 286.090300,290.148979 285.731916,290.852348 285.173719,291.410545 284.470349,291.768930 283.690658,291.892421 282.910968,291.768930 282.207598,291.410545 281.649401,290.852348 281.291017,290.148979 281.167526,289.369288 281.291017,288.589597 281.649401,287.886228 282.207598,287.328031 282.910968,286.969647"/>
<polygon style="fill: #0000ff; stroke: #000000; stroke-width: 1.000000; stroke-linejoin: miter; stroke-linecap: butt;  opacity: 0.939965" clip-path="url(#4685744057707115011)" points = "298.949762,341.115420 299.729452,341.238911 300.432822,341.597296 300.991019,342.155493 301.349403,342.858862 301.472894,343.638553 301.349403,344.418244 300.991019,345.121613 300.432822,345.679810 299.729452,346.038194 298.949762,346.161685 298.170071,346.038194 297.466702,345.679810 296.908505,345.121613 296.550120,344.418244 296.426629,343.638553 296.550120,342.858862 296.908505,342.155493 297.466702,341.597296 298.170071,341.238911"/>
<polygon style="fill: #0000ff; stroke: #000000; stroke-width: 1.000000; stroke-linejoin: miter; stroke-linecap: butt;  opacity: 0.626901" clip-path="url(#4685744057707115011)" points = "303.303471,273.436965 304.083162,273.560456 304.786531,273.918841 305.344728,274.477038 305.703113,275.180407 305.826603,275.960098 305.703113,276.739788 305.344728,277.443158 304.786531,278.001355 304.083162,278.359739 303.303471,278.483230 302.523780,278.359739 301.820411,278.001355 301.262214,277.443158 300.903829,276.739788 300.780338,275.960098 300.903829,275.180407 301.262214,274.477038 301.820411,273.918841 302.523780,273.560456"/>
<polygon style="fill: #0000ff; stroke: #000000; stroke-width: 1.000000; stroke-linejoin: miter; stroke-linecap: butt;  opacity: 0.542894" clip-path="url(#4685744057707115011)" points = "322.551221,260.277366 323.330912,260.400857 324.034281,260.759241 324.592478,261.317438 324.950863,262.020807 325.074354,262.800498 324.950863,263.580189 324.592478,264.283558 324.034281,264.841755 323.330912,265.200140 322.551221,265.323631 321.771531,265.200140 321.068161,264.841755 320.509964,264.283558 320.151580,263.580189 320.028089,262.800498 320.151580,262.020807 320.509964,261.317438 321.068161,260.759241 321.771531,260.400857"/>
<polygon style="fill: #0000ff; stroke: #000000; stroke-width: 1.000000; stroke-linejoin: miter; stroke-linecap: butt;  opacity: 0.460436" clip-path="url(#4685744057707115011)" points = "341.444009,247.360453 342.223699,247.483944 342.927069,247.842329 343.485266,248.400526 343.843650,249.103895 343.967141,249.883586 343.843650,250.663276 343.485266,251.366646 342.927069,251.924843 342.223699,252.283227 341.444009,252.406718 340.664318,252.283227 339.960948,251.924843 339.402751,251.366646 339.044367,250.663276 338.920876,249.883586 339.044367,249.103895 339.402751,248.400526 339.960948,247.842329 340.664318,247.483944"/>
<polygon style="fill: #0000ff; stroke: #000000; stroke-width: 1.000000; stroke-linejoin: miter; stroke-linecap: butt;  opacity: 0.379485" clip-path="url(#4685744057707115011)" points = "359.991562,234.679575 360.771253,234.803066 361.474622,235.161451 362.032819,235.719648 362.391204,236.423017 362.514694,237.202708 362.391204,237.982399 362.032819,238.685768 361.474622,239.243965 360.771253,239.602349 359.991562,239.725840 359.211871,239.602349 358.508502,239.243965 357.950305,238.685768 357.591920,237.982399 357.468429,237.202708 357.591920,236.423017 357.950305,235.719648 358.508502,235.161451 359.211871,234.803066"/>
<polygon style="fill: #0000ff; stroke: #000000; stroke-width: 1.000000; stroke-linejoin: miter; stroke-linecap: butt;  opacity: 0.300000" clip-path="url(#4685744057707115011)" points = "378.203259,222.228321 378.982949,222.351812 379.686319,222.710197 380.244516,223.268394 380.602900,223.971763 380.726391,224.751454 380.602900,225.531145 380.244516,226.234514 379.686319,226.792711 378.982949,227.151095 378.203259,227.274586 377.423568,227.151095 376.720199,226.792711 376.162002,226.234514 375.803617,225.531145 375.680126,224.751454 375.803617,223.971763 376.162002,223.268394 376.720199,222.710197 377.423568,222.351812"/>
<polygon style="fill: #0000ff; stroke: #000000; stroke-width: 1.000000; stroke-linejoin: miter; stroke-linecap: butt;  opacity: 0.850059" clip-path="url(#4685744057707115011)" points = "318.900563,326.852303 319.680254,326.975794 320.383623,327.334178 320.941820,327.892375 321.300204,328.595744 321.423695,329.375435 321.300204,330.155126 320.941820,330.858495 320.383623,331.416692 319.680254,331.775077 318.900563,331.898568 318.120872,331.775077 317.417503,331.416692 316.859306,330.858495 316.500921,330.155126 316.377430,329.375435 316.500921,328.595744 316.859306,327.892375 317.417503,327.334178 318.120872,326.975794"/>
<polygon style="fill: #0000ff; stroke: #000000; stroke-width: 1.000000; stroke-linejoin: miter; stroke-linecap: butt;  opacity: 0.761867" clip-path="url(#4685744057707115011)" points = "338.470918,312.861172 339.250609,312.984663 339.953978,313.343047 340.512175,313.901244 340.870559,314.604613 340.994050,315.384304 340.870559,316.163995 340.512175,316.867364 339.953978,317.425561 339.250609,317.783946 338.470918,317.907437 337.691227,317.783946 336.987858,317.425561 336.429661,316.867364 336.071276,316.163995 335.947785,315.384304 336.071276,314.604613 336.429661,313.901244 336.987858,313.343047 337.691227,312.984663"/>
<polygon style="fill: #0000ff; stroke: #000000; stroke-width: 1.000000; stroke-linejoin: miter; stroke-linecap: butt;  opacity: 0.675341" clip-path="url(#4685744057707115011)" points = "357.671606,299.134321 358.451296,299.257812 359.154666,299.616196 359.712863,300.174393 360.071247,300.877763 360.194738,301.657453 360.071247,302.437144 359.712863,303.140514 359.154666,303.698711 358.451296,304.057095 357.671606,304.180586 356.891915,304.057095 356.188546,303.698711 355.630349,303.140514 355.271964,302.437144 355.148473,301.657453 355.271964,300.877763 355.630349,300.174393 356.188546,299.616196 356.891915,299.257812"/>
<polygon style="fill: #0000ff; stroke: #000000; stroke-width: 1.000000; stroke-linejoin: miter; stroke-linecap: butt;  opacity: 1.000000" clip-path="url(#4685744057707115011)" points = "355.241487,364.707397 356.021178,364.830888 356.724547,365.189272 357.282744,365.747469 357.641129,366.450839 357.764619,367.230530 357.641129,368.010220 357.282744,368.713590 356.724547,369.271787 356.021178,369.630171 355.241487,369.753662 354.461796,369.630171 353.758427,369.271787 353.200230,368.713590 352.841845,368.010220 352.718354,367.230530 352.841845,366.450839 353.200230,365.747469 353.758427,365.189272 354.461796,364.830888"/>
<polygon style="fill: #0000ff; stroke: #000000; stroke-width: 1.000000; stroke-linejoin: miter; stroke-linecap: butt;  opacity: 0.590434" clip-path="url(#4685744057707115011)" points = "376.513003,285.664332 377.292694,285.787823 377.996063,286.146208 378.554260,286.704405 378.912644,287.407774 379.036135,288.187465 378.912644,288.967156 378.554260,289.670525 377.996063,290.228722 377.292694,290.587107 376.513003,290.710598 375.733312,290.587107 375.029943,290.228722 374.471746,289.670525 374.113361,288.967156 373.989870,288.187465 374.113361,287.407774 374.471746,286.704405 375.029943,286.146208 375.733312,285.787823"/>
<polygon style="fill: #0000ff; stroke: #000000; stroke-width: 1.000000; stroke-linejoin: miter; stroke-linecap: butt;  opacity: 0.507102" clip-path="url(#4685744057707115011)" points = "395.005100,272.444063 395.784791,272.567554 396.488160,272.925939 397.046357,273.484136 397.404742,274.187505 397.528233,274.967196 397.404742,275.746887 397.046357,276.450256 396.488160,277.008453 395.784791,277.366837 395.005100,277.490328 394.225409,277.366837 393.522040,277.008453 392.963843,276.450256 392.605459,275.746887 392.481968,274.967196 392.605459,274.187505 392.963843,273.484136 393.522040,272.925939 394.225409,272.567554"/>
<polygon style="fill: #0000ff; stroke: #000000; stroke-width: 1.000000; stroke-linejoin: miter; stroke-linecap: butt;  opacity: 0.425300" clip-path="url(#4685744057707115011)" points = "413.157523,259.466633 413.937213,259.590124 414.640583,259.948508 415.198780,260.506705 415.557164,261.210075 415.680655,261.989765 415.557164,262.769456 415.198780,263.472826 414.640583,264.031023 413.937213,264.389407 413.157523,264.512898 412.377832,264.389407 411.674462,264.031023 411.116265,263.472826 410.757881,262.769456 410.634390,261.989765 410.757881,261.210075 411.116265,260.506705 411.674462,259.948508 412.377832,259.590124"/>
<polygon style="fill: #0000ff; stroke: #000000; stroke-width: 1.000000; stroke-linejoin: miter; stroke-linecap: butt;  opacity: 0.908940" clip-path="url(#4685744057707115011)" points = "374.773953,350.124933 375.553644,350.248424 376.257013,350.606809 376.815210,351.165006 377.173595,351.868375 377.297086,352.648066 377.173595,353.427756 376.815210,354.131126 376.257013,354.689323 375.553644,355.047707 374.773953,355.171198 373.994262,355.047707 373.290893,354.689323 372.732696,354.131126 372.374312,353.427756 372.250821,352.648066 372.374312,351.868375 372.732696,351.165006 373.290893,350.606809 373.994262,350.248424"/>
<polygon style="fill: #0000ff; stroke: #000000; stroke-width: 1.000000; stroke-linejoin: miter; stroke-linecap: butt;  opacity: 0.344986" clip-path="url(#4685744057707115011)" points = "430.979543,246.725411 431.759234,246.848902 432.462603,247.207287 433.020800,247.765484 433.379185,248.468853 433.502676,249.248544 433.379185,250.028235 433.020800,250.731604 432.462603,251.289801 431.759234,251.648186 430.979543,251.771676 430.199853,251.648186 429.496483,251.289801 428.938286,250.731604 428.579902,250.028235 428.456411,249.248544 428.579902,248.468853 428.938286,247.765484 429.496483,247.207287 430.199853,246.848902"/>
<polygon style="fill: #0000ff; stroke: #000000; stroke-width: 1.000000; stroke-linejoin: miter; stroke-linecap: butt;  opacity: 0.819627" clip-path="url(#4685744057707115011)" points = "393.931602,335.822299 394.711293,335.945790 395.414662,336.304174 395.972859,336.862371 396.331244,337.565740 396.454735,338.345431 396.331244,339.125122 395.972859,339.828491 395.414662,340.386688 394.711293,340.745073 393.931602,340.868564 393.151911,340.745073 392.448542,340.386688 391.890345,339.828491 391.531960,339.125122 391.408470,338.345431 391.531960,337.565740 391.890345,336.862371 392.448542,336.304174 393.151911,335.945790"/>
<polygon style="fill: #0000ff; stroke: #000000; stroke-width: 1.000000; stroke-linejoin: miter; stroke-linecap: butt;  opacity: 0.732012" clip-path="url(#4685744057707115011)" points = "412.725120,321.791516 413.504811,321.915006 414.208180,322.273391 414.766377,322.831588 415.124762,323.534957 415.248253,324.314648 415.124762,325.094339 414.766377,325.797708 414.208180,326.355905 413.504811,326.714290 412.725120,326.837781 411.945429,326.714290 411.242060,326.355905 410.683863,325.797708 410.325478,325.094339 410.201988,324.314648 410.325478,323.534957 410.683863,322.831588 411.242060,322.273391 411.945429,321.915006"/>
<polygon style="fill: #0000ff; stroke: #000000; stroke-width: 1.000000; stroke-linejoin: miter; stroke-linecap: butt;  opacity: 0.561684" clip-path="url(#4685744057707115011)" points = "449.260515,294.515079 450.040206,294.638570 450.743575,294.996955 451.301772,295.555152 451.660156,296.258521 451.783647,297.038212 451.660156,297.817903 451.301772,298.521272 450.743575,299.079469 450.040206,299.437853 449.260515,299.561344 448.480824,299.437853 447.777455,299.079469 447.219258,298.521272 446.860873,297.817903 446.737382,297.038212 446.860873,296.258521 447.219258,295.555152 447.777455,294.996955 448.480824,294.638570"/>
<polygon style="fill: #0000ff; stroke: #000000; stroke-width: 1.000000; stroke-linejoin: miter; stroke-linecap: butt;  opacity: 0.646046" clip-path="url(#4685744057707115011)" points = "431.164791,308.024906 431.944482,308.148397 432.647851,308.506782 433.206048,309.064979 433.564432,309.768348 433.687923,310.548039 433.564432,311.327730 433.206048,312.031099 432.647851,312.589296 431.944482,312.947680 431.164791,313.071171 430.385100,312.947680 429.681731,312.589296 429.123534,312.031099 428.765149,311.327730 428.641658,310.548039 428.765149,309.768348 429.123534,309.064979 429.681731,308.506782 430.385100,308.148397"/>
<polygon style="fill: #0000ff; stroke: #000000; stroke-width: 1.000000; stroke-linejoin: miter; stroke-linecap: butt;  opacity: 0.397594" clip-path="url(#4685744057707115011)" points = "484.457910,268.237561 485.237601,268.361052 485.940970,268.719436 486.499167,269.277633 486.857551,269.981002 486.981042,270.760693 486.857551,271.540384 486.499167,272.243753 485.940970,272.801950 485.237601,273.160335 484.457910,273.283826 483.678219,273.160335 482.974850,272.801950 482.416653,272.243753 482.058268,271.540384 481.934777,270.760693 482.058268,269.981002 482.416653,269.277633 482.974850,268.719436 483.678219,268.361052"/>
<polygon style="fill: #0000ff; stroke: #000000; stroke-width: 1.000000; stroke-linejoin: miter; stroke-linecap: butt;  opacity: 0.478881" clip-path="url(#4685744057707115011)" points = "467.021826,281.254916 467.801517,281.378407 468.504886,281.736792 469.063083,282.294989 469.421468,282.998358 469.544958,283.778049 469.421468,284.557740 469.063083,285.261109 468.504886,285.819306 467.801517,286.177691 467.021826,286.301182 466.242135,286.177691 465.538766,285.819306 464.980569,285.261109 464.622184,284.557740 464.498693,283.778049 464.622184,282.998358 464.980569,282.294989 465.538766,281.736792 466.242135,281.378407"/>
<polygon style="fill: #0000ff; stroke: #000000; stroke-width: 1.000000; stroke-linejoin: miter; stroke-linecap: butt;  opacity: 0.716906" clip-path="url(#4685744057707115011)" points = "139.648626,91.969864 140.428317,92.093355 141.131686,92.451740 141.689883,93.009937 142.048268,93.713306 142.171759,94.492997 142.048268,95.272688 141.689883,95.976057 141.131686,96.534254 140.428317,96.892638 139.648626,97.016129 138.868936,96.892638 138.165566,96.534254 137.607369,95.976057 137.248985,95.272688 137.125494,94.492997 137.248985,93.713306 137.607369,93.009937 138.165566,92.451740 138.868936,92.093355"/>
<polygon style="fill: #0000ff; stroke: #000000; stroke-width: 1.000000; stroke-linejoin: miter; stroke-linecap: butt;  opacity: 0.666384" clip-path="url(#4685744057707115011)" points = "194.788051,162.027869 195.567742,162.151360 196.271111,162.509744 196.829308,163.067941 197.187693,163.771311 197.311184,164.551001 197.187693,165.330692 196.829308,166.034062 196.271111,166.592259 195.567742,166.950643 194.788051,167.074134 194.008360,166.950643 193.304991,166.592259 192.746794,166.034062 192.388409,165.330692 192.264919,164.551001 192.388409,163.771311 192.746794,163.067941 193.304991,162.509744 194.008360,162.151360"/>
<polygon style="fill: #0000ff; stroke: #000000; stroke-width: 1.000000; stroke-linejoin: miter; stroke-linecap: butt;  opacity: 0.646599" clip-path="url(#4685744057707115011)" points = "249.164166,217.853979 249.943857,217.977470 250.647226,218.335855 251.205423,218.894052 251.563808,219.597421 251.687299,220.377112 251.563808,221.156803 251.205423,221.860172 250.647226,222.418369 249.943857,222.776754 249.164166,222.900244 248.384475,222.776754 247.681106,222.418369 247.122909,221.860172 246.764524,221.156803 246.641033,220.377112 246.764524,219.597421 247.122909,218.894052 247.681106,218.335855 248.384475,217.977470"/>
<polygon style="fill: #0000ff; stroke: #000000; stroke-width: 1.000000; stroke-linejoin: miter; stroke-linecap: butt;  opacity: 0.626901" clip-path="url(#4685744057707115011)" points = "303.303471,273.436965 304.083162,273.560456 304.786531,273.918841 305.344728,274.477038 305.703113,275.180407 305.826603,275.960098 305.703113,276.739788 305.344728,277.443158 304.786531,278.001355 304.083162,278.359739 303.303471,278.483230 302.523780,278.359739 301.820411,278.001355 301.262214,277.443158 300.903829,276.739788 300.780338,275.960098 300.903829,275.180407 301.262214,274.477038 301.820411,273.918841 302.523780,273.560456"/>
<polygon style="fill: #0000ff; stroke: #000000; stroke-width: 1.000000; stroke-linejoin: miter; stroke-linecap: butt;  opacity: 0.675341" clip-path="url(#4685744057707115011)" points = "357.671606,299.134321 358.451296,299.257812 359.154666,299.616196 359.712863,300.174393 360.071247,300.877763 360.194738,301.657453 360.071247,302.437144 359.712863,303.140514 359.154666,303.698711 358.451296,304.057095 357.671606,304.180586 356.891915,304.057095 356.188546,303.698711 355.630349,303.140514 355.271964,302.437144 355.148473,301.657453 355.271964,300.877763 355.630349,300.174393 356.188546,299.616196 356.891915,299.257812"/>
<polygon style="fill: #0000ff; stroke: #000000; stroke-width: 1.000000; stroke-linejoin: miter; stroke-linecap: butt;  opacity: 0.732012" clip-path="url(#4685744057707115011)" points = "412.725120,321.791516 413.504811,321.915006 414.208180,322.273391 414.766377,322.831588 415.124762,323.534957 415.248253,324.314648 415.124762,325.094339 414.766377,325.797708 414.208180,326.355905 413.504811,326.714290 412.725120,326.837781 411.945429,326.714290 411.242060,326.355905 410.683863,325.797708 410.325478,325.094339 410.201988,324.314648 410.325478,323.534957 410.683863,322.831588 411.242060,322.273391 411.945429,321.915006"/>
<polygon style="fill: #0000ff; stroke: #000000; stroke-width: 1.000000; stroke-linejoin: miter; stroke-linecap: butt;  opacity: 0.804230" clip-path="url(#4685744057707115011)" points = "118.270778,103.775821 119.050469,103.899312 119.753838,104.257697 120.312035,104.815894 120.670419,105.519263 120.793910,106.298954 120.670419,107.078645 120.312035,107.782014 119.753838,108.340211 119.050469,108.698596 118.270778,108.822086 117.491087,108.698596 116.787718,108.340211 116.229521,107.782014 115.871136,107.078645 115.747645,106.298954 115.871136,105.519263 116.229521,104.815894 116.787718,104.257697 117.491087,103.899312"/>
</g>
<g id="matplotlib.axis1">
</g>
<g id="matplotlib.axis2">
</g>
</g>
</g>
</svg>
