<?xml version="1.0" standalone="no"?>
<!DOCTYPE svg PUBLIC "-//W3C//DTD SVG 1.1//EN"
  "http://www.w3.org/Graphics/SVG/1.1/DTD/svg11.dtd">
<!-- Created with matplotlib (http://matplotlib.sourceforge.net/) -->
<svg width="576" height="432" viewBox="0 0 576 432"
   xmlns="http://www.w3.org/2000/svg"
   xmlns:xlink="http://www.w3.org/1999/xlink"
   version="1.1"
   id="svg1">
<g id="figure1">
<polygon style="fill: #ffffff; stroke: #ffffff; stroke-width: 1.000000; stroke-linejoin: miter; stroke-linecap: square;  opacity: 1.000000"  points = "0.000000,432.000000 0.000000,0.000000 576.000000,0.000000 576.000000,432.000000"/>
<polygon style="fill: #ffffff; opacity: 1.000000"  points = "0.000000,432.000000 0.000000,0.000000 576.000000,0.000000 576.000000,432.000000"/>
<g id="axis3d1">
<polygon style="fill: #f2f2f2; stroke: #f2f2f2; stroke-width: 1.000000; stroke-linejoin: miter; stroke-linecap: square;  opacity: 0.100000"  points = "241.211914,230.626613 508.260241,289.840834 519.433224,81.348607 238.467267,28.237352"/>
<path style="fill: none; stroke: #000000; stroke-width: 0.750000; stroke-linejoin: miter; stroke-linecap: square;  opacity: 1.000000"  d="M 76.357701,336.543225 L 357.328625,405.507833 "/>
<text style="font-size: 12.000000; font-family: Bitstream Vera Sans; font-style: Roman; fill: #000000;" x="126.985725" y="379.092411" transform="translate(126.985725,379.092411) rotate(-341.9) translate(-126.985725,-379.092411)">max_snp_mismatch_rate</text>
<g id="linecollection1">
<path style="fill: none; stroke: #e6e6e6; stroke-width: 1.000000; stroke-linejoin: miter; stroke-linecap: butt;  opacity: 1.000000"  d="M 81.730847,337.862069 L 246.335639,231.762727 L 243.846516,29.254197 "/>
<path style="fill: none; stroke: #e6e6e6; stroke-width: 1.000000; stroke-linejoin: miter; stroke-linecap: butt;  opacity: 1.000000"  d="M 133.806316,350.644048 L 295.959675,242.766161 L 295.968604,39.106883 "/>
<path style="fill: none; stroke: #e6e6e6; stroke-width: 1.000000; stroke-linejoin: miter; stroke-linecap: butt;  opacity: 1.000000"  d="M 186.791666,363.649357 L 346.387419,253.947806 L 348.978075,49.127313 "/>
<path style="fill: none; stroke: #e6e6e6; stroke-width: 1.000000; stroke-linejoin: miter; stroke-linecap: butt;  opacity: 1.000000"  d="M 240.710954,376.883903 L 397.638557,265.312027 L 402.897787,59.319806 "/>
<path style="fill: none; stroke: #e6e6e6; stroke-width: 1.000000; stroke-linejoin: miter; stroke-linecap: butt;  opacity: 1.000000"  d="M 295.589092,390.353800 L 449.733420,276.863332 L 457.751387,69.688832 "/>
<path style="fill: none; stroke: #e6e6e6; stroke-width: 1.000000; stroke-linejoin: miter; stroke-linecap: butt;  opacity: 1.000000"  d="M 351.451887,404.065382 L 502.693018,288.606380 L 513.563349,80.239019 "/>
</g>
<g id="xtick1">
<text style="font-size: 12.000000; font-family: Bitstream Vera Sans; font-style: Roman; fill: #000000;" x="68.730847" y="342.362069" >0.05</text>
<path style="fill: none; stroke: #000000; stroke-width: 1.000000; stroke-linejoin: miter; stroke-linecap: square;  opacity: 1.000000"  d="M 81.730847,337.862069 L 79.242567,345.465257 "/>
</g>
<g id="xtick2">
<text style="font-size: 12.000000; font-family: Bitstream Vera Sans; font-style: Roman; fill: #000000;" x="120.806316" y="355.144048" >0.10</text>
<path style="fill: none; stroke: #000000; stroke-width: 1.000000; stroke-linejoin: miter; stroke-linecap: square;  opacity: 1.000000"  d="M 133.806316,350.644048 L 131.318036,358.247235 "/>
</g>
<g id="xtick3">
<text style="font-size: 12.000000; font-family: Bitstream Vera Sans; font-style: Roman; fill: #000000;" x="173.791666" y="368.149357" >0.15</text>
<path style="fill: none; stroke: #000000; stroke-width: 1.000000; stroke-linejoin: miter; stroke-linecap: square;  opacity: 1.000000"  d="M 186.791666,363.649357 L 184.303386,371.252545 "/>
</g>
<g id="xtick4">
<text style="font-size: 12.000000; font-family: Bitstream Vera Sans; font-style: Roman; fill: #000000;" x="227.710954" y="381.383903" >0.20</text>
<path style="fill: none; stroke: #000000; stroke-width: 1.000000; stroke-linejoin: miter; stroke-linecap: square;  opacity: 1.000000"  d="M 240.710954,376.883903 L 238.222674,384.487091 "/>
</g>
<g id="xtick5">
<text style="font-size: 12.000000; font-family: Bitstream Vera Sans; font-style: Roman; fill: #000000;" x="282.589092" y="394.853800" >0.25</text>
<path style="fill: none; stroke: #000000; stroke-width: 1.000000; stroke-linejoin: miter; stroke-linecap: square;  opacity: 1.000000"  d="M 295.589092,390.353800 L 293.100812,397.956987 "/>
</g>
<g id="xtick6">
<text style="font-size: 12.000000; font-family: Bitstream Vera Sans; font-style: Roman; fill: #000000;" x="338.451887" y="408.565382" >0.30</text>
<path style="fill: none; stroke: #000000; stroke-width: 1.000000; stroke-linejoin: miter; stroke-linecap: square;  opacity: 1.000000"  d="M 351.451887,404.065382 L 348.963607,411.668569 "/>
</g>
</g>
<g id="axis3d2">
<polygon style="fill: #e6e6e6; stroke: #e6e6e6; stroke-width: 1.000000; stroke-linejoin: miter; stroke-linecap: square;  opacity: 0.500000"  points = "76.357701,336.543225 241.211914,230.626613 238.467267,28.237352 64.421350,123.401250"/>
<path style="fill: none; stroke: #000000; stroke-width: 0.750000; stroke-linejoin: miter; stroke-linecap: square;  opacity: 1.000000"  d="M 357.328625,405.507833 L 508.260241,289.840834 "/>
<text style="font-size: 12.000000; font-family: Bitstream Vera Sans; font-style: Roman; fill: #000000;" x="424.901640" y="409.410201" transform="translate(424.901640,409.410201) rotate(-45.6) translate(-424.901640,-409.410201)">max_snp_NA_rate</text>
<g id="linecollection2">
<path style="fill: none; stroke: #e6e6e6; stroke-width: 1.000000; stroke-linejoin: miter; stroke-linecap: butt;  opacity: 1.000000"  d="M 360.586508,403.011142 L 79.904448,334.264487 L 68.180167,121.346024 "/>
<path style="fill: none; stroke: #e6e6e6; stroke-width: 1.000000; stroke-linejoin: miter; stroke-linecap: butt;  opacity: 1.000000"  d="M 386.275008,383.324666 L 107.888616,316.285036 L 97.815435,105.142210 "/>
<path style="fill: none; stroke: #e6e6e6; stroke-width: 1.000000; stroke-linejoin: miter; stroke-linecap: butt;  opacity: 1.000000"  d="M 411.315455,364.134828 L 135.197551,298.739413 L 126.697783,89.350074 "/>
<path style="fill: none; stroke: #e6e6e6; stroke-width: 1.000000; stroke-linejoin: miter; stroke-linecap: butt;  opacity: 1.000000"  d="M 435.732067,345.423067 L 161.855403,281.612103 L 154.855544,73.954124 "/>
<path style="fill: none; stroke: #e6e6e6; stroke-width: 1.000000; stroke-linejoin: miter; stroke-linecap: butt;  opacity: 1.000000"  d="M 459.547871,327.171738 L 187.885180,264.888322 L 182.315648,58.939635 "/>
<path style="fill: none; stroke: #e6e6e6; stroke-width: 1.000000; stroke-linejoin: miter; stroke-linecap: butt;  opacity: 1.000000"  d="M 482.784771,309.364054 L 213.308820,248.553975 L 209.103706,44.292603 "/>
<path style="fill: none; stroke: #e6e6e6; stroke-width: 1.000000; stroke-linejoin: miter; stroke-linecap: butt;  opacity: 1.000000"  d="M 505.463623,291.984033 L 238.147253,232.595617 L 235.244090,29.999704 "/>
</g>
<g id="xtick7">
<text style="font-size: 12.000000; font-family: Bitstream Vera Sans; font-style: Roman; fill: #000000;" x="352.086508" y="407.511142" >0.1</text>
<path style="fill: none; stroke: #000000; stroke-width: 1.000000; stroke-linejoin: miter; stroke-linecap: square;  opacity: 1.000000"  d="M 360.586508,403.011142 L 366.304039,408.606662 "/>
</g>
<g id="xtick8">
<text style="font-size: 12.000000; font-family: Bitstream Vera Sans; font-style: Roman; fill: #000000;" x="377.251570" y="387.824666" >0.2</text>
<path style="fill: none; stroke: #000000; stroke-width: 1.000000; stroke-linejoin: miter; stroke-linecap: square;  opacity: 1.000000"  d="M 386.275008,383.324666 L 391.992538,388.920187 "/>
</g>
<g id="xtick9">
<text style="font-size: 12.000000; font-family: Bitstream Vera Sans; font-style: Roman; fill: #000000;" x="402.315455" y="368.634828" >0.3</text>
<path style="fill: none; stroke: #000000; stroke-width: 1.000000; stroke-linejoin: miter; stroke-linecap: square;  opacity: 1.000000"  d="M 411.315455,364.134828 L 417.032985,369.730348 "/>
</g>
<g id="xtick10">
<text style="font-size: 12.000000; font-family: Bitstream Vera Sans; font-style: Roman; fill: #000000;" x="426.732067" y="349.923067" >0.4</text>
<path style="fill: none; stroke: #000000; stroke-width: 1.000000; stroke-linejoin: miter; stroke-linecap: square;  opacity: 1.000000"  d="M 435.732067,345.423067 L 441.449597,351.018587 "/>
</g>
<g id="xtick11">
<text style="font-size: 12.000000; font-family: Bitstream Vera Sans; font-style: Roman; fill: #000000;" x="450.547871" y="331.671738" >0.5</text>
<path style="fill: none; stroke: #000000; stroke-width: 1.000000; stroke-linejoin: miter; stroke-linecap: square;  opacity: 1.000000"  d="M 459.547871,327.171738 L 465.265401,332.767259 "/>
</g>
<g id="xtick12">
<text style="font-size: 12.000000; font-family: Bitstream Vera Sans; font-style: Roman; fill: #000000;" x="473.784771" y="313.864054" >0.6</text>
<path style="fill: none; stroke: #000000; stroke-width: 1.000000; stroke-linejoin: miter; stroke-linecap: square;  opacity: 1.000000"  d="M 482.784771,309.364054 L 488.502301,314.959575 "/>
</g>
<g id="xtick13">
<text style="font-size: 12.000000; font-family: Bitstream Vera Sans; font-style: Roman; fill: #000000;" x="496.463623" y="296.484033" >0.7</text>
<path style="fill: none; stroke: #000000; stroke-width: 1.000000; stroke-linejoin: miter; stroke-linecap: square;  opacity: 1.000000"  d="M 505.463623,291.984033 L 511.181153,297.579553 "/>
</g>
</g>
<g id="axis3d3">
<polygon style="fill: #f2f2f2; stroke: #f2f2f2; stroke-width: 1.000000; stroke-linejoin: miter; stroke-linecap: square;  opacity: 0.100000"  points = "76.357701,336.543225 357.328625,405.507833 508.260241,289.840834 241.211914,230.626613"/>
<path style="fill: none; stroke: #000000; stroke-width: 0.750000; stroke-linejoin: miter; stroke-linecap: square;  opacity: 1.000000"  d="M 76.357701,336.543225 L 64.421350,123.401250 "/>
<text style="font-size: 12.000000; font-family: Bitstream Vera Sans; font-style: Roman; fill: #000000;" x="42.776287" y="295.161185" transform="translate(42.776287,295.161185) rotate(-92.4) translate(-42.776287,-295.161185)">avg_mismatch_rate</text>
<g id="linecollection3">
<path style="fill: none; stroke: #e6e6e6; stroke-width: 1.000000; stroke-linejoin: miter; stroke-linecap: butt;  opacity: 1.000000"  d="M 76.131056,332.496136 L 241.159600,226.768965 L 508.472750,285.875342 "/>
<path style="fill: none; stroke: #e6e6e6; stroke-width: 1.000000; stroke-linejoin: miter; stroke-linecap: butt;  opacity: 1.000000"  d="M 73.374343,283.270770 L 240.523912,179.893572 L 511.056411,237.663220 "/>
<path style="fill: none; stroke: #e6e6e6; stroke-width: 1.000000; stroke-linejoin: miter; stroke-linecap: butt;  opacity: 1.000000"  d="M 70.547556,232.794112 L 239.873254,131.914310 L 513.703614,188.265371 "/>
<path style="fill: none; stroke: #e6e6e6; stroke-width: 1.000000; stroke-linejoin: miter; stroke-linecap: butt;  opacity: 1.000000"  d="M 67.647987,181.017835 L 239.207091,82.791721 L 516.416733,137.637508 "/>
<path style="fill: none; stroke: #e6e6e6; stroke-width: 1.000000; stroke-linejoin: miter; stroke-linecap: butt;  opacity: 1.000000"  d="M 64.672790,127.891094 L 238.524862,32.484445 L 519.198260,85.733110 "/>
</g>
<g id="xtick14">
<text style="font-size: 12.000000; font-family: Bitstream Vera Sans; font-style: Roman; fill: #000000;" x="59.131056" y="336.996136" >0.010</text>
<path style="fill: none; stroke: #000000; stroke-width: 1.000000; stroke-linejoin: miter; stroke-linecap: square;  opacity: 1.000000"  d="M 76.131056,332.496136 L 68.138103,332.831851 "/>
</g>
<g id="xtick15">
<text style="font-size: 12.000000; font-family: Bitstream Vera Sans; font-style: Roman; fill: #000000;" x="56.374343" y="287.770770" >0.015</text>
<path style="fill: none; stroke: #000000; stroke-width: 1.000000; stroke-linejoin: miter; stroke-linecap: square;  opacity: 1.000000"  d="M 73.374343,283.270770 L 65.381390,283.606485 "/>
</g>
<g id="xtick16">
<text style="font-size: 12.000000; font-family: Bitstream Vera Sans; font-style: Roman; fill: #000000;" x="53.547556" y="237.294112" >0.020</text>
<path style="fill: none; stroke: #000000; stroke-width: 1.000000; stroke-linejoin: miter; stroke-linecap: square;  opacity: 1.000000"  d="M 70.547556,232.794112 L 62.554603,233.129827 "/>
</g>
<g id="xtick17">
<text style="font-size: 12.000000; font-family: Bitstream Vera Sans; font-style: Roman; fill: #000000;" x="50.647987" y="185.517835" >0.025</text>
<path style="fill: none; stroke: #000000; stroke-width: 1.000000; stroke-linejoin: miter; stroke-linecap: square;  opacity: 1.000000"  d="M 67.647987,181.017835 L 59.655034,181.353551 "/>
</g>
<g id="xtick18">
<text style="font-size: 12.000000; font-family: Bitstream Vera Sans; font-style: Roman; fill: #000000;" x="47.672790" y="132.391094" >0.030</text>
<path style="fill: none; stroke: #000000; stroke-width: 1.000000; stroke-linejoin: miter; stroke-linecap: square;  opacity: 1.000000"  d="M 64.672790,127.891094 L 56.679837,128.226810 "/>
</g>
</g>
<g id="axes1">
<g id="regpolycollection1">
<defs>
    <clipPath id="4685744057707115011">
    <rect x="0.000000" y="0.000000" width="576.000000" height="432.000000"
    style="stroke: gray; fill: none;"/>
    </clipPath>
</defs>
<polygon style="fill: #0000ff; stroke: #000000; stroke-width: 1.000000; stroke-linejoin: miter; stroke-linecap: butt;  opacity: 0.670916" clip-path="url(#4685744057707115011)" points = "84.571254,320.001709 85.350944,320.125200 86.054314,320.483585 86.612511,321.041782 86.970895,321.745151 87.094386,322.524842 86.970895,323.304533 86.612511,324.007902 86.054314,324.566099 85.350944,324.924483 84.571254,325.047974 83.791563,324.924483 83.088193,324.566099 82.529996,324.007902 82.171612,323.304533 82.048121,322.524842 82.171612,321.745151 82.529996,321.041782 83.088193,320.483585 83.791563,320.125200"/>
<polygon style="fill: #0000ff; stroke: #000000; stroke-width: 1.000000; stroke-linejoin: miter; stroke-linecap: butt;  opacity: 0.632671" clip-path="url(#4685744057707115011)" points = "111.496038,277.959595 112.275729,278.083086 112.979098,278.441470 113.537295,278.999667 113.895680,279.703037 114.019171,280.482727 113.895680,281.262418 113.537295,281.965787 112.979098,282.523985 112.275729,282.882369 111.496038,283.005860 110.716347,282.882369 110.012978,282.523985 109.454781,281.965787 109.096397,281.262418 108.972906,280.482727 109.096397,279.703037 109.454781,278.999667 110.012978,278.441470 110.716347,278.083086"/>
<polygon style="fill: #0000ff; stroke: #000000; stroke-width: 1.000000; stroke-linejoin: miter; stroke-linecap: butt;  opacity: 0.507471" clip-path="url(#4685744057707115011)" points = "165.444810,229.165654 166.224501,229.289145 166.927870,229.647529 167.486067,230.205726 167.844452,230.909095 167.967943,231.688786 167.844452,232.468477 167.486067,233.171846 166.927870,233.730043 166.224501,234.088428 165.444810,234.211919 164.665119,234.088428 163.961750,233.730043 163.403553,233.171846 163.045168,232.468477 162.921678,231.688786 163.045168,230.909095 163.403553,230.205726 163.961750,229.647529 164.665119,229.289145"/>
<polygon style="fill: #0000ff; stroke: #000000; stroke-width: 1.000000; stroke-linejoin: miter; stroke-linecap: butt;  opacity: 0.436197" clip-path="url(#4685744057707115011)" points = "191.783776,212.750086 192.563467,212.873577 193.266836,213.231961 193.825033,213.790158 194.183418,214.493528 194.306909,215.273218 194.183418,216.052909 193.825033,216.756279 193.266836,217.314476 192.563467,217.672860 191.783776,217.796351 191.004085,217.672860 190.300716,217.314476 189.742519,216.756279 189.384134,216.052909 189.260644,215.273218 189.384134,214.493528 189.742519,213.790158 190.300716,213.231961 191.004085,212.873577"/>
<polygon style="fill: #0000ff; stroke: #000000; stroke-width: 1.000000; stroke-linejoin: miter; stroke-linecap: butt;  opacity: 0.580349" clip-path="url(#4685744057707115011)" points = "138.465871,246.073616 139.245561,246.197107 139.948931,246.555492 140.507128,247.113689 140.865512,247.817058 140.989003,248.596749 140.865512,249.376439 140.507128,250.079809 139.948931,250.638006 139.245561,250.996390 138.465871,251.119881 137.686180,250.996390 136.982810,250.638006 136.424613,250.079809 136.066229,249.376439 135.942738,248.596749 136.066229,247.817058 136.424613,247.113689 136.982810,246.555492 137.686180,246.197107"/>
<polygon style="fill: #0000ff; stroke: #000000; stroke-width: 1.000000; stroke-linejoin: miter; stroke-linecap: butt;  opacity: 0.366780" clip-path="url(#4685744057707115011)" points = "217.499552,196.597936 218.279243,196.721427 218.982612,197.079812 219.540809,197.638009 219.899194,198.341378 220.022685,199.121069 219.899194,199.900760 219.540809,200.604129 218.982612,201.162326 218.279243,201.520711 217.499552,201.644201 216.719861,201.520711 216.016492,201.162326 215.458295,200.604129 215.099911,199.900760 214.976420,199.121069 215.099911,198.341378 215.458295,197.638009 216.016492,197.079812 216.719861,196.721427"/>
<polygon style="fill: #0000ff; stroke: #000000; stroke-width: 1.000000; stroke-linejoin: miter; stroke-linecap: butt;  opacity: 0.768795" clip-path="url(#4685744057707115011)" points = "135.619510,304.443836 136.399201,304.567327 137.102571,304.925711 137.660768,305.483908 138.019152,306.187278 138.142643,306.966969 138.019152,307.746659 137.660768,308.450029 137.102571,309.008226 136.399201,309.366610 135.619510,309.490101 134.839820,309.366610 134.136450,309.008226 133.578253,308.450029 133.219869,307.746659 133.096378,306.966969 133.219869,306.187278 133.578253,305.483908 134.136450,304.925711 134.839820,304.567327"/>
<polygon style="fill: #0000ff; stroke: #000000; stroke-width: 1.000000; stroke-linejoin: miter; stroke-linecap: butt;  opacity: 0.300000" clip-path="url(#4685744057707115011)" points = "242.608343,180.098234 243.388034,180.221725 244.091403,180.580109 244.649600,181.138306 245.007984,181.841675 245.131475,182.621366 245.007984,183.401057 244.649600,184.104426 244.091403,184.662623 243.388034,185.021008 242.608343,185.144499 241.828652,185.021008 241.125283,184.662623 240.567086,184.104426 240.208701,183.401057 240.085210,182.621366 240.208701,181.841675 240.567086,181.138306 241.125283,180.580109 241.828652,180.221725"/>
<polygon style="fill: #0000ff; stroke: #000000; stroke-width: 1.000000; stroke-linejoin: miter; stroke-linecap: butt;  opacity: 0.748485" clip-path="url(#4685744057707115011)" points = "162.236250,249.499682 163.015941,249.623172 163.719310,249.981557 164.277507,250.539754 164.635892,251.243123 164.759383,252.022814 164.635892,252.802505 164.277507,253.505874 163.719310,254.064071 163.015941,254.422456 162.236250,254.545947 161.456559,254.422456 160.753190,254.064071 160.194993,253.505874 159.836608,252.802505 159.713118,252.022814 159.836608,251.243123 160.194993,250.539754 160.753190,249.981557 161.456559,249.623172"/>
<polygon style="fill: #0000ff; stroke: #000000; stroke-width: 1.000000; stroke-linejoin: miter; stroke-linecap: butt;  opacity: 0.698580" clip-path="url(#4685744057707115011)" points = "189.193958,214.373122 189.973649,214.496613 190.677018,214.854997 191.235215,215.413194 191.593599,216.116563 191.717090,216.896254 191.593599,217.675945 191.235215,218.379314 190.677018,218.937511 189.973649,219.295896 189.193958,219.419387 188.414267,219.295896 187.710898,218.937511 187.152701,218.379314 186.794316,217.675945 186.670825,216.896254 186.794316,216.116563 187.152701,215.413194 187.710898,214.854997 188.414267,214.496613"/>
<polygon style="fill: #0000ff; stroke: #000000; stroke-width: 1.000000; stroke-linejoin: miter; stroke-linecap: butt;  opacity: 0.556480" clip-path="url(#4685744057707115011)" points = "242.228568,175.993920 243.008258,176.117411 243.711628,176.475796 244.269825,177.033993 244.628209,177.737362 244.751700,178.517053 244.628209,179.296744 244.269825,180.000113 243.711628,180.558310 243.008258,180.916695 242.228568,181.040186 241.448877,180.916695 240.745507,180.558310 240.187310,180.000113 239.828926,179.296744 239.705435,178.517053 239.828926,177.737362 240.187310,177.033993 240.745507,176.475796 241.448877,176.117411"/>
<polygon style="fill: #0000ff; stroke: #000000; stroke-width: 1.000000; stroke-linejoin: miter; stroke-linecap: butt;  opacity: 0.629504" clip-path="url(#4685744057707115011)" points = "215.983625,193.094843 216.763316,193.218334 217.466685,193.576718 218.024882,194.134915 218.383267,194.838284 218.506758,195.617975 218.383267,196.397666 218.024882,197.101035 217.466685,197.659232 216.763316,198.017617 215.983625,198.141108 215.203935,198.017617 214.500565,197.659232 213.942368,197.101035 213.583984,196.397666 213.460493,195.617975 213.583984,194.838284 213.942368,194.134915 214.500565,193.576718 215.203935,193.218334"/>
<polygon style="fill: #0000ff; stroke: #000000; stroke-width: 1.000000; stroke-linejoin: miter; stroke-linecap: butt;  opacity: 0.485268" clip-path="url(#4685744057707115011)" points = "267.852045,159.239212 268.631736,159.362703 269.335105,159.721088 269.893302,160.279285 270.251687,160.982654 270.375178,161.762345 270.251687,162.542036 269.893302,163.245405 269.335105,163.803602 268.631736,164.161986 267.852045,164.285477 267.072354,164.161986 266.368985,163.803602 265.810788,163.245405 265.452404,162.542036 265.328913,161.762345 265.452404,160.982654 265.810788,160.279285 266.368985,159.721088 267.072354,159.362703"/>
<polygon style="fill: #0000ff; stroke: #000000; stroke-width: 1.000000; stroke-linejoin: miter; stroke-linecap: butt;  opacity: 0.826697" clip-path="url(#4685744057707115011)" points = "189.053090,315.362163 189.832781,315.485654 190.536150,315.844039 191.094347,316.402236 191.452732,317.105605 191.576223,317.885296 191.452732,318.664987 191.094347,319.368356 190.536150,319.926553 189.832781,320.284937 189.053090,320.408428 188.273399,320.284937 187.570030,319.926553 187.011833,319.368356 186.653449,318.664987 186.529958,317.885296 186.653449,317.105605 187.011833,316.402236 187.570030,315.844039 188.273399,315.485654"/>
<polygon style="fill: #0000ff; stroke: #000000; stroke-width: 1.000000; stroke-linejoin: miter; stroke-linecap: butt;  opacity: 0.415256" clip-path="url(#4685744057707115011)" points = "292.877190,143.199945 293.656881,143.323436 294.360250,143.681820 294.918447,144.240017 295.276832,144.943386 295.400323,145.723077 295.276832,146.502768 294.918447,147.206137 294.360250,147.764334 293.656881,148.122719 292.877190,148.246210 292.097499,148.122719 291.394130,147.764334 290.835933,147.206137 290.477548,146.502768 290.354058,145.723077 290.477548,144.943386 290.835933,144.240017 291.394130,143.681820 292.097499,143.323436"/>
<polygon style="fill: #0000ff; stroke: #000000; stroke-width: 1.000000; stroke-linejoin: miter; stroke-linecap: butt;  opacity: 0.808224" clip-path="url(#4685744057707115011)" points = "215.712244,258.464516 216.491935,258.588007 217.195304,258.946392 217.753501,259.504589 218.111885,260.207958 218.235376,260.987649 218.111885,261.767340 217.753501,262.470709 217.195304,263.028906 216.491935,263.387290 215.712244,263.510781 214.932553,263.387290 214.229184,263.028906 213.670987,262.470709 213.312602,261.767340 213.189111,260.987649 213.312602,260.207958 213.670987,259.504589 214.229184,258.946392 214.932553,258.588007"/>
<polygon style="fill: #0000ff; stroke: #000000; stroke-width: 1.000000; stroke-linejoin: miter; stroke-linecap: butt;  opacity: 0.778347" clip-path="url(#4685744057707115011)" points = "242.313935,209.349115 243.093626,209.472605 243.796995,209.830990 244.355192,210.389187 244.713576,211.092556 244.837067,211.872247 244.713576,212.651938 244.355192,213.355307 243.796995,213.913504 243.093626,214.271889 242.313935,214.395380 241.534244,214.271889 240.830875,213.913504 240.272678,213.355307 239.914293,212.651938 239.790802,211.872247 239.914293,211.092556 240.272678,210.389187 240.830875,209.830990 241.534244,209.472605"/>
<polygon style="fill: #0000ff; stroke: #000000; stroke-width: 1.000000; stroke-linejoin: miter; stroke-linecap: butt;  opacity: 0.712924" clip-path="url(#4685744057707115011)" points = "268.819888,184.275880 269.599578,184.399371 270.302948,184.757755 270.861145,185.315952 271.219529,186.019322 271.343020,186.799012 271.219529,187.578703 270.861145,188.282072 270.302948,188.840269 269.599578,189.198654 268.819888,189.322145 268.040197,189.198654 267.336828,188.840269 266.778631,188.282072 266.420246,187.578703 266.296755,186.799012 266.420246,186.019322 266.778631,185.315952 267.336828,184.757755 268.040197,184.399371"/>
<polygon style="fill: #0000ff; stroke: #000000; stroke-width: 1.000000; stroke-linejoin: miter; stroke-linecap: butt;  opacity: 0.884787" clip-path="url(#4685744057707115011)" points = "243.495312,327.039459 244.275003,327.162950 244.978372,327.521334 245.536569,328.079531 245.894954,328.782900 246.018445,329.562591 245.894954,330.342282 245.536569,331.045651 244.978372,331.603848 244.275003,331.962233 243.495312,332.085724 242.715621,331.962233 242.012252,331.603848 241.454055,331.045651 241.095671,330.342282 240.972180,329.562591 241.095671,328.782900 241.454055,328.079531 242.012252,327.521334 242.715621,327.162950"/>
<polygon style="fill: #0000ff; stroke: #000000; stroke-width: 1.000000; stroke-linejoin: miter; stroke-linecap: butt;  opacity: 0.568959" clip-path="url(#4685744057707115011)" points = "320.131422,147.327058 320.911113,147.450549 321.614482,147.808933 322.172679,148.367130 322.531063,149.070500 322.654554,149.850190 322.531063,150.629881 322.172679,151.333250 321.614482,151.891447 320.911113,152.249832 320.131422,152.373323 319.351731,152.249832 318.648362,151.891447 318.090165,151.333250 317.731780,150.629881 317.608289,149.850190 317.731780,149.070500 318.090165,148.367130 318.648362,147.808933 319.351731,147.450549"/>
<polygon style="fill: #0000ff; stroke: #000000; stroke-width: 1.000000; stroke-linejoin: miter; stroke-linecap: butt;  opacity: 0.641324" clip-path="url(#4685744057707115011)" points = "294.777698,164.760384 295.557388,164.883875 296.260758,165.242260 296.818955,165.800457 297.177339,166.503826 297.300830,167.283517 297.177339,168.063207 296.818955,168.766577 296.260758,169.324774 295.557388,169.683158 294.777698,169.806649 293.998007,169.683158 293.294637,169.324774 292.736440,168.766577 292.378056,168.063207 292.254565,167.283517 292.378056,166.503826 292.736440,165.800457 293.294637,165.242260 293.998007,164.883875"/>
<polygon style="fill: #0000ff; stroke: #000000; stroke-width: 1.000000; stroke-linejoin: miter; stroke-linecap: butt;  opacity: 0.497502" clip-path="url(#4685744057707115011)" points = "344.885192,130.844630 345.664883,130.968121 346.368252,131.326506 346.926449,131.884703 347.284834,132.588072 347.408325,133.367763 347.284834,134.147453 346.926449,134.850823 346.368252,135.409020 345.664883,135.767404 344.885192,135.890895 344.105502,135.767404 343.402132,135.409020 342.843935,134.850823 342.485551,134.147453 342.362060,133.367763 342.485551,132.588072 342.843935,131.884703 343.402132,131.326506 344.105502,130.968121"/>
<polygon style="fill: #0000ff; stroke: #000000; stroke-width: 1.000000; stroke-linejoin: miter; stroke-linecap: butt;  opacity: 0.867894" clip-path="url(#4685744057707115011)" points = "270.230752,268.375640 271.010443,268.499131 271.713812,268.857516 272.272009,269.415713 272.630394,270.119082 272.753885,270.898773 272.630394,271.678464 272.272009,272.381833 271.713812,272.940030 271.010443,273.298414 270.230752,273.421905 269.451061,273.298414 268.747692,272.940030 268.189495,272.381833 267.831110,271.678464 267.707619,270.898773 267.831110,270.119082 268.189495,269.415713 268.747692,268.857516 269.451061,268.499131"/>
<polygon style="fill: #0000ff; stroke: #000000; stroke-width: 1.000000; stroke-linejoin: miter; stroke-linecap: butt;  opacity: 0.844307" clip-path="url(#4685744057707115011)" points = "296.823291,214.361229 297.602982,214.484720 298.306351,214.843105 298.864548,215.401302 299.222932,216.104671 299.346423,216.884362 299.222932,217.664052 298.864548,218.367422 298.306351,218.925619 297.602982,219.284003 296.823291,219.407494 296.043600,219.284003 295.340231,218.925619 294.782034,218.367422 294.423649,217.664052 294.300158,216.884362 294.423649,216.104671 294.782034,215.401302 295.340231,214.843105 296.043600,214.484720"/>
<polygon style="fill: #0000ff; stroke: #000000; stroke-width: 1.000000; stroke-linejoin: miter; stroke-linecap: butt;  opacity: 0.780262" clip-path="url(#4685744057707115011)" points = "323.041381,187.177876 323.821072,187.301367 324.524441,187.659751 325.082638,188.217948 325.441023,188.921318 325.564514,189.701008 325.441023,190.480699 325.082638,191.184068 324.524441,191.742265 323.821072,192.100650 323.041381,192.224141 322.261690,192.100650 321.558321,191.742265 321.000124,191.184068 320.641740,190.480699 320.518249,189.701008 320.641740,188.921318 321.000124,188.217948 321.558321,187.659751 322.261690,187.301367"/>
<polygon style="fill: #0000ff; stroke: #000000; stroke-width: 1.000000; stroke-linejoin: miter; stroke-linecap: butt;  opacity: 0.941854" clip-path="url(#4685744057707115011)" points = "298.950488,340.218433 299.730179,340.341923 300.433548,340.700308 300.991745,341.258505 301.350129,341.961874 301.473620,342.741565 301.350129,343.521256 300.991745,344.224625 300.433548,344.782822 299.730179,345.141207 298.950488,345.264698 298.170797,345.141207 297.467428,344.782822 296.909231,344.224625 296.550846,343.521256 296.427355,342.741565 296.550846,341.961874 296.909231,341.258505 297.467428,340.700308 298.170797,340.341923"/>
<polygon style="fill: #0000ff; stroke: #000000; stroke-width: 1.000000; stroke-linejoin: miter; stroke-linecap: butt;  opacity: 0.718372" clip-path="url(#4685744057707115011)" points = "348.740328,159.965866 349.520019,160.089357 350.223388,160.447741 350.781585,161.005938 351.139970,161.709308 351.263460,162.488999 351.139970,163.268689 350.781585,163.972059 350.223388,164.530256 349.520019,164.888640 348.740328,165.012131 347.960637,164.888640 347.257268,164.530256 346.699071,163.972059 346.340686,163.268689 346.217195,162.488999 346.340686,161.709308 346.699071,161.005938 347.257268,160.447741 347.960637,160.089357"/>
<polygon style="fill: #0000ff; stroke: #000000; stroke-width: 1.000000; stroke-linejoin: miter; stroke-linecap: butt;  opacity: 0.650075" clip-path="url(#4685744057707115011)" points = "373.838049,138.410902 374.617740,138.534393 375.321110,138.892777 375.879307,139.450974 376.237691,140.154344 376.361182,140.934034 376.237691,141.713725 375.879307,142.417094 375.321110,142.975291 374.617740,143.333676 373.838049,143.457167 373.058359,143.333676 372.354989,142.975291 371.796792,142.417094 371.438408,141.713725 371.314917,140.934034 371.438408,140.154344 371.796792,139.450974 372.354989,138.892777 373.058359,138.534393"/>
<polygon style="fill: #0000ff; stroke: #000000; stroke-width: 1.000000; stroke-linejoin: miter; stroke-linecap: butt;  opacity: 0.582429" clip-path="url(#4685744057707115011)" points = "398.373532,117.900433 399.153223,118.023924 399.856592,118.382308 400.414789,118.940505 400.773173,119.643874 400.896664,120.423565 400.773173,121.203256 400.414789,121.906625 399.856592,122.464822 399.153223,122.823207 398.373532,122.946698 397.593841,122.823207 396.890472,122.464822 396.332275,121.906625 395.973890,121.203256 395.850399,120.423565 395.973890,119.643874 396.332275,118.940505 396.890472,118.382308 397.593841,118.023924"/>
<polygon style="fill: #0000ff; stroke: #000000; stroke-width: 1.000000; stroke-linejoin: miter; stroke-linecap: butt;  opacity: 0.925589" clip-path="url(#4685744057707115011)" points = "325.781020,280.414740 326.560710,280.538231 327.264080,280.896616 327.822277,281.454813 328.180661,282.158182 328.304152,282.937873 328.180661,283.717564 327.822277,284.420933 327.264080,284.979130 326.560710,285.337515 325.781020,285.461006 325.001329,285.337515 324.297960,284.979130 323.739763,284.420933 323.381378,283.717564 323.257887,282.937873 323.381378,282.158182 323.739763,281.454813 324.297960,280.896616 325.001329,280.538231"/>
<polygon style="fill: #0000ff; stroke: #000000; stroke-width: 1.000000; stroke-linejoin: miter; stroke-linecap: butt;  opacity: 0.900888" clip-path="url(#4685744057707115011)" points = "352.400050,226.297033 353.179741,226.420524 353.883110,226.778909 354.441307,227.337106 354.799691,228.040475 354.923182,228.820166 354.799691,229.599856 354.441307,230.303226 353.883110,230.861423 353.179741,231.219807 352.400050,231.343298 351.620359,231.219807 350.916990,230.861423 350.358793,230.303226 350.000408,229.599856 349.876917,228.820166 350.000408,228.040475 350.358793,227.337106 350.916990,226.778909 351.620359,226.420524"/>
<polygon style="fill: #0000ff; stroke: #000000; stroke-width: 1.000000; stroke-linejoin: miter; stroke-linecap: butt;  opacity: 0.838512" clip-path="url(#4685744057707115011)" points = "378.318772,196.939699 379.098463,197.063190 379.801832,197.421575 380.360029,197.979772 380.718414,198.683141 380.841905,199.462832 380.718414,200.242523 380.360029,200.945892 379.801832,201.504089 379.098463,201.862473 378.318772,201.985964 377.539081,201.862473 376.835712,201.504089 376.277515,200.945892 375.919131,200.242523 375.795640,199.462832 375.919131,198.683141 376.277515,197.979772 376.835712,197.421575 377.539081,197.063190"/>
<polygon style="fill: #0000ff; stroke: #000000; stroke-width: 1.000000; stroke-linejoin: miter; stroke-linecap: butt;  opacity: 1.000000" clip-path="url(#4685744057707115011)" points = "355.411224,353.609550 356.190915,353.733041 356.894284,354.091425 357.452481,354.649622 357.810865,355.352992 357.934356,356.132682 357.810865,356.912373 357.452481,357.615743 356.894284,358.173940 356.190915,358.532324 355.411224,358.655815 354.631533,358.532324 353.928164,358.173940 353.369967,357.615743 353.011582,356.912373 352.888091,356.132682 353.011582,355.352992 353.369967,354.649622 353.928164,354.091425 354.631533,353.733041"/>
<polygon style="fill: #0000ff; stroke: #000000; stroke-width: 1.000000; stroke-linejoin: miter; stroke-linecap: butt;  opacity: 0.774551" clip-path="url(#4685744057707115011)" points = "403.686520,169.979198 404.466210,170.102689 405.169580,170.461073 405.727777,171.019270 406.086161,171.722640 406.209652,172.502331 406.086161,173.282021 405.727777,173.985391 405.169580,174.543588 404.466210,174.901972 403.686520,175.025463 402.906829,174.901972 402.203459,174.543588 401.645262,173.985391 401.286878,173.282021 401.163387,172.502331 401.286878,171.722640 401.645262,171.019270 402.203459,170.461073 402.906829,170.102689"/>
<polygon style="fill: #0000ff; stroke: #000000; stroke-width: 1.000000; stroke-linejoin: miter; stroke-linecap: butt;  opacity: 0.705444" clip-path="url(#4685744057707115011)" points = "428.406850,147.834266 429.186541,147.957757 429.889910,148.316141 430.448107,148.874338 430.806492,149.577707 430.929983,150.357398 430.806492,151.137089 430.448107,151.840458 429.889910,152.398655 429.186541,152.757040 428.406850,152.880531 427.627160,152.757040 426.923790,152.398655 426.365593,151.840458 426.007209,151.137089 425.883718,150.357398 426.007209,149.577707 426.365593,148.874338 426.923790,148.316141 427.627160,147.957757"/>
<polygon style="fill: #0000ff; stroke: #000000; stroke-width: 1.000000; stroke-linejoin: miter; stroke-linecap: butt;  opacity: 0.642252" clip-path="url(#4685744057707115011)" points = "452.699005,123.199258 453.478696,123.322749 454.182066,123.681134 454.740263,124.239331 455.098647,124.942700 455.222138,125.722391 455.098647,126.502081 454.740263,127.205451 454.182066,127.763648 453.478696,128.122032 452.699005,128.245523 451.919315,128.122032 451.215945,127.763648 450.657748,127.205451 450.299364,126.502081 450.175873,125.722391 450.299364,124.942700 450.657748,124.239331 451.215945,123.681134 451.919315,123.322749"/>
<polygon style="fill: #0000ff; stroke: #000000; stroke-width: 1.000000; stroke-linejoin: miter; stroke-linecap: butt;  opacity: 0.984123" clip-path="url(#4685744057707115011)" points = "382.349116,292.810728 383.128806,292.934219 383.832176,293.292603 384.390373,293.850800 384.748757,294.554170 384.872248,295.333860 384.748757,296.113551 384.390373,296.816920 383.832176,297.375118 383.128806,297.733502 382.349116,297.856993 381.569425,297.733502 380.866055,297.375118 380.307858,296.816920 379.949474,296.113551 379.825983,295.333860 379.949474,294.554170 380.307858,293.850800 380.866055,293.292603 381.569425,292.934219"/>
<polygon style="fill: #0000ff; stroke: #000000; stroke-width: 1.000000; stroke-linejoin: miter; stroke-linecap: butt;  opacity: 0.958627" clip-path="url(#4685744057707115011)" points = "408.984326,238.365139 409.764017,238.488630 410.467386,238.847014 411.025583,239.405211 411.383968,240.108580 411.507459,240.888271 411.383968,241.667962 411.025583,242.371331 410.467386,242.929528 409.764017,243.287913 408.984326,243.411404 408.204635,243.287913 407.501266,242.929528 406.943069,242.371331 406.584684,241.667962 406.461194,240.888271 406.584684,240.108580 406.943069,239.405211 407.501266,238.847014 408.204635,238.488630"/>
<polygon style="fill: #0000ff; stroke: #000000; stroke-width: 1.000000; stroke-linejoin: miter; stroke-linecap: butt;  opacity: 0.894708" clip-path="url(#4685744057707115011)" points = "434.567622,208.886913 435.347313,209.010404 436.050682,209.368788 436.608879,209.926985 436.967263,210.630355 437.090754,211.410046 436.967263,212.189736 436.608879,212.893106 436.050682,213.451303 435.347313,213.809687 434.567622,213.933178 433.787931,213.809687 433.084562,213.451303 432.526365,212.893106 432.167980,212.189736 432.044489,211.410046 432.167980,210.630355 432.526365,209.926985 433.084562,209.368788 433.787931,209.010404"/>
<polygon style="fill: #0000ff; stroke: #000000; stroke-width: 1.000000; stroke-linejoin: miter; stroke-linecap: butt;  opacity: 0.830017" clip-path="url(#4685744057707115011)" points = "459.594285,181.302365 460.373976,181.425855 461.077345,181.784240 461.635542,182.342437 461.993927,183.045806 462.117418,183.825497 461.993927,184.605188 461.635542,185.308557 461.077345,185.866754 460.373976,186.225139 459.594285,186.348630 458.814594,186.225139 458.111225,185.866754 457.553028,185.308557 457.194643,184.605188 457.071153,183.825497 457.194643,183.045806 457.553028,182.342437 458.111225,181.784240 458.814594,181.425855"/>
<polygon style="fill: #0000ff; stroke: #000000; stroke-width: 1.000000; stroke-linejoin: miter; stroke-linecap: butt;  opacity: 0.775963" clip-path="url(#4685744057707115011)" points = "484.399220,148.137760 485.178911,148.261251 485.882280,148.619635 486.440477,149.177832 486.798862,149.881201 486.922353,150.660892 486.798862,151.440583 486.440477,152.143952 485.882280,152.702149 485.178911,153.060534 484.399220,153.184025 483.619529,153.060534 482.916160,152.702149 482.357963,152.143952 481.999579,151.440583 481.876088,150.660892 481.999579,149.881201 482.357963,149.177832 482.916160,148.619635 483.619529,148.261251"/>
<polygon style="fill: #0000ff; stroke: #000000; stroke-width: 1.000000; stroke-linejoin: miter; stroke-linecap: butt;  opacity: 0.764500" clip-path="url(#4685744057707115011)" points = "510.215493,87.698840 510.995183,87.822331 511.698553,88.180716 512.256750,88.738913 512.615134,89.442282 512.738625,90.221973 512.615134,91.001664 512.256750,91.705033 511.698553,92.263230 510.995183,92.621614 510.215493,92.745105 509.435802,92.621614 508.732433,92.263230 508.174236,91.705033 507.815851,91.001664 507.692360,90.221973 507.815851,89.442282 508.174236,88.738913 508.732433,88.180716 509.435802,87.822331"/>
</g>
<g id="matplotlib.axis1">
</g>
<g id="matplotlib.axis2">
</g>
</g>
</g>
</svg>
