<?xml version="1.0" standalone="no"?>
<!DOCTYPE svg PUBLIC "-//W3C//DTD SVG 1.1//EN"
  "http://www.w3.org/Graphics/SVG/1.1/DTD/svg11.dtd">
<!-- Created with matplotlib (http://matplotlib.sourceforge.net/) -->
<svg width="576" height="432" viewBox="0 0 576 432"
   xmlns="http://www.w3.org/2000/svg"
   xmlns:xlink="http://www.w3.org/1999/xlink"
   version="1.1"
   id="svg1">
<g id="figure1">
<polygon style="fill: #ffffff; stroke: #ffffff; stroke-width: 1.000000; stroke-linejoin: miter; stroke-linecap: square;  opacity: 1.000000"  points = "0.000000,432.000000 0.000000,0.000000 576.000000,0.000000 576.000000,432.000000"/>
<polygon style="fill: #ffffff; opacity: 1.000000"  points = "0.000000,432.000000 0.000000,0.000000 576.000000,0.000000 576.000000,432.000000"/>
<g id="axis3d1">
<polygon style="fill: #f2f2f2; stroke: #f2f2f2; stroke-width: 1.000000; stroke-linejoin: miter; stroke-linecap: square;  opacity: 0.100000"  points = "241.211914,230.626613 508.260241,289.840834 519.433224,81.348607 238.467267,28.237352"/>
<path style="fill: none; stroke: #000000; stroke-width: 0.750000; stroke-linejoin: miter; stroke-linecap: square;  opacity: 1.000000"  d="M 76.357701,336.543225 L 357.328625,405.507833 "/>
<text style="font-size: 12.000000; font-family: Bitstream Vera Sans; font-style: Roman; fill: #000000;" x="127.936123" y="379.403446" transform="translate(127.936123,379.403446) rotate(-341.9) translate(-127.936123,-379.403446)">max_call_mismatch_rate</text>
<g id="linecollection1">
<path style="fill: none; stroke: #e6e6e6; stroke-width: 1.000000; stroke-linejoin: miter; stroke-linecap: butt;  opacity: 1.000000"  d="M 81.730847,337.862069 L 246.335639,231.762727 L 243.846516,29.254197 "/>
<path style="fill: none; stroke: #e6e6e6; stroke-width: 1.000000; stroke-linejoin: miter; stroke-linecap: butt;  opacity: 1.000000"  d="M 133.806316,350.644048 L 295.959675,242.766161 L 295.968604,39.106883 "/>
<path style="fill: none; stroke: #e6e6e6; stroke-width: 1.000000; stroke-linejoin: miter; stroke-linecap: butt;  opacity: 1.000000"  d="M 186.791666,363.649357 L 346.387419,253.947806 L 348.978075,49.127313 "/>
<path style="fill: none; stroke: #e6e6e6; stroke-width: 1.000000; stroke-linejoin: miter; stroke-linecap: butt;  opacity: 1.000000"  d="M 240.710954,376.883903 L 397.638557,265.312027 L 402.897787,59.319806 "/>
<path style="fill: none; stroke: #e6e6e6; stroke-width: 1.000000; stroke-linejoin: miter; stroke-linecap: butt;  opacity: 1.000000"  d="M 295.589092,390.353800 L 449.733420,276.863332 L 457.751387,69.688832 "/>
<path style="fill: none; stroke: #e6e6e6; stroke-width: 1.000000; stroke-linejoin: miter; stroke-linecap: butt;  opacity: 1.000000"  d="M 351.451887,404.065382 L 502.693018,288.606380 L 513.563349,80.239019 "/>
</g>
<g id="xtick1">
<text style="font-size: 12.000000; font-family: Bitstream Vera Sans; font-style: Roman; fill: #000000;" x="68.730847" y="342.362069" >0.05</text>
<path style="fill: none; stroke: #000000; stroke-width: 1.000000; stroke-linejoin: miter; stroke-linecap: square;  opacity: 1.000000"  d="M 81.730847,337.862069 L 79.242567,345.465257 "/>
</g>
<g id="xtick2">
<text style="font-size: 12.000000; font-family: Bitstream Vera Sans; font-style: Roman; fill: #000000;" x="120.806316" y="355.144048" >0.10</text>
<path style="fill: none; stroke: #000000; stroke-width: 1.000000; stroke-linejoin: miter; stroke-linecap: square;  opacity: 1.000000"  d="M 133.806316,350.644048 L 131.318036,358.247235 "/>
</g>
<g id="xtick3">
<text style="font-size: 12.000000; font-family: Bitstream Vera Sans; font-style: Roman; fill: #000000;" x="173.791666" y="368.149357" >0.15</text>
<path style="fill: none; stroke: #000000; stroke-width: 1.000000; stroke-linejoin: miter; stroke-linecap: square;  opacity: 1.000000"  d="M 186.791666,363.649357 L 184.303386,371.252545 "/>
</g>
<g id="xtick4">
<text style="font-size: 12.000000; font-family: Bitstream Vera Sans; font-style: Roman; fill: #000000;" x="227.710954" y="381.383903" >0.20</text>
<path style="fill: none; stroke: #000000; stroke-width: 1.000000; stroke-linejoin: miter; stroke-linecap: square;  opacity: 1.000000"  d="M 240.710954,376.883903 L 238.222674,384.487091 "/>
</g>
<g id="xtick5">
<text style="font-size: 12.000000; font-family: Bitstream Vera Sans; font-style: Roman; fill: #000000;" x="282.589092" y="394.853800" >0.25</text>
<path style="fill: none; stroke: #000000; stroke-width: 1.000000; stroke-linejoin: miter; stroke-linecap: square;  opacity: 1.000000"  d="M 295.589092,390.353800 L 293.100812,397.956987 "/>
</g>
<g id="xtick6">
<text style="font-size: 12.000000; font-family: Bitstream Vera Sans; font-style: Roman; fill: #000000;" x="338.451887" y="408.565382" >0.30</text>
<path style="fill: none; stroke: #000000; stroke-width: 1.000000; stroke-linejoin: miter; stroke-linecap: square;  opacity: 1.000000"  d="M 351.451887,404.065382 L 348.963607,411.668569 "/>
</g>
</g>
<g id="axis3d2">
<polygon style="fill: #e6e6e6; stroke: #e6e6e6; stroke-width: 1.000000; stroke-linejoin: miter; stroke-linecap: square;  opacity: 0.500000"  points = "76.357701,336.543225 241.211914,230.626613 238.467267,28.237352 64.421350,123.401250"/>
<path style="fill: none; stroke: #000000; stroke-width: 0.750000; stroke-linejoin: miter; stroke-linecap: square;  opacity: 1.000000"  d="M 357.328625,405.507833 L 508.260241,289.840834 "/>
<text style="font-size: 12.000000; font-family: Bitstream Vera Sans; font-style: Roman; fill: #000000;" x="425.958426" y="409.045229" transform="translate(425.958426,409.045229) rotate(-45.6) translate(-425.958426,-409.045229)">max_call_NA_rate</text>
<g id="linecollection2">
<path style="fill: none; stroke: #e6e6e6; stroke-width: 1.000000; stroke-linejoin: miter; stroke-linecap: butt;  opacity: 1.000000"  d="M 360.586508,403.011142 L 79.904448,334.264487 L 68.180167,121.346024 "/>
<path style="fill: none; stroke: #e6e6e6; stroke-width: 1.000000; stroke-linejoin: miter; stroke-linecap: butt;  opacity: 1.000000"  d="M 379.914611,388.198980 L 100.956846,320.738605 L 90.478343,109.153946 "/>
<path style="fill: none; stroke: #e6e6e6; stroke-width: 1.000000; stroke-linejoin: miter; stroke-linecap: butt;  opacity: 1.000000"  d="M 398.874695,373.668849 L 121.625951,307.458984 L 112.348919,97.195669 "/>
<path style="fill: none; stroke: #e6e6e6; stroke-width: 1.000000; stroke-linejoin: miter; stroke-linecap: butt;  opacity: 1.000000"  d="M 417.477173,359.412772 L 141.922136,294.418958 L 133.804078,85.464532 "/>
<path style="fill: none; stroke: #e6e6e6; stroke-width: 1.000000; stroke-linejoin: miter; stroke-linecap: butt;  opacity: 1.000000"  d="M 435.732067,345.423067 L 161.855403,281.612103 L 154.855544,73.954124 "/>
<path style="fill: none; stroke: #e6e6e6; stroke-width: 1.000000; stroke-linejoin: miter; stroke-linecap: butt;  opacity: 1.000000"  d="M 453.649029,331.692337 L 181.435400,269.032219 L 175.514605,62.658273 "/>
<path style="fill: none; stroke: #e6e6e6; stroke-width: 1.000000; stroke-linejoin: miter; stroke-linecap: butt;  opacity: 1.000000"  d="M 471.237356,318.213458 L 200.671436,256.673325 L 195.792131,51.571035 "/>
<path style="fill: none; stroke: #e6e6e6; stroke-width: 1.000000; stroke-linejoin: miter; stroke-linecap: butt;  opacity: 1.000000"  d="M 488.506009,304.979563 L 219.572495,244.529648 L 215.698595,40.686685 "/>
<path style="fill: none; stroke: #e6e6e6; stroke-width: 1.000000; stroke-linejoin: miter; stroke-linecap: butt;  opacity: 1.000000"  d="M 505.463623,291.984033 L 238.147253,232.595617 L 235.244090,29.999704 "/>
</g>
<g id="xtick7">
<text style="font-size: 12.000000; font-family: Bitstream Vera Sans; font-style: Roman; fill: #000000;" x="352.086508" y="407.511142" >0.1</text>
<path style="fill: none; stroke: #000000; stroke-width: 1.000000; stroke-linejoin: miter; stroke-linecap: square;  opacity: 1.000000"  d="M 360.586508,403.011142 L 366.304039,408.606662 "/>
</g>
<g id="xtick8">
<text style="font-size: 12.000000; font-family: Bitstream Vera Sans; font-style: Roman; fill: #000000;" x="370.891174" y="392.698980" >0.2</text>
<path style="fill: none; stroke: #000000; stroke-width: 1.000000; stroke-linejoin: miter; stroke-linecap: square;  opacity: 1.000000"  d="M 379.914611,388.198980 L 385.632141,393.794500 "/>
</g>
<g id="xtick9">
<text style="font-size: 12.000000; font-family: Bitstream Vera Sans; font-style: Roman; fill: #000000;" x="389.874695" y="378.168849" >0.3</text>
<path style="fill: none; stroke: #000000; stroke-width: 1.000000; stroke-linejoin: miter; stroke-linecap: square;  opacity: 1.000000"  d="M 398.874695,373.668849 L 404.592225,379.264370 "/>
</g>
<g id="xtick10">
<text style="font-size: 12.000000; font-family: Bitstream Vera Sans; font-style: Roman; fill: #000000;" x="408.477173" y="363.912772" >0.4</text>
<path style="fill: none; stroke: #000000; stroke-width: 1.000000; stroke-linejoin: miter; stroke-linecap: square;  opacity: 1.000000"  d="M 417.477173,359.412772 L 423.194703,365.008292 "/>
</g>
<g id="xtick11">
<text style="font-size: 12.000000; font-family: Bitstream Vera Sans; font-style: Roman; fill: #000000;" x="426.732067" y="349.923067" >0.5</text>
<path style="fill: none; stroke: #000000; stroke-width: 1.000000; stroke-linejoin: miter; stroke-linecap: square;  opacity: 1.000000"  d="M 435.732067,345.423067 L 441.449597,351.018587 "/>
</g>
<g id="xtick12">
<text style="font-size: 12.000000; font-family: Bitstream Vera Sans; font-style: Roman; fill: #000000;" x="444.649029" y="336.192337" >0.6</text>
<path style="fill: none; stroke: #000000; stroke-width: 1.000000; stroke-linejoin: miter; stroke-linecap: square;  opacity: 1.000000"  d="M 453.649029,331.692337 L 459.366559,337.287858 "/>
</g>
<g id="xtick13">
<text style="font-size: 12.000000; font-family: Bitstream Vera Sans; font-style: Roman; fill: #000000;" x="462.237356" y="322.713458" >0.7</text>
<path style="fill: none; stroke: #000000; stroke-width: 1.000000; stroke-linejoin: miter; stroke-linecap: square;  opacity: 1.000000"  d="M 471.237356,318.213458 L 476.954887,323.808978 "/>
</g>
<g id="xtick14">
<text style="font-size: 12.000000; font-family: Bitstream Vera Sans; font-style: Roman; fill: #000000;" x="479.506009" y="309.479563" >0.8</text>
<path style="fill: none; stroke: #000000; stroke-width: 1.000000; stroke-linejoin: miter; stroke-linecap: square;  opacity: 1.000000"  d="M 488.506009,304.979563 L 494.223539,310.575083 "/>
</g>
<g id="xtick15">
<text style="font-size: 12.000000; font-family: Bitstream Vera Sans; font-style: Roman; fill: #000000;" x="496.463623" y="296.484033" >0.9</text>
<path style="fill: none; stroke: #000000; stroke-width: 1.000000; stroke-linejoin: miter; stroke-linecap: square;  opacity: 1.000000"  d="M 505.463623,291.984033 L 511.181153,297.579553 "/>
</g>
</g>
<g id="axis3d3">
<polygon style="fill: #f2f2f2; stroke: #f2f2f2; stroke-width: 1.000000; stroke-linejoin: miter; stroke-linecap: square;  opacity: 0.100000"  points = "76.357701,336.543225 357.328625,405.507833 508.260241,289.840834 241.211914,230.626613"/>
<path style="fill: none; stroke: #000000; stroke-width: 0.750000; stroke-linejoin: miter; stroke-linecap: square;  opacity: 1.000000"  d="M 76.357701,336.543225 L 64.421350,123.401250 "/>
<text style="font-size: 12.000000; font-family: Bitstream Vera Sans; font-style: Roman; fill: #000000;" x="43.720486" y="317.641365" transform="translate(43.720486,317.641365) rotate(-92.4) translate(-43.720486,-317.641365)">no_of_total_snps_removed</text>
<g id="linecollection3">
<path style="fill: none; stroke: #e6e6e6; stroke-width: 1.000000; stroke-linejoin: miter; stroke-linecap: butt;  opacity: 1.000000"  d="M 76.131056,332.496136 L 241.159600,226.768965 L 508.472750,285.875342 "/>
<path style="fill: none; stroke: #e6e6e6; stroke-width: 1.000000; stroke-linejoin: miter; stroke-linecap: butt;  opacity: 1.000000"  d="M 74.914334,310.769681 L 240.878887,206.069286 L 509.613346,264.591371 "/>
<path style="fill: none; stroke: #e6e6e6; stroke-width: 1.000000; stroke-linejoin: miter; stroke-linecap: butt;  opacity: 1.000000"  d="M 73.684057,288.801187 L 240.595274,185.155757 L 510.766242,243.077888 "/>
<path style="fill: none; stroke: #e6e6e6; stroke-width: 1.000000; stroke-linejoin: miter; stroke-linecap: butt;  opacity: 1.000000"  d="M 72.439998,266.586586 L 240.308715,164.025048 L 511.931637,221.331161 "/>
<path style="fill: none; stroke: #e6e6e6; stroke-width: 1.000000; stroke-linejoin: miter; stroke-linecap: butt;  opacity: 1.000000"  d="M 71.181923,244.121720 L 240.019165,142.673756 L 513.109735,199.347375 "/>
<path style="fill: none; stroke: #e6e6e6; stroke-width: 1.000000; stroke-linejoin: miter; stroke-linecap: butt;  opacity: 1.000000"  d="M 69.909595,221.402335 L 239.726577,121.098411 L 514.300747,177.122634 "/>
<path style="fill: none; stroke: #e6e6e6; stroke-width: 1.000000; stroke-linejoin: miter; stroke-linecap: butt;  opacity: 1.000000"  d="M 68.622770,198.424081 L 239.430902,99.295467 L 515.504884,154.652955 "/>
<path style="fill: none; stroke: #e6e6e6; stroke-width: 1.000000; stroke-linejoin: miter; stroke-linecap: butt;  opacity: 1.000000"  d="M 67.321198,175.182509 L 239.132092,77.261303 L 516.722366,131.934265 "/>
<path style="fill: none; stroke: #e6e6e6; stroke-width: 1.000000; stroke-linejoin: miter; stroke-linecap: butt;  opacity: 1.000000"  d="M 66.004625,151.673066 L 238.830096,54.992221 L 517.953416,108.962402 "/>
<path style="fill: none; stroke: #e6e6e6; stroke-width: 1.000000; stroke-linejoin: miter; stroke-linecap: butt;  opacity: 1.000000"  d="M 64.672790,127.891094 L 238.524862,32.484445 L 519.198260,85.733110 "/>
</g>
<g id="xtick16">
<text style="font-size: 12.000000; font-family: Bitstream Vera Sans; font-style: Roman; fill: #000000;" x="57.131056" y="336.996136" >30000</text>
<path style="fill: none; stroke: #000000; stroke-width: 1.000000; stroke-linejoin: miter; stroke-linecap: square;  opacity: 1.000000"  d="M 76.131056,332.496136 L 68.138103,332.831851 "/>
</g>
<g id="xtick17">
<text style="font-size: 12.000000; font-family: Bitstream Vera Sans; font-style: Roman; fill: #000000;" x="55.914334" y="315.269681" >35000</text>
<path style="fill: none; stroke: #000000; stroke-width: 1.000000; stroke-linejoin: miter; stroke-linecap: square;  opacity: 1.000000"  d="M 74.914334,310.769681 L 66.921381,311.105396 "/>
</g>
<g id="xtick18">
<text style="font-size: 12.000000; font-family: Bitstream Vera Sans; font-style: Roman; fill: #000000;" x="54.684057" y="293.301187" >40000</text>
<path style="fill: none; stroke: #000000; stroke-width: 1.000000; stroke-linejoin: miter; stroke-linecap: square;  opacity: 1.000000"  d="M 73.684057,288.801187 L 65.691104,289.136902 "/>
</g>
<g id="xtick19">
<text style="font-size: 12.000000; font-family: Bitstream Vera Sans; font-style: Roman; fill: #000000;" x="53.439998" y="271.086586" >45000</text>
<path style="fill: none; stroke: #000000; stroke-width: 1.000000; stroke-linejoin: miter; stroke-linecap: square;  opacity: 1.000000"  d="M 72.439998,266.586586 L 64.447045,266.922301 "/>
</g>
<g id="xtick20">
<text style="font-size: 12.000000; font-family: Bitstream Vera Sans; font-style: Roman; fill: #000000;" x="52.181923" y="248.621720" >50000</text>
<path style="fill: none; stroke: #000000; stroke-width: 1.000000; stroke-linejoin: miter; stroke-linecap: square;  opacity: 1.000000"  d="M 71.181923,244.121720 L 63.188970,244.457435 "/>
</g>
<g id="xtick21">
<text style="font-size: 12.000000; font-family: Bitstream Vera Sans; font-style: Roman; fill: #000000;" x="50.909595" y="225.902335" >55000</text>
<path style="fill: none; stroke: #000000; stroke-width: 1.000000; stroke-linejoin: miter; stroke-linecap: square;  opacity: 1.000000"  d="M 69.909595,221.402335 L 61.916642,221.738050 "/>
</g>
<g id="xtick22">
<text style="font-size: 12.000000; font-family: Bitstream Vera Sans; font-style: Roman; fill: #000000;" x="49.622770" y="202.924081" >60000</text>
<path style="fill: none; stroke: #000000; stroke-width: 1.000000; stroke-linejoin: miter; stroke-linecap: square;  opacity: 1.000000"  d="M 68.622770,198.424081 L 60.629817,198.759796 "/>
</g>
<g id="xtick23">
<text style="font-size: 12.000000; font-family: Bitstream Vera Sans; font-style: Roman; fill: #000000;" x="48.321198" y="179.682509" >65000</text>
<path style="fill: none; stroke: #000000; stroke-width: 1.000000; stroke-linejoin: miter; stroke-linecap: square;  opacity: 1.000000"  d="M 67.321198,175.182509 L 59.328245,175.518224 "/>
</g>
<g id="xtick24">
<text style="font-size: 12.000000; font-family: Bitstream Vera Sans; font-style: Roman; fill: #000000;" x="47.004625" y="156.173066" >70000</text>
<path style="fill: none; stroke: #000000; stroke-width: 1.000000; stroke-linejoin: miter; stroke-linecap: square;  opacity: 1.000000"  d="M 66.004625,151.673066 L 58.011672,152.008781 "/>
</g>
<g id="xtick25">
<text style="font-size: 12.000000; font-family: Bitstream Vera Sans; font-style: Roman; fill: #000000;" x="45.672790" y="132.391094" >75000</text>
<path style="fill: none; stroke: #000000; stroke-width: 1.000000; stroke-linejoin: miter; stroke-linecap: square;  opacity: 1.000000"  d="M 64.672790,127.891094 L 56.679837,128.226810 "/>
</g>
</g>
<g id="axes1">
<g id="regpolycollection1">
<defs>
    <clipPath id="4685744057707115011">
    <rect x="0.000000" y="0.000000" width="576.000000" height="432.000000"
    style="stroke: gray; fill: none;"/>
    </clipPath>
</defs>
<polygon style="fill: #0000ff; stroke: #000000; stroke-width: 1.000000; stroke-linejoin: miter; stroke-linecap: butt;  opacity: 0.542755" clip-path="url(#4685744057707115011)" points = "249.772087,270.462093 250.551778,270.585584 251.255147,270.943969 251.813344,271.502166 252.171728,272.205535 252.295219,272.985226 252.171728,273.764917 251.813344,274.468286 251.255147,275.026483 250.551778,275.384867 249.772087,275.508358 248.992396,275.384867 248.289027,275.026483 247.730830,274.468286 247.372445,273.764917 247.248954,272.985226 247.372445,272.205535 247.730830,271.502166 248.289027,270.943969 248.992396,270.585584"/>
<polygon style="fill: #0000ff; stroke: #000000; stroke-width: 1.000000; stroke-linejoin: miter; stroke-linecap: butt;  opacity: 0.769926" clip-path="url(#4685744057707115011)" points = "74.724279,136.677492 75.503970,136.800983 76.207339,137.159368 76.765536,137.717565 77.123921,138.420934 77.247412,139.200625 77.123921,139.980316 76.765536,140.683685 76.207339,141.241882 75.503970,141.600267 74.724279,141.723757 73.944588,141.600267 73.241219,141.241882 72.683022,140.683685 72.324637,139.980316 72.201147,139.200625 72.324637,138.420934 72.683022,137.717565 73.241219,137.159368 73.944588,136.800983"/>
<polygon style="fill: #0000ff; stroke: #000000; stroke-width: 1.000000; stroke-linejoin: miter; stroke-linecap: butt;  opacity: 0.517869" clip-path="url(#4685744057707115011)" points = "105.323040,299.352262 106.102731,299.475753 106.806100,299.834137 107.364297,300.392334 107.722682,301.095704 107.846172,301.875394 107.722682,302.655085 107.364297,303.358454 106.806100,303.916651 106.102731,304.275036 105.323040,304.398527 104.543349,304.275036 103.839980,303.916651 103.281783,303.358454 102.923398,302.655085 102.799907,301.875394 102.923398,301.095704 103.281783,300.392334 103.839980,299.834137 104.543349,299.475753"/>
<polygon style="fill: #0000ff; stroke: #000000; stroke-width: 1.000000; stroke-linejoin: miter; stroke-linecap: butt;  opacity: 0.500665" clip-path="url(#4685744057707115011)" points = "125.143386,264.387003 125.923077,264.510494 126.626446,264.868879 127.184643,265.427076 127.543027,266.130445 127.666518,266.910136 127.543027,267.689827 127.184643,268.393196 126.626446,268.951393 125.923077,269.309778 125.143386,269.433269 124.363695,269.309778 123.660326,268.951393 123.102129,268.393196 122.743744,267.689827 122.620253,266.910136 122.743744,266.130445 123.102129,265.427076 123.660326,264.868879 124.363695,264.510494"/>
<polygon style="fill: #0000ff; stroke: #000000; stroke-width: 1.000000; stroke-linejoin: miter; stroke-linecap: butt;  opacity: 0.379097" clip-path="url(#4685744057707115011)" points = "185.467457,224.460782 186.247148,224.584273 186.950517,224.942657 187.508714,225.500854 187.867099,226.204224 187.990589,226.983914 187.867099,227.763605 187.508714,228.466974 186.950517,229.025171 186.247148,229.383556 185.467457,229.507047 184.687766,229.383556 183.984397,229.025171 183.426200,228.466974 183.067815,227.763605 182.944324,226.983914 183.067815,226.204224 183.426200,225.500854 183.984397,224.942657 184.687766,224.584273"/>
<polygon style="fill: #0000ff; stroke: #000000; stroke-width: 1.000000; stroke-linejoin: miter; stroke-linecap: butt;  opacity: 0.461082" clip-path="url(#4685744057707115011)" points = "145.556379,249.382706 146.336070,249.506197 147.039439,249.864581 147.597636,250.422778 147.956020,251.126148 148.079511,251.905838 147.956020,252.685529 147.597636,253.388898 147.039439,253.947095 146.336070,254.305480 145.556379,254.428971 144.776688,254.305480 144.073319,253.947095 143.515122,253.388898 143.156737,252.685529 143.033246,251.905838 143.156737,251.126148 143.515122,250.422778 144.073319,249.864581 144.776688,249.506197"/>
<polygon style="fill: #0000ff; stroke: #000000; stroke-width: 1.000000; stroke-linejoin: miter; stroke-linecap: butt;  opacity: 0.419719" clip-path="url(#4685744057707115011)" points = "165.692440,236.809019 166.472131,236.932510 167.175501,237.290894 167.733698,237.849091 168.092082,238.552461 168.215573,239.332152 168.092082,240.111842 167.733698,240.815212 167.175501,241.373409 166.472131,241.731793 165.692440,241.855284 164.912750,241.731793 164.209380,241.373409 163.651183,240.815212 163.292799,240.111842 163.169308,239.332152 163.292799,238.552461 163.651183,237.849091 164.209380,237.290894 164.912750,236.932510"/>
<polygon style="fill: #0000ff; stroke: #000000; stroke-width: 1.000000; stroke-linejoin: miter; stroke-linecap: butt;  opacity: 0.814269" clip-path="url(#4685744057707115011)" points = "129.283817,148.280127 130.063508,148.403617 130.766877,148.762002 131.325074,149.320199 131.683459,150.023568 131.806950,150.803259 131.683459,151.582950 131.325074,152.286319 130.766877,152.844516 130.063508,153.202901 129.283817,153.326392 128.504126,153.202901 127.800757,152.844516 127.242560,152.286319 126.884175,151.582950 126.760684,150.803259 126.884175,150.023568 127.242560,149.320199 127.800757,148.762002 128.504126,148.403617"/>
<polygon style="fill: #0000ff; stroke: #000000; stroke-width: 1.000000; stroke-linejoin: miter; stroke-linecap: butt;  opacity: 0.339197" clip-path="url(#4685744057707115011)" points = "204.891052,212.331985 205.670743,212.455476 206.374112,212.813860 206.932309,213.372057 207.290694,214.075427 207.414185,214.855117 207.290694,215.634808 206.932309,216.338177 206.374112,216.896374 205.670743,217.254759 204.891052,217.378250 204.111361,217.254759 203.407992,216.896374 202.849795,216.338177 202.491410,215.634808 202.367920,214.855117 202.491410,214.075427 202.849795,213.372057 203.407992,212.813860 204.111361,212.455476"/>
<polygon style="fill: #0000ff; stroke: #000000; stroke-width: 1.000000; stroke-linejoin: miter; stroke-linecap: butt;  opacity: 0.300000" clip-path="url(#4685744057707115011)" points = "223.972511,200.416830 224.752202,200.540321 225.455571,200.898705 226.013768,201.456902 226.372153,202.160272 226.495644,202.939963 226.372153,203.719653 226.013768,204.423023 225.455571,204.981220 224.752202,205.339604 223.972511,205.463095 223.192821,205.339604 222.489451,204.981220 221.931254,204.423023 221.572870,203.719653 221.449379,202.939963 221.572870,202.160272 221.931254,201.456902 222.489451,200.898705 223.192821,200.540321"/>
<polygon style="fill: #0000ff; stroke: #000000; stroke-width: 1.000000; stroke-linejoin: miter; stroke-linecap: butt;  opacity: 0.557469" clip-path="url(#4685744057707115011)" points = "157.312292,311.973427 158.091983,312.096918 158.795352,312.455302 159.353549,313.013499 159.711934,313.716869 159.835425,314.496559 159.711934,315.276250 159.353549,315.979620 158.795352,316.537817 158.091983,316.896201 157.312292,317.019692 156.532602,316.896201 155.829232,316.537817 155.271035,315.979620 154.912651,315.276250 154.789160,314.496559 154.912651,313.716869 155.271035,313.013499 155.829232,312.455302 156.532602,312.096918"/>
<polygon style="fill: #0000ff; stroke: #000000; stroke-width: 1.000000; stroke-linejoin: miter; stroke-linecap: butt;  opacity: 0.541019" clip-path="url(#4685744057707115011)" points = "177.079908,275.765703 177.859599,275.889194 178.562968,276.247579 179.121165,276.805776 179.479550,277.509145 179.603041,278.288836 179.479550,279.068527 179.121165,279.771896 178.562968,280.330093 177.859599,280.688478 177.079908,280.811969 176.300217,280.688478 175.596848,280.330093 175.038651,279.771896 174.680267,279.068527 174.556776,278.288836 174.680267,277.509145 175.038651,276.805776 175.596848,276.247579 176.300217,275.889194"/>
<polygon style="fill: #0000ff; stroke: #000000; stroke-width: 1.000000; stroke-linejoin: miter; stroke-linecap: butt;  opacity: 0.501605" clip-path="url(#4685744057707115011)" points = "197.201959,259.787705 197.981650,259.911196 198.685019,260.269580 199.243216,260.827777 199.601600,261.531146 199.725091,262.310837 199.601600,263.090528 199.243216,263.793897 198.685019,264.352094 197.981650,264.710479 197.201959,264.833970 196.422268,264.710479 195.718899,264.352094 195.160702,263.793897 194.802317,263.090528 194.678826,262.310837 194.802317,261.531146 195.160702,260.827777 195.718899,260.269580 196.422268,259.911196"/>
<polygon style="fill: #0000ff; stroke: #000000; stroke-width: 1.000000; stroke-linejoin: miter; stroke-linecap: butt;  opacity: 0.459508" clip-path="url(#4685744057707115011)" points = "217.043543,247.008650 217.823234,247.132141 218.526603,247.490525 219.084800,248.048722 219.443185,248.752092 219.566676,249.531782 219.443185,250.311473 219.084800,251.014842 218.526603,251.573039 217.823234,251.931424 217.043543,252.054915 216.263852,251.931424 215.560483,251.573039 215.002286,251.014842 214.643902,250.311473 214.520411,249.531782 214.643902,248.752092 215.002286,248.048722 215.560483,247.490525 216.263852,247.132141"/>
<polygon style="fill: #0000ff; stroke: #000000; stroke-width: 1.000000; stroke-linejoin: miter; stroke-linecap: butt;  opacity: 0.418173" clip-path="url(#4685744057707115011)" points = "236.526266,234.460721 237.305957,234.584212 238.009327,234.942596 238.567524,235.500793 238.925908,236.204163 239.049399,236.983854 238.925908,237.763544 238.567524,238.466914 238.009327,239.025111 237.305957,239.383495 236.526266,239.506986 235.746576,239.383495 235.043206,239.025111 234.485009,238.466914 234.126625,237.763544 234.003134,236.983854 234.126625,236.204163 234.485009,235.500793 235.043206,234.942596 235.746576,234.584212"/>
<polygon style="fill: #0000ff; stroke: #000000; stroke-width: 1.000000; stroke-linejoin: miter; stroke-linecap: butt;  opacity: 0.859425" clip-path="url(#4685744057707115011)" points = "184.843704,160.095495 185.623395,160.218986 186.326764,160.577370 186.884961,161.135567 187.243346,161.838937 187.366837,162.618628 187.243346,163.398318 186.884961,164.101688 186.326764,164.659885 185.623395,165.018269 184.843704,165.141760 184.064013,165.018269 183.360644,164.659885 182.802447,164.101688 182.444063,163.398318 182.320572,162.618628 182.444063,161.838937 182.802447,161.135567 183.360644,160.577370 184.064013,160.218986"/>
<polygon style="fill: #0000ff; stroke: #000000; stroke-width: 1.000000; stroke-linejoin: miter; stroke-linecap: butt;  opacity: 0.377579" clip-path="url(#4685744057707115011)" points = "255.659777,222.137704 256.439468,222.261195 257.142837,222.619579 257.701034,223.177776 258.059419,223.881146 258.182910,224.660837 258.059419,225.440527 257.701034,226.143897 257.142837,226.702094 256.439468,227.060478 255.659777,227.183969 254.880086,227.060478 254.176717,226.702094 253.618520,226.143897 253.260135,225.440527 253.136645,224.660837 253.260135,223.881146 253.618520,223.177776 254.176717,222.619579 254.880086,222.261195"/>
<polygon style="fill: #0000ff; stroke: #000000; stroke-width: 1.000000; stroke-linejoin: miter; stroke-linecap: butt;  opacity: 0.337706" clip-path="url(#4685744057707115011)" points = "274.453381,210.033606 275.233071,210.157097 275.936441,210.515481 276.494638,211.073678 276.853022,211.777047 276.976513,212.556738 276.853022,213.336429 276.494638,214.039798 275.936441,214.597995 275.233071,214.956380 274.453381,215.079871 273.673690,214.956380 272.970320,214.597995 272.412123,214.039798 272.053739,213.336429 271.930248,212.556738 272.053739,211.777047 272.412123,211.073678 272.970320,210.515481 273.673690,210.157097"/>
<polygon style="fill: #0000ff; stroke: #000000; stroke-width: 1.000000; stroke-linejoin: miter; stroke-linecap: butt;  opacity: 0.597300" clip-path="url(#4685744057707115011)" points = "210.206880,325.188702 210.986571,325.312193 211.689940,325.670577 212.248137,326.228774 212.606521,326.932143 212.730012,327.711834 212.606521,328.491525 212.248137,329.194894 211.689940,329.753091 210.986571,330.111476 210.206880,330.234967 209.427189,330.111476 208.723820,329.753091 208.165623,329.194894 207.807238,328.491525 207.683747,327.711834 207.807238,326.932143 208.165623,326.228774 208.723820,325.670577 209.427189,325.312193"/>
<polygon style="fill: #0000ff; stroke: #000000; stroke-width: 1.000000; stroke-linejoin: miter; stroke-linecap: butt;  opacity: 0.582852" clip-path="url(#4685744057707115011)" points = "229.922570,286.697901 230.702261,286.821391 231.405630,287.179776 231.963827,287.737973 232.322212,288.441342 232.445702,289.221033 232.322212,290.000724 231.963827,290.704093 231.405630,291.262290 230.702261,291.620675 229.922570,291.744166 229.142879,291.620675 228.439510,291.262290 227.881313,290.704093 227.522928,290.000724 227.399437,289.221033 227.522928,288.441342 227.881313,287.737973 228.439510,287.179776 229.142879,286.821391"/>
<polygon style="fill: #0000ff; stroke: #000000; stroke-width: 1.000000; stroke-linejoin: miter; stroke-linecap: butt;  opacity: 0.542755" clip-path="url(#4685744057707115011)" points = "249.772087,270.462093 250.551778,270.585584 251.255147,270.943969 251.813344,271.502166 252.171728,272.205535 252.295219,272.985226 252.171728,273.764917 251.813344,274.468286 251.255147,275.026483 250.551778,275.384867 249.772087,275.508358 248.992396,275.384867 248.289027,275.026483 247.730830,274.468286 247.372445,273.764917 247.248954,272.985226 247.372445,272.205535 247.730830,271.502166 248.289027,270.943969 248.992396,270.585584"/>
<polygon style="fill: #0000ff; stroke: #000000; stroke-width: 1.000000; stroke-linejoin: miter; stroke-linecap: butt;  opacity: 0.499907" clip-path="url(#4685744057707115011)" points = "269.305059,257.471821 270.084750,257.595312 270.788119,257.953696 271.346316,258.511893 271.704701,259.215262 271.828192,259.994953 271.704701,260.774644 271.346316,261.478013 270.788119,262.036210 270.084750,262.394595 269.305059,262.518086 268.525369,262.394595 267.821999,262.036210 267.263802,261.478013 266.905418,260.774644 266.781927,259.994953 266.905418,259.215262 267.263802,258.511893 267.821999,257.953696 268.525369,257.595312"/>
<polygon style="fill: #0000ff; stroke: #000000; stroke-width: 1.000000; stroke-linejoin: miter; stroke-linecap: butt;  opacity: 0.905416" clip-path="url(#4685744057707115011)" points = "241.431707,172.129503 242.211398,172.252994 242.914767,172.611378 243.472964,173.169575 243.831349,173.872944 243.954840,174.652635 243.831349,175.432326 243.472964,176.135695 242.914767,176.693892 242.211398,177.052277 241.431707,177.175768 240.652016,177.052277 239.948647,176.693892 239.390450,176.135695 239.032066,175.432326 238.908575,174.652635 239.032066,173.872944 239.390450,173.169575 239.948647,172.611378 240.652016,172.252994"/>
<polygon style="fill: #0000ff; stroke: #000000; stroke-width: 1.000000; stroke-linejoin: miter; stroke-linecap: butt;  opacity: 0.457842" clip-path="url(#4685744057707115011)" points = "288.481659,244.718552 289.261349,244.842043 289.964719,245.200428 290.522916,245.758625 290.881300,246.461994 291.004791,247.241685 290.881300,248.021375 290.522916,248.724745 289.964719,249.282942 289.261349,249.641326 288.481659,249.764817 287.701968,249.641326 286.998598,249.282942 286.440401,248.724745 286.082017,248.021375 285.958526,247.241685 286.082017,246.461994 286.440401,245.758625 286.998598,245.200428 287.701968,244.842043"/>
<polygon style="fill: #0000ff; stroke: #000000; stroke-width: 1.000000; stroke-linejoin: miter; stroke-linecap: butt;  opacity: 0.416536" clip-path="url(#4685744057707115011)" points = "307.311549,232.195860 308.091240,232.319351 308.794609,232.677735 309.352806,233.235932 309.711191,233.939301 309.834682,234.718992 309.711191,235.498683 309.352806,236.202052 308.794609,236.760249 308.091240,237.118634 307.311549,237.242125 306.531858,237.118634 305.828489,236.760249 305.270292,236.202052 304.911907,235.498683 304.788416,234.718992 304.911907,233.939301 305.270292,233.235932 305.828489,232.677735 306.531858,232.319351"/>
<polygon style="fill: #0000ff; stroke: #000000; stroke-width: 1.000000; stroke-linejoin: miter; stroke-linecap: butt;  opacity: 0.375971" clip-path="url(#4685744057707115011)" points = "325.804049,219.897546 326.583740,220.021037 327.287109,220.379422 327.845306,220.937619 328.203691,221.640988 328.327182,222.420679 328.203691,223.200370 327.845306,223.903739 327.287109,224.461936 326.583740,224.820321 325.804049,224.943811 325.024358,224.820321 324.320989,224.461936 323.762792,223.903739 323.404408,223.200370 323.280917,222.420679 323.404408,221.640988 323.762792,220.937619 324.320989,220.379422 325.024358,220.021037"/>
<polygon style="fill: #0000ff; stroke: #000000; stroke-width: 1.000000; stroke-linejoin: miter; stroke-linecap: butt;  opacity: 0.638549" clip-path="url(#4685744057707115011)" points = "264.006874,338.028802 264.786565,338.152293 265.489934,338.510677 266.048131,339.068874 266.406516,339.772244 266.530007,340.551934 266.406516,341.331625 266.048131,342.034994 265.489934,342.593191 264.786565,342.951576 264.006874,343.075067 263.227183,342.951576 262.523814,342.593191 261.965617,342.034994 261.607233,341.331625 261.483742,340.551934 261.607233,339.772244 261.965617,339.068874 262.523814,338.510677 263.227183,338.152293"/>
<polygon style="fill: #0000ff; stroke: #000000; stroke-width: 1.000000; stroke-linejoin: miter; stroke-linecap: butt;  opacity: 0.623778" clip-path="url(#4685744057707115011)" points = "283.728394,299.219695 284.508085,299.343186 285.211454,299.701570 285.769651,300.259767 286.128035,300.963137 286.251526,301.742827 286.128035,302.522518 285.769651,303.225887 285.211454,303.784084 284.508085,304.142469 283.728394,304.265960 282.948703,304.142469 282.245334,303.784084 281.687137,303.225887 281.328752,302.522518 281.205261,301.742827 281.328752,300.963137 281.687137,300.259767 282.245334,299.701570 282.948703,299.343186"/>
<polygon style="fill: #0000ff; stroke: #000000; stroke-width: 1.000000; stroke-linejoin: miter; stroke-linecap: butt;  opacity: 0.952266" clip-path="url(#4685744057707115011)" points = "299.076630,184.388275 299.856321,184.511766 300.559690,184.870150 301.117887,185.428347 301.476272,186.131717 301.599763,186.911407 301.476272,187.691098 301.117887,188.394468 300.559690,188.952665 299.856321,189.311049 299.076630,189.434540 298.296939,189.311049 297.593570,188.952665 297.035373,188.394468 296.676988,187.691098 296.553498,186.911407 296.676988,186.131717 297.035373,185.428347 297.593570,184.870150 298.296939,184.511766"/>
<polygon style="fill: #0000ff; stroke: #000000; stroke-width: 1.000000; stroke-linejoin: miter; stroke-linecap: butt;  opacity: 0.583936" clip-path="url(#4685744057707115011)" points = "303.287422,281.928624 304.067113,282.052115 304.770482,282.410499 305.328679,282.968696 305.687064,283.672065 305.810555,284.451756 305.687064,285.231447 305.328679,285.934816 304.770482,286.493013 304.067113,286.851398 303.287422,286.974889 302.507731,286.851398 301.804362,286.493013 301.246165,285.934816 300.887780,285.231447 300.764290,284.451756 300.887780,283.672065 301.246165,282.968696 301.804362,282.410499 302.507731,282.052115"/>
<polygon style="fill: #0000ff; stroke: #000000; stroke-width: 1.000000; stroke-linejoin: miter; stroke-linecap: butt;  opacity: 0.540330" clip-path="url(#4685744057707115011)" points = "322.494624,268.717987 323.274315,268.841478 323.977684,269.199862 324.535881,269.758059 324.894265,270.461429 325.017756,271.241119 324.894265,272.020810 324.535881,272.724179 323.977684,273.282376 323.274315,273.640761 322.494624,273.764252 321.714933,273.640761 321.011564,273.282376 320.453367,272.724179 320.094982,272.020810 319.971491,271.241119 320.094982,270.461429 320.453367,269.758059 321.011564,269.199862 321.714933,268.841478"/>
<polygon style="fill: #0000ff; stroke: #000000; stroke-width: 1.000000; stroke-linejoin: miter; stroke-linecap: butt;  opacity: 0.497527" clip-path="url(#4685744057707115011)" points = "341.348352,255.750468 342.128043,255.873958 342.831412,256.232343 343.389609,256.790540 343.747994,257.493909 343.871485,258.273600 343.747994,259.053291 343.389609,259.756660 342.831412,260.314857 342.128043,260.673242 341.348352,260.796733 340.568661,260.673242 339.865292,260.314857 339.307095,259.756660 338.948710,259.053291 338.825220,258.273600 338.948710,257.493909 339.307095,256.790540 339.865292,256.232343 340.568661,255.873958"/>
<polygon style="fill: #0000ff; stroke: #000000; stroke-width: 1.000000; stroke-linejoin: miter; stroke-linecap: butt;  opacity: 0.455505" clip-path="url(#4685744057707115011)" points = "359.858275,243.019416 360.637966,243.142907 361.341336,243.501291 361.899533,244.059488 362.257917,244.762858 362.381408,245.542549 362.257917,246.322239 361.899533,247.025609 361.341336,247.583806 360.637966,247.942190 359.858275,248.065681 359.078585,247.942190 358.375215,247.583806 357.817018,247.025609 357.458634,246.322239 357.335143,245.542549 357.458634,244.762858 357.817018,244.059488 358.375215,243.501291 359.078585,243.142907"/>
<polygon style="fill: #0000ff; stroke: #000000; stroke-width: 1.000000; stroke-linejoin: miter; stroke-linecap: butt;  opacity: 0.414242" clip-path="url(#4685744057707115011)" points = "378.033713,230.518422 378.813404,230.641913 379.516773,231.000298 380.074970,231.558495 380.433355,232.261864 380.556846,233.041555 380.433355,233.821246 380.074970,234.524615 379.516773,235.082812 378.813404,235.441196 378.033713,235.564687 377.254022,235.441196 376.550653,235.082812 375.992456,234.524615 375.634071,233.821246 375.510581,233.041555 375.634071,232.261864 375.992456,231.558495 376.550653,231.000298 377.254022,230.641913"/>
<polygon style="fill: #0000ff; stroke: #000000; stroke-width: 1.000000; stroke-linejoin: miter; stroke-linecap: butt;  opacity: 0.680527" clip-path="url(#4685744057707115011)" points = "318.757790,351.095852 319.537481,351.219343 320.240851,351.577728 320.799048,352.135925 321.157432,352.839294 321.280923,353.618985 321.157432,354.398676 320.799048,355.102045 320.240851,355.660242 319.537481,356.018627 318.757790,356.142117 317.978100,356.018627 317.274730,355.660242 316.716533,355.102045 316.358149,354.398676 316.234658,353.618985 316.358149,352.839294 316.716533,352.135925 317.274730,351.577728 317.978100,351.219343"/>
<polygon style="fill: #0000ff; stroke: #000000; stroke-width: 1.000000; stroke-linejoin: miter; stroke-linecap: butt;  opacity: 0.666795" clip-path="url(#4685744057707115011)" points = "338.492925,310.830206 339.272616,310.953697 339.975985,311.312081 340.534182,311.870278 340.892567,312.573648 341.016058,313.353338 340.892567,314.133029 340.534182,314.836399 339.975985,315.394596 339.272616,315.752980 338.492925,315.876471 337.713235,315.752980 337.009865,315.394596 336.451668,314.836399 336.093284,314.133029 335.969793,313.353338 336.093284,312.573648 336.451668,311.870278 337.009865,311.312081 337.713235,310.953697"/>
<polygon style="fill: #0000ff; stroke: #000000; stroke-width: 1.000000; stroke-linejoin: miter; stroke-linecap: butt;  opacity: 0.624487" clip-path="url(#4685744057707115011)" points = "357.740402,294.739941 358.520093,294.863432 359.223462,295.221817 359.781659,295.780014 360.140044,296.483383 360.263535,297.263074 360.140044,298.042765 359.781659,298.746134 359.223462,299.304331 358.520093,299.662715 357.740402,299.786206 356.960711,299.662715 356.257342,299.304331 355.699145,298.746134 355.340761,298.042765 355.217270,297.263074 355.340761,296.483383 355.699145,295.780014 356.257342,295.221817 356.960711,294.863432"/>
<polygon style="fill: #0000ff; stroke: #000000; stroke-width: 1.000000; stroke-linejoin: miter; stroke-linecap: butt;  opacity: 1.000000" clip-path="url(#4685744057707115011)" points = "357.808363,196.878168 358.588053,197.001659 359.291423,197.360044 359.849620,197.918241 360.208004,198.621610 360.331495,199.401301 360.208004,200.180992 359.849620,200.884361 359.291423,201.442558 358.588053,201.800942 357.808363,201.924433 357.028672,201.800942 356.325303,201.442558 355.767106,200.884361 355.408721,200.180992 355.285230,199.401301 355.408721,198.621610 355.767106,197.918241 356.325303,197.360044 357.028672,197.001659"/>
<polygon style="fill: #0000ff; stroke: #000000; stroke-width: 1.000000; stroke-linejoin: miter; stroke-linecap: butt;  opacity: 0.580129" clip-path="url(#4685744057707115011)" points = "376.601904,281.296279 377.381594,281.419770 378.084964,281.778155 378.643161,282.336352 379.001545,283.039721 379.125036,283.819412 379.001545,284.599103 378.643161,285.302472 378.084964,285.860669 377.381594,286.219053 376.601904,286.342544 375.822213,286.219053 375.118844,285.860669 374.560647,285.302472 374.202262,284.599103 374.078771,283.819412 374.202262,283.039721 374.560647,282.336352 375.118844,281.778155 375.822213,281.419770"/>
<polygon style="fill: #0000ff; stroke: #000000; stroke-width: 1.000000; stroke-linejoin: miter; stroke-linecap: butt;  opacity: 0.536594" clip-path="url(#4685744057707115011)" points = "395.113351,268.102121 395.893042,268.225611 396.596411,268.583996 397.154608,269.142193 397.512993,269.845562 397.636484,270.625253 397.512993,271.404944 397.154608,272.108313 396.596411,272.666510 395.893042,273.024895 395.113351,273.148386 394.333660,273.024895 393.630291,272.666510 393.072094,272.108313 392.713710,271.404944 392.590219,270.625253 392.713710,269.845562 393.072094,269.142193 393.630291,268.583996 394.333660,268.225611"/>
<polygon style="fill: #0000ff; stroke: #000000; stroke-width: 1.000000; stroke-linejoin: miter; stroke-linecap: butt;  opacity: 0.493860" clip-path="url(#4685744057707115011)" points = "413.284400,255.150583 414.064091,255.274074 414.767460,255.632458 415.325657,256.190655 415.684042,256.894025 415.807533,257.673715 415.684042,258.453406 415.325657,259.156776 414.767460,259.714973 414.064091,260.073357 413.284400,260.196848 412.504710,260.073357 411.801340,259.714973 411.243143,259.156776 410.884759,258.453406 410.761268,257.673715 410.884759,256.894025 411.243143,256.190655 411.801340,255.632458 412.504710,255.274074"/>
<polygon style="fill: #0000ff; stroke: #000000; stroke-width: 1.000000; stroke-linejoin: miter; stroke-linecap: butt;  opacity: 0.723972" clip-path="url(#4685744057707115011)" points = "374.496771,363.817657 375.276461,363.941148 375.979831,364.299533 376.538028,364.857730 376.896412,365.561099 377.019903,366.340790 376.896412,367.120481 376.538028,367.823850 375.979831,368.382047 375.276461,368.740431 374.496771,368.863922 373.717080,368.740431 373.013710,368.382047 372.455513,367.823850 372.097129,367.120481 371.973638,366.340790 372.097129,365.561099 372.455513,364.857730 373.013710,364.299533 373.717080,363.941148"/>
<polygon style="fill: #0000ff; stroke: #000000; stroke-width: 1.000000; stroke-linejoin: miter; stroke-linecap: butt;  opacity: 0.451904" clip-path="url(#4685744057707115011)" points = "431.124355,242.435035 431.904046,242.558526 432.607415,242.916911 433.165612,243.475108 433.523997,244.178477 433.647487,244.958168 433.523997,245.737859 433.165612,246.441228 432.607415,246.999425 431.904046,247.357809 431.124355,247.481300 430.344664,247.357809 429.641295,246.999425 429.083098,246.441228 428.724713,245.737859 428.601222,244.958168 428.724713,244.178477 429.083098,243.475108 429.641295,242.916911 430.344664,242.558526"/>
<polygon style="fill: #0000ff; stroke: #000000; stroke-width: 1.000000; stroke-linejoin: miter; stroke-linecap: butt;  opacity: 0.707517" clip-path="url(#4685744057707115011)" points = "394.198626,325.167260 394.978317,325.290751 395.681686,325.649136 396.239883,326.207333 396.598267,326.910702 396.721758,327.690393 396.598267,328.470084 396.239883,329.173453 395.681686,329.731650 394.978317,330.090034 394.198626,330.213525 393.418935,330.090034 392.715566,329.731650 392.157369,329.173453 391.798984,328.470084 391.675493,327.690393 391.798984,326.910702 392.157369,326.207333 392.715566,325.649136 393.418935,325.290751"/>
<polygon style="fill: #0000ff; stroke: #000000; stroke-width: 1.000000; stroke-linejoin: miter; stroke-linecap: butt;  opacity: 0.666400" clip-path="url(#4685744057707115011)" points = "413.158221,307.234913 413.937912,307.358404 414.641281,307.716788 415.199478,308.274985 415.557863,308.978354 415.681353,309.758045 415.557863,310.537736 415.199478,311.241105 414.641281,311.799302 413.937912,312.157687 413.158221,312.281178 412.378530,312.157687 411.675161,311.799302 411.116964,311.241105 410.758579,310.537736 410.635088,309.758045 410.758579,308.978354 411.116964,308.274985 411.675161,307.716788 412.378530,307.358404"/>
<polygon style="fill: #0000ff; stroke: #000000; stroke-width: 1.000000; stroke-linejoin: miter; stroke-linecap: butt;  opacity: 0.576958" clip-path="url(#4685744057707115011)" points = "449.818286,280.131852 450.597977,280.255343 451.301346,280.613727 451.859543,281.171924 452.217928,281.875293 452.341419,282.654984 452.217928,283.434675 451.859543,284.138044 451.301346,284.696241 450.597977,285.054626 449.818286,285.178117 449.038595,285.054626 448.335226,284.696241 447.777029,284.138044 447.418645,283.434675 447.295154,282.654984 447.418645,281.875293 447.777029,281.171924 448.335226,280.613727 449.038595,280.255343"/>
<polygon style="fill: #0000ff; stroke: #000000; stroke-width: 1.000000; stroke-linejoin: miter; stroke-linecap: butt;  opacity: 0.621256" clip-path="url(#4685744057707115011)" points = "431.661447,293.555339 432.441138,293.678830 433.144507,294.037214 433.702704,294.595411 434.061089,295.298781 434.184579,296.078472 434.061089,296.858162 433.702704,297.561532 433.144507,298.119729 432.441138,298.478113 431.661447,298.601604 430.881756,298.478113 430.178387,298.119729 429.620190,297.561532 429.261805,296.858162 429.138314,296.078472 429.261805,295.298781 429.620190,294.595411 430.178387,294.037214 430.881756,293.678830"/>
<polygon style="fill: #0000ff; stroke: #000000; stroke-width: 1.000000; stroke-linejoin: miter; stroke-linecap: butt;  opacity: 0.490804" clip-path="url(#4685744057707115011)" points = "485.130997,254.024900 485.910688,254.148391 486.614057,254.506776 487.172254,255.064973 487.530638,255.768342 487.654129,256.548033 487.530638,257.327724 487.172254,258.031093 486.614057,258.589290 485.910688,258.947674 485.130997,259.071165 484.351306,258.947674 483.647937,258.589290 483.089740,258.031093 482.731355,257.327724 482.607864,256.548033 482.731355,255.768342 483.089740,255.064973 483.647937,254.506776 484.351306,254.148391"/>
<polygon style="fill: #0000ff; stroke: #000000; stroke-width: 1.000000; stroke-linejoin: miter; stroke-linecap: butt;  opacity: 0.533482" clip-path="url(#4685744057707115011)" points = "467.638375,266.957326 468.418066,267.080817 469.121435,267.439202 469.679632,267.997399 470.038017,268.700768 470.161508,269.480459 470.038017,270.260150 469.679632,270.963519 469.121435,271.521716 468.418066,271.880100 467.638375,272.003591 466.858685,271.880100 466.155315,271.521716 465.597118,270.963519 465.238734,270.260150 465.115243,269.480459 465.238734,268.700768 465.597118,267.997399 466.155315,267.439202 466.858685,267.080817"/>
<polygon style="fill: #0000ff; stroke: #000000; stroke-width: 1.000000; stroke-linejoin: miter; stroke-linecap: butt;  opacity: 0.461082" clip-path="url(#4685744057707115011)" points = "145.556379,249.382706 146.336070,249.506197 147.039439,249.864581 147.597636,250.422778 147.956020,251.126148 148.079511,251.905838 147.956020,252.685529 147.597636,253.388898 147.039439,253.947095 146.336070,254.305480 145.556379,254.428971 144.776688,254.305480 144.073319,253.947095 143.515122,253.388898 143.156737,252.685529 143.033246,251.905838 143.156737,251.126148 143.515122,250.422778 144.073319,249.864581 144.776688,249.506197"/>
<polygon style="fill: #0000ff; stroke: #000000; stroke-width: 1.000000; stroke-linejoin: miter; stroke-linecap: butt;  opacity: 0.501605" clip-path="url(#4685744057707115011)" points = "197.201959,259.787705 197.981650,259.911196 198.685019,260.269580 199.243216,260.827777 199.601600,261.531146 199.725091,262.310837 199.601600,263.090528 199.243216,263.793897 198.685019,264.352094 197.981650,264.710479 197.201959,264.833970 196.422268,264.710479 195.718899,264.352094 195.160702,263.793897 194.802317,263.090528 194.678826,262.310837 194.802317,261.531146 195.160702,260.827777 195.718899,260.269580 196.422268,259.911196"/>
<polygon style="fill: #0000ff; stroke: #000000; stroke-width: 1.000000; stroke-linejoin: miter; stroke-linecap: butt;  opacity: 0.542755" clip-path="url(#4685744057707115011)" points = "249.772087,270.462093 250.551778,270.585584 251.255147,270.943969 251.813344,271.502166 252.171728,272.205535 252.295219,272.985226 252.171728,273.764917 251.813344,274.468286 251.255147,275.026483 250.551778,275.384867 249.772087,275.508358 248.992396,275.384867 248.289027,275.026483 247.730830,274.468286 247.372445,273.764917 247.248954,272.985226 247.372445,272.205535 247.730830,271.502166 248.289027,270.943969 248.992396,270.585584"/>
<polygon style="fill: #0000ff; stroke: #000000; stroke-width: 1.000000; stroke-linejoin: miter; stroke-linecap: butt;  opacity: 0.583936" clip-path="url(#4685744057707115011)" points = "303.287422,281.928624 304.067113,282.052115 304.770482,282.410499 305.328679,282.968696 305.687064,283.672065 305.810555,284.451756 305.687064,285.231447 305.328679,285.934816 304.770482,286.493013 304.067113,286.851398 303.287422,286.974889 302.507731,286.851398 301.804362,286.493013 301.246165,285.934816 300.887780,285.231447 300.764290,284.451756 300.887780,283.672065 301.246165,282.968696 301.804362,282.410499 302.507731,282.052115"/>
<polygon style="fill: #0000ff; stroke: #000000; stroke-width: 1.000000; stroke-linejoin: miter; stroke-linecap: butt;  opacity: 0.624487" clip-path="url(#4685744057707115011)" points = "357.740402,294.739941 358.520093,294.863432 359.223462,295.221817 359.781659,295.780014 360.140044,296.483383 360.263535,297.263074 360.140044,298.042765 359.781659,298.746134 359.223462,299.304331 358.520093,299.662715 357.740402,299.786206 356.960711,299.662715 356.257342,299.304331 355.699145,298.746134 355.340761,298.042765 355.217270,297.263074 355.340761,296.483383 355.699145,295.780014 356.257342,295.221817 356.960711,294.863432"/>
<polygon style="fill: #0000ff; stroke: #000000; stroke-width: 1.000000; stroke-linejoin: miter; stroke-linecap: butt;  opacity: 0.666400" clip-path="url(#4685744057707115011)" points = "413.158221,307.234913 413.937912,307.358404 414.641281,307.716788 415.199478,308.274985 415.557863,308.978354 415.681353,309.758045 415.557863,310.537736 415.199478,311.241105 414.641281,311.799302 413.937912,312.157687 413.158221,312.281178 412.378530,312.157687 411.675161,311.799302 411.116964,311.241105 410.758579,310.537736 410.635088,309.758045 410.758579,308.978354 411.116964,308.274985 411.675161,307.716788 412.378530,307.358404"/>
<polygon style="fill: #0000ff; stroke: #000000; stroke-width: 1.000000; stroke-linejoin: miter; stroke-linecap: butt;  opacity: 0.500665" clip-path="url(#4685744057707115011)" points = "125.143386,264.387003 125.923077,264.510494 126.626446,264.868879 127.184643,265.427076 127.543027,266.130445 127.666518,266.910136 127.543027,267.689827 127.184643,268.393196 126.626446,268.951393 125.923077,269.309778 125.143386,269.433269 124.363695,269.309778 123.660326,268.951393 123.102129,268.393196 122.743744,267.689827 122.620253,266.910136 122.743744,266.130445 123.102129,265.427076 123.660326,264.868879 124.363695,264.510494"/>
</g>
<g id="matplotlib.axis1">
</g>
<g id="matplotlib.axis2">
</g>
</g>
</g>
</svg>
