<?xml version="1.0" standalone="no"?>
<!DOCTYPE svg PUBLIC "-//W3C//DTD SVG 1.1//EN"
  "http://www.w3.org/Graphics/SVG/1.1/DTD/svg11.dtd">
<!-- Created with matplotlib (http://matplotlib.sourceforge.net/) -->
<svg width="576" height="432" viewBox="0 0 576 432"
   xmlns="http://www.w3.org/2000/svg"
   xmlns:xlink="http://www.w3.org/1999/xlink"
   version="1.1"
   id="svg1">
<g id="figure1">
<polygon style="fill: #ffffff; stroke: #ffffff; stroke-width: 1.000000; stroke-linejoin: miter; stroke-linecap: square;  opacity: 1.000000"  points = "0.000000,432.000000 0.000000,0.000000 576.000000,0.000000 576.000000,432.000000"/>
<polygon style="fill: #ffffff; opacity: 1.000000"  points = "0.000000,432.000000 0.000000,0.000000 576.000000,0.000000 576.000000,432.000000"/>
<g id="axis3d1">
<polygon style="fill: #f2f2f2; stroke: #f2f2f2; stroke-width: 1.000000; stroke-linejoin: miter; stroke-linecap: square;  opacity: 0.100000"  points = "241.211914,230.626613 508.260241,289.840834 519.433224,81.348607 238.467267,28.237352"/>
<path style="fill: none; stroke: #000000; stroke-width: 0.750000; stroke-linejoin: miter; stroke-linecap: square;  opacity: 1.000000"  d="M 76.357701,336.543225 L 357.328625,405.507833 "/>
<text style="font-size: 12.000000; font-family: Bitstream Vera Sans; font-style: Roman; fill: #000000;" x="126.985725" y="379.092411" transform="translate(126.985725,379.092411) rotate(-341.9) translate(-126.985725,-379.092411)">max_snp_mismatch_rate</text>
<g id="linecollection1">
<path style="fill: none; stroke: #e6e6e6; stroke-width: 1.000000; stroke-linejoin: miter; stroke-linecap: butt;  opacity: 1.000000"  d="M 81.730847,337.862069 L 246.335639,231.762727 L 243.846516,29.254197 "/>
<path style="fill: none; stroke: #e6e6e6; stroke-width: 1.000000; stroke-linejoin: miter; stroke-linecap: butt;  opacity: 1.000000"  d="M 133.806316,350.644048 L 295.959675,242.766161 L 295.968604,39.106883 "/>
<path style="fill: none; stroke: #e6e6e6; stroke-width: 1.000000; stroke-linejoin: miter; stroke-linecap: butt;  opacity: 1.000000"  d="M 186.791666,363.649357 L 346.387419,253.947806 L 348.978075,49.127313 "/>
<path style="fill: none; stroke: #e6e6e6; stroke-width: 1.000000; stroke-linejoin: miter; stroke-linecap: butt;  opacity: 1.000000"  d="M 240.710954,376.883903 L 397.638557,265.312027 L 402.897787,59.319806 "/>
<path style="fill: none; stroke: #e6e6e6; stroke-width: 1.000000; stroke-linejoin: miter; stroke-linecap: butt;  opacity: 1.000000"  d="M 295.589092,390.353800 L 449.733420,276.863332 L 457.751387,69.688832 "/>
<path style="fill: none; stroke: #e6e6e6; stroke-width: 1.000000; stroke-linejoin: miter; stroke-linecap: butt;  opacity: 1.000000"  d="M 351.451887,404.065382 L 502.693018,288.606380 L 513.563349,80.239019 "/>
</g>
<g id="xtick1">
<text style="font-size: 12.000000; font-family: Bitstream Vera Sans; font-style: Roman; fill: #000000;" x="68.730847" y="342.362069" >0.05</text>
<path style="fill: none; stroke: #000000; stroke-width: 1.000000; stroke-linejoin: miter; stroke-linecap: square;  opacity: 1.000000"  d="M 81.730847,337.862069 L 79.242567,345.465257 "/>
</g>
<g id="xtick2">
<text style="font-size: 12.000000; font-family: Bitstream Vera Sans; font-style: Roman; fill: #000000;" x="120.806316" y="355.144048" >0.10</text>
<path style="fill: none; stroke: #000000; stroke-width: 1.000000; stroke-linejoin: miter; stroke-linecap: square;  opacity: 1.000000"  d="M 133.806316,350.644048 L 131.318036,358.247235 "/>
</g>
<g id="xtick3">
<text style="font-size: 12.000000; font-family: Bitstream Vera Sans; font-style: Roman; fill: #000000;" x="173.791666" y="368.149357" >0.15</text>
<path style="fill: none; stroke: #000000; stroke-width: 1.000000; stroke-linejoin: miter; stroke-linecap: square;  opacity: 1.000000"  d="M 186.791666,363.649357 L 184.303386,371.252545 "/>
</g>
<g id="xtick4">
<text style="font-size: 12.000000; font-family: Bitstream Vera Sans; font-style: Roman; fill: #000000;" x="227.710954" y="381.383903" >0.20</text>
<path style="fill: none; stroke: #000000; stroke-width: 1.000000; stroke-linejoin: miter; stroke-linecap: square;  opacity: 1.000000"  d="M 240.710954,376.883903 L 238.222674,384.487091 "/>
</g>
<g id="xtick5">
<text style="font-size: 12.000000; font-family: Bitstream Vera Sans; font-style: Roman; fill: #000000;" x="282.589092" y="394.853800" >0.25</text>
<path style="fill: none; stroke: #000000; stroke-width: 1.000000; stroke-linejoin: miter; stroke-linecap: square;  opacity: 1.000000"  d="M 295.589092,390.353800 L 293.100812,397.956987 "/>
</g>
<g id="xtick6">
<text style="font-size: 12.000000; font-family: Bitstream Vera Sans; font-style: Roman; fill: #000000;" x="338.451887" y="408.565382" >0.30</text>
<path style="fill: none; stroke: #000000; stroke-width: 1.000000; stroke-linejoin: miter; stroke-linecap: square;  opacity: 1.000000"  d="M 351.451887,404.065382 L 348.963607,411.668569 "/>
</g>
</g>
<g id="axis3d2">
<polygon style="fill: #e6e6e6; stroke: #e6e6e6; stroke-width: 1.000000; stroke-linejoin: miter; stroke-linecap: square;  opacity: 0.500000"  points = "76.357701,336.543225 241.211914,230.626613 238.467267,28.237352 64.421350,123.401250"/>
<path style="fill: none; stroke: #000000; stroke-width: 0.750000; stroke-linejoin: miter; stroke-linecap: square;  opacity: 1.000000"  d="M 357.328625,405.507833 L 508.260241,289.840834 "/>
<text style="font-size: 12.000000; font-family: Bitstream Vera Sans; font-style: Roman; fill: #000000;" x="424.901640" y="409.410201" transform="translate(424.901640,409.410201) rotate(-45.6) translate(-424.901640,-409.410201)">max_snp_NA_rate</text>
<g id="linecollection2">
<path style="fill: none; stroke: #e6e6e6; stroke-width: 1.000000; stroke-linejoin: miter; stroke-linecap: butt;  opacity: 1.000000"  d="M 360.586508,403.011142 L 79.904448,334.264487 L 68.180167,121.346024 "/>
<path style="fill: none; stroke: #e6e6e6; stroke-width: 1.000000; stroke-linejoin: miter; stroke-linecap: butt;  opacity: 1.000000"  d="M 386.275008,383.324666 L 107.888616,316.285036 L 97.815435,105.142210 "/>
<path style="fill: none; stroke: #e6e6e6; stroke-width: 1.000000; stroke-linejoin: miter; stroke-linecap: butt;  opacity: 1.000000"  d="M 411.315455,364.134828 L 135.197551,298.739413 L 126.697783,89.350074 "/>
<path style="fill: none; stroke: #e6e6e6; stroke-width: 1.000000; stroke-linejoin: miter; stroke-linecap: butt;  opacity: 1.000000"  d="M 435.732067,345.423067 L 161.855403,281.612103 L 154.855544,73.954124 "/>
<path style="fill: none; stroke: #e6e6e6; stroke-width: 1.000000; stroke-linejoin: miter; stroke-linecap: butt;  opacity: 1.000000"  d="M 459.547871,327.171738 L 187.885180,264.888322 L 182.315648,58.939635 "/>
<path style="fill: none; stroke: #e6e6e6; stroke-width: 1.000000; stroke-linejoin: miter; stroke-linecap: butt;  opacity: 1.000000"  d="M 482.784771,309.364054 L 213.308820,248.553975 L 209.103706,44.292603 "/>
<path style="fill: none; stroke: #e6e6e6; stroke-width: 1.000000; stroke-linejoin: miter; stroke-linecap: butt;  opacity: 1.000000"  d="M 505.463623,291.984033 L 238.147253,232.595617 L 235.244090,29.999704 "/>
</g>
<g id="xtick7">
<text style="font-size: 12.000000; font-family: Bitstream Vera Sans; font-style: Roman; fill: #000000;" x="352.086508" y="407.511142" >0.1</text>
<path style="fill: none; stroke: #000000; stroke-width: 1.000000; stroke-linejoin: miter; stroke-linecap: square;  opacity: 1.000000"  d="M 360.586508,403.011142 L 366.304039,408.606662 "/>
</g>
<g id="xtick8">
<text style="font-size: 12.000000; font-family: Bitstream Vera Sans; font-style: Roman; fill: #000000;" x="377.251570" y="387.824666" >0.2</text>
<path style="fill: none; stroke: #000000; stroke-width: 1.000000; stroke-linejoin: miter; stroke-linecap: square;  opacity: 1.000000"  d="M 386.275008,383.324666 L 391.992538,388.920187 "/>
</g>
<g id="xtick9">
<text style="font-size: 12.000000; font-family: Bitstream Vera Sans; font-style: Roman; fill: #000000;" x="402.315455" y="368.634828" >0.3</text>
<path style="fill: none; stroke: #000000; stroke-width: 1.000000; stroke-linejoin: miter; stroke-linecap: square;  opacity: 1.000000"  d="M 411.315455,364.134828 L 417.032985,369.730348 "/>
</g>
<g id="xtick10">
<text style="font-size: 12.000000; font-family: Bitstream Vera Sans; font-style: Roman; fill: #000000;" x="426.732067" y="349.923067" >0.4</text>
<path style="fill: none; stroke: #000000; stroke-width: 1.000000; stroke-linejoin: miter; stroke-linecap: square;  opacity: 1.000000"  d="M 435.732067,345.423067 L 441.449597,351.018587 "/>
</g>
<g id="xtick11">
<text style="font-size: 12.000000; font-family: Bitstream Vera Sans; font-style: Roman; fill: #000000;" x="450.547871" y="331.671738" >0.5</text>
<path style="fill: none; stroke: #000000; stroke-width: 1.000000; stroke-linejoin: miter; stroke-linecap: square;  opacity: 1.000000"  d="M 459.547871,327.171738 L 465.265401,332.767259 "/>
</g>
<g id="xtick12">
<text style="font-size: 12.000000; font-family: Bitstream Vera Sans; font-style: Roman; fill: #000000;" x="473.784771" y="313.864054" >0.6</text>
<path style="fill: none; stroke: #000000; stroke-width: 1.000000; stroke-linejoin: miter; stroke-linecap: square;  opacity: 1.000000"  d="M 482.784771,309.364054 L 488.502301,314.959575 "/>
</g>
<g id="xtick13">
<text style="font-size: 12.000000; font-family: Bitstream Vera Sans; font-style: Roman; fill: #000000;" x="496.463623" y="296.484033" >0.7</text>
<path style="fill: none; stroke: #000000; stroke-width: 1.000000; stroke-linejoin: miter; stroke-linecap: square;  opacity: 1.000000"  d="M 505.463623,291.984033 L 511.181153,297.579553 "/>
</g>
</g>
<g id="axis3d3">
<polygon style="fill: #f2f2f2; stroke: #f2f2f2; stroke-width: 1.000000; stroke-linejoin: miter; stroke-linecap: square;  opacity: 0.100000"  points = "76.357701,336.543225 357.328625,405.507833 508.260241,289.840834 241.211914,230.626613"/>
<path style="fill: none; stroke: #000000; stroke-width: 0.750000; stroke-linejoin: miter; stroke-linecap: square;  opacity: 1.000000"  d="M 76.357701,336.543225 L 64.421350,123.401250 "/>
<text style="font-size: 12.000000; font-family: Bitstream Vera Sans; font-style: Roman; fill: #000000;" x="44.580756" y="338.123307" transform="translate(44.580756,338.123307) rotate(-92.4) translate(-44.580756,-338.123307)">no_of_snps_filtered_by_mismatch</text>
<g id="linecollection3">
<path style="fill: none; stroke: #e6e6e6; stroke-width: 1.000000; stroke-linejoin: miter; stroke-linecap: butt;  opacity: 1.000000"  d="M 76.131056,332.496136 L 241.159600,226.768965 L 508.472750,285.875342 "/>
<path style="fill: none; stroke: #e6e6e6; stroke-width: 1.000000; stroke-linejoin: miter; stroke-linecap: butt;  opacity: 1.000000"  d="M 74.300904,299.815941 L 240.737445,195.639460 L 510.188244,253.863550 "/>
<path style="fill: none; stroke: #e6e6e6; stroke-width: 1.000000; stroke-linejoin: miter; stroke-linecap: butt;  opacity: 1.000000"  d="M 72.439998,266.586586 L 240.308715,164.025048 L 511.931637,221.331161 "/>
<path style="fill: none; stroke: #e6e6e6; stroke-width: 1.000000; stroke-linejoin: miter; stroke-linecap: butt;  opacity: 1.000000"  d="M 70.547556,232.794112 L 239.873254,131.914310 L 513.703614,188.265371 "/>
<path style="fill: none; stroke: #e6e6e6; stroke-width: 1.000000; stroke-linejoin: miter; stroke-linecap: butt;  opacity: 1.000000"  d="M 68.622770,198.424081 L 239.430902,99.295467 L 515.504884,154.652955 "/>
<path style="fill: none; stroke: #e6e6e6; stroke-width: 1.000000; stroke-linejoin: miter; stroke-linecap: butt;  opacity: 1.000000"  d="M 66.664803,163.461560 L 238.981495,66.156361 L 517.336181,120.480244 "/>
<path style="fill: none; stroke: #e6e6e6; stroke-width: 1.000000; stroke-linejoin: miter; stroke-linecap: butt;  opacity: 1.000000"  d="M 64.672790,127.891094 L 238.524862,32.484445 L 519.198260,85.733110 "/>
</g>
<g id="xtick14">
<text style="font-size: 12.000000; font-family: Bitstream Vera Sans; font-style: Roman; fill: #000000;" x="73.131056" y="336.996136" >0</text>
<path style="fill: none; stroke: #000000; stroke-width: 1.000000; stroke-linejoin: miter; stroke-linecap: square;  opacity: 1.000000"  d="M 76.131056,332.496136 L 68.138103,332.831851 "/>
</g>
<g id="xtick15">
<text style="font-size: 12.000000; font-family: Bitstream Vera Sans; font-style: Roman; fill: #000000;" x="55.300904" y="304.315941" >10000</text>
<path style="fill: none; stroke: #000000; stroke-width: 1.000000; stroke-linejoin: miter; stroke-linecap: square;  opacity: 1.000000"  d="M 74.300904,299.815941 L 66.307951,300.151656 "/>
</g>
<g id="xtick16">
<text style="font-size: 12.000000; font-family: Bitstream Vera Sans; font-style: Roman; fill: #000000;" x="53.439998" y="271.086586" >20000</text>
<path style="fill: none; stroke: #000000; stroke-width: 1.000000; stroke-linejoin: miter; stroke-linecap: square;  opacity: 1.000000"  d="M 72.439998,266.586586 L 64.447045,266.922301 "/>
</g>
<g id="xtick17">
<text style="font-size: 12.000000; font-family: Bitstream Vera Sans; font-style: Roman; fill: #000000;" x="51.547556" y="237.294112" >30000</text>
<path style="fill: none; stroke: #000000; stroke-width: 1.000000; stroke-linejoin: miter; stroke-linecap: square;  opacity: 1.000000"  d="M 70.547556,232.794112 L 62.554603,233.129827 "/>
</g>
<g id="xtick18">
<text style="font-size: 12.000000; font-family: Bitstream Vera Sans; font-style: Roman; fill: #000000;" x="49.622770" y="202.924081" >40000</text>
<path style="fill: none; stroke: #000000; stroke-width: 1.000000; stroke-linejoin: miter; stroke-linecap: square;  opacity: 1.000000"  d="M 68.622770,198.424081 L 60.629817,198.759796 "/>
</g>
<g id="xtick19">
<text style="font-size: 12.000000; font-family: Bitstream Vera Sans; font-style: Roman; fill: #000000;" x="47.664803" y="167.961560" >50000</text>
<path style="fill: none; stroke: #000000; stroke-width: 1.000000; stroke-linejoin: miter; stroke-linecap: square;  opacity: 1.000000"  d="M 66.664803,163.461560 L 58.671850,163.797275 "/>
</g>
<g id="xtick20">
<text style="font-size: 12.000000; font-family: Bitstream Vera Sans; font-style: Roman; fill: #000000;" x="45.672790" y="132.391094" >60000</text>
<path style="fill: none; stroke: #000000; stroke-width: 1.000000; stroke-linejoin: miter; stroke-linecap: square;  opacity: 1.000000"  d="M 64.672790,127.891094 L 56.679837,128.226810 "/>
</g>
</g>
<g id="axes1">
<g id="regpolycollection1">
<defs>
    <clipPath id="4685744057707115011">
    <rect x="0.000000" y="0.000000" width="576.000000" height="432.000000"
    style="stroke: gray; fill: none;"/>
    </clipPath>
</defs>
<polygon style="fill: #0000ff; stroke: #000000; stroke-width: 1.000000; stroke-linejoin: miter; stroke-linecap: butt;  opacity: 1.000000" clip-path="url(#4685744057707115011)" points = "74.091176,124.890807 74.870866,125.014298 75.574236,125.372683 76.132433,125.930880 76.490817,126.634249 76.614308,127.413940 76.490817,128.193631 76.132433,128.897000 75.574236,129.455197 74.870866,129.813581 74.091176,129.937072 73.311485,129.813581 72.608116,129.455197 72.049919,128.897000 71.691534,128.193631 71.568043,127.413940 71.691534,126.634249 72.049919,125.930880 72.608116,125.372683 73.311485,125.014298"/>
<polygon style="fill: #0000ff; stroke: #000000; stroke-width: 1.000000; stroke-linejoin: miter; stroke-linecap: butt;  opacity: 0.901079" clip-path="url(#4685744057707115011)" points = "103.643356,108.612795 104.423047,108.736285 105.126416,109.094670 105.684613,109.652867 106.042997,110.356236 106.166488,111.135927 106.042997,111.915618 105.684613,112.618987 105.126416,113.177184 104.423047,113.535569 103.643356,113.659060 102.863665,113.535569 102.160296,113.177184 101.602099,112.618987 101.243714,111.915618 101.120223,111.135927 101.243714,110.356236 101.602099,109.652867 102.160296,109.094670 102.863665,108.736285"/>
<polygon style="fill: #0000ff; stroke: #000000; stroke-width: 1.000000; stroke-linejoin: miter; stroke-linecap: butt;  opacity: 0.710682" clip-path="url(#4685744057707115011)" points = "160.524059,77.281610 161.303749,77.405101 162.007119,77.763486 162.565316,78.321683 162.923700,79.025052 163.047191,79.804743 162.923700,80.584434 162.565316,81.287803 162.007119,81.846000 161.303749,82.204385 160.524059,82.327875 159.744368,82.204385 159.040998,81.846000 158.482801,81.287803 158.124417,80.584434 158.000926,79.804743 158.124417,79.025052 158.482801,78.321683 159.040998,77.763486 159.744368,77.405101"/>
<polygon style="fill: #0000ff; stroke: #000000; stroke-width: 1.000000; stroke-linejoin: miter; stroke-linecap: butt;  opacity: 0.619020" clip-path="url(#4685744057707115011)" points = "187.907663,62.198098 188.687354,62.321589 189.390724,62.679974 189.948921,63.238171 190.307305,63.941540 190.430796,64.721231 190.307305,65.500922 189.948921,66.204291 189.390724,66.762488 188.687354,67.120872 187.907663,67.244363 187.127973,67.120872 186.424603,66.762488 185.866406,66.204291 185.508022,65.500922 185.384531,64.721231 185.508022,63.941540 185.866406,63.238171 186.424603,62.679974 187.127973,62.321589"/>
<polygon style="fill: #0000ff; stroke: #000000; stroke-width: 1.000000; stroke-linejoin: miter; stroke-linecap: butt;  opacity: 0.804672" clip-path="url(#4685744057707115011)" points = "132.444903,92.748247 133.224594,92.871738 133.927963,93.230123 134.486160,93.788320 134.844545,94.491689 134.968036,95.271380 134.844545,96.051071 134.486160,96.754440 133.927963,97.312637 133.224594,97.671022 132.444903,97.794513 131.665212,97.671022 130.961843,97.312637 130.403646,96.754440 130.045262,96.051071 129.921771,95.271380 130.045262,94.491689 130.403646,93.788320 130.961843,93.230123 131.665212,92.871738"/>
<polygon style="fill: #0000ff; stroke: #000000; stroke-width: 1.000000; stroke-linejoin: miter; stroke-linecap: butt;  opacity: 0.529601" clip-path="url(#4685744057707115011)" points = "214.621246,47.483650 215.400937,47.607141 216.104306,47.965525 216.662503,48.523722 217.020888,49.227091 217.144379,50.006782 217.020888,50.786473 216.662503,51.489842 216.104306,52.048039 215.400937,52.406424 214.621246,52.529915 213.841555,52.406424 213.138186,52.048039 212.579989,51.489842 212.221605,50.786473 212.098114,50.006782 212.221605,49.227091 212.579989,48.523722 213.138186,47.965525 213.841555,47.607141"/>
<polygon style="fill: #0000ff; stroke: #000000; stroke-width: 1.000000; stroke-linejoin: miter; stroke-linecap: butt;  opacity: 0.847804" clip-path="url(#4685744057707115011)" points = "133.585124,254.299798 134.364815,254.423289 135.068185,254.781673 135.626382,255.339870 135.984766,256.043239 136.108257,256.822930 135.984766,257.602621 135.626382,258.305990 135.068185,258.864187 134.364815,259.222572 133.585124,259.346063 132.805434,259.222572 132.102064,258.864187 131.543867,258.305990 131.185483,257.602621 131.061992,256.822930 131.185483,256.043239 131.543867,255.339870 132.102064,254.781673 132.805434,254.423289"/>
<polygon style="fill: #0000ff; stroke: #000000; stroke-width: 1.000000; stroke-linejoin: miter; stroke-linecap: butt;  opacity: 0.442344" clip-path="url(#4685744057707115011)" points = "240.689101,33.124883 241.468791,33.248374 242.172161,33.606758 242.730358,34.164955 243.088742,34.868325 243.212233,35.648015 243.088742,36.427706 242.730358,37.131076 242.172161,37.689273 241.468791,38.047657 240.689101,38.171148 239.909410,38.047657 239.206040,37.689273 238.647843,37.131076 238.289459,36.427706 238.165968,35.648015 238.289459,34.868325 238.647843,34.164955 239.206040,33.606758 239.909410,33.248374"/>
<polygon style="fill: #0000ff; stroke: #000000; stroke-width: 1.000000; stroke-linejoin: miter; stroke-linecap: butt;  opacity: 0.752736" clip-path="url(#4685744057707115011)" points = "161.809457,236.707765 162.589148,236.831256 163.292517,237.189641 163.850714,237.747838 164.209099,238.451207 164.332590,239.230898 164.209099,240.010589 163.850714,240.713958 163.292517,241.272155 162.589148,241.630540 161.809457,241.754030 161.029766,241.630540 160.326397,241.272155 159.768200,240.713958 159.409816,240.010589 159.286325,239.230898 159.409816,238.451207 159.768200,237.747838 160.326397,237.189641 161.029766,236.831256"/>
<polygon style="fill: #0000ff; stroke: #000000; stroke-width: 1.000000; stroke-linejoin: miter; stroke-linecap: butt;  opacity: 0.660036" clip-path="url(#4685744057707115011)" points = "189.330720,219.553952 190.110411,219.677443 190.813780,220.035827 191.371977,220.594024 191.730362,221.297393 191.853853,222.077084 191.730362,222.856775 191.371977,223.560144 190.813780,224.118341 190.110411,224.476726 189.330720,224.600217 188.551029,224.476726 187.847660,224.118341 187.289463,223.560144 186.931078,222.856775 186.807588,222.077084 186.931078,221.297393 187.289463,220.594024 187.847660,220.035827 188.551029,219.677443"/>
<polygon style="fill: #0000ff; stroke: #000000; stroke-width: 1.000000; stroke-linejoin: miter; stroke-linecap: butt;  opacity: 0.481395" clip-path="url(#4685744057707115011)" points = "242.366563,186.497076 243.146254,186.620567 243.849623,186.978951 244.407820,187.537148 244.766204,188.240518 244.889695,189.020209 244.766204,189.799899 244.407820,190.503269 243.849623,191.061466 243.146254,191.419850 242.366563,191.543341 241.586872,191.419850 240.883503,191.061466 240.325306,190.503269 239.966921,189.799899 239.843430,189.020209 239.966921,188.240518 240.325306,187.537148 240.883503,186.978951 241.586872,186.620567"/>
<polygon style="fill: #0000ff; stroke: #000000; stroke-width: 1.000000; stroke-linejoin: miter; stroke-linecap: butt;  opacity: 0.569617" clip-path="url(#4685744057707115011)" points = "216.174860,202.822184 216.954551,202.945675 217.657920,203.304060 218.216117,203.862257 218.574502,204.565626 218.697992,205.345317 218.574502,206.125008 218.216117,206.828377 217.657920,207.386574 216.954551,207.744958 216.174860,207.868449 215.395169,207.744958 214.691800,207.386574 214.133603,206.828377 213.775218,206.125008 213.651727,205.345317 213.775218,204.565626 214.133603,203.862257 214.691800,203.304060 215.395169,202.945675"/>
<polygon style="fill: #0000ff; stroke: #000000; stroke-width: 1.000000; stroke-linejoin: miter; stroke-linecap: butt;  opacity: 0.395292" clip-path="url(#4685744057707115011)" points = "267.929329,170.563980 268.709020,170.687471 269.412389,171.045855 269.970586,171.604052 270.328971,172.307422 270.452462,173.087112 270.328971,173.866803 269.970586,174.570172 269.412389,175.128370 268.709020,175.486754 267.929329,175.610245 267.149638,175.486754 266.446269,175.128370 265.888072,174.570172 265.529687,173.866803 265.406196,173.087112 265.529687,172.307422 265.888072,171.604052 266.446269,171.045855 267.149638,170.687471"/>
<polygon style="fill: #0000ff; stroke: #000000; stroke-width: 1.000000; stroke-linejoin: miter; stroke-linecap: butt;  opacity: 0.834785" clip-path="url(#4685744057707115011)" points = "188.876423,308.845647 189.656114,308.969138 190.359483,309.327522 190.917680,309.885719 191.276065,310.589088 191.399555,311.368779 191.276065,312.148470 190.917680,312.851839 190.359483,313.410036 189.656114,313.768421 188.876423,313.891912 188.096732,313.768421 187.393363,313.410036 186.835166,312.851839 186.476781,312.148470 186.353290,311.368779 186.476781,310.589088 186.835166,309.885719 187.393363,309.327522 188.096732,308.969138"/>
<polygon style="fill: #0000ff; stroke: #000000; stroke-width: 1.000000; stroke-linejoin: miter; stroke-linecap: butt;  opacity: 0.311232" clip-path="url(#4685744057707115011)" points = "292.885543,155.008943 293.665234,155.132434 294.368604,155.490819 294.926801,156.049016 295.285185,156.752385 295.408676,157.532076 295.285185,158.311767 294.926801,159.015136 294.368604,159.573333 293.665234,159.931717 292.885543,160.055208 292.105853,159.931717 291.402483,159.573333 290.844286,159.015136 290.485902,158.311767 290.362411,157.532076 290.485902,156.752385 290.844286,156.049016 291.402483,155.490819 292.105853,155.132434"/>
<polygon style="fill: #0000ff; stroke: #000000; stroke-width: 1.000000; stroke-linejoin: miter; stroke-linecap: butt;  opacity: 0.740043" clip-path="url(#4685744057707115011)" points = "216.356472,290.596850 217.136163,290.720341 217.839532,291.078725 218.397729,291.636922 218.756114,292.340291 218.879605,293.119982 218.756114,293.899673 218.397729,294.603042 217.839532,295.161239 217.136163,295.519624 216.356472,295.643115 215.576781,295.519624 214.873412,295.161239 214.315215,294.603042 213.956830,293.899673 213.833340,293.119982 213.956830,292.340291 214.315215,291.636922 214.873412,291.078725 215.576781,290.720341"/>
<polygon style="fill: #0000ff; stroke: #000000; stroke-width: 1.000000; stroke-linejoin: miter; stroke-linecap: butt;  opacity: 0.647657" clip-path="url(#4685744057707115011)" points = "243.153144,272.801866 243.932835,272.925357 244.636204,273.283741 245.194401,273.841938 245.552786,274.545307 245.676277,275.324998 245.552786,276.104689 245.194401,276.808058 244.636204,277.366255 243.932835,277.724640 243.153144,277.848131 242.373454,277.724640 241.670084,277.366255 241.111887,276.808058 240.753503,276.104689 240.630012,275.324998 240.753503,274.545307 241.111887,273.841938 241.670084,273.283741 242.373454,272.925357"/>
<polygon style="fill: #0000ff; stroke: #000000; stroke-width: 1.000000; stroke-linejoin: miter; stroke-linecap: butt;  opacity: 0.557541" clip-path="url(#4685744057707115011)" points = "269.291618,255.443974 270.071309,255.567465 270.774678,255.925850 271.332875,256.484047 271.691260,257.187416 271.814751,257.967107 271.691260,258.746798 271.332875,259.450167 270.774678,260.008364 270.071309,260.366749 269.291618,260.490240 268.511927,260.366749 267.808558,260.008364 267.250361,259.450167 266.891976,258.746798 266.768486,257.967107 266.891976,257.187416 267.250361,256.484047 267.808558,255.925850 268.511927,255.567465"/>
<polygon style="fill: #0000ff; stroke: #000000; stroke-width: 1.000000; stroke-linejoin: miter; stroke-linecap: butt;  opacity: 0.860448" clip-path="url(#4685744057707115011)" points = "243.710599,343.200506 244.490289,343.323997 245.193659,343.682381 245.751856,344.240578 246.110240,344.943948 246.233731,345.723638 246.110240,346.503329 245.751856,347.206699 245.193659,347.764896 244.490289,348.123280 243.710599,348.246771 242.930908,348.123280 242.227539,347.764896 241.669342,347.206699 241.310957,346.503329 241.187466,345.723638 241.310957,344.943948 241.669342,344.240578 242.227539,343.682381 242.930908,343.323997"/>
<polygon style="fill: #0000ff; stroke: #000000; stroke-width: 1.000000; stroke-linejoin: miter; stroke-linecap: butt;  opacity: 0.383789" clip-path="url(#4685744057707115011)" points = "319.688647,221.976598 320.468338,222.100089 321.171707,222.458473 321.729904,223.016670 322.088288,223.720040 322.211779,224.499730 322.088288,225.279421 321.729904,225.982791 321.171707,226.540988 320.468338,226.899372 319.688647,227.022863 318.908956,226.899372 318.205587,226.540988 317.647390,225.982791 317.289005,225.279421 317.165514,224.499730 317.289005,223.720040 317.647390,223.016670 318.205587,222.458473 318.908956,222.100089"/>
<polygon style="fill: #0000ff; stroke: #000000; stroke-width: 1.000000; stroke-linejoin: miter; stroke-linecap: butt;  opacity: 0.469611" clip-path="url(#4685744057707115011)" points = "294.795850,238.507267 295.575540,238.630758 296.278910,238.989143 296.837107,239.547340 297.195491,240.250709 297.318982,241.030400 297.195491,241.810091 296.837107,242.513460 296.278910,243.071657 295.575540,243.430041 294.795850,243.553532 294.016159,243.430041 293.312789,243.071657 292.754592,242.513460 292.396208,241.810091 292.272717,241.030400 292.396208,240.250709 292.754592,239.547340 293.312789,238.989143 294.016159,238.630758"/>
<polygon style="fill: #0000ff; stroke: #000000; stroke-width: 1.000000; stroke-linejoin: miter; stroke-linecap: butt;  opacity: 0.300000" clip-path="url(#4685744057707115011)" points = "343.991737,205.837538 344.771428,205.961029 345.474797,206.319413 346.032994,206.877610 346.391379,207.580980 346.514870,208.360670 346.391379,209.140361 346.032994,209.843731 345.474797,210.401928 344.771428,210.760312 343.991737,210.883803 343.212046,210.760312 342.508677,210.401928 341.950480,209.843731 341.592095,209.140361 341.468604,208.360670 341.592095,207.580980 341.950480,206.877610 342.508677,206.319413 343.212046,205.961029"/>
<polygon style="fill: #0000ff; stroke: #000000; stroke-width: 1.000000; stroke-linejoin: miter; stroke-linecap: butt;  opacity: 0.765063" clip-path="url(#4685744057707115011)" points = "270.590463,324.456253 271.370154,324.579744 272.073523,324.938129 272.631720,325.496326 272.990105,326.199695 273.113596,326.979386 272.990105,327.759076 272.631720,328.462446 272.073523,329.020643 271.370154,329.379027 270.590463,329.502518 269.810772,329.379027 269.107403,329.020643 268.549206,328.462446 268.190821,327.759076 268.067330,326.979386 268.190821,326.199695 268.549206,325.496326 269.107403,324.938129 269.810772,324.579744"/>
<polygon style="fill: #0000ff; stroke: #000000; stroke-width: 1.000000; stroke-linejoin: miter; stroke-linecap: butt;  opacity: 0.672058" clip-path="url(#4685744057707115011)" points = "296.799653,306.179685 297.579344,306.303175 298.282713,306.661560 298.840910,307.219757 299.199295,307.923126 299.322786,308.702817 299.199295,309.482508 298.840910,310.185877 298.282713,310.744074 297.579344,311.102459 296.799653,311.225950 296.019962,311.102459 295.316593,310.744074 294.758396,310.185877 294.400011,309.482508 294.276520,308.702817 294.400011,307.923126 294.758396,307.219757 295.316593,306.661560 296.019962,306.303175"/>
<polygon style="fill: #0000ff; stroke: #000000; stroke-width: 1.000000; stroke-linejoin: miter; stroke-linecap: butt;  opacity: 0.581345" clip-path="url(#4685744057707115011)" points = "322.362960,288.353512 323.142651,288.477003 323.846020,288.835388 324.404217,289.393585 324.762602,290.096954 324.886093,290.876645 324.762602,291.656336 324.404217,292.359705 323.846020,292.917902 323.142651,293.276286 322.362960,293.399777 321.583269,293.276286 320.879900,292.917902 320.321703,292.359705 319.963319,291.656336 319.839828,290.876645 319.963319,290.096954 320.321703,289.393585 320.879900,288.835388 321.583269,288.477003"/>
<polygon style="fill: #0000ff; stroke: #000000; stroke-width: 1.000000; stroke-linejoin: miter; stroke-linecap: butt;  opacity: 0.908705" clip-path="url(#4685744057707115011)" points = "298.929354,366.326086 299.709045,366.449577 300.412414,366.807961 300.970611,367.366158 301.328996,368.069527 301.452486,368.849218 301.328996,369.628909 300.970611,370.332278 300.412414,370.890475 299.709045,371.248860 298.929354,371.372351 298.149663,371.248860 297.446294,370.890475 296.888097,370.332278 296.529712,369.628909 296.406221,368.849218 296.529712,368.069527 296.888097,367.366158 297.446294,366.807961 298.149663,366.449577"/>
<polygon style="fill: #0000ff; stroke: #000000; stroke-width: 1.000000; stroke-linejoin: miter; stroke-linecap: butt;  opacity: 0.492840" clip-path="url(#4685744057707115011)" points = "347.303969,270.961290 348.083660,271.084781 348.787029,271.443165 349.345226,272.001362 349.703611,272.704732 349.827102,273.484423 349.703611,274.264113 349.345226,274.967483 348.787029,275.525680 348.083660,275.884064 347.303969,276.007555 346.524278,275.884064 345.820909,275.525680 345.262712,274.967483 344.904327,274.264113 344.780836,273.484423 344.904327,272.704732 345.262712,272.001362 345.820909,271.443165 346.524278,271.084781"/>
<polygon style="fill: #0000ff; stroke: #000000; stroke-width: 1.000000; stroke-linejoin: miter; stroke-linecap: butt;  opacity: 0.406463" clip-path="url(#4685744057707115011)" points = "371.645130,253.987363 372.424820,254.110853 373.128190,254.469238 373.686387,255.027435 374.044771,255.730804 374.168262,256.510495 374.044771,257.290186 373.686387,257.993555 373.128190,258.551752 372.424820,258.910137 371.645130,259.033628 370.865439,258.910137 370.162069,258.551752 369.603872,257.993555 369.245488,257.290186 369.121997,256.510495 369.245488,255.730804 369.603872,255.027435 370.162069,254.469238 370.865439,254.110853"/>
<polygon style="fill: #0000ff; stroke: #000000; stroke-width: 1.000000; stroke-linejoin: miter; stroke-linecap: butt;  opacity: 0.322140" clip-path="url(#4685744057707115011)" points = "395.407825,237.416819 396.187516,237.540310 396.890885,237.898694 397.449082,238.456891 397.807466,239.160261 397.930957,239.939951 397.807466,240.719642 397.449082,241.423011 396.890885,241.981208 396.187516,242.339593 395.407825,242.463084 394.628134,242.339593 393.924765,241.981208 393.366568,241.423011 393.008183,240.719642 392.884692,239.939951 393.008183,239.160261 393.366568,238.456891 393.924765,237.898694 394.628134,237.540310"/>
<polygon style="fill: #0000ff; stroke: #000000; stroke-width: 1.000000; stroke-linejoin: miter; stroke-linecap: butt;  opacity: 0.812105" clip-path="url(#4685744057707115011)" points = "325.276850,347.169568 326.056541,347.293059 326.759910,347.651443 327.318107,348.209640 327.676491,348.913009 327.799982,349.692700 327.676491,350.472391 327.318107,351.175760 326.759910,351.733957 326.056541,352.092342 325.276850,352.215833 324.497159,352.092342 323.793790,351.733957 323.235593,351.175760 322.877208,350.472391 322.753717,349.692700 322.877208,348.913009 323.235593,348.209640 323.793790,347.651443 324.497159,347.293059"/>
<polygon style="fill: #0000ff; stroke: #000000; stroke-width: 1.000000; stroke-linejoin: miter; stroke-linecap: butt;  opacity: 0.717929" clip-path="url(#4685744057707115011)" points = "350.962858,328.493998 351.742549,328.617489 352.445918,328.975874 353.004115,329.534071 353.362500,330.237440 353.485991,331.017131 353.362500,331.796822 353.004115,332.500191 352.445918,333.058388 351.742549,333.416772 350.962858,333.540263 350.183167,333.416772 349.479798,333.058388 348.921601,332.500191 348.563217,331.796822 348.439726,331.017131 348.563217,330.237440 348.921601,329.534071 349.479798,328.975874 350.183167,328.617489"/>
<polygon style="fill: #0000ff; stroke: #000000; stroke-width: 1.000000; stroke-linejoin: miter; stroke-linecap: butt;  opacity: 0.626089" clip-path="url(#4685744057707115011)" points = "376.011982,310.281490 376.791672,310.404981 377.495042,310.763365 378.053239,311.321562 378.411623,312.024932 378.535114,312.804622 378.411623,313.584313 378.053239,314.287682 377.495042,314.845879 376.791672,315.204264 376.011982,315.327755 375.232291,315.204264 374.528922,314.845879 373.970725,314.287682 373.612340,313.584313 373.488849,312.804622 373.612340,312.024932 373.970725,311.321562 374.528922,310.763365 375.232291,310.404981"/>
<polygon style="fill: #0000ff; stroke: #000000; stroke-width: 1.000000; stroke-linejoin: miter; stroke-linecap: butt;  opacity: 0.966937" clip-path="url(#4685744057707115011)" points = "354.930739,385.024920 355.710430,385.148411 356.413799,385.506796 356.971996,386.064993 357.330381,386.768362 357.453872,387.548053 357.330381,388.327744 356.971996,389.031113 356.413799,389.589310 355.710430,389.947694 354.930739,390.071185 354.151048,389.947694 353.447679,389.589310 352.889482,389.031113 352.531098,388.327744 352.407607,387.548053 352.531098,386.768362 352.889482,386.064993 353.447679,385.506796 354.151048,385.148411"/>
<polygon style="fill: #0000ff; stroke: #000000; stroke-width: 1.000000; stroke-linejoin: miter; stroke-linecap: butt;  opacity: 0.536498" clip-path="url(#4685744057707115011)" points = "400.447617,292.515031 401.227308,292.638522 401.930677,292.996906 402.488874,293.555103 402.847259,294.258473 402.970750,295.038164 402.847259,295.817854 402.488874,296.521224 401.930677,297.079421 401.227308,297.437805 400.447617,297.561296 399.667927,297.437805 398.964557,297.079421 398.406360,296.521224 398.047976,295.817854 397.924485,295.038164 398.047976,294.258473 398.406360,293.555103 398.964557,292.996906 399.667927,292.638522"/>
<polygon style="fill: #0000ff; stroke: #000000; stroke-width: 1.000000; stroke-linejoin: miter; stroke-linecap: butt;  opacity: 0.449075" clip-path="url(#4685744057707115011)" points = "424.292030,275.178433 425.071721,275.301924 425.775091,275.660309 426.333288,276.218506 426.691672,276.921875 426.815163,277.701566 426.691672,278.481257 426.333288,279.184626 425.775091,279.742823 425.071721,280.101208 424.292030,280.224698 423.512340,280.101208 422.808970,279.742823 422.250773,279.184626 421.892389,278.481257 421.768898,277.701566 421.892389,276.921875 422.250773,276.218506 422.808970,275.660309 423.512340,275.301924"/>
<polygon style="fill: #0000ff; stroke: #000000; stroke-width: 1.000000; stroke-linejoin: miter; stroke-linecap: butt;  opacity: 0.363742" clip-path="url(#4685744057707115011)" points = "447.566422,258.256283 448.346112,258.379774 449.049482,258.738158 449.607679,259.296355 449.966063,259.999724 450.089554,260.779415 449.966063,261.559106 449.607679,262.262475 449.049482,262.820672 448.346112,263.179057 447.566422,263.302548 446.786731,263.179057 446.083361,262.820672 445.525164,262.262475 445.166780,261.559106 445.043289,260.779415 445.166780,259.999724 445.525164,259.296355 446.083361,258.738158 446.786731,258.379774"/>
<polygon style="fill: #0000ff; stroke: #000000; stroke-width: 1.000000; stroke-linejoin: miter; stroke-linecap: butt;  opacity: 0.868860" clip-path="url(#4685744057707115011)" points = "380.760243,365.483968 381.539934,365.607459 382.243303,365.965843 382.801500,366.524040 383.159885,367.227410 383.283376,368.007100 383.159885,368.786791 382.801500,369.490161 382.243303,370.048358 381.539934,370.406742 380.760243,370.530233 379.980552,370.406742 379.277183,370.048358 378.718986,369.490161 378.360601,368.786791 378.237111,368.007100 378.360601,367.227410 378.718986,366.524040 379.277183,365.965843 379.980552,365.607459"/>
<polygon style="fill: #0000ff; stroke: #000000; stroke-width: 1.000000; stroke-linejoin: miter; stroke-linecap: butt;  opacity: 0.773263" clip-path="url(#4685744057707115011)" points = "405.936421,346.437281 406.716111,346.560772 407.419481,346.919156 407.977678,347.477353 408.336062,348.180722 408.459553,348.960413 408.336062,349.740104 407.977678,350.443473 407.419481,351.001670 406.716111,351.360055 405.936421,351.483546 405.156730,351.360055 404.453360,351.001670 403.895163,350.443473 403.536779,349.740104 403.413288,348.960413 403.536779,348.180722 403.895163,347.477353 404.453360,346.919156 405.156730,346.560772"/>
<polygon style="fill: #0000ff; stroke: #000000; stroke-width: 1.000000; stroke-linejoin: miter; stroke-linecap: butt;  opacity: 0.680055" clip-path="url(#4685744057707115011)" points = "430.483750,327.866340 431.263441,327.989831 431.966810,328.348215 432.525007,328.906412 432.883391,329.609781 433.006882,330.389472 432.883391,331.169163 432.525007,331.872532 431.966810,332.430729 431.263441,332.789114 430.483750,332.912605 429.704059,332.789114 429.000690,332.430729 428.442493,331.872532 428.084108,331.169163 427.960617,330.389472 428.084108,329.609781 428.442493,328.906412 429.000690,328.348215 429.704059,327.989831"/>
<polygon style="fill: #0000ff; stroke: #000000; stroke-width: 1.000000; stroke-linejoin: miter; stroke-linecap: butt;  opacity: 0.589145" clip-path="url(#4685744057707115011)" points = "454.425501,309.753540 455.205192,309.877031 455.908561,310.235416 456.466758,310.793613 456.825143,311.496982 456.948634,312.276673 456.825143,313.056364 456.466758,313.759733 455.908561,314.317930 455.205192,314.676315 454.425501,314.799805 453.645810,314.676315 452.942441,314.317930 452.384244,313.759733 452.025859,313.056364 451.902368,312.276673 452.025859,311.496982 452.384244,310.793613 452.942441,310.235416 453.645810,309.877031"/>
<polygon style="fill: #0000ff; stroke: #000000; stroke-width: 1.000000; stroke-linejoin: miter; stroke-linecap: butt;  opacity: 0.500452" clip-path="url(#4685744057707115011)" points = "477.783810,292.082136 478.563501,292.205627 479.266871,292.564011 479.825068,293.122208 480.183452,293.825578 480.306943,294.605268 480.183452,295.384959 479.825068,296.088329 479.266871,296.646526 478.563501,297.004910 477.783810,297.128401 477.004120,297.004910 476.300750,296.646526 475.742553,296.088329 475.384169,295.384959 475.260678,294.605268 475.384169,293.825578 475.742553,293.122208 476.300750,292.564011 477.004120,292.205627"/>
<polygon style="fill: #0000ff; stroke: #000000; stroke-width: 1.000000; stroke-linejoin: miter; stroke-linecap: butt;  opacity: 0.413893" clip-path="url(#4685744057707115011)" points = "500.579748,274.836186 501.359439,274.959677 502.062809,275.318061 502.621006,275.876258 502.979390,276.579627 503.102881,277.359318 502.979390,278.139009 502.621006,278.842378 502.062809,279.400575 501.359439,279.758960 500.579748,279.882451 499.800058,279.758960 499.096688,279.400575 498.538491,278.842378 498.180107,278.139009 498.056616,277.359318 498.180107,276.579627 498.538491,275.876258 499.096688,275.318061 499.800058,274.959677"/>
</g>
<g id="matplotlib.axis1">
</g>
<g id="matplotlib.axis2">
</g>
</g>
</g>
</svg>
