<?xml version="1.0" standalone="no"?>
<!DOCTYPE svg PUBLIC "-//W3C//DTD SVG 1.1//EN"
  "http://www.w3.org/Graphics/SVG/1.1/DTD/svg11.dtd">
<!-- Created with matplotlib (http://matplotlib.sourceforge.net/) -->
<svg width="576" height="432" viewBox="0 0 576 432"
   xmlns="http://www.w3.org/2000/svg"
   xmlns:xlink="http://www.w3.org/1999/xlink"
   version="1.1"
   id="svg1">
<g id="figure1">
<polygon style="fill: #ffffff; stroke: #ffffff; stroke-width: 1.000000; stroke-linejoin: miter; stroke-linecap: square;  opacity: 1.000000"  points = "0.000000,432.000000 0.000000,0.000000 576.000000,0.000000 576.000000,432.000000"/>
<polygon style="fill: #ffffff; opacity: 1.000000"  points = "0.000000,432.000000 0.000000,0.000000 576.000000,0.000000 576.000000,432.000000"/>
<g id="axis3d1">
<polygon style="fill: #f2f2f2; stroke: #f2f2f2; stroke-width: 1.000000; stroke-linejoin: miter; stroke-linecap: square;  opacity: 0.100000"  points = "241.211914,230.626613 508.260241,289.840834 519.433224,81.348607 238.467267,28.237352"/>
<path style="fill: none; stroke: #000000; stroke-width: 0.750000; stroke-linejoin: miter; stroke-linecap: square;  opacity: 1.000000"  d="M 76.357701,336.543225 L 357.328625,405.507833 "/>
<text style="font-size: 12.000000; font-family: Bitstream Vera Sans; font-style: Roman; fill: #000000;" x="141.598101" y="383.874575" transform="translate(141.598101,383.874575) rotate(-341.9) translate(-141.598101,-383.874575)">min_call_probability</text>
<g id="linecollection1">
<path style="fill: none; stroke: #e6e6e6; stroke-width: 1.000000; stroke-linejoin: miter; stroke-linecap: butt;  opacity: 1.000000"  d="M 81.730847,337.862069 L 246.335639,231.762727 L 243.846516,29.254197 "/>
<path style="fill: none; stroke: #e6e6e6; stroke-width: 1.000000; stroke-linejoin: miter; stroke-linecap: butt;  opacity: 1.000000"  d="M 125.064523,348.498365 L 287.633711,240.919995 L 287.220571,37.453235 "/>
<path style="fill: none; stroke: #e6e6e6; stroke-width: 1.000000; stroke-linejoin: miter; stroke-linecap: butt;  opacity: 1.000000"  d="M 169.027317,359.289079 L 329.487668,250.200523 L 331.208258,45.768268 "/>
<path style="fill: none; stroke: #e6e6e6; stroke-width: 1.000000; stroke-linejoin: miter; stroke-linecap: butt;  opacity: 1.000000"  d="M 213.633031,370.237599 L 371.908809,259.606816 L 375.822692,54.201775 "/>
<path style="fill: none; stroke: #e6e6e6; stroke-width: 1.000000; stroke-linejoin: miter; stroke-linecap: butt;  opacity: 1.000000"  d="M 258.895872,381.347411 L 414.908741,269.141448 L 421.077363,62.756308 "/>
<path style="fill: none; stroke: #e6e6e6; stroke-width: 1.000000; stroke-linejoin: miter; stroke-linecap: butt;  opacity: 1.000000"  d="M 304.830469,392.622106 L 458.499392,278.807063 L 466.986154,71.434489 "/>
<path style="fill: none; stroke: #e6e6e6; stroke-width: 1.000000; stroke-linejoin: miter; stroke-linecap: butt;  opacity: 1.000000"  d="M 351.451887,404.065382 L 502.693018,288.606380 L 513.563349,80.239019 "/>
</g>
<g id="xtick1">
<text style="font-size: 12.000000; font-family: Bitstream Vera Sans; font-style: Roman; fill: #000000;" x="74.730847" y="342.362069" >70</text>
<path style="fill: none; stroke: #000000; stroke-width: 1.000000; stroke-linejoin: miter; stroke-linecap: square;  opacity: 1.000000"  d="M 81.730847,337.862069 L 79.242567,345.465257 "/>
</g>
<g id="xtick2">
<text style="font-size: 12.000000; font-family: Bitstream Vera Sans; font-style: Roman; fill: #000000;" x="118.064523" y="352.998365" >75</text>
<path style="fill: none; stroke: #000000; stroke-width: 1.000000; stroke-linejoin: miter; stroke-linecap: square;  opacity: 1.000000"  d="M 125.064523,348.498365 L 122.576242,356.101553 "/>
</g>
<g id="xtick3">
<text style="font-size: 12.000000; font-family: Bitstream Vera Sans; font-style: Roman; fill: #000000;" x="162.027317" y="363.789079" >80</text>
<path style="fill: none; stroke: #000000; stroke-width: 1.000000; stroke-linejoin: miter; stroke-linecap: square;  opacity: 1.000000"  d="M 169.027317,359.289079 L 166.539037,366.892267 "/>
</g>
<g id="xtick4">
<text style="font-size: 12.000000; font-family: Bitstream Vera Sans; font-style: Roman; fill: #000000;" x="206.633031" y="374.737599" >85</text>
<path style="fill: none; stroke: #000000; stroke-width: 1.000000; stroke-linejoin: miter; stroke-linecap: square;  opacity: 1.000000"  d="M 213.633031,370.237599 L 211.144751,377.840786 "/>
</g>
<g id="xtick5">
<text style="font-size: 12.000000; font-family: Bitstream Vera Sans; font-style: Roman; fill: #000000;" x="251.895872" y="385.847411" >90</text>
<path style="fill: none; stroke: #000000; stroke-width: 1.000000; stroke-linejoin: miter; stroke-linecap: square;  opacity: 1.000000"  d="M 258.895872,381.347411 L 256.407592,388.950598 "/>
</g>
<g id="xtick6">
<text style="font-size: 12.000000; font-family: Bitstream Vera Sans; font-style: Roman; fill: #000000;" x="297.830469" y="397.122106" >95</text>
<path style="fill: none; stroke: #000000; stroke-width: 1.000000; stroke-linejoin: miter; stroke-linecap: square;  opacity: 1.000000"  d="M 304.830469,392.622106 L 302.342189,400.225293 "/>
</g>
<g id="xtick7">
<text style="font-size: 12.000000; font-family: Bitstream Vera Sans; font-style: Roman; fill: #000000;" x="340.451887" y="408.565382" >100</text>
<path style="fill: none; stroke: #000000; stroke-width: 1.000000; stroke-linejoin: miter; stroke-linecap: square;  opacity: 1.000000"  d="M 351.451887,404.065382 L 348.963607,411.668569 "/>
</g>
</g>
<g id="axis3d2">
<polygon style="fill: #e6e6e6; stroke: #e6e6e6; stroke-width: 1.000000; stroke-linejoin: miter; stroke-linecap: square;  opacity: 0.500000"  points = "76.357701,336.543225 241.211914,230.626613 238.467267,28.237352 64.421350,123.401250"/>
<path style="fill: none; stroke: #000000; stroke-width: 0.750000; stroke-linejoin: miter; stroke-linecap: square;  opacity: 1.000000"  d="M 357.328625,405.507833 L 508.260241,289.840834 "/>
<text style="font-size: 12.000000; font-family: Bitstream Vera Sans; font-style: Roman; fill: #000000;" x="410.920465" y="424.411092" transform="translate(410.920465,424.411092) rotate(-45.6) translate(-410.920465,-424.411092)">max_call_mismatch_rate</text>
<g id="linecollection2">
<path style="fill: none; stroke: #e6e6e6; stroke-width: 1.000000; stroke-linejoin: miter; stroke-linecap: butt;  opacity: 1.000000"  d="M 360.586508,403.011142 L 79.904448,334.264487 L 68.180167,121.346024 "/>
<path style="fill: none; stroke: #e6e6e6; stroke-width: 1.000000; stroke-linejoin: miter; stroke-linecap: butt;  opacity: 1.000000"  d="M 391.334149,379.447575 L 113.403632,312.741713 L 103.651211,101.951356 "/>
<path style="fill: none; stroke: #e6e6e6; stroke-width: 1.000000; stroke-linejoin: miter; stroke-linecap: butt;  opacity: 1.000000"  d="M 421.155645,356.593762 L 145.937509,291.839135 L 138.046299,83.144993 "/>
<path style="fill: none; stroke: #e6e6e6; stroke-width: 1.000000; stroke-linejoin: miter; stroke-linecap: butt;  opacity: 1.000000"  d="M 450.092220,334.418111 L 177.547210,271.530328 L 171.413658,64.900567 "/>
<path style="fill: none; stroke: #e6e6e6; stroke-width: 1.000000; stroke-linejoin: miter; stroke-linecap: butt;  opacity: 1.000000"  d="M 478.182688,312.890878 L 208.271564,251.790344 L 203.798671,47.193262 "/>
<path style="fill: none; stroke: #e6e6e6; stroke-width: 1.000000; stroke-linejoin: miter; stroke-linecap: butt;  opacity: 1.000000"  d="M 505.463623,291.984033 L 238.147253,232.595617 L 235.244090,29.999704 "/>
</g>
<g id="xtick8">
<text style="font-size: 12.000000; font-family: Bitstream Vera Sans; font-style: Roman; fill: #000000;" x="347.586508" y="407.511142" >0.05</text>
<path style="fill: none; stroke: #000000; stroke-width: 1.000000; stroke-linejoin: miter; stroke-linecap: square;  opacity: 1.000000"  d="M 360.586508,403.011142 L 366.304039,408.606662 "/>
</g>
<g id="xtick9">
<text style="font-size: 12.000000; font-family: Bitstream Vera Sans; font-style: Roman; fill: #000000;" x="378.334149" y="383.947575" >0.10</text>
<path style="fill: none; stroke: #000000; stroke-width: 1.000000; stroke-linejoin: miter; stroke-linecap: square;  opacity: 1.000000"  d="M 391.334149,379.447575 L 397.051679,385.043095 "/>
</g>
<g id="xtick10">
<text style="font-size: 12.000000; font-family: Bitstream Vera Sans; font-style: Roman; fill: #000000;" x="408.155645" y="361.093762" >0.15</text>
<path style="fill: none; stroke: #000000; stroke-width: 1.000000; stroke-linejoin: miter; stroke-linecap: square;  opacity: 1.000000"  d="M 421.155645,356.593762 L 426.873175,362.189282 "/>
</g>
<g id="xtick11">
<text style="font-size: 12.000000; font-family: Bitstream Vera Sans; font-style: Roman; fill: #000000;" x="437.092220" y="338.918111" >0.20</text>
<path style="fill: none; stroke: #000000; stroke-width: 1.000000; stroke-linejoin: miter; stroke-linecap: square;  opacity: 1.000000"  d="M 450.092220,334.418111 L 455.809750,340.013631 "/>
</g>
<g id="xtick12">
<text style="font-size: 12.000000; font-family: Bitstream Vera Sans; font-style: Roman; fill: #000000;" x="465.182688" y="317.390878" >0.25</text>
<path style="fill: none; stroke: #000000; stroke-width: 1.000000; stroke-linejoin: miter; stroke-linecap: square;  opacity: 1.000000"  d="M 478.182688,312.890878 L 483.900218,318.486398 "/>
</g>
<g id="xtick13">
<text style="font-size: 12.000000; font-family: Bitstream Vera Sans; font-style: Roman; fill: #000000;" x="492.463623" y="296.484033" >0.30</text>
<path style="fill: none; stroke: #000000; stroke-width: 1.000000; stroke-linejoin: miter; stroke-linecap: square;  opacity: 1.000000"  d="M 505.463623,291.984033 L 511.181153,297.579553 "/>
</g>
</g>
<g id="axis3d3">
<polygon style="fill: #f2f2f2; stroke: #f2f2f2; stroke-width: 1.000000; stroke-linejoin: miter; stroke-linecap: square;  opacity: 0.100000"  points = "76.357701,336.543225 357.328625,405.507833 508.260241,289.840834 241.211914,230.626613"/>
<path style="fill: none; stroke: #000000; stroke-width: 0.750000; stroke-linejoin: miter; stroke-linecap: square;  opacity: 1.000000"  d="M 76.357701,336.543225 L 64.421350,123.401250 "/>
<text style="font-size: 12.000000; font-family: Bitstream Vera Sans; font-style: Roman; fill: #000000;" x="42.776287" y="295.161185" transform="translate(42.776287,295.161185) rotate(-92.4) translate(-42.776287,-295.161185)">avg_mismatch_rate</text>
<g id="linecollection3">
<path style="fill: none; stroke: #e6e6e6; stroke-width: 1.000000; stroke-linejoin: miter; stroke-linecap: butt;  opacity: 1.000000"  d="M 76.131056,332.496136 L 241.159600,226.768965 L 508.472750,285.875342 "/>
<path style="fill: none; stroke: #e6e6e6; stroke-width: 1.000000; stroke-linejoin: miter; stroke-linecap: butt;  opacity: 1.000000"  d="M 74.914334,310.769681 L 240.878887,206.069286 L 509.613346,264.591371 "/>
<path style="fill: none; stroke: #e6e6e6; stroke-width: 1.000000; stroke-linejoin: miter; stroke-linecap: butt;  opacity: 1.000000"  d="M 73.684057,288.801187 L 240.595274,185.155757 L 510.766242,243.077888 "/>
<path style="fill: none; stroke: #e6e6e6; stroke-width: 1.000000; stroke-linejoin: miter; stroke-linecap: butt;  opacity: 1.000000"  d="M 72.439998,266.586586 L 240.308715,164.025048 L 511.931637,221.331161 "/>
<path style="fill: none; stroke: #e6e6e6; stroke-width: 1.000000; stroke-linejoin: miter; stroke-linecap: butt;  opacity: 1.000000"  d="M 71.181923,244.121720 L 240.019165,142.673756 L 513.109735,199.347375 "/>
<path style="fill: none; stroke: #e6e6e6; stroke-width: 1.000000; stroke-linejoin: miter; stroke-linecap: butt;  opacity: 1.000000"  d="M 69.909595,221.402335 L 239.726577,121.098411 L 514.300747,177.122634 "/>
<path style="fill: none; stroke: #e6e6e6; stroke-width: 1.000000; stroke-linejoin: miter; stroke-linecap: butt;  opacity: 1.000000"  d="M 68.622770,198.424081 L 239.430902,99.295467 L 515.504884,154.652955 "/>
<path style="fill: none; stroke: #e6e6e6; stroke-width: 1.000000; stroke-linejoin: miter; stroke-linecap: butt;  opacity: 1.000000"  d="M 67.321198,175.182509 L 239.132092,77.261303 L 516.722366,131.934265 "/>
<path style="fill: none; stroke: #e6e6e6; stroke-width: 1.000000; stroke-linejoin: miter; stroke-linecap: butt;  opacity: 1.000000"  d="M 66.004625,151.673066 L 238.830096,54.992221 L 517.953416,108.962402 "/>
<path style="fill: none; stroke: #e6e6e6; stroke-width: 1.000000; stroke-linejoin: miter; stroke-linecap: butt;  opacity: 1.000000"  d="M 64.672790,127.891094 L 238.524862,32.484445 L 519.198260,85.733110 "/>
</g>
<g id="xtick14">
<text style="font-size: 12.000000; font-family: Bitstream Vera Sans; font-style: Roman; fill: #000000;" x="59.131056" y="336.996136" >0.008</text>
<path style="fill: none; stroke: #000000; stroke-width: 1.000000; stroke-linejoin: miter; stroke-linecap: square;  opacity: 1.000000"  d="M 76.131056,332.496136 L 68.138103,332.831851 "/>
</g>
<g id="xtick15">
<text style="font-size: 12.000000; font-family: Bitstream Vera Sans; font-style: Roman; fill: #000000;" x="57.914334" y="315.269681" >0.010</text>
<path style="fill: none; stroke: #000000; stroke-width: 1.000000; stroke-linejoin: miter; stroke-linecap: square;  opacity: 1.000000"  d="M 74.914334,310.769681 L 66.921381,311.105396 "/>
</g>
<g id="xtick16">
<text style="font-size: 12.000000; font-family: Bitstream Vera Sans; font-style: Roman; fill: #000000;" x="56.660620" y="293.301187" >0.012</text>
<path style="fill: none; stroke: #000000; stroke-width: 1.000000; stroke-linejoin: miter; stroke-linecap: square;  opacity: 1.000000"  d="M 73.684057,288.801187 L 65.691104,289.136902 "/>
</g>
<g id="xtick17">
<text style="font-size: 12.000000; font-family: Bitstream Vera Sans; font-style: Roman; fill: #000000;" x="55.439998" y="271.086586" >0.014</text>
<path style="fill: none; stroke: #000000; stroke-width: 1.000000; stroke-linejoin: miter; stroke-linecap: square;  opacity: 1.000000"  d="M 72.439998,266.586586 L 64.447045,266.922301 "/>
</g>
<g id="xtick18">
<text style="font-size: 12.000000; font-family: Bitstream Vera Sans; font-style: Roman; fill: #000000;" x="54.181923" y="248.621720" >0.016</text>
<path style="fill: none; stroke: #000000; stroke-width: 1.000000; stroke-linejoin: miter; stroke-linecap: square;  opacity: 1.000000"  d="M 71.181923,244.121720 L 63.188970,244.457435 "/>
</g>
<g id="xtick19">
<text style="font-size: 12.000000; font-family: Bitstream Vera Sans; font-style: Roman; fill: #000000;" x="52.909595" y="225.902335" >0.018</text>
<path style="fill: none; stroke: #000000; stroke-width: 1.000000; stroke-linejoin: miter; stroke-linecap: square;  opacity: 1.000000"  d="M 69.909595,221.402335 L 61.916642,221.738050 "/>
</g>
<g id="xtick20">
<text style="font-size: 12.000000; font-family: Bitstream Vera Sans; font-style: Roman; fill: #000000;" x="51.622770" y="202.924081" >0.020</text>
<path style="fill: none; stroke: #000000; stroke-width: 1.000000; stroke-linejoin: miter; stroke-linecap: square;  opacity: 1.000000"  d="M 68.622770,198.424081 L 60.629817,198.759796 "/>
</g>
<g id="xtick21">
<text style="font-size: 12.000000; font-family: Bitstream Vera Sans; font-style: Roman; fill: #000000;" x="50.297760" y="179.682509" >0.022</text>
<path style="fill: none; stroke: #000000; stroke-width: 1.000000; stroke-linejoin: miter; stroke-linecap: square;  opacity: 1.000000"  d="M 67.321198,175.182509 L 59.328245,175.518224 "/>
</g>
<g id="xtick22">
<text style="font-size: 12.000000; font-family: Bitstream Vera Sans; font-style: Roman; fill: #000000;" x="49.004625" y="156.173066" >0.024</text>
<path style="fill: none; stroke: #000000; stroke-width: 1.000000; stroke-linejoin: miter; stroke-linecap: square;  opacity: 1.000000"  d="M 66.004625,151.673066 L 58.011672,152.008781 "/>
</g>
<g id="xtick23">
<text style="font-size: 12.000000; font-family: Bitstream Vera Sans; font-style: Roman; fill: #000000;" x="47.672790" y="132.391094" >0.026</text>
<path style="fill: none; stroke: #000000; stroke-width: 1.000000; stroke-linejoin: miter; stroke-linecap: square;  opacity: 1.000000"  d="M 64.672790,127.891094 L 56.679837,128.226810 "/>
</g>
</g>
<g id="axes1">
<g id="regpolycollection1">
<defs>
    <clipPath id="4685744057707115011">
    <rect x="0.000000" y="0.000000" width="576.000000" height="432.000000"
    style="stroke: gray; fill: none;"/>
    </clipPath>
</defs>
<polygon style="fill: #0000ff; stroke: #000000; stroke-width: 1.000000; stroke-linejoin: miter; stroke-linecap: butt;  opacity: 0.669207" clip-path="url(#4685744057707115011)" points = "144.707942,112.443032 145.487633,112.566523 146.191002,112.924907 146.749199,113.483104 147.107584,114.186473 147.231075,114.966164 147.107584,115.745855 146.749199,116.449224 146.191002,117.007421 145.487633,117.365806 144.707942,117.489297 143.928251,117.365806 143.224882,117.007421 142.666685,116.449224 142.308301,115.745855 142.184810,114.966164 142.308301,114.186473 142.666685,113.483104 143.224882,112.924907 143.928251,112.566523"/>
<polygon style="fill: #0000ff; stroke: #000000; stroke-width: 1.000000; stroke-linejoin: miter; stroke-linecap: butt;  opacity: 0.947013" clip-path="url(#4685744057707115011)" points = "122.163120,194.044433 122.942811,194.167924 123.646181,194.526308 124.204378,195.084505 124.562762,195.787875 124.686253,196.567566 124.562762,197.347256 124.204378,198.050626 123.646181,198.608823 122.942811,198.967207 122.163120,199.090698 121.383430,198.967207 120.680060,198.608823 120.121863,198.050626 119.763479,197.347256 119.639988,196.567566 119.763479,195.787875 120.121863,195.084505 120.680060,194.526308 121.383430,194.167924"/>
<polygon style="fill: #0000ff; stroke: #000000; stroke-width: 1.000000; stroke-linejoin: miter; stroke-linecap: butt;  opacity: 0.832471" clip-path="url(#4685744057707115011)" points = "156.118275,160.812028 156.897966,160.935519 157.601335,161.293903 158.159532,161.852100 158.517916,162.555469 158.641407,163.335160 158.517916,164.114851 158.159532,164.818220 157.601335,165.376417 156.897966,165.734802 156.118275,165.858293 155.338584,165.734802 154.635215,165.376417 154.077018,164.818220 153.718633,164.114851 153.595142,163.335160 153.718633,162.555469 154.077018,161.852100 154.635215,161.293903 155.338584,160.935519"/>
<polygon style="fill: #0000ff; stroke: #000000; stroke-width: 1.000000; stroke-linejoin: miter; stroke-linecap: butt;  opacity: 0.688159" clip-path="url(#4685744057707115011)" points = "189.633350,143.014741 190.413041,143.138232 191.116410,143.496617 191.674607,144.054814 192.032992,144.758183 192.156483,145.537874 192.032992,146.317565 191.674607,147.020934 191.116410,147.579131 190.413041,147.937515 189.633350,148.061006 188.853660,147.937515 188.150290,147.579131 187.592093,147.020934 187.233709,146.317565 187.110218,145.537874 187.233709,144.758183 187.592093,144.054814 188.150290,143.496617 188.853660,143.138232"/>
<polygon style="fill: #0000ff; stroke: #000000; stroke-width: 1.000000; stroke-linejoin: miter; stroke-linecap: butt;  opacity: 0.573642" clip-path="url(#4685744057707115011)" points = "221.914055,114.121175 222.693746,114.244666 223.397115,114.603050 223.955312,115.161247 224.313696,115.864617 224.437187,116.644307 224.313696,117.423998 223.955312,118.127367 223.397115,118.685564 222.693746,119.043949 221.914055,119.167440 221.134364,119.043949 220.430995,118.685564 219.872798,118.127367 219.514413,117.423998 219.390922,116.644307 219.514413,115.864617 219.872798,115.161247 220.430995,114.603050 221.134364,114.244666"/>
<polygon style="fill: #0000ff; stroke: #000000; stroke-width: 1.000000; stroke-linejoin: miter; stroke-linecap: butt;  opacity: 0.464816" clip-path="url(#4685744057707115011)" points = "253.381793,84.607677 254.161484,84.731168 254.864853,85.089552 255.423050,85.647749 255.781435,86.351118 255.904926,87.130809 255.781435,87.910500 255.423050,88.613869 254.864853,89.172066 254.161484,89.530451 253.381793,89.653942 252.602102,89.530451 251.898733,89.172066 251.340536,88.613869 250.982152,87.910500 250.858661,87.130809 250.982152,86.351118 251.340536,85.647749 251.898733,85.089552 252.602102,84.731168"/>
<polygon style="fill: #0000ff; stroke: #000000; stroke-width: 1.000000; stroke-linejoin: miter; stroke-linecap: butt;  opacity: 0.344022" clip-path="url(#4685744057707115011)" points = "284.118585,62.738300 284.898276,62.861791 285.601645,63.220175 286.159842,63.778372 286.518226,64.481741 286.641717,65.261432 286.518226,66.041123 286.159842,66.744492 285.601645,67.302689 284.898276,67.661074 284.118585,67.784565 283.338894,67.661074 282.635525,67.302689 282.077328,66.744492 281.718943,66.041123 281.595452,65.261432 281.718943,64.481741 282.077328,63.778372 282.635525,63.220175 283.338894,62.861791"/>
<polygon style="fill: #0000ff; stroke: #000000; stroke-width: 1.000000; stroke-linejoin: miter; stroke-linecap: butt;  opacity: 0.724035" clip-path="url(#4685744057707115011)" points = "234.633622,166.207944 235.413313,166.331435 236.116682,166.689820 236.674879,167.248017 237.033264,167.951386 237.156754,168.731077 237.033264,169.510768 236.674879,170.214137 236.116682,170.772334 235.413313,171.130719 234.633622,171.254209 233.853931,171.130719 233.150562,170.772334 232.592365,170.214137 232.233980,169.510768 232.110489,168.731077 232.233980,167.951386 232.592365,167.248017 233.150562,166.689820 233.853931,166.331435"/>
<polygon style="fill: #0000ff; stroke: #000000; stroke-width: 1.000000; stroke-linejoin: miter; stroke-linecap: butt;  opacity: 0.743457" clip-path="url(#4685744057707115011)" points = "325.530864,236.385649 326.310555,236.509140 327.013924,236.867525 327.572121,237.425722 327.930506,238.129091 328.053996,238.908782 327.930506,239.688473 327.572121,240.391842 327.013924,240.950039 326.310555,241.308424 325.530864,241.431914 324.751173,241.308424 324.047804,240.950039 323.489607,240.391842 323.131222,239.688473 323.007731,238.908782 323.131222,238.129091 323.489607,237.425722 324.047804,236.867525 324.751173,236.509140"/>
<polygon style="fill: #0000ff; stroke: #000000; stroke-width: 1.000000; stroke-linejoin: miter; stroke-linecap: butt;  opacity: 0.994619" clip-path="url(#4685744057707115011)" points = "261.555068,294.955944 262.334758,295.079434 263.038128,295.437819 263.596325,295.996016 263.954709,296.699385 264.078200,297.479076 263.954709,298.258767 263.596325,298.962136 263.038128,299.520333 262.334758,299.878718 261.555068,300.002209 260.775377,299.878718 260.072008,299.520333 259.513811,298.962136 259.155426,298.258767 259.031935,297.479076 259.155426,296.699385 259.513811,295.996016 260.072008,295.437819 260.775377,295.079434"/>
<polygon style="fill: #0000ff; stroke: #000000; stroke-width: 1.000000; stroke-linejoin: miter; stroke-linecap: butt;  opacity: 0.872404" clip-path="url(#4685744057707115011)" points = "293.973218,263.110173 294.752909,263.233664 295.456278,263.592049 296.014475,264.150246 296.372860,264.853615 296.496351,265.633306 296.372860,266.412997 296.014475,267.116366 295.456278,267.674563 294.752909,268.032948 293.973218,268.156438 293.193527,268.032948 292.490158,267.674563 291.931961,267.116366 291.573576,266.412997 291.450086,265.633306 291.573576,264.853615 291.931961,264.150246 292.490158,263.592049 293.193527,263.233664"/>
<polygon style="fill: #0000ff; stroke: #000000; stroke-width: 1.000000; stroke-linejoin: miter; stroke-linecap: butt;  opacity: 0.743457" clip-path="url(#4685744057707115011)" points = "325.530864,236.385649 326.310555,236.509140 327.013924,236.867525 327.572121,237.425722 327.930506,238.129091 328.053996,238.908782 327.930506,239.688473 327.572121,240.391842 327.013924,240.950039 326.310555,241.308424 325.530864,241.431914 324.751173,241.308424 324.047804,240.950039 323.489607,240.391842 323.131222,239.688473 323.007731,238.908782 323.131222,238.129091 323.489607,237.425722 324.047804,236.867525 324.751173,236.509140"/>
<polygon style="fill: #0000ff; stroke: #000000; stroke-width: 1.000000; stroke-linejoin: miter; stroke-linecap: butt;  opacity: 0.626182" clip-path="url(#4685744057707115011)" points = "356.281431,206.755327 357.061122,206.878818 357.764491,207.237203 358.322688,207.795400 358.681072,208.498769 358.804563,209.278460 358.681072,210.058151 358.322688,210.761520 357.764491,211.319717 357.061122,211.678101 356.281431,211.801592 355.501740,211.678101 354.798371,211.319717 354.240174,210.761520 353.881789,210.058151 353.758298,209.278460 353.881789,208.498769 354.240174,207.795400 354.798371,207.237203 355.501740,206.878818"/>
<polygon style="fill: #0000ff; stroke: #000000; stroke-width: 1.000000; stroke-linejoin: miter; stroke-linecap: butt;  opacity: 0.507658" clip-path="url(#4685744057707115011)" points = "386.214577,179.783823 386.994267,179.907314 387.697637,180.265698 388.255834,180.823895 388.614218,181.527265 388.737709,182.306956 388.614218,183.086646 388.255834,183.790016 387.697637,184.348213 386.994267,184.706597 386.214577,184.830088 385.434886,184.706597 384.731516,184.348213 384.173319,183.790016 383.814935,183.086646 383.691444,182.306956 383.814935,181.527265 384.173319,180.823895 384.731516,180.265698 385.434886,179.907314"/>
<polygon style="fill: #0000ff; stroke: #000000; stroke-width: 1.000000; stroke-linejoin: miter; stroke-linecap: butt;  opacity: 0.392952" clip-path="url(#4685744057707115011)" points = "415.385996,153.155279 416.165687,153.278770 416.869056,153.637154 417.427253,154.195351 417.785637,154.898721 417.909128,155.678412 417.785637,156.458102 417.427253,157.161472 416.869056,157.719669 416.165687,158.078053 415.385996,158.201544 414.606305,158.078053 413.902936,157.719669 413.344739,157.161472 412.986354,156.458102 412.862863,155.678412 412.986354,154.898721 413.344739,154.195351 413.902936,153.637154 414.606305,153.278770"/>
<polygon style="fill: #0000ff; stroke: #000000; stroke-width: 1.000000; stroke-linejoin: miter; stroke-linecap: butt;  opacity: 0.742704" clip-path="url(#4685744057707115011)" points = "371.038078,276.126985 371.817769,276.250475 372.521138,276.608860 373.079335,277.167057 373.437719,277.870426 373.561210,278.650117 373.437719,279.429808 373.079335,280.133177 372.521138,280.691374 371.817769,281.049759 371.038078,281.173250 370.258387,281.049759 369.555018,280.691374 368.996821,280.133177 368.638436,279.429808 368.514945,278.650117 368.638436,277.870426 368.996821,277.167057 369.555018,276.608860 370.258387,276.250475"/>
<polygon style="fill: #0000ff; stroke: #000000; stroke-width: 1.000000; stroke-linejoin: miter; stroke-linecap: butt;  opacity: 1.000000" clip-path="url(#4685744057707115011)" points = "308.319504,333.216592 309.099195,333.340083 309.802564,333.698468 310.360761,334.256665 310.719146,334.960034 310.842637,335.739725 310.719146,336.519415 310.360761,337.222785 309.802564,337.780982 309.099195,338.139366 308.319504,338.262857 307.539813,338.139366 306.836444,337.780982 306.278247,337.222785 305.919862,336.519415 305.796372,335.739725 305.919862,334.960034 306.278247,334.256665 306.836444,333.698468 307.539813,333.340083"/>
<polygon style="fill: #0000ff; stroke: #000000; stroke-width: 1.000000; stroke-linejoin: miter; stroke-linecap: butt;  opacity: 0.869963" clip-path="url(#4685744057707115011)" points = "340.113610,304.113575 340.893301,304.237066 341.596670,304.595450 342.154867,305.153647 342.513252,305.857016 342.636743,306.636707 342.513252,307.416398 342.154867,308.119767 341.596670,308.677964 340.893301,309.036349 340.113610,309.159840 339.333920,309.036349 338.630550,308.677964 338.072353,308.119767 337.713969,307.416398 337.590478,306.636707 337.713969,305.857016 338.072353,305.153647 338.630550,304.595450 339.333920,304.237066"/>
<polygon style="fill: #0000ff; stroke: #000000; stroke-width: 1.000000; stroke-linejoin: miter; stroke-linecap: butt;  opacity: 0.742704" clip-path="url(#4685744057707115011)" points = "371.038078,276.126985 371.817769,276.250475 372.521138,276.608860 373.079335,277.167057 373.437719,277.870426 373.561210,278.650117 373.437719,279.429808 373.079335,280.133177 372.521138,280.691374 371.817769,281.049759 371.038078,281.173250 370.258387,281.049759 369.555018,280.691374 368.996821,280.133177 368.638436,279.429808 368.514945,278.650117 368.638436,277.870426 368.996821,277.167057 369.555018,276.608860 370.258387,276.250475"/>
<polygon style="fill: #0000ff; stroke: #000000; stroke-width: 1.000000; stroke-linejoin: miter; stroke-linecap: butt;  opacity: 0.628991" clip-path="url(#4685744057707115011)" points = "401.246630,244.427481 402.026320,244.550972 402.729690,244.909357 403.287887,245.467554 403.646271,246.170923 403.769762,246.950614 403.646271,247.730305 403.287887,248.433674 402.729690,248.991871 402.026320,249.350256 401.246630,249.473746 400.466939,249.350256 399.763570,248.991871 399.205373,248.433674 398.846988,247.730305 398.723497,246.950614 398.846988,246.170923 399.205373,245.467554 399.763570,244.909357 400.466939,244.550972"/>
<polygon style="fill: #0000ff; stroke: #000000; stroke-width: 1.000000; stroke-linejoin: miter; stroke-linecap: butt;  opacity: 0.501266" clip-path="url(#4685744057707115011)" points = "430.463903,221.068207 431.243594,221.191697 431.946963,221.550082 432.505160,222.108279 432.863545,222.811648 432.987036,223.591339 432.863545,224.371030 432.505160,225.074399 431.946963,225.632596 431.243594,225.990981 430.463903,226.114472 429.684213,225.990981 428.980843,225.632596 428.422646,225.074399 428.064262,224.371030 427.940771,223.591339 428.064262,222.811648 428.422646,222.108279 428.980843,221.550082 429.684213,221.191697"/>
<polygon style="fill: #0000ff; stroke: #000000; stroke-width: 1.000000; stroke-linejoin: miter; stroke-linecap: butt;  opacity: 0.383759" clip-path="url(#4685744057707115011)" points = "458.993523,195.291404 459.773213,195.414895 460.476583,195.773280 461.034780,196.331477 461.393164,197.034846 461.516655,197.814537 461.393164,198.594228 461.034780,199.297597 460.476583,199.855794 459.773213,200.214178 458.993523,200.337669 458.213832,200.214178 457.510463,199.855794 456.952266,199.297597 456.593881,198.594228 456.470390,197.814537 456.593881,197.034846 456.952266,196.331477 457.510463,195.773280 458.213832,195.414895"/>
<polygon style="fill: #0000ff; stroke: #000000; stroke-width: 1.000000; stroke-linejoin: miter; stroke-linecap: butt;  opacity: 0.969796" clip-path="url(#4685744057707115011)" points = "326.933165,361.901843 327.712856,362.025334 328.416225,362.383718 328.974422,362.941915 329.332807,363.645285 329.456298,364.424975 329.332807,365.204666 328.974422,365.908036 328.416225,366.466233 327.712856,366.824617 326.933165,366.948108 326.153474,366.824617 325.450105,366.466233 324.891908,365.908036 324.533524,365.204666 324.410033,364.424975 324.533524,363.645285 324.891908,362.941915 325.450105,362.383718 326.153474,362.025334"/>
<polygon style="fill: #0000ff; stroke: #000000; stroke-width: 1.000000; stroke-linejoin: miter; stroke-linecap: butt;  opacity: 0.846210" clip-path="url(#4685744057707115011)" points = "358.409495,330.122451 359.189186,330.245941 359.892555,330.604326 360.450752,331.162523 360.809137,331.865892 360.932628,332.645583 360.809137,333.425274 360.450752,334.128643 359.892555,334.686840 359.189186,335.045225 358.409495,335.168716 357.629805,335.045225 356.926435,334.686840 356.368238,334.128643 356.009854,333.425274 355.886363,332.645583 356.009854,331.865892 356.368238,331.162523 356.926435,330.604326 357.629805,330.245941"/>
<polygon style="fill: #0000ff; stroke: #000000; stroke-width: 1.000000; stroke-linejoin: miter; stroke-linecap: butt;  opacity: 0.723542" clip-path="url(#4685744057707115011)" points = "389.047040,300.150819 389.826731,300.274310 390.530100,300.632695 391.088297,301.190892 391.446682,301.894261 391.570173,302.673952 391.446682,303.453643 391.088297,304.157012 390.530100,304.715209 389.826731,305.073594 389.047040,305.197084 388.267349,305.073594 387.563980,304.715209 387.005783,304.157012 386.647399,303.453643 386.523908,302.673952 386.647399,301.894261 387.005783,301.190892 387.563980,300.632695 388.267349,300.274310"/>
<polygon style="fill: #0000ff; stroke: #000000; stroke-width: 1.000000; stroke-linejoin: miter; stroke-linecap: butt;  opacity: 0.621829" clip-path="url(#4685744057707115011)" points = "419.127798,263.148003 419.907489,263.271494 420.610858,263.629878 421.169055,264.188075 421.527439,264.891445 421.650930,265.671135 421.527439,266.450826 421.169055,267.154196 420.610858,267.712393 419.907489,268.070777 419.127798,268.194268 418.348107,268.070777 417.644738,267.712393 417.086541,267.154196 416.728156,266.450826 416.604665,265.671135 416.728156,264.891445 417.086541,264.188075 417.644738,263.629878 418.348107,263.271494"/>
<polygon style="fill: #0000ff; stroke: #000000; stroke-width: 1.000000; stroke-linejoin: miter; stroke-linecap: butt;  opacity: 0.489306" clip-path="url(#4685744057707115011)" points = "447.985744,241.786740 448.765435,241.910230 449.468804,242.268615 450.027001,242.826812 450.385386,243.530181 450.508876,244.309872 450.385386,245.089563 450.027001,245.792932 449.468804,246.351129 448.765435,246.709514 447.985744,246.833005 447.206053,246.709514 446.502684,246.351129 445.944487,245.792932 445.586102,245.089563 445.462611,244.309872 445.586102,243.530181 445.944487,242.826812 446.502684,242.268615 447.206053,241.910230"/>
<polygon style="fill: #0000ff; stroke: #000000; stroke-width: 1.000000; stroke-linejoin: miter; stroke-linecap: butt;  opacity: 0.372234" clip-path="url(#4685744057707115011)" points = "476.250443,215.715773 477.030134,215.839264 477.733503,216.197648 478.291700,216.755845 478.650084,217.459214 478.773575,218.238905 478.650084,219.018596 478.291700,219.721965 477.733503,220.280162 477.030134,220.638547 476.250443,220.762038 475.470752,220.638547 474.767383,220.280162 474.209186,219.721965 473.850801,219.018596 473.727310,218.238905 473.850801,217.459214 474.209186,216.755845 474.767383,216.197648 475.470752,215.839264"/>
<polygon style="fill: #0000ff; stroke: #000000; stroke-width: 1.000000; stroke-linejoin: miter; stroke-linecap: butt;  opacity: 0.969796" clip-path="url(#4685744057707115011)" points = "326.933165,361.901843 327.712856,362.025334 328.416225,362.383718 328.974422,362.941915 329.332807,363.645285 329.456298,364.424975 329.332807,365.204666 328.974422,365.908036 328.416225,366.466233 327.712856,366.824617 326.933165,366.948108 326.153474,366.824617 325.450105,366.466233 324.891908,365.908036 324.533524,365.204666 324.410033,364.424975 324.533524,363.645285 324.891908,362.941915 325.450105,362.383718 326.153474,362.025334"/>
<polygon style="fill: #0000ff; stroke: #000000; stroke-width: 1.000000; stroke-linejoin: miter; stroke-linecap: butt;  opacity: 0.846210" clip-path="url(#4685744057707115011)" points = "358.409495,330.122451 359.189186,330.245941 359.892555,330.604326 360.450752,331.162523 360.809137,331.865892 360.932628,332.645583 360.809137,333.425274 360.450752,334.128643 359.892555,334.686840 359.189186,335.045225 358.409495,335.168716 357.629805,335.045225 356.926435,334.686840 356.368238,334.128643 356.009854,333.425274 355.886363,332.645583 356.009854,331.865892 356.368238,331.162523 356.926435,330.604326 357.629805,330.245941"/>
<polygon style="fill: #0000ff; stroke: #000000; stroke-width: 1.000000; stroke-linejoin: miter; stroke-linecap: butt;  opacity: 0.723542" clip-path="url(#4685744057707115011)" points = "389.047040,300.150819 389.826731,300.274310 390.530100,300.632695 391.088297,301.190892 391.446682,301.894261 391.570173,302.673952 391.446682,303.453643 391.088297,304.157012 390.530100,304.715209 389.826731,305.073594 389.047040,305.197084 388.267349,305.073594 387.563980,304.715209 387.005783,304.157012 386.647399,303.453643 386.523908,302.673952 386.647399,301.894261 387.005783,301.190892 387.563980,300.632695 388.267349,300.274310"/>
<polygon style="fill: #0000ff; stroke: #000000; stroke-width: 1.000000; stroke-linejoin: miter; stroke-linecap: butt;  opacity: 0.621829" clip-path="url(#4685744057707115011)" points = "419.127798,263.148003 419.907489,263.271494 420.610858,263.629878 421.169055,264.188075 421.527439,264.891445 421.650930,265.671135 421.527439,266.450826 421.169055,267.154196 420.610858,267.712393 419.907489,268.070777 419.127798,268.194268 418.348107,268.070777 417.644738,267.712393 417.086541,267.154196 416.728156,266.450826 416.604665,265.671135 416.728156,264.891445 417.086541,264.188075 417.644738,263.629878 418.348107,263.271494"/>
<polygon style="fill: #0000ff; stroke: #000000; stroke-width: 1.000000; stroke-linejoin: miter; stroke-linecap: butt;  opacity: 0.489306" clip-path="url(#4685744057707115011)" points = "447.985744,241.786740 448.765435,241.910230 449.468804,242.268615 450.027001,242.826812 450.385386,243.530181 450.508876,244.309872 450.385386,245.089563 450.027001,245.792932 449.468804,246.351129 448.765435,246.709514 447.985744,246.833005 447.206053,246.709514 446.502684,246.351129 445.944487,245.792932 445.586102,245.089563 445.462611,244.309872 445.586102,243.530181 445.944487,242.826812 446.502684,242.268615 447.206053,241.910230"/>
<polygon style="fill: #0000ff; stroke: #000000; stroke-width: 1.000000; stroke-linejoin: miter; stroke-linecap: butt;  opacity: 0.372234" clip-path="url(#4685744057707115011)" points = "476.250443,215.715773 477.030134,215.839264 477.733503,216.197648 478.291700,216.755845 478.650084,217.459214 478.773575,218.238905 478.650084,219.018596 478.291700,219.721965 477.733503,220.280162 477.030134,220.638547 476.250443,220.762038 475.470752,220.638547 474.767383,220.280162 474.209186,219.721965 473.850801,219.018596 473.727310,218.238905 473.850801,217.459214 474.209186,216.755845 474.767383,216.197648 475.470752,215.839264"/>
<polygon style="fill: #0000ff; stroke: #000000; stroke-width: 1.000000; stroke-linejoin: miter; stroke-linecap: butt;  opacity: 0.955516" clip-path="url(#4685744057707115011)" points = "336.198650,375.867020 336.978341,375.990511 337.681710,376.348895 338.239907,376.907092 338.598291,377.610461 338.721782,378.390152 338.598291,379.169843 338.239907,379.873212 337.681710,380.431409 336.978341,380.789794 336.198650,380.913285 335.418959,380.789794 334.715590,380.431409 334.157393,379.873212 333.799008,379.169843 333.675517,378.390152 333.799008,377.610461 334.157393,376.907092 334.715590,376.348895 335.418959,375.990511"/>
<polygon style="fill: #0000ff; stroke: #000000; stroke-width: 1.000000; stroke-linejoin: miter; stroke-linecap: butt;  opacity: 0.829476" clip-path="url(#4685744057707115011)" points = "367.484599,345.142274 368.264290,345.265765 368.967659,345.624150 369.525856,346.182347 369.884241,346.885716 370.007732,347.665407 369.884241,348.445098 369.525856,349.148467 368.967659,349.706664 368.264290,350.065048 367.484599,350.188539 366.704908,350.065048 366.001539,349.706664 365.443342,349.148467 365.084958,348.445098 364.961467,347.665407 365.084958,346.885716 365.443342,346.182347 366.001539,345.624150 366.704908,345.265765"/>
<polygon style="fill: #0000ff; stroke: #000000; stroke-width: 1.000000; stroke-linejoin: miter; stroke-linecap: butt;  opacity: 0.702265" clip-path="url(#4685744057707115011)" points = "397.892516,317.168583 398.672206,317.292074 399.375576,317.650459 399.933773,318.208656 400.292157,318.912025 400.415648,319.691716 400.292157,320.471407 399.933773,321.174776 399.375576,321.732973 398.672206,322.091357 397.892516,322.214848 397.112825,322.091357 396.409456,321.732973 395.851259,321.174776 395.492874,320.471407 395.369383,319.691716 395.492874,318.912025 395.851259,318.208656 396.409456,317.650459 397.112825,317.292074"/>
<polygon style="fill: #0000ff; stroke: #000000; stroke-width: 1.000000; stroke-linejoin: miter; stroke-linecap: butt;  opacity: 0.585900" clip-path="url(#4685744057707115011)" points = "427.585704,286.701147 428.365395,286.824638 429.068764,287.183022 429.626961,287.741219 429.985346,288.444588 430.108837,289.224279 429.985346,290.003970 429.626961,290.707339 429.068764,291.265536 428.365395,291.623921 427.585704,291.747412 426.806013,291.623921 426.102644,291.265536 425.544447,290.707339 425.186063,290.003970 425.062572,289.224279 425.186063,288.444588 425.544447,287.741219 426.102644,287.183022 426.806013,286.824638"/>
<polygon style="fill: #0000ff; stroke: #000000; stroke-width: 1.000000; stroke-linejoin: miter; stroke-linecap: butt;  opacity: 0.454642" clip-path="url(#4685744057707115011)" points = "456.211903,264.979765 456.991594,265.103256 457.694963,265.461641 458.253160,266.019838 458.611545,266.723207 458.735036,267.502898 458.611545,268.282589 458.253160,268.985958 457.694963,269.544155 456.991594,269.902539 456.211903,270.026030 455.432212,269.902539 454.728843,269.544155 454.170646,268.985958 453.812261,268.282589 453.688770,267.502898 453.812261,266.723207 454.170646,266.019838 454.728843,265.461641 455.432212,265.103256"/>
<polygon style="fill: #0000ff; stroke: #000000; stroke-width: 1.000000; stroke-linejoin: miter; stroke-linecap: butt;  opacity: 0.337617" clip-path="url(#4685744057707115011)" points = "484.242697,239.096110 485.022388,239.219601 485.725757,239.577986 486.283954,240.136183 486.642338,240.839552 486.765829,241.619243 486.642338,242.398934 486.283954,243.102303 485.725757,243.660500 485.022388,244.018885 484.242697,244.142375 483.463006,244.018885 482.759637,243.660500 482.201440,243.102303 481.843055,242.398934 481.719564,241.619243 481.843055,240.839552 482.201440,240.136183 482.759637,239.577986 483.463006,239.219601"/>
<polygon style="fill: #0000ff; stroke: #000000; stroke-width: 1.000000; stroke-linejoin: miter; stroke-linecap: butt;  opacity: 0.894540" clip-path="url(#4685744057707115011)" points = "76.871356,176.650289 77.651046,176.773780 78.354416,177.132165 78.912613,177.690362 79.270997,178.393731 79.394488,179.173422 79.270997,179.953113 78.912613,180.656482 78.354416,181.214679 77.651046,181.573063 76.871356,181.696554 76.091665,181.573063 75.388295,181.214679 74.830098,180.656482 74.471714,179.953113 74.348223,179.173422 74.471714,178.393731 74.830098,177.690362 75.388295,177.132165 76.091665,176.773780"/>
<polygon style="fill: #0000ff; stroke: #000000; stroke-width: 1.000000; stroke-linejoin: miter; stroke-linecap: butt;  opacity: 0.792464" clip-path="url(#4685744057707115011)" points = "110.964380,138.827024 111.744070,138.950515 112.447440,139.308900 113.005637,139.867097 113.364021,140.570466 113.487512,141.350157 113.364021,142.129847 113.005637,142.833217 112.447440,143.391414 111.744070,143.749798 110.964380,143.873289 110.184689,143.749798 109.481320,143.391414 108.923123,142.833217 108.564738,142.129847 108.441247,141.350157 108.564738,140.570466 108.923123,139.867097 109.481320,139.308900 110.184689,138.950515"/>
<polygon style="fill: #0000ff; stroke: #000000; stroke-width: 1.000000; stroke-linejoin: miter; stroke-linecap: butt;  opacity: 0.669207" clip-path="url(#4685744057707115011)" points = "144.707942,112.443032 145.487633,112.566523 146.191002,112.924907 146.749199,113.483104 147.107584,114.186473 147.231075,114.966164 147.107584,115.745855 146.749199,116.449224 146.191002,117.007421 145.487633,117.365806 144.707942,117.489297 143.928251,117.365806 143.224882,117.007421 142.666685,116.449224 142.308301,115.745855 142.184810,114.966164 142.308301,114.186473 142.666685,113.483104 143.224882,112.924907 143.928251,112.566523"/>
<polygon style="fill: #0000ff; stroke: #000000; stroke-width: 1.000000; stroke-linejoin: miter; stroke-linecap: butt;  opacity: 0.536465" clip-path="url(#4685744057707115011)" points = "177.730301,92.648955 178.509992,92.772446 179.213361,93.130831 179.771558,93.689028 180.129943,94.392397 180.253434,95.172088 180.129943,95.951779 179.771558,96.655148 179.213361,97.213345 178.509992,97.571730 177.730301,97.695220 176.950610,97.571730 176.247241,97.213345 175.689044,96.655148 175.330660,95.951779 175.207169,95.172088 175.330660,94.392397 175.689044,93.689028 176.247241,93.130831 176.950610,92.772446"/>
<polygon style="fill: #0000ff; stroke: #000000; stroke-width: 1.000000; stroke-linejoin: miter; stroke-linecap: butt;  opacity: 0.425663" clip-path="url(#4685744057707115011)" points = "209.628644,64.866383 210.408335,64.989874 211.111704,65.348259 211.669901,65.906456 212.028285,66.609825 212.151776,67.389516 212.028285,68.169207 211.669901,68.872576 211.111704,69.430773 210.408335,69.789157 209.628644,69.912648 208.848953,69.789157 208.145584,69.430773 207.587387,68.872576 207.229002,68.169207 207.105511,67.389516 207.229002,66.609825 207.587387,65.906456 208.145584,65.348259 208.848953,64.989874"/>
<polygon style="fill: #0000ff; stroke: #000000; stroke-width: 1.000000; stroke-linejoin: miter; stroke-linecap: butt;  opacity: 0.300000" clip-path="url(#4685744057707115011)" points = "240.859917,46.205778 241.639607,46.329269 242.342977,46.687653 242.901174,47.245850 243.259558,47.949219 243.383049,48.728910 243.259558,49.508601 242.901174,50.211970 242.342977,50.770167 241.639607,51.128552 240.859917,51.252043 240.080226,51.128552 239.376856,50.770167 238.818659,50.211970 238.460275,49.508601 238.336784,48.728910 238.460275,47.949219 238.818659,47.245850 239.376856,46.687653 240.080226,46.329269"/>
<polygon style="fill: #0000ff; stroke: #000000; stroke-width: 1.000000; stroke-linejoin: miter; stroke-linecap: butt;  opacity: 1.000000" clip-path="url(#4685744057707115011)" points = "308.319504,333.216592 309.099195,333.340083 309.802564,333.698468 310.360761,334.256665 310.719146,334.960034 310.842637,335.739725 310.719146,336.519415 310.360761,337.222785 309.802564,337.780982 309.099195,338.139366 308.319504,338.262857 307.539813,338.139366 306.836444,337.780982 306.278247,337.222785 305.919862,336.519415 305.796372,335.739725 305.919862,334.960034 306.278247,334.256665 306.836444,333.698468 307.539813,333.340083"/>
<polygon style="fill: #0000ff; stroke: #000000; stroke-width: 1.000000; stroke-linejoin: miter; stroke-linecap: butt;  opacity: 0.869963" clip-path="url(#4685744057707115011)" points = "340.113610,304.113575 340.893301,304.237066 341.596670,304.595450 342.154867,305.153647 342.513252,305.857016 342.636743,306.636707 342.513252,307.416398 342.154867,308.119767 341.596670,308.677964 340.893301,309.036349 340.113610,309.159840 339.333920,309.036349 338.630550,308.677964 338.072353,308.119767 337.713969,307.416398 337.590478,306.636707 337.713969,305.857016 338.072353,305.153647 338.630550,304.595450 339.333920,304.237066"/>
<polygon style="fill: #0000ff; stroke: #000000; stroke-width: 1.000000; stroke-linejoin: miter; stroke-linecap: butt;  opacity: 0.742704" clip-path="url(#4685744057707115011)" points = "371.038078,276.126985 371.817769,276.250475 372.521138,276.608860 373.079335,277.167057 373.437719,277.870426 373.561210,278.650117 373.437719,279.429808 373.079335,280.133177 372.521138,280.691374 371.817769,281.049759 371.038078,281.173250 370.258387,281.049759 369.555018,280.691374 368.996821,280.133177 368.638436,279.429808 368.514945,278.650117 368.638436,277.870426 368.996821,277.167057 369.555018,276.608860 370.258387,276.250475"/>
<polygon style="fill: #0000ff; stroke: #000000; stroke-width: 1.000000; stroke-linejoin: miter; stroke-linecap: butt;  opacity: 0.628991" clip-path="url(#4685744057707115011)" points = "401.246630,244.427481 402.026320,244.550972 402.729690,244.909357 403.287887,245.467554 403.646271,246.170923 403.769762,246.950614 403.646271,247.730305 403.287887,248.433674 402.729690,248.991871 402.026320,249.350256 401.246630,249.473746 400.466939,249.350256 399.763570,248.991871 399.205373,248.433674 398.846988,247.730305 398.723497,246.950614 398.846988,246.170923 399.205373,245.467554 399.763570,244.909357 400.466939,244.550972"/>
<polygon style="fill: #0000ff; stroke: #000000; stroke-width: 1.000000; stroke-linejoin: miter; stroke-linecap: butt;  opacity: 0.501266" clip-path="url(#4685744057707115011)" points = "430.463903,221.068207 431.243594,221.191697 431.946963,221.550082 432.505160,222.108279 432.863545,222.811648 432.987036,223.591339 432.863545,224.371030 432.505160,225.074399 431.946963,225.632596 431.243594,225.990981 430.463903,226.114472 429.684213,225.990981 428.980843,225.632596 428.422646,225.074399 428.064262,224.371030 427.940771,223.591339 428.064262,222.811648 428.422646,222.108279 428.980843,221.550082 429.684213,221.191697"/>
<polygon style="fill: #0000ff; stroke: #000000; stroke-width: 1.000000; stroke-linejoin: miter; stroke-linecap: butt;  opacity: 0.383759" clip-path="url(#4685744057707115011)" points = "458.993523,195.291404 459.773213,195.414895 460.476583,195.773280 461.034780,196.331477 461.393164,197.034846 461.516655,197.814537 461.393164,198.594228 461.034780,199.297597 460.476583,199.855794 459.773213,200.214178 458.993523,200.337669 458.213832,200.214178 457.510463,199.855794 456.952266,199.297597 456.593881,198.594228 456.470390,197.814537 456.593881,197.034846 456.952266,196.331477 457.510463,195.773280 458.213832,195.414895"/>
</g>
<g id="matplotlib.axis1">
</g>
<g id="matplotlib.axis2">
</g>
</g>
</g>
</svg>
