<?xml version="1.0" standalone="no"?>
<!DOCTYPE svg PUBLIC "-//W3C//DTD SVG 1.1//EN"
  "http://www.w3.org/Graphics/SVG/1.1/DTD/svg11.dtd">
<!-- Created with matplotlib (http://matplotlib.sourceforge.net/) -->
<svg width="576" height="432" viewBox="0 0 576 432"
   xmlns="http://www.w3.org/2000/svg"
   xmlns:xlink="http://www.w3.org/1999/xlink"
   version="1.1"
   id="svg1">
<g id="figure1">
<polygon style="fill: #ffffff; stroke: #ffffff; stroke-width: 1.000000; stroke-linejoin: miter; stroke-linecap: square;  opacity: 1.000000"  points = "0.000000,432.000000 0.000000,0.000000 576.000000,0.000000 576.000000,432.000000"/>
<polygon style="fill: #ffffff; opacity: 1.000000"  points = "0.000000,432.000000 0.000000,0.000000 576.000000,0.000000 576.000000,432.000000"/>
<g id="axis3d1">
<polygon style="fill: #f2f2f2; stroke: #f2f2f2; stroke-width: 1.000000; stroke-linejoin: miter; stroke-linecap: square;  opacity: 0.100000"  points = "241.211914,230.626613 508.260241,289.840834 519.433224,81.348607 238.467267,28.237352"/>
<path style="fill: none; stroke: #000000; stroke-width: 0.750000; stroke-linejoin: miter; stroke-linecap: square;  opacity: 1.000000"  d="M 76.357701,336.543225 L 357.328625,405.507833 "/>
<text style="font-size: 12.000000; font-family: Bitstream Vera Sans; font-style: Roman; fill: #000000;" x="127.936123" y="379.403446" transform="translate(127.936123,379.403446) rotate(-341.9) translate(-127.936123,-379.403446)">max_call_mismatch_rate</text>
<g id="linecollection1">
<path style="fill: none; stroke: #e6e6e6; stroke-width: 1.000000; stroke-linejoin: miter; stroke-linecap: butt;  opacity: 1.000000"  d="M 81.730847,337.862069 L 246.335639,231.762727 L 243.846516,29.254197 "/>
<path style="fill: none; stroke: #e6e6e6; stroke-width: 1.000000; stroke-linejoin: miter; stroke-linecap: butt;  opacity: 1.000000"  d="M 133.806316,350.644048 L 295.959675,242.766161 L 295.968604,39.106883 "/>
<path style="fill: none; stroke: #e6e6e6; stroke-width: 1.000000; stroke-linejoin: miter; stroke-linecap: butt;  opacity: 1.000000"  d="M 186.791666,363.649357 L 346.387419,253.947806 L 348.978075,49.127313 "/>
<path style="fill: none; stroke: #e6e6e6; stroke-width: 1.000000; stroke-linejoin: miter; stroke-linecap: butt;  opacity: 1.000000"  d="M 240.710954,376.883903 L 397.638557,265.312027 L 402.897787,59.319806 "/>
<path style="fill: none; stroke: #e6e6e6; stroke-width: 1.000000; stroke-linejoin: miter; stroke-linecap: butt;  opacity: 1.000000"  d="M 295.589092,390.353800 L 449.733420,276.863332 L 457.751387,69.688832 "/>
<path style="fill: none; stroke: #e6e6e6; stroke-width: 1.000000; stroke-linejoin: miter; stroke-linecap: butt;  opacity: 1.000000"  d="M 351.451887,404.065382 L 502.693018,288.606380 L 513.563349,80.239019 "/>
</g>
<g id="xtick1">
<text style="font-size: 12.000000; font-family: Bitstream Vera Sans; font-style: Roman; fill: #000000;" x="68.730847" y="342.362069" >0.05</text>
<path style="fill: none; stroke: #000000; stroke-width: 1.000000; stroke-linejoin: miter; stroke-linecap: square;  opacity: 1.000000"  d="M 81.730847,337.862069 L 79.242567,345.465257 "/>
</g>
<g id="xtick2">
<text style="font-size: 12.000000; font-family: Bitstream Vera Sans; font-style: Roman; fill: #000000;" x="120.806316" y="355.144048" >0.10</text>
<path style="fill: none; stroke: #000000; stroke-width: 1.000000; stroke-linejoin: miter; stroke-linecap: square;  opacity: 1.000000"  d="M 133.806316,350.644048 L 131.318036,358.247235 "/>
</g>
<g id="xtick3">
<text style="font-size: 12.000000; font-family: Bitstream Vera Sans; font-style: Roman; fill: #000000;" x="173.791666" y="368.149357" >0.15</text>
<path style="fill: none; stroke: #000000; stroke-width: 1.000000; stroke-linejoin: miter; stroke-linecap: square;  opacity: 1.000000"  d="M 186.791666,363.649357 L 184.303386,371.252545 "/>
</g>
<g id="xtick4">
<text style="font-size: 12.000000; font-family: Bitstream Vera Sans; font-style: Roman; fill: #000000;" x="227.710954" y="381.383903" >0.20</text>
<path style="fill: none; stroke: #000000; stroke-width: 1.000000; stroke-linejoin: miter; stroke-linecap: square;  opacity: 1.000000"  d="M 240.710954,376.883903 L 238.222674,384.487091 "/>
</g>
<g id="xtick5">
<text style="font-size: 12.000000; font-family: Bitstream Vera Sans; font-style: Roman; fill: #000000;" x="282.589092" y="394.853800" >0.25</text>
<path style="fill: none; stroke: #000000; stroke-width: 1.000000; stroke-linejoin: miter; stroke-linecap: square;  opacity: 1.000000"  d="M 295.589092,390.353800 L 293.100812,397.956987 "/>
</g>
<g id="xtick6">
<text style="font-size: 12.000000; font-family: Bitstream Vera Sans; font-style: Roman; fill: #000000;" x="338.451887" y="408.565382" >0.30</text>
<path style="fill: none; stroke: #000000; stroke-width: 1.000000; stroke-linejoin: miter; stroke-linecap: square;  opacity: 1.000000"  d="M 351.451887,404.065382 L 348.963607,411.668569 "/>
</g>
</g>
<g id="axis3d2">
<polygon style="fill: #e6e6e6; stroke: #e6e6e6; stroke-width: 1.000000; stroke-linejoin: miter; stroke-linecap: square;  opacity: 0.500000"  points = "76.357701,336.543225 241.211914,230.626613 238.467267,28.237352 64.421350,123.401250"/>
<path style="fill: none; stroke: #000000; stroke-width: 0.750000; stroke-linejoin: miter; stroke-linecap: square;  opacity: 1.000000"  d="M 357.328625,405.507833 L 508.260241,289.840834 "/>
<text style="font-size: 12.000000; font-family: Bitstream Vera Sans; font-style: Roman; fill: #000000;" x="425.958426" y="409.045229" transform="translate(425.958426,409.045229) rotate(-45.6) translate(-425.958426,-409.045229)">max_call_NA_rate</text>
<g id="linecollection2">
<path style="fill: none; stroke: #e6e6e6; stroke-width: 1.000000; stroke-linejoin: miter; stroke-linecap: butt;  opacity: 1.000000"  d="M 360.586508,403.011142 L 79.904448,334.264487 L 68.180167,121.346024 "/>
<path style="fill: none; stroke: #e6e6e6; stroke-width: 1.000000; stroke-linejoin: miter; stroke-linecap: butt;  opacity: 1.000000"  d="M 379.914611,388.198980 L 100.956846,320.738605 L 90.478343,109.153946 "/>
<path style="fill: none; stroke: #e6e6e6; stroke-width: 1.000000; stroke-linejoin: miter; stroke-linecap: butt;  opacity: 1.000000"  d="M 398.874695,373.668849 L 121.625951,307.458984 L 112.348919,97.195669 "/>
<path style="fill: none; stroke: #e6e6e6; stroke-width: 1.000000; stroke-linejoin: miter; stroke-linecap: butt;  opacity: 1.000000"  d="M 417.477173,359.412772 L 141.922136,294.418958 L 133.804078,85.464532 "/>
<path style="fill: none; stroke: #e6e6e6; stroke-width: 1.000000; stroke-linejoin: miter; stroke-linecap: butt;  opacity: 1.000000"  d="M 435.732067,345.423067 L 161.855403,281.612103 L 154.855544,73.954124 "/>
<path style="fill: none; stroke: #e6e6e6; stroke-width: 1.000000; stroke-linejoin: miter; stroke-linecap: butt;  opacity: 1.000000"  d="M 453.649029,331.692337 L 181.435400,269.032219 L 175.514605,62.658273 "/>
<path style="fill: none; stroke: #e6e6e6; stroke-width: 1.000000; stroke-linejoin: miter; stroke-linecap: butt;  opacity: 1.000000"  d="M 471.237356,318.213458 L 200.671436,256.673325 L 195.792131,51.571035 "/>
<path style="fill: none; stroke: #e6e6e6; stroke-width: 1.000000; stroke-linejoin: miter; stroke-linecap: butt;  opacity: 1.000000"  d="M 488.506009,304.979563 L 219.572495,244.529648 L 215.698595,40.686685 "/>
<path style="fill: none; stroke: #e6e6e6; stroke-width: 1.000000; stroke-linejoin: miter; stroke-linecap: butt;  opacity: 1.000000"  d="M 505.463623,291.984033 L 238.147253,232.595617 L 235.244090,29.999704 "/>
</g>
<g id="xtick7">
<text style="font-size: 12.000000; font-family: Bitstream Vera Sans; font-style: Roman; fill: #000000;" x="352.086508" y="407.511142" >0.1</text>
<path style="fill: none; stroke: #000000; stroke-width: 1.000000; stroke-linejoin: miter; stroke-linecap: square;  opacity: 1.000000"  d="M 360.586508,403.011142 L 366.304039,408.606662 "/>
</g>
<g id="xtick8">
<text style="font-size: 12.000000; font-family: Bitstream Vera Sans; font-style: Roman; fill: #000000;" x="370.891174" y="392.698980" >0.2</text>
<path style="fill: none; stroke: #000000; stroke-width: 1.000000; stroke-linejoin: miter; stroke-linecap: square;  opacity: 1.000000"  d="M 379.914611,388.198980 L 385.632141,393.794500 "/>
</g>
<g id="xtick9">
<text style="font-size: 12.000000; font-family: Bitstream Vera Sans; font-style: Roman; fill: #000000;" x="389.874695" y="378.168849" >0.3</text>
<path style="fill: none; stroke: #000000; stroke-width: 1.000000; stroke-linejoin: miter; stroke-linecap: square;  opacity: 1.000000"  d="M 398.874695,373.668849 L 404.592225,379.264370 "/>
</g>
<g id="xtick10">
<text style="font-size: 12.000000; font-family: Bitstream Vera Sans; font-style: Roman; fill: #000000;" x="408.477173" y="363.912772" >0.4</text>
<path style="fill: none; stroke: #000000; stroke-width: 1.000000; stroke-linejoin: miter; stroke-linecap: square;  opacity: 1.000000"  d="M 417.477173,359.412772 L 423.194703,365.008292 "/>
</g>
<g id="xtick11">
<text style="font-size: 12.000000; font-family: Bitstream Vera Sans; font-style: Roman; fill: #000000;" x="426.732067" y="349.923067" >0.5</text>
<path style="fill: none; stroke: #000000; stroke-width: 1.000000; stroke-linejoin: miter; stroke-linecap: square;  opacity: 1.000000"  d="M 435.732067,345.423067 L 441.449597,351.018587 "/>
</g>
<g id="xtick12">
<text style="font-size: 12.000000; font-family: Bitstream Vera Sans; font-style: Roman; fill: #000000;" x="444.649029" y="336.192337" >0.6</text>
<path style="fill: none; stroke: #000000; stroke-width: 1.000000; stroke-linejoin: miter; stroke-linecap: square;  opacity: 1.000000"  d="M 453.649029,331.692337 L 459.366559,337.287858 "/>
</g>
<g id="xtick13">
<text style="font-size: 12.000000; font-family: Bitstream Vera Sans; font-style: Roman; fill: #000000;" x="462.237356" y="322.713458" >0.7</text>
<path style="fill: none; stroke: #000000; stroke-width: 1.000000; stroke-linejoin: miter; stroke-linecap: square;  opacity: 1.000000"  d="M 471.237356,318.213458 L 476.954887,323.808978 "/>
</g>
<g id="xtick14">
<text style="font-size: 12.000000; font-family: Bitstream Vera Sans; font-style: Roman; fill: #000000;" x="479.506009" y="309.479563" >0.8</text>
<path style="fill: none; stroke: #000000; stroke-width: 1.000000; stroke-linejoin: miter; stroke-linecap: square;  opacity: 1.000000"  d="M 488.506009,304.979563 L 494.223539,310.575083 "/>
</g>
<g id="xtick15">
<text style="font-size: 12.000000; font-family: Bitstream Vera Sans; font-style: Roman; fill: #000000;" x="496.463623" y="296.484033" >0.9</text>
<path style="fill: none; stroke: #000000; stroke-width: 1.000000; stroke-linejoin: miter; stroke-linecap: square;  opacity: 1.000000"  d="M 505.463623,291.984033 L 511.181153,297.579553 "/>
</g>
</g>
<g id="axis3d3">
<polygon style="fill: #f2f2f2; stroke: #f2f2f2; stroke-width: 1.000000; stroke-linejoin: miter; stroke-linecap: square;  opacity: 0.100000"  points = "76.357701,336.543225 357.328625,405.507833 508.260241,289.840834 241.211914,230.626613"/>
<path style="fill: none; stroke: #000000; stroke-width: 0.750000; stroke-linejoin: miter; stroke-linecap: square;  opacity: 1.000000"  d="M 76.357701,336.543225 L 64.421350,123.401250 "/>
<text style="font-size: 12.000000; font-family: Bitstream Vera Sans; font-style: Roman; fill: #000000;" x="42.776287" y="295.161185" transform="translate(42.776287,295.161185) rotate(-92.4) translate(-42.776287,-295.161185)">avg_mismatch_rate</text>
<g id="linecollection3">
<path style="fill: none; stroke: #e6e6e6; stroke-width: 1.000000; stroke-linejoin: miter; stroke-linecap: butt;  opacity: 1.000000"  d="M 76.131056,332.496136 L 241.159600,226.768965 L 508.472750,285.875342 "/>
<path style="fill: none; stroke: #e6e6e6; stroke-width: 1.000000; stroke-linejoin: miter; stroke-linecap: butt;  opacity: 1.000000"  d="M 74.914334,310.769681 L 240.878887,206.069286 L 509.613346,264.591371 "/>
<path style="fill: none; stroke: #e6e6e6; stroke-width: 1.000000; stroke-linejoin: miter; stroke-linecap: butt;  opacity: 1.000000"  d="M 73.684057,288.801187 L 240.595274,185.155757 L 510.766242,243.077888 "/>
<path style="fill: none; stroke: #e6e6e6; stroke-width: 1.000000; stroke-linejoin: miter; stroke-linecap: butt;  opacity: 1.000000"  d="M 72.439998,266.586586 L 240.308715,164.025048 L 511.931637,221.331161 "/>
<path style="fill: none; stroke: #e6e6e6; stroke-width: 1.000000; stroke-linejoin: miter; stroke-linecap: butt;  opacity: 1.000000"  d="M 71.181923,244.121720 L 240.019165,142.673756 L 513.109735,199.347375 "/>
<path style="fill: none; stroke: #e6e6e6; stroke-width: 1.000000; stroke-linejoin: miter; stroke-linecap: butt;  opacity: 1.000000"  d="M 69.909595,221.402335 L 239.726577,121.098411 L 514.300747,177.122634 "/>
<path style="fill: none; stroke: #e6e6e6; stroke-width: 1.000000; stroke-linejoin: miter; stroke-linecap: butt;  opacity: 1.000000"  d="M 68.622770,198.424081 L 239.430902,99.295467 L 515.504884,154.652955 "/>
<path style="fill: none; stroke: #e6e6e6; stroke-width: 1.000000; stroke-linejoin: miter; stroke-linecap: butt;  opacity: 1.000000"  d="M 67.321198,175.182509 L 239.132092,77.261303 L 516.722366,131.934265 "/>
<path style="fill: none; stroke: #e6e6e6; stroke-width: 1.000000; stroke-linejoin: miter; stroke-linecap: butt;  opacity: 1.000000"  d="M 66.004625,151.673066 L 238.830096,54.992221 L 517.953416,108.962402 "/>
<path style="fill: none; stroke: #e6e6e6; stroke-width: 1.000000; stroke-linejoin: miter; stroke-linecap: butt;  opacity: 1.000000"  d="M 64.672790,127.891094 L 238.524862,32.484445 L 519.198260,85.733110 "/>
</g>
<g id="xtick16">
<text style="font-size: 12.000000; font-family: Bitstream Vera Sans; font-style: Roman; fill: #000000;" x="59.131056" y="336.996136" >0.010</text>
<path style="fill: none; stroke: #000000; stroke-width: 1.000000; stroke-linejoin: miter; stroke-linecap: square;  opacity: 1.000000"  d="M 76.131056,332.496136 L 68.138103,332.831851 "/>
</g>
<g id="xtick17">
<text style="font-size: 12.000000; font-family: Bitstream Vera Sans; font-style: Roman; fill: #000000;" x="57.890896" y="315.269681" >0.012</text>
<path style="fill: none; stroke: #000000; stroke-width: 1.000000; stroke-linejoin: miter; stroke-linecap: square;  opacity: 1.000000"  d="M 74.914334,310.769681 L 66.921381,311.105396 "/>
</g>
<g id="xtick18">
<text style="font-size: 12.000000; font-family: Bitstream Vera Sans; font-style: Roman; fill: #000000;" x="56.684057" y="293.301187" >0.014</text>
<path style="fill: none; stroke: #000000; stroke-width: 1.000000; stroke-linejoin: miter; stroke-linecap: square;  opacity: 1.000000"  d="M 73.684057,288.801187 L 65.691104,289.136902 "/>
</g>
<g id="xtick19">
<text style="font-size: 12.000000; font-family: Bitstream Vera Sans; font-style: Roman; fill: #000000;" x="55.439998" y="271.086586" >0.016</text>
<path style="fill: none; stroke: #000000; stroke-width: 1.000000; stroke-linejoin: miter; stroke-linecap: square;  opacity: 1.000000"  d="M 72.439998,266.586586 L 64.447045,266.922301 "/>
</g>
<g id="xtick20">
<text style="font-size: 12.000000; font-family: Bitstream Vera Sans; font-style: Roman; fill: #000000;" x="54.181923" y="248.621720" >0.018</text>
<path style="fill: none; stroke: #000000; stroke-width: 1.000000; stroke-linejoin: miter; stroke-linecap: square;  opacity: 1.000000"  d="M 71.181923,244.121720 L 63.188970,244.457435 "/>
</g>
<g id="xtick21">
<text style="font-size: 12.000000; font-family: Bitstream Vera Sans; font-style: Roman; fill: #000000;" x="52.909595" y="225.902335" >0.020</text>
<path style="fill: none; stroke: #000000; stroke-width: 1.000000; stroke-linejoin: miter; stroke-linecap: square;  opacity: 1.000000"  d="M 69.909595,221.402335 L 61.916642,221.738050 "/>
</g>
<g id="xtick22">
<text style="font-size: 12.000000; font-family: Bitstream Vera Sans; font-style: Roman; fill: #000000;" x="51.599332" y="202.924081" >0.022</text>
<path style="fill: none; stroke: #000000; stroke-width: 1.000000; stroke-linejoin: miter; stroke-linecap: square;  opacity: 1.000000"  d="M 68.622770,198.424081 L 60.629817,198.759796 "/>
</g>
<g id="xtick23">
<text style="font-size: 12.000000; font-family: Bitstream Vera Sans; font-style: Roman; fill: #000000;" x="50.321198" y="179.682509" >0.024</text>
<path style="fill: none; stroke: #000000; stroke-width: 1.000000; stroke-linejoin: miter; stroke-linecap: square;  opacity: 1.000000"  d="M 67.321198,175.182509 L 59.328245,175.518224 "/>
</g>
<g id="xtick24">
<text style="font-size: 12.000000; font-family: Bitstream Vera Sans; font-style: Roman; fill: #000000;" x="49.004625" y="156.173066" >0.026</text>
<path style="fill: none; stroke: #000000; stroke-width: 1.000000; stroke-linejoin: miter; stroke-linecap: square;  opacity: 1.000000"  d="M 66.004625,151.673066 L 58.011672,152.008781 "/>
</g>
<g id="xtick25">
<text style="font-size: 12.000000; font-family: Bitstream Vera Sans; font-style: Roman; fill: #000000;" x="47.672790" y="132.391094" >0.028</text>
<path style="fill: none; stroke: #000000; stroke-width: 1.000000; stroke-linejoin: miter; stroke-linecap: square;  opacity: 1.000000"  d="M 64.672790,127.891094 L 56.679837,128.226810 "/>
</g>
</g>
<g id="axes1">
<g id="regpolycollection1">
<defs>
    <clipPath id="4685744057707115011">
    <rect x="0.000000" y="0.000000" width="576.000000" height="432.000000"
    style="stroke: gray; fill: none;"/>
    </clipPath>
</defs>
<polygon style="fill: #0000ff; stroke: #000000; stroke-width: 1.000000; stroke-linejoin: miter; stroke-linecap: butt;  opacity: 0.656348" clip-path="url(#4685744057707115011)" points = "249.167554,218.147214 249.947245,218.270705 250.650615,218.629090 251.208812,219.187287 251.567196,219.890656 251.690687,220.670347 251.567196,221.450038 251.208812,222.153407 250.650615,222.711604 249.947245,223.069989 249.167554,223.193479 248.387864,223.069989 247.684494,222.711604 247.126297,222.153407 246.767913,221.450038 246.644422,220.670347 246.767913,219.890656 247.126297,219.187287 247.684494,218.629090 248.387864,218.270705"/>
<polygon style="fill: #0000ff; stroke: #000000; stroke-width: 1.000000; stroke-linejoin: miter; stroke-linecap: butt;  opacity: 0.739627" clip-path="url(#4685744057707115011)" points = "78.989720,216.088550 79.769411,216.212041 80.472780,216.570426 81.030977,217.128623 81.389362,217.831992 81.512853,218.611683 81.389362,219.391373 81.030977,220.094743 80.472780,220.652940 79.769411,221.011324 78.989720,221.134815 78.210029,221.011324 77.506660,220.652940 76.948463,220.094743 76.590079,219.391373 76.466588,218.611683 76.590079,217.831992 76.948463,217.128623 77.506660,216.570426 78.210029,216.212041"/>
<polygon style="fill: #0000ff; stroke: #000000; stroke-width: 1.000000; stroke-linejoin: miter; stroke-linecap: butt;  opacity: 0.549874" clip-path="url(#4685744057707115011)" points = "105.562095,304.313663 106.341786,304.437154 107.045155,304.795538 107.603352,305.353735 107.961737,306.057104 108.085228,306.836795 107.961737,307.616486 107.603352,308.319855 107.045155,308.878052 106.341786,309.236437 105.562095,309.359928 104.782404,309.236437 104.079035,308.878052 103.520838,308.319855 103.162454,307.616486 103.038963,306.836795 103.162454,306.057104 103.520838,305.353735 104.079035,304.795538 104.782404,304.437154"/>
<polygon style="fill: #0000ff; stroke: #000000; stroke-width: 1.000000; stroke-linejoin: miter; stroke-linecap: butt;  opacity: 0.535707" clip-path="url(#4685744057707115011)" points = "125.173951,265.101307 125.953642,265.224797 126.657011,265.583182 127.215208,266.141379 127.573593,266.844748 127.697084,267.624439 127.573593,268.404130 127.215208,269.107499 126.657011,269.665696 125.953642,270.024081 125.173951,270.147572 124.394260,270.024081 123.690891,269.665696 123.132694,269.107499 122.774309,268.404130 122.650819,267.624439 122.774309,266.844748 123.132694,266.141379 123.690891,265.583182 124.394260,265.224797"/>
<polygon style="fill: #0000ff; stroke: #000000; stroke-width: 1.000000; stroke-linejoin: miter; stroke-linecap: butt;  opacity: 0.391550" clip-path="url(#4685744057707115011)" points = "185.556093,227.696958 186.335784,227.820449 187.039153,228.178834 187.597350,228.737031 187.955734,229.440400 188.079225,230.220091 187.955734,230.999782 187.597350,231.703151 187.039153,232.261348 186.335784,232.619732 185.556093,232.743223 184.776402,232.619732 184.073033,232.261348 183.514836,231.703151 183.156451,230.999782 183.032960,230.220091 183.156451,229.440400 183.514836,228.737031 184.073033,228.178834 184.776402,227.820449"/>
<polygon style="fill: #0000ff; stroke: #000000; stroke-width: 1.000000; stroke-linejoin: miter; stroke-linecap: butt;  opacity: 0.486441" clip-path="url(#4685744057707115011)" points = "145.679284,252.657530 146.458975,252.781020 147.162344,253.139405 147.720541,253.697602 148.078926,254.400971 148.202416,255.180662 148.078926,255.960353 147.720541,256.663722 147.162344,257.221919 146.458975,257.580304 145.679284,257.703795 144.899593,257.580304 144.196224,257.221919 143.638027,256.663722 143.279642,255.960353 143.156151,255.180662 143.279642,254.400971 143.638027,253.697602 144.196224,253.139405 144.899593,252.781020"/>
<polygon style="fill: #0000ff; stroke: #000000; stroke-width: 1.000000; stroke-linejoin: miter; stroke-linecap: butt;  opacity: 0.438567" clip-path="url(#4685744057707115011)" points = "165.797910,240.064436 166.577601,240.187927 167.280970,240.546311 167.839167,241.104508 168.197551,241.807877 168.321042,242.587568 168.197551,243.367259 167.839167,244.070628 167.280970,244.628825 166.577601,244.987210 165.797910,245.110701 165.018219,244.987210 164.314850,244.628825 163.756653,244.070628 163.398268,243.367259 163.274777,242.587568 163.398268,241.807877 163.756653,241.104508 164.314850,240.546311 165.018219,240.187927"/>
<polygon style="fill: #0000ff; stroke: #000000; stroke-width: 1.000000; stroke-linejoin: miter; stroke-linecap: butt;  opacity: 0.789060" clip-path="url(#4685744057707115011)" points = "132.525124,228.172656 133.304815,228.296147 134.008184,228.654532 134.566381,229.212729 134.924766,229.916098 135.048257,230.695789 134.924766,231.475480 134.566381,232.178849 134.008184,232.737046 133.304815,233.095430 132.525124,233.218921 131.745434,233.095430 131.042064,232.737046 130.483867,232.178849 130.125483,231.475480 130.001992,230.695789 130.125483,229.916098 130.483867,229.212729 131.042064,228.654532 131.745434,228.296147"/>
<polygon style="fill: #0000ff; stroke: #000000; stroke-width: 1.000000; stroke-linejoin: miter; stroke-linecap: butt;  opacity: 0.345369" clip-path="url(#4685744057707115011)" points = "204.963433,215.549088 205.743124,215.672579 206.446493,216.030963 207.004690,216.589160 207.363075,217.292529 207.486566,218.072220 207.363075,218.851911 207.004690,219.555280 206.446493,220.113477 205.743124,220.471862 204.963433,220.595353 204.183742,220.471862 203.480373,220.113477 202.922176,219.555280 202.563792,218.851911 202.440301,218.072220 202.563792,217.292529 202.922176,216.589160 203.480373,216.030963 204.183742,215.672579"/>
<polygon style="fill: #0000ff; stroke: #000000; stroke-width: 1.000000; stroke-linejoin: miter; stroke-linecap: butt;  opacity: 0.300000" clip-path="url(#4685744057707115011)" points = "224.029194,203.615026 224.808885,203.738517 225.512254,204.096902 226.070451,204.655099 226.428836,205.358468 226.552327,206.138159 226.428836,206.917850 226.070451,207.621219 225.512254,208.179416 224.808885,208.537801 224.029194,208.661292 223.249503,208.537801 222.546134,208.179416 221.987937,207.621219 221.629552,206.917850 221.506061,206.138159 221.629552,205.358468 221.987937,204.655099 222.546134,204.096902 223.249503,203.738517"/>
<polygon style="fill: #0000ff; stroke: #000000; stroke-width: 1.000000; stroke-linejoin: miter; stroke-linecap: butt;  opacity: 0.610093" clip-path="url(#4685744057707115011)" points = "157.118464,306.458001 157.898155,306.581492 158.601524,306.939877 159.159721,307.498074 159.518106,308.201443 159.641597,308.981134 159.518106,309.760825 159.159721,310.464194 158.601524,311.022391 157.898155,311.380775 157.118464,311.504266 156.338773,311.380775 155.635404,311.022391 155.077207,310.464194 154.718823,309.760825 154.595332,308.981134 154.718823,308.201443 155.077207,307.498074 155.635404,306.939877 156.338773,306.581492"/>
<polygon style="fill: #0000ff; stroke: #000000; stroke-width: 1.000000; stroke-linejoin: miter; stroke-linecap: butt;  opacity: 0.611480" clip-path="url(#4685744057707115011)" points = "176.462937,255.097850 177.242627,255.221341 177.945997,255.579725 178.504194,256.137922 178.862578,256.841291 178.986069,257.620982 178.862578,258.400673 178.504194,259.104042 177.945997,259.662239 177.242627,260.020624 176.462937,260.144115 175.683246,260.020624 174.979876,259.662239 174.421679,259.104042 174.063295,258.400673 173.939804,257.620982 174.063295,256.841291 174.421679,256.137922 174.979876,255.579725 175.683246,255.221341"/>
<polygon style="fill: #0000ff; stroke: #000000; stroke-width: 1.000000; stroke-linejoin: miter; stroke-linecap: butt;  opacity: 0.562121" clip-path="url(#4685744057707115011)" points = "196.752774,241.596348 197.532465,241.719839 198.235834,242.078224 198.794031,242.636421 199.152415,243.339790 199.275906,244.119481 199.152415,244.899171 198.794031,245.602541 198.235834,246.160738 197.532465,246.519122 196.752774,246.642613 195.973083,246.519122 195.269714,246.160738 194.711517,245.602541 194.353132,244.899171 194.229641,244.119481 194.353132,243.339790 194.711517,242.636421 195.269714,242.078224 195.973083,241.719839"/>
<polygon style="fill: #0000ff; stroke: #000000; stroke-width: 1.000000; stroke-linejoin: miter; stroke-linecap: butt;  opacity: 0.512876" clip-path="url(#4685744057707115011)" points = "216.688055,228.926358 217.467745,229.049849 218.171115,229.408233 218.729312,229.966430 219.087696,230.669799 219.211187,231.449490 219.087696,232.229181 218.729312,232.932550 218.171115,233.490747 217.467745,233.849132 216.688055,233.972623 215.908364,233.849132 215.204995,233.490747 214.646798,232.932550 214.288413,232.229181 214.164922,231.449490 214.288413,230.669799 214.646798,229.966430 215.204995,229.408233 215.908364,229.049849"/>
<polygon style="fill: #0000ff; stroke: #000000; stroke-width: 1.000000; stroke-linejoin: miter; stroke-linecap: butt;  opacity: 0.464525" clip-path="url(#4685744057707115011)" points = "236.261167,216.486546 237.040858,216.610037 237.744227,216.968421 238.302424,217.526618 238.660808,218.229988 238.784299,219.009678 238.660808,219.789369 238.302424,220.492738 237.744227,221.050935 237.040858,221.409320 236.261167,221.532811 235.481476,221.409320 234.778107,221.050935 234.219910,220.492738 233.861525,219.789369 233.738034,219.009678 233.861525,218.229988 234.219910,217.526618 234.778107,216.968421 235.481476,216.610037"/>
<polygon style="fill: #0000ff; stroke: #000000; stroke-width: 1.000000; stroke-linejoin: miter; stroke-linecap: butt;  opacity: 0.839381" clip-path="url(#4685744057707115011)" points = "187.022820,240.473973 187.802511,240.597463 188.505880,240.955848 189.064077,241.514045 189.422462,242.217414 189.545952,242.997105 189.422462,243.776796 189.064077,244.480165 188.505880,245.038362 187.802511,245.396747 187.022820,245.520238 186.243129,245.396747 185.539760,245.038362 184.981563,244.480165 184.623178,243.776796 184.499687,242.997105 184.623178,242.217414 184.981563,241.514045 185.539760,240.955848 186.243129,240.597463"/>
<polygon style="fill: #0000ff; stroke: #000000; stroke-width: 1.000000; stroke-linejoin: miter; stroke-linecap: butt;  opacity: 0.417044" clip-path="url(#4685744057707115011)" points = "255.481891,204.270697 256.261581,204.394187 256.964951,204.752572 257.523148,205.310769 257.881532,206.014138 258.005023,206.793829 257.881532,207.573520 257.523148,208.276889 256.964951,208.835086 256.261581,209.193471 255.481891,209.316962 254.702200,209.193471 253.998830,208.835086 253.440633,208.276889 253.082249,207.573520 252.958758,206.793829 253.082249,206.014138 253.440633,205.310769 253.998830,204.752572 254.702200,204.394187"/>
<polygon style="fill: #0000ff; stroke: #000000; stroke-width: 1.000000; stroke-linejoin: miter; stroke-linecap: butt;  opacity: 0.370411" clip-path="url(#4685744057707115011)" points = "274.359658,192.272815 275.139348,192.396306 275.842718,192.754691 276.400915,193.312888 276.759299,194.016257 276.882790,194.795948 276.759299,195.575639 276.400915,196.279008 275.842718,196.837205 275.139348,197.195590 274.359658,197.319081 273.579967,197.195590 272.876598,196.837205 272.318401,196.279008 271.960016,195.575639 271.836525,194.795948 271.960016,194.016257 272.318401,193.312888 272.876598,192.754691 273.579967,192.396306"/>
<polygon style="fill: #0000ff; stroke: #000000; stroke-width: 1.000000; stroke-linejoin: miter; stroke-linecap: butt;  opacity: 0.669139" clip-path="url(#4685744057707115011)" points = "209.886353,310.480119 210.666044,310.603610 211.369413,310.961995 211.927610,311.520192 212.285995,312.223561 212.409486,313.003252 212.285995,313.782943 211.927610,314.486312 211.369413,315.044509 210.666044,315.402894 209.886353,315.526385 209.106663,315.402894 208.403293,315.044509 207.845096,314.486312 207.486712,313.782943 207.363221,313.003252 207.486712,312.223561 207.845096,311.520192 208.403293,310.961995 209.106663,310.603610"/>
<polygon style="fill: #0000ff; stroke: #000000; stroke-width: 1.000000; stroke-linejoin: miter; stroke-linecap: butt;  opacity: 0.708678" clip-path="url(#4685744057707115011)" points = "228.993891,230.781976 229.773581,230.905467 230.476951,231.263851 231.035148,231.822048 231.393532,232.525417 231.517023,233.305108 231.393532,234.084799 231.035148,234.788168 230.476951,235.346365 229.773581,235.704750 228.993891,235.828241 228.214200,235.704750 227.510831,235.346365 226.952634,234.788168 226.594249,234.084799 226.470758,233.305108 226.594249,232.525417 226.952634,231.822048 227.510831,231.263851 228.214200,230.905467"/>
<polygon style="fill: #0000ff; stroke: #000000; stroke-width: 1.000000; stroke-linejoin: miter; stroke-linecap: butt;  opacity: 0.656348" clip-path="url(#4685744057707115011)" points = "249.167554,218.147214 249.947245,218.270705 250.650615,218.629090 251.208812,219.187287 251.567196,219.890656 251.690687,220.670347 251.567196,221.450038 251.208812,222.153407 250.650615,222.711604 249.947245,223.069989 249.167554,223.193479 248.387864,223.069989 247.684494,222.711604 247.126297,222.153407 246.767913,221.450038 246.644422,220.670347 246.767913,219.890656 247.126297,219.187287 247.684494,218.629090 248.387864,218.270705"/>
<polygon style="fill: #0000ff; stroke: #000000; stroke-width: 1.000000; stroke-linejoin: miter; stroke-linecap: butt;  opacity: 0.605368" clip-path="url(#4685744057707115011)" points = "268.960409,205.475756 269.740100,205.599247 270.443469,205.957632 271.001666,206.515829 271.360050,207.219198 271.483541,207.998889 271.360050,208.778580 271.001666,209.481949 270.443469,210.040146 269.740100,210.398530 268.960409,210.522021 268.180718,210.398530 267.477349,210.040146 266.919152,209.481949 266.560767,208.778580 266.437276,207.998889 266.560767,207.219198 266.919152,206.515829 267.477349,205.957632 268.180718,205.599247"/>
<polygon style="fill: #0000ff; stroke: #000000; stroke-width: 1.000000; stroke-linejoin: miter; stroke-linecap: butt;  opacity: 0.890615" clip-path="url(#4685744057707115011)" points = "242.508988,252.998409 243.288679,253.121899 243.992048,253.480284 244.550245,254.038481 244.908629,254.741850 245.032120,255.521541 244.908629,256.301232 244.550245,257.004601 243.992048,257.562798 243.288679,257.921183 242.508988,258.044674 241.729297,257.921183 241.025928,257.562798 240.467731,257.004601 240.109346,256.301232 239.985855,255.521541 240.109346,254.741850 240.467731,254.038481 241.025928,253.480284 241.729297,253.121899"/>
<polygon style="fill: #0000ff; stroke: #000000; stroke-width: 1.000000; stroke-linejoin: miter; stroke-linecap: butt;  opacity: 0.555330" clip-path="url(#4685744057707115011)" points = "288.387491,193.038467 289.167182,193.161958 289.870551,193.520342 290.428748,194.078539 290.787133,194.781908 290.910624,195.561599 290.787133,196.341290 290.428748,197.044659 289.870551,197.602856 289.167182,197.961241 288.387491,198.084732 287.607801,197.961241 286.904431,197.602856 286.346234,197.044659 285.987850,196.341290 285.864359,195.561599 285.987850,194.781908 286.346234,194.078539 286.904431,193.520342 287.607801,193.161958"/>
<polygon style="fill: #0000ff; stroke: #000000; stroke-width: 1.000000; stroke-linejoin: miter; stroke-linecap: butt;  opacity: 0.506208" clip-path="url(#4685744057707115011)" points = "307.458848,180.828914 308.238539,180.952405 308.941909,181.310789 309.500106,181.868986 309.858490,182.572355 309.981981,183.352046 309.858490,184.131737 309.500106,184.835106 308.941909,185.393303 308.238539,185.751688 307.458848,185.875179 306.679158,185.751688 305.975788,185.393303 305.417591,184.835106 305.059207,184.131737 304.935716,183.352046 305.059207,182.572355 305.417591,181.868986 305.975788,181.310789 306.679158,180.952405"/>
<polygon style="fill: #0000ff; stroke: #000000; stroke-width: 1.000000; stroke-linejoin: miter; stroke-linecap: butt;  opacity: 0.457978" clip-path="url(#4685744057707115011)" points = "326.184162,168.840899 326.963853,168.964390 327.667222,169.322775 328.225419,169.880972 328.583804,170.584341 328.707294,171.364032 328.583804,172.143722 328.225419,172.847092 327.667222,173.405289 326.963853,173.763673 326.184162,173.887164 325.404471,173.763673 324.701102,173.405289 324.142905,172.847092 323.784520,172.143722 323.661029,171.364032 323.784520,170.584341 324.142905,169.880972 324.701102,169.322775 325.404471,168.964390"/>
<polygon style="fill: #0000ff; stroke: #000000; stroke-width: 1.000000; stroke-linejoin: miter; stroke-linecap: butt;  opacity: 0.717318" clip-path="url(#4685744057707115011)" points = "263.886808,323.239399 264.666499,323.362890 265.369868,323.721274 265.928065,324.279471 266.286450,324.982840 266.409941,325.762531 266.286450,326.542222 265.928065,327.245591 265.369868,327.803788 264.666499,328.162173 263.886808,328.285664 263.107117,328.162173 262.403748,327.803788 261.845551,327.245591 261.487166,326.542222 261.363675,325.762531 261.487166,324.982840 261.845551,324.279471 262.403748,323.721274 263.107117,323.362890"/>
<polygon style="fill: #0000ff; stroke: #000000; stroke-width: 1.000000; stroke-linejoin: miter; stroke-linecap: butt;  opacity: 0.832439" clip-path="url(#4685744057707115011)" points = "283.392275,189.005523 284.171966,189.129014 284.875335,189.487398 285.433532,190.045595 285.791917,190.748965 285.915408,191.528655 285.791917,192.308346 285.433532,193.011715 284.875335,193.569912 284.171966,193.928297 283.392275,194.051788 282.612584,193.928297 281.909215,193.569912 281.351018,193.011715 280.992633,192.308346 280.869143,191.528655 280.992633,190.748965 281.351018,190.045595 281.909215,189.487398 282.612584,189.129014"/>
<polygon style="fill: #0000ff; stroke: #000000; stroke-width: 1.000000; stroke-linejoin: miter; stroke-linecap: butt;  opacity: 0.942786" clip-path="url(#4685744057707115011)" points = "299.010767,265.752090 299.790458,265.875581 300.493827,266.233966 301.052024,266.792163 301.410409,267.495532 301.533900,268.275223 301.410409,269.054914 301.052024,269.758283 300.493827,270.316480 299.790458,270.674864 299.010767,270.798355 298.231076,270.674864 297.527707,270.316480 296.969510,269.758283 296.611126,269.054914 296.487635,268.275223 296.611126,267.495532 296.969510,266.792163 297.527707,266.233966 298.231076,265.875581"/>
<polygon style="fill: #0000ff; stroke: #000000; stroke-width: 1.000000; stroke-linejoin: miter; stroke-linecap: butt;  opacity: 0.781984" clip-path="url(#4685744057707115011)" points = "303.492526,173.405118 304.272217,173.528609 304.975586,173.886994 305.533783,174.445191 305.892168,175.148560 306.015659,175.928251 305.892168,176.707942 305.533783,177.411311 304.975586,177.969508 304.272217,178.327892 303.492526,178.451383 302.712835,178.327892 302.009466,177.969508 301.451269,177.411311 301.092884,176.707942 300.969394,175.928251 301.092884,175.148560 301.451269,174.445191 302.009466,173.886994 302.712835,173.528609"/>
<polygon style="fill: #0000ff; stroke: #000000; stroke-width: 1.000000; stroke-linejoin: miter; stroke-linecap: butt;  opacity: 0.728645" clip-path="url(#4685744057707115011)" points = "323.217772,160.871975 323.997463,160.995466 324.700832,161.353851 325.259029,161.912048 325.617414,162.615417 325.740905,163.395108 325.617414,164.174799 325.259029,164.878168 324.700832,165.436365 323.997463,165.794749 323.217772,165.918240 322.438082,165.794749 321.734712,165.436365 321.176515,164.878168 320.818131,164.174799 320.694640,163.395108 320.818131,162.615417 321.176515,161.912048 321.734712,161.353851 322.438082,160.995466"/>
<polygon style="fill: #0000ff; stroke: #000000; stroke-width: 1.000000; stroke-linejoin: miter; stroke-linecap: butt;  opacity: 0.676314" clip-path="url(#4685744057707115011)" points = "342.570276,148.575667 343.349967,148.699158 344.053337,149.057543 344.611534,149.615740 344.969918,150.319109 345.093409,151.098800 344.969918,151.878491 344.611534,152.581860 344.053337,153.140057 343.349967,153.498442 342.570276,153.621932 341.790586,153.498442 341.087216,153.140057 340.529019,152.581860 340.170635,151.878491 340.047144,151.098800 340.170635,150.319109 340.529019,149.615740 341.087216,149.057543 341.790586,148.699158"/>
<polygon style="fill: #0000ff; stroke: #000000; stroke-width: 1.000000; stroke-linejoin: miter; stroke-linecap: butt;  opacity: 0.624962" clip-path="url(#4685744057707115011)" points = "361.560505,136.509544 362.340196,136.633035 363.043565,136.991420 363.601762,137.549617 363.960147,138.252986 364.083638,139.032677 363.960147,139.812368 363.601762,140.515737 363.043565,141.073934 362.340196,141.432318 361.560505,141.555809 360.780814,141.432318 360.077445,141.073934 359.519248,140.515737 359.160863,139.812368 359.037373,139.032677 359.160863,138.252986 359.519248,137.549617 360.077445,136.991420 360.780814,136.633035"/>
<polygon style="fill: #0000ff; stroke: #000000; stroke-width: 1.000000; stroke-linejoin: miter; stroke-linecap: butt;  opacity: 0.574563" clip-path="url(#4685744057707115011)" points = "380.198536,124.667202 380.978227,124.790693 381.681596,125.149078 382.239793,125.707275 382.598178,126.410644 382.721669,127.190335 382.598178,127.970026 382.239793,128.673395 381.681596,129.231592 380.978227,129.589977 380.198536,129.713467 379.418846,129.589977 378.715476,129.231592 378.157279,128.673395 377.798895,127.970026 377.675404,127.190335 377.798895,126.410644 378.157279,125.707275 378.715476,125.149078 379.418846,124.790693"/>
<polygon style="fill: #0000ff; stroke: #000000; stroke-width: 1.000000; stroke-linejoin: miter; stroke-linecap: butt;  opacity: 0.766352" clip-path="url(#4685744057707115011)" points = "318.845366,336.225059 319.625057,336.348550 320.328426,336.706935 320.886623,337.265132 321.245007,337.968501 321.368498,338.748192 321.245007,339.527883 320.886623,340.231252 320.328426,340.789449 319.625057,341.147834 318.845366,341.271324 318.065675,341.147834 317.362306,340.789449 316.804109,340.231252 316.445724,339.527883 316.322233,338.748192 316.445724,337.968501 316.804109,337.265132 317.362306,336.706935 318.065675,336.348550"/>
<polygon style="fill: #0000ff; stroke: #000000; stroke-width: 1.000000; stroke-linejoin: miter; stroke-linecap: butt;  opacity: 0.908290" clip-path="url(#4685744057707115011)" points = "339.873307,183.442739 340.652998,183.566230 341.356367,183.924615 341.914564,184.482812 342.272948,185.186181 342.396439,185.965872 342.272948,186.745563 341.914564,187.448932 341.356367,188.007129 340.652998,188.365513 339.873307,188.489004 339.093616,188.365513 338.390247,188.007129 337.832050,187.448932 337.473665,186.745563 337.350174,185.965872 337.473665,185.186181 337.832050,184.482812 338.390247,183.924615 339.093616,183.566230"/>
<polygon style="fill: #0000ff; stroke: #000000; stroke-width: 1.000000; stroke-linejoin: miter; stroke-linecap: butt;  opacity: 0.854690" clip-path="url(#4685744057707115011)" points = "359.709388,168.971197 360.489079,169.094688 361.192448,169.453073 361.750645,170.011270 362.109030,170.714639 362.232521,171.494330 362.109030,172.274020 361.750645,172.977390 361.192448,173.535587 360.489079,173.893971 359.709388,174.017462 358.929697,173.893971 358.226328,173.535587 357.668131,172.977390 357.309747,172.274020 357.186256,171.494330 357.309747,170.714639 357.668131,170.011270 358.226328,169.453073 358.929697,169.094688"/>
<polygon style="fill: #0000ff; stroke: #000000; stroke-width: 1.000000; stroke-linejoin: miter; stroke-linecap: butt;  opacity: 0.995922" clip-path="url(#4685744057707115011)" points = "356.556300,278.741370 357.335991,278.864861 358.039360,279.223245 358.597557,279.781442 358.955942,280.484811 359.079433,281.264502 358.955942,282.044193 358.597557,282.747562 358.039360,283.305759 357.335991,283.664144 356.556300,283.787635 355.776609,283.664144 355.073240,283.305759 354.515043,282.747562 354.156659,282.044193 354.033168,281.264502 354.156659,280.484811 354.515043,279.781442 355.073240,279.223245 355.776609,278.864861"/>
<polygon style="fill: #0000ff; stroke: #000000; stroke-width: 1.000000; stroke-linejoin: miter; stroke-linecap: butt;  opacity: 0.799962" clip-path="url(#4685744057707115011)" points = "379.145495,156.319511 379.925186,156.443002 380.628555,156.801386 381.186752,157.359583 381.545137,158.062953 381.668628,158.842643 381.545137,159.622334 381.186752,160.325704 380.628555,160.883901 379.925186,161.242285 379.145495,161.365776 378.365804,161.242285 377.662435,160.883901 377.104238,160.325704 376.745854,159.622334 376.622363,158.842643 376.745854,158.062953 377.104238,157.359583 377.662435,156.801386 378.365804,156.443002"/>
<polygon style="fill: #0000ff; stroke: #000000; stroke-width: 1.000000; stroke-linejoin: miter; stroke-linecap: butt;  opacity: 0.746281" clip-path="url(#4685744057707115011)" points = "398.209640,143.909949 398.989331,144.033440 399.692700,144.391824 400.250897,144.950021 400.609282,145.653391 400.732773,146.433081 400.609282,147.212772 400.250897,147.916141 399.692700,148.474338 398.989331,148.832723 398.209640,148.956214 397.429949,148.832723 396.726580,148.474338 396.168383,147.916141 395.809999,147.212772 395.686508,146.433081 395.809999,145.653391 396.168383,144.950021 396.726580,144.391824 397.429949,144.033440"/>
<polygon style="fill: #0000ff; stroke: #000000; stroke-width: 1.000000; stroke-linejoin: miter; stroke-linecap: butt;  opacity: 0.693618" clip-path="url(#4685744057707115011)" points = "416.912399,131.735626 417.692090,131.859117 418.395459,132.217502 418.953656,132.775699 419.312041,133.479068 419.435532,134.258759 419.312041,135.038450 418.953656,135.741819 418.395459,136.300016 417.692090,136.658400 416.912399,136.781891 416.132708,136.658400 415.429339,136.300016 414.871142,135.741819 414.512758,135.038450 414.389267,134.258759 414.512758,133.479068 414.871142,132.775699 415.429339,132.217502 416.132708,131.859117"/>
<polygon style="fill: #0000ff; stroke: #000000; stroke-width: 1.000000; stroke-linejoin: miter; stroke-linecap: butt;  opacity: 0.838723" clip-path="url(#4685744057707115011)" points = "375.103116,333.864427 375.882806,333.987918 376.586176,334.346302 377.144373,334.904499 377.502757,335.607869 377.626248,336.387559 377.502757,337.167250 377.144373,337.870619 376.586176,338.428816 375.882806,338.787201 375.103116,338.910692 374.323425,338.787201 373.620055,338.428816 373.061858,337.870619 372.703474,337.167250 372.579983,336.387559 372.703474,335.607869 373.061858,334.904499 373.620055,334.346302 374.323425,333.987918"/>
<polygon style="fill: #0000ff; stroke: #000000; stroke-width: 1.000000; stroke-linejoin: miter; stroke-linecap: butt;  opacity: 0.641944" clip-path="url(#4685744057707115011)" points = "435.263952,119.789917 436.043643,119.913408 436.747012,120.271792 437.305209,120.829989 437.663594,121.533358 437.787085,122.313049 437.663594,123.092740 437.305209,123.796109 436.747012,124.354306 436.043643,124.712691 435.263952,124.836182 434.484261,124.712691 433.780892,124.354306 433.222695,123.796109 432.864311,123.092740 432.740820,122.313049 432.864311,121.533358 433.222695,120.829989 433.780892,120.271792 434.484261,119.913408"/>
<polygon style="fill: #0000ff; stroke: #000000; stroke-width: 1.000000; stroke-linejoin: miter; stroke-linecap: butt;  opacity: 1.000000" clip-path="url(#4685744057707115011)" points = "398.136547,168.032530 398.916237,168.156021 399.619607,168.514405 400.177804,169.072602 400.536188,169.775972 400.659679,170.555663 400.536188,171.335353 400.177804,172.038723 399.619607,172.596920 398.916237,172.955304 398.136547,173.078795 397.356856,172.955304 396.653486,172.596920 396.095289,172.038723 395.736905,171.335353 395.613414,170.555663 395.736905,169.775972 396.095289,169.072602 396.653486,168.514405 397.356856,168.156021"/>
<polygon style="fill: #0000ff; stroke: #000000; stroke-width: 1.000000; stroke-linejoin: miter; stroke-linecap: butt;  opacity: 0.944138" clip-path="url(#4685744057707115011)" points = "417.721530,153.861232 418.501221,153.984723 419.204590,154.343108 419.762787,154.901305 420.121172,155.604674 420.244663,156.384365 420.121172,157.164055 419.762787,157.867425 419.204590,158.425622 418.501221,158.784006 417.721530,158.907497 416.941839,158.784006 416.238470,158.425622 415.680273,157.867425 415.321889,157.164055 415.198398,156.384365 415.321889,155.604674 415.680273,154.901305 416.238470,154.343108 416.941839,153.984723"/>
<polygon style="fill: #0000ff; stroke: #000000; stroke-width: 1.000000; stroke-linejoin: miter; stroke-linecap: butt;  opacity: 0.832312" clip-path="url(#4685744057707115011)" points = "455.690491,128.705596 456.470182,128.829087 457.173552,129.187471 457.731749,129.745668 458.090133,130.449037 458.213624,131.228728 458.090133,132.008419 457.731749,132.711788 457.173552,133.269985 456.470182,133.628370 455.690491,133.751861 454.910801,133.628370 454.207431,133.269985 453.649234,132.711788 453.290850,132.008419 453.167359,131.228728 453.290850,130.449037 453.649234,129.745668 454.207431,129.187471 454.910801,128.829087"/>
<polygon style="fill: #0000ff; stroke: #000000; stroke-width: 1.000000; stroke-linejoin: miter; stroke-linecap: butt;  opacity: 0.887676" clip-path="url(#4685744057707115011)" points = "436.892293,141.159996 437.671984,141.283487 438.375353,141.641871 438.933550,142.200068 439.291935,142.903438 439.415426,143.683128 439.291935,144.462819 438.933550,145.166189 438.375353,145.724386 437.671984,146.082770 436.892293,146.206261 436.112602,146.082770 435.409233,145.724386 434.851036,145.166189 434.492652,144.462819 434.369161,143.683128 434.492652,142.903438 434.851036,142.200068 435.409233,141.641871 436.112602,141.283487"/>
<polygon style="fill: #0000ff; stroke: #000000; stroke-width: 1.000000; stroke-linejoin: miter; stroke-linecap: butt;  opacity: 0.724749" clip-path="url(#4685744057707115011)" points = "492.211808,104.509070 492.991499,104.632561 493.694868,104.990945 494.253065,105.549142 494.611449,106.252512 494.734940,107.032202 494.611449,107.811893 494.253065,108.515262 493.694868,109.073459 492.991499,109.431844 492.211808,109.555335 491.432117,109.431844 490.728748,109.073459 490.170551,108.515262 489.812166,107.811893 489.688675,107.032202 489.812166,106.252512 490.170551,105.549142 490.728748,104.990945 491.432117,104.632561"/>
<polygon style="fill: #0000ff; stroke: #000000; stroke-width: 1.000000; stroke-linejoin: miter; stroke-linecap: butt;  opacity: 0.778013" clip-path="url(#4685744057707115011)" points = "474.126881,116.490905 474.906572,116.614396 475.609941,116.972781 476.168138,117.530978 476.526523,118.234347 476.650013,119.014038 476.526523,119.793729 476.168138,120.497098 475.609941,121.055295 474.906572,121.413679 474.126881,121.537170 473.347190,121.413679 472.643821,121.055295 472.085624,120.497098 471.727239,119.793729 471.603748,119.014038 471.727239,118.234347 472.085624,117.530978 472.643821,116.972781 473.347190,116.614396"/>
<polygon style="fill: #0000ff; stroke: #000000; stroke-width: 1.000000; stroke-linejoin: miter; stroke-linecap: butt;  opacity: 0.486441" clip-path="url(#4685744057707115011)" points = "145.679284,252.657530 146.458975,252.781020 147.162344,253.139405 147.720541,253.697602 148.078926,254.400971 148.202416,255.180662 148.078926,255.960353 147.720541,256.663722 147.162344,257.221919 146.458975,257.580304 145.679284,257.703795 144.899593,257.580304 144.196224,257.221919 143.638027,256.663722 143.279642,255.960353 143.156151,255.180662 143.279642,254.400971 143.638027,253.697602 144.196224,253.139405 144.899593,252.781020"/>
<polygon style="fill: #0000ff; stroke: #000000; stroke-width: 1.000000; stroke-linejoin: miter; stroke-linecap: butt;  opacity: 0.562121" clip-path="url(#4685744057707115011)" points = "196.752774,241.596348 197.532465,241.719839 198.235834,242.078224 198.794031,242.636421 199.152415,243.339790 199.275906,244.119481 199.152415,244.899171 198.794031,245.602541 198.235834,246.160738 197.532465,246.519122 196.752774,246.642613 195.973083,246.519122 195.269714,246.160738 194.711517,245.602541 194.353132,244.899171 194.229641,244.119481 194.353132,243.339790 194.711517,242.636421 195.269714,242.078224 195.973083,241.719839"/>
<polygon style="fill: #0000ff; stroke: #000000; stroke-width: 1.000000; stroke-linejoin: miter; stroke-linecap: butt;  opacity: 0.656348" clip-path="url(#4685744057707115011)" points = "249.167554,218.147214 249.947245,218.270705 250.650615,218.629090 251.208812,219.187287 251.567196,219.890656 251.690687,220.670347 251.567196,221.450038 251.208812,222.153407 250.650615,222.711604 249.947245,223.069989 249.167554,223.193479 248.387864,223.069989 247.684494,222.711604 247.126297,222.153407 246.767913,221.450038 246.644422,220.670347 246.767913,219.890656 247.126297,219.187287 247.684494,218.629090 248.387864,218.270705"/>
<polygon style="fill: #0000ff; stroke: #000000; stroke-width: 1.000000; stroke-linejoin: miter; stroke-linecap: butt;  opacity: 0.781984" clip-path="url(#4685744057707115011)" points = "303.492526,173.405118 304.272217,173.528609 304.975586,173.886994 305.533783,174.445191 305.892168,175.148560 306.015659,175.928251 305.892168,176.707942 305.533783,177.411311 304.975586,177.969508 304.272217,178.327892 303.492526,178.451383 302.712835,178.327892 302.009466,177.969508 301.451269,177.411311 301.092884,176.707942 300.969394,175.928251 301.092884,175.148560 301.451269,174.445191 302.009466,173.886994 302.712835,173.528609"/>
<polygon style="fill: #0000ff; stroke: #000000; stroke-width: 1.000000; stroke-linejoin: miter; stroke-linecap: butt;  opacity: 0.854690" clip-path="url(#4685744057707115011)" points = "359.709388,168.971197 360.489079,169.094688 361.192448,169.453073 361.750645,170.011270 362.109030,170.714639 362.232521,171.494330 362.109030,172.274020 361.750645,172.977390 361.192448,173.535587 360.489079,173.893971 359.709388,174.017462 358.929697,173.893971 358.226328,173.535587 357.668131,172.977390 357.309747,172.274020 357.186256,171.494330 357.309747,170.714639 357.668131,170.011270 358.226328,169.453073 358.929697,169.094688"/>
<polygon style="fill: #0000ff; stroke: #000000; stroke-width: 1.000000; stroke-linejoin: miter; stroke-linecap: butt;  opacity: 0.944138" clip-path="url(#4685744057707115011)" points = "417.721530,153.861232 418.501221,153.984723 419.204590,154.343108 419.762787,154.901305 420.121172,155.604674 420.244663,156.384365 420.121172,157.164055 419.762787,157.867425 419.204590,158.425622 418.501221,158.784006 417.721530,158.907497 416.941839,158.784006 416.238470,158.425622 415.680273,157.867425 415.321889,157.164055 415.198398,156.384365 415.321889,155.604674 415.680273,154.901305 416.238470,154.343108 416.941839,153.984723"/>
<polygon style="fill: #0000ff; stroke: #000000; stroke-width: 1.000000; stroke-linejoin: miter; stroke-linecap: butt;  opacity: 0.535707" clip-path="url(#4685744057707115011)" points = "125.173951,265.101307 125.953642,265.224797 126.657011,265.583182 127.215208,266.141379 127.573593,266.844748 127.697084,267.624439 127.573593,268.404130 127.215208,269.107499 126.657011,269.665696 125.953642,270.024081 125.173951,270.147572 124.394260,270.024081 123.690891,269.665696 123.132694,269.107499 122.774309,268.404130 122.650819,267.624439 122.774309,266.844748 123.132694,266.141379 123.690891,265.583182 124.394260,265.224797"/>
</g>
<g id="matplotlib.axis1">
</g>
<g id="matplotlib.axis2">
</g>
</g>
</g>
</svg>
