<?xml version="1.0" standalone="no"?>
<!DOCTYPE svg PUBLIC "-//W3C//DTD SVG 1.1//EN"
  "http://www.w3.org/Graphics/SVG/1.1/DTD/svg11.dtd">
<!-- Created with matplotlib (http://matplotlib.sourceforge.net/) -->
<svg width="576" height="432" viewBox="0 0 576 432"
   xmlns="http://www.w3.org/2000/svg"
   xmlns:xlink="http://www.w3.org/1999/xlink"
   version="1.1"
   id="svg1">
<g id="figure1">
<polygon style="fill: #ffffff; stroke: #ffffff; stroke-width: 1.000000; stroke-linejoin: miter; stroke-linecap: square;  opacity: 1.000000"  points = "0.000000,432.000000 0.000000,0.000000 576.000000,0.000000 576.000000,432.000000"/>
<polygon style="fill: #ffffff; opacity: 1.000000"  points = "0.000000,432.000000 0.000000,0.000000 576.000000,0.000000 576.000000,432.000000"/>
<g id="axis3d1">
<polygon style="fill: #f2f2f2; stroke: #f2f2f2; stroke-width: 1.000000; stroke-linejoin: miter; stroke-linecap: square;  opacity: 0.100000"  points = "241.211914,230.626613 508.260241,289.840834 519.433224,81.348607 238.467267,28.237352"/>
<path style="fill: none; stroke: #000000; stroke-width: 0.750000; stroke-linejoin: miter; stroke-linecap: square;  opacity: 1.000000"  d="M 76.357701,336.543225 L 357.328625,405.507833 "/>
<text style="font-size: 12.000000; font-family: Bitstream Vera Sans; font-style: Roman; fill: #000000;" x="126.985725" y="379.092411" transform="translate(126.985725,379.092411) rotate(-341.9) translate(-126.985725,-379.092411)">max_snp_mismatch_rate</text>
<g id="linecollection1">
<path style="fill: none; stroke: #e6e6e6; stroke-width: 1.000000; stroke-linejoin: miter; stroke-linecap: butt;  opacity: 1.000000"  d="M 81.730847,337.862069 L 246.335639,231.762727 L 243.846516,29.254197 "/>
<path style="fill: none; stroke: #e6e6e6; stroke-width: 1.000000; stroke-linejoin: miter; stroke-linecap: butt;  opacity: 1.000000"  d="M 133.806316,350.644048 L 295.959675,242.766161 L 295.968604,39.106883 "/>
<path style="fill: none; stroke: #e6e6e6; stroke-width: 1.000000; stroke-linejoin: miter; stroke-linecap: butt;  opacity: 1.000000"  d="M 186.791666,363.649357 L 346.387419,253.947806 L 348.978075,49.127313 "/>
<path style="fill: none; stroke: #e6e6e6; stroke-width: 1.000000; stroke-linejoin: miter; stroke-linecap: butt;  opacity: 1.000000"  d="M 240.710954,376.883903 L 397.638557,265.312027 L 402.897787,59.319806 "/>
<path style="fill: none; stroke: #e6e6e6; stroke-width: 1.000000; stroke-linejoin: miter; stroke-linecap: butt;  opacity: 1.000000"  d="M 295.589092,390.353800 L 449.733420,276.863332 L 457.751387,69.688832 "/>
<path style="fill: none; stroke: #e6e6e6; stroke-width: 1.000000; stroke-linejoin: miter; stroke-linecap: butt;  opacity: 1.000000"  d="M 351.451887,404.065382 L 502.693018,288.606380 L 513.563349,80.239019 "/>
</g>
<g id="xtick1">
<text style="font-size: 12.000000; font-family: Bitstream Vera Sans; font-style: Roman; fill: #000000;" x="68.730847" y="342.362069" >0.05</text>
<path style="fill: none; stroke: #000000; stroke-width: 1.000000; stroke-linejoin: miter; stroke-linecap: square;  opacity: 1.000000"  d="M 81.730847,337.862069 L 79.242567,345.465257 "/>
</g>
<g id="xtick2">
<text style="font-size: 12.000000; font-family: Bitstream Vera Sans; font-style: Roman; fill: #000000;" x="120.806316" y="355.144048" >0.10</text>
<path style="fill: none; stroke: #000000; stroke-width: 1.000000; stroke-linejoin: miter; stroke-linecap: square;  opacity: 1.000000"  d="M 133.806316,350.644048 L 131.318036,358.247235 "/>
</g>
<g id="xtick3">
<text style="font-size: 12.000000; font-family: Bitstream Vera Sans; font-style: Roman; fill: #000000;" x="173.791666" y="368.149357" >0.15</text>
<path style="fill: none; stroke: #000000; stroke-width: 1.000000; stroke-linejoin: miter; stroke-linecap: square;  opacity: 1.000000"  d="M 186.791666,363.649357 L 184.303386,371.252545 "/>
</g>
<g id="xtick4">
<text style="font-size: 12.000000; font-family: Bitstream Vera Sans; font-style: Roman; fill: #000000;" x="227.710954" y="381.383903" >0.20</text>
<path style="fill: none; stroke: #000000; stroke-width: 1.000000; stroke-linejoin: miter; stroke-linecap: square;  opacity: 1.000000"  d="M 240.710954,376.883903 L 238.222674,384.487091 "/>
</g>
<g id="xtick5">
<text style="font-size: 12.000000; font-family: Bitstream Vera Sans; font-style: Roman; fill: #000000;" x="282.589092" y="394.853800" >0.25</text>
<path style="fill: none; stroke: #000000; stroke-width: 1.000000; stroke-linejoin: miter; stroke-linecap: square;  opacity: 1.000000"  d="M 295.589092,390.353800 L 293.100812,397.956987 "/>
</g>
<g id="xtick6">
<text style="font-size: 12.000000; font-family: Bitstream Vera Sans; font-style: Roman; fill: #000000;" x="338.451887" y="408.565382" >0.30</text>
<path style="fill: none; stroke: #000000; stroke-width: 1.000000; stroke-linejoin: miter; stroke-linecap: square;  opacity: 1.000000"  d="M 351.451887,404.065382 L 348.963607,411.668569 "/>
</g>
</g>
<g id="axis3d2">
<polygon style="fill: #e6e6e6; stroke: #e6e6e6; stroke-width: 1.000000; stroke-linejoin: miter; stroke-linecap: square;  opacity: 0.500000"  points = "76.357701,336.543225 241.211914,230.626613 238.467267,28.237352 64.421350,123.401250"/>
<path style="fill: none; stroke: #000000; stroke-width: 0.750000; stroke-linejoin: miter; stroke-linecap: square;  opacity: 1.000000"  d="M 357.328625,405.507833 L 508.260241,289.840834 "/>
<text style="font-size: 12.000000; font-family: Bitstream Vera Sans; font-style: Roman; fill: #000000;" x="424.901640" y="409.410201" transform="translate(424.901640,409.410201) rotate(-45.6) translate(-424.901640,-409.410201)">max_snp_NA_rate</text>
<g id="linecollection2">
<path style="fill: none; stroke: #e6e6e6; stroke-width: 1.000000; stroke-linejoin: miter; stroke-linecap: butt;  opacity: 1.000000"  d="M 360.586508,403.011142 L 79.904448,334.264487 L 68.180167,121.346024 "/>
<path style="fill: none; stroke: #e6e6e6; stroke-width: 1.000000; stroke-linejoin: miter; stroke-linecap: butt;  opacity: 1.000000"  d="M 386.275008,383.324666 L 107.888616,316.285036 L 97.815435,105.142210 "/>
<path style="fill: none; stroke: #e6e6e6; stroke-width: 1.000000; stroke-linejoin: miter; stroke-linecap: butt;  opacity: 1.000000"  d="M 411.315455,364.134828 L 135.197551,298.739413 L 126.697783,89.350074 "/>
<path style="fill: none; stroke: #e6e6e6; stroke-width: 1.000000; stroke-linejoin: miter; stroke-linecap: butt;  opacity: 1.000000"  d="M 435.732067,345.423067 L 161.855403,281.612103 L 154.855544,73.954124 "/>
<path style="fill: none; stroke: #e6e6e6; stroke-width: 1.000000; stroke-linejoin: miter; stroke-linecap: butt;  opacity: 1.000000"  d="M 459.547871,327.171738 L 187.885180,264.888322 L 182.315648,58.939635 "/>
<path style="fill: none; stroke: #e6e6e6; stroke-width: 1.000000; stroke-linejoin: miter; stroke-linecap: butt;  opacity: 1.000000"  d="M 482.784771,309.364054 L 213.308820,248.553975 L 209.103706,44.292603 "/>
<path style="fill: none; stroke: #e6e6e6; stroke-width: 1.000000; stroke-linejoin: miter; stroke-linecap: butt;  opacity: 1.000000"  d="M 505.463623,291.984033 L 238.147253,232.595617 L 235.244090,29.999704 "/>
</g>
<g id="xtick7">
<text style="font-size: 12.000000; font-family: Bitstream Vera Sans; font-style: Roman; fill: #000000;" x="352.086508" y="407.511142" >0.1</text>
<path style="fill: none; stroke: #000000; stroke-width: 1.000000; stroke-linejoin: miter; stroke-linecap: square;  opacity: 1.000000"  d="M 360.586508,403.011142 L 366.304039,408.606662 "/>
</g>
<g id="xtick8">
<text style="font-size: 12.000000; font-family: Bitstream Vera Sans; font-style: Roman; fill: #000000;" x="377.251570" y="387.824666" >0.2</text>
<path style="fill: none; stroke: #000000; stroke-width: 1.000000; stroke-linejoin: miter; stroke-linecap: square;  opacity: 1.000000"  d="M 386.275008,383.324666 L 391.992538,388.920187 "/>
</g>
<g id="xtick9">
<text style="font-size: 12.000000; font-family: Bitstream Vera Sans; font-style: Roman; fill: #000000;" x="402.315455" y="368.634828" >0.3</text>
<path style="fill: none; stroke: #000000; stroke-width: 1.000000; stroke-linejoin: miter; stroke-linecap: square;  opacity: 1.000000"  d="M 411.315455,364.134828 L 417.032985,369.730348 "/>
</g>
<g id="xtick10">
<text style="font-size: 12.000000; font-family: Bitstream Vera Sans; font-style: Roman; fill: #000000;" x="426.732067" y="349.923067" >0.4</text>
<path style="fill: none; stroke: #000000; stroke-width: 1.000000; stroke-linejoin: miter; stroke-linecap: square;  opacity: 1.000000"  d="M 435.732067,345.423067 L 441.449597,351.018587 "/>
</g>
<g id="xtick11">
<text style="font-size: 12.000000; font-family: Bitstream Vera Sans; font-style: Roman; fill: #000000;" x="450.547871" y="331.671738" >0.5</text>
<path style="fill: none; stroke: #000000; stroke-width: 1.000000; stroke-linejoin: miter; stroke-linecap: square;  opacity: 1.000000"  d="M 459.547871,327.171738 L 465.265401,332.767259 "/>
</g>
<g id="xtick12">
<text style="font-size: 12.000000; font-family: Bitstream Vera Sans; font-style: Roman; fill: #000000;" x="473.784771" y="313.864054" >0.6</text>
<path style="fill: none; stroke: #000000; stroke-width: 1.000000; stroke-linejoin: miter; stroke-linecap: square;  opacity: 1.000000"  d="M 482.784771,309.364054 L 488.502301,314.959575 "/>
</g>
<g id="xtick13">
<text style="font-size: 12.000000; font-family: Bitstream Vera Sans; font-style: Roman; fill: #000000;" x="496.463623" y="296.484033" >0.7</text>
<path style="fill: none; stroke: #000000; stroke-width: 1.000000; stroke-linejoin: miter; stroke-linecap: square;  opacity: 1.000000"  d="M 505.463623,291.984033 L 511.181153,297.579553 "/>
</g>
</g>
<g id="axis3d3">
<polygon style="fill: #f2f2f2; stroke: #f2f2f2; stroke-width: 1.000000; stroke-linejoin: miter; stroke-linecap: square;  opacity: 0.100000"  points = "76.357701,336.543225 357.328625,405.507833 508.260241,289.840834 241.211914,230.626613"/>
<path style="fill: none; stroke: #000000; stroke-width: 0.750000; stroke-linejoin: miter; stroke-linecap: square;  opacity: 1.000000"  d="M 76.357701,336.543225 L 64.421350,123.401250 "/>
<text style="font-size: 12.000000; font-family: Bitstream Vera Sans; font-style: Roman; fill: #000000;" x="43.720486" y="317.641365" transform="translate(43.720486,317.641365) rotate(-92.4) translate(-43.720486,-317.641365)">no_of_total_snps_removed</text>
<g id="linecollection3">
<path style="fill: none; stroke: #e6e6e6; stroke-width: 1.000000; stroke-linejoin: miter; stroke-linecap: butt;  opacity: 1.000000"  d="M 76.131056,332.496136 L 241.159600,226.768965 L 508.472750,285.875342 "/>
<path style="fill: none; stroke: #e6e6e6; stroke-width: 1.000000; stroke-linejoin: miter; stroke-linecap: butt;  opacity: 1.000000"  d="M 74.761295,308.036938 L 240.843595,203.466858 L 509.756781,261.914813 "/>
<path style="fill: none; stroke: #e6e6e6; stroke-width: 1.000000; stroke-linejoin: miter; stroke-linecap: butt;  opacity: 1.000000"  d="M 73.374343,283.270770 L 240.523912,179.893572 L 511.056411,237.663220 "/>
<path style="fill: none; stroke: #e6e6e6; stroke-width: 1.000000; stroke-linejoin: miter; stroke-linecap: butt;  opacity: 1.000000"  d="M 71.969875,258.191816 L 240.200487,156.044348 L 512.371924,213.115229 "/>
<path style="fill: none; stroke: #e6e6e6; stroke-width: 1.000000; stroke-linejoin: miter; stroke-linecap: butt;  opacity: 1.000000"  d="M 70.547556,232.794112 L 239.873254,131.914310 L 513.703614,188.265371 "/>
<path style="fill: none; stroke: #e6e6e6; stroke-width: 1.000000; stroke-linejoin: miter; stroke-linecap: butt;  opacity: 1.000000"  d="M 69.107044,207.071543 L 239.542145,107.498471 L 515.051781,163.108045 "/>
<path style="fill: none; stroke: #e6e6e6; stroke-width: 1.000000; stroke-linejoin: miter; stroke-linecap: butt;  opacity: 1.000000"  d="M 67.647987,181.017835 L 239.207091,82.791721 L 516.416733,137.637508 "/>
<path style="fill: none; stroke: #e6e6e6; stroke-width: 1.000000; stroke-linejoin: miter; stroke-linecap: butt;  opacity: 1.000000"  d="M 66.170026,154.626554 L 238.868021,57.788832 L 517.798785,111.847874 "/>
<path style="fill: none; stroke: #e6e6e6; stroke-width: 1.000000; stroke-linejoin: miter; stroke-linecap: butt;  opacity: 1.000000"  d="M 64.672790,127.891094 L 238.524862,32.484445 L 519.198260,85.733110 "/>
</g>
<g id="xtick14">
<text style="font-size: 12.000000; font-family: Bitstream Vera Sans; font-style: Roman; fill: #000000;" x="73.131056" y="336.996136" >0</text>
<path style="fill: none; stroke: #000000; stroke-width: 1.000000; stroke-linejoin: miter; stroke-linecap: square;  opacity: 1.000000"  d="M 76.131056,332.496136 L 68.138103,332.831851 "/>
</g>
<g id="xtick15">
<text style="font-size: 12.000000; font-family: Bitstream Vera Sans; font-style: Roman; fill: #000000;" x="55.761295" y="312.536938" >10000</text>
<path style="fill: none; stroke: #000000; stroke-width: 1.000000; stroke-linejoin: miter; stroke-linecap: square;  opacity: 1.000000"  d="M 74.761295,308.036938 L 66.768342,308.372654 "/>
</g>
<g id="xtick16">
<text style="font-size: 12.000000; font-family: Bitstream Vera Sans; font-style: Roman; fill: #000000;" x="54.374343" y="287.770770" >20000</text>
<path style="fill: none; stroke: #000000; stroke-width: 1.000000; stroke-linejoin: miter; stroke-linecap: square;  opacity: 1.000000"  d="M 73.374343,283.270770 L 65.381390,283.606485 "/>
</g>
<g id="xtick17">
<text style="font-size: 12.000000; font-family: Bitstream Vera Sans; font-style: Roman; fill: #000000;" x="52.969875" y="262.691816" >30000</text>
<path style="fill: none; stroke: #000000; stroke-width: 1.000000; stroke-linejoin: miter; stroke-linecap: square;  opacity: 1.000000"  d="M 71.969875,258.191816 L 63.976922,258.527531 "/>
</g>
<g id="xtick18">
<text style="font-size: 12.000000; font-family: Bitstream Vera Sans; font-style: Roman; fill: #000000;" x="51.547556" y="237.294112" >40000</text>
<path style="fill: none; stroke: #000000; stroke-width: 1.000000; stroke-linejoin: miter; stroke-linecap: square;  opacity: 1.000000"  d="M 70.547556,232.794112 L 62.554603,233.129827 "/>
</g>
<g id="xtick19">
<text style="font-size: 12.000000; font-family: Bitstream Vera Sans; font-style: Roman; fill: #000000;" x="50.107044" y="211.571543" >50000</text>
<path style="fill: none; stroke: #000000; stroke-width: 1.000000; stroke-linejoin: miter; stroke-linecap: square;  opacity: 1.000000"  d="M 69.107044,207.071543 L 61.114091,207.407258 "/>
</g>
<g id="xtick20">
<text style="font-size: 12.000000; font-family: Bitstream Vera Sans; font-style: Roman; fill: #000000;" x="48.647987" y="185.517835" >60000</text>
<path style="fill: none; stroke: #000000; stroke-width: 1.000000; stroke-linejoin: miter; stroke-linecap: square;  opacity: 1.000000"  d="M 67.647987,181.017835 L 59.655034,181.353551 "/>
</g>
<g id="xtick21">
<text style="font-size: 12.000000; font-family: Bitstream Vera Sans; font-style: Roman; fill: #000000;" x="47.170026" y="159.126554" >70000</text>
<path style="fill: none; stroke: #000000; stroke-width: 1.000000; stroke-linejoin: miter; stroke-linecap: square;  opacity: 1.000000"  d="M 66.170026,154.626554 L 58.177073,154.962269 "/>
</g>
<g id="xtick22">
<text style="font-size: 12.000000; font-family: Bitstream Vera Sans; font-style: Roman; fill: #000000;" x="45.672790" y="132.391094" >80000</text>
<path style="fill: none; stroke: #000000; stroke-width: 1.000000; stroke-linejoin: miter; stroke-linecap: square;  opacity: 1.000000"  d="M 64.672790,127.891094 L 56.679837,128.226810 "/>
</g>
</g>
<g id="axes1">
<g id="regpolycollection1">
<defs>
    <clipPath id="4685744057707115011">
    <rect x="0.000000" y="0.000000" width="576.000000" height="432.000000"
    style="stroke: gray; fill: none;"/>
    </clipPath>
</defs>
<polygon style="fill: #0000ff; stroke: #000000; stroke-width: 1.000000; stroke-linejoin: miter; stroke-linecap: butt;  opacity: 0.819966" clip-path="url(#4685744057707115011)" points = "74.595487,134.279739 75.375178,134.403230 76.078548,134.761614 76.636745,135.319811 76.995129,136.023181 77.118620,136.802871 76.995129,137.582562 76.636745,138.285931 76.078548,138.844128 75.375178,139.202513 74.595487,139.326004 73.815797,139.202513 73.112427,138.844128 72.554230,138.285931 72.195846,137.582562 72.072355,136.802871 72.195846,136.023181 72.554230,135.319811 73.112427,134.761614 73.815797,134.403230"/>
<polygon style="fill: #0000ff; stroke: #000000; stroke-width: 1.000000; stroke-linejoin: miter; stroke-linecap: butt;  opacity: 0.705551" clip-path="url(#4685744057707115011)" points = "105.520227,149.088398 106.299917,149.211889 107.003287,149.570274 107.561484,150.128471 107.919868,150.831840 108.043359,151.611531 107.919868,152.391222 107.561484,153.094591 107.003287,153.652788 106.299917,154.011172 105.520227,154.134663 104.740536,154.011172 104.037166,153.652788 103.478969,153.094591 103.120585,152.391222 102.997094,151.611531 103.120585,150.831840 103.478969,150.128471 104.037166,149.570274 104.740536,149.211889"/>
<polygon style="fill: #0000ff; stroke: #000000; stroke-width: 1.000000; stroke-linejoin: miter; stroke-linecap: butt;  opacity: 0.555032" clip-path="url(#4685744057707115011)" points = "162.140174,127.164681 162.919865,127.288172 163.623234,127.646557 164.181431,128.204754 164.539816,128.908123 164.663307,129.687814 164.539816,130.467505 164.181431,131.170874 163.623234,131.729071 162.919865,132.087456 162.140174,132.210946 161.360483,132.087456 160.657114,131.729071 160.098917,131.170874 159.740533,130.467505 159.617042,129.687814 159.740533,128.908123 160.098917,128.204754 160.657114,127.646557 161.360483,127.288172"/>
<polygon style="fill: #0000ff; stroke: #000000; stroke-width: 1.000000; stroke-linejoin: miter; stroke-linecap: butt;  opacity: 0.488012" clip-path="url(#4685744057707115011)" points = "189.204950,112.585976 189.984641,112.709467 190.688010,113.067851 191.246207,113.626048 191.604592,114.329417 191.728083,115.109108 191.604592,115.888799 191.246207,116.592168 190.688010,117.150365 189.984641,117.508750 189.204950,117.632241 188.425259,117.508750 187.721890,117.150365 187.163693,116.592168 186.805309,115.888799 186.681818,115.109108 186.805309,114.329417 187.163693,113.626048 187.721890,113.067851 188.425259,112.709467"/>
<polygon style="fill: #0000ff; stroke: #000000; stroke-width: 1.000000; stroke-linejoin: miter; stroke-linecap: butt;  opacity: 0.625838" clip-path="url(#4685744057707115011)" points = "134.322144,140.552620 135.101834,140.676111 135.805204,141.034496 136.363401,141.592693 136.721785,142.296062 136.845276,143.075753 136.721785,143.855443 136.363401,144.558813 135.805204,145.117010 135.101834,145.475394 134.322144,145.598885 133.542453,145.475394 132.839083,145.117010 132.280886,144.558813 131.922502,143.855443 131.799011,143.075753 131.922502,142.296062 132.280886,141.592693 132.839083,141.034496 133.542453,140.676111"/>
<polygon style="fill: #0000ff; stroke: #000000; stroke-width: 1.000000; stroke-linejoin: miter; stroke-linecap: butt;  opacity: 0.423307" clip-path="url(#4685744057707115011)" points = "215.593239,97.838984 216.372930,97.962475 217.076299,98.320860 217.634496,98.879057 217.992881,99.582426 218.116372,100.362117 217.992881,101.141808 217.634496,101.845177 217.076299,102.403374 216.372930,102.761758 215.593239,102.885249 214.813548,102.761758 214.110179,102.403374 213.551982,101.845177 213.193598,101.141808 213.070107,100.362117 213.193598,99.582426 213.551982,98.879057 214.110179,98.320860 214.813548,97.962475"/>
<polygon style="fill: #0000ff; stroke: #000000; stroke-width: 1.000000; stroke-linejoin: miter; stroke-linecap: butt;  opacity: 0.804929" clip-path="url(#4685744057707115011)" points = "131.126587,193.701167 131.906278,193.824658 132.609647,194.183043 133.167844,194.741240 133.526229,195.444609 133.649719,196.224300 133.526229,197.003990 133.167844,197.707360 132.609647,198.265557 131.906278,198.623941 131.126587,198.747432 130.346896,198.623941 129.643527,198.265557 129.085330,197.707360 128.726945,197.003990 128.603454,196.224300 128.726945,195.444609 129.085330,194.741240 129.643527,194.183043 130.346896,193.824658"/>
<polygon style="fill: #0000ff; stroke: #000000; stroke-width: 1.000000; stroke-linejoin: miter; stroke-linecap: butt;  opacity: 0.360435" clip-path="url(#4685744057707115011)" points = "241.343336,83.225480 242.123027,83.348970 242.826396,83.707355 243.384593,84.265552 243.742978,84.968921 243.866469,85.748612 243.742978,86.528303 243.384593,87.231672 242.826396,87.789869 242.123027,88.148254 241.343336,88.271745 240.563645,88.148254 239.860276,87.789869 239.302079,87.231672 238.943694,86.528303 238.820204,85.748612 238.943694,84.968921 239.302079,84.265552 239.860276,83.707355 240.563645,83.348970"/>
<polygon style="fill: #0000ff; stroke: #000000; stroke-width: 1.000000; stroke-linejoin: miter; stroke-linecap: butt;  opacity: 0.657641" clip-path="url(#4685744057707115011)" points = "161.646626,231.827355 162.426317,231.950846 163.129686,232.309231 163.687883,232.867428 164.046268,233.570797 164.169758,234.350488 164.046268,235.130179 163.687883,235.833548 163.129686,236.391745 162.426317,236.750130 161.646626,236.873621 160.866935,236.750130 160.163566,236.391745 159.605369,235.833548 159.246984,235.130179 159.123493,234.350488 159.246984,233.570797 159.605369,232.867428 160.163566,232.309231 160.866935,231.950846"/>
<polygon style="fill: #0000ff; stroke: #000000; stroke-width: 1.000000; stroke-linejoin: miter; stroke-linecap: butt;  opacity: 0.566656" clip-path="url(#4685744057707115011)" points = "189.648970,231.609924 190.428661,231.733415 191.132031,232.091799 191.690228,232.649996 192.048612,233.353365 192.172103,234.133056 192.048612,234.912747 191.690228,235.616116 191.132031,236.174313 190.428661,236.532698 189.648970,236.656189 188.869280,236.532698 188.165910,236.174313 187.607713,235.616116 187.249329,234.912747 187.125838,234.133056 187.249329,233.353365 187.607713,232.649996 188.165910,232.091799 188.869280,231.733415"/>
<polygon style="fill: #0000ff; stroke: #000000; stroke-width: 1.000000; stroke-linejoin: miter; stroke-linecap: butt;  opacity: 0.425344" clip-path="url(#4685744057707115011)" points = "242.630878,206.614731 243.410569,206.738222 244.113938,207.096606 244.672135,207.654803 245.030519,208.358173 245.154010,209.137863 245.030519,209.917554 244.672135,210.620924 244.113938,211.179121 243.410569,211.537505 242.630878,211.660996 241.851187,211.537505 241.147818,211.179121 240.589621,210.620924 240.231236,209.917554 240.107745,209.137863 240.231236,208.358173 240.589621,207.654803 241.147818,207.096606 241.851187,206.738222"/>
<polygon style="fill: #0000ff; stroke: #000000; stroke-width: 1.000000; stroke-linejoin: miter; stroke-linecap: butt;  opacity: 0.492673" clip-path="url(#4685744057707115011)" points = "216.527467,220.757923 217.307158,220.881414 218.010527,221.239799 218.568724,221.797996 218.927109,222.501365 219.050600,223.281056 218.927109,224.060747 218.568724,224.764116 218.010527,225.322313 217.307158,225.680698 216.527467,225.804188 215.747777,225.680698 215.044407,225.322313 214.486210,224.764116 214.127826,224.060747 214.004335,223.281056 214.127826,222.501365 214.486210,221.797996 215.044407,221.239799 215.747777,220.881414"/>
<polygon style="fill: #0000ff; stroke: #000000; stroke-width: 1.000000; stroke-linejoin: miter; stroke-linecap: butt;  opacity: 0.361572" clip-path="url(#4685744057707115011)" points = "268.071238,191.358532 268.850928,191.482022 269.554298,191.840407 270.112495,192.398604 270.470879,193.101973 270.594370,193.881664 270.470879,194.661355 270.112495,195.364724 269.554298,195.922921 268.850928,196.281306 268.071238,196.404797 267.291547,196.281306 266.588178,195.922921 266.029981,195.364724 265.671596,194.661355 265.548105,193.881664 265.671596,193.101973 266.029981,192.398604 266.588178,191.840407 267.291547,191.482022"/>
<polygon style="fill: #0000ff; stroke: #000000; stroke-width: 1.000000; stroke-linejoin: miter; stroke-linecap: butt;  opacity: 0.844712" clip-path="url(#4685744057707115011)" points = "186.299642,213.798960 187.079333,213.922451 187.782702,214.280836 188.340899,214.839033 188.699284,215.542402 188.822775,216.322093 188.699284,217.101783 188.340899,217.805153 187.782702,218.363350 187.079333,218.721734 186.299642,218.845225 185.519951,218.721734 184.816582,218.363350 184.258385,217.805153 183.900000,217.101783 183.776509,216.322093 183.900000,215.542402 184.258385,214.839033 184.816582,214.280836 185.519951,213.922451"/>
<polygon style="fill: #0000ff; stroke: #000000; stroke-width: 1.000000; stroke-linejoin: miter; stroke-linecap: butt;  opacity: 0.300000" clip-path="url(#4685744057707115011)" points = "292.900347,175.937076 293.680038,176.060567 294.383407,176.418952 294.941604,176.977149 295.299989,177.680518 295.423480,178.460209 295.299989,179.239900 294.941604,179.943269 294.383407,180.501466 293.680038,180.859850 292.900347,180.983341 292.120657,180.859850 291.417287,180.501466 290.859090,179.943269 290.500706,179.239900 290.377215,178.460209 290.500706,177.680518 290.859090,176.977149 291.417287,176.418952 292.120657,176.060567"/>
<polygon style="fill: #0000ff; stroke: #000000; stroke-width: 1.000000; stroke-linejoin: miter; stroke-linecap: butt;  opacity: 0.681806" clip-path="url(#4685744057707115011)" points = "215.772826,261.486187 216.552517,261.609678 217.255886,261.968062 217.814083,262.526259 218.172467,263.229628 218.295958,264.009319 218.172467,264.789010 217.814083,265.492379 217.255886,266.050576 216.552517,266.408961 215.772826,266.532452 214.993135,266.408961 214.289766,266.050576 213.731569,265.492379 213.373184,264.789010 213.249693,264.009319 213.373184,263.229628 213.731569,262.526259 214.289766,261.968062 214.993135,261.609678"/>
<polygon style="fill: #0000ff; stroke: #000000; stroke-width: 1.000000; stroke-linejoin: miter; stroke-linecap: butt;  opacity: 0.581084" clip-path="url(#4685744057707115011)" points = "243.081246,267.365646 243.860937,267.489137 244.564306,267.847521 245.122503,268.405719 245.480888,269.109088 245.604379,269.888779 245.480888,270.668469 245.122503,271.371839 244.564306,271.930036 243.860937,272.288420 243.081246,272.411911 242.301556,272.288420 241.598186,271.930036 241.039989,271.371839 240.681605,270.668469 240.558114,269.888779 240.681605,269.109088 241.039989,268.405719 241.598186,267.847521 242.301556,267.489137"/>
<polygon style="fill: #0000ff; stroke: #000000; stroke-width: 1.000000; stroke-linejoin: miter; stroke-linecap: butt;  opacity: 0.501242" clip-path="url(#4685744057707115011)" points = "269.322421,260.091071 270.102112,260.214562 270.805481,260.572947 271.363678,261.131144 271.722062,261.834513 271.845553,262.614204 271.722062,263.393895 271.363678,264.097264 270.805481,264.655461 270.102112,265.013846 269.322421,265.137336 268.542730,265.013846 267.839361,264.655461 267.281164,264.097264 266.922779,263.393895 266.799288,262.614204 266.922779,261.834513 267.281164,261.131144 267.839361,260.572947 268.542730,260.214562"/>
<polygon style="fill: #0000ff; stroke: #000000; stroke-width: 1.000000; stroke-linejoin: miter; stroke-linecap: butt;  opacity: 0.894227" clip-path="url(#4685744057707115011)" points = "242.172393,227.731036 242.952084,227.854527 243.655453,228.212911 244.213650,228.771108 244.572035,229.474478 244.695526,230.254168 244.572035,231.033859 244.213650,231.737228 243.655453,232.295425 242.952084,232.653810 242.172393,232.777301 241.392702,232.653810 240.689333,232.295425 240.131136,231.737228 239.772751,231.033859 239.649260,230.254168 239.772751,229.474478 240.131136,228.771108 240.689333,228.212911 241.392702,227.854527"/>
<polygon style="fill: #0000ff; stroke: #000000; stroke-width: 1.000000; stroke-linejoin: miter; stroke-linecap: butt;  opacity: 0.366402" clip-path="url(#4685744057707115011)" points = "319.627730,232.246852 320.407421,232.370343 321.110790,232.728727 321.668987,233.286924 322.027372,233.990294 322.150863,234.769984 322.027372,235.549675 321.668987,236.253045 321.110790,236.811242 320.407421,237.169626 319.627730,237.293117 318.848039,237.169626 318.144670,236.811242 317.586473,236.253045 317.228088,235.549675 317.104598,234.769984 317.228088,233.990294 317.586473,233.286924 318.144670,232.728727 318.848039,232.370343"/>
<polygon style="fill: #0000ff; stroke: #000000; stroke-width: 1.000000; stroke-linejoin: miter; stroke-linecap: butt;  opacity: 0.431365" clip-path="url(#4685744057707115011)" points = "294.797990,247.204094 295.577681,247.327584 296.281050,247.685969 296.839247,248.244166 297.197632,248.947535 297.321123,249.727226 297.197632,250.506917 296.839247,251.210286 296.281050,251.768483 295.577681,252.126868 294.797990,252.250359 294.018299,252.126868 293.314930,251.768483 292.756733,251.210286 292.398349,250.506917 292.274858,249.727226 292.398349,248.947535 292.756733,248.244166 293.314930,247.685969 294.018299,247.327584"/>
<polygon style="fill: #0000ff; stroke: #000000; stroke-width: 1.000000; stroke-linejoin: miter; stroke-linecap: butt;  opacity: 0.304407" clip-path="url(#4685744057707115011)" points = "343.863892,216.568275 344.643583,216.691766 345.346953,217.050150 345.905150,217.608347 346.263534,218.311716 346.387025,219.091407 346.263534,219.871098 345.905150,220.574467 345.346953,221.132664 344.643583,221.491049 343.863892,221.614540 343.084202,221.491049 342.380832,221.132664 341.822635,220.574467 341.464251,219.871098 341.340760,219.091407 341.464251,218.311716 341.822635,217.608347 342.380832,217.050150 343.084202,216.691766"/>
<polygon style="fill: #0000ff; stroke: #000000; stroke-width: 1.000000; stroke-linejoin: miter; stroke-linecap: butt;  opacity: 0.724041" clip-path="url(#4685744057707115011)" points = "270.296435,278.615855 271.076125,278.739346 271.779495,279.097731 272.337692,279.655928 272.696076,280.359297 272.819567,281.138988 272.696076,281.918679 272.337692,282.622048 271.779495,283.180245 271.076125,283.538629 270.296435,283.662120 269.516744,283.538629 268.813374,283.180245 268.255177,282.622048 267.896793,281.918679 267.773302,281.138988 267.896793,280.359297 268.255177,279.655928 268.813374,279.097731 269.516744,278.739346"/>
<polygon style="fill: #0000ff; stroke: #000000; stroke-width: 1.000000; stroke-linejoin: miter; stroke-linecap: butt;  opacity: 0.616279" clip-path="url(#4685744057707115011)" points = "296.804273,288.234298 297.583964,288.357789 298.287333,288.716173 298.845530,289.274370 299.203914,289.977740 299.327405,290.757430 299.203914,291.537121 298.845530,292.240490 298.287333,292.798687 297.583964,293.157072 296.804273,293.280563 296.024582,293.157072 295.321213,292.798687 294.763016,292.240490 294.404631,291.537121 294.281140,290.757430 294.404631,289.977740 294.763016,289.274370 295.321213,288.716173 296.024582,288.357789"/>
<polygon style="fill: #0000ff; stroke: #000000; stroke-width: 1.000000; stroke-linejoin: miter; stroke-linecap: butt;  opacity: 0.531003" clip-path="url(#4685744057707115011)" points = "322.393070,283.863161 323.172760,283.986652 323.876130,284.345037 324.434327,284.903234 324.792711,285.606603 324.916202,286.386294 324.792711,287.165984 324.434327,287.869354 323.876130,288.427551 323.172760,288.785935 322.393070,288.909426 321.613379,288.785935 320.910010,288.427551 320.351813,287.869354 319.993428,287.165984 319.869937,286.386294 319.993428,285.606603 320.351813,284.903234 320.910010,284.345037 321.613379,283.986652"/>
<polygon style="fill: #0000ff; stroke: #000000; stroke-width: 1.000000; stroke-linejoin: miter; stroke-linecap: butt;  opacity: 0.946439" clip-path="url(#4685744057707115011)" points = "299.031095,240.639963 299.810786,240.763454 300.514155,241.121839 301.072352,241.680036 301.430737,242.383405 301.554228,243.163096 301.430737,243.942786 301.072352,244.646156 300.514155,245.204353 299.810786,245.562737 299.031095,245.686228 298.251404,245.562737 297.548035,245.204353 296.989838,244.646156 296.631453,243.942786 296.507963,243.163096 296.631453,242.383405 296.989838,241.680036 297.548035,241.121839 298.251404,240.763454"/>
<polygon style="fill: #0000ff; stroke: #000000; stroke-width: 1.000000; stroke-linejoin: miter; stroke-linecap: butt;  opacity: 0.457667" clip-path="url(#4685744057707115011)" points = "347.282615,272.611430 348.062306,272.734921 348.765675,273.093305 349.323872,273.651502 349.682257,274.354871 349.805748,275.134562 349.682257,275.914253 349.323872,276.617622 348.765675,277.175819 348.062306,277.534204 347.282615,277.657695 346.502924,277.534204 345.799555,277.175819 345.241358,276.617622 344.882973,275.914253 344.759482,275.134562 344.882973,274.354871 345.241358,273.651502 345.799555,273.093305 346.502924,272.734921"/>
<polygon style="fill: #0000ff; stroke: #000000; stroke-width: 1.000000; stroke-linejoin: miter; stroke-linecap: butt;  opacity: 0.390469" clip-path="url(#4685744057707115011)" points = "371.559868,258.480993 372.339559,258.604484 373.042929,258.962868 373.601126,259.521065 373.959510,260.224435 374.083001,261.004126 373.959510,261.783816 373.601126,262.487186 373.042929,263.045383 372.339559,263.403767 371.559868,263.527258 370.780178,263.403767 370.076808,263.045383 369.518611,262.487186 369.160227,261.783816 369.036736,261.004126 369.160227,260.224435 369.518611,259.521065 370.076808,258.962868 370.780178,258.604484"/>
<polygon style="fill: #0000ff; stroke: #000000; stroke-width: 1.000000; stroke-linejoin: miter; stroke-linecap: butt;  opacity: 0.327258" clip-path="url(#4685744057707115011)" points = "395.271384,242.915300 396.051075,243.038791 396.754444,243.397175 397.312641,243.955372 397.671026,244.658741 397.794517,245.438432 397.671026,246.218123 397.312641,246.921492 396.754444,247.479689 396.051075,247.838074 395.271384,247.961565 394.491693,247.838074 393.788324,247.479689 393.230127,246.921492 392.871743,246.218123 392.748252,245.438432 392.871743,244.658741 393.230127,243.955372 393.788324,243.397175 394.491693,243.038791"/>
<polygon style="fill: #0000ff; stroke: #000000; stroke-width: 1.000000; stroke-linejoin: miter; stroke-linecap: butt;  opacity: 0.772056" clip-path="url(#4685744057707115011)" points = "325.690638,292.381799 326.470329,292.505290 327.173698,292.863675 327.731895,293.421872 328.090279,294.125241 328.213770,294.904932 328.090279,295.684622 327.731895,296.387992 327.173698,296.946189 326.470329,297.304573 325.690638,297.428064 324.910947,297.304573 324.207578,296.946189 323.649381,296.387992 323.290996,295.684622 323.167505,294.904932 323.290996,294.125241 323.649381,293.421872 324.207578,292.863675 324.910947,292.505290"/>
<polygon style="fill: #0000ff; stroke: #000000; stroke-width: 1.000000; stroke-linejoin: miter; stroke-linecap: butt;  opacity: 0.660581" clip-path="url(#4685744057707115011)" points = "351.319273,303.149745 352.098964,303.273236 352.802333,303.631620 353.360530,304.189817 353.718915,304.893186 353.842406,305.672877 353.718915,306.452568 353.360530,307.155937 352.802333,307.714134 352.098964,308.072519 351.319273,308.196010 350.539583,308.072519 349.836213,307.714134 349.278016,307.155937 348.919632,306.452568 348.796141,305.672877 348.919632,304.893186 349.278016,304.189817 349.836213,303.631620 350.539583,303.273236"/>
<polygon style="fill: #0000ff; stroke: #000000; stroke-width: 1.000000; stroke-linejoin: miter; stroke-linecap: butt;  opacity: 0.571590" clip-path="url(#4685744057707115011)" points = "376.216850,300.215486 376.996541,300.338977 377.699910,300.697362 378.258107,301.255559 378.616492,301.958928 378.739983,302.738619 378.616492,303.518310 378.258107,304.221679 377.699910,304.779876 376.996541,305.138260 376.216850,305.261751 375.437159,305.138260 374.733790,304.779876 374.175593,304.221679 373.817209,303.518310 373.693718,302.738619 373.817209,301.958928 374.175593,301.255559 374.733790,300.697362 375.437159,300.338977"/>
<polygon style="fill: #0000ff; stroke: #000000; stroke-width: 1.000000; stroke-linejoin: miter; stroke-linecap: butt;  opacity: 1.000000" clip-path="url(#4685744057707115011)" points = "356.942030,253.521324 357.721721,253.644815 358.425090,254.003199 358.983287,254.561396 359.341672,255.264766 359.465163,256.044456 359.341672,256.824147 358.983287,257.527517 358.425090,258.085714 357.721721,258.444098 356.942030,258.567589 356.162339,258.444098 355.458970,258.085714 354.900773,257.527517 354.542388,256.824147 354.418897,256.044456 354.542388,255.264766 354.900773,254.561396 355.458970,254.003199 356.162339,253.644815"/>
<polygon style="fill: #0000ff; stroke: #000000; stroke-width: 1.000000; stroke-linejoin: miter; stroke-linecap: butt;  opacity: 0.495145" clip-path="url(#4685744057707115011)" points = "400.510265,290.144914 401.289956,290.268405 401.993325,290.626790 402.551522,291.184987 402.909907,291.888356 403.033397,292.668047 402.909907,293.447738 402.551522,294.151107 401.993325,294.709304 401.289956,295.067689 400.510265,295.191179 399.730574,295.067689 399.027205,294.709304 398.469008,294.151107 398.110623,293.447738 397.987132,292.668047 398.110623,291.888356 398.469008,291.184987 399.027205,290.626790 399.730574,290.268405"/>
<polygon style="fill: #0000ff; stroke: #000000; stroke-width: 1.000000; stroke-linejoin: miter; stroke-linecap: butt;  opacity: 0.425653" clip-path="url(#4685744057707115011)" points = "424.242612,276.707818 425.022303,276.831309 425.725672,277.189693 426.283869,277.747890 426.642254,278.451260 426.765745,279.230951 426.642254,280.010641 426.283869,280.714011 425.725672,281.272208 425.022303,281.630592 424.242612,281.754083 423.462921,281.630592 422.759552,281.272208 422.201355,280.714011 421.842970,280.010641 421.719480,279.230951 421.842970,278.451260 422.201355,277.747890 422.759552,277.189693 423.462921,276.831309"/>
<polygon style="fill: #0000ff; stroke: #000000; stroke-width: 1.000000; stroke-linejoin: miter; stroke-linecap: butt;  opacity: 0.361016" clip-path="url(#4685744057707115011)" points = "447.452300,261.259227 448.231991,261.382718 448.935360,261.741103 449.493557,262.299300 449.851942,263.002669 449.975433,263.782360 449.851942,264.562051 449.493557,265.265420 448.935360,265.823617 448.231991,266.182001 447.452300,266.305492 446.672610,266.182001 445.969240,265.823617 445.411043,265.265420 445.052659,264.562051 444.929168,263.782360 445.052659,263.002669 445.411043,262.299300 445.969240,261.741103 446.672610,261.382718"/>
<polygon style="fill: #0000ff; stroke: #000000; stroke-width: 1.000000; stroke-linejoin: miter; stroke-linecap: butt;  opacity: 0.822146" clip-path="url(#4685744057707115011)" points = "382.071175,305.523393 382.850866,305.646884 383.554236,306.005268 384.112433,306.563465 384.470817,307.266834 384.594308,308.046525 384.470817,308.826216 384.112433,309.529585 383.554236,310.087782 382.850866,310.446167 382.071175,310.569658 381.291485,310.446167 380.588115,310.087782 380.029918,309.529585 379.671534,308.826216 379.548043,308.046525 379.671534,307.266834 380.029918,306.563465 380.588115,306.005268 381.291485,305.646884"/>
<polygon style="fill: #0000ff; stroke: #000000; stroke-width: 1.000000; stroke-linejoin: miter; stroke-linecap: butt;  opacity: 0.708070" clip-path="url(#4685744057707115011)" points = "406.779019,316.560561 407.558710,316.684052 408.262079,317.042436 408.820276,317.600633 409.178661,318.304003 409.302152,319.083693 409.178661,319.863384 408.820276,320.566754 408.262079,321.124951 407.558710,321.483335 406.779019,321.606826 405.999328,321.483335 405.295959,321.124951 404.737762,320.566754 404.379377,319.863384 404.255886,319.083693 404.379377,318.304003 404.737762,317.600633 405.295959,317.042436 405.999328,316.684052"/>
<polygon style="fill: #0000ff; stroke: #000000; stroke-width: 1.000000; stroke-linejoin: miter; stroke-linecap: butt;  opacity: 0.616435" clip-path="url(#4685744057707115011)" points = "430.953387,314.183948 431.733078,314.307439 432.436447,314.665824 432.994644,315.224021 433.353028,315.927390 433.476519,316.707081 433.353028,317.486772 432.994644,318.190141 432.436447,318.748338 431.733078,319.106723 430.953387,319.230213 430.173696,319.106723 429.470327,318.748338 428.912130,318.190141 428.553745,317.486772 428.430254,316.707081 428.553745,315.927390 428.912130,315.224021 429.470327,314.665824 430.173696,314.307439"/>
<polygon style="fill: #0000ff; stroke: #000000; stroke-width: 1.000000; stroke-linejoin: miter; stroke-linecap: butt;  opacity: 0.537442" clip-path="url(#4685744057707115011)" points = "454.625840,304.774859 455.405530,304.898350 456.108900,305.256735 456.667097,305.814932 457.025481,306.518301 457.148972,307.297992 457.025481,308.077683 456.667097,308.781052 456.108900,309.339249 455.405530,309.697633 454.625840,309.821124 453.846149,309.697633 453.142779,309.339249 452.584582,308.781052 452.226198,308.077683 452.102707,307.297992 452.226198,306.518301 452.584582,305.814932 453.142779,305.256735 453.846149,304.898350"/>
<polygon style="fill: #0000ff; stroke: #000000; stroke-width: 1.000000; stroke-linejoin: miter; stroke-linecap: butt;  opacity: 0.465828" clip-path="url(#4685744057707115011)" points = "477.796673,291.802251 478.576364,291.925742 479.279734,292.284126 479.837931,292.842323 480.196315,293.545693 480.319806,294.325383 480.196315,295.105074 479.837931,295.808443 479.279734,296.366640 478.576364,296.725025 477.796673,296.848516 477.016983,296.725025 476.313613,296.366640 475.755416,295.808443 475.397032,295.105074 475.273541,294.325383 475.397032,293.545693 475.755416,292.842323 476.313613,292.284126 477.016983,291.925742"/>
<polygon style="fill: #0000ff; stroke: #000000; stroke-width: 1.000000; stroke-linejoin: miter; stroke-linecap: butt;  opacity: 0.399582" clip-path="url(#4685744057707115011)" points = "500.492883,276.523218 501.272574,276.646709 501.975943,277.005093 502.534140,277.563290 502.892524,278.266659 503.016015,279.046350 502.892524,279.826041 502.534140,280.529410 501.975943,281.087607 501.272574,281.445992 500.492883,281.569483 499.713192,281.445992 499.009823,281.087607 498.451626,280.529410 498.093241,279.826041 497.969750,279.046350 498.093241,278.266659 498.451626,277.563290 499.009823,277.005093 499.713192,276.646709"/>
</g>
<g id="matplotlib.axis1">
</g>
<g id="matplotlib.axis2">
</g>
</g>
</g>
</svg>
