<?xml version="1.0" standalone="no"?>
<!DOCTYPE svg PUBLIC "-//W3C//DTD SVG 1.1//EN"
  "http://www.w3.org/Graphics/SVG/1.1/DTD/svg11.dtd">
<!-- Created with matplotlib (http://matplotlib.sourceforge.net/) -->
<svg width="576" height="432" viewBox="0 0 576 432"
   xmlns="http://www.w3.org/2000/svg"
   xmlns:xlink="http://www.w3.org/1999/xlink"
   version="1.1"
   id="svg1">
<g id="figure1">
<polygon style="fill: #ffffff; stroke: #ffffff; stroke-width: 1.000000; stroke-linejoin: miter; stroke-linecap: square;  opacity: 1.000000"  points = "0.000000,432.000000 0.000000,0.000000 576.000000,0.000000 576.000000,432.000000"/>
<polygon style="fill: #ffffff; opacity: 1.000000"  points = "0.000000,432.000000 0.000000,0.000000 576.000000,0.000000 576.000000,432.000000"/>
<g id="axis3d1">
<polygon style="fill: #f2f2f2; stroke: #f2f2f2; stroke-width: 1.000000; stroke-linejoin: miter; stroke-linecap: square;  opacity: 0.100000"  points = "241.211914,230.626613 508.260241,289.840834 519.433224,81.348607 238.467267,28.237352"/>
<path style="fill: none; stroke: #000000; stroke-width: 0.750000; stroke-linejoin: miter; stroke-linecap: square;  opacity: 1.000000"  d="M 76.357701,336.543225 L 357.328625,405.507833 "/>
<text style="font-size: 12.000000; font-family: Bitstream Vera Sans; font-style: Roman; fill: #000000;" x="126.985725" y="379.092411" transform="translate(126.985725,379.092411) rotate(-341.9) translate(-126.985725,-379.092411)">max_snp_mismatch_rate</text>
<g id="linecollection1">
<path style="fill: none; stroke: #e6e6e6; stroke-width: 1.000000; stroke-linejoin: miter; stroke-linecap: butt;  opacity: 1.000000"  d="M 81.730847,337.862069 L 246.335639,231.762727 L 243.846516,29.254197 "/>
<path style="fill: none; stroke: #e6e6e6; stroke-width: 1.000000; stroke-linejoin: miter; stroke-linecap: butt;  opacity: 1.000000"  d="M 133.806316,350.644048 L 295.959675,242.766161 L 295.968604,39.106883 "/>
<path style="fill: none; stroke: #e6e6e6; stroke-width: 1.000000; stroke-linejoin: miter; stroke-linecap: butt;  opacity: 1.000000"  d="M 186.791666,363.649357 L 346.387419,253.947806 L 348.978075,49.127313 "/>
<path style="fill: none; stroke: #e6e6e6; stroke-width: 1.000000; stroke-linejoin: miter; stroke-linecap: butt;  opacity: 1.000000"  d="M 240.710954,376.883903 L 397.638557,265.312027 L 402.897787,59.319806 "/>
<path style="fill: none; stroke: #e6e6e6; stroke-width: 1.000000; stroke-linejoin: miter; stroke-linecap: butt;  opacity: 1.000000"  d="M 295.589092,390.353800 L 449.733420,276.863332 L 457.751387,69.688832 "/>
<path style="fill: none; stroke: #e6e6e6; stroke-width: 1.000000; stroke-linejoin: miter; stroke-linecap: butt;  opacity: 1.000000"  d="M 351.451887,404.065382 L 502.693018,288.606380 L 513.563349,80.239019 "/>
</g>
<g id="xtick1">
<text style="font-size: 12.000000; font-family: Bitstream Vera Sans; font-style: Roman; fill: #000000;" x="68.730847" y="342.362069" >0.05</text>
<path style="fill: none; stroke: #000000; stroke-width: 1.000000; stroke-linejoin: miter; stroke-linecap: square;  opacity: 1.000000"  d="M 81.730847,337.862069 L 79.242567,345.465257 "/>
</g>
<g id="xtick2">
<text style="font-size: 12.000000; font-family: Bitstream Vera Sans; font-style: Roman; fill: #000000;" x="120.806316" y="355.144048" >0.10</text>
<path style="fill: none; stroke: #000000; stroke-width: 1.000000; stroke-linejoin: miter; stroke-linecap: square;  opacity: 1.000000"  d="M 133.806316,350.644048 L 131.318036,358.247235 "/>
</g>
<g id="xtick3">
<text style="font-size: 12.000000; font-family: Bitstream Vera Sans; font-style: Roman; fill: #000000;" x="173.791666" y="368.149357" >0.15</text>
<path style="fill: none; stroke: #000000; stroke-width: 1.000000; stroke-linejoin: miter; stroke-linecap: square;  opacity: 1.000000"  d="M 186.791666,363.649357 L 184.303386,371.252545 "/>
</g>
<g id="xtick4">
<text style="font-size: 12.000000; font-family: Bitstream Vera Sans; font-style: Roman; fill: #000000;" x="227.710954" y="381.383903" >0.20</text>
<path style="fill: none; stroke: #000000; stroke-width: 1.000000; stroke-linejoin: miter; stroke-linecap: square;  opacity: 1.000000"  d="M 240.710954,376.883903 L 238.222674,384.487091 "/>
</g>
<g id="xtick5">
<text style="font-size: 12.000000; font-family: Bitstream Vera Sans; font-style: Roman; fill: #000000;" x="282.589092" y="394.853800" >0.25</text>
<path style="fill: none; stroke: #000000; stroke-width: 1.000000; stroke-linejoin: miter; stroke-linecap: square;  opacity: 1.000000"  d="M 295.589092,390.353800 L 293.100812,397.956987 "/>
</g>
<g id="xtick6">
<text style="font-size: 12.000000; font-family: Bitstream Vera Sans; font-style: Roman; fill: #000000;" x="338.451887" y="408.565382" >0.30</text>
<path style="fill: none; stroke: #000000; stroke-width: 1.000000; stroke-linejoin: miter; stroke-linecap: square;  opacity: 1.000000"  d="M 351.451887,404.065382 L 348.963607,411.668569 "/>
</g>
</g>
<g id="axis3d2">
<polygon style="fill: #e6e6e6; stroke: #e6e6e6; stroke-width: 1.000000; stroke-linejoin: miter; stroke-linecap: square;  opacity: 0.500000"  points = "76.357701,336.543225 241.211914,230.626613 238.467267,28.237352 64.421350,123.401250"/>
<path style="fill: none; stroke: #000000; stroke-width: 0.750000; stroke-linejoin: miter; stroke-linecap: square;  opacity: 1.000000"  d="M 357.328625,405.507833 L 508.260241,289.840834 "/>
<text style="font-size: 12.000000; font-family: Bitstream Vera Sans; font-style: Roman; fill: #000000;" x="424.901640" y="409.410201" transform="translate(424.901640,409.410201) rotate(-45.6) translate(-424.901640,-409.410201)">max_snp_NA_rate</text>
<g id="linecollection2">
<path style="fill: none; stroke: #e6e6e6; stroke-width: 1.000000; stroke-linejoin: miter; stroke-linecap: butt;  opacity: 1.000000"  d="M 360.586508,403.011142 L 79.904448,334.264487 L 68.180167,121.346024 "/>
<path style="fill: none; stroke: #e6e6e6; stroke-width: 1.000000; stroke-linejoin: miter; stroke-linecap: butt;  opacity: 1.000000"  d="M 386.275008,383.324666 L 107.888616,316.285036 L 97.815435,105.142210 "/>
<path style="fill: none; stroke: #e6e6e6; stroke-width: 1.000000; stroke-linejoin: miter; stroke-linecap: butt;  opacity: 1.000000"  d="M 411.315455,364.134828 L 135.197551,298.739413 L 126.697783,89.350074 "/>
<path style="fill: none; stroke: #e6e6e6; stroke-width: 1.000000; stroke-linejoin: miter; stroke-linecap: butt;  opacity: 1.000000"  d="M 435.732067,345.423067 L 161.855403,281.612103 L 154.855544,73.954124 "/>
<path style="fill: none; stroke: #e6e6e6; stroke-width: 1.000000; stroke-linejoin: miter; stroke-linecap: butt;  opacity: 1.000000"  d="M 459.547871,327.171738 L 187.885180,264.888322 L 182.315648,58.939635 "/>
<path style="fill: none; stroke: #e6e6e6; stroke-width: 1.000000; stroke-linejoin: miter; stroke-linecap: butt;  opacity: 1.000000"  d="M 482.784771,309.364054 L 213.308820,248.553975 L 209.103706,44.292603 "/>
<path style="fill: none; stroke: #e6e6e6; stroke-width: 1.000000; stroke-linejoin: miter; stroke-linecap: butt;  opacity: 1.000000"  d="M 505.463623,291.984033 L 238.147253,232.595617 L 235.244090,29.999704 "/>
</g>
<g id="xtick7">
<text style="font-size: 12.000000; font-family: Bitstream Vera Sans; font-style: Roman; fill: #000000;" x="352.086508" y="407.511142" >0.1</text>
<path style="fill: none; stroke: #000000; stroke-width: 1.000000; stroke-linejoin: miter; stroke-linecap: square;  opacity: 1.000000"  d="M 360.586508,403.011142 L 366.304039,408.606662 "/>
</g>
<g id="xtick8">
<text style="font-size: 12.000000; font-family: Bitstream Vera Sans; font-style: Roman; fill: #000000;" x="377.251570" y="387.824666" >0.2</text>
<path style="fill: none; stroke: #000000; stroke-width: 1.000000; stroke-linejoin: miter; stroke-linecap: square;  opacity: 1.000000"  d="M 386.275008,383.324666 L 391.992538,388.920187 "/>
</g>
<g id="xtick9">
<text style="font-size: 12.000000; font-family: Bitstream Vera Sans; font-style: Roman; fill: #000000;" x="402.315455" y="368.634828" >0.3</text>
<path style="fill: none; stroke: #000000; stroke-width: 1.000000; stroke-linejoin: miter; stroke-linecap: square;  opacity: 1.000000"  d="M 411.315455,364.134828 L 417.032985,369.730348 "/>
</g>
<g id="xtick10">
<text style="font-size: 12.000000; font-family: Bitstream Vera Sans; font-style: Roman; fill: #000000;" x="426.732067" y="349.923067" >0.4</text>
<path style="fill: none; stroke: #000000; stroke-width: 1.000000; stroke-linejoin: miter; stroke-linecap: square;  opacity: 1.000000"  d="M 435.732067,345.423067 L 441.449597,351.018587 "/>
</g>
<g id="xtick11">
<text style="font-size: 12.000000; font-family: Bitstream Vera Sans; font-style: Roman; fill: #000000;" x="450.547871" y="331.671738" >0.5</text>
<path style="fill: none; stroke: #000000; stroke-width: 1.000000; stroke-linejoin: miter; stroke-linecap: square;  opacity: 1.000000"  d="M 459.547871,327.171738 L 465.265401,332.767259 "/>
</g>
<g id="xtick12">
<text style="font-size: 12.000000; font-family: Bitstream Vera Sans; font-style: Roman; fill: #000000;" x="473.784771" y="313.864054" >0.6</text>
<path style="fill: none; stroke: #000000; stroke-width: 1.000000; stroke-linejoin: miter; stroke-linecap: square;  opacity: 1.000000"  d="M 482.784771,309.364054 L 488.502301,314.959575 "/>
</g>
<g id="xtick13">
<text style="font-size: 12.000000; font-family: Bitstream Vera Sans; font-style: Roman; fill: #000000;" x="496.463623" y="296.484033" >0.7</text>
<path style="fill: none; stroke: #000000; stroke-width: 1.000000; stroke-linejoin: miter; stroke-linecap: square;  opacity: 1.000000"  d="M 505.463623,291.984033 L 511.181153,297.579553 "/>
</g>
</g>
<g id="axis3d3">
<polygon style="fill: #f2f2f2; stroke: #f2f2f2; stroke-width: 1.000000; stroke-linejoin: miter; stroke-linecap: square;  opacity: 0.100000"  points = "76.357701,336.543225 357.328625,405.507833 508.260241,289.840834 241.211914,230.626613"/>
<path style="fill: none; stroke: #000000; stroke-width: 0.750000; stroke-linejoin: miter; stroke-linecap: square;  opacity: 1.000000"  d="M 76.357701,336.543225 L 64.421350,123.401250 "/>
<text style="font-size: 12.000000; font-family: Bitstream Vera Sans; font-style: Roman; fill: #000000;" x="44.349952" y="332.628152" transform="translate(44.349952,332.628152) rotate(-92.4) translate(-44.349952,-332.628152)">no_of_total_accessions_filtered</text>
<g id="linecollection3">
<path style="fill: none; stroke: #e6e6e6; stroke-width: 1.000000; stroke-linejoin: miter; stroke-linecap: butt;  opacity: 1.000000"  d="M 76.131056,332.496136 L 241.159600,226.768965 L 508.472750,285.875342 "/>
<path style="fill: none; stroke: #e6e6e6; stroke-width: 1.000000; stroke-linejoin: miter; stroke-linecap: butt;  opacity: 1.000000"  d="M 74.761295,308.036938 L 240.843595,203.466858 L 509.756781,261.914813 "/>
<path style="fill: none; stroke: #e6e6e6; stroke-width: 1.000000; stroke-linejoin: miter; stroke-linecap: butt;  opacity: 1.000000"  d="M 73.374343,283.270770 L 240.523912,179.893572 L 511.056411,237.663220 "/>
<path style="fill: none; stroke: #e6e6e6; stroke-width: 1.000000; stroke-linejoin: miter; stroke-linecap: butt;  opacity: 1.000000"  d="M 71.969875,258.191816 L 240.200487,156.044348 L 512.371924,213.115229 "/>
<path style="fill: none; stroke: #e6e6e6; stroke-width: 1.000000; stroke-linejoin: miter; stroke-linecap: butt;  opacity: 1.000000"  d="M 70.547556,232.794112 L 239.873254,131.914310 L 513.703614,188.265371 "/>
<path style="fill: none; stroke: #e6e6e6; stroke-width: 1.000000; stroke-linejoin: miter; stroke-linecap: butt;  opacity: 1.000000"  d="M 69.107044,207.071543 L 239.542145,107.498471 L 515.051781,163.108045 "/>
<path style="fill: none; stroke: #e6e6e6; stroke-width: 1.000000; stroke-linejoin: miter; stroke-linecap: butt;  opacity: 1.000000"  d="M 67.647987,181.017835 L 239.207091,82.791721 L 516.416733,137.637508 "/>
<path style="fill: none; stroke: #e6e6e6; stroke-width: 1.000000; stroke-linejoin: miter; stroke-linecap: butt;  opacity: 1.000000"  d="M 66.170026,154.626554 L 238.868021,57.788832 L 517.798785,111.847874 "/>
<path style="fill: none; stroke: #e6e6e6; stroke-width: 1.000000; stroke-linejoin: miter; stroke-linecap: butt;  opacity: 1.000000"  d="M 64.672790,127.891094 L 238.524862,32.484445 L 519.198260,85.733110 "/>
</g>
<g id="xtick14">
<text style="font-size: 12.000000; font-family: Bitstream Vera Sans; font-style: Roman; fill: #000000;" x="63.131056" y="336.996136" >37.0</text>
<path style="fill: none; stroke: #000000; stroke-width: 1.000000; stroke-linejoin: miter; stroke-linecap: square;  opacity: 1.000000"  d="M 76.131056,332.496136 L 68.138103,332.831851 "/>
</g>
<g id="xtick15">
<text style="font-size: 12.000000; font-family: Bitstream Vera Sans; font-style: Roman; fill: #000000;" x="61.761295" y="312.536938" >37.5</text>
<path style="fill: none; stroke: #000000; stroke-width: 1.000000; stroke-linejoin: miter; stroke-linecap: square;  opacity: 1.000000"  d="M 74.761295,308.036938 L 66.768342,308.372654 "/>
</g>
<g id="xtick16">
<text style="font-size: 12.000000; font-family: Bitstream Vera Sans; font-style: Roman; fill: #000000;" x="60.374343" y="287.770770" >38.0</text>
<path style="fill: none; stroke: #000000; stroke-width: 1.000000; stroke-linejoin: miter; stroke-linecap: square;  opacity: 1.000000"  d="M 73.374343,283.270770 L 65.381390,283.606485 "/>
</g>
<g id="xtick17">
<text style="font-size: 12.000000; font-family: Bitstream Vera Sans; font-style: Roman; fill: #000000;" x="58.969875" y="262.691816" >38.5</text>
<path style="fill: none; stroke: #000000; stroke-width: 1.000000; stroke-linejoin: miter; stroke-linecap: square;  opacity: 1.000000"  d="M 71.969875,258.191816 L 63.976922,258.527531 "/>
</g>
<g id="xtick18">
<text style="font-size: 12.000000; font-family: Bitstream Vera Sans; font-style: Roman; fill: #000000;" x="57.547556" y="237.294112" >39.0</text>
<path style="fill: none; stroke: #000000; stroke-width: 1.000000; stroke-linejoin: miter; stroke-linecap: square;  opacity: 1.000000"  d="M 70.547556,232.794112 L 62.554603,233.129827 "/>
</g>
<g id="xtick19">
<text style="font-size: 12.000000; font-family: Bitstream Vera Sans; font-style: Roman; fill: #000000;" x="56.107044" y="211.571543" >39.5</text>
<path style="fill: none; stroke: #000000; stroke-width: 1.000000; stroke-linejoin: miter; stroke-linecap: square;  opacity: 1.000000"  d="M 69.107044,207.071543 L 61.114091,207.407258 "/>
</g>
<g id="xtick20">
<text style="font-size: 12.000000; font-family: Bitstream Vera Sans; font-style: Roman; fill: #000000;" x="54.647987" y="185.517835" >40.0</text>
<path style="fill: none; stroke: #000000; stroke-width: 1.000000; stroke-linejoin: miter; stroke-linecap: square;  opacity: 1.000000"  d="M 67.647987,181.017835 L 59.655034,181.353551 "/>
</g>
<g id="xtick21">
<text style="font-size: 12.000000; font-family: Bitstream Vera Sans; font-style: Roman; fill: #000000;" x="53.170026" y="159.126554" >40.5</text>
<path style="fill: none; stroke: #000000; stroke-width: 1.000000; stroke-linejoin: miter; stroke-linecap: square;  opacity: 1.000000"  d="M 66.170026,154.626554 L 58.177073,154.962269 "/>
</g>
<g id="xtick22">
<text style="font-size: 12.000000; font-family: Bitstream Vera Sans; font-style: Roman; fill: #000000;" x="51.672790" y="132.391094" >41.0</text>
<path style="fill: none; stroke: #000000; stroke-width: 1.000000; stroke-linejoin: miter; stroke-linecap: square;  opacity: 1.000000"  d="M 64.672790,127.891094 L 56.679837,128.226810 "/>
</g>
</g>
<g id="axes1">
<g id="regpolycollection1">
<defs>
    <clipPath id="4685744057707115011">
    <rect x="0.000000" y="0.000000" width="576.000000" height="432.000000"
    style="stroke: gray; fill: none;"/>
    </clipPath>
</defs>
<polygon style="fill: #0000ff; stroke: #000000; stroke-width: 1.000000; stroke-linejoin: miter; stroke-linecap: butt;  opacity: 0.724256" clip-path="url(#4685744057707115011)" points = "79.702099,229.351122 80.481789,229.474613 81.185159,229.832997 81.743356,230.391194 82.101740,231.094564 82.225231,231.874255 82.101740,232.653945 81.743356,233.357315 81.185159,233.915512 80.481789,234.273896 79.702099,234.397387 78.922408,234.273896 78.219038,233.915512 77.660841,233.357315 77.302457,232.653945 77.178966,231.874255 77.302457,231.094564 77.660841,230.391194 78.219038,229.832997 78.922408,229.474613"/>
<polygon style="fill: #0000ff; stroke: #000000; stroke-width: 1.000000; stroke-linejoin: miter; stroke-linecap: butt;  opacity: 0.649113" clip-path="url(#4685744057707115011)" points = "108.445337,212.169788 109.225028,212.293279 109.928397,212.651664 110.486594,213.209861 110.844979,213.913230 110.968470,214.692921 110.844979,215.472611 110.486594,216.175981 109.928397,216.734178 109.225028,217.092562 108.445337,217.216053 107.665646,217.092562 106.962277,216.734178 106.404080,216.175981 106.045696,215.472611 105.922205,214.692921 106.045696,213.913230 106.404080,213.209861 106.962277,212.651664 107.665646,212.293279"/>
<polygon style="fill: #0000ff; stroke: #000000; stroke-width: 1.000000; stroke-linejoin: miter; stroke-linecap: butt;  opacity: 0.504342" clip-path="url(#4685744057707115011)" points = "163.821756,179.068412 164.601446,179.191903 165.304816,179.550288 165.863013,180.108485 166.221397,180.811854 166.344888,181.591545 166.221397,182.371236 165.863013,183.074605 165.304816,183.632802 164.601446,183.991187 163.821756,184.114678 163.042065,183.991187 162.338696,183.632802 161.780499,183.074605 161.422114,182.371236 161.298623,181.591545 161.422114,180.811854 161.780499,180.108485 162.338696,179.550288 163.042065,179.191903"/>
<polygon style="fill: #0000ff; stroke: #000000; stroke-width: 1.000000; stroke-linejoin: miter; stroke-linecap: butt;  opacity: 0.434581" clip-path="url(#4685744057707115011)" points = "190.505945,163.117880 191.285636,163.241371 191.989005,163.599755 192.547202,164.157952 192.905587,164.861321 193.029077,165.641012 192.905587,166.420703 192.547202,167.124072 191.989005,167.682269 191.285636,168.040654 190.505945,168.164145 189.726254,168.040654 189.022885,167.682269 188.464688,167.124072 188.106303,166.420703 187.982812,165.641012 188.106303,164.861321 188.464688,164.157952 189.022885,163.599755 189.726254,163.241371"/>
<polygon style="fill: #0000ff; stroke: #000000; stroke-width: 1.000000; stroke-linejoin: miter; stroke-linecap: butt;  opacity: 0.575831" clip-path="url(#4685744057707115011)" points = "136.476511,195.414093 137.256202,195.537584 137.959571,195.895968 138.517768,196.454165 138.876152,197.157534 138.999643,197.937225 138.876152,198.716916 138.517768,199.420285 137.959571,199.978482 137.256202,200.336867 136.476511,200.460358 135.696820,200.336867 134.993451,199.978482 134.435254,199.420285 134.076869,198.716916 133.953378,197.937225 134.076869,197.157534 134.435254,196.454165 134.993451,195.895968 135.696820,195.537584"/>
<polygon style="fill: #0000ff; stroke: #000000; stroke-width: 1.000000; stroke-linejoin: miter; stroke-linecap: butt;  opacity: 0.366487" clip-path="url(#4685744057707115011)" points = "216.552763,147.548337 217.332454,147.671828 218.035823,148.030212 218.594020,148.588409 218.952405,149.291779 219.075896,150.071469 218.952405,150.851160 218.594020,151.554530 218.035823,152.112727 217.332454,152.471111 216.552763,152.594602 215.773072,152.471111 215.069703,152.112727 214.511506,151.554530 214.153122,150.851160 214.029631,150.071469 214.153122,149.291779 214.511506,148.588409 215.069703,148.030212 215.773072,147.671828"/>
<polygon style="fill: #0000ff; stroke: #000000; stroke-width: 1.000000; stroke-linejoin: miter; stroke-linecap: butt;  opacity: 0.777447" clip-path="url(#4685744057707115011)" points = "133.066350,241.512911 133.846041,241.636402 134.549410,241.994786 135.107607,242.552983 135.465991,243.256352 135.589482,244.036043 135.465991,244.815734 135.107607,245.519103 134.549410,246.077300 133.846041,246.435685 133.066350,246.559176 132.286659,246.435685 131.583290,246.077300 131.025093,245.519103 130.666708,244.815734 130.543217,244.036043 130.666708,243.256352 131.025093,242.552983 131.583290,241.994786 132.286659,241.636402"/>
<polygon style="fill: #0000ff; stroke: #000000; stroke-width: 1.000000; stroke-linejoin: miter; stroke-linecap: butt;  opacity: 0.300000" clip-path="url(#4685744057707115011)" points = "241.984777,132.346295 242.764468,132.469786 243.467837,132.828170 244.026034,133.386367 244.384419,134.089737 244.507910,134.869427 244.384419,135.649118 244.026034,136.352487 243.467837,136.910684 242.764468,137.269069 241.984777,137.392560 241.205086,137.269069 240.501717,136.910684 239.943520,136.352487 239.585136,135.649118 239.461645,134.869427 239.585136,134.089737 239.943520,133.386367 240.501717,132.828170 241.205086,132.469786"/>
<polygon style="fill: #0000ff; stroke: #000000; stroke-width: 1.000000; stroke-linejoin: miter; stroke-linecap: butt;  opacity: 0.700971" clip-path="url(#4685744057707115011)" points = "161.386376,224.027103 162.166067,224.150594 162.869436,224.508979 163.427633,225.067176 163.786018,225.770545 163.909509,226.550236 163.786018,227.329926 163.427633,228.033296 162.869436,228.591493 162.166067,228.949877 161.386376,229.073368 160.606685,228.949877 159.903316,228.591493 159.345119,228.033296 158.986735,227.329926 158.863244,226.550236 158.986735,225.770545 159.345119,225.067176 159.903316,224.508979 160.606685,224.150594"/>
<polygon style="fill: #0000ff; stroke: #000000; stroke-width: 1.000000; stroke-linejoin: miter; stroke-linecap: butt;  opacity: 0.626407" clip-path="url(#4685744057707115011)" points = "188.998749,206.978226 189.778440,207.101717 190.481809,207.460102 191.040006,208.018299 191.398391,208.721668 191.521882,209.501359 191.398391,210.281050 191.040006,210.984419 190.481809,211.542616 189.778440,211.901001 188.998749,212.024491 188.219058,211.901001 187.515689,211.542616 186.957492,210.984419 186.599108,210.281050 186.475617,209.501359 186.599108,208.721668 186.957492,208.018299 187.515689,207.460102 188.219058,207.101717"/>
<polygon style="fill: #0000ff; stroke: #000000; stroke-width: 1.000000; stroke-linejoin: miter; stroke-linecap: butt;  opacity: 0.482732" clip-path="url(#4685744057707115011)" points = "242.204044,174.127355 242.983735,174.250846 243.687104,174.609231 244.245301,175.167428 244.603685,175.870797 244.727176,176.650488 244.603685,177.430179 244.245301,178.133548 243.687104,178.691745 242.983735,179.050129 242.204044,179.173620 241.424353,179.050129 240.720984,178.691745 240.162787,178.133548 239.804402,177.430179 239.680911,176.650488 239.804402,175.870797 240.162787,175.167428 240.720984,174.609231 241.424353,174.250846"/>
<polygon style="fill: #0000ff; stroke: #000000; stroke-width: 1.000000; stroke-linejoin: miter; stroke-linecap: butt;  opacity: 0.553683" clip-path="url(#4685744057707115011)" points = "215.929665,190.350106 216.709356,190.473597 217.412725,190.831981 217.970922,191.390178 218.329307,192.093548 218.452798,192.873238 218.329307,193.652929 217.970922,194.356298 217.412725,194.914495 216.709356,195.272880 215.929665,195.396371 215.149974,195.272880 214.446605,194.914495 213.888408,194.356298 213.530024,193.652929 213.406533,192.873238 213.530024,192.093548 213.888408,191.390178 214.446605,190.831981 215.149974,190.473597"/>
<polygon style="fill: #0000ff; stroke: #000000; stroke-width: 1.000000; stroke-linejoin: miter; stroke-linecap: butt;  opacity: 0.413490" clip-path="url(#4685744057707115011)" points = "267.845604,158.295330 268.625295,158.418821 269.328664,158.777205 269.886861,159.335402 270.245245,160.038771 270.368736,160.818462 270.245245,161.598153 269.886861,162.301522 269.328664,162.859719 268.625295,163.218104 267.845604,163.341595 267.065913,163.218104 266.362544,162.859719 265.804347,162.301522 265.445962,161.598153 265.322471,160.818462 265.445962,160.038771 265.804347,159.335402 266.362544,158.777205 267.065913,158.418821"/>
<polygon style="fill: #0000ff; stroke: #000000; stroke-width: 1.000000; stroke-linejoin: miter; stroke-linecap: butt;  opacity: 0.831590" clip-path="url(#4685744057707115011)" points = "187.386607,253.892575 188.166298,254.016066 188.869667,254.374450 189.427864,254.932647 189.786249,255.636016 189.909740,256.415707 189.786249,257.195398 189.427864,257.898767 188.869667,258.456964 188.166298,258.815349 187.386607,258.938840 186.606917,258.815349 185.903547,258.456964 185.345350,257.898767 184.986966,257.195398 184.863475,256.415707 184.986966,255.636016 185.345350,254.932647 185.903547,254.374450 186.606917,254.016066"/>
<polygon style="fill: #0000ff; stroke: #000000; stroke-width: 1.000000; stroke-linejoin: miter; stroke-linecap: butt;  opacity: 0.345895" clip-path="url(#4685744057707115011)" points = "292.876936,142.840081 293.656626,142.963572 294.359996,143.321956 294.918193,143.880153 295.276577,144.583523 295.400068,145.363214 295.276577,146.142904 294.918193,146.846274 294.359996,147.404471 293.656626,147.762855 292.876936,147.886346 292.097245,147.762855 291.393875,147.404471 290.835678,146.846274 290.477294,146.142904 290.353803,145.363214 290.477294,144.583523 290.835678,143.880153 291.393875,143.321956 292.097245,142.963572"/>
<polygon style="fill: #0000ff; stroke: #000000; stroke-width: 1.000000; stroke-linejoin: miter; stroke-linecap: butt;  opacity: 0.753747" clip-path="url(#4685744057707115011)" points = "215.263735,236.094128 216.043426,236.217618 216.746795,236.576003 217.304992,237.134200 217.663376,237.837569 217.786867,238.617260 217.663376,239.396951 217.304992,240.100320 216.746795,240.658517 216.043426,241.016902 215.263735,241.140393 214.484044,241.016902 213.780675,240.658517 213.222478,240.100320 212.864093,239.396951 212.740602,238.617260 212.864093,237.837569 213.222478,237.134200 213.780675,236.576003 214.484044,236.217618"/>
<polygon style="fill: #0000ff; stroke: #000000; stroke-width: 1.000000; stroke-linejoin: miter; stroke-linecap: butt;  opacity: 0.677867" clip-path="url(#4685744057707115011)" points = "242.438193,218.744307 243.217884,218.867798 243.921253,219.226182 244.479450,219.784379 244.837835,220.487748 244.961326,221.267439 244.837835,222.047130 244.479450,222.750499 243.921253,223.308696 243.217884,223.667081 242.438193,223.790572 241.658502,223.667081 240.955133,223.308696 240.396936,222.750499 240.038552,222.047130 239.915061,221.267439 240.038552,220.487748 240.396936,219.784379 240.955133,219.226182 241.658502,218.867798"/>
<polygon style="fill: #0000ff; stroke: #000000; stroke-width: 1.000000; stroke-linejoin: miter; stroke-linecap: butt;  opacity: 0.603875" clip-path="url(#4685744057707115011)" points = "268.936219,201.826361 269.715910,201.949852 270.419279,202.308237 270.977476,202.866434 271.335861,203.569803 271.459352,204.349494 271.335861,205.129185 270.977476,205.832554 270.419279,206.390751 269.715910,206.749136 268.936219,206.872626 268.156528,206.749136 267.453159,206.390751 266.894962,205.832554 266.536578,205.129185 266.413087,204.349494 266.536578,203.569803 266.894962,202.866434 267.453159,202.308237 268.156528,201.949852"/>
<polygon style="fill: #0000ff; stroke: #000000; stroke-width: 1.000000; stroke-linejoin: miter; stroke-linecap: butt;  opacity: 0.886712" clip-path="url(#4685744057707115011)" points = "242.688794,266.496022 243.468485,266.619513 244.171854,266.977897 244.730051,267.536094 245.088435,268.239463 245.211926,269.019154 245.088435,269.798845 244.730051,270.502214 244.171854,271.060411 243.468485,271.418796 242.688794,271.542287 241.909103,271.418796 241.205734,271.060411 240.647537,270.502214 240.289152,269.798845 240.165661,269.019154 240.289152,268.239463 240.647537,267.536094 241.205734,266.977897 241.909103,266.619513"/>
<polygon style="fill: #0000ff; stroke: #000000; stroke-width: 1.000000; stroke-linejoin: miter; stroke-linecap: butt;  opacity: 0.461283" clip-path="url(#4685744057707115011)" points = "320.001548,169.223162 320.781238,169.346653 321.484608,169.705037 322.042805,170.263234 322.401189,170.966603 322.524680,171.746294 322.401189,172.525985 322.042805,173.229354 321.484608,173.787551 320.781238,174.145936 320.001548,174.269427 319.221857,174.145936 318.518488,173.787551 317.960291,173.229354 317.601906,172.525985 317.478415,171.746294 317.601906,170.966603 317.960291,170.263234 318.518488,169.705037 319.221857,169.346653"/>
<polygon style="fill: #0000ff; stroke: #000000; stroke-width: 1.000000; stroke-linejoin: miter; stroke-linecap: butt;  opacity: 0.531703" clip-path="url(#4685744057707115011)" points = "294.782759,185.324364 295.562450,185.447855 296.265819,185.806240 296.824016,186.364437 297.182401,187.067806 297.305892,187.847497 297.182401,188.627188 296.824016,189.330557 296.265819,189.888754 295.562450,190.247138 294.782759,190.370629 294.003068,190.247138 293.299699,189.888754 292.741502,189.330557 292.383117,188.627188 292.259627,187.847497 292.383117,187.067806 292.741502,186.364437 293.299699,185.806240 294.003068,185.447855"/>
<polygon style="fill: #0000ff; stroke: #000000; stroke-width: 1.000000; stroke-linejoin: miter; stroke-linecap: butt;  opacity: 0.392553" clip-path="url(#4685744057707115011)" points = "344.615180,153.508327 345.394871,153.631818 346.098240,153.990203 346.656437,154.548400 347.014822,155.251769 347.138313,156.031460 347.014822,156.811151 346.656437,157.514520 346.098240,158.072717 345.394871,158.431101 344.615180,158.554592 343.835489,158.431101 343.132120,158.072717 342.573923,157.514520 342.215539,156.811151 342.092048,156.031460 342.215539,155.251769 342.573923,154.548400 343.132120,153.990203 343.835489,153.631818"/>
<polygon style="fill: #0000ff; stroke: #000000; stroke-width: 1.000000; stroke-linejoin: miter; stroke-linecap: butt;  opacity: 0.807465" clip-path="url(#4685744057707115011)" points = "270.102474,248.376474 270.882165,248.499965 271.585534,248.858350 272.143731,249.416547 272.502115,250.119916 272.625606,250.899607 272.502115,251.679298 272.143731,252.382667 271.585534,252.940864 270.882165,253.299249 270.102474,253.422739 269.322783,253.299249 268.619414,252.940864 268.061217,252.382667 267.702832,251.679298 267.579341,250.899607 267.702832,250.119916 268.061217,249.416547 268.619414,248.858350 269.322783,248.499965"/>
<polygon style="fill: #0000ff; stroke: #000000; stroke-width: 1.000000; stroke-linejoin: miter; stroke-linecap: butt;  opacity: 0.730233" clip-path="url(#4685744057707115011)" points = "296.819080,230.717670 297.598771,230.841161 298.302140,231.199546 298.860337,231.757743 299.218722,232.461112 299.342213,233.240803 299.218722,234.020494 298.860337,234.723863 298.302140,235.282060 297.598771,235.640444 296.819080,235.763935 296.039389,235.640444 295.336020,235.282060 294.777823,234.723863 294.419438,234.020494 294.295947,233.240803 294.419438,232.461112 294.777823,231.757743 295.336020,231.199546 296.039389,230.841161"/>
<polygon style="fill: #0000ff; stroke: #000000; stroke-width: 1.000000; stroke-linejoin: miter; stroke-linecap: butt;  opacity: 0.654940" clip-path="url(#4685744057707115011)" points = "322.864866,213.502256 323.644557,213.625747 324.347926,213.984131 324.906123,214.542328 325.264508,215.245698 325.387999,216.025389 325.264508,216.805079 324.906123,217.508449 324.347926,218.066646 323.644557,218.425030 322.864866,218.548521 322.085175,218.425030 321.381806,218.066646 320.823609,217.508449 320.465225,216.805079 320.341734,216.025389 320.465225,215.245698 320.823609,214.542328 321.381806,213.984131 322.085175,213.625747"/>
<polygon style="fill: #0000ff; stroke: #000000; stroke-width: 1.000000; stroke-linejoin: miter; stroke-linecap: butt;  opacity: 0.942839" clip-path="url(#4685744057707115011)" points = "298.999777,279.329375 299.779467,279.452866 300.482837,279.811250 301.041034,280.369447 301.399418,281.072816 301.522909,281.852507 301.399418,282.632198 301.041034,283.335567 300.482837,283.893764 299.779467,284.252149 298.999777,284.375640 298.220086,284.252149 297.516716,283.893764 296.958519,283.335567 296.600135,282.632198 296.476644,281.852507 296.600135,281.072816 296.958519,280.369447 297.516716,279.811250 298.220086,279.452866"/>
<polygon style="fill: #0000ff; stroke: #000000; stroke-width: 1.000000; stroke-linejoin: miter; stroke-linecap: butt;  opacity: 0.581515" clip-path="url(#4685744057707115011)" points = "348.264785,196.713739 349.044475,196.837230 349.747845,197.195615 350.306042,197.753812 350.664426,198.457181 350.787917,199.236872 350.664426,200.016563 350.306042,200.719932 349.747845,201.278129 349.044475,201.636514 348.264785,201.760005 347.485094,201.636514 346.781725,201.278129 346.223528,200.719932 345.865143,200.016563 345.741652,199.236872 345.865143,198.457181 346.223528,197.753812 346.781725,197.195615 347.485094,196.837230"/>
<polygon style="fill: #0000ff; stroke: #000000; stroke-width: 1.000000; stroke-linejoin: miter; stroke-linecap: butt;  opacity: 0.509888" clip-path="url(#4685744057707115011)" points = "373.042564,180.336436 373.822255,180.459927 374.525625,180.818312 375.083822,181.376509 375.442206,182.079878 375.565697,182.859569 375.442206,183.639259 375.083822,184.342629 374.525625,184.900826 373.822255,185.259210 373.042564,185.382701 372.262874,185.259210 371.559504,184.900826 371.001307,184.342629 370.642923,183.639259 370.519432,182.859569 370.642923,182.079878 371.001307,181.376509 371.559504,180.818312 372.262874,180.459927"/>
<polygon style="fill: #0000ff; stroke: #000000; stroke-width: 1.000000; stroke-linejoin: miter; stroke-linecap: butt;  opacity: 0.439994" clip-path="url(#4685744057707115011)" points = "397.220787,164.355421 398.000478,164.478911 398.703847,164.837296 399.262044,165.395493 399.620429,166.098862 399.743920,166.878553 399.620429,167.658244 399.262044,168.361613 398.703847,168.919810 398.000478,169.278195 397.220787,169.401686 396.441096,169.278195 395.737727,168.919810 395.179530,168.361613 394.821145,167.658244 394.697655,166.878553 394.821145,166.098862 395.179530,165.395493 395.737727,164.837296 396.441096,164.478911"/>
<polygon style="fill: #0000ff; stroke: #000000; stroke-width: 1.000000; stroke-linejoin: miter; stroke-linecap: butt;  opacity: 0.862150" clip-path="url(#4685744057707115011)" points = "325.928557,260.879959 326.708248,261.003450 327.411617,261.361834 327.969814,261.920031 328.328199,262.623401 328.451690,263.403091 328.328199,264.182782 327.969814,264.886151 327.411617,265.444348 326.708248,265.802733 325.928557,265.926224 325.148866,265.802733 324.445497,265.444348 323.887300,264.886151 323.528916,264.182782 323.405425,263.403091 323.528916,262.623401 323.887300,261.920031 324.445497,261.361834 325.148866,261.003450"/>
<polygon style="fill: #0000ff; stroke: #000000; stroke-width: 1.000000; stroke-linejoin: miter; stroke-linecap: butt;  opacity: 0.783530" clip-path="url(#4685744057707115011)" points = "352.166509,242.903843 352.946200,243.027334 353.649569,243.385718 354.207766,243.943915 354.566151,244.647285 354.689641,245.426975 354.566151,246.206666 354.207766,246.910036 353.649569,247.468233 352.946200,247.826617 352.166509,247.950108 351.386818,247.826617 350.683449,247.468233 350.125252,246.910036 349.766867,246.206666 349.643376,245.426975 349.766867,244.647285 350.125252,243.943915 350.683449,243.385718 351.386818,243.027334"/>
<polygon style="fill: #0000ff; stroke: #000000; stroke-width: 1.000000; stroke-linejoin: miter; stroke-linecap: butt;  opacity: 0.706902" clip-path="url(#4685744057707115011)" points = "377.739879,225.383045 378.519569,225.506536 379.222939,225.864920 379.781136,226.423117 380.139520,227.126486 380.263011,227.906177 380.139520,228.685868 379.781136,229.389237 379.222939,229.947434 378.519569,230.305819 377.739879,230.429310 376.960188,230.305819 376.256819,229.947434 375.698622,229.389237 375.340237,228.685868 375.216746,227.906177 375.340237,227.126486 375.698622,226.423117 376.256819,225.864920 376.960188,225.506536"/>
<polygon style="fill: #0000ff; stroke: #000000; stroke-width: 1.000000; stroke-linejoin: miter; stroke-linecap: butt;  opacity: 1.000000" clip-path="url(#4685744057707115011)" points = "356.347413,292.398983 357.127104,292.522473 357.830473,292.880858 358.388670,293.439055 358.747055,294.142424 358.870545,294.922115 358.747055,295.701806 358.388670,296.405175 357.830473,296.963372 357.127104,297.321757 356.347413,297.445248 355.567722,297.321757 354.864353,296.963372 354.306156,296.405175 353.947771,295.701806 353.824280,294.922115 353.947771,294.142424 354.306156,293.439055 354.864353,292.880858 355.567722,292.522473"/>
<polygon style="fill: #0000ff; stroke: #000000; stroke-width: 1.000000; stroke-linejoin: miter; stroke-linecap: butt;  opacity: 0.632190" clip-path="url(#4685744057707115011)" points = "402.673600,208.300481 403.453291,208.423972 404.156660,208.782357 404.714857,209.340554 405.073242,210.043923 405.196733,210.823614 405.073242,211.603305 404.714857,212.306674 404.156660,212.864871 403.453291,213.223255 402.673600,213.346746 401.893910,213.223255 401.190540,212.864871 400.632343,212.306674 400.273959,211.603305 400.150468,210.823614 400.273959,210.043923 400.632343,209.340554 401.190540,208.782357 401.893910,208.423972"/>
<polygon style="fill: #0000ff; stroke: #000000; stroke-width: 1.000000; stroke-linejoin: miter; stroke-linecap: butt;  opacity: 0.559324" clip-path="url(#4685744057707115011)" points = "426.991376,191.639914 427.771067,191.763405 428.474437,192.121789 429.032634,192.679986 429.391018,193.383356 429.514509,194.163046 429.391018,194.942737 429.032634,195.646107 428.474437,196.204304 427.771067,196.562688 426.991376,196.686179 426.211686,196.562688 425.508316,196.204304 424.950119,195.646107 424.591735,194.942737 424.468244,194.163046 424.591735,193.383356 424.950119,192.679986 425.508316,192.121789 426.211686,191.763405"/>
<polygon style="fill: #0000ff; stroke: #000000; stroke-width: 1.000000; stroke-linejoin: miter; stroke-linecap: butt;  opacity: 0.488236" clip-path="url(#4685744057707115011)" points = "450.715752,175.385896 451.495443,175.509387 452.198812,175.867772 452.757009,176.425969 453.115394,177.129338 453.238885,177.909029 453.115394,178.688720 452.757009,179.392089 452.198812,179.950286 451.495443,180.308671 450.715752,180.432161 449.936061,180.308671 449.232692,179.950286 448.674495,179.392089 448.316110,178.688720 448.192620,177.909029 448.316110,177.129338 448.674495,176.425969 449.232692,175.867772 449.936061,175.509387"/>
<polygon style="fill: #0000ff; stroke: #000000; stroke-width: 1.000000; stroke-linejoin: miter; stroke-linecap: butt;  opacity: 0.917828" clip-path="url(#4685744057707115011)" points = "382.768892,273.610607 383.548583,273.734098 384.251952,274.092483 384.810149,274.650680 385.168534,275.354049 385.292025,276.133740 385.168534,276.913431 384.810149,277.616800 384.251952,278.174997 383.548583,278.533381 382.768892,278.656872 381.989202,278.533381 381.285832,278.174997 380.727635,277.616800 380.369251,276.913431 380.245760,276.133740 380.369251,275.354049 380.727635,274.650680 381.285832,274.092483 381.989202,273.734098"/>
<polygon style="fill: #0000ff; stroke: #000000; stroke-width: 1.000000; stroke-linejoin: miter; stroke-linecap: butt;  opacity: 0.837783" clip-path="url(#4685744057707115011)" points = "408.506479,255.308549 409.286170,255.432040 409.989539,255.790425 410.547736,256.348622 410.906121,257.051991 411.029612,257.831682 410.906121,258.611373 410.547736,259.314742 409.989539,259.872939 409.286170,260.231324 408.506479,260.354814 407.726789,260.231324 407.023419,259.872939 406.465222,259.314742 406.106838,258.611373 405.983347,257.831682 406.106838,257.051991 406.465222,256.348622 407.023419,255.790425 407.726789,255.432040"/>
<polygon style="fill: #0000ff; stroke: #000000; stroke-width: 1.000000; stroke-linejoin: miter; stroke-linecap: butt;  opacity: 0.759783" clip-path="url(#4685744057707115011)" points = "433.586388,237.474169 434.366078,237.597659 435.069448,237.956044 435.627645,238.514241 435.986029,239.217610 436.109520,239.997301 435.986029,240.776992 435.627645,241.480361 435.069448,242.038558 434.366078,242.396943 433.586388,242.520434 432.806697,242.396943 432.103327,242.038558 431.545130,241.480361 431.186746,240.776992 431.063255,239.997301 431.186746,239.217610 431.545130,238.514241 432.103327,237.956044 432.806697,237.597659"/>
<polygon style="fill: #0000ff; stroke: #000000; stroke-width: 1.000000; stroke-linejoin: miter; stroke-linecap: butt;  opacity: 0.683751" clip-path="url(#4685744057707115011)" points = "458.033508,220.089765 458.813198,220.213256 459.516568,220.571640 460.074765,221.129837 460.433149,221.833206 460.556640,222.612897 460.433149,223.392588 460.074765,224.095957 459.516568,224.654154 458.813198,225.012539 458.033508,225.136030 457.253817,225.012539 456.550448,224.654154 455.992251,224.095957 455.633866,223.392588 455.510375,222.612897 455.633866,221.833206 455.992251,221.129837 456.550448,220.571640 457.253817,220.213256"/>
<polygon style="fill: #0000ff; stroke: #000000; stroke-width: 1.000000; stroke-linejoin: miter; stroke-linecap: butt;  opacity: 0.609614" clip-path="url(#4685744057707115011)" points = "481.871490,203.138520 482.651181,203.262011 483.354550,203.620396 483.912747,204.178593 484.271132,204.881962 484.394622,205.661653 484.271132,206.441344 483.912747,207.144713 483.354550,207.702910 482.651181,208.061294 481.871490,208.184785 481.091799,208.061294 480.388430,207.702910 479.830233,207.144713 479.471848,206.441344 479.348357,205.661653 479.471848,204.881962 479.830233,204.178593 480.388430,203.620396 481.091799,203.262011"/>
<polygon style="fill: #0000ff; stroke: #000000; stroke-width: 1.000000; stroke-linejoin: miter; stroke-linecap: butt;  opacity: 0.537301" clip-path="url(#4685744057707115011)" points = "505.122821,186.604445 505.902512,186.727936 506.605881,187.086320 507.164078,187.644517 507.522462,188.347887 507.645953,189.127577 507.522462,189.907268 507.164078,190.610638 506.605881,191.168835 505.902512,191.527219 505.122821,191.650710 504.343130,191.527219 503.639761,191.168835 503.081564,190.610638 502.723179,189.907268 502.599688,189.127577 502.723179,188.347887 503.081564,187.644517 503.639761,187.086320 504.343130,186.727936"/>
</g>
<g id="matplotlib.axis1">
</g>
<g id="matplotlib.axis2">
</g>
</g>
</g>
</svg>
