<?xml version="1.0" standalone="no"?>
<!DOCTYPE svg PUBLIC "-//W3C//DTD SVG 1.1//EN"
  "http://www.w3.org/Graphics/SVG/1.1/DTD/svg11.dtd">
<!-- Created with matplotlib (http://matplotlib.sourceforge.net/) -->
<svg width="576" height="432" viewBox="0 0 576 432"
   xmlns="http://www.w3.org/2000/svg"
   xmlns:xlink="http://www.w3.org/1999/xlink"
   version="1.1"
   id="svg1">
<g id="figure1">
<polygon style="fill: #ffffff; stroke: #ffffff; stroke-width: 1.000000; stroke-linejoin: miter; stroke-linecap: square;  opacity: 1.000000"  points = "0.000000,432.000000 0.000000,0.000000 576.000000,0.000000 576.000000,432.000000"/>
<polygon style="fill: #ffffff; opacity: 1.000000"  points = "0.000000,432.000000 0.000000,0.000000 576.000000,0.000000 576.000000,432.000000"/>
<g id="axis3d1">
<polygon style="fill: #f2f2f2; stroke: #f2f2f2; stroke-width: 1.000000; stroke-linejoin: miter; stroke-linecap: square;  opacity: 0.100000"  points = "241.211914,230.626613 508.260241,289.840834 519.433224,81.348607 238.467267,28.237352"/>
<path style="fill: none; stroke: #000000; stroke-width: 0.750000; stroke-linejoin: miter; stroke-linecap: square;  opacity: 1.000000"  d="M 76.357701,336.543225 L 357.328625,405.507833 "/>
<text style="font-size: 12.000000; font-family: Bitstream Vera Sans; font-style: Roman; fill: #000000;" x="141.598101" y="383.874575" transform="translate(141.598101,383.874575) rotate(-341.9) translate(-141.598101,-383.874575)">min_call_probability</text>
<g id="linecollection1">
<path style="fill: none; stroke: #e6e6e6; stroke-width: 1.000000; stroke-linejoin: miter; stroke-linecap: butt;  opacity: 1.000000"  d="M 81.730847,337.862069 L 246.335639,231.762727 L 243.846516,29.254197 "/>
<path style="fill: none; stroke: #e6e6e6; stroke-width: 1.000000; stroke-linejoin: miter; stroke-linecap: butt;  opacity: 1.000000"  d="M 125.064523,348.498365 L 287.633711,240.919995 L 287.220571,37.453235 "/>
<path style="fill: none; stroke: #e6e6e6; stroke-width: 1.000000; stroke-linejoin: miter; stroke-linecap: butt;  opacity: 1.000000"  d="M 169.027317,359.289079 L 329.487668,250.200523 L 331.208258,45.768268 "/>
<path style="fill: none; stroke: #e6e6e6; stroke-width: 1.000000; stroke-linejoin: miter; stroke-linecap: butt;  opacity: 1.000000"  d="M 213.633031,370.237599 L 371.908809,259.606816 L 375.822692,54.201775 "/>
<path style="fill: none; stroke: #e6e6e6; stroke-width: 1.000000; stroke-linejoin: miter; stroke-linecap: butt;  opacity: 1.000000"  d="M 258.895872,381.347411 L 414.908741,269.141448 L 421.077363,62.756308 "/>
<path style="fill: none; stroke: #e6e6e6; stroke-width: 1.000000; stroke-linejoin: miter; stroke-linecap: butt;  opacity: 1.000000"  d="M 304.830469,392.622106 L 458.499392,278.807063 L 466.986154,71.434489 "/>
<path style="fill: none; stroke: #e6e6e6; stroke-width: 1.000000; stroke-linejoin: miter; stroke-linecap: butt;  opacity: 1.000000"  d="M 351.451887,404.065382 L 502.693018,288.606380 L 513.563349,80.239019 "/>
</g>
<g id="xtick1">
<text style="font-size: 12.000000; font-family: Bitstream Vera Sans; font-style: Roman; fill: #000000;" x="74.730847" y="342.362069" >70</text>
<path style="fill: none; stroke: #000000; stroke-width: 1.000000; stroke-linejoin: miter; stroke-linecap: square;  opacity: 1.000000"  d="M 81.730847,337.862069 L 79.242567,345.465257 "/>
</g>
<g id="xtick2">
<text style="font-size: 12.000000; font-family: Bitstream Vera Sans; font-style: Roman; fill: #000000;" x="118.064523" y="352.998365" >75</text>
<path style="fill: none; stroke: #000000; stroke-width: 1.000000; stroke-linejoin: miter; stroke-linecap: square;  opacity: 1.000000"  d="M 125.064523,348.498365 L 122.576242,356.101553 "/>
</g>
<g id="xtick3">
<text style="font-size: 12.000000; font-family: Bitstream Vera Sans; font-style: Roman; fill: #000000;" x="162.027317" y="363.789079" >80</text>
<path style="fill: none; stroke: #000000; stroke-width: 1.000000; stroke-linejoin: miter; stroke-linecap: square;  opacity: 1.000000"  d="M 169.027317,359.289079 L 166.539037,366.892267 "/>
</g>
<g id="xtick4">
<text style="font-size: 12.000000; font-family: Bitstream Vera Sans; font-style: Roman; fill: #000000;" x="206.633031" y="374.737599" >85</text>
<path style="fill: none; stroke: #000000; stroke-width: 1.000000; stroke-linejoin: miter; stroke-linecap: square;  opacity: 1.000000"  d="M 213.633031,370.237599 L 211.144751,377.840786 "/>
</g>
<g id="xtick5">
<text style="font-size: 12.000000; font-family: Bitstream Vera Sans; font-style: Roman; fill: #000000;" x="251.895872" y="385.847411" >90</text>
<path style="fill: none; stroke: #000000; stroke-width: 1.000000; stroke-linejoin: miter; stroke-linecap: square;  opacity: 1.000000"  d="M 258.895872,381.347411 L 256.407592,388.950598 "/>
</g>
<g id="xtick6">
<text style="font-size: 12.000000; font-family: Bitstream Vera Sans; font-style: Roman; fill: #000000;" x="297.830469" y="397.122106" >95</text>
<path style="fill: none; stroke: #000000; stroke-width: 1.000000; stroke-linejoin: miter; stroke-linecap: square;  opacity: 1.000000"  d="M 304.830469,392.622106 L 302.342189,400.225293 "/>
</g>
<g id="xtick7">
<text style="font-size: 12.000000; font-family: Bitstream Vera Sans; font-style: Roman; fill: #000000;" x="340.451887" y="408.565382" >100</text>
<path style="fill: none; stroke: #000000; stroke-width: 1.000000; stroke-linejoin: miter; stroke-linecap: square;  opacity: 1.000000"  d="M 351.451887,404.065382 L 348.963607,411.668569 "/>
</g>
</g>
<g id="axis3d2">
<polygon style="fill: #e6e6e6; stroke: #e6e6e6; stroke-width: 1.000000; stroke-linejoin: miter; stroke-linecap: square;  opacity: 0.500000"  points = "76.357701,336.543225 241.211914,230.626613 238.467267,28.237352 64.421350,123.401250"/>
<path style="fill: none; stroke: #000000; stroke-width: 0.750000; stroke-linejoin: miter; stroke-linecap: square;  opacity: 1.000000"  d="M 357.328625,405.507833 L 508.260241,289.840834 "/>
<text style="font-size: 12.000000; font-family: Bitstream Vera Sans; font-style: Roman; fill: #000000;" x="410.920465" y="424.411092" transform="translate(410.920465,424.411092) rotate(-45.6) translate(-410.920465,-424.411092)">max_call_mismatch_rate</text>
<g id="linecollection2">
<path style="fill: none; stroke: #e6e6e6; stroke-width: 1.000000; stroke-linejoin: miter; stroke-linecap: butt;  opacity: 1.000000"  d="M 360.586508,403.011142 L 79.904448,334.264487 L 68.180167,121.346024 "/>
<path style="fill: none; stroke: #e6e6e6; stroke-width: 1.000000; stroke-linejoin: miter; stroke-linecap: butt;  opacity: 1.000000"  d="M 391.334149,379.447575 L 113.403632,312.741713 L 103.651211,101.951356 "/>
<path style="fill: none; stroke: #e6e6e6; stroke-width: 1.000000; stroke-linejoin: miter; stroke-linecap: butt;  opacity: 1.000000"  d="M 421.155645,356.593762 L 145.937509,291.839135 L 138.046299,83.144993 "/>
<path style="fill: none; stroke: #e6e6e6; stroke-width: 1.000000; stroke-linejoin: miter; stroke-linecap: butt;  opacity: 1.000000"  d="M 450.092220,334.418111 L 177.547210,271.530328 L 171.413658,64.900567 "/>
<path style="fill: none; stroke: #e6e6e6; stroke-width: 1.000000; stroke-linejoin: miter; stroke-linecap: butt;  opacity: 1.000000"  d="M 478.182688,312.890878 L 208.271564,251.790344 L 203.798671,47.193262 "/>
<path style="fill: none; stroke: #e6e6e6; stroke-width: 1.000000; stroke-linejoin: miter; stroke-linecap: butt;  opacity: 1.000000"  d="M 505.463623,291.984033 L 238.147253,232.595617 L 235.244090,29.999704 "/>
</g>
<g id="xtick8">
<text style="font-size: 12.000000; font-family: Bitstream Vera Sans; font-style: Roman; fill: #000000;" x="347.586508" y="407.511142" >0.05</text>
<path style="fill: none; stroke: #000000; stroke-width: 1.000000; stroke-linejoin: miter; stroke-linecap: square;  opacity: 1.000000"  d="M 360.586508,403.011142 L 366.304039,408.606662 "/>
</g>
<g id="xtick9">
<text style="font-size: 12.000000; font-family: Bitstream Vera Sans; font-style: Roman; fill: #000000;" x="378.334149" y="383.947575" >0.10</text>
<path style="fill: none; stroke: #000000; stroke-width: 1.000000; stroke-linejoin: miter; stroke-linecap: square;  opacity: 1.000000"  d="M 391.334149,379.447575 L 397.051679,385.043095 "/>
</g>
<g id="xtick10">
<text style="font-size: 12.000000; font-family: Bitstream Vera Sans; font-style: Roman; fill: #000000;" x="408.155645" y="361.093762" >0.15</text>
<path style="fill: none; stroke: #000000; stroke-width: 1.000000; stroke-linejoin: miter; stroke-linecap: square;  opacity: 1.000000"  d="M 421.155645,356.593762 L 426.873175,362.189282 "/>
</g>
<g id="xtick11">
<text style="font-size: 12.000000; font-family: Bitstream Vera Sans; font-style: Roman; fill: #000000;" x="437.092220" y="338.918111" >0.20</text>
<path style="fill: none; stroke: #000000; stroke-width: 1.000000; stroke-linejoin: miter; stroke-linecap: square;  opacity: 1.000000"  d="M 450.092220,334.418111 L 455.809750,340.013631 "/>
</g>
<g id="xtick12">
<text style="font-size: 12.000000; font-family: Bitstream Vera Sans; font-style: Roman; fill: #000000;" x="465.182688" y="317.390878" >0.25</text>
<path style="fill: none; stroke: #000000; stroke-width: 1.000000; stroke-linejoin: miter; stroke-linecap: square;  opacity: 1.000000"  d="M 478.182688,312.890878 L 483.900218,318.486398 "/>
</g>
<g id="xtick13">
<text style="font-size: 12.000000; font-family: Bitstream Vera Sans; font-style: Roman; fill: #000000;" x="492.463623" y="296.484033" >0.30</text>
<path style="fill: none; stroke: #000000; stroke-width: 1.000000; stroke-linejoin: miter; stroke-linecap: square;  opacity: 1.000000"  d="M 505.463623,291.984033 L 511.181153,297.579553 "/>
</g>
</g>
<g id="axis3d3">
<polygon style="fill: #f2f2f2; stroke: #f2f2f2; stroke-width: 1.000000; stroke-linejoin: miter; stroke-linecap: square;  opacity: 0.100000"  points = "76.357701,336.543225 357.328625,405.507833 508.260241,289.840834 241.211914,230.626613"/>
<path style="fill: none; stroke: #000000; stroke-width: 0.750000; stroke-linejoin: miter; stroke-linecap: square;  opacity: 1.000000"  d="M 76.357701,336.543225 L 64.421350,123.401250 "/>
<text style="font-size: 12.000000; font-family: Bitstream Vera Sans; font-style: Roman; fill: #000000;" x="44.895489" y="345.616700" transform="translate(44.895489,345.616700) rotate(-92.4) translate(-44.895489,-345.616700)">no_of_monomorphic_snps_removed</text>
<g id="linecollection3">
<path style="fill: none; stroke: #e6e6e6; stroke-width: 1.000000; stroke-linejoin: miter; stroke-linecap: butt;  opacity: 1.000000"  d="M 76.131056,332.496136 L 241.159600,226.768965 L 508.472750,285.875342 "/>
<path style="fill: none; stroke: #e6e6e6; stroke-width: 1.000000; stroke-linejoin: miter; stroke-linecap: butt;  opacity: 1.000000"  d="M 74.300904,299.815941 L 240.737445,195.639460 L 510.188244,253.863550 "/>
<path style="fill: none; stroke: #e6e6e6; stroke-width: 1.000000; stroke-linejoin: miter; stroke-linecap: butt;  opacity: 1.000000"  d="M 72.439998,266.586586 L 240.308715,164.025048 L 511.931637,221.331161 "/>
<path style="fill: none; stroke: #e6e6e6; stroke-width: 1.000000; stroke-linejoin: miter; stroke-linecap: butt;  opacity: 1.000000"  d="M 70.547556,232.794112 L 239.873254,131.914310 L 513.703614,188.265371 "/>
<path style="fill: none; stroke: #e6e6e6; stroke-width: 1.000000; stroke-linejoin: miter; stroke-linecap: butt;  opacity: 1.000000"  d="M 68.622770,198.424081 L 239.430902,99.295467 L 515.504884,154.652955 "/>
<path style="fill: none; stroke: #e6e6e6; stroke-width: 1.000000; stroke-linejoin: miter; stroke-linecap: butt;  opacity: 1.000000"  d="M 66.664803,163.461560 L 238.981495,66.156361 L 517.336181,120.480244 "/>
<path style="fill: none; stroke: #e6e6e6; stroke-width: 1.000000; stroke-linejoin: miter; stroke-linecap: butt;  opacity: 1.000000"  d="M 64.672790,127.891094 L 238.524862,32.484445 L 519.198260,85.733110 "/>
</g>
<g id="xtick14">
<text style="font-size: 12.000000; font-family: Bitstream Vera Sans; font-style: Roman; fill: #000000;" x="61.131056" y="336.996136" >-0.06</text>
<path style="fill: none; stroke: #000000; stroke-width: 1.000000; stroke-linejoin: miter; stroke-linecap: square;  opacity: 1.000000"  d="M 76.131056,332.496136 L 68.138103,332.831851 "/>
</g>
<g id="xtick15">
<text style="font-size: 12.000000; font-family: Bitstream Vera Sans; font-style: Roman; fill: #000000;" x="59.300904" y="304.315941" >-0.04</text>
<path style="fill: none; stroke: #000000; stroke-width: 1.000000; stroke-linejoin: miter; stroke-linecap: square;  opacity: 1.000000"  d="M 74.300904,299.815941 L 66.307951,300.151656 "/>
</g>
<g id="xtick16">
<text style="font-size: 12.000000; font-family: Bitstream Vera Sans; font-style: Roman; fill: #000000;" x="57.416560" y="271.086586" >-0.02</text>
<path style="fill: none; stroke: #000000; stroke-width: 1.000000; stroke-linejoin: miter; stroke-linecap: square;  opacity: 1.000000"  d="M 72.439998,266.586586 L 64.447045,266.922301 "/>
</g>
<g id="xtick17">
<text style="font-size: 12.000000; font-family: Bitstream Vera Sans; font-style: Roman; fill: #000000;" x="57.547556" y="237.294112" >0.00</text>
<path style="fill: none; stroke: #000000; stroke-width: 1.000000; stroke-linejoin: miter; stroke-linecap: square;  opacity: 1.000000"  d="M 70.547556,232.794112 L 62.554603,233.129827 "/>
</g>
<g id="xtick18">
<text style="font-size: 12.000000; font-family: Bitstream Vera Sans; font-style: Roman; fill: #000000;" x="55.599332" y="202.924081" >0.02</text>
<path style="fill: none; stroke: #000000; stroke-width: 1.000000; stroke-linejoin: miter; stroke-linecap: square;  opacity: 1.000000"  d="M 68.622770,198.424081 L 60.629817,198.759796 "/>
</g>
<g id="xtick19">
<text style="font-size: 12.000000; font-family: Bitstream Vera Sans; font-style: Roman; fill: #000000;" x="53.664803" y="167.961560" >0.04</text>
<path style="fill: none; stroke: #000000; stroke-width: 1.000000; stroke-linejoin: miter; stroke-linecap: square;  opacity: 1.000000"  d="M 66.664803,163.461560 L 58.671850,163.797275 "/>
</g>
<g id="xtick20">
<text style="font-size: 12.000000; font-family: Bitstream Vera Sans; font-style: Roman; fill: #000000;" x="51.672790" y="132.391094" >0.06</text>
<path style="fill: none; stroke: #000000; stroke-width: 1.000000; stroke-linejoin: miter; stroke-linecap: square;  opacity: 1.000000"  d="M 64.672790,127.891094 L 56.679837,128.226810 "/>
</g>
</g>
<g id="axes1">
<g id="regpolycollection1">
<defs>
    <clipPath id="4685744057707115011">
    <rect x="0.000000" y="0.000000" width="576.000000" height="432.000000"
    style="stroke: gray; fill: none;"/>
    </clipPath>
</defs>
<polygon style="fill: #0000ff; stroke: #000000; stroke-width: 1.000000; stroke-linejoin: miter; stroke-linecap: butt;  opacity: 0.553979" clip-path="url(#4685744057707115011)" points = "147.495500,188.827468 148.275191,188.950959 148.978560,189.309343 149.536757,189.867540 149.895141,190.570909 150.018632,191.350600 149.895141,192.130291 149.536757,192.833660 148.978560,193.391857 148.275191,193.750242 147.495500,193.873733 146.715809,193.750242 146.012440,193.391857 145.454243,192.833660 145.095858,192.130291 144.972367,191.350600 145.095858,190.570909 145.454243,189.867540 146.012440,189.309343 146.715809,188.950959"/>
<polygon style="fill: #0000ff; stroke: #000000; stroke-width: 1.000000; stroke-linejoin: miter; stroke-linecap: butt;  opacity: 0.781708" clip-path="url(#4685744057707115011)" points = "124.106605,239.470972 124.886296,239.594463 125.589665,239.952848 126.147862,240.511045 126.506247,241.214414 126.629738,241.994105 126.506247,242.773796 126.147862,243.477165 125.589665,244.035362 124.886296,244.393746 124.106605,244.517237 123.326914,244.393746 122.623545,244.035362 122.065348,243.477165 121.706963,242.773796 121.583473,241.994105 121.706963,241.214414 122.065348,240.511045 122.623545,239.952848 123.326914,239.594463"/>
<polygon style="fill: #0000ff; stroke: #000000; stroke-width: 1.000000; stroke-linejoin: miter; stroke-linecap: butt;  opacity: 0.687868" clip-path="url(#4685744057707115011)" points = "158.091025,218.602298 158.870715,218.725789 159.574085,219.084173 160.132282,219.642370 160.490666,220.345739 160.614157,221.125430 160.490666,221.905121 160.132282,222.608490 159.574085,223.166687 158.870715,223.525072 158.091025,223.648563 157.311334,223.525072 156.607964,223.166687 156.049767,222.608490 155.691383,221.905121 155.567892,221.125430 155.691383,220.345739 156.049767,219.642370 156.607964,219.084173 157.311334,218.725789"/>
<polygon style="fill: #0000ff; stroke: #000000; stroke-width: 1.000000; stroke-linejoin: miter; stroke-linecap: butt;  opacity: 0.596823" clip-path="url(#4685744057707115011)" points = "191.062932,198.355373 191.842623,198.478863 192.545992,198.837248 193.104189,199.395445 193.462573,200.098814 193.586064,200.878505 193.462573,201.658196 193.104189,202.361565 192.545992,202.919762 191.842623,203.278147 191.062932,203.401638 190.283241,203.278147 189.579872,202.919762 189.021675,202.361565 188.663290,201.658196 188.539799,200.878505 188.663290,200.098814 189.021675,199.395445 189.579872,198.837248 190.283241,198.478863"/>
<polygon style="fill: #0000ff; stroke: #000000; stroke-width: 1.000000; stroke-linejoin: miter; stroke-linecap: butt;  opacity: 0.508452" clip-path="url(#4685744057707115011)" points = "223.066912,178.702818 223.846603,178.826309 224.549972,179.184694 225.108169,179.742891 225.466554,180.446260 225.590045,181.225951 225.466554,182.005642 225.108169,182.709011 224.549972,183.267208 223.846603,183.625592 223.066912,183.749083 222.287221,183.625592 221.583852,183.267208 221.025655,182.709011 220.667271,182.005642 220.543780,181.225951 220.667271,180.446260 221.025655,179.742891 221.583852,179.184694 222.287221,178.826309"/>
<polygon style="fill: #0000ff; stroke: #000000; stroke-width: 1.000000; stroke-linejoin: miter; stroke-linecap: butt;  opacity: 0.422637" clip-path="url(#4685744057707115011)" points = "254.144971,159.618841 254.924662,159.742332 255.628031,160.100716 256.186228,160.658913 256.544613,161.362283 256.668104,162.141973 256.544613,162.921664 256.186228,163.625034 255.628031,164.183231 254.924662,164.541615 254.144971,164.665106 253.365280,164.541615 252.661911,164.183231 252.103714,163.625034 251.745329,162.921664 251.621838,162.141973 251.745329,161.362283 252.103714,160.658913 252.661911,160.100716 253.365280,159.742332"/>
<polygon style="fill: #0000ff; stroke: #000000; stroke-width: 1.000000; stroke-linejoin: miter; stroke-linecap: butt;  opacity: 0.339269" clip-path="url(#4685744057707115011)" points = "284.336718,141.079118 285.116408,141.202609 285.819778,141.560993 286.377975,142.119190 286.736359,142.822559 286.859850,143.602250 286.736359,144.381941 286.377975,145.085310 285.819778,145.643507 285.116408,146.001892 284.336718,146.125383 283.557027,146.001892 282.853657,145.643507 282.295460,145.085310 281.937076,144.381941 281.813585,143.602250 281.937076,142.822559 282.295460,142.119190 282.853657,141.560993 283.557027,141.202609"/>
<polygon style="fill: #0000ff; stroke: #000000; stroke-width: 1.000000; stroke-linejoin: miter; stroke-linecap: butt;  opacity: 0.640286" clip-path="url(#4685744057707115011)" points = "235.259384,208.020840 236.039075,208.144331 236.742444,208.502715 237.300641,209.060912 237.659025,209.764281 237.782516,210.543972 237.659025,211.323663 237.300641,212.027032 236.742444,212.585229 236.039075,212.943614 235.259384,213.067105 234.479693,212.943614 233.776324,212.585229 233.218127,212.027032 232.859742,211.323663 232.736251,210.543972 232.859742,209.764281 233.218127,209.060912 233.776324,208.502715 234.479693,208.144331"/>
<polygon style="fill: #0000ff; stroke: #000000; stroke-width: 1.000000; stroke-linejoin: miter; stroke-linecap: butt;  opacity: 0.729122" clip-path="url(#4685744057707115011)" points = "325.594636,227.776553 326.374326,227.900043 327.077696,228.258428 327.635893,228.816625 327.994277,229.519994 328.117768,230.299685 327.994277,231.079376 327.635893,231.782745 327.077696,232.340942 326.374326,232.699327 325.594636,232.822818 324.814945,232.699327 324.111575,232.340942 323.553378,231.782745 323.194994,231.079376 323.071503,230.299685 323.194994,229.519994 323.553378,228.816625 324.111575,228.258428 324.814945,227.900043"/>
<polygon style="fill: #0000ff; stroke: #000000; stroke-width: 1.000000; stroke-linejoin: miter; stroke-linecap: butt;  opacity: 0.922352" clip-path="url(#4685744057707115011)" points = "261.345678,270.747952 262.125369,270.871443 262.828738,271.229828 263.386935,271.788025 263.745320,272.491394 263.868811,273.271085 263.745320,274.050775 263.386935,274.754145 262.828738,275.312342 262.125369,275.670726 261.345678,275.794217 260.565987,275.670726 259.862618,275.312342 259.304421,274.754145 258.946036,274.050775 258.822545,273.271085 258.946036,272.491394 259.304421,271.788025 259.862618,271.229828 260.565987,270.871443"/>
<polygon style="fill: #0000ff; stroke: #000000; stroke-width: 1.000000; stroke-linejoin: miter; stroke-linecap: butt;  opacity: 0.824243" clip-path="url(#4685744057707115011)" points = "293.966782,248.930096 294.746473,249.053587 295.449842,249.411972 296.008039,249.970169 296.366424,250.673538 296.489915,251.453229 296.366424,252.232920 296.008039,252.936289 295.449842,253.494486 294.746473,253.852870 293.966782,253.976361 293.187091,253.852870 292.483722,253.494486 291.925525,252.936289 291.567140,252.232920 291.443650,251.453229 291.567140,250.673538 291.925525,249.970169 292.483722,249.411972 293.187091,249.053587"/>
<polygon style="fill: #0000ff; stroke: #000000; stroke-width: 1.000000; stroke-linejoin: miter; stroke-linecap: butt;  opacity: 0.729122" clip-path="url(#4685744057707115011)" points = "325.594636,227.776553 326.374326,227.900043 327.077696,228.258428 327.635893,228.816625 327.994277,229.519994 328.117768,230.299685 327.994277,231.079376 327.635893,231.782745 327.077696,232.340942 326.374326,232.699327 325.594636,232.822818 324.814945,232.699327 324.111575,232.340942 323.553378,231.782745 323.194994,231.079376 323.071503,230.299685 323.194994,229.519994 323.553378,228.816625 324.111575,228.258428 324.814945,227.900043"/>
<polygon style="fill: #0000ff; stroke: #000000; stroke-width: 1.000000; stroke-linejoin: miter; stroke-linecap: butt;  opacity: 0.636853" clip-path="url(#4685744057707115011)" points = "356.273922,207.257436 357.053613,207.380927 357.756982,207.739311 358.315179,208.297508 358.673564,209.000877 358.797054,209.780568 358.673564,210.560259 358.315179,211.263628 357.756982,211.821825 357.053613,212.180210 356.273922,212.303701 355.494231,212.180210 354.790862,211.821825 354.232665,211.263628 353.874280,210.560259 353.750789,209.780568 353.874280,209.000877 354.232665,208.297508 354.790862,207.739311 355.494231,207.380927"/>
<polygon style="fill: #0000ff; stroke: #000000; stroke-width: 1.000000; stroke-linejoin: miter; stroke-linecap: butt;  opacity: 0.547311" clip-path="url(#4685744057707115011)" points = "386.046684,187.344626 386.826375,187.468117 387.529744,187.826501 388.087941,188.384698 388.446326,189.088068 388.569817,189.867759 388.446326,190.647449 388.087941,191.350819 387.529744,191.909016 386.826375,192.267400 386.046684,192.390891 385.266993,192.267400 384.563624,191.909016 384.005427,191.350819 383.647043,190.647449 383.523552,189.867759 383.647043,189.088068 384.005427,188.384698 384.563624,187.826501 385.266993,187.468117"/>
<polygon style="fill: #0000ff; stroke: #000000; stroke-width: 1.000000; stroke-linejoin: miter; stroke-linecap: butt;  opacity: 0.460377" clip-path="url(#4685744057707115011)" points = "414.952517,168.011642 415.732208,168.135133 416.435577,168.493517 416.993774,169.051714 417.352159,169.755083 417.475650,170.534774 417.352159,171.314465 416.993774,172.017834 416.435577,172.576031 415.732208,172.934416 414.952517,173.057907 414.172826,172.934416 413.469457,172.576031 412.911260,172.017834 412.552875,171.314465 412.429384,170.534774 412.552875,169.755083 412.911260,169.051714 413.469457,168.493517 414.172826,168.135133"/>
<polygon style="fill: #0000ff; stroke: #000000; stroke-width: 1.000000; stroke-linejoin: miter; stroke-linecap: butt;  opacity: 0.774523" clip-path="url(#4685744057707115011)" points = "371.762099,237.873067 372.541790,237.996558 373.245159,238.354942 373.803356,238.913139 374.161741,239.616509 374.285232,240.396199 374.161741,241.175890 373.803356,241.879259 373.245159,242.437456 372.541790,242.795841 371.762099,242.919332 370.982409,242.795841 370.279039,242.437456 369.720842,241.879259 369.362458,241.175890 369.238967,240.396199 369.362458,239.616509 369.720842,238.913139 370.279039,238.354942 370.982409,237.996558"/>
<polygon style="fill: #0000ff; stroke: #000000; stroke-width: 1.000000; stroke-linejoin: miter; stroke-linecap: butt;  opacity: 0.970660" clip-path="url(#4685744057707115011)" points = "308.484959,281.491061 309.264650,281.614552 309.968019,281.972937 310.526216,282.531134 310.884601,283.234503 311.008091,284.014194 310.884601,284.793885 310.526216,285.497254 309.968019,286.055451 309.264650,286.413835 308.484959,286.537326 307.705268,286.413835 307.001899,286.055451 306.443702,285.497254 306.085317,284.793885 305.961826,284.014194 306.085317,283.234503 306.443702,282.531134 307.001899,281.972937 307.705268,281.614552"/>
<polygon style="fill: #0000ff; stroke: #000000; stroke-width: 1.000000; stroke-linejoin: miter; stroke-linecap: butt;  opacity: 0.871064" clip-path="url(#4685744057707115011)" points = "340.616308,259.342383 341.395999,259.465874 342.099368,259.824259 342.657565,260.382456 343.015950,261.085825 343.139440,261.865516 343.015950,262.645207 342.657565,263.348576 342.099368,263.906773 341.395999,264.265158 340.616308,264.388648 339.836617,264.265158 339.133248,263.906773 338.575051,263.348576 338.216666,262.645207 338.093175,261.865516 338.216666,261.085825 338.575051,260.382456 339.133248,259.824259 339.836617,259.465874"/>
<polygon style="fill: #0000ff; stroke: #000000; stroke-width: 1.000000; stroke-linejoin: miter; stroke-linecap: butt;  opacity: 0.774523" clip-path="url(#4685744057707115011)" points = "371.762099,237.873067 372.541790,237.996558 373.245159,238.354942 373.803356,238.913139 374.161741,239.616509 374.285232,240.396199 374.161741,241.175890 373.803356,241.879259 373.245159,242.437456 372.541790,242.795841 371.762099,242.919332 370.982409,242.795841 370.279039,242.437456 369.720842,241.879259 369.362458,241.175890 369.238967,240.396199 369.362458,239.616509 369.720842,238.913139 370.279039,238.354942 370.982409,237.996558"/>
<polygon style="fill: #0000ff; stroke: #000000; stroke-width: 1.000000; stroke-linejoin: miter; stroke-linecap: butt;  opacity: 0.680898" clip-path="url(#4685744057707115011)" points = "401.966993,217.052327 402.746684,217.175818 403.450053,217.534202 404.008250,218.092399 404.366635,218.795769 404.490126,219.575459 404.366635,220.355150 404.008250,221.058519 403.450053,221.616716 402.746684,221.975101 401.966993,222.098592 401.187302,221.975101 400.483933,221.616716 399.925736,221.058519 399.567352,220.355150 399.443861,219.575459 399.567352,218.795769 399.925736,218.092399 400.483933,217.534202 401.187302,217.175818"/>
<polygon style="fill: #0000ff; stroke: #000000; stroke-width: 1.000000; stroke-linejoin: miter; stroke-linecap: butt;  opacity: 0.590060" clip-path="url(#4685744057707115011)" points = "431.272991,196.851211 432.052682,196.974702 432.756051,197.333086 433.314248,197.891283 433.672632,198.594653 433.796123,199.374344 433.672632,200.154034 433.314248,200.857404 432.756051,201.415601 432.052682,201.773985 431.272991,201.897476 430.493300,201.773985 429.789931,201.415601 429.231734,200.857404 428.873349,200.154034 428.749858,199.374344 428.873349,198.594653 429.231734,197.891283 429.789931,197.333086 430.493300,196.974702"/>
<polygon style="fill: #0000ff; stroke: #000000; stroke-width: 1.000000; stroke-linejoin: miter; stroke-linecap: butt;  opacity: 0.501885" clip-path="url(#4685744057707115011)" points = "459.719631,177.242465 460.499322,177.365956 461.202691,177.724340 461.760888,178.282537 462.119272,178.985907 462.242763,179.765597 462.119272,180.545288 461.760888,181.248658 461.202691,181.806855 460.499322,182.165239 459.719631,182.288730 458.939940,182.165239 458.236571,181.806855 457.678374,181.248658 457.319989,180.545288 457.196498,179.765597 457.319989,178.985907 457.678374,178.282537 458.236571,177.724340 458.939940,177.365956"/>
<polygon style="fill: #0000ff; stroke: #000000; stroke-width: 1.000000; stroke-linejoin: miter; stroke-linecap: butt;  opacity: 0.990190" clip-path="url(#4685744057707115011)" points = "327.542232,285.834241 328.321923,285.957732 329.025292,286.316116 329.583489,286.874313 329.941874,287.577683 330.065365,288.357373 329.941874,289.137064 329.583489,289.840434 329.025292,290.398631 328.321923,290.757015 327.542232,290.880506 326.762541,290.757015 326.059172,290.398631 325.500975,289.840434 325.142591,289.137064 325.019100,288.357373 325.142591,287.577683 325.500975,286.874313 326.059172,286.316116 326.762541,285.957732"/>
<polygon style="fill: #0000ff; stroke: #000000; stroke-width: 1.000000; stroke-linejoin: miter; stroke-linecap: butt;  opacity: 0.889990" clip-path="url(#4685744057707115011)" points = "359.472469,263.551124 360.252160,263.674615 360.955529,264.033000 361.513726,264.591197 361.872110,265.294566 361.995601,266.074257 361.872110,266.853948 361.513726,267.557317 360.955529,268.115514 360.252160,268.473898 359.472469,268.597389 358.692778,268.473898 357.989409,268.115514 357.431212,267.557317 357.072827,266.853948 356.949336,266.074257 357.072827,265.294566 357.431212,264.591197 357.989409,264.033000 358.692778,263.674615"/>
<polygon style="fill: #0000ff; stroke: #000000; stroke-width: 1.000000; stroke-linejoin: miter; stroke-linecap: butt;  opacity: 0.792871" clip-path="url(#4685744057707115011)" points = "390.420417,241.953516 391.200108,242.077007 391.903478,242.435391 392.461675,242.993588 392.820059,243.696957 392.943550,244.476648 392.820059,245.256339 392.461675,245.959708 391.903478,246.517905 391.200108,246.876290 390.420417,246.999781 389.640727,246.876290 388.937357,246.517905 388.379160,245.959708 388.020776,245.256339 387.897285,244.476648 388.020776,243.696957 388.379160,242.993588 388.937357,242.435391 389.640727,242.077007"/>
<polygon style="fill: #0000ff; stroke: #000000; stroke-width: 1.000000; stroke-linejoin: miter; stroke-linecap: butt;  opacity: 0.698696" clip-path="url(#4685744057707115011)" points = "420.430719,221.010262 421.210410,221.133752 421.913780,221.492137 422.471977,222.050334 422.830361,222.753703 422.953852,223.533394 422.830361,224.313085 422.471977,225.016454 421.913780,225.574651 421.210410,225.933036 420.430719,226.056527 419.651029,225.933036 418.947659,225.574651 418.389462,225.016454 418.031078,224.313085 417.907587,223.533394 418.031078,222.753703 418.389462,222.050334 418.947659,221.492137 419.651029,221.133752"/>
<polygon style="fill: #0000ff; stroke: #000000; stroke-width: 1.000000; stroke-linejoin: miter; stroke-linecap: butt;  opacity: 0.607331" clip-path="url(#4685744057707115011)" points = "449.545352,200.692068 450.325042,200.815558 451.028412,201.173943 451.586609,201.732140 451.944993,202.435509 452.068484,203.215200 451.944993,203.994891 451.586609,204.698260 451.028412,205.256457 450.325042,205.614842 449.545352,205.738333 448.765661,205.614842 448.062292,205.256457 447.504095,204.698260 447.145710,203.994891 447.022219,203.215200 447.145710,202.435509 447.504095,201.732140 448.062292,201.173943 448.765661,200.815558"/>
<polygon style="fill: #0000ff; stroke: #000000; stroke-width: 1.000000; stroke-linejoin: miter; stroke-linecap: butt;  opacity: 0.518653" clip-path="url(#4685744057707115011)" points = "477.803822,180.971362 478.583512,181.094853 479.286882,181.453238 479.845079,182.011435 480.203463,182.714804 480.326954,183.494495 480.203463,184.274186 479.845079,184.977555 479.286882,185.535752 478.583512,185.894136 477.803822,186.017627 477.024131,185.894136 476.320762,185.535752 475.762565,184.977555 475.404180,184.274186 475.280689,183.494495 475.404180,182.714804 475.762565,182.011435 476.320762,181.453238 477.024131,181.094853"/>
<polygon style="fill: #0000ff; stroke: #000000; stroke-width: 1.000000; stroke-linejoin: miter; stroke-linecap: butt;  opacity: 0.990190" clip-path="url(#4685744057707115011)" points = "327.542232,285.834241 328.321923,285.957732 329.025292,286.316116 329.583489,286.874313 329.941874,287.577683 330.065365,288.357373 329.941874,289.137064 329.583489,289.840434 329.025292,290.398631 328.321923,290.757015 327.542232,290.880506 326.762541,290.757015 326.059172,290.398631 325.500975,289.840434 325.142591,289.137064 325.019100,288.357373 325.142591,287.577683 325.500975,286.874313 326.059172,286.316116 326.762541,285.957732"/>
<polygon style="fill: #0000ff; stroke: #000000; stroke-width: 1.000000; stroke-linejoin: miter; stroke-linecap: butt;  opacity: 0.889990" clip-path="url(#4685744057707115011)" points = "359.472469,263.551124 360.252160,263.674615 360.955529,264.033000 361.513726,264.591197 361.872110,265.294566 361.995601,266.074257 361.872110,266.853948 361.513726,267.557317 360.955529,268.115514 360.252160,268.473898 359.472469,268.597389 358.692778,268.473898 357.989409,268.115514 357.431212,267.557317 357.072827,266.853948 356.949336,266.074257 357.072827,265.294566 357.431212,264.591197 357.989409,264.033000 358.692778,263.674615"/>
<polygon style="fill: #0000ff; stroke: #000000; stroke-width: 1.000000; stroke-linejoin: miter; stroke-linecap: butt;  opacity: 0.792871" clip-path="url(#4685744057707115011)" points = "390.420417,241.953516 391.200108,242.077007 391.903478,242.435391 392.461675,242.993588 392.820059,243.696957 392.943550,244.476648 392.820059,245.256339 392.461675,245.959708 391.903478,246.517905 391.200108,246.876290 390.420417,246.999781 389.640727,246.876290 388.937357,246.517905 388.379160,245.959708 388.020776,245.256339 387.897285,244.476648 388.020776,243.696957 388.379160,242.993588 388.937357,242.435391 389.640727,242.077007"/>
<polygon style="fill: #0000ff; stroke: #000000; stroke-width: 1.000000; stroke-linejoin: miter; stroke-linecap: butt;  opacity: 0.698696" clip-path="url(#4685744057707115011)" points = "420.430719,221.010262 421.210410,221.133752 421.913780,221.492137 422.471977,222.050334 422.830361,222.753703 422.953852,223.533394 422.830361,224.313085 422.471977,225.016454 421.913780,225.574651 421.210410,225.933036 420.430719,226.056527 419.651029,225.933036 418.947659,225.574651 418.389462,225.016454 418.031078,224.313085 417.907587,223.533394 418.031078,222.753703 418.389462,222.050334 418.947659,221.492137 419.651029,221.133752"/>
<polygon style="fill: #0000ff; stroke: #000000; stroke-width: 1.000000; stroke-linejoin: miter; stroke-linecap: butt;  opacity: 0.607331" clip-path="url(#4685744057707115011)" points = "449.545352,200.692068 450.325042,200.815558 451.028412,201.173943 451.586609,201.732140 451.944993,202.435509 452.068484,203.215200 451.944993,203.994891 451.586609,204.698260 451.028412,205.256457 450.325042,205.614842 449.545352,205.738333 448.765661,205.614842 448.062292,205.256457 447.504095,204.698260 447.145710,203.994891 447.022219,203.215200 447.145710,202.435509 447.504095,201.732140 448.062292,201.173943 448.765661,200.815558"/>
<polygon style="fill: #0000ff; stroke: #000000; stroke-width: 1.000000; stroke-linejoin: miter; stroke-linecap: butt;  opacity: 0.518653" clip-path="url(#4685744057707115011)" points = "477.803822,180.971362 478.583512,181.094853 479.286882,181.453238 479.845079,182.011435 480.203463,182.714804 480.326954,183.494495 480.203463,184.274186 479.845079,184.977555 479.286882,185.535752 478.583512,185.894136 477.803822,186.017627 477.024131,185.894136 476.320762,185.535752 475.762565,184.977555 475.404180,184.274186 475.280689,183.494495 475.404180,182.714804 475.762565,182.011435 476.320762,181.453238 477.024131,181.094853"/>
<polygon style="fill: #0000ff; stroke: #000000; stroke-width: 1.000000; stroke-linejoin: miter; stroke-linecap: butt;  opacity: 1.000000" clip-path="url(#4685744057707115011)" points = "337.114589,288.015795 337.894280,288.139286 338.597649,288.497670 339.155846,289.055867 339.514230,289.759236 339.637721,290.538927 339.514230,291.318618 339.155846,292.021987 338.597649,292.580184 337.894280,292.938569 337.114589,293.062060 336.334898,292.938569 335.631529,292.580184 335.073332,292.021987 334.714947,291.318618 334.591456,290.538927 334.714947,289.759236 335.073332,289.055867 335.631529,288.497670 336.334898,288.139286"/>
<polygon style="fill: #0000ff; stroke: #000000; stroke-width: 1.000000; stroke-linejoin: miter; stroke-linecap: butt;  opacity: 0.899495" clip-path="url(#4685744057707115011)" points = "368.943131,265.664999 369.722822,265.788490 370.426191,266.146874 370.984388,266.705071 371.342773,267.408441 371.466264,268.188132 371.342773,268.967822 370.984388,269.671192 370.426191,270.229389 369.722822,270.587773 368.943131,270.711264 368.163440,270.587773 367.460071,270.229389 366.901874,269.671192 366.543489,268.967822 366.419999,268.188132 366.543489,267.408441 366.901874,266.705071 367.460071,266.146874 368.163440,265.788490"/>
<polygon style="fill: #0000ff; stroke: #000000; stroke-width: 1.000000; stroke-linejoin: miter; stroke-linecap: butt;  opacity: 0.802087" clip-path="url(#4685744057707115011)" points = "399.791063,244.002813 400.570753,244.126304 401.274123,244.484688 401.832320,245.042885 402.190704,245.746255 402.314195,246.525945 402.190704,247.305636 401.832320,248.009005 401.274123,248.567202 400.570753,248.925587 399.791063,249.049078 399.011372,248.925587 398.308002,248.567202 397.749805,248.009005 397.391421,247.305636 397.267930,246.525945 397.391421,245.746255 397.749805,245.042885 398.308002,244.484688 399.011372,244.126304"/>
<polygon style="fill: #0000ff; stroke: #000000; stroke-width: 1.000000; stroke-linejoin: miter; stroke-linecap: butt;  opacity: 0.707634" clip-path="url(#4685744057707115011)" points = "429.703013,222.997896 430.482704,223.121387 431.186073,223.479771 431.744270,224.037968 432.102655,224.741337 432.226146,225.521028 432.102655,226.300719 431.744270,227.004088 431.186073,227.562285 430.482704,227.920670 429.703013,228.044161 428.923322,227.920670 428.219953,227.562285 427.661756,227.004088 427.303372,226.300719 427.179881,225.521028 427.303372,224.741337 427.661756,224.037968 428.219953,223.479771 428.923322,223.121387"/>
<polygon style="fill: #0000ff; stroke: #000000; stroke-width: 1.000000; stroke-linejoin: miter; stroke-linecap: butt;  opacity: 0.616004" clip-path="url(#4685744057707115011)" points = "458.720946,202.620780 459.500636,202.744271 460.204006,203.102656 460.762203,203.660853 461.120587,204.364222 461.244078,205.143913 461.120587,205.923604 460.762203,206.626973 460.204006,207.185170 459.500636,207.543555 458.720946,207.667046 457.941255,207.543555 457.237885,207.185170 456.679688,206.626973 456.321304,205.923604 456.197813,205.143913 456.321304,204.364222 456.679688,203.660853 457.237885,203.102656 457.941255,202.744271"/>
<polygon style="fill: #0000ff; stroke: #000000; stroke-width: 1.000000; stroke-linejoin: miter; stroke-linecap: butt;  opacity: 0.527072" clip-path="url(#4685744057707115011)" points = "486.884350,182.843736 487.664041,182.967227 488.367411,183.325611 488.925608,183.883808 489.283992,184.587177 489.407483,185.366868 489.283992,186.146559 488.925608,186.849928 488.367411,187.408125 487.664041,187.766510 486.884350,187.890001 486.104660,187.766510 485.401290,187.408125 484.843093,186.849928 484.484709,186.146559 484.361218,185.366868 484.484709,184.587177 484.843093,183.883808 485.401290,183.325611 486.104660,182.967227"/>
<polygon style="fill: #0000ff; stroke: #000000; stroke-width: 1.000000; stroke-linejoin: miter; stroke-linecap: butt;  opacity: 0.736202" clip-path="url(#4685744057707115011)" points = "79.702099,229.351122 80.481789,229.474613 81.185159,229.832997 81.743356,230.391194 82.101740,231.094564 82.225231,231.874255 82.101740,232.653945 81.743356,233.357315 81.185159,233.915512 80.481789,234.273896 79.702099,234.397387 78.922408,234.273896 78.219038,233.915512 77.660841,233.357315 77.302457,232.653945 77.178966,231.874255 77.302457,231.094564 77.660841,230.391194 78.219038,229.832997 78.922408,229.474613"/>
<polygon style="fill: #0000ff; stroke: #000000; stroke-width: 1.000000; stroke-linejoin: miter; stroke-linecap: butt;  opacity: 0.643723" clip-path="url(#4685744057707115011)" points = "114.107682,208.785109 114.887373,208.908600 115.590742,209.266985 116.148939,209.825182 116.507324,210.528551 116.630814,211.308242 116.507324,212.087932 116.148939,212.791302 115.590742,213.349499 114.887373,213.707883 114.107682,213.831374 113.327991,213.707883 112.624622,213.349499 112.066425,212.791302 111.708040,212.087932 111.584549,211.308242 111.708040,210.528551 112.066425,209.825182 112.624622,209.266985 113.327991,208.908600"/>
<polygon style="fill: #0000ff; stroke: #000000; stroke-width: 1.000000; stroke-linejoin: miter; stroke-linecap: butt;  opacity: 0.553979" clip-path="url(#4685744057707115011)" points = "147.495500,188.827468 148.275191,188.950959 148.978560,189.309343 149.536757,189.867540 149.895141,190.570909 150.018632,191.350600 149.895141,192.130291 149.536757,192.833660 148.978560,193.391857 148.275191,193.750242 147.495500,193.873733 146.715809,193.750242 146.012440,193.391857 145.454243,192.833660 145.095858,192.130291 144.972367,191.350600 145.095858,190.570909 145.454243,189.867540 146.012440,189.309343 146.715809,188.950959"/>
<polygon style="fill: #0000ff; stroke: #000000; stroke-width: 1.000000; stroke-linejoin: miter; stroke-linecap: butt;  opacity: 0.466852" clip-path="url(#4685744057707115011)" points = "179.910054,169.451597 180.689745,169.575088 181.393114,169.933472 181.951311,170.491669 182.309696,171.195038 182.433187,171.974729 182.309696,172.754420 181.951311,173.457789 181.393114,174.015986 180.689745,174.374371 179.910054,174.497862 179.130363,174.374371 178.426994,174.015986 177.868797,173.457789 177.510413,172.754420 177.386922,171.974729 177.510413,171.195038 177.868797,170.491669 178.426994,169.933472 179.130363,169.575088"/>
<polygon style="fill: #0000ff; stroke: #000000; stroke-width: 1.000000; stroke-linejoin: miter; stroke-linecap: butt;  opacity: 0.382227" clip-path="url(#4685744057707115011)" points = "211.393290,150.632423 212.172981,150.755914 212.876351,151.114299 213.434548,151.672496 213.792932,152.375865 213.916423,153.155556 213.792932,153.935246 213.434548,154.638616 212.876351,155.196813 212.172981,155.555197 211.393290,155.678688 210.613600,155.555197 209.910230,155.196813 209.352033,154.638616 208.993649,153.935246 208.870158,153.155556 208.993649,152.375865 209.352033,151.672496 209.910230,151.114299 210.613600,150.755914"/>
<polygon style="fill: #0000ff; stroke: #000000; stroke-width: 1.000000; stroke-linejoin: miter; stroke-linecap: butt;  opacity: 0.300000" clip-path="url(#4685744057707115011)" points = "241.984777,132.346295 242.764468,132.469786 243.467837,132.828170 244.026034,133.386367 244.384419,134.089737 244.507910,134.869427 244.384419,135.649118 244.026034,136.352487 243.467837,136.910684 242.764468,137.269069 241.984777,137.392560 241.205086,137.269069 240.501717,136.910684 239.943520,136.352487 239.585136,135.649118 239.461645,134.869427 239.585136,134.089737 239.943520,133.386367 240.501717,132.828170 241.205086,132.469786"/>
<polygon style="fill: #0000ff; stroke: #000000; stroke-width: 1.000000; stroke-linejoin: miter; stroke-linecap: butt;  opacity: 0.970660" clip-path="url(#4685744057707115011)" points = "308.484959,281.491061 309.264650,281.614552 309.968019,281.972937 310.526216,282.531134 310.884601,283.234503 311.008091,284.014194 310.884601,284.793885 310.526216,285.497254 309.968019,286.055451 309.264650,286.413835 308.484959,286.537326 307.705268,286.413835 307.001899,286.055451 306.443702,285.497254 306.085317,284.793885 305.961826,284.014194 306.085317,283.234503 306.443702,282.531134 307.001899,281.972937 307.705268,281.614552"/>
<polygon style="fill: #0000ff; stroke: #000000; stroke-width: 1.000000; stroke-linejoin: miter; stroke-linecap: butt;  opacity: 0.871064" clip-path="url(#4685744057707115011)" points = "340.616308,259.342383 341.395999,259.465874 342.099368,259.824259 342.657565,260.382456 343.015950,261.085825 343.139440,261.865516 343.015950,262.645207 342.657565,263.348576 342.099368,263.906773 341.395999,264.265158 340.616308,264.388648 339.836617,264.265158 339.133248,263.906773 338.575051,263.348576 338.216666,262.645207 338.093175,261.865516 338.216666,261.085825 338.575051,260.382456 339.133248,259.824259 339.836617,259.465874"/>
<polygon style="fill: #0000ff; stroke: #000000; stroke-width: 1.000000; stroke-linejoin: miter; stroke-linecap: butt;  opacity: 0.774523" clip-path="url(#4685744057707115011)" points = "371.762099,237.873067 372.541790,237.996558 373.245159,238.354942 373.803356,238.913139 374.161741,239.616509 374.285232,240.396199 374.161741,241.175890 373.803356,241.879259 373.245159,242.437456 372.541790,242.795841 371.762099,242.919332 370.982409,242.795841 370.279039,242.437456 369.720842,241.879259 369.362458,241.175890 369.238967,240.396199 369.362458,239.616509 369.720842,238.913139 370.279039,238.354942 370.982409,237.996558"/>
<polygon style="fill: #0000ff; stroke: #000000; stroke-width: 1.000000; stroke-linejoin: miter; stroke-linecap: butt;  opacity: 0.680898" clip-path="url(#4685744057707115011)" points = "401.966993,217.052327 402.746684,217.175818 403.450053,217.534202 404.008250,218.092399 404.366635,218.795769 404.490126,219.575459 404.366635,220.355150 404.008250,221.058519 403.450053,221.616716 402.746684,221.975101 401.966993,222.098592 401.187302,221.975101 400.483933,221.616716 399.925736,221.058519 399.567352,220.355150 399.443861,219.575459 399.567352,218.795769 399.925736,218.092399 400.483933,217.534202 401.187302,217.175818"/>
<polygon style="fill: #0000ff; stroke: #000000; stroke-width: 1.000000; stroke-linejoin: miter; stroke-linecap: butt;  opacity: 0.590060" clip-path="url(#4685744057707115011)" points = "431.272991,196.851211 432.052682,196.974702 432.756051,197.333086 433.314248,197.891283 433.672632,198.594653 433.796123,199.374344 433.672632,200.154034 433.314248,200.857404 432.756051,201.415601 432.052682,201.773985 431.272991,201.897476 430.493300,201.773985 429.789931,201.415601 429.231734,200.857404 428.873349,200.154034 428.749858,199.374344 428.873349,198.594653 429.231734,197.891283 429.789931,197.333086 430.493300,196.974702"/>
<polygon style="fill: #0000ff; stroke: #000000; stroke-width: 1.000000; stroke-linejoin: miter; stroke-linecap: butt;  opacity: 0.501885" clip-path="url(#4685744057707115011)" points = "459.719631,177.242465 460.499322,177.365956 461.202691,177.724340 461.760888,178.282537 462.119272,178.985907 462.242763,179.765597 462.119272,180.545288 461.760888,181.248658 461.202691,181.806855 460.499322,182.165239 459.719631,182.288730 458.939940,182.165239 458.236571,181.806855 457.678374,181.248658 457.319989,180.545288 457.196498,179.765597 457.319989,178.985907 457.678374,178.282537 458.236571,177.724340 458.939940,177.365956"/>
</g>
<g id="matplotlib.axis1">
</g>
<g id="matplotlib.axis2">
</g>
</g>
</g>
</svg>
