<?xml version="1.0" standalone="no"?>
<!DOCTYPE svg PUBLIC "-//W3C//DTD SVG 1.1//EN"
  "http://www.w3.org/Graphics/SVG/1.1/DTD/svg11.dtd">
<!-- Created with matplotlib (http://matplotlib.sourceforge.net/) -->
<svg width="576" height="432" viewBox="0 0 576 432"
   xmlns="http://www.w3.org/2000/svg"
   xmlns:xlink="http://www.w3.org/1999/xlink"
   version="1.1"
   id="svg1">
<g id="figure1">
<polygon style="fill: #ffffff; stroke: #ffffff; stroke-width: 1.000000; stroke-linejoin: miter; stroke-linecap: square;  opacity: 1.000000"  points = "0.000000,432.000000 0.000000,0.000000 576.000000,0.000000 576.000000,432.000000"/>
<polygon style="fill: #ffffff; opacity: 1.000000"  points = "0.000000,432.000000 0.000000,0.000000 576.000000,0.000000 576.000000,432.000000"/>
<g id="axis3d1">
<polygon style="fill: #f2f2f2; stroke: #f2f2f2; stroke-width: 1.000000; stroke-linejoin: miter; stroke-linecap: square;  opacity: 0.100000"  points = "241.211914,230.626613 508.260241,289.840834 519.433224,81.348607 238.467267,28.237352"/>
<path style="fill: none; stroke: #000000; stroke-width: 0.750000; stroke-linejoin: miter; stroke-linecap: square;  opacity: 1.000000"  d="M 76.357701,336.543225 L 357.328625,405.507833 "/>
<text style="font-size: 12.000000; font-family: Bitstream Vera Sans; font-style: Roman; fill: #000000;" x="127.936123" y="379.403446" transform="translate(127.936123,379.403446) rotate(-341.9) translate(-127.936123,-379.403446)">max_call_mismatch_rate</text>
<g id="linecollection1">
<path style="fill: none; stroke: #e6e6e6; stroke-width: 1.000000; stroke-linejoin: miter; stroke-linecap: butt;  opacity: 1.000000"  d="M 81.730847,337.862069 L 246.335639,231.762727 L 243.846516,29.254197 "/>
<path style="fill: none; stroke: #e6e6e6; stroke-width: 1.000000; stroke-linejoin: miter; stroke-linecap: butt;  opacity: 1.000000"  d="M 133.806316,350.644048 L 295.959675,242.766161 L 295.968604,39.106883 "/>
<path style="fill: none; stroke: #e6e6e6; stroke-width: 1.000000; stroke-linejoin: miter; stroke-linecap: butt;  opacity: 1.000000"  d="M 186.791666,363.649357 L 346.387419,253.947806 L 348.978075,49.127313 "/>
<path style="fill: none; stroke: #e6e6e6; stroke-width: 1.000000; stroke-linejoin: miter; stroke-linecap: butt;  opacity: 1.000000"  d="M 240.710954,376.883903 L 397.638557,265.312027 L 402.897787,59.319806 "/>
<path style="fill: none; stroke: #e6e6e6; stroke-width: 1.000000; stroke-linejoin: miter; stroke-linecap: butt;  opacity: 1.000000"  d="M 295.589092,390.353800 L 449.733420,276.863332 L 457.751387,69.688832 "/>
<path style="fill: none; stroke: #e6e6e6; stroke-width: 1.000000; stroke-linejoin: miter; stroke-linecap: butt;  opacity: 1.000000"  d="M 351.451887,404.065382 L 502.693018,288.606380 L 513.563349,80.239019 "/>
</g>
<g id="xtick1">
<text style="font-size: 12.000000; font-family: Bitstream Vera Sans; font-style: Roman; fill: #000000;" x="68.730847" y="342.362069" >0.05</text>
<path style="fill: none; stroke: #000000; stroke-width: 1.000000; stroke-linejoin: miter; stroke-linecap: square;  opacity: 1.000000"  d="M 81.730847,337.862069 L 79.242567,345.465257 "/>
</g>
<g id="xtick2">
<text style="font-size: 12.000000; font-family: Bitstream Vera Sans; font-style: Roman; fill: #000000;" x="120.806316" y="355.144048" >0.10</text>
<path style="fill: none; stroke: #000000; stroke-width: 1.000000; stroke-linejoin: miter; stroke-linecap: square;  opacity: 1.000000"  d="M 133.806316,350.644048 L 131.318036,358.247235 "/>
</g>
<g id="xtick3">
<text style="font-size: 12.000000; font-family: Bitstream Vera Sans; font-style: Roman; fill: #000000;" x="173.791666" y="368.149357" >0.15</text>
<path style="fill: none; stroke: #000000; stroke-width: 1.000000; stroke-linejoin: miter; stroke-linecap: square;  opacity: 1.000000"  d="M 186.791666,363.649357 L 184.303386,371.252545 "/>
</g>
<g id="xtick4">
<text style="font-size: 12.000000; font-family: Bitstream Vera Sans; font-style: Roman; fill: #000000;" x="227.710954" y="381.383903" >0.20</text>
<path style="fill: none; stroke: #000000; stroke-width: 1.000000; stroke-linejoin: miter; stroke-linecap: square;  opacity: 1.000000"  d="M 240.710954,376.883903 L 238.222674,384.487091 "/>
</g>
<g id="xtick5">
<text style="font-size: 12.000000; font-family: Bitstream Vera Sans; font-style: Roman; fill: #000000;" x="282.589092" y="394.853800" >0.25</text>
<path style="fill: none; stroke: #000000; stroke-width: 1.000000; stroke-linejoin: miter; stroke-linecap: square;  opacity: 1.000000"  d="M 295.589092,390.353800 L 293.100812,397.956987 "/>
</g>
<g id="xtick6">
<text style="font-size: 12.000000; font-family: Bitstream Vera Sans; font-style: Roman; fill: #000000;" x="338.451887" y="408.565382" >0.30</text>
<path style="fill: none; stroke: #000000; stroke-width: 1.000000; stroke-linejoin: miter; stroke-linecap: square;  opacity: 1.000000"  d="M 351.451887,404.065382 L 348.963607,411.668569 "/>
</g>
</g>
<g id="axis3d2">
<polygon style="fill: #e6e6e6; stroke: #e6e6e6; stroke-width: 1.000000; stroke-linejoin: miter; stroke-linecap: square;  opacity: 0.500000"  points = "76.357701,336.543225 241.211914,230.626613 238.467267,28.237352 64.421350,123.401250"/>
<path style="fill: none; stroke: #000000; stroke-width: 0.750000; stroke-linejoin: miter; stroke-linecap: square;  opacity: 1.000000"  d="M 357.328625,405.507833 L 508.260241,289.840834 "/>
<text style="font-size: 12.000000; font-family: Bitstream Vera Sans; font-style: Roman; fill: #000000;" x="425.958426" y="409.045229" transform="translate(425.958426,409.045229) rotate(-45.6) translate(-425.958426,-409.045229)">max_call_NA_rate</text>
<g id="linecollection2">
<path style="fill: none; stroke: #e6e6e6; stroke-width: 1.000000; stroke-linejoin: miter; stroke-linecap: butt;  opacity: 1.000000"  d="M 360.586508,403.011142 L 79.904448,334.264487 L 68.180167,121.346024 "/>
<path style="fill: none; stroke: #e6e6e6; stroke-width: 1.000000; stroke-linejoin: miter; stroke-linecap: butt;  opacity: 1.000000"  d="M 379.914611,388.198980 L 100.956846,320.738605 L 90.478343,109.153946 "/>
<path style="fill: none; stroke: #e6e6e6; stroke-width: 1.000000; stroke-linejoin: miter; stroke-linecap: butt;  opacity: 1.000000"  d="M 398.874695,373.668849 L 121.625951,307.458984 L 112.348919,97.195669 "/>
<path style="fill: none; stroke: #e6e6e6; stroke-width: 1.000000; stroke-linejoin: miter; stroke-linecap: butt;  opacity: 1.000000"  d="M 417.477173,359.412772 L 141.922136,294.418958 L 133.804078,85.464532 "/>
<path style="fill: none; stroke: #e6e6e6; stroke-width: 1.000000; stroke-linejoin: miter; stroke-linecap: butt;  opacity: 1.000000"  d="M 435.732067,345.423067 L 161.855403,281.612103 L 154.855544,73.954124 "/>
<path style="fill: none; stroke: #e6e6e6; stroke-width: 1.000000; stroke-linejoin: miter; stroke-linecap: butt;  opacity: 1.000000"  d="M 453.649029,331.692337 L 181.435400,269.032219 L 175.514605,62.658273 "/>
<path style="fill: none; stroke: #e6e6e6; stroke-width: 1.000000; stroke-linejoin: miter; stroke-linecap: butt;  opacity: 1.000000"  d="M 471.237356,318.213458 L 200.671436,256.673325 L 195.792131,51.571035 "/>
<path style="fill: none; stroke: #e6e6e6; stroke-width: 1.000000; stroke-linejoin: miter; stroke-linecap: butt;  opacity: 1.000000"  d="M 488.506009,304.979563 L 219.572495,244.529648 L 215.698595,40.686685 "/>
<path style="fill: none; stroke: #e6e6e6; stroke-width: 1.000000; stroke-linejoin: miter; stroke-linecap: butt;  opacity: 1.000000"  d="M 505.463623,291.984033 L 238.147253,232.595617 L 235.244090,29.999704 "/>
</g>
<g id="xtick7">
<text style="font-size: 12.000000; font-family: Bitstream Vera Sans; font-style: Roman; fill: #000000;" x="352.086508" y="407.511142" >0.1</text>
<path style="fill: none; stroke: #000000; stroke-width: 1.000000; stroke-linejoin: miter; stroke-linecap: square;  opacity: 1.000000"  d="M 360.586508,403.011142 L 366.304039,408.606662 "/>
</g>
<g id="xtick8">
<text style="font-size: 12.000000; font-family: Bitstream Vera Sans; font-style: Roman; fill: #000000;" x="370.891174" y="392.698980" >0.2</text>
<path style="fill: none; stroke: #000000; stroke-width: 1.000000; stroke-linejoin: miter; stroke-linecap: square;  opacity: 1.000000"  d="M 379.914611,388.198980 L 385.632141,393.794500 "/>
</g>
<g id="xtick9">
<text style="font-size: 12.000000; font-family: Bitstream Vera Sans; font-style: Roman; fill: #000000;" x="389.874695" y="378.168849" >0.3</text>
<path style="fill: none; stroke: #000000; stroke-width: 1.000000; stroke-linejoin: miter; stroke-linecap: square;  opacity: 1.000000"  d="M 398.874695,373.668849 L 404.592225,379.264370 "/>
</g>
<g id="xtick10">
<text style="font-size: 12.000000; font-family: Bitstream Vera Sans; font-style: Roman; fill: #000000;" x="408.477173" y="363.912772" >0.4</text>
<path style="fill: none; stroke: #000000; stroke-width: 1.000000; stroke-linejoin: miter; stroke-linecap: square;  opacity: 1.000000"  d="M 417.477173,359.412772 L 423.194703,365.008292 "/>
</g>
<g id="xtick11">
<text style="font-size: 12.000000; font-family: Bitstream Vera Sans; font-style: Roman; fill: #000000;" x="426.732067" y="349.923067" >0.5</text>
<path style="fill: none; stroke: #000000; stroke-width: 1.000000; stroke-linejoin: miter; stroke-linecap: square;  opacity: 1.000000"  d="M 435.732067,345.423067 L 441.449597,351.018587 "/>
</g>
<g id="xtick12">
<text style="font-size: 12.000000; font-family: Bitstream Vera Sans; font-style: Roman; fill: #000000;" x="444.649029" y="336.192337" >0.6</text>
<path style="fill: none; stroke: #000000; stroke-width: 1.000000; stroke-linejoin: miter; stroke-linecap: square;  opacity: 1.000000"  d="M 453.649029,331.692337 L 459.366559,337.287858 "/>
</g>
<g id="xtick13">
<text style="font-size: 12.000000; font-family: Bitstream Vera Sans; font-style: Roman; fill: #000000;" x="462.237356" y="322.713458" >0.7</text>
<path style="fill: none; stroke: #000000; stroke-width: 1.000000; stroke-linejoin: miter; stroke-linecap: square;  opacity: 1.000000"  d="M 471.237356,318.213458 L 476.954887,323.808978 "/>
</g>
<g id="xtick14">
<text style="font-size: 12.000000; font-family: Bitstream Vera Sans; font-style: Roman; fill: #000000;" x="479.506009" y="309.479563" >0.8</text>
<path style="fill: none; stroke: #000000; stroke-width: 1.000000; stroke-linejoin: miter; stroke-linecap: square;  opacity: 1.000000"  d="M 488.506009,304.979563 L 494.223539,310.575083 "/>
</g>
<g id="xtick15">
<text style="font-size: 12.000000; font-family: Bitstream Vera Sans; font-style: Roman; fill: #000000;" x="496.463623" y="296.484033" >0.9</text>
<path style="fill: none; stroke: #000000; stroke-width: 1.000000; stroke-linejoin: miter; stroke-linecap: square;  opacity: 1.000000"  d="M 505.463623,291.984033 L 511.181153,297.579553 "/>
</g>
</g>
<g id="axis3d3">
<polygon style="fill: #f2f2f2; stroke: #f2f2f2; stroke-width: 1.000000; stroke-linejoin: miter; stroke-linecap: square;  opacity: 0.100000"  points = "76.357701,336.543225 357.328625,405.507833 508.260241,289.840834 241.211914,230.626613"/>
<path style="fill: none; stroke: #000000; stroke-width: 0.750000; stroke-linejoin: miter; stroke-linecap: square;  opacity: 1.000000"  d="M 76.357701,336.543225 L 64.421350,123.401250 "/>
<text style="font-size: 12.000000; font-family: Bitstream Vera Sans; font-style: Roman; fill: #000000;" x="44.580756" y="338.123307" transform="translate(44.580756,338.123307) rotate(-92.4) translate(-44.580756,-338.123307)">no_of_snps_filtered_by_mismatch</text>
<g id="linecollection3">
<path style="fill: none; stroke: #e6e6e6; stroke-width: 1.000000; stroke-linejoin: miter; stroke-linecap: butt;  opacity: 1.000000"  d="M 76.131056,332.496136 L 241.159600,226.768965 L 508.472750,285.875342 "/>
<path style="fill: none; stroke: #e6e6e6; stroke-width: 1.000000; stroke-linejoin: miter; stroke-linecap: butt;  opacity: 1.000000"  d="M 74.564219,304.517842 L 240.798152,200.115958 L 509.941481,258.468243 "/>
<path style="fill: none; stroke: #e6e6e6; stroke-width: 1.000000; stroke-linejoin: miter; stroke-linecap: butt;  opacity: 1.000000"  d="M 72.974868,276.137529 L 240.431889,173.107876 L 511.430638,230.679990 "/>
<path style="fill: none; stroke: #e6e6e6; stroke-width: 1.000000; stroke-linejoin: miter; stroke-linecap: butt;  opacity: 1.000000"  d="M 71.362515,247.346469 L 240.060714,145.737577 L 512.940650,202.502577 "/>
<path style="fill: none; stroke: #e6e6e6; stroke-width: 1.000000; stroke-linejoin: miter; stroke-linecap: butt;  opacity: 1.000000"  d="M 69.726656,218.135679 L 239.684528,117.997723 L 514.471958,173.927770 "/>
<path style="fill: none; stroke: #e6e6e6; stroke-width: 1.000000; stroke-linejoin: miter; stroke-linecap: butt;  opacity: 1.000000"  d="M 68.066774,188.495913 L 239.303227,89.880780 L 516.025016,144.947105 "/>
<path style="fill: none; stroke: #e6e6e6; stroke-width: 1.000000; stroke-linejoin: miter; stroke-linecap: butt;  opacity: 1.000000"  d="M 66.382335,158.417653 L 238.916708,61.379006 L 517.600290,115.551871 "/>
<path style="fill: none; stroke: #e6e6e6; stroke-width: 1.000000; stroke-linejoin: miter; stroke-linecap: butt;  opacity: 1.000000"  d="M 64.672790,127.891094 L 238.524862,32.484445 L 519.198260,85.733110 "/>
</g>
<g id="xtick16">
<text style="font-size: 12.000000; font-family: Bitstream Vera Sans; font-style: Roman; fill: #000000;" x="73.131056" y="336.996136" >0</text>
<path style="fill: none; stroke: #000000; stroke-width: 1.000000; stroke-linejoin: miter; stroke-linecap: square;  opacity: 1.000000"  d="M 76.131056,332.496136 L 68.138103,332.831851 "/>
</g>
<g id="xtick17">
<text style="font-size: 12.000000; font-family: Bitstream Vera Sans; font-style: Roman; fill: #000000;" x="59.564219" y="309.017842" >1000</text>
<path style="fill: none; stroke: #000000; stroke-width: 1.000000; stroke-linejoin: miter; stroke-linecap: square;  opacity: 1.000000"  d="M 74.564219,304.517842 L 66.571266,304.853558 "/>
</g>
<g id="xtick18">
<text style="font-size: 12.000000; font-family: Bitstream Vera Sans; font-style: Roman; fill: #000000;" x="57.974868" y="280.637529" >2000</text>
<path style="fill: none; stroke: #000000; stroke-width: 1.000000; stroke-linejoin: miter; stroke-linecap: square;  opacity: 1.000000"  d="M 72.974868,276.137529 L 64.981916,276.473245 "/>
</g>
<g id="xtick19">
<text style="font-size: 12.000000; font-family: Bitstream Vera Sans; font-style: Roman; fill: #000000;" x="56.362515" y="251.846469" >3000</text>
<path style="fill: none; stroke: #000000; stroke-width: 1.000000; stroke-linejoin: miter; stroke-linecap: square;  opacity: 1.000000"  d="M 71.362515,247.346469 L 63.369562,247.682184 "/>
</g>
<g id="xtick20">
<text style="font-size: 12.000000; font-family: Bitstream Vera Sans; font-style: Roman; fill: #000000;" x="54.726656" y="222.635679" >4000</text>
<path style="fill: none; stroke: #000000; stroke-width: 1.000000; stroke-linejoin: miter; stroke-linecap: square;  opacity: 1.000000"  d="M 69.726656,218.135679 L 61.733703,218.471394 "/>
</g>
<g id="xtick21">
<text style="font-size: 12.000000; font-family: Bitstream Vera Sans; font-style: Roman; fill: #000000;" x="53.066774" y="192.995913" >5000</text>
<path style="fill: none; stroke: #000000; stroke-width: 1.000000; stroke-linejoin: miter; stroke-linecap: square;  opacity: 1.000000"  d="M 68.066774,188.495913 L 60.073821,188.831629 "/>
</g>
<g id="xtick22">
<text style="font-size: 12.000000; font-family: Bitstream Vera Sans; font-style: Roman; fill: #000000;" x="51.382335" y="162.917653" >6000</text>
<path style="fill: none; stroke: #000000; stroke-width: 1.000000; stroke-linejoin: miter; stroke-linecap: square;  opacity: 1.000000"  d="M 66.382335,158.417653 L 58.389382,158.753368 "/>
</g>
<g id="xtick23">
<text style="font-size: 12.000000; font-family: Bitstream Vera Sans; font-style: Roman; fill: #000000;" x="49.672790" y="132.391094" >7000</text>
<path style="fill: none; stroke: #000000; stroke-width: 1.000000; stroke-linejoin: miter; stroke-linecap: square;  opacity: 1.000000"  d="M 64.672790,127.891094 L 56.679837,128.226810 "/>
</g>
</g>
<g id="axes1">
<g id="regpolycollection1">
<defs>
    <clipPath id="4685744057707115011">
    <rect x="0.000000" y="0.000000" width="576.000000" height="432.000000"
    style="stroke: gray; fill: none;"/>
    </clipPath>
</defs>
<polygon style="fill: #0000ff; stroke: #000000; stroke-width: 1.000000; stroke-linejoin: miter; stroke-linecap: butt;  opacity: 0.730070" clip-path="url(#4685744057707115011)" points = "248.438186,155.029318 249.217877,155.152808 249.921246,155.511193 250.479443,156.069390 250.837828,156.772759 250.961319,157.552450 250.837828,158.332141 250.479443,159.035510 249.921246,159.593707 249.217877,159.952092 248.438186,160.075583 247.658495,159.952092 246.955126,159.593707 246.396929,159.035510 246.038545,158.332141 245.915054,157.552450 246.038545,156.772759 246.396929,156.069390 246.955126,155.511193 247.658495,155.152808"/>
<polygon style="fill: #0000ff; stroke: #000000; stroke-width: 1.000000; stroke-linejoin: miter; stroke-linecap: butt;  opacity: 0.548609" clip-path="url(#4685744057707115011)" points = "85.055157,329.010689 85.834848,329.134180 86.538217,329.492564 87.096414,330.050761 87.454798,330.754131 87.578289,331.533821 87.454798,332.313512 87.096414,333.016881 86.538217,333.575078 85.834848,333.933463 85.055157,334.056954 84.275466,333.933463 83.572097,333.575078 83.013900,333.016881 82.655515,332.313512 82.532024,331.533821 82.655515,330.754131 83.013900,330.050761 83.572097,329.492564 84.275466,329.134180"/>
<polygon style="fill: #0000ff; stroke: #000000; stroke-width: 1.000000; stroke-linejoin: miter; stroke-linecap: butt;  opacity: 0.632576" clip-path="url(#4685744057707115011)" points = "101.751407,225.225885 102.531097,225.349376 103.234467,225.707761 103.792664,226.265958 104.151048,226.969327 104.274539,227.749018 104.151048,228.528709 103.792664,229.232078 103.234467,229.790275 102.531097,230.148659 101.751407,230.272150 100.971716,230.148659 100.268346,229.790275 99.710149,229.232078 99.351765,228.528709 99.228274,227.749018 99.351765,226.969327 99.710149,226.265958 100.268346,225.707761 100.971716,225.349376"/>
<polygon style="fill: #0000ff; stroke: #000000; stroke-width: 1.000000; stroke-linejoin: miter; stroke-linecap: butt;  opacity: 0.578442" clip-path="url(#4685744057707115011)" points = "122.794681,209.498331 123.574371,209.621822 124.277741,209.980207 124.835938,210.538404 125.194322,211.241773 125.317813,212.021464 125.194322,212.801155 124.835938,213.504524 124.277741,214.062721 123.574371,214.421106 122.794681,214.544597 122.014990,214.421106 121.311620,214.062721 120.753423,213.504524 120.395039,212.801155 120.271548,212.021464 120.395039,211.241773 120.753423,210.538404 121.311620,209.980207 122.014990,209.621822"/>
<polygon style="fill: #0000ff; stroke: #000000; stroke-width: 1.000000; stroke-linejoin: miter; stroke-linecap: butt;  opacity: 0.408343" clip-path="url(#4685744057707115011)" points = "184.050373,172.721725 184.830063,172.845216 185.533433,173.203601 186.091630,173.761798 186.450014,174.465167 186.573505,175.244858 186.450014,176.024549 186.091630,176.727918 185.533433,177.286115 184.830063,177.644499 184.050373,177.767990 183.270682,177.644499 182.567312,177.286115 182.009115,176.727918 181.650731,176.024549 181.527240,175.244858 181.650731,174.465167 182.009115,173.761798 182.567312,173.203601 183.270682,172.845216"/>
<polygon style="fill: #0000ff; stroke: #000000; stroke-width: 1.000000; stroke-linejoin: miter; stroke-linecap: butt;  opacity: 0.520694" clip-path="url(#4685744057707115011)" points = "143.590917,197.012716 144.370608,197.136207 145.073977,197.494592 145.632174,198.052789 145.990559,198.756158 146.114049,199.535849 145.990559,200.315540 145.632174,201.018909 145.073977,201.577106 144.370608,201.935490 143.590917,202.058981 142.811226,201.935490 142.107857,201.577106 141.549660,201.018909 141.191275,200.315540 141.067784,199.535849 141.191275,198.756158 141.549660,198.052789 142.107857,197.494592 142.811226,197.136207"/>
<polygon style="fill: #0000ff; stroke: #000000; stroke-width: 1.000000; stroke-linejoin: miter; stroke-linecap: butt;  opacity: 0.464003" clip-path="url(#4685744057707115011)" points = "164.006020,184.755925 164.785711,184.879416 165.489080,185.237801 166.047277,185.795998 166.405662,186.499367 166.529153,187.279058 166.405662,188.058749 166.047277,188.762118 165.489080,189.320315 164.785711,189.678699 164.006020,189.802190 163.226329,189.678699 162.522960,189.320315 161.964763,188.762118 161.606378,188.058749 161.482888,187.279058 161.606378,186.499367 161.964763,185.795998 162.522960,185.237801 163.226329,184.879416"/>
<polygon style="fill: #0000ff; stroke: #000000; stroke-width: 1.000000; stroke-linejoin: miter; stroke-linecap: butt;  opacity: 0.602401" clip-path="url(#4685744057707115011)" points = "137.132292,341.731236 137.911983,341.854727 138.615352,342.213111 139.173549,342.771308 139.531933,343.474678 139.655424,344.254368 139.531933,345.034059 139.173549,345.737429 138.615352,346.295626 137.911983,346.654010 137.132292,346.777501 136.352601,346.654010 135.649232,346.295626 135.091035,345.737429 134.732650,345.034059 134.609159,344.254368 134.732650,343.474678 135.091035,342.771308 135.649232,342.213111 136.352601,341.854727"/>
<polygon style="fill: #0000ff; stroke: #000000; stroke-width: 1.000000; stroke-linejoin: miter; stroke-linecap: butt;  opacity: 0.353684" clip-path="url(#4685744057707115011)" points = "203.733983,160.904107 204.513674,161.027598 205.217043,161.385982 205.775240,161.944179 206.133625,162.647549 206.257115,163.427239 206.133625,164.206930 205.775240,164.910299 205.217043,165.468496 204.513674,165.826881 203.733983,165.950372 202.954292,165.826881 202.250923,165.468496 201.692726,164.910299 201.334341,164.206930 201.210850,163.427239 201.334341,162.647549 201.692726,161.944179 202.250923,161.385982 202.954292,161.027598"/>
<polygon style="fill: #0000ff; stroke: #000000; stroke-width: 1.000000; stroke-linejoin: miter; stroke-linecap: butt;  opacity: 0.300000" clip-path="url(#4685744057707115011)" points = "223.066503,149.297276 223.846194,149.420767 224.549563,149.779151 225.107760,150.337348 225.466145,151.040717 225.589635,151.820408 225.466145,152.600099 225.107760,153.303468 224.549563,153.861665 223.846194,154.220050 223.066503,154.343541 222.286812,154.220050 221.583443,153.861665 221.025246,153.303468 220.666861,152.600099 220.543370,151.820408 220.666861,151.040717 221.025246,150.337348 221.583443,149.779151 222.286812,149.420767"/>
<polygon style="fill: #0000ff; stroke: #000000; stroke-width: 1.000000; stroke-linejoin: miter; stroke-linecap: butt;  opacity: 0.736300" clip-path="url(#4685744057707115011)" points = "153.608657,206.585624 154.388348,206.709115 155.091717,207.067499 155.649914,207.625696 156.008299,208.329066 156.131789,209.108756 156.008299,209.888447 155.649914,210.591817 155.091717,211.150014 154.388348,211.508398 153.608657,211.631889 152.828966,211.508398 152.125597,211.150014 151.567400,210.591817 151.209015,209.888447 151.085524,209.108756 151.209015,208.329066 151.567400,207.625696 152.125597,207.067499 152.828966,206.709115"/>
<polygon style="fill: #0000ff; stroke: #000000; stroke-width: 1.000000; stroke-linejoin: miter; stroke-linecap: butt;  opacity: 0.689287" clip-path="url(#4685744057707115011)" points = "174.372212,185.060934 175.151903,185.184425 175.855272,185.542810 176.413469,186.101007 176.771854,186.804376 176.895345,187.584067 176.771854,188.363757 176.413469,189.067127 175.855272,189.625324 175.151903,189.983708 174.372212,190.107199 173.592521,189.983708 172.889152,189.625324 172.330955,189.067127 171.972570,188.363757 171.849079,187.584067 171.972570,186.804376 172.330955,186.101007 172.889152,185.542810 173.592521,185.184425"/>
<polygon style="fill: #0000ff; stroke: #000000; stroke-width: 1.000000; stroke-linejoin: miter; stroke-linecap: butt;  opacity: 0.635218" clip-path="url(#4685744057707115011)" points = "194.956934,168.867388 195.736625,168.990879 196.439994,169.349264 196.998191,169.907461 197.356576,170.610830 197.480067,171.390521 197.356576,172.170212 196.998191,172.873581 196.439994,173.431778 195.736625,173.790162 194.956934,173.913653 194.177243,173.790162 193.473874,173.431778 192.915677,172.873581 192.557292,172.170212 192.433802,171.390521 192.557292,170.610830 192.915677,169.907461 193.473874,169.349264 194.177243,168.990879"/>
<polygon style="fill: #0000ff; stroke: #000000; stroke-width: 1.000000; stroke-linejoin: miter; stroke-linecap: butt;  opacity: 0.576419" clip-path="url(#4685744057707115011)" points = "215.267108,156.648458 216.046799,156.771949 216.750168,157.130333 217.308365,157.688530 217.666750,158.391900 217.790241,159.171590 217.666750,159.951281 217.308365,160.654650 216.750168,161.212847 216.046799,161.571232 215.267108,161.694723 214.487417,161.571232 213.784048,161.212847 213.225851,160.654650 212.867467,159.951281 212.743976,159.171590 212.867467,158.391900 213.225851,157.688530 213.784048,157.130333 214.487417,156.771949"/>
<polygon style="fill: #0000ff; stroke: #000000; stroke-width: 1.000000; stroke-linejoin: miter; stroke-linecap: butt;  opacity: 0.518708" clip-path="url(#4685744057707115011)" points = "235.201735,144.655463 235.981426,144.778953 236.684795,145.137338 237.242992,145.695535 237.601377,146.398904 237.724868,147.178595 237.601377,147.958286 237.242992,148.661655 236.684795,149.219852 235.981426,149.578237 235.201735,149.701728 234.422044,149.578237 233.718675,149.219852 233.160478,148.661655 232.802094,147.958286 232.678603,147.178595 232.802094,146.398904 233.160478,145.695535 233.718675,145.137338 234.422044,144.778953"/>
<polygon style="fill: #0000ff; stroke: #000000; stroke-width: 1.000000; stroke-linejoin: miter; stroke-linecap: butt;  opacity: 0.657132" clip-path="url(#4685744057707115011)" points = "190.118859,354.673924 190.898550,354.797415 191.601919,355.155800 192.160116,355.713997 192.518501,356.417366 192.641991,357.197057 192.518501,357.976748 192.160116,358.680117 191.601919,359.238314 190.898550,359.596698 190.118859,359.720189 189.339168,359.596698 188.635799,359.238314 188.077602,358.680117 187.719217,357.976748 187.595726,357.197057 187.719217,356.417366 188.077602,355.713997 188.635799,355.155800 189.339168,354.797415"/>
<polygon style="fill: #0000ff; stroke: #000000; stroke-width: 1.000000; stroke-linejoin: miter; stroke-linecap: butt;  opacity: 0.462054" clip-path="url(#4685744057707115011)" points = "254.771136,132.882193 255.550827,133.005684 256.254196,133.364069 256.812393,133.922266 257.170778,134.625635 257.294269,135.405326 257.170778,136.185017 256.812393,136.888386 256.254196,137.446583 255.550827,137.804967 254.771136,137.928458 253.991445,137.804967 253.288076,137.446583 252.729879,136.888386 252.371494,136.185017 252.248004,135.405326 252.371494,134.625635 252.729879,133.922266 253.288076,133.364069 253.991445,133.005684"/>
<polygon style="fill: #0000ff; stroke: #000000; stroke-width: 1.000000; stroke-linejoin: miter; stroke-linecap: butt;  opacity: 0.406429" clip-path="url(#4685744057707115011)" points = "273.985257,121.322666 274.764948,121.446157 275.468317,121.804542 276.026514,122.362739 276.384898,123.066108 276.508389,123.845799 276.384898,124.625490 276.026514,125.328859 275.468317,125.887056 274.764948,126.245440 273.985257,126.368931 273.205566,126.245440 272.502197,125.887056 271.944000,125.328859 271.585615,124.625490 271.462124,123.845799 271.585615,123.066108 271.944000,122.362739 272.502197,121.804542 273.205566,121.446157"/>
<polygon style="fill: #0000ff; stroke: #000000; stroke-width: 1.000000; stroke-linejoin: miter; stroke-linecap: butt;  opacity: 0.793405" clip-path="url(#4685744057707115011)" points = "207.884159,218.601786 208.663850,218.725276 209.367219,219.083661 209.925416,219.641858 210.283801,220.345227 210.407292,221.124918 210.283801,221.904609 209.925416,222.607978 209.367219,223.166175 208.663850,223.524560 207.884159,223.648051 207.104468,223.524560 206.401099,223.166175 205.842902,222.607978 205.484517,221.904609 205.361026,221.124918 205.484517,220.345227 205.842902,219.641858 206.401099,219.083661 207.104468,218.725276"/>
<polygon style="fill: #0000ff; stroke: #000000; stroke-width: 1.000000; stroke-linejoin: miter; stroke-linecap: butt;  opacity: 0.787020" clip-path="url(#4685744057707115011)" points = "227.993834,170.568394 228.773525,170.691885 229.476894,171.050270 230.035091,171.608467 230.393475,172.311836 230.516966,173.091527 230.393475,173.871218 230.035091,174.574587 229.476894,175.132784 228.773525,175.491169 227.993834,175.614660 227.214143,175.491169 226.510774,175.132784 225.952577,174.574587 225.594192,173.871218 225.470701,173.091527 225.594192,172.311836 225.952577,171.608467 226.510774,171.050270 227.214143,170.691885"/>
<polygon style="fill: #0000ff; stroke: #000000; stroke-width: 1.000000; stroke-linejoin: miter; stroke-linecap: butt;  opacity: 0.730070" clip-path="url(#4685744057707115011)" points = "248.438186,155.029318 249.217877,155.152808 249.921246,155.511193 250.479443,156.069390 250.837828,156.772759 250.961319,157.552450 250.837828,158.332141 250.479443,159.035510 249.921246,159.593707 249.217877,159.952092 248.438186,160.075583 247.658495,159.952092 246.955126,159.593707 246.396929,159.035510 246.038545,158.332141 245.915054,157.552450 246.038545,156.772759 246.396929,156.069390 246.955126,155.511193 247.658495,155.152808"/>
<polygon style="fill: #0000ff; stroke: #000000; stroke-width: 1.000000; stroke-linejoin: miter; stroke-linecap: butt;  opacity: 0.669497" clip-path="url(#4685744057707115011)" points = "268.544699,142.759248 269.324390,142.882739 270.027759,143.241123 270.585956,143.799320 270.944340,144.502689 271.067831,145.282380 270.944340,146.062071 270.585956,146.765440 270.027759,147.323637 269.324390,147.682022 268.544699,147.805513 267.765008,147.682022 267.061639,147.323637 266.503442,146.765440 266.145057,146.062071 266.021566,145.282380 266.145057,144.502689 266.503442,143.799320 267.061639,143.241123 267.765008,142.882739"/>
<polygon style="fill: #0000ff; stroke: #000000; stroke-width: 1.000000; stroke-linejoin: miter; stroke-linecap: butt;  opacity: 0.712828" clip-path="url(#4685744057707115011)" points = "244.038891,367.844624 244.818582,367.968115 245.521951,368.326500 246.080148,368.884697 246.438532,369.588066 246.562023,370.367757 246.438532,371.147447 246.080148,371.850817 245.521951,372.409014 244.818582,372.767398 244.038891,372.890889 243.259200,372.767398 242.555831,372.409014 241.997634,371.850817 241.639249,371.147447 241.515758,370.367757 241.639249,369.588066 241.997634,368.884697 242.555831,368.326500 243.259200,367.968115"/>
<polygon style="fill: #0000ff; stroke: #000000; stroke-width: 1.000000; stroke-linejoin: miter; stroke-linecap: butt;  opacity: 0.610060" clip-path="url(#4685744057707115011)" points = "288.273939,130.719410 289.053629,130.842901 289.756999,131.201285 290.315196,131.759482 290.673580,132.462851 290.797071,133.242542 290.673580,134.022233 290.315196,134.725602 289.756999,135.283799 289.053629,135.642184 288.273939,135.765675 287.494248,135.642184 286.790879,135.283799 286.232682,134.725602 285.874297,134.022233 285.750806,133.242542 285.874297,132.462851 286.232682,131.759482 286.790879,131.201285 287.494248,130.842901"/>
<polygon style="fill: #0000ff; stroke: #000000; stroke-width: 1.000000; stroke-linejoin: miter; stroke-linecap: butt;  opacity: 0.551728" clip-path="url(#4685744057707115011)" points = "307.636426,118.903384 308.416116,119.026875 309.119486,119.385260 309.677683,119.943457 310.036067,120.646826 310.159558,121.426517 310.036067,122.206207 309.677683,122.909577 309.119486,123.467774 308.416116,123.826158 307.636426,123.949649 306.856735,123.826158 306.153366,123.467774 305.595169,122.909577 305.236784,122.206207 305.113293,121.426517 305.236784,120.646826 305.595169,119.943457 306.153366,119.385260 306.856735,119.026875"/>
<polygon style="fill: #0000ff; stroke: #000000; stroke-width: 1.000000; stroke-linejoin: miter; stroke-linecap: butt;  opacity: 0.494470" clip-path="url(#4685744057707115011)" points = "326.642292,107.304987 327.421983,107.428478 328.125352,107.786863 328.683549,108.345060 329.041934,109.048429 329.165425,109.828120 329.041934,110.607811 328.683549,111.311180 328.125352,111.869377 327.421983,112.227762 326.642292,112.351252 325.862601,112.227762 325.159232,111.869377 324.601035,111.311180 324.242650,110.607811 324.119159,109.828120 324.242650,109.048429 324.601035,108.345060 325.159232,107.786863 325.862601,107.428478"/>
<polygon style="fill: #0000ff; stroke: #000000; stroke-width: 1.000000; stroke-linejoin: miter; stroke-linecap: butt;  opacity: 0.851538" clip-path="url(#4685744057707115011)" points = "263.136626,230.834239 263.916317,230.957730 264.619686,231.316115 265.177883,231.874312 265.536267,232.577681 265.659758,233.357372 265.536267,234.137063 265.177883,234.840432 264.619686,235.398629 263.916317,235.757013 263.136626,235.880504 262.356935,235.757013 261.653566,235.398629 261.095369,234.840432 260.736984,234.137063 260.613493,233.357372 260.736984,232.577681 261.095369,231.874312 261.653566,231.316115 262.356935,230.957730"/>
<polygon style="fill: #0000ff; stroke: #000000; stroke-width: 1.000000; stroke-linejoin: miter; stroke-linecap: butt;  opacity: 0.845038" clip-path="url(#4685744057707115011)" points = "283.371998,182.356776 284.151689,182.480266 284.855059,182.838651 285.413256,183.396848 285.771640,184.100217 285.895131,184.879908 285.771640,185.659599 285.413256,186.362968 284.855059,186.921165 284.151689,187.279550 283.371998,187.403041 282.592308,187.279550 281.888938,186.921165 281.330741,186.362968 280.972357,185.659599 280.848866,184.879908 280.972357,184.100217 281.330741,183.396848 281.888938,182.838651 282.592308,182.480266"/>
<polygon style="fill: #0000ff; stroke: #000000; stroke-width: 1.000000; stroke-linejoin: miter; stroke-linecap: butt;  opacity: 0.769514" clip-path="url(#4685744057707115011)" points = "298.917274,381.249414 299.696965,381.372905 300.400334,381.731290 300.958531,382.289487 301.316915,382.992856 301.440406,383.772547 301.316915,384.552237 300.958531,385.255607 300.400334,385.813804 299.696965,386.172188 298.917274,386.295679 298.137583,386.172188 297.434214,385.813804 296.876017,385.255607 296.517632,384.552237 296.394141,383.772547 296.517632,382.992856 296.876017,382.289487 297.434214,381.731290 298.137583,381.372905"/>
<polygon style="fill: #0000ff; stroke: #000000; stroke-width: 1.000000; stroke-linejoin: miter; stroke-linecap: butt;  opacity: 0.787064" clip-path="url(#4685744057707115011)" points = "303.505436,166.574264 304.285127,166.697755 304.988496,167.056140 305.546693,167.614337 305.905078,168.317706 306.028569,169.097397 305.905078,169.877088 305.546693,170.580457 304.988496,171.138654 304.285127,171.497038 303.505436,171.620529 302.725745,171.497038 302.022376,171.138654 301.464179,170.580457 301.105794,169.877088 300.982304,169.097397 301.105794,168.317706 301.464179,167.614337 302.022376,167.056140 302.725745,166.697755"/>
<polygon style="fill: #0000ff; stroke: #000000; stroke-width: 1.000000; stroke-linejoin: miter; stroke-linecap: butt;  opacity: 0.725412" clip-path="url(#4685744057707115011)" points = "323.263278,154.085596 324.042968,154.209087 324.746338,154.567472 325.304535,155.125669 325.662919,155.829038 325.786410,156.608729 325.662919,157.388420 325.304535,158.091789 324.746338,158.649986 324.042968,159.008371 323.263278,159.131861 322.483587,159.008371 321.780217,158.649986 321.222020,158.091789 320.863636,157.388420 320.740145,156.608729 320.863636,155.829038 321.222020,155.125669 321.780217,154.567472 322.483587,154.209087"/>
<polygon style="fill: #0000ff; stroke: #000000; stroke-width: 1.000000; stroke-linejoin: miter; stroke-linecap: butt;  opacity: 0.664926" clip-path="url(#4685744057707115011)" points = "342.647148,141.833311 343.426838,141.956802 344.130208,142.315186 344.688405,142.873383 345.046789,143.576753 345.170280,144.356443 345.046789,145.136134 344.688405,145.839503 344.130208,146.397700 343.426838,146.756085 342.647148,146.879576 341.867457,146.756085 341.164088,146.397700 340.605891,145.839503 340.247506,145.136134 340.124015,144.356443 340.247506,143.576753 340.605891,142.873383 341.164088,142.315186 341.867457,141.956802"/>
<polygon style="fill: #0000ff; stroke: #000000; stroke-width: 1.000000; stroke-linejoin: miter; stroke-linecap: butt;  opacity: 0.605574" clip-path="url(#4685744057707115011)" points = "361.667564,129.810759 362.447255,129.934250 363.150624,130.292635 363.708821,130.850832 364.067206,131.554201 364.190697,132.333892 364.067206,133.113583 363.708821,133.816952 363.150624,134.375149 362.447255,134.733534 361.667564,134.857024 360.887874,134.733534 360.184504,134.375149 359.626307,133.816952 359.267923,133.113583 359.144432,132.333892 359.267923,131.554201 359.626307,130.850832 360.184504,130.292635 360.887874,129.934250"/>
<polygon style="fill: #0000ff; stroke: #000000; stroke-width: 1.000000; stroke-linejoin: miter; stroke-linecap: butt;  opacity: 0.547325" clip-path="url(#4685744057707115011)" points = "380.334655,118.011540 381.114346,118.135031 381.817715,118.493416 382.375912,119.051613 382.734297,119.754982 382.857788,120.534673 382.734297,121.314364 382.375912,122.017733 381.817715,122.575930 381.114346,122.934315 380.334655,123.057806 379.554964,122.934315 378.851595,122.575930 378.293398,122.017733 377.935013,121.314364 377.811523,120.534673 377.935013,119.754982 378.293398,119.051613 378.851595,118.493416 379.554964,118.135031"/>
<polygon style="fill: #0000ff; stroke: #000000; stroke-width: 1.000000; stroke-linejoin: miter; stroke-linecap: butt;  opacity: 0.910727" clip-path="url(#4685744057707115011)" points = "319.392675,243.288878 320.172366,243.412369 320.875735,243.770754 321.433932,244.328951 321.792317,245.032320 321.915808,245.812011 321.792317,246.591702 321.433932,247.295071 320.875735,247.853268 320.172366,248.211652 319.392675,248.335143 318.612984,248.211652 317.909615,247.853268 317.351418,247.295071 316.993033,246.591702 316.869542,245.812011 316.993033,245.032320 317.351418,244.328951 317.909615,243.770754 318.612984,243.412369"/>
<polygon style="fill: #0000ff; stroke: #000000; stroke-width: 1.000000; stroke-linejoin: miter; stroke-linecap: butt;  opacity: 0.939200" clip-path="url(#4685744057707115011)" points = "339.989880,172.684837 340.769571,172.808327 341.472940,173.166712 342.031137,173.724909 342.389522,174.428278 342.513013,175.207969 342.389522,175.987660 342.031137,176.691029 341.472940,177.249226 340.769571,177.607611 339.989880,177.731102 339.210189,177.607611 338.506820,177.249226 337.948623,176.691029 337.590239,175.987660 337.466748,175.207969 337.590239,174.428278 337.948623,173.724909 338.506820,173.166712 339.210189,172.808327"/>
<polygon style="fill: #0000ff; stroke: #000000; stroke-width: 1.000000; stroke-linejoin: miter; stroke-linecap: butt;  opacity: 0.879106" clip-path="url(#4685744057707115011)" points = "359.896206,157.038254 360.675896,157.161745 361.379266,157.520130 361.937463,158.078327 362.295847,158.781696 362.419338,159.561387 362.295847,160.341078 361.937463,161.044447 361.379266,161.602644 360.675896,161.961029 359.896206,162.084519 359.116515,161.961029 358.413146,161.602644 357.854949,161.044447 357.496564,160.341078 357.373073,159.561387 357.496564,158.781696 357.854949,158.078327 358.413146,157.520130 359.116515,157.161745"/>
<polygon style="fill: #0000ff; stroke: #000000; stroke-width: 1.000000; stroke-linejoin: miter; stroke-linecap: butt;  opacity: 0.827216" clip-path="url(#4685744057707115011)" points = "354.779787,394.894591 355.559478,395.018082 356.262847,395.376467 356.821044,395.934664 357.179428,396.638033 357.302919,397.417724 357.179428,398.197415 356.821044,398.900784 356.262847,399.458981 355.559478,399.817365 354.779787,399.940856 354.000096,399.817365 353.296727,399.458981 352.738530,398.900784 352.380145,398.197415 352.256654,397.417724 352.380145,396.638033 352.738530,395.934664 353.296727,395.376467 354.000096,395.018082"/>
<polygon style="fill: #0000ff; stroke: #000000; stroke-width: 1.000000; stroke-linejoin: miter; stroke-linecap: butt;  opacity: 0.815691" clip-path="url(#4685744057707115011)" points = "379.386753,144.465574 380.166444,144.589065 380.869813,144.947450 381.428010,145.505647 381.786394,146.209016 381.909885,146.988707 381.786394,147.768398 381.428010,148.471767 380.869813,149.029964 380.166444,149.388348 379.386753,149.511839 378.607062,149.388348 377.903693,149.029964 377.345496,148.471767 376.987111,147.768398 376.863620,146.988707 376.987111,146.209016 377.345496,145.505647 377.903693,144.947450 378.607062,144.589065"/>
<polygon style="fill: #0000ff; stroke: #000000; stroke-width: 1.000000; stroke-linejoin: miter; stroke-linecap: butt;  opacity: 0.753493" clip-path="url(#4685744057707115011)" points = "398.503227,132.134196 399.282917,132.257687 399.986287,132.616071 400.544484,133.174268 400.902868,133.877638 401.026359,134.657328 400.902868,135.437019 400.544484,136.140388 399.986287,136.698586 399.282917,137.056970 398.503227,137.180461 397.723536,137.056970 397.020166,136.698586 396.461969,136.140388 396.103585,135.437019 395.980094,134.657328 396.103585,133.877638 396.461969,133.174268 397.020166,132.616071 397.723536,132.257687"/>
<polygon style="fill: #0000ff; stroke: #000000; stroke-width: 1.000000; stroke-linejoin: miter; stroke-linecap: butt;  opacity: 0.692477" clip-path="url(#4685744057707115011)" points = "417.256294,120.037238 418.035985,120.160729 418.739354,120.519114 419.297551,121.077311 419.655936,121.780680 419.779426,122.560371 419.655936,123.340062 419.297551,124.043431 418.739354,124.601628 418.035985,124.960013 417.256294,125.083504 416.476603,124.960013 415.773234,124.601628 415.215037,124.043431 414.856652,123.340062 414.733161,122.560371 414.856652,121.780680 415.215037,121.077311 415.773234,120.519114 416.476603,120.160729"/>
<polygon style="fill: #0000ff; stroke: #000000; stroke-width: 1.000000; stroke-linejoin: miter; stroke-linecap: butt;  opacity: 0.971002" clip-path="url(#4685744057707115011)" points = "376.679900,255.971811 377.459591,256.095302 378.162960,256.453687 378.721157,257.011884 379.079542,257.715253 379.203033,258.494944 379.079542,259.274635 378.721157,259.978004 378.162960,260.536201 377.459591,260.894585 376.679900,261.018076 375.900209,260.894585 375.196840,260.536201 374.638643,259.978004 374.280259,259.274635 374.156768,258.494944 374.280259,257.715253 374.638643,257.011884 375.196840,256.453687 375.900209,256.095302"/>
<polygon style="fill: #0000ff; stroke: #000000; stroke-width: 1.000000; stroke-linejoin: miter; stroke-linecap: butt;  opacity: 0.632610" clip-path="url(#4685744057707115011)" points = "435.656220,108.168080 436.435911,108.291571 437.139280,108.649956 437.697477,109.208153 438.055861,109.911522 438.179352,110.691213 438.055861,111.470904 437.697477,112.174273 437.139280,112.732470 436.435911,113.090855 435.656220,113.214345 434.876529,113.090855 434.173160,112.732470 433.614963,112.174273 433.256578,111.470904 433.133087,110.691213 433.256578,109.911522 433.614963,109.208153 434.173160,108.649956 434.876529,108.291571"/>
<polygon style="fill: #0000ff; stroke: #000000; stroke-width: 1.000000; stroke-linejoin: miter; stroke-linecap: butt;  opacity: 1.000000" clip-path="url(#4685744057707115011)" points = "397.717010,184.773270 398.496701,184.896761 399.200070,185.255146 399.758267,185.813343 400.116652,186.516712 400.240143,187.296403 400.116652,188.076094 399.758267,188.779463 399.200070,189.337660 398.496701,189.696044 397.717010,189.819535 396.937319,189.696044 396.233950,189.337660 395.675753,188.779463 395.317369,188.076094 395.193878,187.296403 395.317369,186.516712 395.675753,185.813343 396.233950,185.255146 396.937319,184.896761"/>
<polygon style="fill: #0000ff; stroke: #000000; stroke-width: 1.000000; stroke-linejoin: miter; stroke-linecap: butt;  opacity: 0.938800" clip-path="url(#4685744057707115011)" points = "417.274887,168.872996 418.054578,168.996487 418.757947,169.354872 419.316144,169.913069 419.674529,170.616438 419.798020,171.396129 419.674529,172.175819 419.316144,172.879189 418.757947,173.437386 418.054578,173.795770 417.274887,173.919261 416.495196,173.795770 415.791827,173.437386 415.233630,172.879189 414.875245,172.175819 414.751754,171.396129 414.875245,170.616438 415.233630,169.913069 415.791827,169.354872 416.495196,168.996487"/>
<polygon style="fill: #0000ff; stroke: #000000; stroke-width: 1.000000; stroke-linejoin: miter; stroke-linecap: butt;  opacity: 0.810907" clip-path="url(#4685744057707115011)" points = "455.116114,143.517027 455.895805,143.640518 456.599175,143.998902 457.157372,144.557099 457.515756,145.260468 457.639247,146.040159 457.515756,146.819850 457.157372,147.523219 456.599175,148.081416 455.895805,148.439801 455.116114,148.563292 454.336424,148.439801 453.633054,148.081416 453.074857,147.523219 452.716473,146.819850 452.592982,146.040159 452.716473,145.260468 453.074857,144.557099 453.633054,143.998902 454.336424,143.640518"/>
<polygon style="fill: #0000ff; stroke: #000000; stroke-width: 1.000000; stroke-linejoin: miter; stroke-linecap: butt;  opacity: 0.874228" clip-path="url(#4685744057707115011)" points = "436.380483,156.071062 437.160174,156.194553 437.863543,156.552937 438.421740,157.111134 438.780125,157.814503 438.903616,158.594194 438.780125,159.373885 438.421740,160.077254 437.863543,160.635451 437.160174,160.993836 436.380483,161.117327 435.600792,160.993836 434.897423,160.635451 434.339226,160.077254 433.980841,159.373885 433.857351,158.594194 433.980841,157.814503 434.339226,157.111134 434.897423,156.552937 435.600792,156.194553"/>
<polygon style="fill: #0000ff; stroke: #000000; stroke-width: 1.000000; stroke-linejoin: miter; stroke-linecap: butt;  opacity: 0.687873" clip-path="url(#4685744057707115011)" points = "491.519651,119.124399 492.299342,119.247890 493.002711,119.606275 493.560908,120.164472 493.919293,120.867841 494.042784,121.647532 493.919293,122.427223 493.560908,123.130592 493.002711,123.688789 492.299342,124.047174 491.519651,124.170664 490.739960,124.047174 490.036591,123.688789 489.478394,123.130592 489.120009,122.427223 488.996519,121.647532 489.120009,120.867841 489.478394,120.164472 490.036591,119.606275 490.739960,119.247890"/>
<polygon style="fill: #0000ff; stroke: #000000; stroke-width: 1.000000; stroke-linejoin: miter; stroke-linecap: butt;  opacity: 0.748800" clip-path="url(#4685744057707115011)" points = "473.492424,131.203759 474.272115,131.327250 474.975484,131.685635 475.533681,132.243832 475.892066,132.947201 476.015557,133.726892 475.892066,134.506583 475.533681,135.209952 474.975484,135.768149 474.272115,136.126534 473.492424,136.250025 472.712733,136.126534 472.009364,135.768149 471.451167,135.209952 471.092783,134.506583 470.969292,133.726892 471.092783,132.947201 471.451167,132.243832 472.009364,131.685635 472.712733,131.327250"/>
<polygon style="fill: #0000ff; stroke: #000000; stroke-width: 1.000000; stroke-linejoin: miter; stroke-linecap: butt;  opacity: 0.520694" clip-path="url(#4685744057707115011)" points = "143.590917,197.012716 144.370608,197.136207 145.073977,197.494592 145.632174,198.052789 145.990559,198.756158 146.114049,199.535849 145.990559,200.315540 145.632174,201.018909 145.073977,201.577106 144.370608,201.935490 143.590917,202.058981 142.811226,201.935490 142.107857,201.577106 141.549660,201.018909 141.191275,200.315540 141.067784,199.535849 141.191275,198.756158 141.549660,198.052789 142.107857,197.494592 142.811226,197.136207"/>
<polygon style="fill: #0000ff; stroke: #000000; stroke-width: 1.000000; stroke-linejoin: miter; stroke-linecap: butt;  opacity: 0.635218" clip-path="url(#4685744057707115011)" points = "194.956934,168.867388 195.736625,168.990879 196.439994,169.349264 196.998191,169.907461 197.356576,170.610830 197.480067,171.390521 197.356576,172.170212 196.998191,172.873581 196.439994,173.431778 195.736625,173.790162 194.956934,173.913653 194.177243,173.790162 193.473874,173.431778 192.915677,172.873581 192.557292,172.170212 192.433802,171.390521 192.557292,170.610830 192.915677,169.907461 193.473874,169.349264 194.177243,168.990879"/>
<polygon style="fill: #0000ff; stroke: #000000; stroke-width: 1.000000; stroke-linejoin: miter; stroke-linecap: butt;  opacity: 0.730070" clip-path="url(#4685744057707115011)" points = "248.438186,155.029318 249.217877,155.152808 249.921246,155.511193 250.479443,156.069390 250.837828,156.772759 250.961319,157.552450 250.837828,158.332141 250.479443,159.035510 249.921246,159.593707 249.217877,159.952092 248.438186,160.075583 247.658495,159.952092 246.955126,159.593707 246.396929,159.035510 246.038545,158.332141 245.915054,157.552450 246.038545,156.772759 246.396929,156.069390 246.955126,155.511193 247.658495,155.152808"/>
<polygon style="fill: #0000ff; stroke: #000000; stroke-width: 1.000000; stroke-linejoin: miter; stroke-linecap: butt;  opacity: 0.787064" clip-path="url(#4685744057707115011)" points = "303.505436,166.574264 304.285127,166.697755 304.988496,167.056140 305.546693,167.614337 305.905078,168.317706 306.028569,169.097397 305.905078,169.877088 305.546693,170.580457 304.988496,171.138654 304.285127,171.497038 303.505436,171.620529 302.725745,171.497038 302.022376,171.138654 301.464179,170.580457 301.105794,169.877088 300.982304,169.097397 301.105794,168.317706 301.464179,167.614337 302.022376,167.056140 302.725745,166.697755"/>
<polygon style="fill: #0000ff; stroke: #000000; stroke-width: 1.000000; stroke-linejoin: miter; stroke-linecap: butt;  opacity: 0.879106" clip-path="url(#4685744057707115011)" points = "359.896206,157.038254 360.675896,157.161745 361.379266,157.520130 361.937463,158.078327 362.295847,158.781696 362.419338,159.561387 362.295847,160.341078 361.937463,161.044447 361.379266,161.602644 360.675896,161.961029 359.896206,162.084519 359.116515,161.961029 358.413146,161.602644 357.854949,161.044447 357.496564,160.341078 357.373073,159.561387 357.496564,158.781696 357.854949,158.078327 358.413146,157.520130 359.116515,157.161745"/>
<polygon style="fill: #0000ff; stroke: #000000; stroke-width: 1.000000; stroke-linejoin: miter; stroke-linecap: butt;  opacity: 0.938800" clip-path="url(#4685744057707115011)" points = "417.274887,168.872996 418.054578,168.996487 418.757947,169.354872 419.316144,169.913069 419.674529,170.616438 419.798020,171.396129 419.674529,172.175819 419.316144,172.879189 418.757947,173.437386 418.054578,173.795770 417.274887,173.919261 416.495196,173.795770 415.791827,173.437386 415.233630,172.879189 414.875245,172.175819 414.751754,171.396129 414.875245,170.616438 415.233630,169.913069 415.791827,169.354872 416.495196,168.996487"/>
<polygon style="fill: #0000ff; stroke: #000000; stroke-width: 1.000000; stroke-linejoin: miter; stroke-linecap: butt;  opacity: 0.578442" clip-path="url(#4685744057707115011)" points = "122.794681,209.498331 123.574371,209.621822 124.277741,209.980207 124.835938,210.538404 125.194322,211.241773 125.317813,212.021464 125.194322,212.801155 124.835938,213.504524 124.277741,214.062721 123.574371,214.421106 122.794681,214.544597 122.014990,214.421106 121.311620,214.062721 120.753423,213.504524 120.395039,212.801155 120.271548,212.021464 120.395039,211.241773 120.753423,210.538404 121.311620,209.980207 122.014990,209.621822"/>
</g>
<g id="matplotlib.axis1">
</g>
<g id="matplotlib.axis2">
</g>
</g>
</g>
</svg>
