<?xml version="1.0" standalone="no"?>
<!DOCTYPE svg PUBLIC "-//W3C//DTD SVG 1.1//EN"
  "http://www.w3.org/Graphics/SVG/1.1/DTD/svg11.dtd">
<!-- Created with matplotlib (http://matplotlib.sourceforge.net/) -->
<svg width="576" height="432" viewBox="0 0 576 432"
   xmlns="http://www.w3.org/2000/svg"
   xmlns:xlink="http://www.w3.org/1999/xlink"
   version="1.1"
   id="svg1">
<g id="figure1">
<polygon style="fill: #ffffff; stroke: #ffffff; stroke-width: 1.000000; stroke-linejoin: miter; stroke-linecap: square;  opacity: 1.000000"  points = "0.000000,432.000000 0.000000,0.000000 576.000000,0.000000 576.000000,432.000000"/>
<polygon style="fill: #ffffff; opacity: 1.000000"  points = "0.000000,432.000000 0.000000,0.000000 576.000000,0.000000 576.000000,432.000000"/>
<g id="axis3d1">
<polygon style="fill: #f2f2f2; stroke: #f2f2f2; stroke-width: 1.000000; stroke-linejoin: miter; stroke-linecap: square;  opacity: 0.100000"  points = "241.211914,230.626613 508.260241,289.840834 519.433224,81.348607 238.467267,28.237352"/>
<path style="fill: none; stroke: #000000; stroke-width: 0.750000; stroke-linejoin: miter; stroke-linecap: square;  opacity: 1.000000"  d="M 76.357701,336.543225 L 357.328625,405.507833 "/>
<text style="font-size: 12.000000; font-family: Bitstream Vera Sans; font-style: Roman; fill: #000000;" x="127.936123" y="379.403446" transform="translate(127.936123,379.403446) rotate(-341.9) translate(-127.936123,-379.403446)">max_call_mismatch_rate</text>
<g id="linecollection1">
<path style="fill: none; stroke: #e6e6e6; stroke-width: 1.000000; stroke-linejoin: miter; stroke-linecap: butt;  opacity: 1.000000"  d="M 81.730847,337.862069 L 246.335639,231.762727 L 243.846516,29.254197 "/>
<path style="fill: none; stroke: #e6e6e6; stroke-width: 1.000000; stroke-linejoin: miter; stroke-linecap: butt;  opacity: 1.000000"  d="M 133.806316,350.644048 L 295.959675,242.766161 L 295.968604,39.106883 "/>
<path style="fill: none; stroke: #e6e6e6; stroke-width: 1.000000; stroke-linejoin: miter; stroke-linecap: butt;  opacity: 1.000000"  d="M 186.791666,363.649357 L 346.387419,253.947806 L 348.978075,49.127313 "/>
<path style="fill: none; stroke: #e6e6e6; stroke-width: 1.000000; stroke-linejoin: miter; stroke-linecap: butt;  opacity: 1.000000"  d="M 240.710954,376.883903 L 397.638557,265.312027 L 402.897787,59.319806 "/>
<path style="fill: none; stroke: #e6e6e6; stroke-width: 1.000000; stroke-linejoin: miter; stroke-linecap: butt;  opacity: 1.000000"  d="M 295.589092,390.353800 L 449.733420,276.863332 L 457.751387,69.688832 "/>
<path style="fill: none; stroke: #e6e6e6; stroke-width: 1.000000; stroke-linejoin: miter; stroke-linecap: butt;  opacity: 1.000000"  d="M 351.451887,404.065382 L 502.693018,288.606380 L 513.563349,80.239019 "/>
</g>
<g id="xtick1">
<text style="font-size: 12.000000; font-family: Bitstream Vera Sans; font-style: Roman; fill: #000000;" x="68.730847" y="342.362069" >0.05</text>
<path style="fill: none; stroke: #000000; stroke-width: 1.000000; stroke-linejoin: miter; stroke-linecap: square;  opacity: 1.000000"  d="M 81.730847,337.862069 L 79.242567,345.465257 "/>
</g>
<g id="xtick2">
<text style="font-size: 12.000000; font-family: Bitstream Vera Sans; font-style: Roman; fill: #000000;" x="120.806316" y="355.144048" >0.10</text>
<path style="fill: none; stroke: #000000; stroke-width: 1.000000; stroke-linejoin: miter; stroke-linecap: square;  opacity: 1.000000"  d="M 133.806316,350.644048 L 131.318036,358.247235 "/>
</g>
<g id="xtick3">
<text style="font-size: 12.000000; font-family: Bitstream Vera Sans; font-style: Roman; fill: #000000;" x="173.791666" y="368.149357" >0.15</text>
<path style="fill: none; stroke: #000000; stroke-width: 1.000000; stroke-linejoin: miter; stroke-linecap: square;  opacity: 1.000000"  d="M 186.791666,363.649357 L 184.303386,371.252545 "/>
</g>
<g id="xtick4">
<text style="font-size: 12.000000; font-family: Bitstream Vera Sans; font-style: Roman; fill: #000000;" x="227.710954" y="381.383903" >0.20</text>
<path style="fill: none; stroke: #000000; stroke-width: 1.000000; stroke-linejoin: miter; stroke-linecap: square;  opacity: 1.000000"  d="M 240.710954,376.883903 L 238.222674,384.487091 "/>
</g>
<g id="xtick5">
<text style="font-size: 12.000000; font-family: Bitstream Vera Sans; font-style: Roman; fill: #000000;" x="282.589092" y="394.853800" >0.25</text>
<path style="fill: none; stroke: #000000; stroke-width: 1.000000; stroke-linejoin: miter; stroke-linecap: square;  opacity: 1.000000"  d="M 295.589092,390.353800 L 293.100812,397.956987 "/>
</g>
<g id="xtick6">
<text style="font-size: 12.000000; font-family: Bitstream Vera Sans; font-style: Roman; fill: #000000;" x="338.451887" y="408.565382" >0.30</text>
<path style="fill: none; stroke: #000000; stroke-width: 1.000000; stroke-linejoin: miter; stroke-linecap: square;  opacity: 1.000000"  d="M 351.451887,404.065382 L 348.963607,411.668569 "/>
</g>
</g>
<g id="axis3d2">
<polygon style="fill: #e6e6e6; stroke: #e6e6e6; stroke-width: 1.000000; stroke-linejoin: miter; stroke-linecap: square;  opacity: 0.500000"  points = "76.357701,336.543225 241.211914,230.626613 238.467267,28.237352 64.421350,123.401250"/>
<path style="fill: none; stroke: #000000; stroke-width: 0.750000; stroke-linejoin: miter; stroke-linecap: square;  opacity: 1.000000"  d="M 357.328625,405.507833 L 508.260241,289.840834 "/>
<text style="font-size: 12.000000; font-family: Bitstream Vera Sans; font-style: Roman; fill: #000000;" x="425.958426" y="409.045229" transform="translate(425.958426,409.045229) rotate(-45.6) translate(-425.958426,-409.045229)">max_call_NA_rate</text>
<g id="linecollection2">
<path style="fill: none; stroke: #e6e6e6; stroke-width: 1.000000; stroke-linejoin: miter; stroke-linecap: butt;  opacity: 1.000000"  d="M 360.586508,403.011142 L 79.904448,334.264487 L 68.180167,121.346024 "/>
<path style="fill: none; stroke: #e6e6e6; stroke-width: 1.000000; stroke-linejoin: miter; stroke-linecap: butt;  opacity: 1.000000"  d="M 382.645479,386.106169 L 103.932796,318.826597 L 93.628602,107.431465 "/>
<path style="fill: none; stroke: #e6e6e6; stroke-width: 1.000000; stroke-linejoin: miter; stroke-linecap: butt;  opacity: 1.000000"  d="M 404.225734,369.568061 L 127.462470,303.709099 L 118.520833,93.821023 "/>
<path style="fill: none; stroke: #e6e6e6; stroke-width: 1.000000; stroke-linejoin: miter; stroke-linecap: butt;  opacity: 1.000000"  d="M 425.342689,353.385005 L 150.508833,288.902121 L 142.874899,80.504837 "/>
<path style="fill: none; stroke: #e6e6e6; stroke-width: 1.000000; stroke-linejoin: miter; stroke-linecap: butt;  opacity: 1.000000"  d="M 446.011106,337.545687 L 173.086625,274.396194 L 166.708065,67.473466 "/>
<path style="fill: none; stroke: #e6e6e6; stroke-width: 1.000000; stroke-linejoin: miter; stroke-linecap: butt;  opacity: 1.000000"  d="M 466.245126,322.039272 L 195.209994,260.182227 L 190.036866,54.717868 "/>
<path style="fill: none; stroke: #e6e6e6; stroke-width: 1.000000; stroke-linejoin: miter; stroke-linecap: butt;  opacity: 1.000000"  d="M 486.058300,306.855374 L 216.892521,246.251496 L 212.877146,42.229382 "/>
<path style="fill: none; stroke: #e6e6e6; stroke-width: 1.000000; stroke-linejoin: miter; stroke-linecap: butt;  opacity: 1.000000"  d="M 505.463623,291.984033 L 238.147253,232.595617 L 235.244090,29.999704 "/>
</g>
<g id="xtick7">
<text style="font-size: 12.000000; font-family: Bitstream Vera Sans; font-style: Roman; fill: #000000;" x="347.586508" y="407.511142" >0.28</text>
<path style="fill: none; stroke: #000000; stroke-width: 1.000000; stroke-linejoin: miter; stroke-linecap: square;  opacity: 1.000000"  d="M 360.586508,403.011142 L 366.304039,408.606662 "/>
</g>
<g id="xtick8">
<text style="font-size: 12.000000; font-family: Bitstream Vera Sans; font-style: Roman; fill: #000000;" x="369.645479" y="390.606169" >0.30</text>
<path style="fill: none; stroke: #000000; stroke-width: 1.000000; stroke-linejoin: miter; stroke-linecap: square;  opacity: 1.000000"  d="M 382.645479,386.106169 L 388.363009,391.701689 "/>
</g>
<g id="xtick9">
<text style="font-size: 12.000000; font-family: Bitstream Vera Sans; font-style: Roman; fill: #000000;" x="391.202296" y="374.068061" >0.32</text>
<path style="fill: none; stroke: #000000; stroke-width: 1.000000; stroke-linejoin: miter; stroke-linecap: square;  opacity: 1.000000"  d="M 404.225734,369.568061 L 409.943264,375.163581 "/>
</g>
<g id="xtick10">
<text style="font-size: 12.000000; font-family: Bitstream Vera Sans; font-style: Roman; fill: #000000;" x="412.342689" y="357.885005" >0.34</text>
<path style="fill: none; stroke: #000000; stroke-width: 1.000000; stroke-linejoin: miter; stroke-linecap: square;  opacity: 1.000000"  d="M 425.342689,353.385005 L 431.060219,358.980525 "/>
</g>
<g id="xtick11">
<text style="font-size: 12.000000; font-family: Bitstream Vera Sans; font-style: Roman; fill: #000000;" x="433.011106" y="342.045687" >0.36</text>
<path style="fill: none; stroke: #000000; stroke-width: 1.000000; stroke-linejoin: miter; stroke-linecap: square;  opacity: 1.000000"  d="M 446.011106,337.545687 L 451.728636,343.141208 "/>
</g>
<g id="xtick12">
<text style="font-size: 12.000000; font-family: Bitstream Vera Sans; font-style: Roman; fill: #000000;" x="453.245126" y="326.539272" >0.38</text>
<path style="fill: none; stroke: #000000; stroke-width: 1.000000; stroke-linejoin: miter; stroke-linecap: square;  opacity: 1.000000"  d="M 466.245126,322.039272 L 471.962656,327.634793 "/>
</g>
<g id="xtick13">
<text style="font-size: 12.000000; font-family: Bitstream Vera Sans; font-style: Roman; fill: #000000;" x="473.058300" y="311.355374" >0.40</text>
<path style="fill: none; stroke: #000000; stroke-width: 1.000000; stroke-linejoin: miter; stroke-linecap: square;  opacity: 1.000000"  d="M 486.058300,306.855374 L 491.775830,312.450894 "/>
</g>
<g id="xtick14">
<text style="font-size: 12.000000; font-family: Bitstream Vera Sans; font-style: Roman; fill: #000000;" x="492.440186" y="296.484033" >0.42</text>
<path style="fill: none; stroke: #000000; stroke-width: 1.000000; stroke-linejoin: miter; stroke-linecap: square;  opacity: 1.000000"  d="M 505.463623,291.984033 L 511.181153,297.579553 "/>
</g>
</g>
<g id="axis3d3">
<polygon style="fill: #f2f2f2; stroke: #f2f2f2; stroke-width: 1.000000; stroke-linejoin: miter; stroke-linecap: square;  opacity: 0.100000"  points = "76.357701,336.543225 357.328625,405.507833 508.260241,289.840834 241.211914,230.626613"/>
<path style="fill: none; stroke: #000000; stroke-width: 0.750000; stroke-linejoin: miter; stroke-linecap: square;  opacity: 1.000000"  d="M 76.357701,336.543225 L 64.421350,123.401250 "/>
<text style="font-size: 12.000000; font-family: Bitstream Vera Sans; font-style: Roman; fill: #000000;" x="42.776287" y="295.161185" transform="translate(42.776287,295.161185) rotate(-92.4) translate(-42.776287,-295.161185)">avg_mismatch_rate</text>
<g id="linecollection3">
<path style="fill: none; stroke: #e6e6e6; stroke-width: 1.000000; stroke-linejoin: miter; stroke-linecap: butt;  opacity: 1.000000"  d="M 76.131056,332.496136 L 241.159600,226.768965 L 508.472750,285.875342 "/>
<path style="fill: none; stroke: #e6e6e6; stroke-width: 1.000000; stroke-linejoin: miter; stroke-linecap: butt;  opacity: 1.000000"  d="M 74.761295,308.036938 L 240.843595,203.466858 L 509.756781,261.914813 "/>
<path style="fill: none; stroke: #e6e6e6; stroke-width: 1.000000; stroke-linejoin: miter; stroke-linecap: butt;  opacity: 1.000000"  d="M 73.374343,283.270770 L 240.523912,179.893572 L 511.056411,237.663220 "/>
<path style="fill: none; stroke: #e6e6e6; stroke-width: 1.000000; stroke-linejoin: miter; stroke-linecap: butt;  opacity: 1.000000"  d="M 71.969875,258.191816 L 240.200487,156.044348 L 512.371924,213.115229 "/>
<path style="fill: none; stroke: #e6e6e6; stroke-width: 1.000000; stroke-linejoin: miter; stroke-linecap: butt;  opacity: 1.000000"  d="M 70.547556,232.794112 L 239.873254,131.914310 L 513.703614,188.265371 "/>
<path style="fill: none; stroke: #e6e6e6; stroke-width: 1.000000; stroke-linejoin: miter; stroke-linecap: butt;  opacity: 1.000000"  d="M 69.107044,207.071543 L 239.542145,107.498471 L 515.051781,163.108045 "/>
<path style="fill: none; stroke: #e6e6e6; stroke-width: 1.000000; stroke-linejoin: miter; stroke-linecap: butt;  opacity: 1.000000"  d="M 67.647987,181.017835 L 239.207091,82.791721 L 516.416733,137.637508 "/>
<path style="fill: none; stroke: #e6e6e6; stroke-width: 1.000000; stroke-linejoin: miter; stroke-linecap: butt;  opacity: 1.000000"  d="M 66.170026,154.626554 L 238.868021,57.788832 L 517.798785,111.847874 "/>
<path style="fill: none; stroke: #e6e6e6; stroke-width: 1.000000; stroke-linejoin: miter; stroke-linecap: butt;  opacity: 1.000000"  d="M 64.672790,127.891094 L 238.524862,32.484445 L 519.198260,85.733110 "/>
</g>
<g id="xtick15">
<text style="font-size: 12.000000; font-family: Bitstream Vera Sans; font-style: Roman; fill: #000000;" x="59.131056" y="336.996136" >0.010</text>
<path style="fill: none; stroke: #000000; stroke-width: 1.000000; stroke-linejoin: miter; stroke-linecap: square;  opacity: 1.000000"  d="M 76.131056,332.496136 L 68.138103,332.831851 "/>
</g>
<g id="xtick16">
<text style="font-size: 12.000000; font-family: Bitstream Vera Sans; font-style: Roman; fill: #000000;" x="57.761295" y="312.536938" >0.015</text>
<path style="fill: none; stroke: #000000; stroke-width: 1.000000; stroke-linejoin: miter; stroke-linecap: square;  opacity: 1.000000"  d="M 74.761295,308.036938 L 66.768342,308.372654 "/>
</g>
<g id="xtick17">
<text style="font-size: 12.000000; font-family: Bitstream Vera Sans; font-style: Roman; fill: #000000;" x="56.374343" y="287.770770" >0.020</text>
<path style="fill: none; stroke: #000000; stroke-width: 1.000000; stroke-linejoin: miter; stroke-linecap: square;  opacity: 1.000000"  d="M 73.374343,283.270770 L 65.381390,283.606485 "/>
</g>
<g id="xtick18">
<text style="font-size: 12.000000; font-family: Bitstream Vera Sans; font-style: Roman; fill: #000000;" x="54.969875" y="262.691816" >0.025</text>
<path style="fill: none; stroke: #000000; stroke-width: 1.000000; stroke-linejoin: miter; stroke-linecap: square;  opacity: 1.000000"  d="M 71.969875,258.191816 L 63.976922,258.527531 "/>
</g>
<g id="xtick19">
<text style="font-size: 12.000000; font-family: Bitstream Vera Sans; font-style: Roman; fill: #000000;" x="53.547556" y="237.294112" >0.030</text>
<path style="fill: none; stroke: #000000; stroke-width: 1.000000; stroke-linejoin: miter; stroke-linecap: square;  opacity: 1.000000"  d="M 70.547556,232.794112 L 62.554603,233.129827 "/>
</g>
<g id="xtick20">
<text style="font-size: 12.000000; font-family: Bitstream Vera Sans; font-style: Roman; fill: #000000;" x="52.107044" y="211.571543" >0.035</text>
<path style="fill: none; stroke: #000000; stroke-width: 1.000000; stroke-linejoin: miter; stroke-linecap: square;  opacity: 1.000000"  d="M 69.107044,207.071543 L 61.114091,207.407258 "/>
</g>
<g id="xtick21">
<text style="font-size: 12.000000; font-family: Bitstream Vera Sans; font-style: Roman; fill: #000000;" x="50.647987" y="185.517835" >0.040</text>
<path style="fill: none; stroke: #000000; stroke-width: 1.000000; stroke-linejoin: miter; stroke-linecap: square;  opacity: 1.000000"  d="M 67.647987,181.017835 L 59.655034,181.353551 "/>
</g>
<g id="xtick22">
<text style="font-size: 12.000000; font-family: Bitstream Vera Sans; font-style: Roman; fill: #000000;" x="49.170026" y="159.126554" >0.045</text>
<path style="fill: none; stroke: #000000; stroke-width: 1.000000; stroke-linejoin: miter; stroke-linecap: square;  opacity: 1.000000"  d="M 66.170026,154.626554 L 58.177073,154.962269 "/>
</g>
<g id="xtick23">
<text style="font-size: 12.000000; font-family: Bitstream Vera Sans; font-style: Roman; fill: #000000;" x="47.672790" y="132.391094" >0.050</text>
<path style="fill: none; stroke: #000000; stroke-width: 1.000000; stroke-linejoin: miter; stroke-linecap: square;  opacity: 1.000000"  d="M 64.672790,127.891094 L 56.679837,128.226810 "/>
</g>
</g>
<g id="axes1">
<g id="regpolycollection1">
<defs>
    <clipPath id="4685744057707115011">
    <rect x="0.000000" y="0.000000" width="576.000000" height="432.000000"
    style="stroke: gray; fill: none;"/>
    </clipPath>
</defs>
<polygon style="fill: #0000ff; stroke: #000000; stroke-width: 1.000000; stroke-linejoin: miter; stroke-linecap: butt;  opacity: 0.679447" clip-path="url(#4685744057707115011)" points = "323.779172,133.877079 324.558863,134.000570 325.262232,134.358954 325.820429,134.917151 326.178814,135.620520 326.302305,136.400211 326.178814,137.179902 325.820429,137.883271 325.262232,138.441468 324.558863,138.799853 323.779172,138.923344 322.999481,138.799853 322.296112,138.441468 321.737915,137.883271 321.379531,137.179902 321.256040,136.400211 321.379531,135.620520 321.737915,134.917151 322.296112,134.358954 322.999481,134.000570"/>
<polygon style="fill: #0000ff; stroke: #000000; stroke-width: 1.000000; stroke-linejoin: miter; stroke-linecap: butt;  opacity: 0.408963" clip-path="url(#4685744057707115011)" points = "220.847067,179.271578 221.626758,179.395069 222.330127,179.753454 222.888324,180.311651 223.246709,181.015020 223.370200,181.794711 223.246709,182.574402 222.888324,183.277771 222.330127,183.835968 221.626758,184.194353 220.847067,184.317843 220.067376,184.194353 219.364007,183.835968 218.805810,183.277771 218.447425,182.574402 218.323935,181.794711 218.447425,181.015020 218.805810,180.311651 219.364007,179.753454 220.067376,179.395069"/>
<polygon style="fill: #0000ff; stroke: #000000; stroke-width: 1.000000; stroke-linejoin: miter; stroke-linecap: butt;  opacity: 0.537436" clip-path="url(#4685744057707115011)" points = "271.477076,159.216942 272.256767,159.340433 272.960136,159.698818 273.518333,160.257015 273.876718,160.960384 274.000209,161.740075 273.876718,162.519766 273.518333,163.223135 272.960136,163.781332 272.256767,164.139717 271.477076,164.263207 270.697385,164.139717 269.994016,163.781332 269.435819,163.223135 269.077434,162.519766 268.953943,161.740075 269.077434,160.960384 269.435819,160.257015 269.994016,159.698818 270.697385,159.340433"/>
<polygon style="fill: #0000ff; stroke: #000000; stroke-width: 1.000000; stroke-linejoin: miter; stroke-linecap: butt;  opacity: 0.656643" clip-path="url(#4685744057707115011)" points = "323.702520,145.153207 324.482211,145.276698 325.185580,145.635082 325.743777,146.193279 326.102162,146.896649 326.225652,147.676340 326.102162,148.456030 325.743777,149.159400 325.185580,149.717597 324.482211,150.075981 323.702520,150.199472 322.922829,150.075981 322.219460,149.717597 321.661263,149.159400 321.302878,148.456030 321.179387,147.676340 321.302878,146.896649 321.661263,146.193279 322.219460,145.635082 322.922829,145.276698"/>
<polygon style="fill: #0000ff; stroke: #000000; stroke-width: 1.000000; stroke-linejoin: miter; stroke-linecap: butt;  opacity: 0.742190" clip-path="url(#4685744057707115011)" points = "377.111005,148.855801 377.890696,148.979292 378.594065,149.337677 379.152262,149.895874 379.510646,150.599243 379.634137,151.378934 379.510646,152.158624 379.152262,152.861994 378.594065,153.420191 377.890696,153.778575 377.111005,153.902066 376.331314,153.778575 375.627945,153.420191 375.069748,152.861994 374.711363,152.158624 374.587872,151.378934 374.711363,150.599243 375.069748,149.895874 375.627945,149.337677 376.331314,148.979292"/>
<polygon style="fill: #0000ff; stroke: #000000; stroke-width: 1.000000; stroke-linejoin: miter; stroke-linecap: butt;  opacity: 0.870623" clip-path="url(#4685744057707115011)" points = "432.289704,132.760879 433.069395,132.884370 433.772764,133.242755 434.330961,133.800952 434.689346,134.504321 434.812837,135.284012 434.689346,136.063703 434.330961,136.767072 433.772764,137.325269 433.069395,137.683653 432.289704,137.807144 431.510014,137.683653 430.806644,137.325269 430.248447,136.767072 429.890063,136.063703 429.766572,135.284012 429.890063,134.504321 430.248447,133.800952 430.806644,133.242755 431.510014,132.884370"/>
<polygon style="fill: #0000ff; stroke: #000000; stroke-width: 1.000000; stroke-linejoin: miter; stroke-linecap: butt;  opacity: 0.965699" clip-path="url(#4685744057707115011)" points = "488.348859,134.019742 489.128550,134.143233 489.831919,134.501618 490.390116,135.059815 490.748501,135.763184 490.871992,136.542875 490.748501,137.322565 490.390116,138.025935 489.831919,138.584132 489.128550,138.942516 488.348859,139.066007 487.569168,138.942516 486.865799,138.584132 486.307602,138.025935 485.949217,137.322565 485.825727,136.542875 485.949217,135.763184 486.307602,135.059815 486.865799,134.501618 487.569168,134.143233"/>
<polygon style="fill: #0000ff; stroke: #000000; stroke-width: 1.000000; stroke-linejoin: miter; stroke-linecap: butt;  opacity: 0.590270" clip-path="url(#4685744057707115011)" points = "323.479417,177.973418 324.259107,178.096909 324.962477,178.455293 325.520674,179.013490 325.879058,179.716859 326.002549,180.496550 325.879058,181.276241 325.520674,181.979610 324.962477,182.537807 324.259107,182.896192 323.479417,183.019683 322.699726,182.896192 321.996356,182.537807 321.438159,181.979610 321.079775,181.276241 320.956284,180.496550 321.079775,179.716859 321.438159,179.013490 321.996356,178.455293 322.699726,178.096909"/>
<polygon style="fill: #0000ff; stroke: #000000; stroke-width: 1.000000; stroke-linejoin: miter; stroke-linecap: butt;  opacity: 0.351201" clip-path="url(#4685744057707115011)" points = "221.384217,208.466627 222.163908,208.590117 222.867277,208.948502 223.425474,209.506699 223.783859,210.210068 223.907350,210.989759 223.783859,211.769450 223.425474,212.472819 222.867277,213.031016 222.163908,213.389401 221.384217,213.512892 220.604527,213.389401 219.901157,213.031016 219.342960,212.472819 218.984576,211.769450 218.861085,210.989759 218.984576,210.210068 219.342960,209.506699 219.901157,208.948502 220.604527,208.590117"/>
<polygon style="fill: #0000ff; stroke: #000000; stroke-width: 1.000000; stroke-linejoin: miter; stroke-linecap: butt;  opacity: 0.455344" clip-path="url(#4685744057707115011)" points = "271.720814,200.259815 272.500505,200.383306 273.203874,200.741691 273.762071,201.299888 274.120455,202.003257 274.243946,202.782948 274.120455,203.562639 273.762071,204.266008 273.203874,204.824205 272.500505,205.182589 271.720814,205.306080 270.941123,205.182589 270.237754,204.824205 269.679557,204.266008 269.321172,203.562639 269.197681,202.782948 269.321172,202.003257 269.679557,201.299888 270.237754,200.741691 270.941123,200.383306"/>
<polygon style="fill: #0000ff; stroke: #000000; stroke-width: 1.000000; stroke-linejoin: miter; stroke-linecap: butt;  opacity: 0.560058" clip-path="url(#4685744057707115011)" points = "323.377866,192.912246 324.157557,193.035737 324.860926,193.394121 325.419123,193.952318 325.777508,194.655688 325.900999,195.435378 325.777508,196.215069 325.419123,196.918438 324.860926,197.476635 324.157557,197.835020 323.377866,197.958511 322.598175,197.835020 321.894806,197.476635 321.336609,196.918438 320.978225,196.215069 320.854734,195.435378 320.978225,194.655688 321.336609,193.952318 321.894806,193.394121 322.598175,193.035737"/>
<polygon style="fill: #0000ff; stroke: #000000; stroke-width: 1.000000; stroke-linejoin: miter; stroke-linecap: butt;  opacity: 0.674888" clip-path="url(#4685744057707115011)" points = "376.458724,181.766544 377.238415,181.890035 377.941784,182.248419 378.499981,182.806616 378.858366,183.509986 378.981857,184.289676 378.858366,185.069367 378.499981,185.772736 377.941784,186.330933 377.238415,186.689318 376.458724,186.812809 375.679033,186.689318 374.975664,186.330933 374.417467,185.772736 374.059083,185.069367 373.935592,184.289676 374.059083,183.509986 374.417467,182.806616 374.975664,182.248419 375.679033,181.890035"/>
<polygon style="fill: #0000ff; stroke: #000000; stroke-width: 1.000000; stroke-linejoin: miter; stroke-linecap: butt;  opacity: 0.793165" clip-path="url(#4685744057707115011)" points = "431.048665,170.212748 431.828356,170.336239 432.531725,170.694623 433.089922,171.252820 433.448306,171.956190 433.571797,172.735881 433.448306,173.515571 433.089922,174.218941 432.531725,174.777138 431.828356,175.135522 431.048665,175.259013 430.268974,175.135522 429.565605,174.777138 429.007408,174.218941 428.649023,173.515571 428.525532,172.735881 428.649023,171.956190 429.007408,171.252820 429.565605,170.694623 430.268974,170.336239"/>
<polygon style="fill: #0000ff; stroke: #000000; stroke-width: 1.000000; stroke-linejoin: miter; stroke-linecap: butt;  opacity: 0.886955" clip-path="url(#4685744057707115011)" points = "486.588732,171.661773 487.368423,171.785264 488.071792,172.143648 488.629989,172.701845 488.988374,173.405214 489.111865,174.184905 488.988374,174.964596 488.629989,175.667965 488.071792,176.226162 487.368423,176.584547 486.588732,176.708038 485.809041,176.584547 485.105672,176.226162 484.547475,175.667965 484.189091,174.964596 484.065600,174.184905 484.189091,173.405214 484.547475,172.701845 485.105672,172.143648 485.809041,171.785264"/>
<polygon style="fill: #0000ff; stroke: #000000; stroke-width: 1.000000; stroke-linejoin: miter; stroke-linecap: butt;  opacity: 0.527479" clip-path="url(#4685744057707115011)" points = "323.268354,209.022267 324.048045,209.145758 324.751414,209.504142 325.309611,210.062339 325.667996,210.765708 325.791487,211.545399 325.667996,212.325090 325.309611,213.028459 324.751414,213.586656 324.048045,213.945041 323.268354,214.068532 322.488664,213.945041 321.785294,213.586656 321.227097,213.028459 320.868713,212.325090 320.745222,211.545399 320.868713,210.765708 321.227097,210.062339 321.785294,209.504142 322.488664,209.145758"/>
<polygon style="fill: #0000ff; stroke: #000000; stroke-width: 1.000000; stroke-linejoin: miter; stroke-linecap: butt;  opacity: 0.325439" clip-path="url(#4685744057707115011)" points = "221.623796,221.488132 222.403487,221.611623 223.106856,221.970008 223.665053,222.528205 224.023438,223.231574 224.146928,224.011265 224.023438,224.790956 223.665053,225.494325 223.106856,226.052522 222.403487,226.410907 221.623796,226.534397 220.844105,226.410907 220.140736,226.052522 219.582539,225.494325 219.224154,224.790956 219.100663,224.011265 219.224154,223.231574 219.582539,222.528205 220.140736,221.970008 220.844105,221.611623"/>
<polygon style="fill: #0000ff; stroke: #000000; stroke-width: 1.000000; stroke-linejoin: miter; stroke-linecap: butt;  opacity: 0.421788" clip-path="url(#4685744057707115011)" points = "271.820443,217.036375 272.600134,217.159866 273.303503,217.518251 273.861700,218.076448 274.220085,218.779817 274.343576,219.559508 274.220085,220.339199 273.861700,221.042568 273.303503,221.600765 272.600134,221.959150 271.820443,222.082640 271.040752,221.959150 270.337383,221.600765 269.779186,221.042568 269.420802,220.339199 269.297311,219.559508 269.420802,218.779817 269.779186,218.076448 270.337383,217.518251 271.040752,217.159866"/>
<polygon style="fill: #0000ff; stroke: #000000; stroke-width: 1.000000; stroke-linejoin: miter; stroke-linecap: butt;  opacity: 0.527479" clip-path="url(#4685744057707115011)" points = "323.268354,209.022267 324.048045,209.145758 324.751414,209.504142 325.309611,210.062339 325.667996,210.765708 325.791487,211.545399 325.667996,212.325090 325.309611,213.028459 324.751414,213.586656 324.048045,213.945041 323.268354,214.068532 322.488664,213.945041 321.785294,213.586656 321.227097,213.028459 320.868713,212.325090 320.745222,211.545399 320.868713,210.765708 321.227097,210.062339 321.785294,209.504142 322.488664,209.145758"/>
<polygon style="fill: #0000ff; stroke: #000000; stroke-width: 1.000000; stroke-linejoin: miter; stroke-linecap: butt;  opacity: 0.632474" clip-path="url(#4685744057707115011)" points = "376.047654,202.507028 376.827345,202.630519 377.530714,202.988903 378.088911,203.547100 378.447296,204.250470 378.570787,205.030161 378.447296,205.809851 378.088911,206.513221 377.530714,207.071418 376.827345,207.429802 376.047654,207.553293 375.267963,207.429802 374.564594,207.071418 374.006397,206.513221 373.648013,205.809851 373.524522,205.030161 373.648013,204.250470 374.006397,203.547100 374.564594,202.988903 375.267963,202.630519"/>
<polygon style="fill: #0000ff; stroke: #000000; stroke-width: 1.000000; stroke-linejoin: miter; stroke-linecap: butt;  opacity: 0.744880" clip-path="url(#4685744057707115011)" points = "430.275024,193.559539 431.054715,193.683030 431.758084,194.041415 432.316281,194.599612 432.674666,195.302981 432.798156,196.082672 432.674666,196.862363 432.316281,197.565732 431.758084,198.123929 431.054715,198.482314 430.275024,198.605804 429.495333,198.482314 428.791964,198.123929 428.233767,197.565732 427.875382,196.862363 427.751891,196.082672 427.875382,195.302981 428.233767,194.599612 428.791964,194.041415 429.495333,193.683030"/>
<polygon style="fill: #0000ff; stroke: #000000; stroke-width: 1.000000; stroke-linejoin: miter; stroke-linecap: butt;  opacity: 0.848272" clip-path="url(#4685744057707115011)" points = "485.724060,190.153633 486.503751,190.277124 487.207120,190.635508 487.765317,191.193705 488.123702,191.897074 488.247192,192.676765 488.123702,193.456456 487.765317,194.159825 487.207120,194.718022 486.503751,195.076407 485.724060,195.199898 484.944369,195.076407 484.241000,194.718022 483.682803,194.159825 483.324418,193.456456 483.200927,192.676765 483.324418,191.897074 483.682803,191.193705 484.241000,190.635508 484.944369,190.277124"/>
<polygon style="fill: #0000ff; stroke: #000000; stroke-width: 1.000000; stroke-linejoin: miter; stroke-linecap: butt;  opacity: 0.500653" clip-path="url(#4685744057707115011)" points = "323.178183,222.287099 323.957874,222.410590 324.661243,222.768975 325.219441,223.327172 325.577825,224.030541 325.701316,224.810232 325.577825,225.589922 325.219441,226.293292 324.661243,226.851489 323.957874,227.209873 323.178183,227.333364 322.398493,227.209873 321.695123,226.851489 321.136926,226.293292 320.778542,225.589922 320.655051,224.810232 320.778542,224.030541 321.136926,223.327172 321.695123,222.768975 322.398493,222.410590"/>
<polygon style="fill: #0000ff; stroke: #000000; stroke-width: 1.000000; stroke-linejoin: miter; stroke-linecap: butt;  opacity: 0.317237" clip-path="url(#4685744057707115011)" points = "221.700066,225.633552 222.479757,225.757043 223.183126,226.115428 223.741323,226.673625 224.099708,227.376994 224.223199,228.156685 224.099708,228.936376 223.741323,229.639745 223.183126,230.197942 222.479757,230.556326 221.700066,230.679817 220.920375,230.556326 220.217006,230.197942 219.658809,229.639745 219.300425,228.936376 219.176934,228.156685 219.300425,227.376994 219.658809,226.673625 220.217006,226.115428 220.920375,225.757043"/>
<polygon style="fill: #0000ff; stroke: #000000; stroke-width: 1.000000; stroke-linejoin: miter; stroke-linecap: butt;  opacity: 0.397481" clip-path="url(#4685744057707115011)" points = "271.892615,229.189317 272.672306,229.312808 273.375675,229.671193 273.933872,230.229390 274.292256,230.932759 274.415747,231.712450 274.292256,232.492140 273.933872,233.195510 273.375675,233.753707 272.672306,234.112091 271.892615,234.235582 271.112924,234.112091 270.409555,233.753707 269.851358,233.195510 269.492973,232.492140 269.369482,231.712450 269.492973,230.932759 269.851358,230.229390 270.409555,229.671193 271.112924,229.312808"/>
<polygon style="fill: #0000ff; stroke: #000000; stroke-width: 1.000000; stroke-linejoin: miter; stroke-linecap: butt;  opacity: 0.492075" clip-path="url(#4685744057707115011)" points = "323.149350,226.528780 323.929040,226.652271 324.632410,227.010656 325.190607,227.568853 325.548991,228.272222 325.672482,229.051913 325.548991,229.831604 325.190607,230.534973 324.632410,231.093170 323.929040,231.451555 323.149350,231.575046 322.369659,231.451555 321.666289,231.093170 321.108092,230.534973 320.749708,229.831604 320.626217,229.051913 320.749708,228.272222 321.108092,227.568853 321.666289,227.010656 322.369659,226.652271"/>
<polygon style="fill: #0000ff; stroke: #000000; stroke-width: 1.000000; stroke-linejoin: miter; stroke-linecap: butt;  opacity: 0.607493" clip-path="url(#4685744057707115011)" points = "375.805552,214.722254 376.585243,214.845745 377.288612,215.204130 377.846809,215.762327 378.205194,216.465696 378.328685,217.245387 378.205194,218.025077 377.846809,218.728447 377.288612,219.286644 376.585243,219.645028 375.805552,219.768519 375.025862,219.645028 374.322492,219.286644 373.764295,218.728447 373.405911,218.025077 373.282420,217.245387 373.405911,216.465696 373.764295,215.762327 374.322492,215.204130 375.025862,214.845745"/>
<polygon style="fill: #0000ff; stroke: #000000; stroke-width: 1.000000; stroke-linejoin: miter; stroke-linecap: butt;  opacity: 0.682446" clip-path="url(#4685744057707115011)" points = "429.274702,223.747087 430.054392,223.870578 430.757762,224.228963 431.315959,224.787160 431.674343,225.490529 431.797834,226.270220 431.674343,227.049911 431.315959,227.753280 430.757762,228.311477 430.054392,228.669862 429.274702,228.793352 428.495011,228.669862 427.791641,228.311477 427.233444,227.753280 426.875060,227.049911 426.751569,226.270220 426.875060,225.490529 427.233444,224.787160 427.791641,224.228963 428.495011,223.870578"/>
<polygon style="fill: #0000ff; stroke: #000000; stroke-width: 1.000000; stroke-linejoin: miter; stroke-linecap: butt;  opacity: 0.776962" clip-path="url(#4685744057707115011)" points = "484.130096,224.242103 484.909787,224.365594 485.613156,224.723978 486.171353,225.282175 486.529738,225.985544 486.653229,226.765235 486.529738,227.544926 486.171353,228.248295 485.613156,228.806492 484.909787,229.164877 484.130096,229.288368 483.350405,229.164877 482.647036,228.806492 482.088839,228.248295 481.730455,227.544926 481.606964,226.765235 481.730455,225.985544 482.088839,225.282175 482.647036,224.723978 483.350405,224.365594"/>
<polygon style="fill: #0000ff; stroke: #000000; stroke-width: 1.000000; stroke-linejoin: miter; stroke-linecap: butt;  opacity: 0.300000" clip-path="url(#4685744057707115011)" points = "221.860365,234.346088 222.640056,234.469579 223.343425,234.827963 223.901622,235.386160 224.260007,236.089530 224.383498,236.869221 224.260007,237.648911 223.901622,238.352281 223.343425,238.910478 222.640056,239.268862 221.860365,239.392353 221.080674,239.268862 220.377305,238.910478 219.819108,238.352281 219.460724,237.648911 219.337233,236.869221 219.460724,236.089530 219.819108,235.386160 220.377305,234.827963 221.080674,234.469579"/>
<polygon style="fill: #0000ff; stroke: #000000; stroke-width: 1.000000; stroke-linejoin: miter; stroke-linecap: butt;  opacity: 0.381439" clip-path="url(#4685744057707115011)" points = "271.940242,237.209303 272.719933,237.332794 273.423302,237.691179 273.981499,238.249376 274.339884,238.952745 274.463375,239.732436 274.339884,240.512127 273.981499,241.215496 273.423302,241.773693 272.719933,242.132077 271.940242,242.255568 271.160552,242.132077 270.457182,241.773693 269.898985,241.215496 269.540601,240.512127 269.417110,239.732436 269.540601,238.952745 269.898985,238.249376 270.457182,237.691179 271.160552,237.332794"/>
<polygon style="fill: #0000ff; stroke: #000000; stroke-width: 1.000000; stroke-linejoin: miter; stroke-linecap: butt;  opacity: 0.473499" clip-path="url(#4685744057707115011)" points = "323.086909,235.714284 323.866600,235.837775 324.569969,236.196159 325.128166,236.754356 325.486550,237.457725 325.610041,238.237416 325.486550,239.017107 325.128166,239.720476 324.569969,240.278673 323.866600,240.637058 323.086909,240.760549 322.307218,240.637058 321.603849,240.278673 321.045652,239.720476 320.687267,239.017107 320.563776,238.237416 320.687267,237.457725 321.045652,236.754356 321.603849,236.196159 322.307218,235.837775"/>
<polygon style="fill: #0000ff; stroke: #000000; stroke-width: 1.000000; stroke-linejoin: miter; stroke-linecap: butt;  opacity: 0.578319" clip-path="url(#4685744057707115011)" points = "375.522801,228.988459 376.302492,229.111950 377.005861,229.470334 377.564058,230.028531 377.922442,230.731901 378.045933,231.511592 377.922442,232.291282 377.564058,232.994652 377.005861,233.552849 376.302492,233.911233 375.522801,234.034724 374.743110,233.911233 374.039741,233.552849 373.481544,232.994652 373.123159,232.291282 372.999668,231.511592 373.123159,230.731901 373.481544,230.028531 374.039741,229.470334 374.743110,229.111950"/>
<polygon style="fill: #0000ff; stroke: #000000; stroke-width: 1.000000; stroke-linejoin: miter; stroke-linecap: butt;  opacity: 0.652939" clip-path="url(#4685744057707115011)" points = "428.801938,238.014070 429.581628,238.137561 430.284998,238.495945 430.843195,239.054142 431.201579,239.757512 431.325070,240.537202 431.201579,241.316893 430.843195,242.020262 430.284998,242.578459 429.581628,242.936844 428.801938,243.060335 428.022247,242.936844 427.318878,242.578459 426.760681,242.020262 426.402296,241.316893 426.278805,240.537202 426.402296,239.757512 426.760681,239.054142 427.318878,238.495945 428.022247,238.137561"/>
<polygon style="fill: #0000ff; stroke: #000000; stroke-width: 1.000000; stroke-linejoin: miter; stroke-linecap: butt;  opacity: 0.745900" clip-path="url(#4685744057707115011)" points = "483.435782,239.090681 484.215473,239.214172 484.918842,239.572557 485.477039,240.130754 485.835424,240.834123 485.958915,241.613814 485.835424,242.393505 485.477039,243.096874 484.918842,243.655071 484.215473,244.013456 483.435782,244.136946 482.656091,244.013456 481.952722,243.655071 481.394525,243.096874 481.036141,242.393505 480.912650,241.613814 481.036141,240.834123 481.394525,240.130754 481.952722,239.572557 482.656091,239.214172"/>
<polygon style="fill: #0000ff; stroke: #000000; stroke-width: 1.000000; stroke-linejoin: miter; stroke-linecap: butt;  opacity: 0.431199" clip-path="url(#4685744057707115011)" points = "220.640284,168.032575 221.419975,168.156066 222.123344,168.514450 222.681541,169.072647 223.039926,169.776017 223.163417,170.555707 223.039926,171.335398 222.681541,172.038767 222.123344,172.596964 221.419975,172.955349 220.640284,173.078840 219.860593,172.955349 219.157224,172.596964 218.599027,172.038767 218.240643,171.335398 218.117152,170.555707 218.240643,169.776017 218.599027,169.072647 219.157224,168.514450 219.860593,168.156066"/>
<polygon style="fill: #0000ff; stroke: #000000; stroke-width: 1.000000; stroke-linejoin: miter; stroke-linecap: butt;  opacity: 0.550343" clip-path="url(#4685744057707115011)" points = "271.438754,152.763968 272.218445,152.887459 272.921814,153.245843 273.480011,153.804040 273.838396,154.507409 273.961887,155.287100 273.838396,156.066791 273.480011,156.770160 272.921814,157.328357 272.218445,157.686742 271.438754,157.810233 270.659063,157.686742 269.955694,157.328357 269.397497,156.770160 269.039113,156.066791 268.915622,155.287100 269.039113,154.507409 269.397497,153.804040 269.955694,153.245843 270.659063,152.887459"/>
<polygon style="fill: #0000ff; stroke: #000000; stroke-width: 1.000000; stroke-linejoin: miter; stroke-linecap: butt;  opacity: 0.679447" clip-path="url(#4685744057707115011)" points = "323.779172,133.877079 324.558863,134.000570 325.262232,134.358954 325.820429,134.917151 326.178814,135.620520 326.302305,136.400211 326.178814,137.179902 325.820429,137.883271 325.262232,138.441468 324.558863,138.799853 323.779172,138.923344 322.999481,138.799853 322.296112,138.441468 321.737915,137.883271 321.379531,137.179902 321.256040,136.400211 321.379531,135.620520 321.737915,134.917151 322.296112,134.358954 322.999481,134.000570"/>
<polygon style="fill: #0000ff; stroke: #000000; stroke-width: 1.000000; stroke-linejoin: miter; stroke-linecap: butt;  opacity: 0.808582" clip-path="url(#4685744057707115011)" points = "377.754454,116.390634 378.534145,116.514125 379.237514,116.872509 379.795711,117.430706 380.154096,118.134075 380.277587,118.913766 380.154096,119.693457 379.795711,120.396826 379.237514,120.955023 378.534145,121.313408 377.754454,121.436899 376.974763,121.313408 376.271394,120.955023 375.713197,120.396826 375.354812,119.693457 375.231322,118.913766 375.354812,118.134075 375.713197,117.430706 376.271394,116.872509 376.974763,116.514125"/>
<polygon style="fill: #0000ff; stroke: #000000; stroke-width: 1.000000; stroke-linejoin: miter; stroke-linecap: butt;  opacity: 0.933811" clip-path="url(#4685744057707115011)" points = "433.302124,102.208253 434.081815,102.331743 434.785184,102.690128 435.343381,103.248325 435.701766,103.951694 435.825257,104.731385 435.701766,105.511076 435.343381,106.214445 434.785184,106.772642 434.081815,107.131027 433.302124,107.254518 432.522434,107.131027 431.819064,106.772642 431.260867,106.214445 430.902483,105.511076 430.778992,104.731385 430.902483,103.951694 431.260867,103.248325 431.819064,102.690128 432.522434,102.331743"/>
<polygon style="fill: #0000ff; stroke: #000000; stroke-width: 1.000000; stroke-linejoin: miter; stroke-linecap: butt;  opacity: 1.000000" clip-path="url(#4685744057707115011)" points = "489.115586,117.622535 489.895277,117.746026 490.598646,118.104411 491.156843,118.662608 491.515228,119.365977 491.638719,120.145668 491.515228,120.925359 491.156843,121.628728 490.598646,122.186925 489.895277,122.545310 489.115586,122.668800 488.335895,122.545310 487.632526,122.186925 487.074329,121.628728 486.715945,120.925359 486.592454,120.145668 486.715945,119.365977 487.074329,118.662608 487.632526,118.104411 488.335895,117.746026"/>
<polygon style="fill: #0000ff; stroke: #000000; stroke-width: 1.000000; stroke-linejoin: miter; stroke-linecap: butt;  opacity: 0.318456" clip-path="url(#4685744057707115011)" points = "221.688730,225.017412 222.468421,225.140903 223.171790,225.499287 223.729987,226.057484 224.088372,226.760854 224.211863,227.540544 224.088372,228.320235 223.729987,229.023605 223.171790,229.581802 222.468421,229.940186 221.688730,230.063677 220.909039,229.940186 220.205670,229.581802 219.647473,229.023605 219.289088,228.320235 219.165597,227.540544 219.289088,226.760854 219.647473,226.057484 220.205670,225.499287 220.909039,225.140903"/>
<polygon style="fill: #0000ff; stroke: #000000; stroke-width: 1.000000; stroke-linejoin: miter; stroke-linecap: butt;  opacity: 0.403380" clip-path="url(#4685744057707115011)" points = "271.875100,226.240042 272.654791,226.363533 273.358160,226.721918 273.916357,227.280115 274.274742,227.983484 274.398233,228.763175 274.274742,229.542866 273.916357,230.246235 273.358160,230.804432 272.654791,231.162817 271.875100,231.286308 271.095409,231.162817 270.392040,230.804432 269.833843,230.246235 269.475459,229.542866 269.351968,228.763175 269.475459,227.983484 269.833843,227.280115 270.392040,226.721918 271.095409,226.363533"/>
<polygon style="fill: #0000ff; stroke: #000000; stroke-width: 1.000000; stroke-linejoin: miter; stroke-linecap: butt;  opacity: 0.500653" clip-path="url(#4685744057707115011)" points = "323.178183,222.287099 323.957874,222.410590 324.661243,222.768975 325.219441,223.327172 325.577825,224.030541 325.701316,224.810232 325.577825,225.589922 325.219441,226.293292 324.661243,226.851489 323.957874,227.209873 323.178183,227.333364 322.398493,227.209873 321.695123,226.851489 321.136926,226.293292 320.778542,225.589922 320.655051,224.810232 320.778542,224.030541 321.136926,223.327172 321.695123,222.768975 322.398493,222.410590"/>
<polygon style="fill: #0000ff; stroke: #000000; stroke-width: 1.000000; stroke-linejoin: miter; stroke-linecap: butt;  opacity: 0.617956" clip-path="url(#4685744057707115011)" points = "375.906953,209.606081 376.686644,209.729572 377.390013,210.087956 377.948210,210.646153 378.306595,211.349523 378.430086,212.129214 378.306595,212.908904 377.948210,213.612274 377.390013,214.170471 376.686644,214.528855 375.906953,214.652346 375.127262,214.528855 374.423893,214.170471 373.865696,213.612274 373.507312,212.908904 373.383821,212.129214 373.507312,211.349523 373.865696,210.646153 374.423893,210.087956 375.127262,209.729572"/>
<polygon style="fill: #0000ff; stroke: #000000; stroke-width: 1.000000; stroke-linejoin: miter; stroke-linecap: butt;  opacity: 0.702151" clip-path="url(#4685744057707115011)" points = "429.590412,214.219637 430.370103,214.343128 431.073472,214.701512 431.631669,215.259709 431.990054,215.963079 432.113544,216.742770 431.990054,217.522460 431.631669,218.225830 431.073472,218.784027 430.370103,219.142411 429.590412,219.265902 428.810721,219.142411 428.107352,218.784027 427.549155,218.225830 427.190770,217.522460 427.067279,216.742770 427.190770,215.963079 427.549155,215.259709 428.107352,214.701512 428.810721,214.343128"/>
<polygon style="fill: #0000ff; stroke: #000000; stroke-width: 1.000000; stroke-linejoin: miter; stroke-linecap: butt;  opacity: 0.797255" clip-path="url(#4685744057707115011)" points = "484.583695,214.541438 485.363386,214.664929 486.066756,215.023313 486.624953,215.581510 486.983337,216.284879 487.106828,217.064570 486.983337,217.844261 486.624953,218.547630 486.066756,219.105827 485.363386,219.464212 484.583695,219.587703 483.804005,219.464212 483.100635,219.105827 482.542438,218.547630 482.184054,217.844261 482.060563,217.064570 482.184054,216.284879 482.542438,215.581510 483.100635,215.023313 483.804005,214.664929"/>
<polygon style="fill: #0000ff; stroke: #000000; stroke-width: 1.000000; stroke-linejoin: miter; stroke-linecap: butt;  opacity: 0.739098" clip-path="url(#4685744057707115011)" points = "108.283832,296.878276 109.063523,297.001767 109.766892,297.360152 110.325089,297.918349 110.683474,298.621718 110.806964,299.401409 110.683474,300.181100 110.325089,300.884469 109.766892,301.442666 109.063523,301.801051 108.283832,301.924541 107.504141,301.801051 106.800772,301.442666 106.242575,300.884469 105.884190,300.181100 105.760699,299.401409 105.884190,298.621718 106.242575,297.918349 106.800772,297.360152 107.504141,297.001767"/>
</g>
<g id="matplotlib.axis1">
</g>
<g id="matplotlib.axis2">
</g>
</g>
</g>
</svg>
