<?xml version="1.0" standalone="no"?>
<!DOCTYPE svg PUBLIC "-//W3C//DTD SVG 1.1//EN"
  "http://www.w3.org/Graphics/SVG/1.1/DTD/svg11.dtd">
<!-- Created with matplotlib (http://matplotlib.sourceforge.net/) -->
<svg width="585" height="441" viewBox="0 0 585 441"
   xmlns="http://www.w3.org/2000/svg"
   xmlns:xlink="http://www.w3.org/1999/xlink"
   version="1.1"
   id="svg1">
<g id="figure1">
<polygon style="fill: #ffffff; stroke: #ffffff; stroke-width: 1.000000; stroke-linejoin: miter; stroke-linecap: square;  opacity: 1.000000"  points = "0.000000,441.000000 0.000000,0.000000 585.000000,0.000000 585.000000,441.000000"/>
<g id="axes1">
<polygon style="fill: #ffffff; stroke: #000000; stroke-width: 1.000000; stroke-linejoin: miter; stroke-linecap: square;  opacity: 1.000000"  points = "73.125000,396.900000 73.125000,44.100000 526.500000,44.100000 526.500000,396.900000"/>
<defs>
    <clipPath id="7240474723315632415">
    <rect x="73.125000" y="44.100000" width="453.375000" height="352.800000"
    style="stroke: gray; fill: none;"/>
    </clipPath>
</defs>
<polygon style="fill: #0000ff; opacity: 1.000000" clip-path="url(#7240474723315632415)" points = "73.901631,43.437777 72.335631,44.337777 72.335631,46.137777 73.901631,47.037777 75.467631,46.137777 75.467631,44.337777"/>
<polygon style="fill: #0000ff; opacity: 1.000000" clip-path="url(#7240474723315632415)" points = "75.174255,393.129169 73.608255,394.029169 73.608255,395.829169 75.174255,396.729169 76.740255,395.829169 76.740255,394.029169"/>
<polygon style="fill: #0000ff; opacity: 1.000000" clip-path="url(#7240474723315632415)" points = "79.132219,395.092268 77.566219,395.992268 77.566219,397.792268 79.132219,398.692268 80.698219,397.792268 80.698219,395.992268"/>
<polygon style="fill: #0000ff; opacity: 1.000000" clip-path="url(#7240474723315632415)" points = "90.551375,233.332268 88.985375,234.232268 88.985375,236.032268 90.551375,236.932268 92.117375,236.032268 92.117375,234.232268"/>
<polygon style="fill: #0000ff; opacity: 1.000000" clip-path="url(#7240474723315632415)" points = "95.364404,193.387685 93.798404,194.287685 93.798404,196.087685 95.364404,196.987685 96.930404,196.087685 96.930404,194.287685"/>
<polygon style="fill: #0000ff; opacity: 1.000000" clip-path="url(#7240474723315632415)" points = "104.212470,305.801204 102.646470,306.701204 102.646470,308.501204 104.212470,309.401204 105.778470,308.501204 105.778470,306.701204"/>
<polygon style="fill: #0000ff; opacity: 1.000000" clip-path="url(#7240474723315632415)" points = "121.569479,271.901392 120.003479,272.801392 120.003479,274.601392 121.569479,275.501392 123.135479,274.601392 123.135479,272.801392"/>
<polygon style="fill: #0000ff; opacity: 1.000000" clip-path="url(#7240474723315632415)" points = "122.579145,342.672579 121.013145,343.572579 121.013145,345.372579 122.579145,346.272579 124.145145,345.372579 124.145145,343.572579"/>
<polygon style="fill: #0000ff; opacity: 1.000000" clip-path="url(#7240474723315632415)" points = "139.839585,384.215296 138.273585,385.115296 138.273585,386.915296 139.839585,387.815296 141.405585,386.915296 141.405585,385.115296"/>
<polygon style="fill: #0000ff; opacity: 1.000000" clip-path="url(#7240474723315632415)" points = "142.816445,352.686110 141.250445,353.586110 141.250445,355.386110 142.816445,356.286110 144.382445,355.386110 144.382445,353.586110"/>
<polygon style="fill: #0000ff; opacity: 1.000000" clip-path="url(#7240474723315632415)" points = "143.808883,310.998032 142.242883,311.898032 142.242883,313.698032 143.808883,314.598032 145.374883,313.698032 145.374883,311.898032"/>
<polygon style="fill: #0000ff; opacity: 1.000000" clip-path="url(#7240474723315632415)" points = "145.283258,394.082957 143.717258,394.982957 143.717258,396.782957 145.283258,397.682957 146.849258,396.782957 146.849258,394.982957"/>
<polygon style="fill: #0000ff; opacity: 1.000000" clip-path="url(#7240474723315632415)" points = "147.172019,308.119456 145.606019,309.019456 145.606019,310.819456 147.172019,311.719456 148.738019,310.819456 148.738019,309.019456"/>
<polygon style="fill: #0000ff; opacity: 1.000000" clip-path="url(#7240474723315632415)" points = "147.332513,355.148183 145.766513,356.048183 145.766513,357.848183 147.332513,358.748183 148.898513,357.848183 148.898513,356.048183"/>
<polygon style="fill: #0000ff; opacity: 1.000000" clip-path="url(#7240474723315632415)" points = "147.695213,270.247828 146.129213,271.147828 146.129213,272.947828 147.695213,273.847828 149.261213,272.947828 149.261213,271.147828"/>
<polygon style="fill: #0000ff; opacity: 1.000000" clip-path="url(#7240474723315632415)" points = "150.467601,326.742141 148.901601,327.642141 148.901601,329.442141 150.467601,330.342141 152.033601,329.442141 152.033601,327.642141"/>
<polygon style="fill: #0000ff; opacity: 1.000000" clip-path="url(#7240474723315632415)" points = "151.509910,311.664395 149.943910,312.564395 149.943910,314.364395 151.509910,315.264395 153.075910,314.364395 153.075910,312.564395"/>
<polygon style="fill: #0000ff; opacity: 1.000000" clip-path="url(#7240474723315632415)" points = "151.524872,370.477753 149.958872,371.377753 149.958872,373.177753 151.524872,374.077753 153.090872,373.177753 153.090872,371.377753"/>
<polygon style="fill: #0000ff; opacity: 1.000000" clip-path="url(#7240474723315632415)" points = "153.538764,393.007070 151.972764,393.907070 151.972764,395.707070 153.538764,396.607070 155.104764,395.707070 155.104764,393.907070"/>
<polygon style="fill: #0000ff; opacity: 1.000000" clip-path="url(#7240474723315632415)" points = "153.985791,273.076833 152.419791,273.976833 152.419791,275.776833 153.985791,276.676833 155.551791,275.776833 155.551791,273.976833"/>
<polygon style="fill: #0000ff; opacity: 1.000000" clip-path="url(#7240474723315632415)" points = "156.914141,281.103407 155.348140,282.003407 155.348140,283.803407 156.914141,284.703407 158.480141,283.803407 158.480141,282.003407"/>
<polygon style="fill: #0000ff; opacity: 1.000000" clip-path="url(#7240474723315632415)" points = "160.978647,362.331196 159.412647,363.231196 159.412647,365.031196 160.978647,365.931196 162.544647,365.031196 162.544647,363.231196"/>
<polygon style="fill: #0000ff; opacity: 1.000000" clip-path="url(#7240474723315632415)" points = "161.468292,372.769892 159.902292,373.669892 159.902292,375.469892 161.468292,376.369892 163.034292,375.469892 163.034292,373.669892"/>
<polygon style="fill: #0000ff; opacity: 1.000000" clip-path="url(#7240474723315632415)" points = "163.228747,299.909582 161.662747,300.809582 161.662747,302.609582 163.228747,303.509582 164.794747,302.609582 164.794747,300.809582"/>
<polygon style="fill: #0000ff; opacity: 1.000000" clip-path="url(#7240474723315632415)" points = "164.824174,385.369109 163.258174,386.269109 163.258174,388.069109 164.824174,388.969109 166.390174,388.069109 166.390174,386.269109"/>
<polygon style="fill: #0000ff; opacity: 1.000000" clip-path="url(#7240474723315632415)" points = "169.779110,391.285946 168.213110,392.185946 168.213110,393.985946 169.779110,394.885946 171.345110,393.985946 171.345110,392.185946"/>
<polygon style="fill: #0000ff; opacity: 1.000000" clip-path="url(#7240474723315632415)" points = "173.359412,393.512605 171.793412,394.412605 171.793412,396.212605 173.359412,397.112605 174.925412,396.212605 174.925412,394.412605"/>
<polygon style="fill: #0000ff; opacity: 1.000000" clip-path="url(#7240474723315632415)" points = "175.578683,361.754920 174.012683,362.654920 174.012683,364.454920 175.578683,365.354920 177.144683,364.454920 177.144683,362.654920"/>
<polygon style="fill: #0000ff; opacity: 1.000000" clip-path="url(#7240474723315632415)" points = "176.450523,260.676302 174.884523,261.576302 174.884523,263.376302 176.450523,264.276302 178.016523,263.376302 178.016523,261.576302"/>
<polygon style="fill: #0000ff; opacity: 1.000000" clip-path="url(#7240474723315632415)" points = "181.585901,377.199150 180.019901,378.099150 180.019901,379.899150 181.585901,380.799150 183.151901,379.899150 183.151901,378.099150"/>
<polygon style="fill: #0000ff; opacity: 1.000000" clip-path="url(#7240474723315632415)" points = "184.959465,302.996559 183.393465,303.896559 183.393465,305.696559 184.959465,306.596559 186.525465,305.696559 186.525465,303.896559"/>
<polygon style="fill: #0000ff; opacity: 1.000000" clip-path="url(#7240474723315632415)" points = "188.077325,303.071582 186.511325,303.971582 186.511325,305.771582 188.077325,306.671582 189.643325,305.771582 189.643325,303.971582"/>
<polygon style="fill: #0000ff; opacity: 1.000000" clip-path="url(#7240474723315632415)" points = "188.260941,341.642546 186.694941,342.542546 186.694941,344.342546 188.260941,345.242546 189.826941,344.342546 189.826941,342.542546"/>
<polygon style="fill: #0000ff; opacity: 1.000000" clip-path="url(#7240474723315632415)" points = "190.556832,369.615937 188.990832,370.515937 188.990832,372.315937 190.556832,373.215937 192.122832,372.315937 192.122832,370.515937"/>
<polygon style="fill: #0000ff; opacity: 1.000000" clip-path="url(#7240474723315632415)" points = "192.832775,333.884804 191.266775,334.784804 191.266775,336.584804 192.832775,337.484804 194.398775,336.584804 194.398775,334.784804"/>
<polygon style="fill: #0000ff; opacity: 1.000000" clip-path="url(#7240474723315632415)" points = "195.512675,326.393371 193.946675,327.293371 193.946675,329.093371 195.512675,329.993371 197.078675,329.093371 197.078675,327.293371"/>
<polygon style="fill: #0000ff; opacity: 1.000000" clip-path="url(#7240474723315632415)" points = "197.912388,378.839548 196.346388,379.739548 196.346388,381.539548 197.912388,382.439548 199.478388,381.539548 199.478388,379.739548"/>
<polygon style="fill: #0000ff; opacity: 1.000000" clip-path="url(#7240474723315632415)" points = "201.094628,337.290172 199.528627,338.190172 199.528627,339.990172 201.094628,340.890172 202.660628,339.990172 202.660628,338.190172"/>
<polygon style="fill: #0000ff; opacity: 1.000000" clip-path="url(#7240474723315632415)" points = "201.987323,367.606051 200.421323,368.506051 200.421323,370.306051 201.987323,371.206051 203.553323,370.306051 203.553323,368.506051"/>
<polygon style="fill: #0000ff; opacity: 1.000000" clip-path="url(#7240474723315632415)" points = "206.363752,358.022367 204.797752,358.922367 204.797752,360.722367 206.363752,361.622367 207.929752,360.722367 207.929752,358.922367"/>
<polygon style="fill: #0000ff; opacity: 1.000000" clip-path="url(#7240474723315632415)" points = "207.473160,192.125778 205.907160,193.025778 205.907160,194.825778 207.473160,195.725778 209.039160,194.825778 209.039160,193.025778"/>
<polygon style="fill: #0000ff; opacity: 1.000000" clip-path="url(#7240474723315632415)" points = "207.580157,394.562477 206.014157,395.462477 206.014157,397.262477 207.580157,398.162477 209.146157,397.262477 209.146157,395.462477"/>
<polygon style="fill: #0000ff; opacity: 1.000000" clip-path="url(#7240474723315632415)" points = "210.432792,323.659205 208.866792,324.559205 208.866792,326.359205 210.432792,327.259205 211.998792,326.359205 211.998792,324.559205"/>
<polygon style="fill: #0000ff; opacity: 1.000000" clip-path="url(#7240474723315632415)" points = "215.207285,376.780176 213.641285,377.680176 213.641285,379.480176 215.207285,380.380176 216.773285,379.480176 216.773285,377.680176"/>
<polygon style="fill: #0000ff; opacity: 1.000000" clip-path="url(#7240474723315632415)" points = "215.290706,331.729687 213.724705,332.629687 213.724705,334.429687 215.290706,335.329687 216.856706,334.429687 216.856706,332.629687"/>
<polygon style="fill: #0000ff; opacity: 1.000000" clip-path="url(#7240474723315632415)" points = "222.052794,349.587821 220.486794,350.487821 220.486794,352.287821 222.052794,353.187821 223.618794,352.287821 223.618794,350.487821"/>
<polygon style="fill: #0000ff; opacity: 1.000000" clip-path="url(#7240474723315632415)" points = "228.046411,375.553703 226.480411,376.453703 226.480411,378.253703 228.046411,379.153703 229.612411,378.253703 229.612411,376.453703"/>
<polygon style="fill: #0000ff; opacity: 1.000000" clip-path="url(#7240474723315632415)" points = "239.394387,328.302428 237.828387,329.202428 237.828387,331.002428 239.394387,331.902428 240.960387,331.002428 240.960387,329.202428"/>
<polygon style="fill: #0000ff; opacity: 1.000000" clip-path="url(#7240474723315632415)" points = "242.716266,347.934232 241.150266,348.834232 241.150266,350.634232 242.716266,351.534232 244.282266,350.634232 244.282266,348.834232"/>
<polygon style="fill: #0000ff; opacity: 1.000000" clip-path="url(#7240474723315632415)" points = "244.915135,356.739124 243.349135,357.639124 243.349135,359.439124 244.915135,360.339124 246.481135,359.439124 246.481135,357.639124"/>
<polygon style="fill: #0000ff; opacity: 1.000000" clip-path="url(#7240474723315632415)" points = "249.938076,316.232528 248.372076,317.132528 248.372076,318.932528 249.938076,319.832528 251.504076,318.932528 251.504076,317.132528"/>
<polygon style="fill: #0000ff; opacity: 1.000000" clip-path="url(#7240474723315632415)" points = "251.267372,393.189149 249.701372,394.089149 249.701372,395.889149 251.267372,396.789149 252.833372,395.889149 252.833372,394.089149"/>
<polygon style="fill: #0000ff; opacity: 1.000000" clip-path="url(#7240474723315632415)" points = "253.110795,314.573803 251.544795,315.473803 251.544795,317.273803 253.110795,318.173803 254.676795,317.273803 254.676795,315.473803"/>
<polygon style="fill: #0000ff; opacity: 1.000000" clip-path="url(#7240474723315632415)" points = "254.220203,395.083175 252.654203,395.983175 252.654203,397.783175 254.220203,398.683175 255.786203,397.783175 255.786203,395.983175"/>
<polygon style="fill: #0000ff; opacity: 1.000000" clip-path="url(#7240474723315632415)" points = "254.752465,295.784824 253.186465,296.684824 253.186465,298.484824 254.752465,299.384824 256.318466,298.484824 256.318466,296.684824"/>
<polygon style="fill: #0000ff; opacity: 1.000000" clip-path="url(#7240474723315632415)" points = "256.573673,285.126918 255.007673,286.026918 255.007673,287.826918 256.573673,288.726918 258.139673,287.826918 258.139673,286.026918"/>
<polygon style="fill: #0000ff; opacity: 1.000000" clip-path="url(#7240474723315632415)" points = "262.168320,359.456547 260.602320,360.356547 260.602320,362.156547 262.168320,363.056547 263.734320,362.156547 263.734320,360.356547"/>
<polygon style="fill: #0000ff; opacity: 1.000000" clip-path="url(#7240474723315632415)" points = "263.242819,387.954718 261.676819,388.854718 261.676819,390.654718 263.242819,391.554718 264.808819,390.654718 264.808819,388.854718"/>
<polygon style="fill: #0000ff; opacity: 1.000000" clip-path="url(#7240474723315632415)" points = "264.626973,339.280878 263.060973,340.180878 263.060973,341.980878 264.626973,342.880878 266.192973,341.980878 266.192973,340.180878"/>
<polygon style="fill: #0000ff; opacity: 1.000000" clip-path="url(#7240474723315632415)" points = "271.678768,371.913673 270.112768,372.813673 270.112768,374.613673 271.678768,375.513673 273.244768,374.613673 273.244768,372.813673"/>
<polygon style="fill: #0000ff; opacity: 1.000000" clip-path="url(#7240474723315632415)" points = "271.715491,394.926905 270.149491,395.826905 270.149491,397.626905 271.715491,398.526905 273.281491,397.626905 273.281491,395.826905"/>
<polygon style="fill: #0000ff; opacity: 1.000000" clip-path="url(#7240474723315632415)" points = "272.178840,392.055009 270.612840,392.955009 270.612840,394.755009 272.178840,395.655009 273.744840,394.755009 273.744840,392.955009"/>
<polygon style="fill: #0000ff; opacity: 1.000000" clip-path="url(#7240474723315632415)" points = "273.078336,387.654428 271.512336,388.554428 271.512336,390.354428 273.078336,391.254428 274.644336,390.354428 274.644336,388.554428"/>
<polygon style="fill: #0000ff; opacity: 1.000000" clip-path="url(#7240474723315632415)" points = "278.438589,270.213891 276.872589,271.113891 276.872589,272.913891 278.438589,273.813891 280.004589,272.913891 280.004589,271.113891"/>
<polygon style="fill: #0000ff; opacity: 1.000000" clip-path="url(#7240474723315632415)" points = "280.638364,351.676472 279.072364,352.576472 279.072364,354.376472 280.638364,355.276472 282.204364,354.376472 282.204364,352.576472"/>
<polygon style="fill: #0000ff; opacity: 1.000000" clip-path="url(#7240474723315632415)" points = "286.007231,385.303322 284.441231,386.203322 284.441231,388.003322 286.007231,388.903322 287.573231,388.003322 287.573231,386.203322"/>
<polygon style="fill: #0000ff; opacity: 1.000000" clip-path="url(#7240474723315632415)" points = "291.203362,336.905073 289.637362,337.805073 289.637362,339.605073 291.203362,340.505073 292.769362,339.605073 292.769362,337.805073"/>
<polygon style="fill: #0000ff; opacity: 1.000000" clip-path="url(#7240474723315632415)" points = "299.053550,376.685034 297.487550,377.585034 297.487550,379.385034 299.053550,380.285034 300.619550,379.385034 300.619550,377.585034"/>
<polygon style="fill: #0000ff; opacity: 1.000000" clip-path="url(#7240474723315632415)" points = "300.462186,392.061720 298.896186,392.961720 298.896186,394.761720 300.462186,395.661720 302.028186,394.761720 302.028186,392.961720"/>
<polygon style="fill: #0000ff; opacity: 1.000000" clip-path="url(#7240474723315632415)" points = "301.630080,376.631122 300.064080,377.531122 300.064080,379.331122 301.630080,380.231122 303.196080,379.331122 303.196080,377.531122"/>
<polygon style="fill: #0000ff; opacity: 1.000000" clip-path="url(#7240474723315632415)" points = "302.554512,300.332442 300.988512,301.232442 300.988512,303.032442 302.554512,303.932442 304.120512,303.032442 304.120512,301.232442"/>
<polygon style="fill: #0000ff; opacity: 1.000000" clip-path="url(#7240474723315632415)" points = "302.564940,327.432017 300.998940,328.332017 300.998940,330.132017 302.564940,331.032017 304.130940,330.132017 304.130940,328.332017"/>
<polygon style="fill: #0000ff; opacity: 1.000000" clip-path="url(#7240474723315632415)" points = "303.167928,394.279379 301.601928,395.179379 301.601928,396.979379 303.167928,397.879379 304.733928,396.979379 304.733928,395.179379"/>
<polygon style="fill: #0000ff; opacity: 1.000000" clip-path="url(#7240474723315632415)" points = "305.060769,354.818991 303.494769,355.718991 303.494769,357.518991 305.060769,358.418991 306.626769,357.518991 306.626769,355.718991"/>
<polygon style="fill: #0000ff; opacity: 1.000000" clip-path="url(#7240474723315632415)" points = "307.259184,345.782939 305.693184,346.682939 305.693184,348.482939 307.259184,349.382939 308.825184,348.482939 308.825184,346.682939"/>
<polygon style="fill: #0000ff; opacity: 1.000000" clip-path="url(#7240474723315632415)" points = "310.464999,324.345151 308.898999,325.245151 308.898999,327.045151 310.464999,327.945151 312.030999,327.045151 312.030999,325.245151"/>
<polygon style="fill: #0000ff; opacity: 1.000000" clip-path="url(#7240474723315632415)" points = "320.148182,304.339857 318.582182,305.239857 318.582182,307.039857 320.148182,307.939857 321.714182,307.039857 321.714182,305.239857"/>
<polygon style="fill: #0000ff; opacity: 1.000000" clip-path="url(#7240474723315632415)" points = "323.689494,372.499420 322.123494,373.399420 322.123494,375.199420 323.689494,376.099420 325.255494,375.199420 325.255494,373.399420"/>
<polygon style="fill: #0000ff; opacity: 1.000000" clip-path="url(#7240474723315632415)" points = "326.883068,242.394330 325.317068,243.294330 325.317068,245.094330 326.883068,245.994330 328.449068,245.094330 328.449068,243.294330"/>
<polygon style="fill: #0000ff; opacity: 1.000000" clip-path="url(#7240474723315632415)" points = "327.253475,389.311885 325.687475,390.211885 325.687475,392.011885 327.253475,392.911885 328.819475,392.011885 328.819475,390.211885"/>
<polygon style="fill: #0000ff; opacity: 1.000000" clip-path="url(#7240474723315632415)" points = "328.799484,299.370806 327.233484,300.270806 327.233484,302.070806 328.799484,302.970806 330.365484,302.070806 330.365484,300.270806"/>
<polygon style="fill: #0000ff; opacity: 1.000000" clip-path="url(#7240474723315632415)" points = "329.246965,372.366453 327.680965,373.266453 327.680965,375.066453 329.246965,375.966453 330.812965,375.066453 330.812965,373.266453"/>
<polygon style="fill: #0000ff; opacity: 1.000000" clip-path="url(#7240474723315632415)" points = "329.667244,320.132581 328.101244,321.032581 328.101244,322.832581 329.667244,323.732581 331.233244,322.832581 331.233244,321.032581"/>
<polygon style="fill: #0000ff; opacity: 1.000000" clip-path="url(#7240474723315632415)" points = "331.786318,350.050794 330.220319,350.950794 330.220319,352.750794 331.786318,353.650794 333.352318,352.750794 333.352318,350.950794"/>
<polygon style="fill: #0000ff; opacity: 1.000000" clip-path="url(#7240474723315632415)" points = "332.021620,302.670829 330.455620,303.570829 330.455620,305.370829 332.021620,306.270829 333.587620,305.370829 333.587620,303.570829"/>
<polygon style="fill: #0000ff; opacity: 1.000000" clip-path="url(#7240474723315632415)" points = "333.034006,386.383032 331.468007,387.283032 331.468007,389.083032 333.034006,389.983032 334.600006,389.083032 334.600006,387.283032"/>
<polygon style="fill: #0000ff; opacity: 1.000000" clip-path="url(#7240474723315632415)" points = "339.484626,382.249998 337.918626,383.149998 337.918626,384.949998 339.484626,385.849998 341.050626,384.949998 341.050626,383.149998"/>
<polygon style="fill: #0000ff; opacity: 1.000000" clip-path="url(#7240474723315632415)" points = "339.880876,307.888118 338.314876,308.788118 338.314876,310.588118 339.880876,311.488118 341.446876,310.588118 341.446876,308.788118"/>
<polygon style="fill: #0000ff; opacity: 1.000000" clip-path="url(#7240474723315632415)" points = "345.546703,388.985956 343.980703,389.885956 343.980703,391.685956 345.546703,392.585956 347.112703,391.685956 347.112703,389.885956"/>
<polygon style="fill: #0000ff; opacity: 1.000000" clip-path="url(#7240474723315632415)" points = "346.225859,328.880004 344.659859,329.780004 344.659859,331.580004 346.225859,332.480004 347.791859,331.580004 347.791859,329.780004"/>
<polygon style="fill: #0000ff; opacity: 1.000000" clip-path="url(#7240474723315632415)" points = "347.989034,376.913011 346.423034,377.813011 346.423034,379.613011 347.989034,380.513011 349.555034,379.613011 349.555034,377.813011"/>
<polygon style="fill: #0000ff; opacity: 1.000000" clip-path="url(#7240474723315632415)" points = "348.765666,375.069571 347.199666,375.969571 347.199666,377.769571 348.765666,378.669571 350.331666,377.769571 350.331666,375.969571"/>
<polygon style="fill: #0000ff; opacity: 1.000000" clip-path="url(#7240474723315632415)" points = "349.122472,269.317207 347.556472,270.217207 347.556472,272.017207 349.122472,272.917207 350.688472,272.017207 350.688472,270.217207"/>
<polygon style="fill: #0000ff; opacity: 1.000000" clip-path="url(#7240474723315632415)" points = "349.183677,373.155811 347.617677,374.055811 347.617677,375.855811 349.183677,376.755811 350.749677,375.855811 350.749677,374.055811"/>
<polygon style="fill: #0000ff; opacity: 1.000000" clip-path="url(#7240474723315632415)" points = "349.304275,388.786246 347.738275,389.686246 347.738275,391.486246 349.304275,392.386246 350.870275,391.486246 350.870275,389.686246"/>
<polygon style="fill: #0000ff; opacity: 1.000000" clip-path="url(#7240474723315632415)" points = "360.334435,370.017788 358.768436,370.917788 358.768436,372.717788 360.334435,373.617788 361.900435,372.717788 361.900435,370.917788"/>
<polygon style="fill: #0000ff; opacity: 1.000000" clip-path="url(#7240474723315632415)" points = "364.355418,345.050668 362.789418,345.950668 362.789418,347.750668 364.355418,348.650668 365.921418,347.750668 365.921418,345.950668"/>
<polygon style="fill: #0000ff; opacity: 1.000000" clip-path="url(#7240474723315632415)" points = "368.981203,388.867743 367.415204,389.767743 367.415204,391.567743 368.981203,392.467743 370.547203,391.567743 370.547203,389.767743"/>
<polygon style="fill: #0000ff; opacity: 1.000000" clip-path="url(#7240474723315632415)" points = "371.709614,346.495162 370.143614,347.395162 370.143614,349.195162 371.709614,350.095162 373.275614,349.195162 373.275614,347.395162"/>
<polygon style="fill: #0000ff; opacity: 1.000000" clip-path="url(#7240474723315632415)" points = "375.405981,373.105398 373.839981,374.005398 373.839981,375.805398 375.405981,376.705398 376.971981,375.805398 376.971981,374.005398"/>
<polygon style="fill: #0000ff; opacity: 1.000000" clip-path="url(#7240474723315632415)" points = "379.914342,386.764088 378.348342,387.664088 378.348342,389.464088 379.914342,390.364088 381.480342,389.464088 381.480342,387.664088"/>
<polygon style="fill: #0000ff; opacity: 1.000000" clip-path="url(#7240474723315632415)" points = "380.939422,383.379108 379.373423,384.279108 379.373423,386.079108 380.939422,386.979108 382.505422,386.079108 382.505422,384.279108"/>
<polygon style="fill: #0000ff; opacity: 1.000000" clip-path="url(#7240474723315632415)" points = "381.107625,270.998651 379.541625,271.898651 379.541625,273.698651 381.107625,274.598651 382.673625,273.698651 382.673625,271.898651"/>
<polygon style="fill: #0000ff; opacity: 1.000000" clip-path="url(#7240474723315632415)" points = "385.921560,321.827158 384.355560,322.727158 384.355560,324.527158 385.921560,325.427158 387.487560,324.527158 387.487560,322.727158"/>
<polygon style="fill: #0000ff; opacity: 1.000000" clip-path="url(#7240474723315632415)" points = "388.494010,367.107421 386.928010,368.007421 386.928010,369.807421 388.494010,370.707421 390.060010,369.807421 390.060010,368.007421"/>
<polygon style="fill: #0000ff; opacity: 1.000000" clip-path="url(#7240474723315632415)" points = "390.418587,203.368140 388.852587,204.268140 388.852587,206.068140 390.418587,206.968140 391.984587,206.068140 391.984587,204.268140"/>
<polygon style="fill: #0000ff; opacity: 1.000000" clip-path="url(#7240474723315632415)" points = "391.220607,379.493383 389.654607,380.393383 389.654607,382.193383 391.220607,383.093383 392.786607,382.193383 392.786607,380.393383"/>
<polygon style="fill: #0000ff; opacity: 1.000000" clip-path="url(#7240474723315632415)" points = "391.423266,374.108754 389.857266,375.008754 389.857266,376.808754 391.423266,377.708754 392.989266,376.808754 392.989266,375.008754"/>
<polygon style="fill: #0000ff; opacity: 1.000000" clip-path="url(#7240474723315632415)" points = "391.733828,359.887722 390.167828,360.787722 390.167828,362.587722 391.733828,363.487722 393.299828,362.587722 393.299828,360.787722"/>
<polygon style="fill: #0000ff; opacity: 1.000000" clip-path="url(#7240474723315632415)" points = "397.865725,394.751765 396.299725,395.651765 396.299725,397.451765 397.865725,398.351765 399.431725,397.451765 399.431725,395.651765"/>
<polygon style="fill: #0000ff; opacity: 1.000000" clip-path="url(#7240474723315632415)" points = "398.244746,318.807254 396.678746,319.707254 396.678746,321.507254 398.244746,322.407254 399.810746,321.507254 399.810746,319.707254"/>
<polygon style="fill: #0000ff; opacity: 1.000000" clip-path="url(#7240474723315632415)" points = "406.068639,341.580834 404.502639,342.480834 404.502639,344.280834 406.068639,345.180834 407.634639,344.280834 407.634639,342.480834"/>
<polygon style="fill: #0000ff; opacity: 1.000000" clip-path="url(#7240474723315632415)" points = "407.514452,319.871262 405.948452,320.771262 405.948452,322.571262 407.514452,323.471262 409.080451,322.571262 409.080451,320.771262"/>
<polygon style="fill: #0000ff; opacity: 1.000000" clip-path="url(#7240474723315632415)" points = "407.844962,389.548453 406.278962,390.448453 406.278962,392.248453 407.844962,393.148453 409.410962,392.248453 409.410962,390.448453"/>
<polygon style="fill: #0000ff; opacity: 1.000000" clip-path="url(#7240474723315632415)" points = "407.981428,317.525408 406.415428,318.425408 406.415428,320.225408 407.981428,321.125408 409.547428,320.225408 409.547428,318.425408"/>
<polygon style="fill: #0000ff; opacity: 1.000000" clip-path="url(#7240474723315632415)" points = "416.131297,387.814607 414.565297,388.714607 414.565297,390.514607 416.131297,391.414607 417.697297,390.514607 417.697297,388.714607"/>
<polygon style="fill: #0000ff; opacity: 1.000000" clip-path="url(#7240474723315632415)" points = "420.129611,394.335999 418.563611,395.235999 418.563611,397.035999 420.129611,397.935999 421.695611,397.035999 421.695611,395.235999"/>
<polygon style="fill: #0000ff; opacity: 1.000000" clip-path="url(#7240474723315632415)" points = "420.355392,373.522691 418.789392,374.422691 418.789392,376.222691 420.355392,377.122691 421.921392,376.222691 421.921392,374.422691"/>
<polygon style="fill: #0000ff; opacity: 1.000000" clip-path="url(#7240474723315632415)" points = "428.143014,392.504345 426.577014,393.404345 426.577014,395.204345 428.143014,396.104345 429.709014,395.204345 429.709014,393.404345"/>
<polygon style="fill: #0000ff; opacity: 1.000000" clip-path="url(#7240474723315632415)" points = "439.665086,279.241795 438.099086,280.141795 438.099086,281.941795 439.665086,282.841795 441.231086,281.941795 441.231086,280.141795"/>
<polygon style="fill: #0000ff; opacity: 1.000000" clip-path="url(#7240474723315632415)" points = "440.667045,361.724216 439.101045,362.624216 439.101045,364.424216 440.667045,365.324216 442.233045,364.424216 442.233045,362.624216"/>
<polygon style="fill: #0000ff; opacity: 1.000000" clip-path="url(#7240474723315632415)" points = "444.766008,390.809104 443.200008,391.709104 443.200008,393.509104 444.766008,394.409104 446.332008,393.509104 446.332008,391.709104"/>
<polygon style="fill: #0000ff; opacity: 1.000000" clip-path="url(#7240474723315632415)" points = "445.781115,252.083469 444.215115,252.983469 444.215115,254.783469 445.781115,255.683469 447.347115,254.783469 447.347115,252.983469"/>
<polygon style="fill: #0000ff; opacity: 1.000000" clip-path="url(#7240474723315632415)" points = "446.691492,384.003788 445.125492,384.903788 445.125492,386.703788 446.691492,387.603788 448.257492,386.703788 448.257492,384.903788"/>
<polygon style="fill: #0000ff; opacity: 1.000000" clip-path="url(#7240474723315632415)" points = "446.813903,393.674098 445.247903,394.574098 445.247903,396.374098 446.813903,397.274098 448.379903,396.374098 448.379903,394.574098"/>
<polygon style="fill: #0000ff; opacity: 1.000000" clip-path="url(#7240474723315632415)" points = "455.819744,329.411386 454.253744,330.311386 454.253744,332.111386 455.819744,333.011386 457.385744,332.111386 457.385744,330.311386"/>
<polygon style="fill: #0000ff; opacity: 1.000000" clip-path="url(#7240474723315632415)" points = "458.069844,371.435768 456.503844,372.335768 456.503844,374.135768 458.069844,375.035768 459.635844,374.135768 459.635844,372.335768"/>
<polygon style="fill: #0000ff; opacity: 1.000000" clip-path="url(#7240474723315632415)" points = "461.238029,349.511960 459.672029,350.411960 459.672029,352.211960 461.238029,353.111960 462.804029,352.211960 462.804029,350.411960"/>
<polygon style="fill: #0000ff; opacity: 1.000000" clip-path="url(#7240474723315632415)" points = "466.134479,311.650987 464.568479,312.550987 464.568479,314.350987 466.134479,315.250987 467.700479,314.350987 467.700479,312.550987"/>
<polygon style="fill: #0000ff; opacity: 1.000000" clip-path="url(#7240474723315632415)" points = "472.306726,311.294434 470.740726,312.194434 470.740726,313.994434 472.306726,314.894434 473.872726,313.994434 473.872726,312.194434"/>
<polygon style="fill: #0000ff; opacity: 1.000000" clip-path="url(#7240474723315632415)" points = "474.344647,354.872333 472.778647,355.772333 472.778647,357.572333 474.344647,358.472333 475.910647,357.572333 475.910647,355.772333"/>
<polygon style="fill: #0000ff; opacity: 1.000000" clip-path="url(#7240474723315632415)" points = "477.932657,349.570502 476.366657,350.470502 476.366657,352.270502 477.932657,353.170502 479.498656,352.270502 479.498656,350.470502"/>
<polygon style="fill: #0000ff; opacity: 1.000000" clip-path="url(#7240474723315632415)" points = "480.148753,389.207090 478.582754,390.107090 478.582754,391.907090 480.148753,392.807090 481.714753,391.907090 481.714753,390.107090"/>
<polygon style="fill: #0000ff; opacity: 1.000000" clip-path="url(#7240474723315632415)" points = "480.832896,249.834743 479.266896,250.734743 479.266896,252.534743 480.832896,253.434743 482.398896,252.534743 482.398896,250.734743"/>
<polygon style="fill: #0000ff; opacity: 1.000000" clip-path="url(#7240474723315632415)" points = "482.086932,394.854482 480.520932,395.754482 480.520932,397.554482 482.086932,398.454482 483.652932,397.554482 483.652932,395.754482"/>
<polygon style="fill: #0000ff; opacity: 1.000000" clip-path="url(#7240474723315632415)" points = "486.155972,269.087050 484.589972,269.987050 484.589972,271.787050 486.155972,272.687050 487.721972,271.787050 487.721972,269.987050"/>
<polygon style="fill: #0000ff; opacity: 1.000000" clip-path="url(#7240474723315632415)" points = "488.375243,380.802297 486.809243,381.702297 486.809243,383.502297 488.375243,384.402297 489.941243,383.502297 489.941243,381.702297"/>
<polygon style="fill: #0000ff; opacity: 1.000000" clip-path="url(#7240474723315632415)" points = "490.541922,394.003453 488.975922,394.903453 488.975922,396.703453 490.541922,397.603453 492.107922,396.703453 492.107922,394.903453"/>
<polygon style="fill: #0000ff; opacity: 1.000000" clip-path="url(#7240474723315632415)" points = "491.062396,201.699392 489.496397,202.599392 489.496397,204.399392 491.062396,205.299392 492.628396,204.399392 492.628396,202.599392"/>
<polygon style="fill: #0000ff; opacity: 1.000000" clip-path="url(#7240474723315632415)" points = "493.217741,303.394288 491.651741,304.294288 491.651741,306.094288 493.217741,306.994288 494.783741,306.094288 494.783741,304.294288"/>
<polygon style="fill: #0000ff; opacity: 1.000000" clip-path="url(#7240474723315632415)" points = "494.546130,247.935027 492.980130,248.835027 492.980130,250.635027 494.546130,251.535027 496.112130,250.635027 496.112130,248.835027"/>
<polygon style="fill: #0000ff; opacity: 1.000000" clip-path="url(#7240474723315632415)" points = "497.142155,394.069410 495.576155,394.969410 495.576155,396.769410 497.142155,397.669410 498.708155,396.769410 498.708155,394.969410"/>
<polygon style="fill: #0000ff; opacity: 1.000000" clip-path="url(#7240474723315632415)" points = "498.810575,394.955067 497.244575,395.855067 497.244575,397.655067 498.810575,398.555067 500.376575,397.655067 500.376575,395.855067"/>
<polygon style="fill: #0000ff; opacity: 1.000000" clip-path="url(#7240474723315632415)" points = "503.813115,242.823867 502.247115,243.723867 502.247115,245.523867 503.813115,246.423867 505.379115,245.523867 505.379115,243.723867"/>
<polygon style="fill: #0000ff; opacity: 1.000000" clip-path="url(#7240474723315632415)" points = "504.474589,387.847758 502.908589,388.747758 502.908589,390.547758 504.474589,391.447758 506.040589,390.547758 506.040589,388.747758"/>
<polygon style="fill: #0000ff; opacity: 1.000000" clip-path="url(#7240474723315632415)" points = "504.635537,308.860251 503.069537,309.760251 503.069537,311.560251 504.635537,312.460251 506.201537,311.560251 506.201537,309.760251"/>
<polygon style="fill: #0000ff; opacity: 1.000000" clip-path="url(#7240474723315632415)" points = "516.050160,355.894348 514.484160,356.794348 514.484160,358.594348 516.050160,359.494348 517.616160,358.594348 517.616160,356.794348"/>
<polygon style="fill: #0000ff; opacity: 1.000000" clip-path="url(#7240474723315632415)" points = "519.437324,382.160698 517.871324,383.060698 517.871324,384.860698 519.437324,385.760698 521.003324,384.860698 521.003324,383.060698"/>
<path style="fill: none; stroke: #008000; stroke-width: 0.500000; stroke-linejoin: miter; stroke-linecap: square;  opacity: 1.000000" clip-path="url(#7240474723315632415)" d="M 73.901631,267.710149 L 75.174255,269.037621 L 79.132219,273.087103 L 90.551375,284.111963 L 95.364404,288.472500 L 104.212470,296.058472 L 121.569479,309.379775 L 122.579145,310.093200 L 139.839585,321.290873 L 142.816445,323.036726 L 143.808883,323.606995 L 145.283258,324.443407 L 147.172019,325.496178 L 147.332513,325.584671 L 147.695213,325.784101 L 150.467601,327.283218 L 151.509910,327.835333 L 151.524872,327.843212 L 153.538764,328.892162 L 153.985791,329.121863 L 156.914141,330.598601 L 160.978647,332.568771 L 161.468292,332.799945 L 163.228747,333.620249 L 164.824174,334.349071 L 169.779110,336.525304 L 173.359412,338.016913 L 175.578683,338.908011 L 176.450523,339.251143 L 181.585901,341.193953 L 184.959465,342.398476 L 188.077325,343.462092 L 188.260941,343.523261 L 190.556832,344.274446 L 192.832775,344.994341 L 195.512675,345.810809 L 197.912388,346.513652 L 201.094628,347.405117 L 201.987323,347.646985 L 206.363752,348.781515 L 207.473160,349.055757 L 207.580157,349.081924 L 210.432792,349.761366 L 215.207285,350.821292 L 215.290706,350.838965 L 222.052794,352.177029 L 228.046411,353.211124 L 239.394387,354.797886 L 242.716266,355.174693 L 244.915135,355.403129 L 249.938076,355.863851 L 251.267372,355.971858 L 253.110795,356.112196 L 254.220203,356.191426 L 254.752465,356.228055 L 256.573673,356.346672 L 262.168320,356.647414 L 263.242819,356.694437 L 264.626973,356.750027 L 271.678768,356.948484 L 271.715491,356.949156 L 272.178840,356.957319 L 273.078336,356.971507 L 278.438589,357.011651 L 280.638364,357.006705 L 286.007231,356.944491 L 291.203362,356.819478 L 299.053550,356.517621 L 300.462186,356.449857 L 301.630080,356.390668 L 302.554512,356.341914 L 302.564940,356.341354 L 303.167928,356.308645 L 305.060769,356.201437 L 307.259184,356.068479 L 310.464999,355.858856 L 320.148182,355.120221 L 323.689494,354.813737 L 326.883068,354.522133 L 327.253475,354.487416 L 328.799484,354.340573 L 329.246965,354.297493 L 329.667244,354.256801 L 331.786318,354.048270 L 332.021620,354.024775 L 333.034006,353.922936 L 339.484626,353.246810 L 339.880876,353.203832 L 345.546703,352.572800 L 346.225859,352.495211 L 347.989034,352.291979 L 348.765666,352.201663 L 349.122472,352.160011 L 349.183677,352.152856 L 349.304275,352.138750 L 360.334435,350.806964 L 364.355418,350.304847 L 368.981203,349.719520 L 371.709614,349.371378 L 375.405981,348.897395 L 379.914342,348.317352 L 380.939422,348.185388 L 381.107625,348.163736 L 385.921560,347.544920 L 388.494010,347.215513 L 390.418587,346.969985 L 391.220607,346.867947 L 391.423266,346.842192 L 391.733828,346.802748 L 397.865725,346.030809 L 398.244746,345.983594 L 406.068639,345.025813 L 407.514452,344.852881 L 407.844962,344.813550 L 407.981428,344.797333 L 416.131297,343.854997 L 420.129611,343.414001 L 420.355392,343.389567 L 428.143014,342.580530 L 439.665086,341.522108 L 440.667045,341.438952 L 444.766008,341.115023 L 445.781115,341.038972 L 446.691492,340.972220 L 446.813903,340.963350 L 455.819744,340.383067 L 458.069844,340.261558 L 461.238029,340.107419 L 466.134479,339.909889 L 472.306726,339.735371 L 474.344647,339.696909 L 477.932657,339.653305 L 480.148753,339.642160 L 480.832896,339.641209 L 482.086932,339.642557 L 486.155972,339.675029 L 488.375243,339.711283 L 490.541922,339.759641 L 491.062396,339.773195 L 493.217741,339.837424 L 494.546130,339.883590 L 497.142155,339.988556 L 498.810575,340.066480 L 503.813115,340.350504 L 504.474589,340.393830 L 504.635537,340.404579 L 516.050160,341.380454 L 519.437324,341.754198 "/>
<g id="matplotlib.axis1">
<g id="xtick1">
<text style="font-size: 9.996000; font-family: Bitstream Vera Serif; font-style: Roman; fill: #000000;" x="66.125000" y="406.900000" >0.0</text>
</g>
<g id="xtick2">
<path style="fill: none; stroke: #000000; stroke-width: 0.500000; stroke-linejoin: miter; stroke-linecap: butt;  opacity: 1.000000"  d="M 163.800000,396.900000 L 163.800000,391.900000"/>
<path style="fill: none; stroke: #000000; stroke-width: 0.500000; stroke-linejoin: miter; stroke-linecap: butt;  opacity: 1.000000"  d="M 163.800000,49.100000 L 163.800000,44.100000"/>
<text style="font-size: 9.996000; font-family: Bitstream Vera Serif; font-style: Roman; fill: #000000;" x="156.800000" y="406.900000" >0.2</text>
</g>
<g id="xtick3">
<path style="fill: none; stroke: #000000; stroke-width: 0.500000; stroke-linejoin: miter; stroke-linecap: butt;  opacity: 1.000000"  d="M 254.475000,396.900000 L 254.475000,391.900000"/>
<path style="fill: none; stroke: #000000; stroke-width: 0.500000; stroke-linejoin: miter; stroke-linecap: butt;  opacity: 1.000000"  d="M 254.475000,49.100000 L 254.475000,44.100000"/>
<text style="font-size: 9.996000; font-family: Bitstream Vera Serif; font-style: Roman; fill: #000000;" x="247.475000" y="406.900000" >0.4</text>
</g>
<g id="xtick4">
<path style="fill: none; stroke: #000000; stroke-width: 0.500000; stroke-linejoin: miter; stroke-linecap: butt;  opacity: 1.000000"  d="M 345.150000,396.900000 L 345.150000,391.900000"/>
<path style="fill: none; stroke: #000000; stroke-width: 0.500000; stroke-linejoin: miter; stroke-linecap: butt;  opacity: 1.000000"  d="M 345.150000,49.100000 L 345.150000,44.100000"/>
<text style="font-size: 9.996000; font-family: Bitstream Vera Serif; font-style: Roman; fill: #000000;" x="338.150000" y="406.900000" >0.6</text>
</g>
<g id="xtick5">
<path style="fill: none; stroke: #000000; stroke-width: 0.500000; stroke-linejoin: miter; stroke-linecap: butt;  opacity: 1.000000"  d="M 435.825000,396.900000 L 435.825000,391.900000"/>
<path style="fill: none; stroke: #000000; stroke-width: 0.500000; stroke-linejoin: miter; stroke-linecap: butt;  opacity: 1.000000"  d="M 435.825000,49.100000 L 435.825000,44.100000"/>
<text style="font-size: 9.996000; font-family: Bitstream Vera Serif; font-style: Roman; fill: #000000;" x="428.825000" y="406.900000" >0.8</text>
</g>
<g id="xtick6">
<text style="font-size: 9.996000; font-family: Bitstream Vera Serif; font-style: Roman; fill: #000000;" x="520.000000" y="406.900000" >1.0</text>
</g>
<text style="font-size: 12.000000; font-family: Bitstream Vera Serif; font-style: Roman; fill: #000000;" x="273.812500" y="420.900000" >Distance</text>
<text style="font-size: 9.996000; font-family: Bitstream Vera Serif; font-style: Roman; fill: #000000;" x="495.500000" y="416.900000" >x1e+6</text>
</g>
<g id="matplotlib.axis2">
<g id="ytick1">
<text style="font-size: 9.996000; font-family: Bitstream Vera Serif; font-style: Roman; fill: #000000;" x="56.125000" y="400.400000" >0.0</text>
</g>
<g id="ytick2">
<path style="fill: none; stroke: #000000; stroke-width: 0.500000; stroke-linejoin: miter; stroke-linecap: butt;  opacity: 1.000000"  d="M 73.125000,326.340000 L 78.125000,326.340000"/>
<path style="fill: none; stroke: #000000; stroke-width: 0.500000; stroke-linejoin: miter; stroke-linecap: butt;  opacity: 1.000000"  d="M 521.500000,326.340000 L 526.500000,326.340000"/>
<text style="font-size: 9.996000; font-family: Bitstream Vera Serif; font-style: Roman; fill: #000000;" x="56.125000" y="329.840000" >0.2</text>
</g>
<g id="ytick3">
<path style="fill: none; stroke: #000000; stroke-width: 0.500000; stroke-linejoin: miter; stroke-linecap: butt;  opacity: 1.000000"  d="M 73.125000,255.780000 L 78.125000,255.780000"/>
<path style="fill: none; stroke: #000000; stroke-width: 0.500000; stroke-linejoin: miter; stroke-linecap: butt;  opacity: 1.000000"  d="M 521.500000,255.780000 L 526.500000,255.780000"/>
<text style="font-size: 9.996000; font-family: Bitstream Vera Serif; font-style: Roman; fill: #000000;" x="56.125000" y="259.280000" >0.4</text>
</g>
<g id="ytick4">
<path style="fill: none; stroke: #000000; stroke-width: 0.500000; stroke-linejoin: miter; stroke-linecap: butt;  opacity: 1.000000"  d="M 73.125000,185.220000 L 78.125000,185.220000"/>
<path style="fill: none; stroke: #000000; stroke-width: 0.500000; stroke-linejoin: miter; stroke-linecap: butt;  opacity: 1.000000"  d="M 521.500000,185.220000 L 526.500000,185.220000"/>
<text style="font-size: 9.996000; font-family: Bitstream Vera Serif; font-style: Roman; fill: #000000;" x="56.125000" y="188.720000" >0.6</text>
</g>
<g id="ytick5">
<path style="fill: none; stroke: #000000; stroke-width: 0.500000; stroke-linejoin: miter; stroke-linecap: butt;  opacity: 1.000000"  d="M 73.125000,114.660000 L 78.125000,114.660000"/>
<path style="fill: none; stroke: #000000; stroke-width: 0.500000; stroke-linejoin: miter; stroke-linecap: butt;  opacity: 1.000000"  d="M 521.500000,114.660000 L 526.500000,114.660000"/>
<text style="font-size: 9.996000; font-family: Bitstream Vera Serif; font-style: Roman; fill: #000000;" x="56.125000" y="118.160000" >0.8</text>
</g>
<g id="ytick6">
<text style="font-size: 9.996000; font-family: Bitstream Vera Serif; font-style: Roman; fill: #000000;" x="57.125000" y="47.600000" >1.0</text>
</g>
<g id="mathtext1">
<text style="font-size: 8.400000; font-family: cmr10; fill: #000000;" x="55.125000" y="216.351562" transform="translate(51.125000,224.851562) rotate(-90.0) translate(-51.125000,-224.851562)">2</text>
<text style="font-size: 12.000000; font-family: cmmi10; fill: #000000;" x="51.125000" y="213.351562" transform="translate(51.125000,224.851562) rotate(-90.0) translate(-51.125000,-224.851562)">r</text>
</g>
</g>
<path style="fill: none; stroke: #000000; stroke-width: 1.000000; stroke-linejoin: miter; stroke-linecap: square;  opacity: 1.000000"  d="M 73.125000,396.900000 L 526.500000,396.900000 L 526.500000,44.100000 L 73.125000,44.100000 L 73.125000,396.900000 "/>
<text style="font-size: 14.400000; font-family: Bitstream Vera Serif; font-style: Roman; fill: #000000;" x="267.312500" y="37.044000" >LD decay</text>
</g>
</g>
</svg>
