<?xml version="1.0" standalone="no"?>
<!DOCTYPE svg PUBLIC "-//W3C//DTD SVG 1.1//EN"
  "http://www.w3.org/Graphics/SVG/1.1/DTD/svg11.dtd">
<!-- Created with matplotlib (http://matplotlib.sourceforge.net/) -->
<svg width="585" height="441" viewBox="0 0 585 441"
   xmlns="http://www.w3.org/2000/svg"
   xmlns:xlink="http://www.w3.org/1999/xlink"
   version="1.1"
   id="svg1">
<g id="figure1">
<polygon style="fill: #ffffff; stroke: #ffffff; stroke-width: 1.000000; stroke-linejoin: miter; stroke-linecap: square;  opacity: 1.000000"  points = "0.000000,441.000000 0.000000,0.000000 585.000000,0.000000 585.000000,441.000000"/>
<g id="axes1">
<polygon style="fill: #ffffff; stroke: #000000; stroke-width: 1.000000; stroke-linejoin: miter; stroke-linecap: square;  opacity: 1.000000"  points = "73.125000,396.900000 73.125000,44.100000 526.500000,44.100000 526.500000,396.900000"/>
<defs>
    <clipPath id="7240474723315632415">
    <rect x="73.125000" y="44.100000" width="453.375000" height="352.800000"
    style="stroke: gray; fill: none;"/>
    </clipPath>
</defs>
<polygon style="fill: #0000ff; opacity: 1.000000" clip-path="url(#7240474723315632415)" points = "73.901631,73.572659 72.335631,74.472659 72.335631,76.272659 73.901631,77.172659 75.467631,76.272659 75.467631,74.472659"/>
<polygon style="fill: #0000ff; opacity: 1.000000" clip-path="url(#7240474723315632415)" points = "75.174255,382.720438 73.608255,383.620438 73.608255,385.420438 75.174255,386.320438 76.740255,385.420438 76.740255,383.620438"/>
<polygon style="fill: #0000ff; opacity: 1.000000" clip-path="url(#7240474723315632415)" points = "79.132219,391.897708 77.566219,392.797708 77.566219,394.597708 79.132219,395.497708 80.698219,394.597708 80.698219,392.797708"/>
<polygon style="fill: #0000ff; opacity: 1.000000" clip-path="url(#7240474723315632415)" points = "90.551375,369.484653 88.985375,370.384653 88.985375,372.184653 90.551375,373.084653 92.117375,372.184653 92.117375,370.384653"/>
<polygon style="fill: #0000ff; opacity: 1.000000" clip-path="url(#7240474723315632415)" points = "95.364404,348.370959 93.798404,349.270959 93.798404,351.070959 95.364404,351.970959 96.930404,351.070959 96.930404,349.270959"/>
<polygon style="fill: #0000ff; opacity: 1.000000" clip-path="url(#7240474723315632415)" points = "104.212470,362.069997 102.646470,362.969997 102.646470,364.769997 104.212470,365.669997 105.778470,364.769997 105.778470,362.969997"/>
<polygon style="fill: #0000ff; opacity: 1.000000" clip-path="url(#7240474723315632415)" points = "107.541150,394.793320 105.975150,395.693320 105.975150,397.493320 107.541150,398.393320 109.107150,397.493320 109.107150,395.693320"/>
<polygon style="fill: #0000ff; opacity: 1.000000" clip-path="url(#7240474723315632415)" points = "114.616067,388.670494 113.050066,389.570494 113.050066,391.370494 114.616067,392.270494 116.182067,391.370494 116.182067,389.570494"/>
<polygon style="fill: #0000ff; opacity: 1.000000" clip-path="url(#7240474723315632415)" points = "121.569479,357.929179 120.003479,358.829179 120.003479,360.629179 121.569479,361.529179 123.135479,360.629179 123.135479,358.829179"/>
<polygon style="fill: #0000ff; opacity: 1.000000" clip-path="url(#7240474723315632415)" points = "122.579145,385.369126 121.013145,386.269126 121.013145,388.069126 122.579145,388.969126 124.145145,388.069126 124.145145,386.269126"/>
<polygon style="fill: #0000ff; opacity: 1.000000" clip-path="url(#7240474723315632415)" points = "139.839585,395.099052 138.273585,395.999052 138.273585,397.799052 139.839585,398.699052 141.405585,397.799052 141.405585,395.999052"/>
<polygon style="fill: #0000ff; opacity: 1.000000" clip-path="url(#7240474723315632415)" points = "142.816445,366.572659 141.250445,367.472659 141.250445,369.272659 142.816445,370.172659 144.382445,369.272659 144.382445,367.472659"/>
<polygon style="fill: #0000ff; opacity: 1.000000" clip-path="url(#7240474723315632415)" points = "143.808883,366.679508 142.242883,367.579508 142.242883,369.379508 143.808883,370.279508 145.374883,369.379508 145.374883,367.579508"/>
<polygon style="fill: #0000ff; opacity: 1.000000" clip-path="url(#7240474723315632415)" points = "145.283258,387.702967 143.717258,388.602967 143.717258,390.402967 145.283258,391.302967 146.849258,390.402967 146.849258,388.602967"/>
<polygon style="fill: #0000ff; opacity: 1.000000" clip-path="url(#7240474723315632415)" points = "147.172019,385.918747 145.606019,386.818747 145.606019,388.618747 147.172019,389.518747 148.738019,388.618747 148.738019,386.818747"/>
<polygon style="fill: #0000ff; opacity: 1.000000" clip-path="url(#7240474723315632415)" points = "147.332513,393.914161 145.766513,394.814161 145.766513,396.614161 147.332513,397.514161 148.898513,396.614161 148.898513,394.814161"/>
<polygon style="fill: #0000ff; opacity: 1.000000" clip-path="url(#7240474723315632415)" points = "147.695213,376.088651 146.129213,376.988651 146.129213,378.788651 147.695213,379.688651 149.261213,378.788651 149.261213,376.988651"/>
<polygon style="fill: #0000ff; opacity: 1.000000" clip-path="url(#7240474723315632415)" points = "150.467601,343.223991 148.901601,344.123991 148.901601,345.923991 150.467601,346.823991 152.033601,345.923991 152.033601,344.123991"/>
<polygon style="fill: #0000ff; opacity: 1.000000" clip-path="url(#7240474723315632415)" points = "151.509910,329.743538 149.943910,330.643538 149.943910,332.443538 151.509910,333.343538 153.075910,332.443538 153.075910,330.643538"/>
<polygon style="fill: #0000ff; opacity: 1.000000" clip-path="url(#7240474723315632415)" points = "151.524872,383.315106 149.958872,384.215106 149.958872,386.015106 151.524872,386.915106 153.090872,386.015106 153.090872,384.215106"/>
<polygon style="fill: #0000ff; opacity: 1.000000" clip-path="url(#7240474723315632415)" points = "153.538764,381.306673 151.972764,382.206673 151.972764,384.006673 153.538764,384.906673 155.104764,384.006673 155.104764,382.206673"/>
<polygon style="fill: #0000ff; opacity: 1.000000" clip-path="url(#7240474723315632415)" points = "153.985791,372.684921 152.419791,373.584921 152.419791,375.384921 153.985791,376.284921 155.551791,375.384921 155.551791,373.584921"/>
<polygon style="fill: #0000ff; opacity: 1.000000" clip-path="url(#7240474723315632415)" points = "156.914141,394.490987 155.348140,395.390987 155.348140,397.190987 156.914141,398.090987 158.480141,397.190987 158.480141,395.390987"/>
<polygon style="fill: #0000ff; opacity: 1.000000" clip-path="url(#7240474723315632415)" points = "160.978647,382.317697 159.412647,383.217697 159.412647,385.017697 160.978647,385.917697 162.544647,385.017697 162.544647,383.217697"/>
<polygon style="fill: #0000ff; opacity: 1.000000" clip-path="url(#7240474723315632415)" points = "161.468292,383.652640 159.902292,384.552640 159.902292,386.352640 161.468292,387.252640 163.034292,386.352640 163.034292,384.552640"/>
<polygon style="fill: #0000ff; opacity: 1.000000" clip-path="url(#7240474723315632415)" points = "163.228747,358.488260 161.662747,359.388260 161.662747,361.188260 163.228747,362.088260 164.794747,361.188260 164.794747,359.388260"/>
<polygon style="fill: #0000ff; opacity: 1.000000" clip-path="url(#7240474723315632415)" points = "164.824174,379.877622 163.258174,380.777622 163.258174,382.577622 164.824174,383.477622 166.390174,382.577622 166.390174,380.777622"/>
<polygon style="fill: #0000ff; opacity: 1.000000" clip-path="url(#7240474723315632415)" points = "169.779110,393.330030 168.213110,394.230030 168.213110,396.030030 169.779110,396.930030 171.345110,396.030030 171.345110,394.230030"/>
<polygon style="fill: #0000ff; opacity: 1.000000" clip-path="url(#7240474723315632415)" points = "173.359412,389.680046 171.793412,390.580046 171.793412,392.380046 173.359412,393.280046 174.925412,392.380046 174.925412,390.580046"/>
<polygon style="fill: #0000ff; opacity: 1.000000" clip-path="url(#7240474723315632415)" points = "175.578683,370.580441 174.012683,371.480441 174.012683,373.280441 175.578683,374.180441 177.144683,373.280441 177.144683,371.480441"/>
<polygon style="fill: #0000ff; opacity: 1.000000" clip-path="url(#7240474723315632415)" points = "176.450523,348.355405 174.884523,349.255405 174.884523,351.055405 176.450523,351.955405 178.016523,351.055405 178.016523,349.255405"/>
<polygon style="fill: #0000ff; opacity: 1.000000" clip-path="url(#7240474723315632415)" points = "181.585901,394.570866 180.019901,395.470866 180.019901,397.270866 181.585901,398.170866 183.151901,397.270866 183.151901,395.470866"/>
<polygon style="fill: #0000ff; opacity: 1.000000" clip-path="url(#7240474723315632415)" points = "184.959465,343.482985 183.393465,344.382985 183.393465,346.182985 184.959465,347.082985 186.525465,346.182985 186.525465,344.382985"/>
<polygon style="fill: #0000ff; opacity: 1.000000" clip-path="url(#7240474723315632415)" points = "188.077325,347.861062 186.511325,348.761062 186.511325,350.561062 188.077325,351.461062 189.643325,350.561062 189.643325,348.761062"/>
<polygon style="fill: #0000ff; opacity: 1.000000" clip-path="url(#7240474723315632415)" points = "188.260941,371.616379 186.694941,372.516379 186.694941,374.316379 188.260941,375.216379 189.826941,374.316379 189.826941,372.516379"/>
<polygon style="fill: #0000ff; opacity: 1.000000" clip-path="url(#7240474723315632415)" points = "190.556832,359.128387 188.990832,360.028387 188.990832,361.828387 190.556832,362.728387 192.122832,361.828387 192.122832,360.028387"/>
<polygon style="fill: #0000ff; opacity: 1.000000" clip-path="url(#7240474723315632415)" points = "192.832775,376.848255 191.266775,377.748255 191.266775,379.548255 192.832775,380.448255 194.398775,379.548255 194.398775,377.748255"/>
<polygon style="fill: #0000ff; opacity: 1.000000" clip-path="url(#7240474723315632415)" points = "195.512675,393.099199 193.946675,393.999199 193.946675,395.799199 195.512675,396.699199 197.078675,395.799199 197.078675,393.999199"/>
<polygon style="fill: #0000ff; opacity: 1.000000" clip-path="url(#7240474723315632415)" points = "197.912388,388.575138 196.346388,389.475138 196.346388,391.275138 197.912388,392.175138 199.478388,391.275138 199.478388,389.475138"/>
<polygon style="fill: #0000ff; opacity: 1.000000" clip-path="url(#7240474723315632415)" points = "201.094628,388.197921 199.528627,389.097921 199.528627,390.897921 201.094628,391.797921 202.660628,390.897921 202.660628,389.097921"/>
<polygon style="fill: #0000ff; opacity: 1.000000" clip-path="url(#7240474723315632415)" points = "201.987323,381.331131 200.421323,382.231131 200.421323,384.031131 201.987323,384.931131 203.553323,384.031131 203.553323,382.231131"/>
<polygon style="fill: #0000ff; opacity: 1.000000" clip-path="url(#7240474723315632415)" points = "206.363752,388.056653 204.797752,388.956653 204.797752,390.756653 206.363752,391.656653 207.929752,390.756653 207.929752,388.956653"/>
<polygon style="fill: #0000ff; opacity: 1.000000" clip-path="url(#7240474723315632415)" points = "207.473160,347.508649 205.907160,348.408649 205.907160,350.208649 207.473160,351.108649 209.039160,350.208649 209.039160,348.408649"/>
<polygon style="fill: #0000ff; opacity: 1.000000" clip-path="url(#7240474723315632415)" points = "207.580157,391.388310 206.014157,392.288310 206.014157,394.088310 207.580157,394.988310 209.146157,394.088310 209.146157,392.288310"/>
<polygon style="fill: #0000ff; opacity: 1.000000" clip-path="url(#7240474723315632415)" points = "208.300116,369.995139 206.734116,370.895139 206.734116,372.695139 208.300116,373.595139 209.866116,372.695139 209.866116,370.895139"/>
<polygon style="fill: #0000ff; opacity: 1.000000" clip-path="url(#7240474723315632415)" points = "210.432792,359.417279 208.866792,360.317279 208.866792,362.117279 210.432792,363.017279 211.998792,362.117279 211.998792,360.317279"/>
<polygon style="fill: #0000ff; opacity: 1.000000" clip-path="url(#7240474723315632415)" points = "215.207285,394.500344 213.641285,395.400344 213.641285,397.200344 215.207285,398.100344 216.773285,397.200344 216.773285,395.400344"/>
<polygon style="fill: #0000ff; opacity: 1.000000" clip-path="url(#7240474723315632415)" points = "215.290706,381.744138 213.724705,382.644138 213.724705,384.444138 215.290706,385.344138 216.856706,384.444138 216.856706,382.644138"/>
<polygon style="fill: #0000ff; opacity: 1.000000" clip-path="url(#7240474723315632415)" points = "222.052794,343.824706 220.486794,344.724706 220.486794,346.524706 222.052794,347.424706 223.618794,346.524706 223.618794,344.724706"/>
<polygon style="fill: #0000ff; opacity: 1.000000" clip-path="url(#7240474723315632415)" points = "228.046411,374.074951 226.480411,374.974951 226.480411,376.774951 228.046411,377.674951 229.612411,376.774951 229.612411,374.974951"/>
<polygon style="fill: #0000ff; opacity: 1.000000" clip-path="url(#7240474723315632415)" points = "232.047899,389.768285 230.481899,390.668285 230.481899,392.468285 232.047899,393.368285 233.613899,392.468285 233.613899,390.668285"/>
<polygon style="fill: #0000ff; opacity: 1.000000" clip-path="url(#7240474723315632415)" points = "239.394387,386.291435 237.828387,387.191435 237.828387,388.991435 239.394387,389.891435 240.960387,388.991435 240.960387,387.191435"/>
<polygon style="fill: #0000ff; opacity: 1.000000" clip-path="url(#7240474723315632415)" points = "242.716266,370.037531 241.150266,370.937531 241.150266,372.737531 242.716266,373.637531 244.282266,372.737531 244.282266,370.937531"/>
<polygon style="fill: #0000ff; opacity: 1.000000" clip-path="url(#7240474723315632415)" points = "251.267372,374.470916 249.701372,375.370916 249.701372,377.170916 251.267372,378.070916 252.833372,377.170916 252.833372,375.370916"/>
<polygon style="fill: #0000ff; opacity: 1.000000" clip-path="url(#7240474723315632415)" points = "253.110795,373.999494 251.544795,374.899494 251.544795,376.699494 253.110795,377.599494 254.676795,376.699494 254.676795,374.899494"/>
<polygon style="fill: #0000ff; opacity: 1.000000" clip-path="url(#7240474723315632415)" points = "254.220203,393.864224 252.654203,394.764224 252.654203,396.564224 254.220203,397.464224 255.786203,396.564224 255.786203,394.764224"/>
<polygon style="fill: #0000ff; opacity: 1.000000" clip-path="url(#7240474723315632415)" points = "254.752465,351.543375 253.186465,352.443375 253.186465,354.243375 254.752465,355.143375 256.318466,354.243375 256.318466,352.443375"/>
<polygon style="fill: #0000ff; opacity: 1.000000" clip-path="url(#7240474723315632415)" points = "256.573673,332.746096 255.007673,333.646096 255.007673,335.446096 256.573673,336.346096 258.139673,335.446096 258.139673,333.646096"/>
<polygon style="fill: #0000ff; opacity: 1.000000" clip-path="url(#7240474723315632415)" points = "262.168320,336.835112 260.602320,337.735112 260.602320,339.535112 262.168320,340.435112 263.734320,339.535112 263.734320,337.735112"/>
<polygon style="fill: #0000ff; opacity: 1.000000" clip-path="url(#7240474723315632415)" points = "263.242819,394.952249 261.676819,395.852249 261.676819,397.652249 263.242819,398.552249 264.808819,397.652249 264.808819,395.852249"/>
<polygon style="fill: #0000ff; opacity: 1.000000" clip-path="url(#7240474723315632415)" points = "264.626973,389.994724 263.060973,390.894724 263.060973,392.694724 264.626973,393.594724 266.192973,392.694724 266.192973,390.894724"/>
<polygon style="fill: #0000ff; opacity: 1.000000" clip-path="url(#7240474723315632415)" points = "271.678768,390.924374 270.112768,391.824374 270.112768,393.624374 271.678768,394.524374 273.244768,393.624374 273.244768,391.824374"/>
<polygon style="fill: #0000ff; opacity: 1.000000" clip-path="url(#7240474723315632415)" points = "271.715491,386.567878 270.149491,387.467878 270.149491,389.267878 271.715491,390.167878 273.281491,389.267878 273.281491,387.467878"/>
<polygon style="fill: #0000ff; opacity: 1.000000" clip-path="url(#7240474723315632415)" points = "272.178840,394.247310 270.612840,395.147310 270.612840,396.947310 272.178840,397.847310 273.744840,396.947310 273.744840,395.147310"/>
<polygon style="fill: #0000ff; opacity: 1.000000" clip-path="url(#7240474723315632415)" points = "273.078336,357.989468 271.512336,358.889468 271.512336,360.689468 273.078336,361.589468 274.644336,360.689468 274.644336,358.889468"/>
<polygon style="fill: #0000ff; opacity: 1.000000" clip-path="url(#7240474723315632415)" points = "278.438589,358.496867 276.872589,359.396867 276.872589,361.196867 278.438589,362.096867 280.004589,361.196867 280.004589,359.396867"/>
<polygon style="fill: #0000ff; opacity: 1.000000" clip-path="url(#7240474723315632415)" points = "280.638364,379.694611 279.072364,380.594611 279.072364,382.394611 280.638364,383.294611 282.204364,382.394611 282.204364,380.594611"/>
<polygon style="fill: #0000ff; opacity: 1.000000" clip-path="url(#7240474723315632415)" points = "286.007231,394.869406 284.441231,395.769406 284.441231,397.569406 286.007231,398.469406 287.573231,397.569406 287.573231,395.769406"/>
<polygon style="fill: #0000ff; opacity: 1.000000" clip-path="url(#7240474723315632415)" points = "291.203362,384.620671 289.637362,385.520671 289.637362,387.320671 291.203362,388.220671 292.769362,387.320671 292.769362,385.520671"/>
<polygon style="fill: #0000ff; opacity: 1.000000" clip-path="url(#7240474723315632415)" points = "299.053550,389.748657 297.487550,390.648657 297.487550,392.448657 299.053550,393.348657 300.619550,392.448657 300.619550,390.648657"/>
<polygon style="fill: #0000ff; opacity: 1.000000" clip-path="url(#7240474723315632415)" points = "300.462186,393.333409 298.896186,394.233409 298.896186,396.033409 300.462186,396.933409 302.028186,396.033409 302.028186,394.233409"/>
<polygon style="fill: #0000ff; opacity: 1.000000" clip-path="url(#7240474723315632415)" points = "301.630080,393.680089 300.064080,394.580089 300.064080,396.380089 301.630080,397.280089 303.196080,396.380089 303.196080,394.580089"/>
<polygon style="fill: #0000ff; opacity: 1.000000" clip-path="url(#7240474723315632415)" points = "302.554512,392.284146 300.988512,393.184146 300.988512,394.984146 302.554512,395.884146 304.120512,394.984146 304.120512,393.184146"/>
<polygon style="fill: #0000ff; opacity: 1.000000" clip-path="url(#7240474723315632415)" points = "302.564940,384.493357 300.998940,385.393357 300.998940,387.193357 302.564940,388.093357 304.130940,387.193357 304.130940,385.393357"/>
<polygon style="fill: #0000ff; opacity: 1.000000" clip-path="url(#7240474723315632415)" points = "303.167928,386.404438 301.601928,387.304438 301.601928,389.104438 303.167928,390.004438 304.733928,389.104438 304.733928,387.304438"/>
<polygon style="fill: #0000ff; opacity: 1.000000" clip-path="url(#7240474723315632415)" points = "305.060769,375.951257 303.494769,376.851257 303.494769,378.651257 305.060769,379.551257 306.626769,378.651257 306.626769,376.851257"/>
<polygon style="fill: #0000ff; opacity: 1.000000" clip-path="url(#7240474723315632415)" points = "307.259184,361.928766 305.693184,362.828766 305.693184,364.628766 307.259184,365.528766 308.825184,364.628766 308.825184,362.828766"/>
<polygon style="fill: #0000ff; opacity: 1.000000" clip-path="url(#7240474723315632415)" points = "310.464999,371.728326 308.898999,372.628326 308.898999,374.428326 310.464999,375.328326 312.030999,374.428326 312.030999,372.628326"/>
<polygon style="fill: #0000ff; opacity: 1.000000" clip-path="url(#7240474723315632415)" points = "320.148182,343.185589 318.582182,344.085589 318.582182,345.885589 320.148182,346.785589 321.714182,345.885589 321.714182,344.085589"/>
<polygon style="fill: #0000ff; opacity: 1.000000" clip-path="url(#7240474723315632415)" points = "323.689494,395.061482 322.123494,395.961482 322.123494,397.761482 323.689494,398.661482 325.255494,397.761482 325.255494,395.961482"/>
<polygon style="fill: #0000ff; opacity: 1.000000" clip-path="url(#7240474723315632415)" points = "326.883068,335.344321 325.317068,336.244321 325.317068,338.044321 326.883068,338.944321 328.449068,338.044321 328.449068,336.244321"/>
<polygon style="fill: #0000ff; opacity: 1.000000" clip-path="url(#7240474723315632415)" points = "327.253475,393.579443 325.687475,394.479443 325.687475,396.279443 327.253475,397.179443 328.819475,396.279443 328.819475,394.479443"/>
<polygon style="fill: #0000ff; opacity: 1.000000" clip-path="url(#7240474723315632415)" points = "328.799484,385.043388 327.233484,385.943388 327.233484,387.743388 328.799484,388.643388 330.365484,387.743388 330.365484,385.943388"/>
<polygon style="fill: #0000ff; opacity: 1.000000" clip-path="url(#7240474723315632415)" points = "329.246965,382.653376 327.680965,383.553376 327.680965,385.353376 329.246965,386.253376 330.812965,385.353376 330.812965,383.553376"/>
<polygon style="fill: #0000ff; opacity: 1.000000" clip-path="url(#7240474723315632415)" points = "329.667244,382.025848 328.101244,382.925848 328.101244,384.725848 329.667244,385.625848 331.233244,384.725848 331.233244,382.925848"/>
<polygon style="fill: #0000ff; opacity: 1.000000" clip-path="url(#7240474723315632415)" points = "331.786318,383.192207 330.220319,384.092207 330.220319,385.892207 331.786318,386.792207 333.352318,385.892207 333.352318,384.092207"/>
<polygon style="fill: #0000ff; opacity: 1.000000" clip-path="url(#7240474723315632415)" points = "332.021620,366.188964 330.455620,367.088964 330.455620,368.888964 332.021620,369.788964 333.587620,368.888964 333.587620,367.088964"/>
<polygon style="fill: #0000ff; opacity: 1.000000" clip-path="url(#7240474723315632415)" points = "333.034006,391.999649 331.468007,392.899649 331.468007,394.699649 333.034006,395.599649 334.600006,394.699649 334.600006,392.899649"/>
<polygon style="fill: #0000ff; opacity: 1.000000" clip-path="url(#7240474723315632415)" points = "339.484626,353.627865 337.918626,354.527865 337.918626,356.327865 339.484626,357.227865 341.050626,356.327865 341.050626,354.527865"/>
<polygon style="fill: #0000ff; opacity: 1.000000" clip-path="url(#7240474723315632415)" points = "339.880876,367.380521 338.314876,368.280521 338.314876,370.080521 339.880876,370.980521 341.446876,370.080521 341.446876,368.280521"/>
<polygon style="fill: #0000ff; opacity: 1.000000" clip-path="url(#7240474723315632415)" points = "345.546703,392.217542 343.980703,393.117542 343.980703,394.917542 345.546703,395.817542 347.112703,394.917542 347.112703,393.117542"/>
<polygon style="fill: #0000ff; opacity: 1.000000" clip-path="url(#7240474723315632415)" points = "346.225859,350.033066 344.659859,350.933066 344.659859,352.733066 346.225859,353.633066 347.791859,352.733066 347.791859,350.933066"/>
<polygon style="fill: #0000ff; opacity: 1.000000" clip-path="url(#7240474723315632415)" points = "347.989034,386.234520 346.423034,387.134520 346.423034,388.934520 347.989034,389.834520 349.555034,388.934520 349.555034,387.134520"/>
<polygon style="fill: #0000ff; opacity: 1.000000" clip-path="url(#7240474723315632415)" points = "348.765666,380.731727 347.199666,381.631727 347.199666,383.431727 348.765666,384.331727 350.331666,383.431727 350.331666,381.631727"/>
<polygon style="fill: #0000ff; opacity: 1.000000" clip-path="url(#7240474723315632415)" points = "349.122472,378.830061 347.556472,379.730061 347.556472,381.530061 349.122472,382.430061 350.688472,381.530061 350.688472,379.730061"/>
<polygon style="fill: #0000ff; opacity: 1.000000" clip-path="url(#7240474723315632415)" points = "349.183677,391.957457 347.617677,392.857457 347.617677,394.657457 349.183677,395.557457 350.749677,394.657457 350.749677,392.857457"/>
<polygon style="fill: #0000ff; opacity: 1.000000" clip-path="url(#7240474723315632415)" points = "349.304275,394.747264 347.738275,395.647264 347.738275,397.447264 349.304275,398.347264 350.870275,397.447264 350.870275,395.647264"/>
<polygon style="fill: #0000ff; opacity: 1.000000" clip-path="url(#7240474723315632415)" points = "360.334435,363.097851 358.768436,363.997851 358.768436,365.797851 360.334435,366.697851 361.900435,365.797851 361.900435,363.997851"/>
<polygon style="fill: #0000ff; opacity: 1.000000" clip-path="url(#7240474723315632415)" points = "364.355418,378.055421 362.789418,378.955421 362.789418,380.755421 364.355418,381.655421 365.921418,380.755421 365.921418,378.955421"/>
<polygon style="fill: #0000ff; opacity: 1.000000" clip-path="url(#7240474723315632415)" points = "368.981203,376.489546 367.415204,377.389546 367.415204,379.189546 368.981203,380.089546 370.547203,379.189546 370.547203,377.389546"/>
<polygon style="fill: #0000ff; opacity: 1.000000" clip-path="url(#7240474723315632415)" points = "371.709614,384.584462 370.143614,385.484462 370.143614,387.284462 371.709614,388.184462 373.275614,387.284462 373.275614,385.484462"/>
<polygon style="fill: #0000ff; opacity: 1.000000" clip-path="url(#7240474723315632415)" points = "375.405981,363.983734 373.839981,364.883734 373.839981,366.683734 375.405981,367.583734 376.971981,366.683734 376.971981,364.883734"/>
<polygon style="fill: #0000ff; opacity: 1.000000" clip-path="url(#7240474723315632415)" points = "379.914342,379.621808 378.348342,380.521808 378.348342,382.321808 379.914342,383.221808 381.480342,382.321808 381.480342,380.521808"/>
<polygon style="fill: #0000ff; opacity: 1.000000" clip-path="url(#7240474723315632415)" points = "380.939422,395.097044 379.373423,395.997044 379.373423,397.797044 380.939422,398.697044 382.505422,397.797044 382.505422,395.997044"/>
<polygon style="fill: #0000ff; opacity: 1.000000" clip-path="url(#7240474723315632415)" points = "380.975692,370.676738 379.409693,371.576738 379.409693,373.376738 380.975692,374.276738 382.541692,373.376738 382.541692,371.576738"/>
<polygon style="fill: #0000ff; opacity: 1.000000" clip-path="url(#7240474723315632415)" points = "381.107625,351.655856 379.541625,352.555856 379.541625,354.355856 381.107625,355.255856 382.673625,354.355856 382.673625,352.555856"/>
<polygon style="fill: #0000ff; opacity: 1.000000" clip-path="url(#7240474723315632415)" points = "385.921560,359.460821 384.355560,360.360821 384.355560,362.160821 385.921560,363.060821 387.487560,362.160821 387.487560,360.360821"/>
<polygon style="fill: #0000ff; opacity: 1.000000" clip-path="url(#7240474723315632415)" points = "388.494010,382.557733 386.928010,383.457733 386.928010,385.257733 388.494010,386.157733 390.060010,385.257733 390.060010,383.457733"/>
<polygon style="fill: #0000ff; opacity: 1.000000" clip-path="url(#7240474723315632415)" points = "390.418587,363.862680 388.852587,364.762680 388.852587,366.562680 390.418587,367.462680 391.984587,366.562680 391.984587,364.762680"/>
<polygon style="fill: #0000ff; opacity: 1.000000" clip-path="url(#7240474723315632415)" points = "391.220607,386.909388 389.654607,387.809388 389.654607,389.609388 391.220607,390.509388 392.786607,389.609388 392.786607,387.809388"/>
<polygon style="fill: #0000ff; opacity: 1.000000" clip-path="url(#7240474723315632415)" points = "391.423266,375.057513 389.857266,375.957513 389.857266,377.757513 391.423266,378.657513 392.989266,377.757513 392.989266,375.957513"/>
<polygon style="fill: #0000ff; opacity: 1.000000" clip-path="url(#7240474723315632415)" points = "391.733828,369.398954 390.167828,370.298954 390.167828,372.098954 391.733828,372.998954 393.299828,372.098954 393.299828,370.298954"/>
<polygon style="fill: #0000ff; opacity: 1.000000" clip-path="url(#7240474723315632415)" points = "397.865725,390.336557 396.299725,391.236557 396.299725,393.036557 397.865725,393.936557 399.431725,393.036557 399.431725,391.236557"/>
<polygon style="fill: #0000ff; opacity: 1.000000" clip-path="url(#7240474723315632415)" points = "398.244746,395.094699 396.678746,395.994699 396.678746,397.794699 398.244746,398.694699 399.810746,397.794699 399.810746,395.994699"/>
<polygon style="fill: #0000ff; opacity: 1.000000" clip-path="url(#7240474723315632415)" points = "403.274942,369.851485 401.708942,370.751485 401.708942,372.551485 403.274942,373.451485 404.840942,372.551485 404.840942,370.751485"/>
<polygon style="fill: #0000ff; opacity: 1.000000" clip-path="url(#7240474723315632415)" points = "406.068639,368.546353 404.502639,369.446353 404.502639,371.246353 406.068639,372.146353 407.634639,371.246353 407.634639,369.446353"/>
<polygon style="fill: #0000ff; opacity: 1.000000" clip-path="url(#7240474723315632415)" points = "407.514452,381.955659 405.948452,382.855659 405.948452,384.655659 407.514452,385.555659 409.080451,384.655659 409.080451,382.855659"/>
<polygon style="fill: #0000ff; opacity: 1.000000" clip-path="url(#7240474723315632415)" points = "407.844962,382.119080 406.278962,383.019080 406.278962,384.819080 407.844962,385.719080 409.410962,384.819080 409.410962,383.019080"/>
<polygon style="fill: #0000ff; opacity: 1.000000" clip-path="url(#7240474723315632415)" points = "407.981428,377.718907 406.415428,378.618907 406.415428,380.418907 407.981428,381.318907 409.547428,380.418907 409.547428,378.618907"/>
<polygon style="fill: #0000ff; opacity: 1.000000" clip-path="url(#7240474723315632415)" points = "416.131297,392.069051 414.565297,392.969051 414.565297,394.769051 416.131297,395.669051 417.697297,394.769051 417.697297,392.969051"/>
<polygon style="fill: #0000ff; opacity: 1.000000" clip-path="url(#7240474723315632415)" points = "420.129611,394.762356 418.563611,395.662356 418.563611,397.462356 420.129611,398.362356 421.695611,397.462356 421.695611,395.662356"/>
<polygon style="fill: #0000ff; opacity: 1.000000" clip-path="url(#7240474723315632415)" points = "420.355392,387.073025 418.789392,387.973025 418.789392,389.773025 420.355392,390.673025 421.921392,389.773025 421.921392,387.973025"/>
<polygon style="fill: #0000ff; opacity: 1.000000" clip-path="url(#7240474723315632415)" points = "428.143014,375.126241 426.577014,376.026241 426.577014,377.826241 428.143014,378.726241 429.709014,377.826241 429.709014,376.026241"/>
<polygon style="fill: #0000ff; opacity: 1.000000" clip-path="url(#7240474723315632415)" points = "439.665086,356.967571 438.099086,357.867571 438.099086,359.667571 439.665086,360.567571 441.231086,359.667571 441.231086,357.867571"/>
<polygon style="fill: #0000ff; opacity: 1.000000" clip-path="url(#7240474723315632415)" points = "440.667045,383.132788 439.101045,384.032788 439.101045,385.832788 440.667045,386.732788 442.233045,385.832788 442.233045,384.032788"/>
<polygon style="fill: #0000ff; opacity: 1.000000" clip-path="url(#7240474723315632415)" points = "444.766008,391.708326 443.200008,392.608326 443.200008,394.408326 444.766008,395.308326 446.332008,394.408326 446.332008,392.608326"/>
<polygon style="fill: #0000ff; opacity: 1.000000" clip-path="url(#7240474723315632415)" points = "445.781115,369.210074 444.215115,370.110074 444.215115,371.910074 445.781115,372.810074 447.347115,371.910074 447.347115,370.110074"/>
<polygon style="fill: #0000ff; opacity: 1.000000" clip-path="url(#7240474723315632415)" points = "446.691492,391.954906 445.125492,392.854906 445.125492,394.654906 446.691492,395.554906 448.257492,394.654906 448.257492,392.854906"/>
<polygon style="fill: #0000ff; opacity: 1.000000" clip-path="url(#7240474723315632415)" points = "446.813903,393.897306 445.247903,394.797306 445.247903,396.597306 446.813903,397.497306 448.379903,396.597306 448.379903,394.797306"/>
<polygon style="fill: #0000ff; opacity: 1.000000" clip-path="url(#7240474723315632415)" points = "455.819744,364.689720 454.253744,365.589720 454.253744,367.389720 455.819744,368.289720 457.385744,367.389720 457.385744,365.589720"/>
<polygon style="fill: #0000ff; opacity: 1.000000" clip-path="url(#7240474723315632415)" points = "458.069844,393.113768 456.503844,394.013768 456.503844,395.813768 458.069844,396.713768 459.635844,395.813768 459.635844,394.013768"/>
<polygon style="fill: #0000ff; opacity: 1.000000" clip-path="url(#7240474723315632415)" points = "461.238029,364.095820 459.672029,364.995820 459.672029,366.795820 461.238029,367.695820 462.804029,366.795820 462.804029,364.995820"/>
<polygon style="fill: #0000ff; opacity: 1.000000" clip-path="url(#7240474723315632415)" points = "466.134479,357.083562 464.568479,357.983562 464.568479,359.783562 466.134479,360.683562 467.700479,359.783562 467.700479,357.983562"/>
<polygon style="fill: #0000ff; opacity: 1.000000" clip-path="url(#7240474723315632415)" points = "472.306726,392.989202 470.740726,393.889202 470.740726,395.689202 472.306726,396.589202 473.872726,395.689202 473.872726,393.889202"/>
<polygon style="fill: #0000ff; opacity: 1.000000" clip-path="url(#7240474723315632415)" points = "477.932657,370.662355 476.366657,371.562355 476.366657,373.362355 477.932657,374.262355 479.498656,373.362355 479.498656,371.562355"/>
<polygon style="fill: #0000ff; opacity: 1.000000" clip-path="url(#7240474723315632415)" points = "480.148753,394.905707 478.582754,395.805707 478.582754,397.605707 480.148753,398.505707 481.714753,397.605707 481.714753,395.805707"/>
<polygon style="fill: #0000ff; opacity: 1.000000" clip-path="url(#7240474723315632415)" points = "480.832896,351.963203 479.266896,352.863203 479.266896,354.663203 480.832896,355.563203 482.398896,354.663203 482.398896,352.863203"/>
<polygon style="fill: #0000ff; opacity: 1.000000" clip-path="url(#7240474723315632415)" points = "482.086932,377.005439 480.520932,377.905439 480.520932,379.705439 482.086932,380.605439 483.652932,379.705439 483.652932,377.905439"/>
<polygon style="fill: #0000ff; opacity: 1.000000" clip-path="url(#7240474723315632415)" points = "486.155972,381.669083 484.589972,382.569083 484.589972,384.369083 486.155972,385.269083 487.721972,384.369083 487.721972,382.569083"/>
<polygon style="fill: #0000ff; opacity: 1.000000" clip-path="url(#7240474723315632415)" points = "488.375243,381.870975 486.809243,382.770975 486.809243,384.570975 488.375243,385.470975 489.941243,384.570975 489.941243,382.770975"/>
<polygon style="fill: #0000ff; opacity: 1.000000" clip-path="url(#7240474723315632415)" points = "490.541922,381.201678 488.975922,382.101678 488.975922,383.901678 490.541922,384.801678 492.107922,383.901678 492.107922,382.101678"/>
<polygon style="fill: #0000ff; opacity: 1.000000" clip-path="url(#7240474723315632415)" points = "491.062396,359.995578 489.496397,360.895578 489.496397,362.695578 491.062396,363.595578 492.628396,362.695578 492.628396,360.895578"/>
<polygon style="fill: #0000ff; opacity: 1.000000" clip-path="url(#7240474723315632415)" points = "493.217741,381.014307 491.651741,381.914307 491.651741,383.714307 493.217741,384.614307 494.783741,383.714307 494.783741,381.914307"/>
<polygon style="fill: #0000ff; opacity: 1.000000" clip-path="url(#7240474723315632415)" points = "494.546130,383.183324 492.980130,384.083324 492.980130,385.883324 494.546130,386.783324 496.112130,385.883324 496.112130,384.083324"/>
<polygon style="fill: #0000ff; opacity: 1.000000" clip-path="url(#7240474723315632415)" points = "497.142155,394.749073 495.576155,395.649073 495.576155,397.449073 497.142155,398.349073 498.708155,397.449073 498.708155,395.649073"/>
<polygon style="fill: #0000ff; opacity: 1.000000" clip-path="url(#7240474723315632415)" points = "498.810575,393.588294 497.244575,394.488294 497.244575,396.288294 498.810575,397.188294 500.376575,396.288294 500.376575,394.488294"/>
<polygon style="fill: #0000ff; opacity: 1.000000" clip-path="url(#7240474723315632415)" points = "504.474589,389.573505 502.908589,390.473505 502.908589,392.273505 504.474589,393.173505 506.040589,392.273505 506.040589,390.473505"/>
<polygon style="fill: #0000ff; opacity: 1.000000" clip-path="url(#7240474723315632415)" points = "504.635537,332.993765 503.069537,333.893765 503.069537,335.693765 504.635537,336.593765 506.201537,335.693765 506.201537,333.893765"/>
<polygon style="fill: #0000ff; opacity: 1.000000" clip-path="url(#7240474723315632415)" points = "516.050160,394.099336 514.484160,394.999336 514.484160,396.799336 516.050160,397.699336 517.616160,396.799336 517.616160,394.999336"/>
<polygon style="fill: #0000ff; opacity: 1.000000" clip-path="url(#7240474723315632415)" points = "519.437324,383.151884 517.871324,384.051884 517.871324,385.851884 519.437324,386.751884 521.003324,385.851884 521.003324,384.051884"/>
<path style="fill: none; stroke: #008000; stroke-width: 0.500000; stroke-linejoin: miter; stroke-linecap: square;  opacity: 1.000000" clip-path="url(#7240474723315632415)" d="M 73.901631,330.208061 L 75.174255,331.129574 L 79.132219,333.931817 L 90.551375,341.487610 L 95.364404,344.443204 L 104.212470,349.534294 L 107.541150,351.337526 L 114.616067,354.972346 L 121.569479,358.289288 L 122.579145,358.750348 L 139.839585,365.856968 L 142.816445,366.939613 L 143.808883,367.291531 L 145.283258,367.806097 L 147.172019,368.450991 L 147.332513,368.505054 L 147.695213,368.626809 L 150.467601,369.538231 L 151.509910,369.872154 L 151.524872,369.876913 L 153.538764,370.508592 L 153.985791,370.646431 L 156.914141,371.528242 L 160.978647,372.692252 L 161.468292,372.827843 L 163.228747,373.307209 L 164.824174,373.730724 L 169.779110,374.980960 L 173.359412,375.824302 L 175.578683,376.322315 L 176.450523,376.512851 L 181.585901,377.577696 L 184.959465,378.224822 L 188.077325,378.786892 L 188.260941,378.818931 L 190.556832,379.209688 L 192.832775,379.579243 L 195.512675,379.992047 L 197.912388,380.341541 L 201.094628,380.776223 L 201.987323,380.892362 L 206.363752,381.425739 L 207.473160,381.551604 L 207.580157,381.563547 L 208.300116,381.643006 L 210.432792,381.869296 L 215.207285,382.327645 L 215.290706,382.335072 L 222.052794,382.872774 L 228.046411,383.247076 L 232.047899,383.446125 L 239.394387,383.711339 L 242.716266,383.790727 L 251.267372,383.886727 L 253.110795,383.888019 L 254.220203,383.885629 L 254.752465,383.883649 L 256.573673,383.872851 L 262.168320,383.802027 L 263.242819,383.782164 L 264.626973,383.753712 L 271.678768,383.560943 L 271.715491,383.559738 L 272.178840,383.544372 L 273.078336,383.513640 L 278.438589,383.306760 L 280.638364,383.210651 L 286.007231,382.950790 L 291.203362,382.667909 L 299.053550,382.189504 L 300.462186,382.097911 L 301.630080,382.020770 L 302.554512,381.958965 L 302.564940,381.958264 L 303.167928,381.917600 L 305.060769,381.788248 L 307.259184,381.634936 L 310.464999,381.405947 L 320.148182,380.682710 L 323.689494,380.409425 L 326.883068,380.160348 L 327.253475,380.131335 L 328.799484,380.010021 L 329.246965,379.974851 L 329.667244,379.941798 L 331.786318,379.774916 L 332.021620,379.756368 L 333.034006,379.676542 L 339.484626,379.168516 L 339.880876,379.137428 L 345.546703,378.696123 L 346.225859,378.643743 L 347.989034,378.508416 L 348.765666,378.449135 L 349.122472,378.421971 L 349.183677,378.417316 L 349.304275,378.408149 L 360.334435,377.597745 L 364.355418,377.319810 L 368.981203,377.014765 L 371.709614,376.843123 L 375.405981,376.621433 L 379.914342,376.369546 L 380.939422,376.315320 L 380.975692,376.313423 L 381.107625,376.306535 L 385.921560,376.069092 L 388.494010,375.953869 L 390.418587,375.873297 L 391.220607,375.841190 L 391.423266,375.833217 L 391.733828,375.821107 L 397.865725,375.610264 L 398.244746,375.599064 L 403.274942,375.471867 L 406.068639,375.419169 L 407.514452,375.397155 L 407.844962,375.392637 L 407.981428,375.390828 L 416.131297,375.344783 L 420.129611,375.369161 L 420.355392,375.371507 L 428.143014,375.518823 L 439.665086,375.990831 L 440.667045,376.047220 L 444.766008,376.304856 L 445.781115,376.375477 L 446.691492,376.441156 L 446.813903,376.450157 L 455.819744,377.226288 L 458.069844,377.456439 L 461.238029,377.806041 L 466.134479,378.406741 L 472.306726,379.272302 L 477.932657,380.170930 L 480.148753,380.554592 L 480.832896,380.676491 L 482.086932,380.904207 L 486.155972,381.681701 L 488.375243,382.131045 L 490.541922,382.587287 L 491.062396,382.699493 L 493.217741,383.175027 L 494.546130,383.476906 L 497.142155,384.086474 L 498.810575,384.492089 L 504.474589,385.951612 L 504.635537,385.994976 L 516.050160,389.346008 L 519.437324,390.447939 "/>
<g id="matplotlib.axis1">
<g id="xtick1">
<text style="font-size: 9.996000; font-family: Bitstream Vera Serif; font-style: Roman; fill: #000000;" x="66.125000" y="406.900000" >0.0</text>
</g>
<g id="xtick2">
<path style="fill: none; stroke: #000000; stroke-width: 0.500000; stroke-linejoin: miter; stroke-linecap: butt;  opacity: 1.000000"  d="M 163.800000,396.900000 L 163.800000,391.900000"/>
<path style="fill: none; stroke: #000000; stroke-width: 0.500000; stroke-linejoin: miter; stroke-linecap: butt;  opacity: 1.000000"  d="M 163.800000,49.100000 L 163.800000,44.100000"/>
<text style="font-size: 9.996000; font-family: Bitstream Vera Serif; font-style: Roman; fill: #000000;" x="156.800000" y="406.900000" >0.2</text>
</g>
<g id="xtick3">
<path style="fill: none; stroke: #000000; stroke-width: 0.500000; stroke-linejoin: miter; stroke-linecap: butt;  opacity: 1.000000"  d="M 254.475000,396.900000 L 254.475000,391.900000"/>
<path style="fill: none; stroke: #000000; stroke-width: 0.500000; stroke-linejoin: miter; stroke-linecap: butt;  opacity: 1.000000"  d="M 254.475000,49.100000 L 254.475000,44.100000"/>
<text style="font-size: 9.996000; font-family: Bitstream Vera Serif; font-style: Roman; fill: #000000;" x="247.475000" y="406.900000" >0.4</text>
</g>
<g id="xtick4">
<path style="fill: none; stroke: #000000; stroke-width: 0.500000; stroke-linejoin: miter; stroke-linecap: butt;  opacity: 1.000000"  d="M 345.150000,396.900000 L 345.150000,391.900000"/>
<path style="fill: none; stroke: #000000; stroke-width: 0.500000; stroke-linejoin: miter; stroke-linecap: butt;  opacity: 1.000000"  d="M 345.150000,49.100000 L 345.150000,44.100000"/>
<text style="font-size: 9.996000; font-family: Bitstream Vera Serif; font-style: Roman; fill: #000000;" x="338.150000" y="406.900000" >0.6</text>
</g>
<g id="xtick5">
<path style="fill: none; stroke: #000000; stroke-width: 0.500000; stroke-linejoin: miter; stroke-linecap: butt;  opacity: 1.000000"  d="M 435.825000,396.900000 L 435.825000,391.900000"/>
<path style="fill: none; stroke: #000000; stroke-width: 0.500000; stroke-linejoin: miter; stroke-linecap: butt;  opacity: 1.000000"  d="M 435.825000,49.100000 L 435.825000,44.100000"/>
<text style="font-size: 9.996000; font-family: Bitstream Vera Serif; font-style: Roman; fill: #000000;" x="428.825000" y="406.900000" >0.8</text>
</g>
<g id="xtick6">
<text style="font-size: 9.996000; font-family: Bitstream Vera Serif; font-style: Roman; fill: #000000;" x="520.000000" y="406.900000" >1.0</text>
</g>
<text style="font-size: 12.000000; font-family: Bitstream Vera Serif; font-style: Roman; fill: #000000;" x="273.812500" y="420.900000" >Distance</text>
<text style="font-size: 9.996000; font-family: Bitstream Vera Serif; font-style: Roman; fill: #000000;" x="495.500000" y="416.900000" >x1e+6</text>
</g>
<g id="matplotlib.axis2">
<g id="ytick1">
<text style="font-size: 9.996000; font-family: Bitstream Vera Serif; font-style: Roman; fill: #000000;" x="56.125000" y="400.400000" >0.0</text>
</g>
<g id="ytick2">
<path style="fill: none; stroke: #000000; stroke-width: 0.500000; stroke-linejoin: miter; stroke-linecap: butt;  opacity: 1.000000"  d="M 73.125000,326.340000 L 78.125000,326.340000"/>
<path style="fill: none; stroke: #000000; stroke-width: 0.500000; stroke-linejoin: miter; stroke-linecap: butt;  opacity: 1.000000"  d="M 521.500000,326.340000 L 526.500000,326.340000"/>
<text style="font-size: 9.996000; font-family: Bitstream Vera Serif; font-style: Roman; fill: #000000;" x="56.125000" y="329.840000" >0.2</text>
</g>
<g id="ytick3">
<path style="fill: none; stroke: #000000; stroke-width: 0.500000; stroke-linejoin: miter; stroke-linecap: butt;  opacity: 1.000000"  d="M 73.125000,255.780000 L 78.125000,255.780000"/>
<path style="fill: none; stroke: #000000; stroke-width: 0.500000; stroke-linejoin: miter; stroke-linecap: butt;  opacity: 1.000000"  d="M 521.500000,255.780000 L 526.500000,255.780000"/>
<text style="font-size: 9.996000; font-family: Bitstream Vera Serif; font-style: Roman; fill: #000000;" x="56.125000" y="259.280000" >0.4</text>
</g>
<g id="ytick4">
<path style="fill: none; stroke: #000000; stroke-width: 0.500000; stroke-linejoin: miter; stroke-linecap: butt;  opacity: 1.000000"  d="M 73.125000,185.220000 L 78.125000,185.220000"/>
<path style="fill: none; stroke: #000000; stroke-width: 0.500000; stroke-linejoin: miter; stroke-linecap: butt;  opacity: 1.000000"  d="M 521.500000,185.220000 L 526.500000,185.220000"/>
<text style="font-size: 9.996000; font-family: Bitstream Vera Serif; font-style: Roman; fill: #000000;" x="56.125000" y="188.720000" >0.6</text>
</g>
<g id="ytick5">
<path style="fill: none; stroke: #000000; stroke-width: 0.500000; stroke-linejoin: miter; stroke-linecap: butt;  opacity: 1.000000"  d="M 73.125000,114.660000 L 78.125000,114.660000"/>
<path style="fill: none; stroke: #000000; stroke-width: 0.500000; stroke-linejoin: miter; stroke-linecap: butt;  opacity: 1.000000"  d="M 521.500000,114.660000 L 526.500000,114.660000"/>
<text style="font-size: 9.996000; font-family: Bitstream Vera Serif; font-style: Roman; fill: #000000;" x="56.125000" y="118.160000" >0.8</text>
</g>
<g id="ytick6">
<text style="font-size: 9.996000; font-family: Bitstream Vera Serif; font-style: Roman; fill: #000000;" x="57.125000" y="47.600000" >1.0</text>
</g>
<g id="mathtext1">
<text style="font-size: 8.400000; font-family: cmr10; fill: #000000;" x="55.125000" y="216.351562" transform="translate(51.125000,224.851562) rotate(-90.0) translate(-51.125000,-224.851562)">2</text>
<text style="font-size: 12.000000; font-family: cmmi10; fill: #000000;" x="51.125000" y="213.351562" transform="translate(51.125000,224.851562) rotate(-90.0) translate(-51.125000,-224.851562)">r</text>
</g>
</g>
<path style="fill: none; stroke: #000000; stroke-width: 1.000000; stroke-linejoin: miter; stroke-linecap: square;  opacity: 1.000000"  d="M 73.125000,396.900000 L 526.500000,396.900000 L 526.500000,44.100000 L 73.125000,44.100000 L 73.125000,396.900000 "/>
<text style="font-size: 14.400000; font-family: Bitstream Vera Serif; font-style: Roman; fill: #000000;" x="267.312500" y="37.044000" >LD decay</text>
</g>
</g>
</svg>
