<?xml version="1.0" standalone="no"?>
<!DOCTYPE svg PUBLIC "-//W3C//DTD SVG 1.1//EN"
  "http://www.w3.org/Graphics/SVG/1.1/DTD/svg11.dtd">
<!-- Created with matplotlib (http://matplotlib.sourceforge.net/) -->
<svg width="585" height="441" viewBox="0 0 585 441"
   xmlns="http://www.w3.org/2000/svg"
   xmlns:xlink="http://www.w3.org/1999/xlink"
   version="1.1"
   id="svg1">
<g id="figure1">
<polygon style="fill: #ffffff; stroke: #ffffff; stroke-width: 1.000000; stroke-linejoin: miter; stroke-linecap: square;  opacity: 1.000000"  points = "0.000000,441.000000 0.000000,0.000000 585.000000,0.000000 585.000000,441.000000"/>
<g id="axes1">
<polygon style="fill: #ffffff; stroke: #000000; stroke-width: 1.000000; stroke-linejoin: miter; stroke-linecap: square;  opacity: 1.000000"  points = "73.125000,396.900000 73.125000,44.100000 526.500000,44.100000 526.500000,396.900000"/>
<defs>
    <clipPath id="7240474723315632415">
    <rect x="73.125000" y="44.100000" width="453.375000" height="352.800000"
    style="stroke: gray; fill: none;"/>
    </clipPath>
</defs>
<polygon style="fill: #0000ff; opacity: 1.000000" clip-path="url(#7240474723315632415)" points = "73.901631,63.512374 72.335631,64.412374 72.335631,66.212374 73.901631,67.112374 75.467631,66.212374 75.467631,64.412374"/>
<polygon style="fill: #0000ff; opacity: 1.000000" clip-path="url(#7240474723315632415)" points = "75.174255,207.175740 73.608255,208.075740 73.608255,209.875740 75.174255,210.775740 76.740255,209.875740 76.740255,208.075740"/>
<polygon style="fill: #0000ff; opacity: 1.000000" clip-path="url(#7240474723315632415)" points = "79.132219,227.720538 77.566219,228.620538 77.566219,230.420538 79.132219,231.320538 80.698219,230.420538 80.698219,228.620538"/>
<polygon style="fill: #0000ff; opacity: 1.000000" clip-path="url(#7240474723315632415)" points = "90.551375,178.463685 88.985375,179.363685 88.985375,181.163685 90.551375,182.063685 92.117375,181.163685 92.117375,179.363685"/>
<polygon style="fill: #0000ff; opacity: 1.000000" clip-path="url(#7240474723315632415)" points = "95.364404,317.004640 93.798404,317.904640 93.798404,319.704640 95.364404,320.604640 96.930404,319.704640 96.930404,317.904640"/>
<polygon style="fill: #0000ff; opacity: 1.000000" clip-path="url(#7240474723315632415)" points = "104.212470,318.916908 102.646470,319.816908 102.646470,321.616908 104.212470,322.516908 105.778470,321.616908 105.778470,319.816908"/>
<polygon style="fill: #0000ff; opacity: 1.000000" clip-path="url(#7240474723315632415)" points = "107.541150,237.805481 105.975150,238.705481 105.975150,240.505481 107.541150,241.405481 109.107150,240.505481 109.107150,238.705481"/>
<polygon style="fill: #0000ff; opacity: 1.000000" clip-path="url(#7240474723315632415)" points = "114.616067,273.718834 113.050066,274.618834 113.050066,276.418834 114.616067,277.318834 116.182067,276.418834 116.182067,274.618834"/>
<polygon style="fill: #0000ff; opacity: 1.000000" clip-path="url(#7240474723315632415)" points = "121.569479,324.797940 120.003479,325.697940 120.003479,327.497940 121.569479,328.397940 123.135479,327.497940 123.135479,325.697940"/>
<polygon style="fill: #0000ff; opacity: 1.000000" clip-path="url(#7240474723315632415)" points = "122.579145,214.802088 121.013145,215.702088 121.013145,217.502088 122.579145,218.402088 124.145145,217.502088 124.145145,215.702088"/>
<polygon style="fill: #0000ff; opacity: 1.000000" clip-path="url(#7240474723315632415)" points = "139.839585,243.578408 138.273585,244.478408 138.273585,246.278408 139.839585,247.178408 141.405585,246.278408 141.405585,244.478408"/>
<polygon style="fill: #0000ff; opacity: 1.000000" clip-path="url(#7240474723315632415)" points = "142.816445,186.901459 141.250445,187.801459 141.250445,189.601459 142.816445,190.501459 144.382445,189.601459 144.382445,187.801459"/>
<polygon style="fill: #0000ff; opacity: 1.000000" clip-path="url(#7240474723315632415)" points = "143.808883,185.536466 142.242883,186.436466 142.242883,188.236466 143.808883,189.136466 145.374883,188.236466 145.374883,186.436466"/>
<polygon style="fill: #0000ff; opacity: 1.000000" clip-path="url(#7240474723315632415)" points = "145.283258,269.336902 143.717258,270.236902 143.717258,272.036902 145.283258,272.936902 146.849258,272.036902 146.849258,270.236902"/>
<polygon style="fill: #0000ff; opacity: 1.000000" clip-path="url(#7240474723315632415)" points = "147.172019,275.125874 145.606019,276.025874 145.606019,277.825874 147.172019,278.725874 148.738019,277.825874 148.738019,276.025874"/>
<polygon style="fill: #0000ff; opacity: 1.000000" clip-path="url(#7240474723315632415)" points = "147.332513,235.751033 145.766513,236.651033 145.766513,238.451033 147.332513,239.351033 148.898513,238.451033 148.898513,236.651033"/>
<polygon style="fill: #0000ff; opacity: 1.000000" clip-path="url(#7240474723315632415)" points = "147.695213,299.106815 146.129213,300.006815 146.129213,301.806815 147.695213,302.706815 149.261213,301.806815 149.261213,300.006815"/>
<polygon style="fill: #0000ff; opacity: 1.000000" clip-path="url(#7240474723315632415)" points = "150.467601,157.620238 148.901601,158.520238 148.901601,160.320238 150.467601,161.220238 152.033601,160.320238 152.033601,158.520238"/>
<polygon style="fill: #0000ff; opacity: 1.000000" clip-path="url(#7240474723315632415)" points = "151.509910,144.343591 149.943910,145.243591 149.943910,147.043591 151.509910,147.943591 153.075910,147.043591 153.075910,145.243591"/>
<polygon style="fill: #0000ff; opacity: 1.000000" clip-path="url(#7240474723315632415)" points = "151.524872,280.990862 149.958872,281.890862 149.958872,283.690862 151.524872,284.590862 153.090872,283.690862 153.090872,281.890862"/>
<polygon style="fill: #0000ff; opacity: 1.000000" clip-path="url(#7240474723315632415)" points = "153.538764,203.832343 151.972764,204.732343 151.972764,206.532343 153.538764,207.432343 155.104764,206.532343 155.104764,204.732343"/>
<polygon style="fill: #0000ff; opacity: 1.000000" clip-path="url(#7240474723315632415)" points = "153.985791,295.151446 152.419791,296.051446 152.419791,297.851446 153.985791,298.751446 155.551791,297.851446 155.551791,296.051446"/>
<polygon style="fill: #0000ff; opacity: 1.000000" clip-path="url(#7240474723315632415)" points = "156.914141,253.491013 155.348140,254.391013 155.348140,256.191013 156.914141,257.091013 158.480141,256.191013 158.480141,254.391013"/>
<polygon style="fill: #0000ff; opacity: 1.000000" clip-path="url(#7240474723315632415)" points = "160.978647,213.981522 159.412647,214.881522 159.412647,216.681522 160.978647,217.581522 162.544647,216.681522 162.544647,214.881522"/>
<polygon style="fill: #0000ff; opacity: 1.000000" clip-path="url(#7240474723315632415)" points = "161.468292,202.360353 159.902292,203.260353 159.902292,205.060353 161.468292,205.960353 163.034292,205.060353 163.034292,203.260353"/>
<polygon style="fill: #0000ff; opacity: 1.000000" clip-path="url(#7240474723315632415)" points = "163.228747,309.506071 161.662747,310.406071 161.662747,312.206071 163.228747,313.106071 164.794747,312.206071 164.794747,310.406071"/>
<polygon style="fill: #0000ff; opacity: 1.000000" clip-path="url(#7240474723315632415)" points = "164.824174,290.980794 163.258174,291.880794 163.258174,293.680794 164.824174,294.580794 166.390174,293.680794 166.390174,291.880794"/>
<polygon style="fill: #0000ff; opacity: 1.000000" clip-path="url(#7240474723315632415)" points = "169.779110,228.592084 168.213110,229.492084 168.213110,231.292084 169.779110,232.192084 171.345110,231.292084 171.345110,229.492084"/>
<polygon style="fill: #0000ff; opacity: 1.000000" clip-path="url(#7240474723315632415)" points = "173.359412,269.995603 171.793412,270.895603 171.793412,272.695603 173.359412,273.595603 174.925412,272.695603 174.925412,270.895603"/>
<polygon style="fill: #0000ff; opacity: 1.000000" clip-path="url(#7240474723315632415)" points = "175.578683,296.878293 174.012683,297.778293 174.012683,299.578293 175.578683,300.478293 177.144683,299.578293 177.144683,297.778293"/>
<polygon style="fill: #0000ff; opacity: 1.000000" clip-path="url(#7240474723315632415)" points = "176.450523,330.222638 174.884523,331.122638 174.884523,332.922638 176.450523,333.822638 178.016523,332.922638 178.016523,331.122638"/>
<polygon style="fill: #0000ff; opacity: 1.000000" clip-path="url(#7240474723315632415)" points = "181.585901,249.177755 180.019901,250.077755 180.019901,251.877755 181.585901,252.777755 183.151901,251.877755 183.151901,250.077755"/>
<polygon style="fill: #0000ff; opacity: 1.000000" clip-path="url(#7240474723315632415)" points = "184.959465,148.712780 183.393465,149.612780 183.393465,151.412780 184.959465,152.312780 186.525465,151.412780 186.525465,149.612780"/>
<polygon style="fill: #0000ff; opacity: 1.000000" clip-path="url(#7240474723315632415)" points = "188.077325,152.010259 186.511325,152.910259 186.511325,154.710259 188.077325,155.610259 189.643325,154.710259 189.643325,152.910259"/>
<polygon style="fill: #0000ff; opacity: 1.000000" clip-path="url(#7240474723315632415)" points = "188.260941,180.813398 186.694941,181.713398 186.694941,183.513398 188.260941,184.413398 189.826941,183.513398 189.826941,181.713398"/>
<polygon style="fill: #0000ff; opacity: 1.000000" clip-path="url(#7240474723315632415)" points = "190.556832,303.199383 188.990832,304.099383 188.990832,305.899383 190.556832,306.799383 192.122832,305.899383 192.122832,304.099383"/>
<polygon style="fill: #0000ff; opacity: 1.000000" clip-path="url(#7240474723315632415)" points = "192.832775,288.483239 191.266775,289.383239 191.266775,291.183239 192.832775,292.083239 194.398775,291.183239 194.398775,289.383239"/>
<polygon style="fill: #0000ff; opacity: 1.000000" clip-path="url(#7240474723315632415)" points = "195.512675,259.390250 193.946675,260.290250 193.946675,262.090250 195.512675,262.990250 197.078675,262.090250 197.078675,260.290250"/>
<polygon style="fill: #0000ff; opacity: 1.000000" clip-path="url(#7240474723315632415)" points = "197.912388,218.052758 196.346388,218.952758 196.346388,220.752758 197.912388,221.652758 199.478388,220.752758 199.478388,218.952758"/>
<polygon style="fill: #0000ff; opacity: 1.000000" clip-path="url(#7240474723315632415)" points = "201.094628,278.469000 199.528627,279.369000 199.528627,281.169000 201.094628,282.069000 202.660628,281.169000 202.660628,279.369000"/>
<polygon style="fill: #0000ff; opacity: 1.000000" clip-path="url(#7240474723315632415)" points = "201.987323,207.256550 200.421323,208.156550 200.421323,209.956550 201.987323,210.856550 203.553323,209.956550 203.553323,208.156550"/>
<polygon style="fill: #0000ff; opacity: 1.000000" clip-path="url(#7240474723315632415)" points = "206.363752,216.054754 204.797752,216.954754 204.797752,218.754754 206.363752,219.654754 207.929752,218.754754 207.929752,216.954754"/>
<polygon style="fill: #0000ff; opacity: 1.000000" clip-path="url(#7240474723315632415)" points = "207.473160,321.536796 205.907160,322.436796 205.907160,324.236796 207.473160,325.136796 209.039160,324.236796 209.039160,322.436796"/>
<polygon style="fill: #0000ff; opacity: 1.000000" clip-path="url(#7240474723315632415)" points = "207.580157,265.415518 206.014157,266.315518 206.014157,268.115518 207.580157,269.015518 209.146157,268.115518 209.146157,266.315518"/>
<polygon style="fill: #0000ff; opacity: 1.000000" clip-path="url(#7240474723315632415)" points = "208.300116,184.243990 206.734116,185.143990 206.734116,186.943990 208.300116,187.843990 209.866116,186.943990 209.866116,185.143990"/>
<polygon style="fill: #0000ff; opacity: 1.000000" clip-path="url(#7240474723315632415)" points = "210.432792,311.081871 208.866792,311.981871 208.866792,313.781871 210.432792,314.681871 211.998792,313.781871 211.998792,311.981871"/>
<polygon style="fill: #0000ff; opacity: 1.000000" clip-path="url(#7240474723315632415)" points = "215.207285,253.242193 213.641285,254.142193 213.641285,255.942193 215.207285,256.842193 216.773285,255.942193 216.773285,254.142193"/>
<polygon style="fill: #0000ff; opacity: 1.000000" clip-path="url(#7240474723315632415)" points = "215.290706,291.138674 213.724705,292.038674 213.724705,293.838674 215.290706,294.738674 216.856706,293.838674 216.856706,292.038674"/>
<polygon style="fill: #0000ff; opacity: 1.000000" clip-path="url(#7240474723315632415)" points = "222.052794,313.511264 220.486794,314.411264 220.486794,316.211264 222.052794,317.111264 223.618794,316.211264 223.618794,314.411264"/>
<polygon style="fill: #0000ff; opacity: 1.000000" clip-path="url(#7240474723315632415)" points = "228.046411,304.880289 226.480411,305.780289 226.480411,307.580289 228.046411,308.480289 229.612411,307.580289 229.612411,305.780289"/>
<polygon style="fill: #0000ff; opacity: 1.000000" clip-path="url(#7240474723315632415)" points = "232.047899,221.786905 230.481899,222.686905 230.481899,224.486905 232.047899,225.386905 233.613899,224.486905 233.613899,222.686905"/>
<polygon style="fill: #0000ff; opacity: 1.000000" clip-path="url(#7240474723315632415)" points = "239.394387,209.756215 237.828387,210.656215 237.828387,212.456215 239.394387,213.356215 240.960387,212.456215 240.960387,210.656215"/>
<polygon style="fill: #0000ff; opacity: 1.000000" clip-path="url(#7240474723315632415)" points = "242.716266,188.268814 241.150266,189.168814 241.150266,190.968814 242.716266,191.868814 244.282266,190.968814 244.282266,189.168814"/>
<polygon style="fill: #0000ff; opacity: 1.000000" clip-path="url(#7240474723315632415)" points = "251.267372,287.446187 249.701372,288.346187 249.701372,290.146187 251.267372,291.046187 252.833372,290.146187 252.833372,288.346187"/>
<polygon style="fill: #0000ff; opacity: 1.000000" clip-path="url(#7240474723315632415)" points = "253.110795,183.866323 251.544795,184.766323 251.544795,186.566323 253.110795,187.466323 254.676795,186.566323 254.676795,184.766323"/>
<polygon style="fill: #0000ff; opacity: 1.000000" clip-path="url(#7240474723315632415)" points = "254.220203,232.464383 252.654203,233.364383 252.654203,235.164383 254.220203,236.064383 255.786203,235.164383 255.786203,233.364383"/>
<polygon style="fill: #0000ff; opacity: 1.000000" clip-path="url(#7240474723315632415)" points = "254.752465,318.602707 253.186465,319.502707 253.186465,321.302707 254.752465,322.202707 256.318466,321.302707 256.318466,319.502707"/>
<polygon style="fill: #0000ff; opacity: 1.000000" clip-path="url(#7240474723315632415)" points = "256.573673,141.920286 255.007673,142.820286 255.007673,144.620286 256.573673,145.520286 258.139673,144.620286 258.139673,142.820286"/>
<polygon style="fill: #0000ff; opacity: 1.000000" clip-path="url(#7240474723315632415)" points = "262.168320,315.537215 260.602320,316.437215 260.602320,318.237215 262.168320,319.137215 263.734320,318.237215 263.734320,316.437215"/>
<polygon style="fill: #0000ff; opacity: 1.000000" clip-path="url(#7240474723315632415)" points = "263.242819,238.929863 261.676819,239.829863 261.676819,241.629863 263.242819,242.529863 264.808819,241.629863 264.808819,239.829863"/>
<polygon style="fill: #0000ff; opacity: 1.000000" clip-path="url(#7240474723315632415)" points = "264.626973,268.543394 263.060973,269.443394 263.060973,271.243394 264.626973,272.143394 266.192973,271.243394 266.192973,269.443394"/>
<polygon style="fill: #0000ff; opacity: 1.000000" clip-path="url(#7240474723315632415)" points = "271.678768,221.040884 270.112768,221.940884 270.112768,223.740884 271.678768,224.640884 273.244768,223.740884 273.244768,221.940884"/>
<polygon style="fill: #0000ff; opacity: 1.000000" clip-path="url(#7240474723315632415)" points = "271.715491,213.160689 270.149491,214.060689 270.149491,215.860689 271.715491,216.760689 273.281491,215.860689 273.281491,214.060689"/>
<polygon style="fill: #0000ff; opacity: 1.000000" clip-path="url(#7240474723315632415)" points = "272.178840,254.371239 270.612840,255.271239 270.612840,257.071239 272.178840,257.971239 273.744840,257.071239 273.744840,255.271239"/>
<polygon style="fill: #0000ff; opacity: 1.000000" clip-path="url(#7240474723315632415)" points = "273.078336,183.365975 271.512336,184.265975 271.512336,186.065975 273.078336,186.965975 274.644336,186.065975 274.644336,184.265975"/>
<polygon style="fill: #0000ff; opacity: 1.000000" clip-path="url(#7240474723315632415)" points = "278.438589,162.959757 276.872589,163.859757 276.872589,165.659757 278.438589,166.559757 280.004589,165.659757 280.004589,163.859757"/>
<polygon style="fill: #0000ff; opacity: 1.000000" clip-path="url(#7240474723315632415)" points = "280.638364,193.184079 279.072364,194.084079 279.072364,195.884079 280.638364,196.784079 282.204364,195.884079 282.204364,194.084079"/>
<polygon style="fill: #0000ff; opacity: 1.000000" clip-path="url(#7240474723315632415)" points = "286.007231,249.039000 284.441231,249.939000 284.441231,251.739000 286.007231,252.639000 287.573231,251.739000 287.573231,249.939000"/>
<polygon style="fill: #0000ff; opacity: 1.000000" clip-path="url(#7240474723315632415)" points = "291.203362,279.999414 289.637362,280.899414 289.637362,282.699414 291.203362,283.599414 292.769362,282.699414 292.769362,280.899414"/>
<polygon style="fill: #0000ff; opacity: 1.000000" clip-path="url(#7240474723315632415)" points = "299.053550,225.582636 297.487550,226.482636 297.487550,228.282636 299.053550,229.182636 300.619550,228.282636 300.619550,226.482636"/>
<polygon style="fill: #0000ff; opacity: 1.000000" clip-path="url(#7240474723315632415)" points = "300.462186,258.383669 298.896186,259.283669 298.896186,261.083669 300.462186,261.983669 302.028186,261.083669 302.028186,259.283669"/>
<polygon style="fill: #0000ff; opacity: 1.000000" clip-path="url(#7240474723315632415)" points = "301.630080,256.800111 300.064080,257.700111 300.064080,259.500111 301.630080,260.400111 303.196080,259.500111 303.196080,257.700111"/>
<polygon style="fill: #0000ff; opacity: 1.000000" clip-path="url(#7240474723315632415)" points = "302.554512,223.139858 300.988512,224.039858 300.988512,225.839858 302.554512,226.739858 304.120512,225.839858 304.120512,224.039858"/>
<polygon style="fill: #0000ff; opacity: 1.000000" clip-path="url(#7240474723315632415)" points = "302.564940,274.626038 300.998940,275.526038 300.998940,277.326038 302.564940,278.226038 304.130940,277.326038 304.130940,275.526038"/>
<polygon style="fill: #0000ff; opacity: 1.000000" clip-path="url(#7240474723315632415)" points = "303.167928,277.857716 301.601928,278.757716 301.601928,280.557716 303.167928,281.457716 304.733928,280.557716 304.733928,278.757716"/>
<polygon style="fill: #0000ff; opacity: 1.000000" clip-path="url(#7240474723315632415)" points = "305.060769,192.890298 303.494769,193.790298 303.494769,195.590298 305.060769,196.490298 306.626769,195.590298 306.626769,193.790298"/>
<polygon style="fill: #0000ff; opacity: 1.000000" clip-path="url(#7240474723315632415)" points = "307.259184,174.484716 305.693184,175.384716 305.693184,177.184716 307.259184,178.084716 308.825184,177.184716 308.825184,175.384716"/>
<polygon style="fill: #0000ff; opacity: 1.000000" clip-path="url(#7240474723315632415)" points = "310.464999,297.550249 308.898999,298.450249 308.898999,300.250249 310.464999,301.150249 312.030999,300.250249 312.030999,298.450249"/>
<polygon style="fill: #0000ff; opacity: 1.000000" clip-path="url(#7240474723315632415)" points = "320.148182,324.534191 318.582182,325.434191 318.582182,327.234191 320.148182,328.134191 321.714182,327.234191 321.714182,325.434191"/>
<polygon style="fill: #0000ff; opacity: 1.000000" clip-path="url(#7240474723315632415)" points = "323.689494,241.496503 322.123494,242.396503 322.123494,244.196503 323.689494,245.096503 325.255494,244.196503 325.255494,242.396503"/>
<polygon style="fill: #0000ff; opacity: 1.000000" clip-path="url(#7240474723315632415)" points = "326.883068,346.504325 325.317068,347.404325 325.317068,349.204325 326.883068,350.104325 328.449068,349.204325 328.449068,347.404325"/>
<polygon style="fill: #0000ff; opacity: 1.000000" clip-path="url(#7240474723315632415)" points = "327.253475,231.640614 325.687475,232.540614 325.687475,234.340614 327.253475,235.240614 328.819475,234.340614 328.819475,232.540614"/>
<polygon style="fill: #0000ff; opacity: 1.000000" clip-path="url(#7240474723315632415)" points = "328.799484,281.486525 327.233484,282.386525 327.233484,284.186525 328.799484,285.086525 330.365484,284.186525 330.365484,282.386525"/>
<polygon style="fill: #0000ff; opacity: 1.000000" clip-path="url(#7240474723315632415)" points = "329.246965,289.697335 327.680965,290.597335 327.680965,292.397335 329.246965,293.297335 330.812965,292.397335 330.812965,290.597335"/>
<polygon style="fill: #0000ff; opacity: 1.000000" clip-path="url(#7240474723315632415)" points = "329.667244,202.741030 328.101244,203.641030 328.101244,205.441030 329.667244,206.341030 331.233244,205.441030 331.233244,203.641030"/>
<polygon style="fill: #0000ff; opacity: 1.000000" clip-path="url(#7240474723315632415)" points = "331.786318,286.575020 330.220319,287.475020 330.220319,289.275020 331.786318,290.175020 333.352318,289.275020 333.352318,287.475020"/>
<polygon style="fill: #0000ff; opacity: 1.000000" clip-path="url(#7240474723315632415)" points = "332.021620,309.513346 330.455620,310.413346 330.455620,312.213346 332.021620,313.113346 333.587620,312.213346 333.587620,310.413346"/>
<polygon style="fill: #0000ff; opacity: 1.000000" clip-path="url(#7240474723315632415)" points = "333.034006,222.487740 331.468007,223.387740 331.468007,225.187740 333.034006,226.087740 334.600006,225.187740 334.600006,223.387740"/>
<polygon style="fill: #0000ff; opacity: 1.000000" clip-path="url(#7240474723315632415)" points = "339.484626,159.632714 337.918626,160.532714 337.918626,162.332714 339.484626,163.232714 341.050626,162.332714 341.050626,160.532714"/>
<polygon style="fill: #0000ff; opacity: 1.000000" clip-path="url(#7240474723315632415)" points = "339.880876,313.107836 338.314876,314.007836 338.314876,315.807836 339.880876,316.707836 341.446876,315.807836 341.446876,314.007836"/>
<polygon style="fill: #0000ff; opacity: 1.000000" clip-path="url(#7240474723315632415)" points = "345.546703,226.658691 343.980703,227.558691 343.980703,229.358691 345.546703,230.258691 347.112703,229.358691 347.112703,227.558691"/>
<polygon style="fill: #0000ff; opacity: 1.000000" clip-path="url(#7240474723315632415)" points = "346.225859,326.059790 344.659859,326.959790 344.659859,328.759790 346.225859,329.659790 347.791859,328.759790 347.791859,326.959790"/>
<polygon style="fill: #0000ff; opacity: 1.000000" clip-path="url(#7240474723315632415)" points = "347.989034,210.570469 346.423034,211.470469 346.423034,213.270469 347.989034,214.170469 349.555034,213.270469 349.555034,211.470469"/>
<polygon style="fill: #0000ff; opacity: 1.000000" clip-path="url(#7240474723315632415)" points = "348.765666,200.584103 347.199666,201.484103 347.199666,203.284103 348.765666,204.184103 350.331666,203.284103 350.331666,201.484103"/>
<polygon style="fill: #0000ff; opacity: 1.000000" clip-path="url(#7240474723315632415)" points = "349.122472,199.682518 347.556472,200.582518 347.556472,202.382518 349.122472,203.282518 350.688472,202.382518 350.688472,200.582518"/>
<polygon style="fill: #0000ff; opacity: 1.000000" clip-path="url(#7240474723315632415)" points = "349.183677,266.869432 347.617677,267.769432 347.617677,269.569432 349.183677,270.469432 350.749677,269.569432 350.749677,267.769432"/>
<polygon style="fill: #0000ff; opacity: 1.000000" clip-path="url(#7240474723315632415)" points = "349.304275,236.737606 347.738275,237.637606 347.738275,239.437606 349.304275,240.337606 350.870275,239.437606 350.870275,237.637606"/>
<polygon style="fill: #0000ff; opacity: 1.000000" clip-path="url(#7240474723315632415)" points = "360.334435,172.418549 358.768436,173.318549 358.768436,175.118549 360.334435,176.018549 361.900435,175.118549 361.900435,173.318549"/>
<polygon style="fill: #0000ff; opacity: 1.000000" clip-path="url(#7240474723315632415)" points = "364.355418,288.075801 362.789418,288.975801 362.789418,290.775801 364.355418,291.675801 365.921418,290.775801 365.921418,288.975801"/>
<polygon style="fill: #0000ff; opacity: 1.000000" clip-path="url(#7240474723315632415)" points = "368.981203,289.519837 367.415204,290.419837 367.415204,292.219837 368.981203,293.119837 370.547203,292.219837 370.547203,290.419837"/>
<polygon style="fill: #0000ff; opacity: 1.000000" clip-path="url(#7240474723315632415)" points = "371.709614,201.736215 370.143614,202.636215 370.143614,204.436215 371.709614,205.336215 373.275614,204.436215 373.275614,202.636215"/>
<polygon style="fill: #0000ff; opacity: 1.000000" clip-path="url(#7240474723315632415)" points = "375.405981,183.402588 373.839981,184.302588 373.839981,186.102588 375.405981,187.002588 376.971981,186.102588 376.971981,184.302588"/>
<polygon style="fill: #0000ff; opacity: 1.000000" clip-path="url(#7240474723315632415)" points = "379.914342,277.401784 378.348342,278.301784 378.348342,280.101784 379.914342,281.001784 381.480342,280.101784 381.480342,278.301784"/>
<polygon style="fill: #0000ff; opacity: 1.000000" clip-path="url(#7240474723315632415)" points = "380.939422,243.282075 379.373423,244.182075 379.373423,245.982075 380.939422,246.882075 382.505422,245.982075 382.505422,244.182075"/>
<polygon style="fill: #0000ff; opacity: 1.000000" clip-path="url(#7240474723315632415)" points = "380.975692,302.448291 379.409693,303.348291 379.409693,305.148291 380.975692,306.048291 382.541692,305.148291 382.541692,303.348291"/>
<polygon style="fill: #0000ff; opacity: 1.000000" clip-path="url(#7240474723315632415)" points = "381.107625,158.119948 379.541625,159.019948 379.541625,160.819948 381.107625,161.719948 382.673625,160.819948 382.673625,159.019948"/>
<polygon style="fill: #0000ff; opacity: 1.000000" clip-path="url(#7240474723315632415)" points = "385.921560,169.076966 384.355560,169.976966 384.355560,171.776966 385.921560,172.676966 387.487560,171.776966 387.487560,169.976966"/>
<polygon style="fill: #0000ff; opacity: 1.000000" clip-path="url(#7240474723315632415)" points = "388.494010,205.269804 386.928010,206.169804 386.928010,207.969804 388.494010,208.869804 390.060010,207.969804 390.060010,206.169804"/>
<polygon style="fill: #0000ff; opacity: 1.000000" clip-path="url(#7240474723315632415)" points = "390.418587,307.549670 388.852587,308.449670 388.852587,310.249670 390.418587,311.149670 391.984587,310.249670 391.984587,308.449670"/>
<polygon style="fill: #0000ff; opacity: 1.000000" clip-path="url(#7240474723315632415)" points = "391.220607,207.733253 389.654607,208.633253 389.654607,210.433253 391.220607,211.333253 392.786607,210.433253 392.786607,208.633253"/>
<polygon style="fill: #0000ff; opacity: 1.000000" clip-path="url(#7240474723315632415)" points = "391.423266,280.498795 389.857266,281.398795 389.857266,283.198795 391.423266,284.098795 392.989266,283.198795 392.989266,281.398795"/>
<polygon style="fill: #0000ff; opacity: 1.000000" clip-path="url(#7240474723315632415)" points = "391.733828,191.386311 390.167828,192.286311 390.167828,194.086311 391.733828,194.986311 393.299828,194.086311 393.299828,192.286311"/>
<polygon style="fill: #0000ff; opacity: 1.000000" clip-path="url(#7240474723315632415)" points = "397.865725,266.082684 396.299725,266.982684 396.299725,268.782684 397.865725,269.682684 399.431725,268.782684 399.431725,266.982684"/>
<polygon style="fill: #0000ff; opacity: 1.000000" clip-path="url(#7240474723315632415)" points = "398.244746,244.847919 396.678746,245.747919 396.678746,247.547919 398.244746,248.447919 399.810746,247.547919 399.810746,245.747919"/>
<polygon style="fill: #0000ff; opacity: 1.000000" clip-path="url(#7240474723315632415)" points = "403.274942,192.431967 401.708942,193.331967 401.708942,195.131967 403.274942,196.031967 404.840942,195.131967 404.840942,193.331967"/>
<polygon style="fill: #0000ff; opacity: 1.000000" clip-path="url(#7240474723315632415)" points = "406.068639,185.672033 404.502639,186.572033 404.502639,188.372033 406.068639,189.272033 407.634639,188.372033 407.634639,186.572033"/>
<polygon style="fill: #0000ff; opacity: 1.000000" clip-path="url(#7240474723315632415)" points = "407.514452,207.886401 405.948452,208.786401 405.948452,210.586401 407.514452,211.486401 409.080451,210.586401 409.080451,208.786401"/>
<polygon style="fill: #0000ff; opacity: 1.000000" clip-path="url(#7240474723315632415)" points = "407.844962,197.141646 406.278962,198.041646 406.278962,199.841646 407.844962,200.741646 409.410962,199.841646 409.410962,198.041646"/>
<polygon style="fill: #0000ff; opacity: 1.000000" clip-path="url(#7240474723315632415)" points = "407.981428,196.217280 406.415428,197.117280 406.415428,198.917280 407.981428,199.817280 409.547428,198.917280 409.547428,197.117280"/>
<polygon style="fill: #0000ff; opacity: 1.000000" clip-path="url(#7240474723315632415)" points = "416.131297,226.224059 414.565297,227.124059 414.565297,228.924059 416.131297,229.824059 417.697297,228.924059 417.697297,227.124059"/>
<polygon style="fill: #0000ff; opacity: 1.000000" clip-path="url(#7240474723315632415)" points = "420.129611,250.531696 418.563611,251.431696 418.563611,253.231696 420.129611,254.131696 421.695611,253.231696 421.695611,251.431696"/>
<polygon style="fill: #0000ff; opacity: 1.000000" clip-path="url(#7240474723315632415)" points = "420.355392,274.375790 418.789392,275.275790 418.789392,277.075790 420.355392,277.975790 421.921392,277.075790 421.921392,275.275790"/>
<polygon style="fill: #0000ff; opacity: 1.000000" clip-path="url(#7240474723315632415)" points = "428.143014,205.793121 426.577014,206.693121 426.577014,208.493121 428.143014,209.393121 429.709014,208.493121 429.709014,206.693121"/>
<polygon style="fill: #0000ff; opacity: 1.000000" clip-path="url(#7240474723315632415)" points = "439.665086,323.215344 438.099086,324.115344 438.099086,325.915344 439.665086,326.815344 441.231086,325.915344 441.231086,324.115344"/>
<polygon style="fill: #0000ff; opacity: 1.000000" clip-path="url(#7240474723315632415)" points = "440.667045,285.086016 439.101045,285.986016 439.101045,287.786016 440.667045,288.686016 442.233045,287.786016 442.233045,285.986016"/>
<polygon style="fill: #0000ff; opacity: 1.000000" clip-path="url(#7240474723315632415)" points = "444.766008,264.350944 443.200008,265.250944 443.200008,267.050944 444.766008,267.950944 446.332008,267.050944 446.332008,265.250944"/>
<polygon style="fill: #0000ff; opacity: 1.000000" clip-path="url(#7240474723315632415)" points = "445.781115,297.562824 444.215115,298.462824 444.215115,300.262824 445.781115,301.162824 447.347115,300.262824 447.347115,298.462824"/>
<polygon style="fill: #0000ff; opacity: 1.000000" clip-path="url(#7240474723315632415)" points = "446.691492,266.539325 445.125492,267.439325 445.125492,269.239325 446.691492,270.139325 448.257492,269.239325 448.257492,267.439325"/>
<polygon style="fill: #0000ff; opacity: 1.000000" clip-path="url(#7240474723315632415)" points = "446.813903,234.626435 445.247903,235.526435 445.247903,237.326435 446.813903,238.226435 448.379903,237.326435 448.379903,235.526435"/>
<polygon style="fill: #0000ff; opacity: 1.000000" clip-path="url(#7240474723315632415)" points = "455.819744,171.832209 454.253744,172.732209 454.253744,174.532209 455.819744,175.432209 457.385744,174.532209 457.385744,172.732209"/>
<polygon style="fill: #0000ff; opacity: 1.000000" clip-path="url(#7240474723315632415)" points = "458.069844,228.079423 456.503844,228.979423 456.503844,230.779423 458.069844,231.679423 459.635844,230.779423 459.635844,228.979423"/>
<polygon style="fill: #0000ff; opacity: 1.000000" clip-path="url(#7240474723315632415)" points = "461.238029,170.925159 459.672029,171.825159 459.672029,173.625159 461.238029,174.525159 462.804029,173.625159 462.804029,171.825159"/>
<polygon style="fill: #0000ff; opacity: 1.000000" clip-path="url(#7240474723315632415)" points = "466.134479,169.507360 464.568479,170.407360 464.568479,172.207360 466.134479,173.107360 467.700479,172.207360 467.700479,170.407360"/>
<polygon style="fill: #0000ff; opacity: 1.000000" clip-path="url(#7240474723315632415)" points = "472.306726,228.110048 470.740726,229.010048 470.740726,230.810048 472.306726,231.710048 473.872726,230.810048 473.872726,229.010048"/>
<polygon style="fill: #0000ff; opacity: 1.000000" clip-path="url(#7240474723315632415)" points = "477.932657,294.915360 476.366657,295.815360 476.366657,297.615360 477.932657,298.515360 479.498656,297.615360 479.498656,295.815360"/>
<polygon style="fill: #0000ff; opacity: 1.000000" clip-path="url(#7240474723315632415)" points = "480.148753,240.346844 478.582754,241.246844 478.582754,243.046844 480.148753,243.946844 481.714753,243.046844 481.714753,241.246844"/>
<polygon style="fill: #0000ff; opacity: 1.000000" clip-path="url(#7240474723315632415)" points = "480.832896,170.619894 479.266896,171.519894 479.266896,173.319894 480.832896,174.219894 482.398896,173.319894 482.398896,171.519894"/>
<polygon style="fill: #0000ff; opacity: 1.000000" clip-path="url(#7240474723315632415)" points = "482.086932,193.234920 480.520932,194.134920 480.520932,195.934920 482.086932,196.834920 483.652932,195.934920 483.652932,194.134920"/>
<polygon style="fill: #0000ff; opacity: 1.000000" clip-path="url(#7240474723315632415)" points = "486.155972,287.450577 484.589972,288.350577 484.589972,290.150577 486.155972,291.050577 487.721972,290.150577 487.721972,288.350577"/>
<polygon style="fill: #0000ff; opacity: 1.000000" clip-path="url(#7240474723315632415)" points = "488.375243,207.453289 486.809243,208.353289 486.809243,210.153289 488.375243,211.053289 489.941243,210.153289 489.941243,208.353289"/>
<polygon style="fill: #0000ff; opacity: 1.000000" clip-path="url(#7240474723315632415)" points = "490.541922,284.649550 488.975922,285.549550 488.975922,287.349550 490.541922,288.249550 492.107922,287.349550 492.107922,285.549550"/>
<polygon style="fill: #0000ff; opacity: 1.000000" clip-path="url(#7240474723315632415)" points = "491.062396,320.401179 489.496397,321.301179 489.496397,323.101179 491.062396,324.001179 492.628396,323.101179 492.628396,321.301179"/>
<polygon style="fill: #0000ff; opacity: 1.000000" clip-path="url(#7240474723315632415)" points = "493.217741,281.874021 491.651741,282.774021 491.651741,284.574021 493.217741,285.474021 494.783741,284.574021 494.783741,282.774021"/>
<polygon style="fill: #0000ff; opacity: 1.000000" clip-path="url(#7240474723315632415)" points = "494.546130,288.650100 492.980130,289.550100 492.980130,291.350100 494.546130,292.250100 496.112130,291.350100 496.112130,289.550100"/>
<polygon style="fill: #0000ff; opacity: 1.000000" clip-path="url(#7240474723315632415)" points = "497.142155,238.346458 495.576155,239.246458 495.576155,241.046458 497.142155,241.946458 498.708155,241.046458 498.708155,239.246458"/>
<polygon style="fill: #0000ff; opacity: 1.000000" clip-path="url(#7240474723315632415)" points = "498.810575,230.666890 497.244575,231.566890 497.244575,233.366890 498.810575,234.266890 500.376575,233.366890 500.376575,231.566890"/>
<polygon style="fill: #0000ff; opacity: 1.000000" clip-path="url(#7240474723315632415)" points = "504.474589,217.790925 502.908589,218.690925 502.908589,220.490925 504.474589,221.390925 506.040589,220.490925 506.040589,218.690925"/>
<polygon style="fill: #0000ff; opacity: 1.000000" clip-path="url(#7240474723315632415)" points = "504.635537,141.434356 503.069537,142.334356 503.069537,144.134356 504.635537,145.034356 506.201537,144.134356 506.201537,142.334356"/>
<polygon style="fill: #0000ff; opacity: 1.000000" clip-path="url(#7240474723315632415)" points = "516.050160,256.038313 514.484160,256.938313 514.484160,258.738313 516.050160,259.638313 517.616160,258.738313 517.616160,256.938313"/>
<polygon style="fill: #0000ff; opacity: 1.000000" clip-path="url(#7240474723315632415)" points = "519.437324,202.809714 517.871324,203.709714 517.871324,205.509714 519.437324,206.409714 521.003324,205.509714 521.003324,203.709714"/>
<path style="fill: none; stroke: #008000; stroke-width: 0.500000; stroke-linejoin: miter; stroke-linecap: square;  opacity: 1.000000" clip-path="url(#7240474723315632415)" d="M 73.901631,214.415277 L 75.174255,215.140326 L 79.132219,217.340749 L 90.551375,223.236572 L 95.364404,225.525574 L 104.212470,229.440641 L 107.541150,230.817624 L 114.616067,233.575034 L 121.569479,236.066511 L 122.579145,236.410680 L 139.839585,241.630956 L 142.816445,242.408917 L 143.808883,242.660561 L 145.283258,243.027348 L 147.172019,243.484993 L 147.332513,243.523252 L 147.695213,243.609350 L 150.467601,244.251001 L 151.509910,244.484763 L 151.524872,244.488089 L 153.538764,244.928192 L 153.985791,245.023849 L 156.914141,245.632393 L 160.978647,246.425768 L 161.468292,246.517379 L 163.228747,246.839793 L 164.824174,247.122646 L 169.779110,247.945424 L 173.359412,248.488570 L 175.578683,248.804077 L 176.450523,248.923654 L 181.585901,249.578829 L 184.959465,249.964402 L 188.077325,250.289944 L 188.260941,250.308207 L 190.556832,250.528135 L 192.832775,250.730918 L 195.512675,250.950578 L 197.912388,251.130033 L 201.094628,251.343386 L 201.987323,251.398275 L 206.363752,251.636576 L 207.473160,251.688990 L 207.580157,251.693877 L 208.300116,251.725991 L 210.432792,251.813348 L 215.207285,251.967636 L 215.290706,251.969835 L 222.052794,252.093009 L 228.046411,252.114680 L 232.047899,252.085656 L 239.394387,251.946637 L 242.716266,251.849105 L 251.267372,251.505360 L 253.110795,251.414661 L 254.220203,251.357367 L 254.752465,251.329168 L 256.573673,251.229235 L 262.168320,250.890046 L 263.242819,250.819548 L 264.626973,250.726283 L 271.678768,250.210243 L 271.715491,250.207384 L 272.178840,250.171168 L 273.078336,250.100091 L 278.438589,249.656231 L 280.638364,249.464494 L 286.007231,248.974909 L 291.203362,248.474250 L 299.053550,247.674249 L 300.462186,247.525785 L 301.630080,247.401667 L 302.554512,247.302787 L 302.564940,247.301669 L 303.167928,247.236872 L 305.060769,247.032014 L 307.259184,246.791456 L 310.464999,246.436033 L 320.148182,245.335527 L 323.689494,244.925562 L 326.883068,244.553617 L 327.253475,244.510372 L 328.799484,244.329689 L 329.246965,244.277344 L 329.667244,244.228163 L 331.786318,243.979999 L 332.021620,243.952428 L 333.034006,243.833786 L 339.484626,243.078376 L 339.880876,243.032076 L 345.546703,242.372820 L 346.225859,242.294242 L 347.989034,242.090810 L 348.765666,242.001485 L 349.122472,241.960508 L 349.183677,241.953483 L 349.304275,241.939644 L 360.334435,240.698071 L 364.355418,240.260471 L 368.981203,239.769651 L 371.709614,239.487252 L 375.405981,239.113963 L 379.914342,238.674530 L 380.939422,238.577225 L 380.975692,238.573801 L 381.107625,238.561355 L 385.921560,238.119145 L 388.494010,237.892830 L 390.418587,237.728339 L 391.220607,237.661050 L 391.423266,237.644166 L 391.733828,237.618387 L 397.865725,237.133595 L 398.244746,237.105198 L 403.274942,236.746711 L 406.068639,236.562985 L 407.514452,236.472406 L 407.844962,236.452140 L 407.981428,236.443821 L 416.131297,236.000086 L 420.129611,235.822617 L 420.355392,235.813425 L 428.143014,235.553266 L 439.665086,235.385915 L 440.667045,235.384502 L 444.766008,235.401798 L 445.781115,235.411920 L 446.691492,235.423004 L 446.813903,235.424640 L 455.819744,235.642534 L 458.069844,235.728003 L 461.238029,235.870218 L 466.134479,236.141719 L 472.306726,236.576732 L 477.932657,237.067151 L 480.148753,237.285749 L 480.832896,237.356193 L 482.086932,237.488977 L 486.155972,237.952888 L 488.375243,238.227565 L 490.541922,238.510756 L 491.062396,238.581017 L 493.217741,238.881287 L 494.546130,239.073882 L 497.142155,239.467059 L 498.810575,239.731610 L 504.474589,240.700375 L 504.635537,240.729522 L 516.050160,243.032606 L 519.437324,243.808100 "/>
<g id="matplotlib.axis1">
<g id="xtick1">
<text style="font-size: 9.996000; font-family: Bitstream Vera Serif; font-style: Roman; fill: #000000;" x="66.125000" y="406.900000" >0.0</text>
</g>
<g id="xtick2">
<path style="fill: none; stroke: #000000; stroke-width: 0.500000; stroke-linejoin: miter; stroke-linecap: butt;  opacity: 1.000000"  d="M 163.800000,396.900000 L 163.800000,391.900000"/>
<path style="fill: none; stroke: #000000; stroke-width: 0.500000; stroke-linejoin: miter; stroke-linecap: butt;  opacity: 1.000000"  d="M 163.800000,49.100000 L 163.800000,44.100000"/>
<text style="font-size: 9.996000; font-family: Bitstream Vera Serif; font-style: Roman; fill: #000000;" x="156.800000" y="406.900000" >0.2</text>
</g>
<g id="xtick3">
<path style="fill: none; stroke: #000000; stroke-width: 0.500000; stroke-linejoin: miter; stroke-linecap: butt;  opacity: 1.000000"  d="M 254.475000,396.900000 L 254.475000,391.900000"/>
<path style="fill: none; stroke: #000000; stroke-width: 0.500000; stroke-linejoin: miter; stroke-linecap: butt;  opacity: 1.000000"  d="M 254.475000,49.100000 L 254.475000,44.100000"/>
<text style="font-size: 9.996000; font-family: Bitstream Vera Serif; font-style: Roman; fill: #000000;" x="247.475000" y="406.900000" >0.4</text>
</g>
<g id="xtick4">
<path style="fill: none; stroke: #000000; stroke-width: 0.500000; stroke-linejoin: miter; stroke-linecap: butt;  opacity: 1.000000"  d="M 345.150000,396.900000 L 345.150000,391.900000"/>
<path style="fill: none; stroke: #000000; stroke-width: 0.500000; stroke-linejoin: miter; stroke-linecap: butt;  opacity: 1.000000"  d="M 345.150000,49.100000 L 345.150000,44.100000"/>
<text style="font-size: 9.996000; font-family: Bitstream Vera Serif; font-style: Roman; fill: #000000;" x="338.150000" y="406.900000" >0.6</text>
</g>
<g id="xtick5">
<path style="fill: none; stroke: #000000; stroke-width: 0.500000; stroke-linejoin: miter; stroke-linecap: butt;  opacity: 1.000000"  d="M 435.825000,396.900000 L 435.825000,391.900000"/>
<path style="fill: none; stroke: #000000; stroke-width: 0.500000; stroke-linejoin: miter; stroke-linecap: butt;  opacity: 1.000000"  d="M 435.825000,49.100000 L 435.825000,44.100000"/>
<text style="font-size: 9.996000; font-family: Bitstream Vera Serif; font-style: Roman; fill: #000000;" x="428.825000" y="406.900000" >0.8</text>
</g>
<g id="xtick6">
<text style="font-size: 9.996000; font-family: Bitstream Vera Serif; font-style: Roman; fill: #000000;" x="520.000000" y="406.900000" >1.0</text>
</g>
<text style="font-size: 12.000000; font-family: Bitstream Vera Serif; font-style: Roman; fill: #000000;" x="273.812500" y="420.900000" >Distance</text>
<text style="font-size: 9.996000; font-family: Bitstream Vera Serif; font-style: Roman; fill: #000000;" x="495.500000" y="416.900000" >x1e+6</text>
</g>
<g id="matplotlib.axis2">
<g id="ytick1">
<text style="font-size: 9.996000; font-family: Bitstream Vera Serif; font-style: Roman; fill: #000000;" x="47.125000" y="400.400000" >-0.15</text>
</g>
<g id="ytick2">
<path style="fill: none; stroke: #000000; stroke-width: 0.500000; stroke-linejoin: miter; stroke-linecap: butt;  opacity: 1.000000"  d="M 73.125000,346.500000 L 78.125000,346.500000"/>
<path style="fill: none; stroke: #000000; stroke-width: 0.500000; stroke-linejoin: miter; stroke-linecap: butt;  opacity: 1.000000"  d="M 521.500000,346.500000 L 526.500000,346.500000"/>
<text style="font-size: 9.996000; font-family: Bitstream Vera Serif; font-style: Roman; fill: #000000;" x="47.125000" y="350.000000" >-0.10</text>
</g>
<g id="ytick3">
<path style="fill: none; stroke: #000000; stroke-width: 0.500000; stroke-linejoin: miter; stroke-linecap: butt;  opacity: 1.000000"  d="M 73.125000,296.100000 L 78.125000,296.100000"/>
<path style="fill: none; stroke: #000000; stroke-width: 0.500000; stroke-linejoin: miter; stroke-linecap: butt;  opacity: 1.000000"  d="M 521.500000,296.100000 L 526.500000,296.100000"/>
<text style="font-size: 9.996000; font-family: Bitstream Vera Serif; font-style: Roman; fill: #000000;" x="47.125000" y="299.600000" >-0.05</text>
</g>
<g id="ytick4">
<path style="fill: none; stroke: #000000; stroke-width: 0.500000; stroke-linejoin: miter; stroke-linecap: butt;  opacity: 1.000000"  d="M 73.125000,245.700000 L 78.125000,245.700000"/>
<path style="fill: none; stroke: #000000; stroke-width: 0.500000; stroke-linejoin: miter; stroke-linecap: butt;  opacity: 1.000000"  d="M 521.500000,245.700000 L 526.500000,245.700000"/>
<text style="font-size: 9.996000; font-family: Bitstream Vera Serif; font-style: Roman; fill: #000000;" x="50.125000" y="249.200000" >0.00</text>
</g>
<g id="ytick5">
<path style="fill: none; stroke: #000000; stroke-width: 0.500000; stroke-linejoin: miter; stroke-linecap: butt;  opacity: 1.000000"  d="M 73.125000,195.300000 L 78.125000,195.300000"/>
<path style="fill: none; stroke: #000000; stroke-width: 0.500000; stroke-linejoin: miter; stroke-linecap: butt;  opacity: 1.000000"  d="M 521.500000,195.300000 L 526.500000,195.300000"/>
<text style="font-size: 9.996000; font-family: Bitstream Vera Serif; font-style: Roman; fill: #000000;" x="50.125000" y="198.800000" >0.05</text>
</g>
<g id="ytick6">
<path style="fill: none; stroke: #000000; stroke-width: 0.500000; stroke-linejoin: miter; stroke-linecap: butt;  opacity: 1.000000"  d="M 73.125000,144.900000 L 78.125000,144.900000"/>
<path style="fill: none; stroke: #000000; stroke-width: 0.500000; stroke-linejoin: miter; stroke-linecap: butt;  opacity: 1.000000"  d="M 521.500000,144.900000 L 526.500000,144.900000"/>
<text style="font-size: 9.996000; font-family: Bitstream Vera Serif; font-style: Roman; fill: #000000;" x="50.125000" y="148.400000" >0.10</text>
</g>
<g id="ytick7">
<path style="fill: none; stroke: #000000; stroke-width: 0.500000; stroke-linejoin: miter; stroke-linecap: butt;  opacity: 1.000000"  d="M 73.125000,94.500000 L 78.125000,94.500000"/>
<path style="fill: none; stroke: #000000; stroke-width: 0.500000; stroke-linejoin: miter; stroke-linecap: butt;  opacity: 1.000000"  d="M 521.500000,94.500000 L 526.500000,94.500000"/>
<text style="font-size: 9.996000; font-family: Bitstream Vera Serif; font-style: Roman; fill: #000000;" x="50.125000" y="98.000000" >0.15</text>
</g>
<g id="ytick8">
<text style="font-size: 9.996000; font-family: Bitstream Vera Serif; font-style: Roman; fill: #000000;" x="50.125000" y="47.600000" >0.20</text>
</g>
<text style="font-size: 12.000000; font-family: Bitstream Vera Serif; font-style: Roman; fill: #000000;" x="42.125000" y="224.500000" transform="translate(42.125000,224.500000) rotate(-90.0) translate(-42.125000,-224.500000)">D</text>
</g>
<path style="fill: none; stroke: #000000; stroke-width: 1.000000; stroke-linejoin: miter; stroke-linecap: square;  opacity: 1.000000"  d="M 73.125000,396.900000 L 526.500000,396.900000 L 526.500000,44.100000 L 73.125000,44.100000 L 73.125000,396.900000 "/>
<text style="font-size: 14.400000; font-family: Bitstream Vera Serif; font-style: Roman; fill: #000000;" x="267.312500" y="37.044000" >LD decay</text>
</g>
</g>
</svg>
