<?xml version="1.0" standalone="no"?>
<!DOCTYPE svg PUBLIC "-//W3C//DTD SVG 1.1//EN"
  "http://www.w3.org/Graphics/SVG/1.1/DTD/svg11.dtd">
<!-- Created with matplotlib (http://matplotlib.sourceforge.net/) -->
<svg width="1728" height="980" viewBox="0 0 1728 980"
   xmlns="http://www.w3.org/2000/svg"
   xmlns:xlink="http://www.w3.org/1999/xlink"
   version="1.1"
   id="svg1">
<g id="figure1">
<polygon style="fill: #ffffff; stroke: #ffffff; stroke-width: 1.000000; stroke-linejoin: miter; stroke-linecap: square;  opacity: 1.000000"  points = "0.000000,980.100000 0.000000,0.000000 1728.000000,0.000000 1728.000000,980.100000"/>
<g id="axes1">
<polygon style="fill: #ffffff; stroke: #000000; stroke-width: 1.000000; stroke-linejoin: miter; stroke-linecap: square;  opacity: 1.000000"  points = "216.000000,882.090000 216.000000,98.010000 1555.200000,98.010000 1555.200000,882.090000"/>
<defs>
    <clipPath id="5419046363373412500">
    <rect x="216.000000" y="98.010000" width="1339.200000" height="784.080000"
    style="stroke: gray; fill: none;"/>
    </clipPath>
</defs>
<polygon style="fill: #0000ff; opacity: 1.000000" clip-path="url(#5419046363373412500)" points = "432.994056,768.278571 431.428056,769.178571 431.428056,770.978571 432.994056,771.878571 434.560056,770.978571 434.560056,769.178571"/>
<polygon style="fill: #0000ff; opacity: 1.000000" clip-path="url(#5419046363373412500)" points = "445.833941,768.278571 444.267941,769.178571 444.267941,770.978571 445.833941,771.878571 447.399941,770.978571 447.399941,769.178571"/>
<polygon style="fill: #0000ff; opacity: 1.000000" clip-path="url(#5419046363373412500)" points = "445.833941,768.278571 444.267941,769.178571 444.267941,770.978571 445.833941,771.878571 447.399941,770.978571 447.399941,769.178571"/>
<polygon style="fill: #0000ff; opacity: 1.000000" clip-path="url(#5419046363373412500)" points = "452.253883,768.278571 450.687883,769.178571 450.687883,770.978571 452.253883,771.878571 453.819883,770.978571 453.819883,769.178571"/>
<polygon style="fill: #0000ff; opacity: 1.000000" clip-path="url(#5419046363373412500)" points = "445.833941,768.278571 444.267941,769.178571 444.267941,770.978571 445.833941,771.878571 447.399941,770.978571 447.399941,769.178571"/>
<polygon style="fill: #0000ff; opacity: 1.000000" clip-path="url(#5419046363373412500)" points = "445.833941,768.278571 444.267941,769.178571 444.267941,770.978571 445.833941,771.878571 447.399941,770.978571 447.399941,769.178571"/>
<polygon style="fill: #0000ff; opacity: 1.000000" clip-path="url(#5419046363373412500)" points = "432.994056,768.278571 431.428056,769.178571 431.428056,770.978571 432.994056,771.878571 434.560056,770.978571 434.560056,769.178571"/>
<polygon style="fill: #0000ff; opacity: 1.000000" clip-path="url(#5419046363373412500)" points = "432.994056,768.278571 431.428056,769.178571 431.428056,770.978571 432.994056,771.878571 434.560056,770.978571 434.560056,769.178571"/>
<polygon style="fill: #0000ff; opacity: 1.000000" clip-path="url(#5419046363373412500)" points = "452.253883,764.035714 450.687883,764.935714 450.687883,766.735714 452.253883,767.635714 453.819883,766.735714 453.819883,764.935714"/>
<polygon style="fill: #0000ff; opacity: 1.000000" clip-path="url(#5419046363373412500)" points = "452.253883,768.278571 450.687883,769.178571 450.687883,770.978571 452.253883,771.878571 453.819883,770.978571 453.819883,769.178571"/>
<polygon style="fill: #0000ff; opacity: 1.000000" clip-path="url(#5419046363373412500)" points = "439.413998,768.278571 437.847998,769.178571 437.847998,770.978571 439.413998,771.878571 440.979998,770.978571 440.979998,769.178571"/>
<polygon style="fill: #0000ff; opacity: 1.000000" clip-path="url(#5419046363373412500)" points = "458.673826,764.130000 457.107826,765.030000 457.107826,766.830000 458.673826,767.730000 460.239826,766.830000 460.239826,765.030000"/>
<polygon style="fill: #0000ff; opacity: 1.000000" clip-path="url(#5419046363373412500)" points = "445.833941,768.278571 444.267941,769.178571 444.267941,770.978571 445.833941,771.878571 447.399941,770.978571 447.399941,769.178571"/>
<polygon style="fill: #0000ff; opacity: 1.000000" clip-path="url(#5419046363373412500)" points = "439.413998,768.278571 437.847998,769.178571 437.847998,770.978571 439.413998,771.878571 440.979998,770.978571 440.979998,769.178571"/>
<polygon style="fill: #0000ff; opacity: 1.000000" clip-path="url(#5419046363373412500)" points = "432.994056,764.220186 431.428056,765.120186 431.428056,766.920186 432.994056,767.820186 434.560056,766.920186 434.560056,765.120186"/>
<polygon style="fill: #0000ff; opacity: 1.000000" clip-path="url(#5419046363373412500)" points = "445.833941,764.035714 444.267941,764.935714 444.267941,766.735714 445.833941,767.635714 447.399941,766.735714 447.399941,764.935714"/>
<polygon style="fill: #0000ff; opacity: 1.000000" clip-path="url(#5419046363373412500)" points = "426.574113,768.278571 425.008113,769.178571 425.008113,770.978571 426.574113,771.878571 428.140113,770.978571 428.140113,769.178571"/>
<polygon style="fill: #0000ff; opacity: 1.000000" clip-path="url(#5419046363373412500)" points = "426.574113,768.278571 425.008113,769.178571 425.008113,770.978571 426.574113,771.878571 428.140113,770.978571 428.140113,769.178571"/>
<polygon style="fill: #0000ff; opacity: 1.000000" clip-path="url(#5419046363373412500)" points = "432.994056,768.278571 431.428056,769.178571 431.428056,770.978571 432.994056,771.878571 434.560056,770.978571 434.560056,769.178571"/>
<polygon style="fill: #0000ff; opacity: 1.000000" clip-path="url(#5419046363373412500)" points = "439.413998,764.306535 437.847998,765.206535 437.847998,767.006535 439.413998,767.906535 440.979998,767.006535 440.979998,765.206535"/>
<polygon style="fill: #0000ff; opacity: 1.000000" clip-path="url(#5419046363373412500)" points = "432.994056,768.278571 431.428056,769.178571 431.428056,770.978571 432.994056,771.878571 434.560056,770.978571 434.560056,769.178571"/>
<polygon style="fill: #0000ff; opacity: 1.000000" clip-path="url(#5419046363373412500)" points = "426.574113,760.390443 425.008113,761.290443 425.008113,763.090443 426.574113,763.990443 428.140113,763.090443 428.140113,761.290443"/>
<polygon style="fill: #0000ff; opacity: 1.000000" clip-path="url(#5419046363373412500)" points = "426.574113,768.278571 425.008113,769.178571 425.008113,770.978571 426.574113,771.878571 428.140113,770.978571 428.140113,769.178571"/>
<polygon style="fill: #0000ff; opacity: 1.000000" clip-path="url(#5419046363373412500)" points = "445.833941,768.278571 444.267941,769.178571 444.267941,770.978571 445.833941,771.878571 447.399941,770.978571 447.399941,769.178571"/>
<polygon style="fill: #0000ff; opacity: 1.000000" clip-path="url(#5419046363373412500)" points = "439.413998,768.278571 437.847998,769.178571 437.847998,770.978571 439.413998,771.878571 440.979998,770.978571 440.979998,769.178571"/>
<polygon style="fill: #0000ff; opacity: 1.000000" clip-path="url(#5419046363373412500)" points = "458.673826,763.833673 457.107826,764.733673 457.107826,766.533673 458.673826,767.433673 460.239826,766.533673 460.239826,764.733673"/>
<polygon style="fill: #0000ff; opacity: 1.000000" clip-path="url(#5419046363373412500)" points = "439.413998,768.278571 437.847998,769.178571 437.847998,770.978571 439.413998,771.878571 440.979998,770.978571 440.979998,769.178571"/>
<polygon style="fill: #0000ff; opacity: 1.000000" clip-path="url(#5419046363373412500)" points = "432.994056,768.278571 431.428056,769.178571 431.428056,770.978571 432.994056,771.878571 434.560056,770.978571 434.560056,769.178571"/>
<polygon style="fill: #0000ff; opacity: 1.000000" clip-path="url(#5419046363373412500)" points = "426.574113,768.278571 425.008113,769.178571 425.008113,770.978571 426.574113,771.878571 428.140113,770.978571 428.140113,769.178571"/>
<polygon style="fill: #0000ff; opacity: 1.000000" clip-path="url(#5419046363373412500)" points = "439.413998,768.278571 437.847998,769.178571 437.847998,770.978571 439.413998,771.878571 440.979998,770.978571 440.979998,769.178571"/>
<polygon style="fill: #0000ff; opacity: 1.000000" clip-path="url(#5419046363373412500)" points = "432.994056,768.278571 431.428056,769.178571 431.428056,770.978571 432.994056,771.878571 434.560056,770.978571 434.560056,769.178571"/>
<polygon style="fill: #0000ff; opacity: 1.000000" clip-path="url(#5419046363373412500)" points = "432.994056,764.190563 431.428056,765.090563 431.428056,766.890563 432.994056,767.790563 434.560056,766.890563 434.560056,765.090563"/>
<polygon style="fill: #0000ff; opacity: 1.000000" clip-path="url(#5419046363373412500)" points = "445.833941,768.278571 444.267941,769.178571 444.267941,770.978571 445.833941,771.878571 447.399941,770.978571 447.399941,769.178571"/>
<polygon style="fill: #0000ff; opacity: 1.000000" clip-path="url(#5419046363373412500)" points = "432.994056,581.592857 431.428056,582.492857 431.428056,584.292857 432.994056,585.192857 434.560056,584.292857 434.560056,582.492857"/>
<polygon style="fill: #0000ff; opacity: 1.000000" clip-path="url(#5419046363373412500)" points = "426.574113,768.278571 425.008113,769.178571 425.008113,770.978571 426.574113,771.878571 428.140113,770.978571 428.140113,769.178571"/>
<polygon style="fill: #0000ff; opacity: 1.000000" clip-path="url(#5419046363373412500)" points = "426.574113,581.592857 425.008113,582.492857 425.008113,584.292857 426.574113,585.192857 428.140113,584.292857 428.140113,582.492857"/>
<polygon style="fill: #0000ff; opacity: 1.000000" clip-path="url(#5419046363373412500)" points = "445.833941,764.160504 444.267941,765.060504 444.267941,766.860504 445.833941,767.760504 447.399941,766.860504 447.399941,765.060504"/>
<polygon style="fill: #0000ff; opacity: 1.000000" clip-path="url(#5419046363373412500)" points = "426.574113,768.278571 425.008113,769.178571 425.008113,770.978571 426.574113,771.878571 428.140113,770.978571 428.140113,769.178571"/>
<polygon style="fill: #0000ff; opacity: 1.000000" clip-path="url(#5419046363373412500)" points = "432.994056,768.278571 431.428056,769.178571 431.428056,770.978571 432.994056,771.878571 434.560056,770.978571 434.560056,769.178571"/>
<polygon style="fill: #0000ff; opacity: 1.000000" clip-path="url(#5419046363373412500)" points = "432.994056,768.278571 431.428056,769.178571 431.428056,770.978571 432.994056,771.878571 434.560056,770.978571 434.560056,769.178571"/>
<polygon style="fill: #0000ff; opacity: 1.000000" clip-path="url(#5419046363373412500)" points = "426.574113,768.278571 425.008113,769.178571 425.008113,770.978571 426.574113,771.878571 428.140113,770.978571 428.140113,769.178571"/>
<polygon style="fill: #0000ff; opacity: 1.000000" clip-path="url(#5419046363373412500)" points = "439.413998,760.102555 437.847998,761.002555 437.847998,762.802555 439.413998,763.702555 440.979998,762.802555 440.979998,761.002555"/>
<polygon style="fill: #0000ff; opacity: 1.000000" clip-path="url(#5419046363373412500)" points = "445.833941,759.981429 444.267941,760.881429 444.267941,762.681429 445.833941,763.581429 447.399941,762.681429 447.399941,760.881429"/>
<polygon style="fill: #0000ff; opacity: 1.000000" clip-path="url(#5419046363373412500)" points = "452.253883,768.278571 450.687883,769.178571 450.687883,770.978571 452.253883,771.878571 453.819883,770.978571 453.819883,769.178571"/>
<polygon style="fill: #0000ff; opacity: 1.000000" clip-path="url(#5419046363373412500)" points = "426.574113,768.278571 425.008113,769.178571 425.008113,770.978571 426.574113,771.878571 428.140113,770.978571 428.140113,769.178571"/>
<polygon style="fill: #0000ff; opacity: 1.000000" clip-path="url(#5419046363373412500)" points = "426.574113,768.278571 425.008113,769.178571 425.008113,770.978571 426.574113,771.878571 428.140113,770.978571 428.140113,769.178571"/>
<polygon style="fill: #0000ff; opacity: 1.000000" clip-path="url(#5419046363373412500)" points = "426.574113,768.278571 425.008113,769.178571 425.008113,770.978571 426.574113,771.878571 428.140113,770.978571 428.140113,769.178571"/>
<polygon style="fill: #0000ff; opacity: 1.000000" clip-path="url(#5419046363373412500)" points = "432.994056,768.278571 431.428056,769.178571 431.428056,770.978571 432.994056,771.878571 434.560056,770.978571 434.560056,769.178571"/>
<polygon style="fill: #0000ff; opacity: 1.000000" clip-path="url(#5419046363373412500)" points = "445.833941,768.278571 444.267941,769.178571 444.267941,770.978571 445.833941,771.878571 447.399941,770.978571 447.399941,769.178571"/>
<polygon style="fill: #0000ff; opacity: 1.000000" clip-path="url(#5419046363373412500)" points = "452.253883,764.249383 450.687883,765.149383 450.687883,766.949383 452.253883,767.849383 453.819883,766.949383 453.819883,765.149383"/>
<polygon style="fill: #0000ff; opacity: 1.000000" clip-path="url(#5419046363373412500)" points = "439.413998,768.278571 437.847998,769.178571 437.847998,770.978571 439.413998,771.878571 440.979998,770.978571 440.979998,769.178571"/>
<polygon style="fill: #0000ff; opacity: 1.000000" clip-path="url(#5419046363373412500)" points = "420.154171,768.278571 418.588171,769.178571 418.588171,770.978571 420.154171,771.878571 421.720171,770.978571 421.720171,769.178571"/>
<polygon style="fill: #0000ff; opacity: 1.000000" clip-path="url(#5419046363373412500)" points = "432.994056,768.278571 431.428056,769.178571 431.428056,770.978571 432.994056,771.878571 434.560056,770.978571 434.560056,769.178571"/>
<polygon style="fill: #0000ff; opacity: 1.000000" clip-path="url(#5419046363373412500)" points = "670.531927,768.278571 668.965927,769.178571 668.965927,770.978571 670.531927,771.878571 672.097927,770.978571 672.097927,769.178571"/>
<polygon style="fill: #0000ff; opacity: 1.000000" clip-path="url(#5419046363373412500)" points = "432.994056,768.278571 431.428056,769.178571 431.428056,770.978571 432.994056,771.878571 434.560056,770.978571 434.560056,769.178571"/>
<polygon style="fill: #0000ff; opacity: 1.000000" clip-path="url(#5419046363373412500)" points = "426.574113,768.278571 425.008113,769.178571 425.008113,770.978571 426.574113,771.878571 428.140113,770.978571 428.140113,769.178571"/>
<polygon style="fill: #0000ff; opacity: 1.000000" clip-path="url(#5419046363373412500)" points = "458.673826,751.560448 457.107826,752.460448 457.107826,754.260448 458.673826,755.160448 460.239826,754.260448 460.239826,752.460448"/>
<polygon style="fill: #0000ff; opacity: 1.000000" clip-path="url(#5419046363373412500)" points = "426.574113,768.278571 425.008113,769.178571 425.008113,770.978571 426.574113,771.878571 428.140113,770.978571 428.140113,769.178571"/>
<polygon style="fill: #0000ff; opacity: 1.000000" clip-path="url(#5419046363373412500)" points = "439.413998,764.067615 437.847998,764.967615 437.847998,766.767615 439.413998,767.667615 440.979998,766.767615 440.979998,764.967615"/>
<polygon style="fill: #0000ff; opacity: 1.000000" clip-path="url(#5419046363373412500)" points = "439.413998,768.278571 437.847998,769.178571 437.847998,770.978571 439.413998,771.878571 440.979998,770.978571 440.979998,769.178571"/>
<polygon style="fill: #0000ff; opacity: 1.000000" clip-path="url(#5419046363373412500)" points = "432.994056,768.278571 431.428056,769.178571 431.428056,770.978571 432.994056,771.878571 434.560056,770.978571 434.560056,769.178571"/>
<polygon style="fill: #0000ff; opacity: 1.000000" clip-path="url(#5419046363373412500)" points = "458.673826,768.278571 457.107826,769.178571 457.107826,770.978571 458.673826,771.878571 460.239826,770.978571 460.239826,769.178571"/>
<polygon style="fill: #0000ff; opacity: 1.000000" clip-path="url(#5419046363373412500)" points = "452.253883,755.739979 450.687883,756.639979 450.687883,758.439979 452.253883,759.339979 453.819883,758.439979 453.819883,756.639979"/>
<polygon style="fill: #0000ff; opacity: 1.000000" clip-path="url(#5419046363373412500)" points = "420.154171,622.176708 418.588171,623.076708 418.588171,624.876708 420.154171,625.776708 421.720171,624.876708 421.720171,623.076708"/>
<polygon style="fill: #0000ff; opacity: 1.000000" clip-path="url(#5419046363373412500)" points = "445.833941,768.278571 444.267941,769.178571 444.267941,770.978571 445.833941,771.878571 447.399941,770.978571 447.399941,769.178571"/>
<polygon style="fill: #0000ff; opacity: 1.000000" clip-path="url(#5419046363373412500)" points = "426.574113,768.278571 425.008113,769.178571 425.008113,770.978571 426.574113,771.878571 428.140113,770.978571 428.140113,769.178571"/>
<polygon style="fill: #0000ff; opacity: 1.000000" clip-path="url(#5419046363373412500)" points = "426.574113,768.278571 425.008113,769.178571 425.008113,770.978571 426.574113,771.878571 428.140113,770.978571 428.140113,769.178571"/>
<polygon style="fill: #0000ff; opacity: 1.000000" clip-path="url(#5419046363373412500)" points = "439.413998,768.278571 437.847998,769.178571 437.847998,770.978571 439.413998,771.878571 440.979998,770.978571 440.979998,769.178571"/>
<polygon style="fill: #0000ff; opacity: 1.000000" clip-path="url(#5419046363373412500)" points = "439.413998,768.278571 437.847998,769.178571 437.847998,770.978571 439.413998,771.878571 440.979998,770.978571 440.979998,769.178571"/>
<polygon style="fill: #0000ff; opacity: 1.000000" clip-path="url(#5419046363373412500)" points = "445.833941,768.278571 444.267941,769.178571 444.267941,770.978571 445.833941,771.878571 447.399941,770.978571 447.399941,769.178571"/>
<polygon style="fill: #0000ff; opacity: 1.000000" clip-path="url(#5419046363373412500)" points = "439.413998,768.278571 437.847998,769.178571 437.847998,770.978571 439.413998,771.878571 440.979998,770.978571 440.979998,769.178571"/>
<polygon style="fill: #0000ff; opacity: 1.000000" clip-path="url(#5419046363373412500)" points = "420.154171,764.067615 418.588171,764.967615 418.588171,766.767615 420.154171,767.667615 421.720171,766.767615 421.720171,764.967615"/>
<polygon style="fill: #0000ff; opacity: 1.000000" clip-path="url(#5419046363373412500)" points = "452.253883,746.229078 450.687883,747.129078 450.687883,748.929078 452.253883,749.829078 453.819883,748.929078 453.819883,747.129078"/>
<polygon style="fill: #0000ff; opacity: 1.000000" clip-path="url(#5419046363373412500)" points = "426.574113,768.278571 425.008113,769.178571 425.008113,770.978571 426.574113,771.878571 428.140113,770.978571 428.140113,769.178571"/>
<polygon style="fill: #0000ff; opacity: 1.000000" clip-path="url(#5419046363373412500)" points = "432.994056,768.278571 431.428056,769.178571 431.428056,770.978571 432.994056,771.878571 434.560056,770.978571 434.560056,769.178571"/>
<polygon style="fill: #0000ff; opacity: 1.000000" clip-path="url(#5419046363373412500)" points = "420.154171,208.221429 418.588171,209.121429 418.588171,210.921429 420.154171,211.821429 421.720171,210.921429 421.720171,209.121429"/>
<polygon style="fill: #0000ff; opacity: 1.000000" clip-path="url(#5419046363373412500)" points = "452.253883,768.278571 450.687883,769.178571 450.687883,770.978571 452.253883,771.878571 453.819883,770.978571 453.819883,769.178571"/>
<polygon style="fill: #0000ff; opacity: 1.000000" clip-path="url(#5419046363373412500)" points = "432.994056,768.278571 431.428056,769.178571 431.428056,770.978571 432.994056,771.878571 434.560056,770.978571 434.560056,769.178571"/>
<polygon style="fill: #0000ff; opacity: 1.000000" clip-path="url(#5419046363373412500)" points = "432.994056,768.278571 431.428056,769.178571 431.428056,770.978571 432.994056,771.878571 434.560056,770.978571 434.560056,769.178571"/>
<polygon style="fill: #0000ff; opacity: 1.000000" clip-path="url(#5419046363373412500)" points = "445.833941,768.278571 444.267941,769.178571 444.267941,770.978571 445.833941,771.878571 447.399941,770.978571 447.399941,769.178571"/>
<polygon style="fill: #0000ff; opacity: 1.000000" clip-path="url(#5419046363373412500)" points = "439.413998,768.278571 437.847998,769.178571 437.847998,770.978571 439.413998,771.878571 440.979998,770.978571 440.979998,769.178571"/>
<polygon style="fill: #0000ff; opacity: 1.000000" clip-path="url(#5419046363373412500)" points = "458.673826,768.278571 457.107826,769.178571 457.107826,770.978571 458.673826,771.878571 460.239826,770.978571 460.239826,769.178571"/>
<polygon style="fill: #0000ff; opacity: 1.000000" clip-path="url(#5419046363373412500)" points = "439.413998,768.278571 437.847998,769.178571 437.847998,770.978571 439.413998,771.878571 440.979998,770.978571 440.979998,769.178571"/>
<polygon style="fill: #0000ff; opacity: 1.000000" clip-path="url(#5419046363373412500)" points = "452.253883,764.160504 450.687883,765.060504 450.687883,766.860504 452.253883,767.760504 453.819883,766.860504 453.819883,765.060504"/>
<polygon style="fill: #0000ff; opacity: 1.000000" clip-path="url(#5419046363373412500)" points = "432.994056,768.278571 431.428056,769.178571 431.428056,770.978571 432.994056,771.878571 434.560056,770.978571 434.560056,769.178571"/>
<polygon style="fill: #0000ff; opacity: 1.000000" clip-path="url(#5419046363373412500)" points = "445.833941,488.250000 444.267941,489.150000 444.267941,490.950000 445.833941,491.850000 447.399941,490.950000 447.399941,489.150000"/>
<polygon style="fill: #0000ff; opacity: 1.000000" clip-path="url(#5419046363373412500)" points = "439.413998,764.160504 437.847998,765.060504 437.847998,766.860504 439.413998,767.760504 440.979998,766.860504 440.979998,765.060504"/>
<polygon style="fill: #0000ff; opacity: 1.000000" clip-path="url(#5419046363373412500)" points = "420.154171,488.250000 418.588171,489.150000 418.588171,490.950000 420.154171,491.850000 421.720171,490.950000 421.720171,489.150000"/>
<polygon style="fill: #0000ff; opacity: 1.000000" clip-path="url(#5419046363373412500)" points = "439.413998,768.278571 437.847998,769.178571 437.847998,770.978571 439.413998,771.878571 440.979998,770.978571 440.979998,769.178571"/>
<polygon style="fill: #0000ff; opacity: 1.000000" clip-path="url(#5419046363373412500)" points = "458.673826,768.278571 457.107826,769.178571 457.107826,770.978571 458.673826,771.878571 460.239826,770.978571 460.239826,769.178571"/>
<polygon style="fill: #0000ff; opacity: 1.000000" clip-path="url(#5419046363373412500)" points = "445.833941,768.278571 444.267941,769.178571 444.267941,770.978571 445.833941,771.878571 447.399941,770.978571 447.399941,769.178571"/>
<polygon style="fill: #0000ff; opacity: 1.000000" clip-path="url(#5419046363373412500)" points = "432.994056,768.278571 431.428056,769.178571 431.428056,770.978571 432.994056,771.878571 434.560056,770.978571 434.560056,769.178571"/>
<polygon style="fill: #0000ff; opacity: 1.000000" clip-path="url(#5419046363373412500)" points = "426.574113,707.840750 425.008113,708.740750 425.008113,710.540750 426.574113,711.440750 428.140113,710.540750 428.140113,708.740750"/>
<polygon style="fill: #0000ff; opacity: 1.000000" clip-path="url(#5419046363373412500)" points = "432.994056,768.278571 431.428056,769.178571 431.428056,770.978571 432.994056,771.878571 434.560056,770.978571 434.560056,769.178571"/>
<polygon style="fill: #0000ff; opacity: 1.000000" clip-path="url(#5419046363373412500)" points = "426.574113,768.278571 425.008113,769.178571 425.008113,770.978571 426.574113,771.878571 428.140113,770.978571 428.140113,769.178571"/>
<polygon style="fill: #0000ff; opacity: 1.000000" clip-path="url(#5419046363373412500)" points = "420.154171,764.362088 418.588171,765.262088 418.588171,767.062088 420.154171,767.962088 421.720171,767.062088 421.720171,765.262088"/>
<polygon style="fill: #0000ff; opacity: 1.000000" clip-path="url(#5419046363373412500)" points = "426.574113,768.278571 425.008113,769.178571 425.008113,770.978571 426.574113,771.878571 428.140113,770.978571 428.140113,769.178571"/>
<polygon style="fill: #0000ff; opacity: 1.000000" clip-path="url(#5419046363373412500)" points = "439.413998,768.278571 437.847998,769.178571 437.847998,770.978571 439.413998,771.878571 440.979998,770.978571 440.979998,769.178571"/>
<polygon style="fill: #0000ff; opacity: 1.000000" clip-path="url(#5419046363373412500)" points = "471.513710,768.278571 469.947710,769.178571 469.947710,770.978571 471.513710,771.878571 473.079710,770.978571 473.079710,769.178571"/>
<polygon style="fill: #0000ff; opacity: 1.000000" clip-path="url(#5419046363373412500)" points = "452.253883,764.130000 450.687883,765.030000 450.687883,766.830000 452.253883,767.730000 453.819883,766.830000 453.819883,765.030000"/>
<polygon style="fill: #0000ff; opacity: 1.000000" clip-path="url(#5419046363373412500)" points = "426.574113,768.278571 425.008113,769.178571 425.008113,770.978571 426.574113,771.878571 428.140113,770.978571 428.140113,769.178571"/>
<polygon style="fill: #0000ff; opacity: 1.000000" clip-path="url(#5419046363373412500)" points = "445.833941,768.278571 444.267941,769.178571 444.267941,770.978571 445.833941,771.878571 447.399941,770.978571 447.399941,769.178571"/>
<polygon style="fill: #0000ff; opacity: 1.000000" clip-path="url(#5419046363373412500)" points = "445.833941,764.278163 444.267941,765.178163 444.267941,766.978163 445.833941,767.878163 447.399941,766.978163 447.399941,765.178163"/>
<polygon style="fill: #0000ff; opacity: 1.000000" clip-path="url(#5419046363373412500)" points = "458.673826,763.903125 457.107826,764.803125 457.107826,766.603125 458.673826,767.503125 460.239826,766.603125 460.239826,764.803125"/>
<polygon style="fill: #0000ff; opacity: 1.000000" clip-path="url(#5419046363373412500)" points = "426.574113,768.278571 425.008113,769.178571 425.008113,770.978571 426.574113,771.878571 428.140113,770.978571 428.140113,769.178571"/>
<polygon style="fill: #0000ff; opacity: 1.000000" clip-path="url(#5419046363373412500)" points = "465.093768,768.278571 463.527768,769.178571 463.527768,770.978571 465.093768,771.878571 466.659768,770.978571 466.659768,769.178571"/>
<polygon style="fill: #0000ff; opacity: 1.000000" clip-path="url(#5419046363373412500)" points = "432.994056,768.278571 431.428056,769.178571 431.428056,770.978571 432.994056,771.878571 434.560056,770.978571 434.560056,769.178571"/>
<polygon style="fill: #0000ff; opacity: 1.000000" clip-path="url(#5419046363373412500)" points = "413.734228,768.278571 412.168228,769.178571 412.168228,770.978571 413.734228,771.878571 415.300228,770.978571 415.300228,769.178571"/>
<polygon style="fill: #0000ff; opacity: 1.000000" clip-path="url(#5419046363373412500)" points = "432.994056,768.278571 431.428056,769.178571 431.428056,770.978571 432.994056,771.878571 434.560056,770.978571 434.560056,769.178571"/>
<polygon style="fill: #0000ff; opacity: 1.000000" clip-path="url(#5419046363373412500)" points = "432.994056,768.278571 431.428056,769.178571 431.428056,770.978571 432.994056,771.878571 434.560056,770.978571 434.560056,769.178571"/>
<polygon style="fill: #0000ff; opacity: 1.000000" clip-path="url(#5419046363373412500)" points = "445.833941,768.278571 444.267941,769.178571 444.267941,770.978571 445.833941,771.878571 447.399941,770.978571 447.399941,769.178571"/>
<polygon style="fill: #0000ff; opacity: 1.000000" clip-path="url(#5419046363373412500)" points = "432.994056,394.907143 431.428056,395.807143 431.428056,397.607143 432.994056,398.507143 434.560056,397.607143 434.560056,395.807143"/>
<polygon style="fill: #0000ff; opacity: 1.000000" clip-path="url(#5419046363373412500)" points = "439.413998,581.592857 437.847998,582.492857 437.847998,584.292857 439.413998,585.192857 440.979998,584.292857 440.979998,582.492857"/>
<polygon style="fill: #0000ff; opacity: 1.000000" clip-path="url(#5419046363373412500)" points = "439.413998,760.277755 437.847998,761.177755 437.847998,762.977755 439.413998,763.877755 440.979998,762.977755 440.979998,761.177755"/>
<polygon style="fill: #0000ff; opacity: 1.000000" clip-path="url(#5419046363373412500)" points = "432.994056,768.278571 431.428056,769.178571 431.428056,770.978571 432.994056,771.878571 434.560056,770.978571 434.560056,769.178571"/>
<polygon style="fill: #0000ff; opacity: 1.000000" clip-path="url(#5419046363373412500)" points = "445.833941,768.278571 444.267941,769.178571 444.267941,770.978571 445.833941,771.878571 447.399941,770.978571 447.399941,769.178571"/>
<polygon style="fill: #0000ff; opacity: 1.000000" clip-path="url(#5419046363373412500)" points = "452.253883,768.278571 450.687883,769.178571 450.687883,770.978571 452.253883,771.878571 453.819883,770.978571 453.819883,769.178571"/>
<polygon style="fill: #0000ff; opacity: 1.000000" clip-path="url(#5419046363373412500)" points = "426.574113,768.278571 425.008113,769.178571 425.008113,770.978571 426.574113,771.878571 428.140113,770.978571 428.140113,769.178571"/>
<polygon style="fill: #0000ff; opacity: 1.000000" clip-path="url(#5419046363373412500)" points = "432.994056,768.278571 431.428056,769.178571 431.428056,770.978571 432.994056,771.878571 434.560056,770.978571 434.560056,769.178571"/>
<polygon style="fill: #0000ff; opacity: 1.000000" clip-path="url(#5419046363373412500)" points = "420.154171,764.249383 418.588171,765.149383 418.588171,766.949383 420.154171,767.849383 421.720171,766.949383 421.720171,765.149383"/>
<polygon style="fill: #0000ff; opacity: 1.000000" clip-path="url(#5419046363373412500)" points = "458.673826,764.160504 457.107826,765.060504 457.107826,766.860504 458.673826,767.760504 460.239826,766.860504 460.239826,765.060504"/>
<polygon style="fill: #0000ff; opacity: 1.000000" clip-path="url(#5419046363373412500)" points = "426.574113,768.278571 425.008113,769.178571 425.008113,770.978571 426.574113,771.878571 428.140113,770.978571 428.140113,769.178571"/>
<polygon style="fill: #0000ff; opacity: 1.000000" clip-path="url(#5419046363373412500)" points = "426.574113,768.278571 425.008113,769.178571 425.008113,770.978571 426.574113,771.878571 428.140113,770.978571 428.140113,769.178571"/>
<polygon style="fill: #0000ff; opacity: 1.000000" clip-path="url(#5419046363373412500)" points = "670.531927,768.278571 668.965927,769.178571 668.965927,770.978571 670.531927,771.878571 672.097927,770.978571 672.097927,769.178571"/>
<polygon style="fill: #0000ff; opacity: 1.000000" clip-path="url(#5419046363373412500)" points = "420.154171,394.907143 418.588171,395.807143 418.588171,397.607143 420.154171,398.507143 421.720171,397.607143 421.720171,395.807143"/>
<polygon style="fill: #0000ff; opacity: 1.000000" clip-path="url(#5419046363373412500)" points = "439.413998,768.278571 437.847998,769.178571 437.847998,770.978571 439.413998,771.878571 440.979998,770.978571 440.979998,769.178571"/>
<polygon style="fill: #0000ff; opacity: 1.000000" clip-path="url(#5419046363373412500)" points = "432.994056,768.278571 431.428056,769.178571 431.428056,770.978571 432.994056,771.878571 434.560056,770.978571 434.560056,769.178571"/>
<polygon style="fill: #0000ff; opacity: 1.000000" clip-path="url(#5419046363373412500)" points = "432.994056,768.278571 431.428056,769.178571 431.428056,770.978571 432.994056,771.878571 434.560056,770.978571 434.560056,769.178571"/>
<polygon style="fill: #0000ff; opacity: 1.000000" clip-path="url(#5419046363373412500)" points = "465.093768,764.067615 463.527768,764.967615 463.527768,766.767615 465.093768,767.667615 466.659768,766.767615 466.659768,764.967615"/>
<polygon style="fill: #0000ff; opacity: 1.000000" clip-path="url(#5419046363373412500)" points = "477.933653,768.278571 476.367653,769.178571 476.367653,770.978571 477.933653,771.878571 479.499653,770.978571 479.499653,769.178571"/>
<polygon style="fill: #0000ff; opacity: 1.000000" clip-path="url(#5419046363373412500)" points = "439.413998,764.003326 437.847998,764.903326 437.847998,766.703326 439.413998,767.603326 440.979998,766.703326 440.979998,764.903326"/>
<polygon style="fill: #0000ff; opacity: 1.000000" clip-path="url(#5419046363373412500)" points = "452.253883,768.278571 450.687883,769.178571 450.687883,770.978571 452.253883,771.878571 453.819883,770.978571 453.819883,769.178571"/>
<polygon style="fill: #0000ff; opacity: 1.000000" clip-path="url(#5419046363373412500)" points = "445.833941,736.275306 444.267941,737.175306 444.267941,738.975306 445.833941,739.875306 447.399941,738.975306 447.399941,737.175306"/>
<polygon style="fill: #0000ff; opacity: 1.000000" clip-path="url(#5419046363373412500)" points = "445.833941,768.278571 444.267941,769.178571 444.267941,770.978571 445.833941,771.878571 447.399941,770.978571 447.399941,769.178571"/>
<polygon style="fill: #0000ff; opacity: 1.000000" clip-path="url(#5419046363373412500)" points = "420.154171,768.278571 418.588171,769.178571 418.588171,770.978571 420.154171,771.878571 421.720171,770.978571 421.720171,769.178571"/>
<polygon style="fill: #0000ff; opacity: 1.000000" clip-path="url(#5419046363373412500)" points = "471.513710,768.278571 469.947710,769.178571 469.947710,770.978571 471.513710,771.878571 473.079710,770.978571 473.079710,769.178571"/>
<polygon style="fill: #0000ff; opacity: 1.000000" clip-path="url(#5419046363373412500)" points = "445.833941,768.278571 444.267941,769.178571 444.267941,770.978571 445.833941,771.878571 447.399941,770.978571 447.399941,769.178571"/>
<polygon style="fill: #0000ff; opacity: 1.000000" clip-path="url(#5419046363373412500)" points = "432.994056,768.278571 431.428056,769.178571 431.428056,770.978571 432.994056,771.878571 434.560056,770.978571 434.560056,769.178571"/>
<polygon style="fill: #0000ff; opacity: 1.000000" clip-path="url(#5419046363373412500)" points = "445.833941,768.278571 444.267941,769.178571 444.267941,770.978571 445.833941,771.878571 447.399941,770.978571 447.399941,769.178571"/>
<polygon style="fill: #0000ff; opacity: 1.000000" clip-path="url(#5419046363373412500)" points = "452.253883,768.278571 450.687883,769.178571 450.687883,770.978571 452.253883,771.878571 453.819883,770.978571 453.819883,769.178571"/>
<polygon style="fill: #0000ff; opacity: 1.000000" clip-path="url(#5419046363373412500)" points = "445.833941,768.278571 444.267941,769.178571 444.267941,770.978571 445.833941,771.878571 447.399941,770.978571 447.399941,769.178571"/>
<polygon style="fill: #0000ff; opacity: 1.000000" clip-path="url(#5419046363373412500)" points = "445.833941,768.278571 444.267941,769.178571 444.267941,770.978571 445.833941,771.878571 447.399941,770.978571 447.399941,769.178571"/>
<polygon style="fill: #0000ff; opacity: 1.000000" clip-path="url(#5419046363373412500)" points = "426.574113,764.003326 425.008113,764.903326 425.008113,766.703326 426.574113,767.603326 428.140113,766.703326 428.140113,764.903326"/>
<polygon style="fill: #0000ff; opacity: 1.000000" clip-path="url(#5419046363373412500)" points = "426.574113,728.558207 425.008113,729.458207 425.008113,731.258207 426.574113,732.158207 428.140113,731.258207 428.140113,729.458207"/>
<polygon style="fill: #0000ff; opacity: 1.000000" clip-path="url(#5419046363373412500)" points = "426.574113,768.278571 425.008113,769.178571 425.008113,770.978571 426.574113,771.878571 428.140113,770.978571 428.140113,769.178571"/>
<polygon style="fill: #0000ff; opacity: 1.000000" clip-path="url(#5419046363373412500)" points = "837.450431,768.278571 835.884431,769.178571 835.884431,770.978571 837.450431,771.878571 839.016431,770.978571 839.016431,769.178571"/>
<polygon style="fill: #0000ff; opacity: 1.000000" clip-path="url(#5419046363373412500)" points = "452.253883,768.278571 450.687883,769.178571 450.687883,770.978571 452.253883,771.878571 453.819883,770.978571 453.819883,769.178571"/>
<polygon style="fill: #0000ff; opacity: 1.000000" clip-path="url(#5419046363373412500)" points = "452.253883,764.249383 450.687883,765.149383 450.687883,766.949383 452.253883,767.849383 453.819883,766.949383 453.819883,765.149383"/>
<polygon style="fill: #0000ff; opacity: 1.000000" clip-path="url(#5419046363373412500)" points = "452.253883,764.190563 450.687883,765.090563 450.687883,766.890563 452.253883,767.790563 453.819883,766.890563 453.819883,765.090563"/>
<polygon style="fill: #0000ff; opacity: 1.000000" clip-path="url(#5419046363373412500)" points = "452.253883,760.220195 450.687883,761.120195 450.687883,762.920195 452.253883,763.820195 453.819883,762.920195 453.819883,761.120195"/>
<polygon style="fill: #0000ff; opacity: 1.000000" clip-path="url(#5419046363373412500)" points = "452.253883,768.278571 450.687883,769.178571 450.687883,770.978571 452.253883,771.878571 453.819883,770.978571 453.819883,769.178571"/>
<polygon style="fill: #0000ff; opacity: 1.000000" clip-path="url(#5419046363373412500)" points = "439.413998,768.278571 437.847998,769.178571 437.847998,770.978571 439.413998,771.878571 440.979998,770.978571 440.979998,769.178571"/>
<polygon style="fill: #0000ff; opacity: 1.000000" clip-path="url(#5419046363373412500)" points = "426.574113,768.278571 425.008113,769.178571 425.008113,770.978571 426.574113,771.878571 428.140113,770.978571 428.140113,769.178571"/>
<polygon style="fill: #0000ff; opacity: 1.000000" clip-path="url(#5419046363373412500)" points = "439.413998,768.278571 437.847998,769.178571 437.847998,770.978571 439.413998,771.878571 440.979998,770.978571 440.979998,769.178571"/>
<polygon style="fill: #0000ff; opacity: 1.000000" clip-path="url(#5419046363373412500)" points = "432.994056,597.826398 431.428056,598.726398 431.428056,600.526398 432.994056,601.426398 434.560056,600.526398 434.560056,598.726398"/>
<polygon style="fill: #0000ff; opacity: 1.000000" clip-path="url(#5419046363373412500)" points = "452.253883,768.278571 450.687883,769.178571 450.687883,770.978571 452.253883,771.878571 453.819883,770.978571 453.819883,769.178571"/>
<polygon style="fill: #0000ff; opacity: 1.000000" clip-path="url(#5419046363373412500)" points = "426.574113,768.278571 425.008113,769.178571 425.008113,770.978571 426.574113,771.878571 428.140113,770.978571 428.140113,769.178571"/>
<polygon style="fill: #0000ff; opacity: 1.000000" clip-path="url(#5419046363373412500)" points = "439.413998,768.278571 437.847998,769.178571 437.847998,770.978571 439.413998,771.878571 440.979998,770.978571 440.979998,769.178571"/>
<polygon style="fill: #0000ff; opacity: 1.000000" clip-path="url(#5419046363373412500)" points = "471.513710,768.278571 469.947710,769.178571 469.947710,770.978571 471.513710,771.878571 473.079710,770.978571 473.079710,769.178571"/>
<polygon style="fill: #0000ff; opacity: 1.000000" clip-path="url(#5419046363373412500)" points = "542.133078,394.907143 540.567078,395.807143 540.567078,397.607143 542.133078,398.507143 543.699078,397.607143 543.699078,395.807143"/>
<polygon style="fill: #0000ff; opacity: 1.000000" clip-path="url(#5419046363373412500)" points = "426.574113,768.278571 425.008113,769.178571 425.008113,770.978571 426.574113,771.878571 428.140113,770.978571 428.140113,769.178571"/>
<polygon style="fill: #0000ff; opacity: 1.000000" clip-path="url(#5419046363373412500)" points = "426.574113,768.278571 425.008113,769.178571 425.008113,770.978571 426.574113,771.878571 428.140113,770.978571 428.140113,769.178571"/>
<polygon style="fill: #0000ff; opacity: 1.000000" clip-path="url(#5419046363373412500)" points = "426.574113,768.278571 425.008113,769.178571 425.008113,770.978571 426.574113,771.878571 428.140113,770.978571 428.140113,769.178571"/>
<polygon style="fill: #0000ff; opacity: 1.000000" clip-path="url(#5419046363373412500)" points = "445.833941,768.278571 444.267941,769.178571 444.267941,770.978571 445.833941,771.878571 447.399941,770.978571 447.399941,769.178571"/>
<polygon style="fill: #0000ff; opacity: 1.000000" clip-path="url(#5419046363373412500)" points = "439.413998,764.190563 437.847998,765.090563 437.847998,766.890563 439.413998,767.790563 440.979998,766.890563 440.979998,765.090563"/>
<polygon style="fill: #0000ff; opacity: 1.000000" clip-path="url(#5419046363373412500)" points = "426.574113,768.278571 425.008113,769.178571 425.008113,770.978571 426.574113,771.878571 428.140113,770.978571 428.140113,769.178571"/>
<polygon style="fill: #0000ff; opacity: 1.000000" clip-path="url(#5419046363373412500)" points = "432.994056,768.278571 431.428056,769.178571 431.428056,770.978571 432.994056,771.878571 434.560056,770.978571 434.560056,769.178571"/>
<polygon style="fill: #0000ff; opacity: 1.000000" clip-path="url(#5419046363373412500)" points = "439.413998,768.278571 437.847998,769.178571 437.847998,770.978571 439.413998,771.878571 440.979998,770.978571 440.979998,769.178571"/>
<polygon style="fill: #0000ff; opacity: 1.000000" clip-path="url(#5419046363373412500)" points = "432.994056,768.278571 431.428056,769.178571 431.428056,770.978571 432.994056,771.878571 434.560056,770.978571 434.560056,769.178571"/>
<polygon style="fill: #0000ff; opacity: 1.000000" clip-path="url(#5419046363373412500)" points = "432.994056,768.278571 431.428056,769.178571 431.428056,770.978571 432.994056,771.878571 434.560056,770.978571 434.560056,769.178571"/>
<polygon style="fill: #0000ff; opacity: 1.000000" clip-path="url(#5419046363373412500)" points = "445.833941,764.130000 444.267941,765.030000 444.267941,766.830000 445.833941,767.730000 447.399941,766.830000 447.399941,765.030000"/>
<polygon style="fill: #0000ff; opacity: 1.000000" clip-path="url(#5419046363373412500)" points = "420.154171,763.937043 418.588171,764.837043 418.588171,766.637043 420.154171,767.537043 421.720171,766.637043 421.720171,764.837043"/>
<polygon style="fill: #0000ff; opacity: 1.000000" clip-path="url(#5419046363373412500)" points = "439.413998,764.306535 437.847998,765.206535 437.847998,767.006535 439.413998,767.906535 440.979998,767.006535 440.979998,765.206535"/>
<polygon style="fill: #0000ff; opacity: 1.000000" clip-path="url(#5419046363373412500)" points = "477.933653,768.278571 476.367653,769.178571 476.367653,770.978571 477.933653,771.878571 479.499653,770.978571 479.499653,769.178571"/>
<polygon style="fill: #0000ff; opacity: 1.000000" clip-path="url(#5419046363373412500)" points = "439.413998,764.099041 437.847998,764.999041 437.847998,766.799041 439.413998,767.699041 440.979998,766.799041 440.979998,764.999041"/>
<polygon style="fill: #0000ff; opacity: 1.000000" clip-path="url(#5419046363373412500)" points = "426.574113,768.278571 425.008113,769.178571 425.008113,770.978571 426.574113,771.878571 428.140113,770.978571 428.140113,769.178571"/>
<polygon style="fill: #0000ff; opacity: 1.000000" clip-path="url(#5419046363373412500)" points = "426.574113,768.278571 425.008113,769.178571 425.008113,770.978571 426.574113,771.878571 428.140113,770.978571 428.140113,769.178571"/>
<polygon style="fill: #0000ff; opacity: 1.000000" clip-path="url(#5419046363373412500)" points = "452.253883,768.278571 450.687883,769.178571 450.687883,770.978571 452.253883,771.878571 453.819883,770.978571 453.819883,769.178571"/>
<polygon style="fill: #0000ff; opacity: 1.000000" clip-path="url(#5419046363373412500)" points = "432.994056,768.278571 431.428056,769.178571 431.428056,770.978571 432.994056,771.878571 434.560056,770.978571 434.560056,769.178571"/>
<polygon style="fill: #0000ff; opacity: 1.000000" clip-path="url(#5419046363373412500)" points = "432.994056,768.278571 431.428056,769.178571 431.428056,770.978571 432.994056,771.878571 434.560056,770.978571 434.560056,769.178571"/>
<polygon style="fill: #0000ff; opacity: 1.000000" clip-path="url(#5419046363373412500)" points = "439.413998,759.856660 437.847998,760.756660 437.847998,762.556660 439.413998,763.456660 440.979998,762.556660 440.979998,760.756660"/>
<polygon style="fill: #0000ff; opacity: 1.000000" clip-path="url(#5419046363373412500)" points = "426.574113,768.278571 425.008113,769.178571 425.008113,770.978571 426.574113,771.878571 428.140113,770.978571 428.140113,769.178571"/>
<polygon style="fill: #0000ff; opacity: 1.000000" clip-path="url(#5419046363373412500)" points = "426.574113,768.278571 425.008113,769.178571 425.008113,770.978571 426.574113,771.878571 428.140113,770.978571 428.140113,769.178571"/>
<polygon style="fill: #0000ff; opacity: 1.000000" clip-path="url(#5419046363373412500)" points = "445.833941,768.278571 444.267941,769.178571 444.267941,770.978571 445.833941,771.878571 447.399941,770.978571 447.399941,769.178571"/>
<polygon style="fill: #0000ff; opacity: 1.000000" clip-path="url(#5419046363373412500)" points = "439.413998,764.278163 437.847998,765.178163 437.847998,766.978163 439.413998,767.878163 440.979998,766.978163 440.979998,765.178163"/>
<polygon style="fill: #0000ff; opacity: 1.000000" clip-path="url(#5419046363373412500)" points = "445.833941,763.937043 444.267941,764.837043 444.267941,766.637043 445.833941,767.537043 447.399941,766.637043 447.399941,764.837043"/>
<polygon style="fill: #0000ff; opacity: 1.000000" clip-path="url(#5419046363373412500)" points = "445.833941,768.278571 444.267941,769.178571 444.267941,770.978571 445.833941,771.878571 447.399941,770.978571 447.399941,769.178571"/>
<polygon style="fill: #0000ff; opacity: 1.000000" clip-path="url(#5419046363373412500)" points = "445.833941,764.160504 444.267941,765.060504 444.267941,766.860504 445.833941,767.760504 447.399941,766.860504 447.399941,765.060504"/>
<polygon style="fill: #0000ff; opacity: 1.000000" clip-path="url(#5419046363373412500)" points = "420.154171,760.390443 418.588171,761.290443 418.588171,763.090443 420.154171,763.990443 421.720171,763.090443 421.720171,761.290443"/>
<polygon style="fill: #0000ff; opacity: 1.000000" clip-path="url(#5419046363373412500)" points = "432.994056,768.278571 431.428056,769.178571 431.428056,770.978571 432.994056,771.878571 434.560056,770.978571 434.560056,769.178571"/>
<polygon style="fill: #0000ff; opacity: 1.000000" clip-path="url(#5419046363373412500)" points = "426.574113,764.220186 425.008113,765.120186 425.008113,766.920186 426.574113,767.820186 428.140113,766.920186 428.140113,765.120186"/>
<path style="fill: none; stroke: #008000; stroke-width: 1.000000; stroke-linejoin: miter; stroke-linecap: square;  opacity: 1.000000" clip-path="url(#5419046363373412500)" d="M 311.657143,826.084286 L 1459.542857,154.015714 "/>
<g id="matplotlib.axis1">
<g id="xtick1">
<text style="font-size: 12.000000; font-family: Bitstream Vera Sans; font-style: Roman; fill: #000000;" x="204.976562" y="895.090000" >-0.2</text>
</g>
<g id="xtick2">
<path style="fill: none; stroke: #000000; stroke-width: 0.500000; stroke-linejoin: miter; stroke-linecap: butt;  opacity: 1.000000"  d="M 407.314286,882.090000 L 407.314286,878.090000"/>
<path style="fill: none; stroke: #000000; stroke-width: 0.500000; stroke-linejoin: miter; stroke-linecap: butt;  opacity: 1.000000"  d="M 407.314286,102.010000 L 407.314286,98.010000"/>
<text style="font-size: 12.000000; font-family: Bitstream Vera Sans; font-style: Roman; fill: #000000;" x="398.314286" y="895.090000" >0.0</text>
</g>
<g id="xtick3">
<path style="fill: none; stroke: #000000; stroke-width: 0.500000; stroke-linejoin: miter; stroke-linecap: butt;  opacity: 1.000000"  d="M 598.628571,882.090000 L 598.628571,878.090000"/>
<path style="fill: none; stroke: #000000; stroke-width: 0.500000; stroke-linejoin: miter; stroke-linecap: butt;  opacity: 1.000000"  d="M 598.628571,102.010000 L 598.628571,98.010000"/>
<text style="font-size: 12.000000; font-family: Bitstream Vera Sans; font-style: Roman; fill: #000000;" x="589.605134" y="895.090000" >0.2</text>
</g>
<g id="xtick4">
<path style="fill: none; stroke: #000000; stroke-width: 0.500000; stroke-linejoin: miter; stroke-linecap: butt;  opacity: 1.000000"  d="M 789.942857,882.090000 L 789.942857,878.090000"/>
<path style="fill: none; stroke: #000000; stroke-width: 0.500000; stroke-linejoin: miter; stroke-linecap: butt;  opacity: 1.000000"  d="M 789.942857,102.010000 L 789.942857,98.010000"/>
<text style="font-size: 12.000000; font-family: Bitstream Vera Sans; font-style: Roman; fill: #000000;" x="780.942857" y="895.090000" >0.4</text>
</g>
<g id="xtick5">
<path style="fill: none; stroke: #000000; stroke-width: 0.500000; stroke-linejoin: miter; stroke-linecap: butt;  opacity: 1.000000"  d="M 981.257143,882.090000 L 981.257143,878.090000"/>
<path style="fill: none; stroke: #000000; stroke-width: 0.500000; stroke-linejoin: miter; stroke-linecap: butt;  opacity: 1.000000"  d="M 981.257143,102.010000 L 981.257143,98.010000"/>
<text style="font-size: 12.000000; font-family: Bitstream Vera Sans; font-style: Roman; fill: #000000;" x="972.257143" y="895.090000" >0.6</text>
</g>
<g id="xtick6">
<path style="fill: none; stroke: #000000; stroke-width: 0.500000; stroke-linejoin: miter; stroke-linecap: butt;  opacity: 1.000000"  d="M 1172.571429,882.090000 L 1172.571429,878.090000"/>
<path style="fill: none; stroke: #000000; stroke-width: 0.500000; stroke-linejoin: miter; stroke-linecap: butt;  opacity: 1.000000"  d="M 1172.571429,102.010000 L 1172.571429,98.010000"/>
<text style="font-size: 12.000000; font-family: Bitstream Vera Sans; font-style: Roman; fill: #000000;" x="1163.571429" y="895.090000" >0.8</text>
</g>
<g id="xtick7">
<path style="fill: none; stroke: #000000; stroke-width: 0.500000; stroke-linejoin: miter; stroke-linecap: butt;  opacity: 1.000000"  d="M 1363.885714,882.090000 L 1363.885714,878.090000"/>
<path style="fill: none; stroke: #000000; stroke-width: 0.500000; stroke-linejoin: miter; stroke-linecap: butt;  opacity: 1.000000"  d="M 1363.885714,102.010000 L 1363.885714,98.010000"/>
<text style="font-size: 12.000000; font-family: Bitstream Vera Sans; font-style: Roman; fill: #000000;" x="1354.885714" y="895.090000" >1.0</text>
</g>
<g id="xtick8">
<text style="font-size: 12.000000; font-family: Bitstream Vera Sans; font-style: Roman; fill: #000000;" x="1546.176563" y="895.090000" >1.2</text>
</g>
<text style="font-size: 12.000000; font-family: Bitstream Vera Sans; font-style: Roman; fill: #000000;" x="862.600000" y="909.090000" >NA rate</text>
</g>
<g id="matplotlib.axis2">
<g id="ytick1">
<text style="font-size: 12.000000; font-family: Bitstream Vera Sans; font-style: Roman; fill: #000000;" x="189.953125" y="886.590000" >-0.2</text>
</g>
<g id="ytick2">
<path style="fill: none; stroke: #000000; stroke-width: 0.500000; stroke-linejoin: miter; stroke-linecap: butt;  opacity: 1.000000"  d="M 216.000000,770.078571 L 220.000000,770.078571"/>
<path style="fill: none; stroke: #000000; stroke-width: 0.500000; stroke-linejoin: miter; stroke-linecap: butt;  opacity: 1.000000"  d="M 1551.200000,770.078571 L 1555.200000,770.078571"/>
<text style="font-size: 12.000000; font-family: Bitstream Vera Sans; font-style: Roman; fill: #000000;" x="194.000000" y="774.578571" >0.0</text>
</g>
<g id="ytick3">
<path style="fill: none; stroke: #000000; stroke-width: 0.500000; stroke-linejoin: miter; stroke-linecap: butt;  opacity: 1.000000"  d="M 216.000000,658.067143 L 220.000000,658.067143"/>
<path style="fill: none; stroke: #000000; stroke-width: 0.500000; stroke-linejoin: miter; stroke-linecap: butt;  opacity: 1.000000"  d="M 1551.200000,658.067143 L 1555.200000,658.067143"/>
<text style="font-size: 12.000000; font-family: Bitstream Vera Sans; font-style: Roman; fill: #000000;" x="193.953125" y="662.567143" >0.2</text>
</g>
<g id="ytick4">
<path style="fill: none; stroke: #000000; stroke-width: 0.500000; stroke-linejoin: miter; stroke-linecap: butt;  opacity: 1.000000"  d="M 216.000000,546.055714 L 220.000000,546.055714"/>
<path style="fill: none; stroke: #000000; stroke-width: 0.500000; stroke-linejoin: miter; stroke-linecap: butt;  opacity: 1.000000"  d="M 1551.200000,546.055714 L 1555.200000,546.055714"/>
<text style="font-size: 12.000000; font-family: Bitstream Vera Sans; font-style: Roman; fill: #000000;" x="194.000000" y="550.555714" >0.4</text>
</g>
<g id="ytick5">
<path style="fill: none; stroke: #000000; stroke-width: 0.500000; stroke-linejoin: miter; stroke-linecap: butt;  opacity: 1.000000"  d="M 216.000000,434.044286 L 220.000000,434.044286"/>
<path style="fill: none; stroke: #000000; stroke-width: 0.500000; stroke-linejoin: miter; stroke-linecap: butt;  opacity: 1.000000"  d="M 1551.200000,434.044286 L 1555.200000,434.044286"/>
<text style="font-size: 12.000000; font-family: Bitstream Vera Sans; font-style: Roman; fill: #000000;" x="194.000000" y="438.544286" >0.6</text>
</g>
<g id="ytick6">
<path style="fill: none; stroke: #000000; stroke-width: 0.500000; stroke-linejoin: miter; stroke-linecap: butt;  opacity: 1.000000"  d="M 216.000000,322.032857 L 220.000000,322.032857"/>
<path style="fill: none; stroke: #000000; stroke-width: 0.500000; stroke-linejoin: miter; stroke-linecap: butt;  opacity: 1.000000"  d="M 1551.200000,322.032857 L 1555.200000,322.032857"/>
<text style="font-size: 12.000000; font-family: Bitstream Vera Sans; font-style: Roman; fill: #000000;" x="194.000000" y="326.532857" >0.8</text>
</g>
<g id="ytick7">
<path style="fill: none; stroke: #000000; stroke-width: 0.500000; stroke-linejoin: miter; stroke-linecap: butt;  opacity: 1.000000"  d="M 216.000000,210.021429 L 220.000000,210.021429"/>
<path style="fill: none; stroke: #000000; stroke-width: 0.500000; stroke-linejoin: miter; stroke-linecap: butt;  opacity: 1.000000"  d="M 1551.200000,210.021429 L 1555.200000,210.021429"/>
<text style="font-size: 12.000000; font-family: Bitstream Vera Sans; font-style: Roman; fill: #000000;" x="194.000000" y="214.521429" >1.0</text>
</g>
<g id="ytick8">
<text style="font-size: 12.000000; font-family: Bitstream Vera Sans; font-style: Roman; fill: #000000;" x="193.953125" y="102.510000" >1.2</text>
</g>
<text style="font-size: 12.000000; font-family: Bitstream Vera Sans; font-style: Roman; fill: #000000;" x="184.953125" y="534.550000" transform="translate(184.953125,534.550000) rotate(-90.0) translate(-184.953125,-534.550000)">mismatch rate</text>
</g>
<path style="fill: none; stroke: #000000; stroke-width: 1.000000; stroke-linejoin: miter; stroke-linecap: square;  opacity: 1.000000"  d="M 216.000000,882.090000 L 1555.200000,882.090000 L 1555.200000,98.010000 L 216.000000,98.010000 L 216.000000,882.090000 "/>
<text style="font-size: 8.000000; font-family: Bitstream Vera Sans; font-style: Roman; fill: #000000;" x="418.500000" y="208.800000" >DraII-1</text>
<text style="font-size: 8.000000; font-family: Bitstream Vera Sans; font-style: Roman; fill: #000000;" x="540.900000" y="396.000000" >NC-6</text>
<text style="font-size: 8.000000; font-family: Bitstream Vera Sans; font-style: Roman; fill: #000000;" x="430.200000" y="395.100000" >Sf-1</text>
<text style="font-size: 8.000000; font-family: Bitstream Vera Sans; font-style: Roman; fill: #000000;" x="417.600000" y="397.800000" >Pi-0</text>
<text style="font-size: 8.000000; font-family: Bitstream Vera Sans; font-style: Roman; fill: #000000;" x="447.300000" y="489.600000" >Lom1-1</text>
<text style="font-size: 8.000000; font-family: Bitstream Vera Sans; font-style: Roman; fill: #000000;" x="418.500000" y="490.500000" >Gul1-2</text>
<text style="font-size: 8.000000; font-family: Bitstream Vera Sans; font-style: Roman; fill: #000000;" x="441.000000" y="584.100000" >Duk</text>
<text style="font-size: 8.000000; font-family: Bitstream Vera Sans; font-style: Roman; fill: #000000;" x="434.700000" y="584.100000" >Stu1-1</text>
<text style="font-size: 8.000000; font-family: Bitstream Vera Sans; font-style: Roman; fill: #000000;" x="434.700000" y="584.100000" >Duk</text>
<text style="font-size: 8.000000; font-family: Bitstream Vera Sans; font-style: Roman; fill: #000000;" x="426.600000" y="585.000000" >PHW-34</text>
<text style="font-size: 8.000000; font-family: Bitstream Vera Sans; font-style: Roman; fill: #000000;" x="436.500000" y="601.200000" >Bor-1</text>
<text style="font-size: 8.000000; font-family: Bitstream Vera Sans; font-style: Roman; fill: #000000;" x="420.300000" y="626.400000" >Van-0</text>
<text style="font-size: 8.000000; font-family: Bitstream Vera Sans; font-style: Roman; fill: #000000;" x="424.800000" y="711.000000" >Bor-1</text>
<text style="font-size: 8.000000; font-family: Bitstream Vera Sans; font-style: Roman; fill: #000000;" x="426.600000" y="731.700000" >CIBC-17</text>
<text style="font-size: 8.000000; font-family: Bitstream Vera Sans; font-style: Roman; fill: #000000;" x="667.800000" y="772.200000" >L</text>
<text style="font-size: 8.000000; font-family: Bitstream Vera Sans; font-style: Roman; fill: #000000;" x="667.800000" y="772.200000" >Shahdara</text>
<text style="font-size: 8.000000; font-family: Bitstream Vera Sans; font-style: Roman; fill: #000000;" x="837.900000" y="771.300000" >Ren-11</text>
<text style="font-size: 8.000000; font-family: Bitstream Vera Sans; font-style: Roman; fill: #000000;" x="448.200000" y="739.800000" >CIBC-5</text>
<text style="font-size: 8.000000; font-family: Bitstream Vera Sans; font-style: Roman; fill: #000000;" x="454.500000" y="750.600000" >Ra-0</text>
<text style="font-size: 8.000000; font-family: Bitstream Vera Sans; font-style: Roman; fill: #000000;" x="454.500000" y="750.600000" >Ms-0</text>
<text style="font-size: 8.000000; font-family: Bitstream Vera Sans; font-style: Roman; fill: #000000;" x="459.000000" y="756.000000" >Ra-0</text>
<text style="font-size: 8.000000; font-family: Bitstream Vera Sans; font-style: Roman; fill: #000000;" x="452.700000" y="759.600000" >Ren-1</text>
<text style="font-size: 8.000000; font-family: Bitstream Vera Sans; font-style: Roman; fill: #000000;" x="452.700000" y="759.600000" >Tsu-1</text>
<text style="font-size: 14.000000; font-family: Bitstream Vera Sans; font-style: Roman; fill: #000000;" x="790.100000" y="82.328400" >149SNP vs 2010 strain-wise</text>
</g>
</g>
</svg>
