<?xml version="1.0" standalone="no"?>
<!DOCTYPE svg PUBLIC "-//W3C//DTD SVG 1.1//EN"
  "http://www.w3.org/Graphics/SVG/1.1/DTD/svg11.dtd">
<!-- Created with matplotlib (http://matplotlib.sourceforge.net/) -->
<svg width="585" height="441" viewBox="0 0 585 441"
   xmlns="http://www.w3.org/2000/svg"
   xmlns:xlink="http://www.w3.org/1999/xlink"
   version="1.1"
   id="svg1">
<g id="figure1">
<polygon style="fill: #ffffff; stroke: #ffffff; stroke-width: 1.000000; stroke-linejoin: miter; stroke-linecap: square;  opacity: 1.000000"  points = "0.000000,441.000000 0.000000,0.000000 585.000000,0.000000 585.000000,441.000000"/>
<g id="axes1">
<polygon style="fill: #ffffff; stroke: #000000; stroke-width: 1.000000; stroke-linejoin: miter; stroke-linecap: square;  opacity: 1.000000"  points = "73.125000,396.900000 73.125000,44.100000 526.500000,44.100000 526.500000,396.900000"/>
<defs>
    <clipPath id="7240474723315632415">
    <rect x="73.125000" y="44.100000" width="453.375000" height="352.800000"
    style="stroke: gray; fill: none;"/>
    </clipPath>
</defs>
<polygon style="fill: #0000ff; opacity: 1.000000" clip-path="url(#7240474723315632415)" points = "74.678263,67.047769 73.112263,67.947769 73.112263,69.747769 74.678263,70.647769 76.244263,69.747769 76.244263,67.947769"/>
<polygon style="fill: #0000ff; opacity: 1.000000" clip-path="url(#7240474723315632415)" points = "77.223510,234.655029 75.657510,235.555029 75.657510,237.355029 77.223510,238.255029 78.789510,237.355029 78.789510,235.555029"/>
<polygon style="fill: #0000ff; opacity: 1.000000" clip-path="url(#7240474723315632415)" points = "85.139437,258.623961 83.573437,259.523961 83.573437,261.323961 85.139437,262.223961 86.705438,261.323961 86.705438,259.523961"/>
<polygon style="fill: #0000ff; opacity: 1.000000" clip-path="url(#7240474723315632415)" points = "107.977750,201.157633 106.411750,202.057633 106.411750,203.857633 107.977750,204.757633 109.543750,203.857633 109.543750,202.057633"/>
<polygon style="fill: #0000ff; opacity: 1.000000" clip-path="url(#7240474723315632415)" points = "117.603808,362.788747 116.037808,363.688747 116.037808,365.488747 117.603808,366.388747 119.169808,365.488747 119.169808,363.688747"/>
<polygon style="fill: #0000ff; opacity: 1.000000" clip-path="url(#7240474723315632415)" points = "135.299941,365.019725 133.733941,365.919725 133.733941,367.719725 135.299941,368.619725 136.865941,367.719725 136.865941,365.919725"/>
<polygon style="fill: #0000ff; opacity: 1.000000" clip-path="url(#7240474723315632415)" points = "141.957299,270.389728 140.391299,271.289728 140.391299,273.089728 141.957299,273.989728 143.523299,273.089728 143.523299,271.289728"/>
<polygon style="fill: #0000ff; opacity: 1.000000" clip-path="url(#7240474723315632415)" points = "156.107133,312.288640 154.541133,313.188640 154.541133,314.988640 156.107133,315.888640 157.673133,314.988640 157.673133,313.188640"/>
<polygon style="fill: #0000ff; opacity: 1.000000" clip-path="url(#7240474723315632415)" points = "170.013958,371.880930 168.447958,372.780930 168.447958,374.580930 170.013958,375.480930 171.579958,374.580930 171.579958,372.780930"/>
<polygon style="fill: #0000ff; opacity: 1.000000" clip-path="url(#7240474723315632415)" points = "172.033290,243.552436 170.467290,244.452436 170.467290,246.252436 172.033290,247.152436 173.599290,246.252436 173.599290,244.452436"/>
<polygon style="fill: #0000ff; opacity: 1.000000" clip-path="url(#7240474723315632415)" points = "206.554169,277.124809 204.988169,278.024809 204.988169,279.824809 206.554169,280.724809 208.120169,279.824809 208.120169,278.024809"/>
<polygon style="fill: #0000ff; opacity: 1.000000" clip-path="url(#7240474723315632415)" points = "212.507890,211.001702 210.941890,211.901702 210.941890,213.701702 212.507890,214.601702 214.073890,213.701702 214.073890,211.901702"/>
<polygon style="fill: #0000ff; opacity: 1.000000" clip-path="url(#7240474723315632415)" points = "214.492765,209.409210 212.926765,210.309210 212.926765,212.109210 214.492765,213.009210 216.058765,212.109210 216.058765,210.309210"/>
<polygon style="fill: #0000ff; opacity: 1.000000" clip-path="url(#7240474723315632415)" points = "217.441517,307.176386 215.875517,308.076386 215.875517,309.876386 217.441517,310.776386 219.007517,309.876386 219.007517,308.076386"/>
<polygon style="fill: #0000ff; opacity: 1.000000" clip-path="url(#7240474723315632415)" points = "221.219037,313.930187 219.653037,314.830187 219.653037,316.630187 221.219037,317.530187 222.785037,316.630187 222.785037,314.830187"/>
<polygon style="fill: #0000ff; opacity: 1.000000" clip-path="url(#7240474723315632415)" points = "221.540027,267.992872 219.974027,268.892872 219.974027,270.692872 221.540027,271.592872 223.106027,270.692872 223.106027,268.892872"/>
<polygon style="fill: #0000ff; opacity: 1.000000" clip-path="url(#7240474723315632415)" points = "222.265426,341.907951 220.699426,342.807951 220.699426,344.607951 222.265426,345.507951 223.831426,344.607951 223.831426,342.807951"/>
<polygon style="fill: #0000ff; opacity: 1.000000" clip-path="url(#7240474723315632415)" points = "227.810203,176.840278 226.244203,177.740278 226.244203,179.540278 227.810203,180.440278 229.376203,179.540278 229.376203,177.740278"/>
<polygon style="fill: #0000ff; opacity: 1.000000" clip-path="url(#7240474723315632415)" points = "229.894821,161.350856 228.328821,162.250856 228.328821,164.050856 229.894821,164.950856 231.460821,164.050856 231.460821,162.250856"/>
<polygon style="fill: #0000ff; opacity: 1.000000" clip-path="url(#7240474723315632415)" points = "229.924744,320.772672 228.358744,321.672672 228.358744,323.472672 229.924744,324.372672 231.490744,323.472672 231.490744,321.672672"/>
<polygon style="fill: #0000ff; opacity: 1.000000" clip-path="url(#7240474723315632415)" points = "233.952527,230.754401 232.386527,231.654401 232.386527,233.454401 233.952527,234.354401 235.518527,233.454401 235.518527,231.654401"/>
<polygon style="fill: #0000ff; opacity: 1.000000" clip-path="url(#7240474723315632415)" points = "234.846583,337.293354 233.280583,338.193354 233.280583,339.993354 234.846583,340.893354 236.412583,339.993354 236.412583,338.193354"/>
<polygon style="fill: #0000ff; opacity: 1.000000" clip-path="url(#7240474723315632415)" points = "240.703281,288.689515 239.137281,289.589515 239.137281,291.389515 240.703281,292.289515 242.269281,291.389515 242.269281,289.589515"/>
<polygon style="fill: #0000ff; opacity: 1.000000" clip-path="url(#7240474723315632415)" points = "248.832295,242.595109 247.266295,243.495109 247.266295,245.295109 248.832295,246.195109 250.398295,245.295109 250.398295,243.495109"/>
<polygon style="fill: #0000ff; opacity: 1.000000" clip-path="url(#7240474723315632415)" points = "249.811585,229.037079 248.245585,229.937079 248.245585,231.737079 249.811585,232.637079 251.377585,231.737079 251.377585,229.937079"/>
<polygon style="fill: #0000ff; opacity: 1.000000" clip-path="url(#7240474723315632415)" points = "253.332495,354.040416 251.766495,354.940416 251.766495,356.740416 253.332495,357.640416 254.898495,356.740416 254.898495,354.940416"/>
<polygon style="fill: #0000ff; opacity: 1.000000" clip-path="url(#7240474723315632415)" points = "256.523348,332.427594 254.957348,333.327594 254.957348,335.127594 256.523348,336.027594 258.089348,335.127594 258.089348,333.327594"/>
<polygon style="fill: #0000ff; opacity: 1.000000" clip-path="url(#7240474723315632415)" points = "266.433219,259.640764 264.867219,260.540764 264.867219,262.340764 266.433219,263.240764 267.999219,262.340764 267.999219,260.540764"/>
<polygon style="fill: #0000ff; opacity: 1.000000" clip-path="url(#7240474723315632415)" points = "273.593824,307.944870 272.027824,308.844870 272.027824,310.644870 273.593824,311.544870 275.159824,310.644870 275.159824,308.844870"/>
<polygon style="fill: #0000ff; opacity: 1.000000" clip-path="url(#7240474723315632415)" points = "278.032365,339.308008 276.466365,340.208008 276.466365,342.008008 278.032365,342.908008 279.598365,342.008008 279.598365,340.208008"/>
<polygon style="fill: #0000ff; opacity: 1.000000" clip-path="url(#7240474723315632415)" points = "279.776045,378.209744 278.210045,379.109744 278.210045,380.909744 279.776045,381.809744 281.342045,380.909744 281.342045,379.109744"/>
<polygon style="fill: #0000ff; opacity: 1.000000" clip-path="url(#7240474723315632415)" points = "290.046803,283.657380 288.480803,284.557380 288.480803,286.357380 290.046803,287.257380 291.612802,286.357380 291.612802,284.557380"/>
<polygon style="fill: #0000ff; opacity: 1.000000" clip-path="url(#7240474723315632415)" points = "296.793929,166.448243 295.227929,167.348243 295.227929,169.148243 296.793929,170.048243 298.359929,169.148243 298.359929,167.348243"/>
<polygon style="fill: #0000ff; opacity: 1.000000" clip-path="url(#7240474723315632415)" points = "303.029649,170.295302 301.463649,171.195302 301.463649,172.995302 303.029649,173.895302 304.595649,172.995302 304.595649,171.195302"/>
<polygon style="fill: #0000ff; opacity: 1.000000" clip-path="url(#7240474723315632415)" points = "303.396883,203.898964 301.830883,204.798964 301.830883,206.598964 303.396883,207.498964 304.962883,206.598964 304.962883,204.798964"/>
<polygon style="fill: #0000ff; opacity: 1.000000" clip-path="url(#7240474723315632415)" points = "307.988665,346.682614 306.422665,347.582614 306.422665,349.382614 307.988665,350.282614 309.554665,349.382614 309.554665,347.582614"/>
<polygon style="fill: #0000ff; opacity: 1.000000" clip-path="url(#7240474723315632415)" points = "312.540550,329.513778 310.974550,330.413778 310.974550,332.213778 312.540550,333.113778 314.106550,332.213778 314.106550,330.413778"/>
<polygon style="fill: #0000ff; opacity: 1.000000" clip-path="url(#7240474723315632415)" points = "317.900349,295.571958 316.334349,296.471958 316.334349,298.271958 317.900349,299.171958 319.466349,298.271958 319.466349,296.471958"/>
<polygon style="fill: #0000ff; opacity: 1.000000" clip-path="url(#7240474723315632415)" points = "322.699777,247.344884 321.133777,248.244884 321.133777,250.044884 322.699777,250.944884 324.265777,250.044884 324.265777,248.244884"/>
<polygon style="fill: #0000ff; opacity: 1.000000" clip-path="url(#7240474723315632415)" points = "329.064255,317.830500 327.498255,318.730500 327.498255,320.530500 329.064255,321.430500 330.630255,320.530500 330.630255,318.730500"/>
<polygon style="fill: #0000ff; opacity: 1.000000" clip-path="url(#7240474723315632415)" points = "330.849646,234.749308 329.283646,235.649308 329.283646,237.449308 330.849646,238.349308 332.415646,237.449308 332.415646,235.649308"/>
<polygon style="fill: #0000ff; opacity: 1.000000" clip-path="url(#7240474723315632415)" points = "339.602504,245.013879 338.036504,245.913879 338.036504,247.713879 339.602504,248.613879 341.168503,247.713879 341.168503,245.913879"/>
<polygon style="fill: #0000ff; opacity: 1.000000" clip-path="url(#7240474723315632415)" points = "341.821321,368.076261 340.255321,368.976261 340.255321,370.776261 341.821321,371.676261 343.387321,370.776261 343.387321,368.976261"/>
<polygon style="fill: #0000ff; opacity: 1.000000" clip-path="url(#7240474723315632415)" points = "342.035314,302.601438 340.469314,303.501438 340.469314,305.301438 342.035314,306.201438 343.601314,305.301438 343.601314,303.501438"/>
<polygon style="fill: #0000ff; opacity: 1.000000" clip-path="url(#7240474723315632415)" points = "343.475233,207.901322 341.909233,208.801322 341.909233,210.601322 343.475233,211.501322 345.041233,210.601322 345.041233,208.801322"/>
<polygon style="fill: #0000ff; opacity: 1.000000" clip-path="url(#7240474723315632415)" points = "347.740585,355.878849 346.174585,356.778849 346.174585,358.578849 347.740585,359.478849 349.306585,358.578849 349.306585,356.778849"/>
<polygon style="fill: #0000ff; opacity: 1.000000" clip-path="url(#7240474723315632415)" points = "357.289569,288.399225 355.723569,289.299225 355.723569,291.099225 357.289569,291.999225 358.855569,291.099225 358.855569,289.299225"/>
<polygon style="fill: #0000ff; opacity: 1.000000" clip-path="url(#7240474723315632415)" points = "357.456411,332.611786 355.890411,333.511786 355.890411,335.311786 357.456411,336.211786 359.022411,335.311786 359.022411,333.511786"/>
<polygon style="fill: #0000ff; opacity: 1.000000" clip-path="url(#7240474723315632415)" points = "370.980587,358.713141 369.414587,359.613141 369.414587,361.413141 370.980587,362.313141 372.546587,361.413141 372.546587,359.613141"/>
<polygon style="fill: #0000ff; opacity: 1.000000" clip-path="url(#7240474723315632415)" points = "382.967822,348.643670 381.401822,349.543670 381.401822,351.343670 382.967822,352.243670 384.533822,351.343670 384.533822,349.543670"/>
<polygon style="fill: #0000ff; opacity: 1.000000" clip-path="url(#7240474723315632415)" points = "390.970798,251.701389 389.404798,252.601389 389.404798,254.401389 390.970798,255.301389 392.536798,254.401389 392.536798,252.601389"/>
<polygon style="fill: #0000ff; opacity: 1.000000" clip-path="url(#7240474723315632415)" points = "405.663775,237.665585 404.097775,238.565585 404.097775,240.365585 405.663775,241.265585 407.229775,240.365585 407.229775,238.565585"/>
<polygon style="fill: #0000ff; opacity: 1.000000" clip-path="url(#7240474723315632415)" points = "412.307532,212.596950 410.741532,213.496950 410.741532,215.296950 412.307532,216.196950 413.873532,215.296950 413.873532,213.496950"/>
<polygon style="fill: #0000ff; opacity: 1.000000" clip-path="url(#7240474723315632415)" points = "429.409744,328.303885 427.843744,329.203885 427.843744,331.003885 429.409744,331.903885 430.975744,331.003885 430.975744,329.203885"/>
<polygon style="fill: #0000ff; opacity: 1.000000" clip-path="url(#7240474723315632415)" points = "433.096589,207.460710 431.530589,208.360710 431.530589,210.160710 433.096589,211.060710 434.662589,210.160710 434.662589,208.360710"/>
<polygon style="fill: #0000ff; opacity: 1.000000" clip-path="url(#7240474723315632415)" points = "435.315406,264.158446 433.749407,265.058446 433.749407,266.858446 435.315406,267.758446 436.881406,266.858446 436.881406,265.058446"/>
<polygon style="fill: #0000ff; opacity: 1.000000" clip-path="url(#7240474723315632415)" points = "436.379931,364.653158 434.813931,365.553158 434.813931,367.353158 436.379931,368.253158 437.945931,367.353158 437.945931,365.553158"/>
<polygon style="fill: #0000ff; opacity: 1.000000" clip-path="url(#7240474723315632415)" points = "440.022346,158.523667 438.456346,159.423667 438.456346,161.223667 440.022346,162.123667 441.588346,161.223667 441.588346,159.423667"/>
<polygon style="fill: #0000ff; opacity: 1.000000" clip-path="url(#7240474723315632415)" points = "451.211641,361.076751 449.645641,361.976751 449.645641,363.776751 451.211641,364.676751 452.777641,363.776751 452.777641,361.976751"/>
<polygon style="fill: #0000ff; opacity: 1.000000" clip-path="url(#7240474723315632415)" points = "453.360638,271.701507 451.794638,272.601507 451.794638,274.401507 453.360638,275.301507 454.926638,274.401507 454.926638,272.601507"/>
<polygon style="fill: #0000ff; opacity: 1.000000" clip-path="url(#7240474723315632415)" points = "456.128946,306.250627 454.562946,307.150627 454.562946,308.950627 456.128946,309.850627 457.694946,308.950627 457.694946,307.150627"/>
<polygon style="fill: #0000ff; opacity: 1.000000" clip-path="url(#7240474723315632415)" points = "470.232535,250.831032 468.666536,251.731032 468.666536,253.531032 470.232535,254.431032 471.798535,253.531032 471.798535,251.731032"/>
<polygon style="fill: #0000ff; opacity: 1.000000" clip-path="url(#7240474723315632415)" points = "470.305982,241.637471 468.739982,242.537471 468.739982,244.337471 470.305982,245.237471 471.871982,244.337471 471.871982,242.537471"/>
<polygon style="fill: #0000ff; opacity: 1.000000" clip-path="url(#7240474723315632415)" points = "471.232681,289.716445 469.666681,290.616445 469.666681,292.416445 471.232681,293.316445 472.798681,292.416445 472.798681,290.616445"/>
<polygon style="fill: #0000ff; opacity: 1.000000" clip-path="url(#7240474723315632415)" points = "473.031673,206.876971 471.465673,207.776971 471.465673,209.576971 473.031673,210.476971 474.597673,209.576971 474.597673,207.776971"/>
<polygon style="fill: #0000ff; opacity: 1.000000" clip-path="url(#7240474723315632415)" points = "483.752178,183.069716 482.186178,183.969716 482.186178,185.769716 483.752178,186.669716 485.318178,185.769716 485.318178,183.969716"/>
<polygon style="fill: #0000ff; opacity: 1.000000" clip-path="url(#7240474723315632415)" points = "488.151729,218.331425 486.585729,219.231425 486.585729,221.031425 488.151729,221.931425 489.717729,221.031425 489.717729,219.231425"/>
<polygon style="fill: #0000ff; opacity: 1.000000" clip-path="url(#7240474723315632415)" points = "498.889462,283.495501 497.323463,284.395501 497.323463,286.195501 498.889462,287.095501 500.455462,286.195501 500.455462,284.395501"/>
<polygon style="fill: #0000ff; opacity: 1.000000" clip-path="url(#7240474723315632415)" points = "509.281724,319.615983 507.715724,320.515983 507.715724,322.315983 509.281724,323.215983 510.847724,322.315983 510.847724,320.515983"/>
<polygon style="fill: #0000ff; opacity: 1.000000" clip-path="url(#7240474723315632415)" points = "524.982101,256.129742 523.416100,257.029742 523.416100,258.829742 524.982101,259.729742 526.548101,258.829742 526.548101,257.029742"/>
<path style="fill: none; stroke: #008000; stroke-width: 0.500000; stroke-linejoin: miter; stroke-linecap: square;  opacity: 1.000000" clip-path="url(#7240474723315632415)" d="M 74.678263,218.454812 L 77.223510,220.692642 L 85.139437,227.374744 L 107.977750,244.384014 L 117.603808,250.590104 L 135.299941,260.598550 L 141.957299,263.914454 L 156.107133,270.188134 L 170.013958,275.378204 L 172.033290,276.054960 L 206.554169,284.844291 L 212.507890,285.866885 L 214.492765,286.178016 L 217.441517,286.613320 L 221.219037,287.124777 L 221.540027,287.165880 L 222.265426,287.257422 L 227.810203,287.896306 L 229.894821,288.109162 L 229.924744,288.112110 L 233.952527,288.481718 L 234.846583,288.556501 L 240.703281,288.982729 L 248.832295,289.397535 L 249.811585,289.434128 L 253.332495,289.542669 L 256.523348,289.610521 L 266.433219,289.644236 L 273.593824,289.511077 L 278.032365,289.366280 L 279.776045,289.296891 L 290.046803,288.752523 L 296.793929,288.276641 L 303.029649,287.760387 L 303.396883,287.727814 L 307.988665,287.301089 L 312.540550,286.844004 L 317.900349,286.265152 L 322.699777,285.712166 L 329.064255,284.932695 L 330.849646,284.705276 L 339.602504,283.540593 L 341.821321,283.233362 L 342.035314,283.203496 L 343.475233,283.001496 L 347.740585,282.393027 L 357.289569,280.983512 L 357.456411,280.958387 L 370.980587,278.880769 L 382.967822,277.000564 L 390.970798,275.744840 L 405.663775,273.481153 L 412.307532,272.490673 L 429.409744,270.093440 L 433.096589,269.613182 L 435.315406,269.331511 L 436.379931,269.198427 L 440.022346,268.753565 L 451.211641,267.498417 L 453.360638,267.278400 L 456.128946,267.005780 L 470.232535,265.822428 L 470.305982,265.817230 L 471.232681,265.752557 L 473.031673,265.631874 L 483.752178,265.052569 L 488.151729,264.888305 L 498.889462,264.682442 L 509.281724,264.767397 L 524.982101,265.481627 "/>
<g id="matplotlib.axis1">
<g id="xtick1">
<text style="font-size: 9.996000; font-family: Bitstream Vera Serif; font-style: Roman; fill: #000000;" x="70.625000" y="406.900000" >0</text>
</g>
<g id="xtick2">
<path style="fill: none; stroke: #000000; stroke-width: 0.500000; stroke-linejoin: miter; stroke-linecap: butt;  opacity: 1.000000"  d="M 163.800000,396.900000 L 163.800000,391.900000"/>
<path style="fill: none; stroke: #000000; stroke-width: 0.500000; stroke-linejoin: miter; stroke-linecap: butt;  opacity: 1.000000"  d="M 163.800000,49.100000 L 163.800000,44.100000"/>
<text style="font-size: 9.996000; font-family: Bitstream Vera Serif; font-style: Roman; fill: #000000;" x="162.300000" y="406.900000" >1</text>
</g>
<g id="xtick3">
<path style="fill: none; stroke: #000000; stroke-width: 0.500000; stroke-linejoin: miter; stroke-linecap: butt;  opacity: 1.000000"  d="M 254.475000,396.900000 L 254.475000,391.900000"/>
<path style="fill: none; stroke: #000000; stroke-width: 0.500000; stroke-linejoin: miter; stroke-linecap: butt;  opacity: 1.000000"  d="M 254.475000,49.100000 L 254.475000,44.100000"/>
<text style="font-size: 9.996000; font-family: Bitstream Vera Serif; font-style: Roman; fill: #000000;" x="251.975000" y="406.900000" >2</text>
</g>
<g id="xtick4">
<path style="fill: none; stroke: #000000; stroke-width: 0.500000; stroke-linejoin: miter; stroke-linecap: butt;  opacity: 1.000000"  d="M 345.150000,396.900000 L 345.150000,391.900000"/>
<path style="fill: none; stroke: #000000; stroke-width: 0.500000; stroke-linejoin: miter; stroke-linecap: butt;  opacity: 1.000000"  d="M 345.150000,49.100000 L 345.150000,44.100000"/>
<text style="font-size: 9.996000; font-family: Bitstream Vera Serif; font-style: Roman; fill: #000000;" x="342.650000" y="406.900000" >3</text>
</g>
<g id="xtick5">
<path style="fill: none; stroke: #000000; stroke-width: 0.500000; stroke-linejoin: miter; stroke-linecap: butt;  opacity: 1.000000"  d="M 435.825000,396.900000 L 435.825000,391.900000"/>
<path style="fill: none; stroke: #000000; stroke-width: 0.500000; stroke-linejoin: miter; stroke-linecap: butt;  opacity: 1.000000"  d="M 435.825000,49.100000 L 435.825000,44.100000"/>
<text style="font-size: 9.996000; font-family: Bitstream Vera Serif; font-style: Roman; fill: #000000;" x="433.325000" y="406.900000" >4</text>
</g>
<g id="xtick6">
<text style="font-size: 9.996000; font-family: Bitstream Vera Serif; font-style: Roman; fill: #000000;" x="524.000000" y="406.900000" >5</text>
</g>
<text style="font-size: 12.000000; font-family: Bitstream Vera Serif; font-style: Roman; fill: #000000;" x="273.812500" y="420.900000" >Distance</text>
<text style="font-size: 9.996000; font-family: Bitstream Vera Serif; font-style: Roman; fill: #000000;" x="495.500000" y="416.900000" >x1e+5</text>
</g>
<g id="matplotlib.axis2">
<g id="ytick1">
<text style="font-size: 9.996000; font-family: Bitstream Vera Serif; font-style: Roman; fill: #000000;" x="47.125000" y="400.400000" >-0.10</text>
</g>
<g id="ytick2">
<path style="fill: none; stroke: #000000; stroke-width: 0.500000; stroke-linejoin: miter; stroke-linecap: butt;  opacity: 1.000000"  d="M 73.125000,338.100000 L 78.125000,338.100000"/>
<path style="fill: none; stroke: #000000; stroke-width: 0.500000; stroke-linejoin: miter; stroke-linecap: butt;  opacity: 1.000000"  d="M 521.500000,338.100000 L 526.500000,338.100000"/>
<text style="font-size: 9.996000; font-family: Bitstream Vera Serif; font-style: Roman; fill: #000000;" x="47.125000" y="341.600000" >-0.05</text>
</g>
<g id="ytick3">
<path style="fill: none; stroke: #000000; stroke-width: 0.500000; stroke-linejoin: miter; stroke-linecap: butt;  opacity: 1.000000"  d="M 73.125000,279.300000 L 78.125000,279.300000"/>
<path style="fill: none; stroke: #000000; stroke-width: 0.500000; stroke-linejoin: miter; stroke-linecap: butt;  opacity: 1.000000"  d="M 521.500000,279.300000 L 526.500000,279.300000"/>
<text style="font-size: 9.996000; font-family: Bitstream Vera Serif; font-style: Roman; fill: #000000;" x="50.125000" y="282.800000" >0.00</text>
</g>
<g id="ytick4">
<path style="fill: none; stroke: #000000; stroke-width: 0.500000; stroke-linejoin: miter; stroke-linecap: butt;  opacity: 1.000000"  d="M 73.125000,220.500000 L 78.125000,220.500000"/>
<path style="fill: none; stroke: #000000; stroke-width: 0.500000; stroke-linejoin: miter; stroke-linecap: butt;  opacity: 1.000000"  d="M 521.500000,220.500000 L 526.500000,220.500000"/>
<text style="font-size: 9.996000; font-family: Bitstream Vera Serif; font-style: Roman; fill: #000000;" x="50.125000" y="224.000000" >0.05</text>
</g>
<g id="ytick5">
<path style="fill: none; stroke: #000000; stroke-width: 0.500000; stroke-linejoin: miter; stroke-linecap: butt;  opacity: 1.000000"  d="M 73.125000,161.700000 L 78.125000,161.700000"/>
<path style="fill: none; stroke: #000000; stroke-width: 0.500000; stroke-linejoin: miter; stroke-linecap: butt;  opacity: 1.000000"  d="M 521.500000,161.700000 L 526.500000,161.700000"/>
<text style="font-size: 9.996000; font-family: Bitstream Vera Serif; font-style: Roman; fill: #000000;" x="50.125000" y="165.200000" >0.10</text>
</g>
<g id="ytick6">
<path style="fill: none; stroke: #000000; stroke-width: 0.500000; stroke-linejoin: miter; stroke-linecap: butt;  opacity: 1.000000"  d="M 73.125000,102.900000 L 78.125000,102.900000"/>
<path style="fill: none; stroke: #000000; stroke-width: 0.500000; stroke-linejoin: miter; stroke-linecap: butt;  opacity: 1.000000"  d="M 521.500000,102.900000 L 526.500000,102.900000"/>
<text style="font-size: 9.996000; font-family: Bitstream Vera Serif; font-style: Roman; fill: #000000;" x="50.125000" y="106.400000" >0.15</text>
</g>
<g id="ytick7">
<text style="font-size: 9.996000; font-family: Bitstream Vera Serif; font-style: Roman; fill: #000000;" x="50.125000" y="47.600000" >0.20</text>
</g>
<text style="font-size: 12.000000; font-family: Bitstream Vera Serif; font-style: Roman; fill: #000000;" x="42.125000" y="224.500000" transform="translate(42.125000,224.500000) rotate(-90.0) translate(-42.125000,-224.500000)">D</text>
</g>
<path style="fill: none; stroke: #000000; stroke-width: 1.000000; stroke-linejoin: miter; stroke-linecap: square;  opacity: 1.000000"  d="M 73.125000,396.900000 L 526.500000,396.900000 L 526.500000,44.100000 L 73.125000,44.100000 L 73.125000,396.900000 "/>
<text style="font-size: 14.400000; font-family: Bitstream Vera Serif; font-style: Roman; fill: #000000;" x="267.312500" y="37.044000" >LD decay</text>
</g>
</g>
</svg>
