<?xml version="1.0" standalone="no"?>
<!DOCTYPE svg PUBLIC "-//W3C//DTD SVG 1.1//EN"
  "http://www.w3.org/Graphics/SVG/1.1/DTD/svg11.dtd">
<!-- Created with matplotlib (http://matplotlib.sourceforge.net/) -->
<svg width="585" height="441" viewBox="0 0 585 441"
   xmlns="http://www.w3.org/2000/svg"
   xmlns:xlink="http://www.w3.org/1999/xlink"
   version="1.1"
   id="svg1">
<g id="figure1">
<polygon style="fill: #ffffff; stroke: #ffffff; stroke-width: 1.000000; stroke-linejoin: miter; stroke-linecap: square;  opacity: 1.000000"  points = "0.000000,441.000000 0.000000,0.000000 585.000000,0.000000 585.000000,441.000000"/>
<g id="axes1">
<polygon style="fill: #ffffff; stroke: #000000; stroke-width: 1.000000; stroke-linejoin: miter; stroke-linecap: square;  opacity: 1.000000"  points = "73.125000,396.900000 73.125000,44.100000 526.500000,44.100000 526.500000,396.900000"/>
<defs>
    <clipPath id="7240474723315632415">
    <rect x="73.125000" y="44.100000" width="453.375000" height="352.800000"
    style="stroke: gray; fill: none;"/>
    </clipPath>
</defs>
<polygon style="fill: #0000ff; opacity: 1.000000" clip-path="url(#7240474723315632415)" points = "74.678263,101.100000 73.112263,102.000000 73.112263,103.800000 74.678263,104.700000 76.244263,103.800000 76.244263,102.000000"/>
<polygon style="fill: #0000ff; opacity: 1.000000" clip-path="url(#7240474723315632415)" points = "77.223510,173.411881 75.657510,174.311881 75.657510,176.111881 77.223510,177.011881 78.789510,176.111881 78.789510,174.311881"/>
<polygon style="fill: #0000ff; opacity: 1.000000" clip-path="url(#7240474723315632415)" points = "85.139437,386.580237 83.573437,387.480237 83.573437,389.280237 85.139437,390.180237 86.705438,389.280237 86.705438,387.480237"/>
<polygon style="fill: #0000ff; opacity: 1.000000" clip-path="url(#7240474723315632415)" points = "107.977750,136.102735 106.411750,137.002735 106.411750,138.802735 107.977750,139.702735 109.543750,138.802735 109.543750,137.002735"/>
<polygon style="fill: #0000ff; opacity: 1.000000" clip-path="url(#7240474723315632415)" points = "117.603808,104.958312 116.037808,105.858312 116.037808,107.658312 117.603808,108.558312 119.169808,107.658312 119.169808,105.858312"/>
<polygon style="fill: #0000ff; opacity: 1.000000" clip-path="url(#7240474723315632415)" points = "135.299941,242.902268 133.733941,243.802268 133.733941,245.602268 135.299941,246.502268 136.865941,245.602268 136.865941,243.802268"/>
<polygon style="fill: #0000ff; opacity: 1.000000" clip-path="url(#7240474723315632415)" points = "170.013958,150.009294 168.447958,150.909294 168.447958,152.709294 170.013958,153.609294 171.579958,152.709294 171.579958,150.909294"/>
<polygon style="fill: #0000ff; opacity: 1.000000" clip-path="url(#7240474723315632415)" points = "172.033290,178.580081 170.467290,179.480081 170.467290,181.280081 172.033290,182.180081 173.599290,181.280081 173.599290,179.480081"/>
<polygon style="fill: #0000ff; opacity: 1.000000" clip-path="url(#7240474723315632415)" points = "206.554169,309.822339 204.988169,310.722339 204.988169,312.522339 206.554169,313.422339 208.120169,312.522339 208.120169,310.722339"/>
<polygon style="fill: #0000ff; opacity: 1.000000" clip-path="url(#7240474723315632415)" points = "212.507890,198.293805 210.941890,199.193805 210.941890,200.993805 212.507890,201.893805 214.073890,200.993805 214.073890,199.193805"/>
<polygon style="fill: #0000ff; opacity: 1.000000" clip-path="url(#7240474723315632415)" points = "214.492765,129.237094 212.926765,130.137094 212.926765,131.937094 214.492765,132.837094 216.058765,131.937094 216.058765,130.137094"/>
<polygon style="fill: #0000ff; opacity: 1.000000" clip-path="url(#7240474723315632415)" points = "217.441517,344.191340 215.875517,345.091340 215.875517,346.891340 217.441517,347.791340 219.007517,346.891340 219.007517,345.091340"/>
<polygon style="fill: #0000ff; opacity: 1.000000" clip-path="url(#7240474723315632415)" points = "221.219037,243.902821 219.653037,244.802821 219.653037,246.602821 221.219037,247.502821 222.785037,246.602821 222.785037,244.802821"/>
<polygon style="fill: #0000ff; opacity: 1.000000" clip-path="url(#7240474723315632415)" points = "221.540027,288.343493 219.974027,289.243493 219.974027,291.043493 221.540027,291.943493 223.106027,291.043493 223.106027,289.243493"/>
<polygon style="fill: #0000ff; opacity: 1.000000" clip-path="url(#7240474723315632415)" points = "222.265426,202.943664 220.699426,203.843664 220.699426,205.643664 222.265426,206.543664 223.831426,205.643664 223.831426,203.843664"/>
<polygon style="fill: #0000ff; opacity: 1.000000" clip-path="url(#7240474723315632415)" points = "227.810203,121.934316 226.244203,122.834316 226.244203,124.634316 227.810203,125.534316 229.376203,124.634316 229.376203,122.834316"/>
<polygon style="fill: #0000ff; opacity: 1.000000" clip-path="url(#7240474723315632415)" points = "229.894821,134.363964 228.328821,135.263964 228.328821,137.063964 229.894821,137.963964 231.460821,137.063964 231.460821,135.263964"/>
<polygon style="fill: #0000ff; opacity: 1.000000" clip-path="url(#7240474723315632415)" points = "229.924744,228.007782 228.358744,228.907782 228.358744,230.707782 229.924744,231.607782 231.490744,230.707782 231.490744,228.907782"/>
<polygon style="fill: #0000ff; opacity: 1.000000" clip-path="url(#7240474723315632415)" points = "233.952527,186.884995 232.386527,187.784995 232.386527,189.584995 233.952527,190.484995 235.518527,189.584995 235.518527,187.784995"/>
<polygon style="fill: #0000ff; opacity: 1.000000" clip-path="url(#7240474723315632415)" points = "234.846583,177.070813 233.280583,177.970813 233.280583,179.770813 234.846583,180.670813 236.412583,179.770813 236.412583,177.970813"/>
<polygon style="fill: #0000ff; opacity: 1.000000" clip-path="url(#7240474723315632415)" points = "240.703281,205.769342 239.137281,206.669342 239.137281,208.469342 240.703281,209.369342 242.269281,208.469342 242.269281,206.669342"/>
<polygon style="fill: #0000ff; opacity: 1.000000" clip-path="url(#7240474723315632415)" points = "248.832295,226.326776 247.266295,227.226776 247.266295,229.026776 248.832295,229.926776 250.398295,229.026776 250.398295,227.226776"/>
<polygon style="fill: #0000ff; opacity: 1.000000" clip-path="url(#7240474723315632415)" points = "249.811585,315.688256 248.245585,316.588256 248.245585,318.388256 249.811585,319.288256 251.377585,318.388256 251.377585,316.588256"/>
<polygon style="fill: #0000ff; opacity: 1.000000" clip-path="url(#7240474723315632415)" points = "253.332495,188.633654 251.766495,189.533654 251.766495,191.333654 253.332495,192.233654 254.898495,191.333654 254.898495,189.533654"/>
<polygon style="fill: #0000ff; opacity: 1.000000" clip-path="url(#7240474723315632415)" points = "256.523348,299.527780 254.957348,300.427780 254.957348,302.227780 256.523348,303.127780 258.089348,302.227780 258.089348,300.427780"/>
<polygon style="fill: #0000ff; opacity: 1.000000" clip-path="url(#7240474723315632415)" points = "266.433219,353.300584 264.867219,354.200584 264.867219,356.000584 266.433219,356.900584 267.999219,356.000584 267.999219,354.200584"/>
<polygon style="fill: #0000ff; opacity: 1.000000" clip-path="url(#7240474723315632415)" points = "273.593824,308.452999 272.027824,309.352999 272.027824,311.152999 273.593824,312.052999 275.159824,311.152999 275.159824,309.352999"/>
<polygon style="fill: #0000ff; opacity: 1.000000" clip-path="url(#7240474723315632415)" points = "278.032365,216.567939 276.466365,217.467939 276.466365,219.267939 278.032365,220.167939 279.598365,219.267939 279.598365,217.467939"/>
<polygon style="fill: #0000ff; opacity: 1.000000" clip-path="url(#7240474723315632415)" points = "279.776045,179.695453 278.210045,180.595453 278.210045,182.395453 279.776045,183.295453 281.342045,182.395453 281.342045,180.595453"/>
<polygon style="fill: #0000ff; opacity: 1.000000" clip-path="url(#7240474723315632415)" points = "290.046803,303.722892 288.480803,304.622892 288.480803,306.422892 290.046803,307.322892 291.612802,306.422892 291.612802,304.622892"/>
<polygon style="fill: #0000ff; opacity: 1.000000" clip-path="url(#7240474723315632415)" points = "296.793929,236.391502 295.227929,237.291502 295.227929,239.091502 296.793929,239.991502 298.359929,239.091502 298.359929,237.291502"/>
<polygon style="fill: #0000ff; opacity: 1.000000" clip-path="url(#7240474723315632415)" points = "303.029649,241.573069 301.463649,242.473069 301.463649,244.273069 303.029649,245.173069 304.595649,244.273069 304.595649,242.473069"/>
<polygon style="fill: #0000ff; opacity: 1.000000" clip-path="url(#7240474723315632415)" points = "303.396883,229.431036 301.830883,230.331036 301.830883,232.131036 303.396883,233.031036 304.962883,232.131036 304.962883,230.331036"/>
<polygon style="fill: #0000ff; opacity: 1.000000" clip-path="url(#7240474723315632415)" points = "307.988665,124.134029 306.422665,125.034029 306.422665,126.834029 307.988665,127.734029 309.554665,126.834029 309.554665,125.034029"/>
<polygon style="fill: #0000ff; opacity: 1.000000" clip-path="url(#7240474723315632415)" points = "312.540550,101.100000 310.974550,102.000000 310.974550,103.800000 312.540550,104.700000 314.106550,103.800000 314.106550,102.000000"/>
<polygon style="fill: #0000ff; opacity: 1.000000" clip-path="url(#7240474723315632415)" points = "317.900349,140.045086 316.334349,140.945086 316.334349,142.745086 317.900349,143.645086 319.466349,142.745086 319.466349,140.945086"/>
<polygon style="fill: #0000ff; opacity: 1.000000" clip-path="url(#7240474723315632415)" points = "322.699777,289.341921 321.133777,290.241921 321.133777,292.041921 322.699777,292.941921 324.265777,292.041921 324.265777,290.241921"/>
<polygon style="fill: #0000ff; opacity: 1.000000" clip-path="url(#7240474723315632415)" points = "329.064255,274.022234 327.498255,274.922234 327.498255,276.722234 329.064255,277.622234 330.630255,276.722234 330.630255,274.922234"/>
<polygon style="fill: #0000ff; opacity: 1.000000" clip-path="url(#7240474723315632415)" points = "330.849646,298.362032 329.283646,299.262032 329.283646,301.062032 330.849646,301.962032 332.415646,301.062032 332.415646,299.262032"/>
<polygon style="fill: #0000ff; opacity: 1.000000" clip-path="url(#7240474723315632415)" points = "339.602504,265.644440 338.036504,266.544440 338.036504,268.344440 339.602504,269.244440 341.168503,268.344440 341.168503,266.544440"/>
<polygon style="fill: #0000ff; opacity: 1.000000" clip-path="url(#7240474723315632415)" points = "341.821321,134.575021 340.255321,135.475021 340.255321,137.275021 341.821321,138.175021 343.387321,137.275021 343.387321,135.475021"/>
<polygon style="fill: #0000ff; opacity: 1.000000" clip-path="url(#7240474723315632415)" points = "342.035314,382.178385 340.469314,383.078385 340.469314,384.878385 342.035314,385.778385 343.601314,384.878385 343.601314,383.078385"/>
<polygon style="fill: #0000ff; opacity: 1.000000" clip-path="url(#7240474723315632415)" points = "347.740585,260.507051 346.174585,261.407051 346.174585,263.207051 347.740585,264.107051 349.306585,263.207051 349.306585,261.407051"/>
<polygon style="fill: #0000ff; opacity: 1.000000" clip-path="url(#7240474723315632415)" points = "357.289569,327.629778 355.723569,328.529778 355.723569,330.329778 357.289569,331.229778 358.855569,330.329778 358.855569,328.529778"/>
<polygon style="fill: #0000ff; opacity: 1.000000" clip-path="url(#7240474723315632415)" points = "357.456411,247.359476 355.890411,248.259476 355.890411,250.059476 357.456411,250.959476 359.022411,250.059476 359.022411,248.259476"/>
<polygon style="fill: #0000ff; opacity: 1.000000" clip-path="url(#7240474723315632415)" points = "370.980587,101.100000 369.414587,102.000000 369.414587,103.800000 370.980587,104.700000 372.546587,103.800000 372.546587,102.000000"/>
<polygon style="fill: #0000ff; opacity: 1.000000" clip-path="url(#7240474723315632415)" points = "382.967822,310.478993 381.401822,311.378993 381.401822,313.178993 382.967822,314.078993 384.533822,313.178993 384.533822,311.378993"/>
<polygon style="fill: #0000ff; opacity: 1.000000" clip-path="url(#7240474723315632415)" points = "405.663775,181.221088 404.097775,182.121088 404.097775,183.921088 405.663775,184.821088 407.229775,183.921088 407.229775,182.121088"/>
<polygon style="fill: #0000ff; opacity: 1.000000" clip-path="url(#7240474723315632415)" points = "412.307532,169.666134 410.741532,170.566134 410.741532,172.366134 412.307532,173.266134 413.873532,172.366134 413.873532,170.566134"/>
<polygon style="fill: #0000ff; opacity: 1.000000" clip-path="url(#7240474723315632415)" points = "416.705269,267.012290 415.139270,267.912290 415.139270,269.712290 416.705269,270.612290 418.271269,269.712290 418.271269,267.912290"/>
<polygon style="fill: #0000ff; opacity: 1.000000" clip-path="url(#7240474723315632415)" points = "426.751153,181.564607 425.185153,182.464607 425.185153,184.264607 426.751153,185.164607 428.317153,184.264607 428.317153,182.464607"/>
<polygon style="fill: #0000ff; opacity: 1.000000" clip-path="url(#7240474723315632415)" points = "429.409744,157.364399 427.843744,158.264399 427.843744,160.064399 429.409744,160.964399 430.975744,160.064399 430.975744,158.264399"/>
<polygon style="fill: #0000ff; opacity: 1.000000" clip-path="url(#7240474723315632415)" points = "433.096589,229.110340 431.530589,230.010340 431.530589,231.810340 433.096589,232.710340 434.662589,231.810340 434.662589,230.010340"/>
<polygon style="fill: #0000ff; opacity: 1.000000" clip-path="url(#7240474723315632415)" points = "435.315406,393.033209 433.749407,393.933209 433.749407,395.733209 435.315406,396.633209 436.881406,395.733209 436.881406,393.933209"/>
<polygon style="fill: #0000ff; opacity: 1.000000" clip-path="url(#7240474723315632415)" points = "436.379931,149.816365 434.813931,150.716365 434.813931,152.516365 436.379931,153.416365 437.945931,152.516365 437.945931,150.716365"/>
<polygon style="fill: #0000ff; opacity: 1.000000" clip-path="url(#7240474723315632415)" points = "440.022346,201.781741 438.456346,202.681741 438.456346,204.481741 440.022346,205.381741 441.588346,204.481741 441.588346,202.681741"/>
<polygon style="fill: #0000ff; opacity: 1.000000" clip-path="url(#7240474723315632415)" points = "451.211641,288.355127 449.645641,289.255127 449.645641,291.055127 451.211641,291.955127 452.777641,291.055127 452.777641,289.255127"/>
<polygon style="fill: #0000ff; opacity: 1.000000" clip-path="url(#7240474723315632415)" points = "453.360638,337.312275 451.794638,338.212275 451.794638,340.012275 453.360638,340.912275 454.926638,340.012275 454.926638,338.212275"/>
<polygon style="fill: #0000ff; opacity: 1.000000" clip-path="url(#7240474723315632415)" points = "456.128946,276.749163 454.562946,277.649163 454.562946,279.449163 456.128946,280.349163 457.694946,279.449163 457.694946,277.649163"/>
<polygon style="fill: #0000ff; opacity: 1.000000" clip-path="url(#7240474723315632415)" points = "470.232535,227.704307 468.666536,228.604307 468.666536,230.404307 470.232535,231.304307 471.798535,230.404307 471.798535,228.604307"/>
<polygon style="fill: #0000ff; opacity: 1.000000" clip-path="url(#7240474723315632415)" points = "470.305982,379.730099 468.739982,380.630099 468.739982,382.430099 470.305982,383.330099 471.871982,382.430099 471.871982,380.630099"/>
<polygon style="fill: #0000ff; opacity: 1.000000" clip-path="url(#7240474723315632415)" points = "471.232681,360.777623 469.666681,361.677623 469.666681,363.477623 471.232681,364.377623 472.798681,363.477623 472.798681,361.677623"/>
<polygon style="fill: #0000ff; opacity: 1.000000" clip-path="url(#7240474723315632415)" points = "473.031673,344.118188 471.465673,345.018188 471.465673,346.818188 473.031673,347.718188 474.597673,346.818188 474.597673,345.018188"/>
<polygon style="fill: #0000ff; opacity: 1.000000" clip-path="url(#7240474723315632415)" points = "483.752178,170.610370 482.186178,171.510370 482.186178,173.310370 483.752178,174.210370 485.318178,173.310370 485.318178,171.510370"/>
<polygon style="fill: #0000ff; opacity: 1.000000" clip-path="url(#7240474723315632415)" points = "488.151729,289.479882 486.585729,290.379882 486.585729,292.179882 488.151729,293.079882 489.717729,292.179882 489.717729,290.379882"/>
<polygon style="fill: #0000ff; opacity: 1.000000" clip-path="url(#7240474723315632415)" points = "498.889462,333.731174 497.323463,334.631174 497.323463,336.431174 498.889462,337.331174 500.455462,336.431174 500.455462,334.631174"/>
<polygon style="fill: #0000ff; opacity: 1.000000" clip-path="url(#7240474723315632415)" points = "509.281724,227.750467 507.715724,228.650467 507.715724,230.450467 509.281724,231.350467 510.847724,230.450467 510.847724,228.650467"/>
<polygon style="fill: #0000ff; opacity: 1.000000" clip-path="url(#7240474723315632415)" points = "524.982101,279.915221 523.416100,280.815221 523.416100,282.615221 524.982101,283.515221 526.548101,282.615221 526.548101,280.815221"/>
<path style="fill: none; stroke: #008000; stroke-width: 0.500000; stroke-linejoin: miter; stroke-linecap: square;  opacity: 1.000000" clip-path="url(#7240474723315632415)" d="M 74.678263,180.994464 L 77.223510,182.205504 L 85.139437,185.831671 L 107.977750,195.168136 L 117.603808,198.637292 L 135.299941,204.360446 L 170.013958,213.435165 L 172.033290,213.886394 L 206.554169,220.543802 L 212.507890,221.518309 L 214.492765,221.833676 L 217.441517,222.293837 L 221.219037,222.869351 L 221.540027,222.917556 L 222.265426,223.026101 L 227.810203,223.838432 L 229.894821,224.136258 L 229.924744,224.140504 L 233.952527,224.704902 L 234.846583,224.828313 L 240.703281,225.621112 L 248.832295,226.681215 L 249.811585,226.806130 L 253.332495,227.250831 L 256.523348,227.648332 L 266.433219,228.855368 L 273.593824,229.708464 L 278.032365,230.232271 L 279.776045,230.437398 L 290.046803,231.643802 L 296.793929,232.440513 L 303.029649,233.184969 L 303.396883,233.229143 L 307.988665,233.785317 L 312.540550,234.344734 L 317.900349,235.015868 L 322.699777,235.630211 L 329.064255,236.467604 L 330.849646,236.707684 L 339.602504,237.921733 L 341.821321,238.240124 L 342.035314,238.271075 L 347.740585,239.112797 L 357.289569,240.599160 L 357.456411,240.626062 L 370.980587,242.924995 L 382.967822,245.179585 L 405.663775,250.110945 L 412.307532,251.740728 L 416.705269,252.870432 L 426.751153,255.611542 L 429.409744,256.375908 L 433.096589,257.463937 L 435.315406,258.134743 L 436.379931,258.460913 L 440.022346,259.598548 L 451.211641,263.309633 L 453.360638,264.061081 L 456.128946,265.048068 L 470.232535,270.420697 L 470.305982,270.450231 L 471.232681,270.824290 L 473.031673,271.558011 L 483.752178,276.142378 L 488.151729,278.131905 L 498.889462,283.263473 L 509.281724,288.618007 L 524.982101,297.472951 "/>
<g id="matplotlib.axis1">
<g id="xtick1">
<text style="font-size: 9.996000; font-family: Bitstream Vera Serif; font-style: Roman; fill: #000000;" x="70.625000" y="406.900000" >0</text>
</g>
<g id="xtick2">
<path style="fill: none; stroke: #000000; stroke-width: 0.500000; stroke-linejoin: miter; stroke-linecap: butt;  opacity: 1.000000"  d="M 163.800000,396.900000 L 163.800000,391.900000"/>
<path style="fill: none; stroke: #000000; stroke-width: 0.500000; stroke-linejoin: miter; stroke-linecap: butt;  opacity: 1.000000"  d="M 163.800000,49.100000 L 163.800000,44.100000"/>
<text style="font-size: 9.996000; font-family: Bitstream Vera Serif; font-style: Roman; fill: #000000;" x="162.300000" y="406.900000" >1</text>
</g>
<g id="xtick3">
<path style="fill: none; stroke: #000000; stroke-width: 0.500000; stroke-linejoin: miter; stroke-linecap: butt;  opacity: 1.000000"  d="M 254.475000,396.900000 L 254.475000,391.900000"/>
<path style="fill: none; stroke: #000000; stroke-width: 0.500000; stroke-linejoin: miter; stroke-linecap: butt;  opacity: 1.000000"  d="M 254.475000,49.100000 L 254.475000,44.100000"/>
<text style="font-size: 9.996000; font-family: Bitstream Vera Serif; font-style: Roman; fill: #000000;" x="251.975000" y="406.900000" >2</text>
</g>
<g id="xtick4">
<path style="fill: none; stroke: #000000; stroke-width: 0.500000; stroke-linejoin: miter; stroke-linecap: butt;  opacity: 1.000000"  d="M 345.150000,396.900000 L 345.150000,391.900000"/>
<path style="fill: none; stroke: #000000; stroke-width: 0.500000; stroke-linejoin: miter; stroke-linecap: butt;  opacity: 1.000000"  d="M 345.150000,49.100000 L 345.150000,44.100000"/>
<text style="font-size: 9.996000; font-family: Bitstream Vera Serif; font-style: Roman; fill: #000000;" x="342.650000" y="406.900000" >3</text>
</g>
<g id="xtick5">
<path style="fill: none; stroke: #000000; stroke-width: 0.500000; stroke-linejoin: miter; stroke-linecap: butt;  opacity: 1.000000"  d="M 435.825000,396.900000 L 435.825000,391.900000"/>
<path style="fill: none; stroke: #000000; stroke-width: 0.500000; stroke-linejoin: miter; stroke-linecap: butt;  opacity: 1.000000"  d="M 435.825000,49.100000 L 435.825000,44.100000"/>
<text style="font-size: 9.996000; font-family: Bitstream Vera Serif; font-style: Roman; fill: #000000;" x="433.325000" y="406.900000" >4</text>
</g>
<g id="xtick6">
<text style="font-size: 9.996000; font-family: Bitstream Vera Serif; font-style: Roman; fill: #000000;" x="524.000000" y="406.900000" >5</text>
</g>
<text style="font-size: 12.000000; font-family: Bitstream Vera Serif; font-style: Roman; fill: #000000;" x="273.812500" y="420.900000" >Distance</text>
<text style="font-size: 9.996000; font-family: Bitstream Vera Serif; font-style: Roman; fill: #000000;" x="495.500000" y="416.900000" >x1e+5</text>
</g>
<g id="matplotlib.axis2">
<g id="ytick1">
<text style="font-size: 9.996000; font-family: Bitstream Vera Serif; font-style: Roman; fill: #000000;" x="56.125000" y="400.400000" >0.0</text>
</g>
<g id="ytick2">
<path style="fill: none; stroke: #000000; stroke-width: 0.500000; stroke-linejoin: miter; stroke-linecap: butt;  opacity: 1.000000"  d="M 73.125000,338.100000 L 78.125000,338.100000"/>
<path style="fill: none; stroke: #000000; stroke-width: 0.500000; stroke-linejoin: miter; stroke-linecap: butt;  opacity: 1.000000"  d="M 521.500000,338.100000 L 526.500000,338.100000"/>
<text style="font-size: 9.996000; font-family: Bitstream Vera Serif; font-style: Roman; fill: #000000;" x="56.125000" y="341.600000" >0.2</text>
</g>
<g id="ytick3">
<path style="fill: none; stroke: #000000; stroke-width: 0.500000; stroke-linejoin: miter; stroke-linecap: butt;  opacity: 1.000000"  d="M 73.125000,279.300000 L 78.125000,279.300000"/>
<path style="fill: none; stroke: #000000; stroke-width: 0.500000; stroke-linejoin: miter; stroke-linecap: butt;  opacity: 1.000000"  d="M 521.500000,279.300000 L 526.500000,279.300000"/>
<text style="font-size: 9.996000; font-family: Bitstream Vera Serif; font-style: Roman; fill: #000000;" x="56.125000" y="282.800000" >0.4</text>
</g>
<g id="ytick4">
<path style="fill: none; stroke: #000000; stroke-width: 0.500000; stroke-linejoin: miter; stroke-linecap: butt;  opacity: 1.000000"  d="M 73.125000,220.500000 L 78.125000,220.500000"/>
<path style="fill: none; stroke: #000000; stroke-width: 0.500000; stroke-linejoin: miter; stroke-linecap: butt;  opacity: 1.000000"  d="M 521.500000,220.500000 L 526.500000,220.500000"/>
<text style="font-size: 9.996000; font-family: Bitstream Vera Serif; font-style: Roman; fill: #000000;" x="56.125000" y="224.000000" >0.6</text>
</g>
<g id="ytick5">
<path style="fill: none; stroke: #000000; stroke-width: 0.500000; stroke-linejoin: miter; stroke-linecap: butt;  opacity: 1.000000"  d="M 73.125000,161.700000 L 78.125000,161.700000"/>
<path style="fill: none; stroke: #000000; stroke-width: 0.500000; stroke-linejoin: miter; stroke-linecap: butt;  opacity: 1.000000"  d="M 521.500000,161.700000 L 526.500000,161.700000"/>
<text style="font-size: 9.996000; font-family: Bitstream Vera Serif; font-style: Roman; fill: #000000;" x="56.125000" y="165.200000" >0.8</text>
</g>
<g id="ytick6">
<path style="fill: none; stroke: #000000; stroke-width: 0.500000; stroke-linejoin: miter; stroke-linecap: butt;  opacity: 1.000000"  d="M 73.125000,102.900000 L 78.125000,102.900000"/>
<path style="fill: none; stroke: #000000; stroke-width: 0.500000; stroke-linejoin: miter; stroke-linecap: butt;  opacity: 1.000000"  d="M 521.500000,102.900000 L 526.500000,102.900000"/>
<text style="font-size: 9.996000; font-family: Bitstream Vera Serif; font-style: Roman; fill: #000000;" x="57.125000" y="106.400000" >1.0</text>
</g>
<g id="ytick7">
<text style="font-size: 9.996000; font-family: Bitstream Vera Serif; font-style: Roman; fill: #000000;" x="57.125000" y="47.600000" >1.2</text>
</g>
<text style="font-size: 12.000000; font-family: Bitstream Vera Serif; font-style: Roman; fill: #000000;" x="51.125000" y="225.500000" transform="translate(51.125000,225.500000) rotate(-90.0) translate(-51.125000,-225.500000)">D'</text>
</g>
<path style="fill: none; stroke: #000000; stroke-width: 1.000000; stroke-linejoin: miter; stroke-linecap: square;  opacity: 1.000000"  d="M 73.125000,396.900000 L 526.500000,396.900000 L 526.500000,44.100000 L 73.125000,44.100000 L 73.125000,396.900000 "/>
<text style="font-size: 14.400000; font-family: Bitstream Vera Serif; font-style: Roman; fill: #000000;" x="267.312500" y="37.044000" >LD decay</text>
</g>
</g>
</svg>
