<?xml version="1.0" standalone="no"?>
<!DOCTYPE svg PUBLIC "-//W3C//DTD SVG 1.1//EN"
  "http://www.w3.org/Graphics/SVG/1.1/DTD/svg11.dtd">
<!-- Created with matplotlib (http://matplotlib.sourceforge.net/) -->
<svg width="585" height="441" viewBox="0 0 585 441"
   xmlns="http://www.w3.org/2000/svg"
   xmlns:xlink="http://www.w3.org/1999/xlink"
   version="1.1"
   id="svg1">
<g id="figure1">
<polygon style="fill: #ffffff; stroke: #ffffff; stroke-width: 1.000000; stroke-linejoin: miter; stroke-linecap: square;  opacity: 1.000000"  points = "0.000000,441.000000 0.000000,0.000000 585.000000,0.000000 585.000000,441.000000"/>
<g id="axes1">
<polygon style="fill: #ffffff; stroke: #000000; stroke-width: 1.000000; stroke-linejoin: miter; stroke-linecap: square;  opacity: 1.000000"  points = "73.125000,396.900000 73.125000,44.100000 526.500000,44.100000 526.500000,396.900000"/>
<defs>
    <clipPath id="7240474723315632415">
    <rect x="73.125000" y="44.100000" width="453.375000" height="352.800000"
    style="stroke: gray; fill: none;"/>
    </clipPath>
</defs>
<polygon style="fill: #0000ff; opacity: 1.000000" clip-path="url(#7240474723315632415)" points = "73.901631,211.869144 72.335631,212.769144 72.335631,214.569144 73.901631,215.469144 75.467631,214.569144 75.467631,212.769144"/>
<polygon style="fill: #0000ff; opacity: 1.000000" clip-path="url(#7240474723315632415)" points = "75.174255,366.864991 73.608255,367.764991 73.608255,369.564991 75.174255,370.464991 76.740255,369.564991 76.740255,367.764991"/>
<polygon style="fill: #0000ff; opacity: 1.000000" clip-path="url(#7240474723315632415)" points = "79.132219,356.880634 77.566219,357.780634 77.566219,359.580634 79.132219,360.480634 80.698219,359.580634 80.698219,357.780634"/>
<polygon style="fill: #0000ff; opacity: 1.000000" clip-path="url(#7240474723315632415)" points = "90.551375,136.272835 88.985375,137.172835 88.985375,138.972835 90.551375,139.872835 92.117375,138.972835 92.117375,137.172835"/>
<polygon style="fill: #0000ff; opacity: 1.000000" clip-path="url(#7240474723315632415)" points = "95.364404,155.423539 93.798404,156.323539 93.798404,158.123539 95.364404,159.023539 96.930404,158.123539 96.930404,156.323539"/>
<polygon style="fill: #0000ff; opacity: 1.000000" clip-path="url(#7240474723315632415)" points = "104.212470,215.553609 102.646470,216.453609 102.646470,218.253609 104.212470,219.153609 105.778470,218.253609 105.778470,216.453609"/>
<polygon style="fill: #0000ff; opacity: 1.000000" clip-path="url(#7240474723315632415)" points = "121.569479,136.521581 120.003479,137.421581 120.003479,139.221581 121.569479,140.121581 123.135479,139.221581 123.135479,137.421581"/>
<polygon style="fill: #0000ff; opacity: 1.000000" clip-path="url(#7240474723315632415)" points = "122.579145,265.520153 121.013145,266.420153 121.013145,268.220153 122.579145,269.120153 124.145145,268.220153 124.145145,266.420153"/>
<polygon style="fill: #0000ff; opacity: 1.000000" clip-path="url(#7240474723315632415)" points = "139.839585,329.702234 138.273585,330.602234 138.273585,332.402234 139.839585,333.302234 141.405585,332.402234 141.405585,330.602234"/>
<polygon style="fill: #0000ff; opacity: 1.000000" clip-path="url(#7240474723315632415)" points = "142.816445,261.362119 141.250445,262.262119 141.250445,264.062119 142.816445,264.962119 144.382445,264.062119 144.382445,262.262119"/>
<polygon style="fill: #0000ff; opacity: 1.000000" clip-path="url(#7240474723315632415)" points = "143.808883,195.884167 142.242883,196.784167 142.242883,198.584167 143.808883,199.484167 145.374883,198.584167 145.374883,196.784167"/>
<polygon style="fill: #0000ff; opacity: 1.000000" clip-path="url(#7240474723315632415)" points = "145.283258,348.950999 143.717258,349.850999 143.717258,351.650999 145.283258,352.550999 146.849258,351.650999 146.849258,349.850999"/>
<polygon style="fill: #0000ff; opacity: 1.000000" clip-path="url(#7240474723315632415)" points = "147.172019,248.886446 145.606019,249.786446 145.606019,251.586446 147.172019,252.486446 148.738019,251.586446 148.738019,249.786446"/>
<polygon style="fill: #0000ff; opacity: 1.000000" clip-path="url(#7240474723315632415)" points = "147.332513,340.067187 145.766513,340.967187 145.766513,342.767187 147.332513,343.667187 148.898513,342.767187 148.898513,340.967187"/>
<polygon style="fill: #0000ff; opacity: 1.000000" clip-path="url(#7240474723315632415)" points = "147.695213,170.701836 146.129213,171.601836 146.129213,173.401836 147.695213,174.301836 149.261213,173.401836 149.261213,171.601836"/>
<polygon style="fill: #0000ff; opacity: 1.000000" clip-path="url(#7240474723315632415)" points = "150.467601,224.850331 148.901601,225.750331 148.901601,227.550331 150.467601,228.450331 152.033601,227.550331 152.033601,225.750331"/>
<polygon style="fill: #0000ff; opacity: 1.000000" clip-path="url(#7240474723315632415)" points = "151.509910,259.027564 149.943910,259.927564 149.943910,261.727564 151.509910,262.627564 153.075910,261.727564 153.075910,259.927564"/>
<polygon style="fill: #0000ff; opacity: 1.000000" clip-path="url(#7240474723315632415)" points = "151.524872,305.830290 149.958872,306.730290 149.958872,308.530290 151.524872,309.430290 153.090872,308.530290 153.090872,306.730290"/>
<polygon style="fill: #0000ff; opacity: 1.000000" clip-path="url(#7240474723315632415)" points = "153.538764,368.798126 151.972764,369.698126 151.972764,371.498126 153.538764,372.398126 155.104764,371.498126 155.104764,369.698126"/>
<polygon style="fill: #0000ff; opacity: 1.000000" clip-path="url(#7240474723315632415)" points = "153.985791,182.064104 152.419791,182.964104 152.419791,184.764104 153.985791,185.664104 155.551791,184.764104 155.551791,182.964104"/>
<polygon style="fill: #0000ff; opacity: 1.000000" clip-path="url(#7240474723315632415)" points = "156.914141,139.445689 155.348140,140.345689 155.348140,142.145689 156.914141,143.045689 158.480141,142.145689 158.480141,140.345689"/>
<polygon style="fill: #0000ff; opacity: 1.000000" clip-path="url(#7240474723315632415)" points = "160.978647,284.244461 159.412647,285.144461 159.412647,286.944461 160.978647,287.844461 162.544647,286.944461 162.544647,285.144461"/>
<polygon style="fill: #0000ff; opacity: 1.000000" clip-path="url(#7240474723315632415)" points = "161.468292,269.171584 159.902292,270.071584 159.902292,271.871584 161.468292,272.771584 163.034292,271.871584 163.034292,270.071584"/>
<polygon style="fill: #0000ff; opacity: 1.000000" clip-path="url(#7240474723315632415)" points = "163.228747,246.588702 161.662747,247.488702 161.662747,249.288702 163.228747,250.188702 164.794747,249.288702 164.794747,247.488702"/>
<polygon style="fill: #0000ff; opacity: 1.000000" clip-path="url(#7240474723315632415)" points = "164.824174,321.832685 163.258174,322.732685 163.258174,324.532685 164.824174,325.432685 166.390174,324.532685 166.390174,322.732685"/>
<polygon style="fill: #0000ff; opacity: 1.000000" clip-path="url(#7240474723315632415)" points = "169.779110,322.956591 168.213110,323.856591 168.213110,325.656591 169.779110,326.556591 171.345110,325.656591 171.345110,323.856591"/>
<polygon style="fill: #0000ff; opacity: 1.000000" clip-path="url(#7240474723315632415)" points = "173.359412,375.566989 171.793412,376.466989 171.793412,378.266989 173.359412,379.166989 174.925412,378.266989 174.925412,376.466989"/>
<polygon style="fill: #0000ff; opacity: 1.000000" clip-path="url(#7240474723315632415)" points = "175.578683,275.546465 174.012683,276.446465 174.012683,278.246465 175.578683,279.146465 177.144683,278.246465 177.144683,276.446465"/>
<polygon style="fill: #0000ff; opacity: 1.000000" clip-path="url(#7240474723315632415)" points = "176.450523,120.419673 174.884523,121.319673 174.884523,123.119673 176.450523,124.019673 178.016523,123.119673 178.016523,121.319673"/>
<polygon style="fill: #0000ff; opacity: 1.000000" clip-path="url(#7240474723315632415)" points = "181.585901,326.564783 180.019901,327.464783 180.019901,329.264783 181.585901,330.164783 183.151901,329.264783 183.151901,327.464783"/>
<polygon style="fill: #0000ff; opacity: 1.000000" clip-path="url(#7240474723315632415)" points = "184.959465,152.931940 183.393465,153.831940 183.393465,155.631940 184.959465,156.531940 186.525465,155.631940 186.525465,153.831940"/>
<polygon style="fill: #0000ff; opacity: 1.000000" clip-path="url(#7240474723315632415)" points = "188.077325,152.232350 186.511325,153.132350 186.511325,154.932350 188.077325,155.832350 189.643325,154.932350 189.643325,153.132350"/>
<polygon style="fill: #0000ff; opacity: 1.000000" clip-path="url(#7240474723315632415)" points = "188.260941,211.231251 186.694941,212.131251 186.694941,213.931251 188.260941,214.831251 189.826941,213.931251 189.826941,212.131251"/>
<polygon style="fill: #0000ff; opacity: 1.000000" clip-path="url(#7240474723315632415)" points = "190.556832,318.671421 188.990832,319.571421 188.990832,321.371421 190.556832,322.271421 192.122832,321.371421 192.122832,319.571421"/>
<polygon style="fill: #0000ff; opacity: 1.000000" clip-path="url(#7240474723315632415)" points = "192.832775,269.014593 191.266775,269.914593 191.266775,271.714593 192.832775,272.614593 194.398775,271.714593 194.398775,269.914593"/>
<polygon style="fill: #0000ff; opacity: 1.000000" clip-path="url(#7240474723315632415)" points = "195.512675,240.673621 193.946675,241.573621 193.946675,243.373621 195.512675,244.273621 197.078675,243.373621 197.078675,241.573621"/>
<polygon style="fill: #0000ff; opacity: 1.000000" clip-path="url(#7240474723315632415)" points = "197.912388,323.556634 196.346388,324.456634 196.346388,326.256634 197.912388,327.156634 199.478388,326.256634 199.478388,324.456634"/>
<polygon style="fill: #0000ff; opacity: 1.000000" clip-path="url(#7240474723315632415)" points = "201.094628,186.561765 199.528627,187.461765 199.528627,189.261765 201.094628,190.161765 202.660628,189.261765 202.660628,187.461765"/>
<polygon style="fill: #0000ff; opacity: 1.000000" clip-path="url(#7240474723315632415)" points = "201.987323,307.103924 200.421323,308.003924 200.421323,309.803924 201.987323,310.703924 203.553323,309.803924 203.553323,308.003924"/>
<polygon style="fill: #0000ff; opacity: 1.000000" clip-path="url(#7240474723315632415)" points = "206.363752,299.042526 204.797752,299.942526 204.797752,301.742526 206.363752,302.642526 207.929752,301.742526 207.929752,299.942526"/>
<polygon style="fill: #0000ff; opacity: 1.000000" clip-path="url(#7240474723315632415)" points = "207.473160,175.572944 205.907160,176.472944 205.907160,178.272944 207.473160,179.172944 209.039160,178.272944 209.039160,176.472944"/>
<polygon style="fill: #0000ff; opacity: 1.000000" clip-path="url(#7240474723315632415)" points = "207.580157,346.006866 206.014157,346.906866 206.014157,348.706866 207.580157,349.606866 209.146157,348.706866 209.146157,346.906866"/>
<polygon style="fill: #0000ff; opacity: 1.000000" clip-path="url(#7240474723315632415)" points = "210.432792,191.633175 208.866792,192.533175 208.866792,194.333175 210.432792,195.233175 211.998792,194.333175 211.998792,192.533175"/>
<polygon style="fill: #0000ff; opacity: 1.000000" clip-path="url(#7240474723315632415)" points = "215.207285,305.843572 213.641285,306.743572 213.641285,308.543572 215.207285,309.443572 216.773285,308.543572 216.773285,306.743572"/>
<polygon style="fill: #0000ff; opacity: 1.000000" clip-path="url(#7240474723315632415)" points = "215.290706,185.106723 213.724705,186.006723 213.724705,187.806723 215.290706,188.706723 216.856706,187.806723 216.856706,186.006723"/>
<polygon style="fill: #0000ff; opacity: 1.000000" clip-path="url(#7240474723315632415)" points = "222.052794,311.738390 220.486794,312.638390 220.486794,314.438390 222.052794,315.338390 223.618794,314.438390 223.618794,312.638390"/>
<polygon style="fill: #0000ff; opacity: 1.000000" clip-path="url(#7240474723315632415)" points = "228.046411,273.444930 226.480411,274.344930 226.480411,276.144930 228.046411,277.044930 229.612411,276.144930 229.612411,274.344930"/>
<polygon style="fill: #0000ff; opacity: 1.000000" clip-path="url(#7240474723315632415)" points = "239.394387,268.187604 237.828387,269.087604 237.828387,270.887604 239.394387,271.787604 240.960387,270.887604 240.960387,269.087604"/>
<polygon style="fill: #0000ff; opacity: 1.000000" clip-path="url(#7240474723315632415)" points = "242.716266,240.408220 241.150266,241.308220 241.150266,243.108220 242.716266,244.008220 244.282266,243.108220 244.282266,241.308220"/>
<polygon style="fill: #0000ff; opacity: 1.000000" clip-path="url(#7240474723315632415)" points = "244.915135,218.166537 243.349135,219.066537 243.349135,220.866537 244.915135,221.766537 246.481135,220.866537 246.481135,219.066537"/>
<polygon style="fill: #0000ff; opacity: 1.000000" clip-path="url(#7240474723315632415)" points = "249.938076,172.479845 248.372076,173.379845 248.372076,175.179845 249.938076,176.079845 251.504076,175.179845 251.504076,173.379845"/>
<polygon style="fill: #0000ff; opacity: 1.000000" clip-path="url(#7240474723315632415)" points = "251.267372,366.802640 249.701372,367.702640 249.701372,369.502640 251.267372,370.402640 252.833372,369.502640 252.833372,367.702640"/>
<polygon style="fill: #0000ff; opacity: 1.000000" clip-path="url(#7240474723315632415)" points = "253.110795,167.575515 251.544795,168.475515 251.544795,170.275515 253.110795,171.175515 254.676795,170.275515 254.676795,168.475515"/>
<polygon style="fill: #0000ff; opacity: 1.000000" clip-path="url(#7240474723315632415)" points = "254.220203,354.150315 252.654203,355.050315 252.654203,356.850315 254.220203,357.750315 255.786203,356.850315 255.786203,355.050315"/>
<polygon style="fill: #0000ff; opacity: 1.000000" clip-path="url(#7240474723315632415)" points = "254.752465,205.790809 253.186465,206.690809 253.186465,208.490809 254.752465,209.390809 256.318466,208.490809 256.318466,206.690809"/>
<polygon style="fill: #0000ff; opacity: 1.000000" clip-path="url(#7240474723315632415)" points = "256.573673,160.553068 255.007673,161.453068 255.007673,163.253068 256.573673,164.153068 258.139673,163.253068 258.139673,161.453068"/>
<polygon style="fill: #0000ff; opacity: 1.000000" clip-path="url(#7240474723315632415)" points = "262.168320,320.478386 260.602320,321.378386 260.602320,323.178386 262.168320,324.078386 263.734320,323.178386 263.734320,321.378386"/>
<polygon style="fill: #0000ff; opacity: 1.000000" clip-path="url(#7240474723315632415)" points = "263.242819,312.479594 261.676819,313.379594 261.676819,315.179594 263.242819,316.079594 264.808819,315.179594 264.808819,313.379594"/>
<polygon style="fill: #0000ff; opacity: 1.000000" clip-path="url(#7240474723315632415)" points = "264.626973,265.454228 263.060973,266.354228 263.060973,268.154228 264.626973,269.054228 266.192973,268.154228 266.192973,266.354228"/>
<polygon style="fill: #0000ff; opacity: 1.000000" clip-path="url(#7240474723315632415)" points = "271.678768,293.896244 270.112768,294.796244 270.112768,296.596244 271.678768,297.496244 273.244768,296.596244 273.244768,294.796244"/>
<polygon style="fill: #0000ff; opacity: 1.000000" clip-path="url(#7240474723315632415)" points = "271.715491,351.236271 270.149491,352.136271 270.149491,353.936271 271.715491,354.836271 273.281491,353.936271 273.281491,352.136271"/>
<polygon style="fill: #0000ff; opacity: 1.000000" clip-path="url(#7240474723315632415)" points = "272.178840,332.072882 270.612840,332.972882 270.612840,334.772882 272.178840,335.672882 273.744840,334.772882 273.744840,332.972882"/>
<polygon style="fill: #0000ff; opacity: 1.000000" clip-path="url(#7240474723315632415)" points = "273.078336,339.065298 271.512336,339.965298 271.512336,341.765298 273.078336,342.665298 274.644336,341.765298 274.644336,339.965298"/>
<polygon style="fill: #0000ff; opacity: 1.000000" clip-path="url(#7240474723315632415)" points = "278.438589,112.548465 276.872589,113.448465 276.872589,115.248465 278.438589,116.148465 280.004589,115.248465 280.004589,113.448465"/>
<polygon style="fill: #0000ff; opacity: 1.000000" clip-path="url(#7240474723315632415)" points = "280.638364,220.613527 279.072364,221.513527 279.072364,223.313527 280.638364,224.213527 282.204364,223.313527 282.204364,221.513527"/>
<polygon style="fill: #0000ff; opacity: 1.000000" clip-path="url(#7240474723315632415)" points = "286.007231,315.013728 284.441231,315.913728 284.441231,317.713728 286.007231,318.613728 287.573231,317.713728 287.573231,315.913728"/>
<polygon style="fill: #0000ff; opacity: 1.000000" clip-path="url(#7240474723315632415)" points = "291.203362,255.888023 289.637362,256.788023 289.637362,258.588023 291.203362,259.488023 292.769362,258.588023 292.769362,256.788023"/>
<polygon style="fill: #0000ff; opacity: 1.000000" clip-path="url(#7240474723315632415)" points = "299.053550,317.720562 297.487550,318.620562 297.487550,320.420562 299.053550,321.320562 300.619550,320.420562 300.619550,318.620562"/>
<polygon style="fill: #0000ff; opacity: 1.000000" clip-path="url(#7240474723315632415)" points = "300.462186,381.320227 298.896186,382.220227 298.896186,384.020227 300.462186,384.920227 302.028186,384.020227 302.028186,382.220227"/>
<polygon style="fill: #0000ff; opacity: 1.000000" clip-path="url(#7240474723315632415)" points = "301.630080,307.268140 300.064080,308.168140 300.064080,309.968140 301.630080,310.868140 303.196080,309.968140 303.196080,308.168140"/>
<polygon style="fill: #0000ff; opacity: 1.000000" clip-path="url(#7240474723315632415)" points = "302.554512,181.507778 300.988512,182.407778 300.988512,184.207778 302.554512,185.107778 304.120512,184.207778 304.120512,182.407778"/>
<polygon style="fill: #0000ff; opacity: 1.000000" clip-path="url(#7240474723315632415)" points = "302.564940,245.409200 300.998940,246.309200 300.998940,248.109200 302.564940,249.009200 304.130940,248.109200 304.130940,246.309200"/>
<polygon style="fill: #0000ff; opacity: 1.000000" clip-path="url(#7240474723315632415)" points = "303.167928,341.382290 301.601928,342.282290 301.601928,344.082290 303.167928,344.982290 304.733928,344.082290 304.733928,342.282290"/>
<polygon style="fill: #0000ff; opacity: 1.000000" clip-path="url(#7240474723315632415)" points = "305.060769,246.907738 303.494769,247.807738 303.494769,249.607738 305.060769,250.507738 306.626769,249.607738 306.626769,247.807738"/>
<polygon style="fill: #0000ff; opacity: 1.000000" clip-path="url(#7240474723315632415)" points = "307.259184,284.945885 305.693184,285.845885 305.693184,287.645885 307.259184,288.545885 308.825184,287.645885 308.825184,285.845885"/>
<polygon style="fill: #0000ff; opacity: 1.000000" clip-path="url(#7240474723315632415)" points = "310.464999,239.526277 308.898999,240.426277 308.898999,242.226277 310.464999,243.126277 312.030999,242.226277 312.030999,240.426277"/>
<polygon style="fill: #0000ff; opacity: 1.000000" clip-path="url(#7240474723315632415)" points = "320.148182,243.787154 318.582182,244.687154 318.582182,246.487154 320.148182,247.387154 321.714182,246.487154 321.714182,244.687154"/>
<polygon style="fill: #0000ff; opacity: 1.000000" clip-path="url(#7240474723315632415)" points = "323.689494,265.802296 322.123494,266.702296 322.123494,268.502296 323.689494,269.402296 325.255494,268.502296 325.255494,266.702296"/>
<polygon style="fill: #0000ff; opacity: 1.000000" clip-path="url(#7240474723315632415)" points = "326.883068,131.885350 325.317068,132.785350 325.317068,134.585350 326.883068,135.485350 328.449068,134.585350 328.449068,132.785350"/>
<polygon style="fill: #0000ff; opacity: 1.000000" clip-path="url(#7240474723315632415)" points = "327.253475,334.284786 325.687475,335.184786 325.687475,336.984786 327.253475,337.884786 328.819475,336.984786 328.819475,335.184786"/>
<polygon style="fill: #0000ff; opacity: 1.000000" clip-path="url(#7240474723315632415)" points = "328.799484,216.946055 327.233484,217.846055 327.233484,219.646055 328.799484,220.546055 330.365484,219.646055 330.365484,217.846055"/>
<polygon style="fill: #0000ff; opacity: 1.000000" clip-path="url(#7240474723315632415)" points = "329.246965,275.445700 327.680965,276.345700 327.680965,278.145700 329.246965,279.045700 330.812965,278.145700 330.812965,276.345700"/>
<polygon style="fill: #0000ff; opacity: 1.000000" clip-path="url(#7240474723315632415)" points = "329.667244,232.623505 328.101244,233.523505 328.101244,235.323505 329.667244,236.223505 331.233244,235.323505 331.233244,233.523505"/>
<polygon style="fill: #0000ff; opacity: 1.000000" clip-path="url(#7240474723315632415)" points = "331.786318,257.423509 330.220319,258.323509 330.220319,260.123509 331.786318,261.023509 333.352318,260.123509 333.352318,258.323509"/>
<polygon style="fill: #0000ff; opacity: 1.000000" clip-path="url(#7240474723315632415)" points = "332.021620,213.817375 330.455620,214.717375 330.455620,216.517375 332.021620,217.417375 333.587620,216.517375 333.587620,214.717375"/>
<polygon style="fill: #0000ff; opacity: 1.000000" clip-path="url(#7240474723315632415)" points = "333.034006,308.995623 331.468007,309.895623 331.468007,311.695623 333.034006,312.595623 334.600006,311.695623 334.600006,309.895623"/>
<polygon style="fill: #0000ff; opacity: 1.000000" clip-path="url(#7240474723315632415)" points = "339.484626,295.372291 337.918626,296.272291 337.918626,298.072291 339.484626,298.972291 341.050626,298.072291 341.050626,296.272291"/>
<polygon style="fill: #0000ff; opacity: 1.000000" clip-path="url(#7240474723315632415)" points = "339.880876,177.939263 338.314876,178.839263 338.314876,180.639263 339.880876,181.539263 341.446876,180.639263 341.446876,178.839263"/>
<polygon style="fill: #0000ff; opacity: 1.000000" clip-path="url(#7240474723315632415)" points = "345.546703,385.879444 343.980703,386.779444 343.980703,388.579444 345.546703,389.479444 347.112703,388.579444 347.112703,386.779444"/>
<polygon style="fill: #0000ff; opacity: 1.000000" clip-path="url(#7240474723315632415)" points = "346.225859,247.546157 344.659859,248.446157 344.659859,250.246157 346.225859,251.146157 347.791859,250.246157 347.791859,248.446157"/>
<polygon style="fill: #0000ff; opacity: 1.000000" clip-path="url(#7240474723315632415)" points = "347.989034,302.951233 346.423034,303.851233 346.423034,305.651233 347.989034,306.551233 349.555034,305.651233 349.555034,303.851233"/>
<polygon style="fill: #0000ff; opacity: 1.000000" clip-path="url(#7240474723315632415)" points = "348.765666,300.942459 347.199666,301.842459 347.199666,303.642459 348.765666,304.542459 350.331666,303.642459 350.331666,301.842459"/>
<polygon style="fill: #0000ff; opacity: 1.000000" clip-path="url(#7240474723315632415)" points = "349.122472,179.321209 347.556472,180.221209 347.556472,182.021209 349.122472,182.921209 350.688472,182.021209 350.688472,180.221209"/>
<polygon style="fill: #0000ff; opacity: 1.000000" clip-path="url(#7240474723315632415)" points = "349.183677,265.344264 347.617677,266.244264 347.617677,268.044264 349.183677,268.944264 350.749677,268.044264 350.749677,266.244264"/>
<polygon style="fill: #0000ff; opacity: 1.000000" clip-path="url(#7240474723315632415)" points = "349.304275,320.727593 347.738275,321.627593 347.738275,323.427593 349.304275,324.327593 350.870275,323.427593 350.870275,321.627593"/>
<polygon style="fill: #0000ff; opacity: 1.000000" clip-path="url(#7240474723315632415)" points = "360.334435,273.170824 358.768436,274.070824 358.768436,275.870824 360.334435,276.770824 361.900435,275.870824 361.900435,274.070824"/>
<polygon style="fill: #0000ff; opacity: 1.000000" clip-path="url(#7240474723315632415)" points = "364.355418,285.689914 362.789418,286.589914 362.789418,288.389914 364.355418,289.289914 365.921418,288.389914 365.921418,286.589914"/>
<polygon style="fill: #0000ff; opacity: 1.000000" clip-path="url(#7240474723315632415)" points = "368.981203,317.557259 367.415204,318.457259 367.415204,320.257259 368.981203,321.157259 370.547203,320.257259 370.547203,318.457259"/>
<polygon style="fill: #0000ff; opacity: 1.000000" clip-path="url(#7240474723315632415)" points = "371.709614,202.167052 370.143614,203.067052 370.143614,204.867052 371.709614,205.767052 373.275614,204.867052 373.275614,203.067052"/>
<polygon style="fill: #0000ff; opacity: 1.000000" clip-path="url(#7240474723315632415)" points = "375.405981,303.268864 373.839981,304.168864 373.839981,305.968864 375.405981,306.868864 376.971981,305.968864 376.971981,304.168864"/>
<polygon style="fill: #0000ff; opacity: 1.000000" clip-path="url(#7240474723315632415)" points = "379.914342,326.292051 378.348342,327.192051 378.348342,328.992051 379.914342,329.892051 381.480342,328.992051 381.480342,327.192051"/>
<polygon style="fill: #0000ff; opacity: 1.000000" clip-path="url(#7240474723315632415)" points = "380.939422,316.394788 379.373423,317.294788 379.373423,319.094788 380.939422,319.994788 382.505422,319.094788 382.505422,317.294788"/>
<polygon style="fill: #0000ff; opacity: 1.000000" clip-path="url(#7240474723315632415)" points = "381.107625,134.663734 379.541625,135.563734 379.541625,137.363734 381.107625,138.263734 382.673625,137.363734 382.673625,135.563734"/>
<polygon style="fill: #0000ff; opacity: 1.000000" clip-path="url(#7240474723315632415)" points = "385.921560,184.931401 384.355560,185.831401 384.355560,187.631401 385.921560,188.531401 387.487560,187.631401 387.487560,185.831401"/>
<polygon style="fill: #0000ff; opacity: 1.000000" clip-path="url(#7240474723315632415)" points = "388.494010,289.111311 386.928010,290.011311 386.928010,291.811311 388.494010,292.711311 390.060010,291.811311 390.060010,290.011311"/>
<polygon style="fill: #0000ff; opacity: 1.000000" clip-path="url(#7240474723315632415)" points = "390.418587,67.039833 388.852587,67.939833 388.852587,69.739833 390.418587,70.639833 391.984587,69.739833 391.984587,67.939833"/>
<polygon style="fill: #0000ff; opacity: 1.000000" clip-path="url(#7240474723315632415)" points = "391.220607,288.197420 389.654607,289.097420 389.654607,290.897420 391.220607,291.797420 392.786607,290.897420 392.786607,289.097420"/>
<polygon style="fill: #0000ff; opacity: 1.000000" clip-path="url(#7240474723315632415)" points = "391.423266,328.486880 389.857266,329.386880 389.857266,331.186880 391.423266,332.086880 392.989266,331.186880 392.989266,329.386880"/>
<polygon style="fill: #0000ff; opacity: 1.000000" clip-path="url(#7240474723315632415)" points = "391.733828,307.541637 390.167828,308.441637 390.167828,310.241637 391.733828,311.141637 393.299828,310.241637 393.299828,308.441637"/>
<polygon style="fill: #0000ff; opacity: 1.000000" clip-path="url(#7240474723315632415)" points = "397.865725,361.440981 396.299725,362.340981 396.299725,364.140981 397.865725,365.040981 399.431725,364.140981 399.431725,362.340981"/>
<polygon style="fill: #0000ff; opacity: 1.000000" clip-path="url(#7240474723315632415)" points = "398.244746,185.027249 396.678746,185.927249 396.678746,187.727249 398.244746,188.627249 399.810746,187.727249 399.810746,185.927249"/>
<polygon style="fill: #0000ff; opacity: 1.000000" clip-path="url(#7240474723315632415)" points = "406.068639,244.982706 404.502639,245.882706 404.502639,247.682706 406.068639,248.582706 407.634639,247.682706 407.634639,245.882706"/>
<polygon style="fill: #0000ff; opacity: 1.000000" clip-path="url(#7240474723315632415)" points = "407.514452,258.323081 405.948452,259.223081 405.948452,261.023081 407.514452,261.923081 409.080451,261.023081 409.080451,259.223081"/>
<polygon style="fill: #0000ff; opacity: 1.000000" clip-path="url(#7240474723315632415)" points = "407.844962,315.697084 406.278962,316.597084 406.278962,318.397084 407.844962,319.297084 409.410962,318.397084 409.410962,316.597084"/>
<polygon style="fill: #0000ff; opacity: 1.000000" clip-path="url(#7240474723315632415)" points = "407.981428,192.267761 406.415428,193.167761 406.415428,194.967761 407.981428,195.867761 409.547428,194.967761 409.547428,193.167761"/>
<polygon style="fill: #0000ff; opacity: 1.000000" clip-path="url(#7240474723315632415)" points = "416.131297,324.797447 414.565297,325.697447 414.565297,327.497447 416.131297,328.397447 417.697297,327.497447 417.697297,325.697447"/>
<polygon style="fill: #0000ff; opacity: 1.000000" clip-path="url(#7240474723315632415)" points = "420.129611,342.636653 418.563611,343.536653 418.563611,345.336653 420.129611,346.236653 421.695611,345.336653 421.695611,343.536653"/>
<polygon style="fill: #0000ff; opacity: 1.000000" clip-path="url(#7240474723315632415)" points = "420.355392,301.799702 418.789392,302.699702 418.789392,304.499702 420.355392,305.399702 421.921392,304.499702 421.921392,302.699702"/>
<polygon style="fill: #0000ff; opacity: 1.000000" clip-path="url(#7240474723315632415)" points = "428.143014,344.691534 426.577014,345.591534 426.577014,347.391534 428.143014,348.291534 429.709014,347.391534 429.709014,345.591534"/>
<polygon style="fill: #0000ff; opacity: 1.000000" clip-path="url(#7240474723315632415)" points = "439.665086,128.815443 438.099086,129.715443 438.099086,131.515443 439.665086,132.415443 441.231086,131.515443 441.231086,129.715443"/>
<polygon style="fill: #0000ff; opacity: 1.000000" clip-path="url(#7240474723315632415)" points = "440.667045,263.371354 439.101045,264.271354 439.101045,266.071354 440.667045,266.971354 442.233045,266.071354 442.233045,264.271354"/>
<polygon style="fill: #0000ff; opacity: 1.000000" clip-path="url(#7240474723315632415)" points = "444.766008,327.017360 443.200008,327.917360 443.200008,329.717360 444.766008,330.617360 446.332008,329.717360 446.332008,327.917360"/>
<polygon style="fill: #0000ff; opacity: 1.000000" clip-path="url(#7240474723315632415)" points = "445.781115,192.144927 444.215115,193.044927 444.215115,194.844927 445.781115,195.744927 447.347115,194.844927 447.347115,193.044927"/>
<polygon style="fill: #0000ff; opacity: 1.000000" clip-path="url(#7240474723315632415)" points = "446.691492,307.186127 445.125492,308.086127 445.125492,309.886127 446.691492,310.786127 448.257492,309.886127 448.257492,308.086127"/>
<polygon style="fill: #0000ff; opacity: 1.000000" clip-path="url(#7240474723315632415)" points = "446.813903,364.077874 445.247903,364.977874 445.247903,366.777874 446.813903,367.677874 448.379903,366.777874 448.379903,364.977874"/>
<polygon style="fill: #0000ff; opacity: 1.000000" clip-path="url(#7240474723315632415)" points = "455.819744,204.155569 454.253744,205.055569 454.253744,206.855569 455.819744,207.755569 457.385744,206.855569 457.385744,205.055569"/>
<polygon style="fill: #0000ff; opacity: 1.000000" clip-path="url(#7240474723315632415)" points = "458.069844,303.392771 456.503844,304.292771 456.503844,306.092771 458.069844,306.992771 459.635844,306.092771 459.635844,304.292771"/>
<polygon style="fill: #0000ff; opacity: 1.000000" clip-path="url(#7240474723315632415)" points = "461.238029,218.211644 459.672029,219.111644 459.672029,220.911644 461.238029,221.811644 462.804029,220.911644 462.804029,219.111644"/>
<polygon style="fill: #0000ff; opacity: 1.000000" clip-path="url(#7240474723315632415)" points = "466.134479,208.444355 464.568479,209.344355 464.568479,211.144355 466.134479,212.044355 467.700479,211.144355 467.700479,209.344355"/>
<polygon style="fill: #0000ff; opacity: 1.000000" clip-path="url(#7240474723315632415)" points = "472.306726,200.749476 470.740726,201.649476 470.740726,203.449476 472.306726,204.349476 473.872726,203.449476 473.872726,201.649476"/>
<polygon style="fill: #0000ff; opacity: 1.000000" clip-path="url(#7240474723315632415)" points = "474.344647,225.099186 472.778647,225.999186 472.778647,227.799186 474.344647,228.699186 475.910647,227.799186 475.910647,225.999186"/>
<polygon style="fill: #0000ff; opacity: 1.000000" clip-path="url(#7240474723315632415)" points = "477.932657,244.672733 476.366657,245.572733 476.366657,247.372733 477.932657,248.272733 479.498656,247.372733 479.498656,245.572733"/>
<polygon style="fill: #0000ff; opacity: 1.000000" clip-path="url(#7240474723315632415)" points = "480.148753,334.738323 478.582754,335.638323 478.582754,337.438323 480.148753,338.338323 481.714753,337.438323 481.714753,335.638323"/>
<polygon style="fill: #0000ff; opacity: 1.000000" clip-path="url(#7240474723315632415)" points = "480.832896,102.478665 479.266896,103.378665 479.266896,105.178665 480.832896,106.078665 482.398896,105.178665 482.398896,103.378665"/>
<polygon style="fill: #0000ff; opacity: 1.000000" clip-path="url(#7240474723315632415)" points = "482.086932,350.905318 480.520932,351.805318 480.520932,353.605318 482.086932,354.505318 483.652932,353.605318 483.652932,351.805318"/>
<polygon style="fill: #0000ff; opacity: 1.000000" clip-path="url(#7240474723315632415)" points = "486.155972,164.995074 484.589972,165.895074 484.589972,167.695074 486.155972,168.595074 487.721972,167.695074 487.721972,165.895074"/>
<polygon style="fill: #0000ff; opacity: 1.000000" clip-path="url(#7240474723315632415)" points = "488.375243,307.810388 486.809243,308.710388 486.809243,310.510388 488.375243,311.410388 489.941243,310.510388 489.941243,308.710388"/>
<polygon style="fill: #0000ff; opacity: 1.000000" clip-path="url(#7240474723315632415)" points = "490.541922,346.048304 488.975922,346.948304 488.975922,348.748304 490.541922,349.648304 492.107922,348.748304 492.107922,346.948304"/>
<polygon style="fill: #0000ff; opacity: 1.000000" clip-path="url(#7240474723315632415)" points = "491.062396,63.399502 489.496397,64.299502 489.496397,66.099502 491.062396,66.999502 492.628396,66.099502 492.628396,64.299502"/>
<polygon style="fill: #0000ff; opacity: 1.000000" clip-path="url(#7240474723315632415)" points = "493.217741,249.694872 491.651741,250.594872 491.651741,252.394872 493.217741,253.294872 494.783741,252.394872 494.783741,250.594872"/>
<polygon style="fill: #0000ff; opacity: 1.000000" clip-path="url(#7240474723315632415)" points = "494.546130,125.308038 492.980130,126.208038 492.980130,128.008038 494.546130,128.908038 496.112130,128.008038 496.112130,126.208038"/>
<polygon style="fill: #0000ff; opacity: 1.000000" clip-path="url(#7240474723315632415)" points = "497.142155,365.287865 495.576155,366.187865 495.576155,367.987865 497.142155,368.887865 498.708155,367.987865 498.708155,366.187865"/>
<polygon style="fill: #0000ff; opacity: 1.000000" clip-path="url(#7240474723315632415)" points = "498.810575,359.968770 497.244575,360.868770 497.244575,362.668770 498.810575,363.568770 500.376575,362.668770 500.376575,360.868770"/>
<polygon style="fill: #0000ff; opacity: 1.000000" clip-path="url(#7240474723315632415)" points = "503.813115,74.559347 502.247115,75.459347 502.247115,77.259347 503.813115,78.159347 505.379115,77.259347 505.379115,75.459347"/>
<polygon style="fill: #0000ff; opacity: 1.000000" clip-path="url(#7240474723315632415)" points = "504.474589,324.289592 502.908589,325.189592 502.908589,326.989592 504.474589,327.889592 506.040589,326.989592 506.040589,325.189592"/>
<polygon style="fill: #0000ff; opacity: 1.000000" clip-path="url(#7240474723315632415)" points = "504.635537,148.928967 503.069537,149.828967 503.069537,151.628967 504.635537,152.528967 506.201537,151.628967 506.201537,149.828967"/>
<polygon style="fill: #0000ff; opacity: 1.000000" clip-path="url(#7240474723315632415)" points = "516.050160,244.653530 514.484160,245.553530 514.484160,247.353530 516.050160,248.253530 517.616160,247.353530 517.616160,245.553530"/>
<polygon style="fill: #0000ff; opacity: 1.000000" clip-path="url(#7240474723315632415)" points = "519.437324,293.490536 517.871324,294.390536 517.871324,296.190536 519.437324,297.090536 521.003324,296.190536 521.003324,294.390536"/>
<path style="fill: none; stroke: #008000; stroke-width: 0.500000; stroke-linejoin: miter; stroke-linecap: square;  opacity: 1.000000" clip-path="url(#7240474723315632415)" d="M 73.901631,252.072911 L 75.174255,252.053013 L 79.132219,252.009651 L 90.551375,252.035264 L 95.364404,252.109661 L 104.212470,252.338193 L 121.569479,253.100895 L 122.579145,253.156974 L 139.839585,254.290235 L 142.816445,254.516231 L 143.808883,254.593389 L 145.283258,254.709647 L 147.172019,254.861369 L 147.332513,254.874403 L 147.695213,254.903940 L 150.467601,255.133352 L 151.509910,255.221231 L 151.524872,255.222499 L 153.538764,255.394761 L 153.985791,255.433426 L 156.914141,255.690442 L 160.978647,256.057439 L 161.468292,256.102419 L 163.228747,256.265450 L 164.824174,256.414925 L 169.779110,256.889023 L 173.359412,257.240213 L 175.578683,257.461226 L 176.450523,257.548708 L 181.585901,258.070970 L 184.959465,258.419951 L 188.077325,258.746120 L 188.260941,258.765429 L 190.556832,259.007732 L 192.832775,259.249413 L 195.512675,259.535672 L 197.912388,259.793350 L 201.094628,260.136696 L 201.987323,260.233298 L 206.363752,260.708264 L 207.473160,260.828945 L 207.580157,260.840589 L 210.432792,261.151221 L 215.207285,261.671410 L 215.290706,261.680495 L 222.052794,262.415328 L 228.046411,263.061852 L 239.394387,264.263199 L 242.716266,264.607029 L 244.915135,264.832222 L 249.938076,265.338624 L 251.267372,265.470617 L 253.110795,265.652155 L 254.220203,265.760533 L 254.752465,265.812290 L 256.573673,265.988174 L 262.168320,266.516051 L 263.242819,266.615154 L 264.626973,266.741674 L 271.678768,267.365037 L 271.715491,267.368186 L 272.178840,267.407822 L 273.078336,267.484283 L 278.438589,267.926186 L 280.638364,268.100418 L 286.007231,268.507112 L 291.203362,268.874133 L 299.053550,269.374884 L 300.462186,269.457483 L 301.630080,269.524222 L 302.554512,269.575914 L 302.564940,269.576492 L 303.167928,269.609656 L 305.060769,269.710925 L 307.259184,269.823052 L 310.464999,269.975703 L 320.148182,270.354465 L 323.689494,270.460409 L 326.883068,270.540215 L 327.253475,270.548485 L 328.799484,270.580755 L 329.246965,270.589415 L 329.667244,270.597268 L 331.786318,270.632689 L 332.021620,270.636189 L 333.034006,270.650253 L 339.484626,270.701079 L 339.880876,270.701969 L 345.546703,270.685487 L 346.225859,270.679783 L 347.989034,270.661175 L 348.765666,270.651224 L 349.122472,270.646289 L 349.183677,270.645420 L 349.304275,270.643687 L 360.334435,270.371485 L 364.355418,270.214291 L 368.981203,269.993420 L 371.709614,269.842563 L 375.405981,269.613250 L 379.914342,269.293839 L 380.939422,269.215007 L 381.107625,269.201849 L 385.921560,268.798429 L 388.494010,268.561260 L 390.418587,268.373810 L 391.220607,268.293140 L 391.423266,268.272517 L 391.733828,268.240725 L 397.865725,267.565918 L 398.244746,267.521228 L 406.068639,266.519239 L 407.514452,266.317195 L 407.844962,266.270256 L 407.981428,266.250793 L 416.131297,265.000417 L 420.129611,264.322351 L 420.355392,264.282766 L 428.143014,262.831041 L 439.665086,260.365699 L 440.667045,260.132850 L 444.766008,259.148750 L 445.781115,258.897141 L 446.691492,258.668801 L 446.813903,258.637904 L 455.819744,256.236444 L 458.069844,255.596280 L 461.238029,254.667152 L 466.134479,253.166422 L 472.306726,251.160498 L 474.344647,250.469752 L 477.932657,249.218774 L 480.148753,248.423703 L 480.832896,248.174766 L 482.086932,247.714171 L 486.155972,246.181114 L 488.375243,245.319917 L 490.541922,244.461887 L 491.062396,244.253220 L 493.217741,243.378521 L 494.546130,242.830887 L 497.142155,241.741739 L 498.810575,241.028457 L 503.813115,238.826691 L 504.474589,238.528414 L 504.635537,238.455584 L 516.050160,233.033277 L 519.437324,231.325061 "/>
<g id="matplotlib.axis1">
<g id="xtick1">
<text style="font-size: 9.996000; font-family: Bitstream Vera Serif; font-style: Roman; fill: #000000;" x="66.125000" y="406.900000" >0.0</text>
</g>
<g id="xtick2">
<path style="fill: none; stroke: #000000; stroke-width: 0.500000; stroke-linejoin: miter; stroke-linecap: butt;  opacity: 1.000000"  d="M 163.800000,396.900000 L 163.800000,391.900000"/>
<path style="fill: none; stroke: #000000; stroke-width: 0.500000; stroke-linejoin: miter; stroke-linecap: butt;  opacity: 1.000000"  d="M 163.800000,49.100000 L 163.800000,44.100000"/>
<text style="font-size: 9.996000; font-family: Bitstream Vera Serif; font-style: Roman; fill: #000000;" x="156.800000" y="406.900000" >0.2</text>
</g>
<g id="xtick3">
<path style="fill: none; stroke: #000000; stroke-width: 0.500000; stroke-linejoin: miter; stroke-linecap: butt;  opacity: 1.000000"  d="M 254.475000,396.900000 L 254.475000,391.900000"/>
<path style="fill: none; stroke: #000000; stroke-width: 0.500000; stroke-linejoin: miter; stroke-linecap: butt;  opacity: 1.000000"  d="M 254.475000,49.100000 L 254.475000,44.100000"/>
<text style="font-size: 9.996000; font-family: Bitstream Vera Serif; font-style: Roman; fill: #000000;" x="247.475000" y="406.900000" >0.4</text>
</g>
<g id="xtick4">
<path style="fill: none; stroke: #000000; stroke-width: 0.500000; stroke-linejoin: miter; stroke-linecap: butt;  opacity: 1.000000"  d="M 345.150000,396.900000 L 345.150000,391.900000"/>
<path style="fill: none; stroke: #000000; stroke-width: 0.500000; stroke-linejoin: miter; stroke-linecap: butt;  opacity: 1.000000"  d="M 345.150000,49.100000 L 345.150000,44.100000"/>
<text style="font-size: 9.996000; font-family: Bitstream Vera Serif; font-style: Roman; fill: #000000;" x="338.150000" y="406.900000" >0.6</text>
</g>
<g id="xtick5">
<path style="fill: none; stroke: #000000; stroke-width: 0.500000; stroke-linejoin: miter; stroke-linecap: butt;  opacity: 1.000000"  d="M 435.825000,396.900000 L 435.825000,391.900000"/>
<path style="fill: none; stroke: #000000; stroke-width: 0.500000; stroke-linejoin: miter; stroke-linecap: butt;  opacity: 1.000000"  d="M 435.825000,49.100000 L 435.825000,44.100000"/>
<text style="font-size: 9.996000; font-family: Bitstream Vera Serif; font-style: Roman; fill: #000000;" x="428.825000" y="406.900000" >0.8</text>
</g>
<g id="xtick6">
<text style="font-size: 9.996000; font-family: Bitstream Vera Serif; font-style: Roman; fill: #000000;" x="520.000000" y="406.900000" >1.0</text>
</g>
<text style="font-size: 12.000000; font-family: Bitstream Vera Serif; font-style: Roman; fill: #000000;" x="273.812500" y="420.900000" >Distance</text>
<text style="font-size: 9.996000; font-family: Bitstream Vera Serif; font-style: Roman; fill: #000000;" x="495.500000" y="416.900000" >x1e+6</text>
</g>
<g id="matplotlib.axis2">
<g id="ytick1">
<text style="font-size: 9.996000; font-family: Bitstream Vera Serif; font-style: Roman; fill: #000000;" x="47.125000" y="400.400000" >-0.02</text>
</g>
<g id="ytick2">
<path style="fill: none; stroke: #000000; stroke-width: 0.500000; stroke-linejoin: miter; stroke-linecap: butt;  opacity: 1.000000"  d="M 73.125000,357.700000 L 78.125000,357.700000"/>
<path style="fill: none; stroke: #000000; stroke-width: 0.500000; stroke-linejoin: miter; stroke-linecap: butt;  opacity: 1.000000"  d="M 521.500000,357.700000 L 526.500000,357.700000"/>
<text style="font-size: 9.996000; font-family: Bitstream Vera Serif; font-style: Roman; fill: #000000;" x="50.125000" y="361.200000" >0.00</text>
</g>
<g id="ytick3">
<path style="fill: none; stroke: #000000; stroke-width: 0.500000; stroke-linejoin: miter; stroke-linecap: butt;  opacity: 1.000000"  d="M 73.125000,318.500000 L 78.125000,318.500000"/>
<path style="fill: none; stroke: #000000; stroke-width: 0.500000; stroke-linejoin: miter; stroke-linecap: butt;  opacity: 1.000000"  d="M 521.500000,318.500000 L 526.500000,318.500000"/>
<text style="font-size: 9.996000; font-family: Bitstream Vera Serif; font-style: Roman; fill: #000000;" x="50.125000" y="322.000000" >0.02</text>
</g>
<g id="ytick4">
<path style="fill: none; stroke: #000000; stroke-width: 0.500000; stroke-linejoin: miter; stroke-linecap: butt;  opacity: 1.000000"  d="M 73.125000,279.300000 L 78.125000,279.300000"/>
<path style="fill: none; stroke: #000000; stroke-width: 0.500000; stroke-linejoin: miter; stroke-linecap: butt;  opacity: 1.000000"  d="M 521.500000,279.300000 L 526.500000,279.300000"/>
<text style="font-size: 9.996000; font-family: Bitstream Vera Serif; font-style: Roman; fill: #000000;" x="50.125000" y="282.800000" >0.04</text>
</g>
<g id="ytick5">
<path style="fill: none; stroke: #000000; stroke-width: 0.500000; stroke-linejoin: miter; stroke-linecap: butt;  opacity: 1.000000"  d="M 73.125000,240.100000 L 78.125000,240.100000"/>
<path style="fill: none; stroke: #000000; stroke-width: 0.500000; stroke-linejoin: miter; stroke-linecap: butt;  opacity: 1.000000"  d="M 521.500000,240.100000 L 526.500000,240.100000"/>
<text style="font-size: 9.996000; font-family: Bitstream Vera Serif; font-style: Roman; fill: #000000;" x="50.125000" y="243.600000" >0.06</text>
</g>
<g id="ytick6">
<path style="fill: none; stroke: #000000; stroke-width: 0.500000; stroke-linejoin: miter; stroke-linecap: butt;  opacity: 1.000000"  d="M 73.125000,200.900000 L 78.125000,200.900000"/>
<path style="fill: none; stroke: #000000; stroke-width: 0.500000; stroke-linejoin: miter; stroke-linecap: butt;  opacity: 1.000000"  d="M 521.500000,200.900000 L 526.500000,200.900000"/>
<text style="font-size: 9.996000; font-family: Bitstream Vera Serif; font-style: Roman; fill: #000000;" x="50.125000" y="204.400000" >0.08</text>
</g>
<g id="ytick7">
<path style="fill: none; stroke: #000000; stroke-width: 0.500000; stroke-linejoin: miter; stroke-linecap: butt;  opacity: 1.000000"  d="M 73.125000,161.700000 L 78.125000,161.700000"/>
<path style="fill: none; stroke: #000000; stroke-width: 0.500000; stroke-linejoin: miter; stroke-linecap: butt;  opacity: 1.000000"  d="M 521.500000,161.700000 L 526.500000,161.700000"/>
<text style="font-size: 9.996000; font-family: Bitstream Vera Serif; font-style: Roman; fill: #000000;" x="50.125000" y="165.200000" >0.10</text>
</g>
<g id="ytick8">
<path style="fill: none; stroke: #000000; stroke-width: 0.500000; stroke-linejoin: miter; stroke-linecap: butt;  opacity: 1.000000"  d="M 73.125000,122.500000 L 78.125000,122.500000"/>
<path style="fill: none; stroke: #000000; stroke-width: 0.500000; stroke-linejoin: miter; stroke-linecap: butt;  opacity: 1.000000"  d="M 521.500000,122.500000 L 526.500000,122.500000"/>
<text style="font-size: 9.996000; font-family: Bitstream Vera Serif; font-style: Roman; fill: #000000;" x="50.125000" y="126.000000" >0.12</text>
</g>
<g id="ytick9">
<path style="fill: none; stroke: #000000; stroke-width: 0.500000; stroke-linejoin: miter; stroke-linecap: butt;  opacity: 1.000000"  d="M 73.125000,83.300000 L 78.125000,83.300000"/>
<path style="fill: none; stroke: #000000; stroke-width: 0.500000; stroke-linejoin: miter; stroke-linecap: butt;  opacity: 1.000000"  d="M 521.500000,83.300000 L 526.500000,83.300000"/>
<text style="font-size: 9.996000; font-family: Bitstream Vera Serif; font-style: Roman; fill: #000000;" x="50.125000" y="86.800000" >0.14</text>
</g>
<g id="ytick10">
<text style="font-size: 9.996000; font-family: Bitstream Vera Serif; font-style: Roman; fill: #000000;" x="50.125000" y="47.600000" >0.16</text>
</g>
<text style="font-size: 12.000000; font-family: Bitstream Vera Serif; font-style: Roman; fill: #000000;" x="42.125000" y="224.500000" transform="translate(42.125000,224.500000) rotate(-90.0) translate(-42.125000,-224.500000)">D</text>
</g>
<path style="fill: none; stroke: #000000; stroke-width: 1.000000; stroke-linejoin: miter; stroke-linecap: square;  opacity: 1.000000"  d="M 73.125000,396.900000 L 526.500000,396.900000 L 526.500000,44.100000 L 73.125000,44.100000 L 73.125000,396.900000 "/>
<text style="font-size: 14.400000; font-family: Bitstream Vera Serif; font-style: Roman; fill: #000000;" x="267.312500" y="37.044000" >LD decay</text>
</g>
</g>
</svg>
