<?xml version="1.0" standalone="no"?>
<!DOCTYPE svg PUBLIC "-//W3C//DTD SVG 1.1//EN"
  "http://www.w3.org/Graphics/SVG/1.1/DTD/svg11.dtd">
<!-- Created with matplotlib (http://matplotlib.sourceforge.net/) -->
<svg width="585" height="441" viewBox="0 0 585 441"
   xmlns="http://www.w3.org/2000/svg"
   xmlns:xlink="http://www.w3.org/1999/xlink"
   version="1.1"
   id="svg1">
<g id="figure1">
<polygon style="fill: #ffffff; stroke: #ffffff; stroke-width: 1.000000; stroke-linejoin: miter; stroke-linecap: square;  opacity: 1.000000"  points = "0.000000,441.000000 0.000000,0.000000 585.000000,0.000000 585.000000,441.000000"/>
<g id="axes1">
<polygon style="fill: #ffffff; stroke: #000000; stroke-width: 1.000000; stroke-linejoin: miter; stroke-linecap: square;  opacity: 1.000000"  points = "73.125000,396.900000 73.125000,44.100000 526.500000,44.100000 526.500000,396.900000"/>
<defs>
    <clipPath id="7240474723315632415">
    <rect x="73.125000" y="44.100000" width="453.375000" height="352.800000"
    style="stroke: gray; fill: none;"/>
    </clipPath>
</defs>
<polygon style="fill: #0000ff; opacity: 1.000000" clip-path="url(#7240474723315632415)" points = "74.678263,188.965287 73.112263,189.865287 73.112263,191.665287 74.678263,192.565287 76.244263,191.665287 76.244263,189.865287"/>
<polygon style="fill: #0000ff; opacity: 1.000000" clip-path="url(#7240474723315632415)" points = "77.223510,363.335615 75.657510,364.235615 75.657510,366.035615 77.223510,366.935615 78.789510,366.035615 78.789510,364.235615"/>
<polygon style="fill: #0000ff; opacity: 1.000000" clip-path="url(#7240474723315632415)" points = "85.139437,352.103213 83.573437,353.003213 83.573437,354.803213 85.139437,355.703213 86.705438,354.803213 86.705438,353.003213"/>
<polygon style="fill: #0000ff; opacity: 1.000000" clip-path="url(#7240474723315632415)" points = "107.977750,103.919440 106.411750,104.819440 106.411750,106.619440 107.977750,107.519440 109.543750,106.619440 109.543750,104.819440"/>
<polygon style="fill: #0000ff; opacity: 1.000000" clip-path="url(#7240474723315632415)" points = "117.603808,125.463982 116.037808,126.363982 116.037808,128.163982 117.603808,129.063982 119.169808,128.163982 119.169808,126.363982"/>
<polygon style="fill: #0000ff; opacity: 1.000000" clip-path="url(#7240474723315632415)" points = "135.299941,193.110310 133.733941,194.010310 133.733941,195.810310 135.299941,196.710310 136.865941,195.810310 136.865941,194.010310"/>
<polygon style="fill: #0000ff; opacity: 1.000000" clip-path="url(#7240474723315632415)" points = "170.013958,104.199279 168.447958,105.099279 168.447958,106.899279 170.013958,107.799279 171.579958,106.899279 171.579958,105.099279"/>
<polygon style="fill: #0000ff; opacity: 1.000000" clip-path="url(#7240474723315632415)" points = "172.033290,249.322672 170.467290,250.222672 170.467290,252.022672 172.033290,252.922672 173.599290,252.022672 173.599290,250.222672"/>
<polygon style="fill: #0000ff; opacity: 1.000000" clip-path="url(#7240474723315632415)" points = "206.554169,321.527513 204.988169,322.427513 204.988169,324.227513 206.554169,325.127513 208.120169,324.227513 208.120169,322.427513"/>
<polygon style="fill: #0000ff; opacity: 1.000000" clip-path="url(#7240474723315632415)" points = "212.507890,244.644884 210.941890,245.544884 210.941890,247.344884 212.507890,248.244884 214.073890,247.344884 214.073890,245.544884"/>
<polygon style="fill: #0000ff; opacity: 1.000000" clip-path="url(#7240474723315632415)" points = "214.492765,170.982188 212.926765,171.882188 212.926765,173.682188 214.492765,174.582188 216.058765,173.682188 216.058765,171.882188"/>
<polygon style="fill: #0000ff; opacity: 1.000000" clip-path="url(#7240474723315632415)" points = "217.441517,343.182374 215.875517,344.082374 215.875517,345.882374 217.441517,346.782374 219.007517,345.882374 219.007517,344.082374"/>
<polygon style="fill: #0000ff; opacity: 1.000000" clip-path="url(#7240474723315632415)" points = "221.219037,230.609751 219.653037,231.509751 219.653037,233.309751 221.219037,234.209751 222.785037,233.309751 222.785037,231.509751"/>
<polygon style="fill: #0000ff; opacity: 1.000000" clip-path="url(#7240474723315632415)" points = "221.540027,333.188086 219.974027,334.088086 219.974027,335.888086 221.540027,336.788086 223.106027,335.888086 223.106027,334.088086"/>
<polygon style="fill: #0000ff; opacity: 1.000000" clip-path="url(#7240474723315632415)" points = "222.265426,142.652066 220.699426,143.552066 220.699426,145.352066 222.265426,146.252066 223.831426,145.352066 223.831426,143.552066"/>
<polygon style="fill: #0000ff; opacity: 1.000000" clip-path="url(#7240474723315632415)" points = "227.810203,203.569123 226.244203,204.469123 226.244203,206.269123 227.810203,207.169123 229.376203,206.269123 229.376203,204.469123"/>
<polygon style="fill: #0000ff; opacity: 1.000000" clip-path="url(#7240474723315632415)" points = "229.894821,242.018509 228.328821,242.918509 228.328821,244.718509 229.894821,245.618509 231.460821,244.718509 231.460821,242.918509"/>
<polygon style="fill: #0000ff; opacity: 1.000000" clip-path="url(#7240474723315632415)" points = "229.924744,294.671576 228.358744,295.571576 228.358744,297.371576 229.924744,298.271576 231.490744,297.371576 231.490744,295.571576"/>
<polygon style="fill: #0000ff; opacity: 1.000000" clip-path="url(#7240474723315632415)" points = "233.952527,365.510391 232.386527,366.410391 232.386527,368.210391 233.952527,369.110391 235.518527,368.210391 235.518527,366.410391"/>
<polygon style="fill: #0000ff; opacity: 1.000000" clip-path="url(#7240474723315632415)" points = "234.846583,155.434617 233.280583,156.334617 233.280583,158.134617 234.846583,159.034617 236.412583,158.134617 236.412583,156.334617"/>
<polygon style="fill: #0000ff; opacity: 1.000000" clip-path="url(#7240474723315632415)" points = "240.703281,107.488900 239.137281,108.388900 239.137281,110.188900 240.703281,111.088900 242.269281,110.188900 242.269281,108.388900"/>
<polygon style="fill: #0000ff; opacity: 1.000000" clip-path="url(#7240474723315632415)" points = "248.832295,270.387518 247.266295,271.287518 247.266295,273.087518 248.832295,273.987518 250.398295,273.087518 250.398295,271.287518"/>
<polygon style="fill: #0000ff; opacity: 1.000000" clip-path="url(#7240474723315632415)" points = "249.811585,253.430532 248.245585,254.330532 248.245585,256.130532 249.811585,257.030532 251.377585,256.130532 251.377585,254.330532"/>
<polygon style="fill: #0000ff; opacity: 1.000000" clip-path="url(#7240474723315632415)" points = "253.332495,228.024790 251.766495,228.924790 251.766495,230.724790 253.332495,231.624790 254.898495,230.724790 254.898495,228.924790"/>
<polygon style="fill: #0000ff; opacity: 1.000000" clip-path="url(#7240474723315632415)" points = "256.523348,312.674271 254.957348,313.574271 254.957348,315.374271 256.523348,316.274271 258.089348,315.374271 258.089348,313.574271"/>
<polygon style="fill: #0000ff; opacity: 1.000000" clip-path="url(#7240474723315632415)" points = "266.433219,313.938665 264.867219,314.838665 264.867219,316.638665 266.433219,317.538665 267.999219,316.638665 267.999219,314.838665"/>
<polygon style="fill: #0000ff; opacity: 1.000000" clip-path="url(#7240474723315632415)" points = "273.593824,373.125363 272.027824,374.025363 272.027824,375.825363 273.593824,376.725363 275.159824,375.825363 275.159824,374.025363"/>
<polygon style="fill: #0000ff; opacity: 1.000000" clip-path="url(#7240474723315632415)" points = "278.032365,260.602273 276.466365,261.502273 276.466365,263.302273 278.032365,264.202273 279.598365,263.302273 279.598365,261.502273"/>
<polygon style="fill: #0000ff; opacity: 1.000000" clip-path="url(#7240474723315632415)" points = "279.776045,86.084632 278.210045,86.984632 278.210045,88.784632 279.776045,89.684632 281.342045,88.784632 281.342045,86.984632"/>
<polygon style="fill: #0000ff; opacity: 1.000000" clip-path="url(#7240474723315632415)" points = "290.046803,317.997881 288.480803,318.897881 288.480803,320.697881 290.046803,321.597881 291.612802,320.697881 291.612802,318.897881"/>
<polygon style="fill: #0000ff; opacity: 1.000000" clip-path="url(#7240474723315632415)" points = "296.793929,122.660932 295.227929,123.560932 295.227929,125.360932 296.793929,126.260932 298.359929,125.360932 298.359929,123.560932"/>
<polygon style="fill: #0000ff; opacity: 1.000000" clip-path="url(#7240474723315632415)" points = "303.029649,121.873894 301.463649,122.773894 301.463649,124.573894 303.029649,125.473894 304.595649,124.573894 304.595649,122.773894"/>
<polygon style="fill: #0000ff; opacity: 1.000000" clip-path="url(#7240474723315632415)" points = "303.396883,188.247657 301.830883,189.147657 301.830883,190.947657 303.396883,191.847657 304.962883,190.947657 304.962883,189.147657"/>
<polygon style="fill: #0000ff; opacity: 1.000000" clip-path="url(#7240474723315632415)" points = "307.988665,309.117849 306.422665,310.017849 306.422665,311.817849 307.988665,312.717849 309.554665,311.817849 309.554665,310.017849"/>
<polygon style="fill: #0000ff; opacity: 1.000000" clip-path="url(#7240474723315632415)" points = "312.540550,253.253917 310.974550,254.153917 310.974550,255.953917 312.540550,256.853917 314.106550,255.953917 314.106550,254.153917"/>
<polygon style="fill: #0000ff; opacity: 1.000000" clip-path="url(#7240474723315632415)" points = "317.900349,221.370324 316.334349,222.270324 316.334349,224.070324 317.900349,224.970324 319.466349,224.070324 319.466349,222.270324"/>
<polygon style="fill: #0000ff; opacity: 1.000000" clip-path="url(#7240474723315632415)" points = "322.699777,314.613713 321.133777,315.513713 321.133777,317.313713 322.699777,318.213713 324.265777,317.313713 324.265777,315.513713"/>
<polygon style="fill: #0000ff; opacity: 1.000000" clip-path="url(#7240474723315632415)" points = "329.064255,160.494485 327.498255,161.394485 327.498255,163.194485 329.064255,164.094485 330.630255,163.194485 330.630255,161.394485"/>
<polygon style="fill: #0000ff; opacity: 1.000000" clip-path="url(#7240474723315632415)" points = "330.849646,296.104414 329.283646,297.004414 329.283646,298.804414 330.849646,299.704414 332.415646,298.804414 332.415646,297.004414"/>
<polygon style="fill: #0000ff; opacity: 1.000000" clip-path="url(#7240474723315632415)" points = "339.602504,287.035341 338.036504,287.935341 338.036504,289.735341 339.602504,290.635341 341.168503,289.735341 341.168503,287.935341"/>
<polygon style="fill: #0000ff; opacity: 1.000000" clip-path="url(#7240474723315632415)" points = "341.821321,148.132062 340.255321,149.032062 340.255321,150.832062 341.821321,151.732062 343.387321,150.832062 343.387321,149.032062"/>
<polygon style="fill: #0000ff; opacity: 1.000000" clip-path="url(#7240474723315632415)" points = "342.035314,339.870224 340.469314,340.770224 340.469314,342.570224 342.035314,343.470224 343.601314,342.570224 343.601314,340.770224"/>
<polygon style="fill: #0000ff; opacity: 1.000000" clip-path="url(#7240474723315632415)" points = "347.740585,166.199822 346.174585,167.099822 346.174585,168.899822 347.740585,169.799822 349.306585,168.899822 349.306585,167.099822"/>
<polygon style="fill: #0000ff; opacity: 1.000000" clip-path="url(#7240474723315632415)" points = "357.289569,294.686518 355.723569,295.586518 355.723569,297.386518 357.289569,298.286518 358.855569,297.386518 358.855569,295.586518"/>
<polygon style="fill: #0000ff; opacity: 1.000000" clip-path="url(#7240474723315632415)" points = "357.456411,158.857563 355.890411,159.757563 355.890411,161.557563 357.456411,162.457563 359.022411,161.557563 359.022411,159.757563"/>
<polygon style="fill: #0000ff; opacity: 1.000000" clip-path="url(#7240474723315632415)" points = "370.980587,301.318189 369.414587,302.218189 369.414587,304.018189 370.980587,304.918189 372.546587,304.018189 372.546587,302.218189"/>
<polygon style="fill: #0000ff; opacity: 1.000000" clip-path="url(#7240474723315632415)" points = "382.967822,258.238046 381.401822,259.138046 381.401822,260.938046 382.967822,261.838046 384.533822,260.938046 384.533822,259.138046"/>
<polygon style="fill: #0000ff; opacity: 1.000000" clip-path="url(#7240474723315632415)" points = "405.663775,252.323555 404.097775,253.223555 404.097775,255.023555 405.663775,255.923555 407.229775,255.023555 407.229775,253.223555"/>
<polygon style="fill: #0000ff; opacity: 1.000000" clip-path="url(#7240474723315632415)" points = "412.307532,221.071747 410.741532,221.971747 410.741532,223.771747 412.307532,224.671747 413.873532,223.771747 413.873532,221.971747"/>
<polygon style="fill: #0000ff; opacity: 1.000000" clip-path="url(#7240474723315632415)" points = "416.705269,196.049855 415.139270,196.949855 415.139270,198.749855 416.705269,199.649855 418.271269,198.749855 418.271269,196.949855"/>
<polygon style="fill: #0000ff; opacity: 1.000000" clip-path="url(#7240474723315632415)" points = "426.751153,144.652326 425.185153,145.552326 425.185153,147.352326 426.751153,148.252326 428.317153,147.352326 428.317153,145.552326"/>
<polygon style="fill: #0000ff; opacity: 1.000000" clip-path="url(#7240474723315632415)" points = "429.409744,363.265470 427.843744,364.165470 427.843744,365.965470 429.409744,366.865470 430.975744,365.965470 430.975744,364.165470"/>
<polygon style="fill: #0000ff; opacity: 1.000000" clip-path="url(#7240474723315632415)" points = "433.096589,139.134955 431.530589,140.034955 431.530589,141.834955 433.096589,142.734955 434.662589,141.834955 434.662589,140.034955"/>
<polygon style="fill: #0000ff; opacity: 1.000000" clip-path="url(#7240474723315632415)" points = "435.315406,349.031604 433.749407,349.931604 433.749407,351.731604 435.315406,352.631604 436.881406,351.731604 436.881406,349.931604"/>
<polygon style="fill: #0000ff; opacity: 1.000000" clip-path="url(#7240474723315632415)" points = "436.379931,182.127160 434.813931,183.027160 434.813931,184.827160 436.379931,185.727160 437.945931,184.827160 437.945931,183.027160"/>
<polygon style="fill: #0000ff; opacity: 1.000000" clip-path="url(#7240474723315632415)" points = "440.022346,131.234702 438.456346,132.134702 438.456346,133.934702 440.022346,134.834702 441.588346,133.934702 441.588346,132.134702"/>
<polygon style="fill: #0000ff; opacity: 1.000000" clip-path="url(#7240474723315632415)" points = "451.211641,311.150684 449.645641,312.050684 449.645641,313.850684 451.211641,314.750684 452.777641,313.850684 452.777641,312.050684"/>
<polygon style="fill: #0000ff; opacity: 1.000000" clip-path="url(#7240474723315632415)" points = "453.360638,302.152044 451.794638,303.052044 451.794638,304.852044 453.360638,305.752044 454.926638,304.852044 454.926638,303.052044"/>
<polygon style="fill: #0000ff; opacity: 1.000000" clip-path="url(#7240474723315632415)" points = "456.128946,249.248507 454.562946,250.148507 454.562946,251.948507 456.128946,252.848507 457.694946,251.948507 457.694946,250.148507"/>
<polygon style="fill: #0000ff; opacity: 1.000000" clip-path="url(#7240474723315632415)" points = "470.232535,281.245775 468.666536,282.145775 468.666536,283.945775 470.232535,284.845775 471.798535,283.945775 471.798535,282.145775"/>
<polygon style="fill: #0000ff; opacity: 1.000000" clip-path="url(#7240474723315632415)" points = "470.305982,345.753305 468.739982,346.653305 468.739982,348.453305 470.305982,349.353305 471.871982,348.453305 471.871982,346.653305"/>
<polygon style="fill: #0000ff; opacity: 1.000000" clip-path="url(#7240474723315632415)" points = "471.232681,324.194492 469.666681,325.094492 469.666681,326.894492 471.232681,327.794492 472.798681,326.894492 472.798681,325.094492"/>
<polygon style="fill: #0000ff; opacity: 1.000000" clip-path="url(#7240474723315632415)" points = "473.031673,332.060960 471.465673,332.960960 471.465673,334.760960 473.031673,335.660960 474.597673,334.760960 474.597673,332.960960"/>
<polygon style="fill: #0000ff; opacity: 1.000000" clip-path="url(#7240474723315632415)" points = "483.752178,77.229524 482.186178,78.129524 482.186178,79.929524 483.752178,80.829524 485.318178,79.929524 485.318178,78.129524"/>
<polygon style="fill: #0000ff; opacity: 1.000000" clip-path="url(#7240474723315632415)" points = "488.151729,198.802718 486.585729,199.702718 486.585729,201.502718 488.151729,202.402718 489.717729,201.502718 489.717729,199.702718"/>
<polygon style="fill: #0000ff; opacity: 1.000000" clip-path="url(#7240474723315632415)" points = "498.889462,305.002944 497.323463,305.902944 497.323463,307.702944 498.889462,308.602944 500.455462,307.702944 500.455462,305.902944"/>
<polygon style="fill: #0000ff; opacity: 1.000000" clip-path="url(#7240474723315632415)" points = "509.281724,238.486526 507.715724,239.386526 507.715724,241.186526 509.281724,242.086526 510.847724,241.186526 510.847724,239.386526"/>
<polygon style="fill: #0000ff; opacity: 1.000000" clip-path="url(#7240474723315632415)" points = "524.982101,308.048133 523.416100,308.948133 523.416100,310.748133 524.982101,311.648133 526.548101,310.748133 526.548101,308.948133"/>
<path style="fill: none; stroke: #008000; stroke-width: 0.500000; stroke-linejoin: miter; stroke-linecap: square;  opacity: 1.000000" clip-path="url(#7240474723315632415)" d="M 74.678263,236.000398 L 77.223510,235.985957 L 85.139437,235.941784 L 107.977750,235.829262 L 117.603808,235.793145 L 135.299941,235.753225 L 170.013958,235.816320 L 172.033290,235.827250 L 206.554169,236.170820 L 212.507890,236.263805 L 214.492765,236.297258 L 217.441517,236.349280 L 221.219037,236.420062 L 221.540027,236.426295 L 222.265426,236.440506 L 227.810203,236.555040 L 229.894821,236.600849 L 229.924744,236.601518 L 233.952527,236.694433 L 234.846583,236.715849 L 240.703281,236.863406 L 248.832295,237.089735 L 249.811585,237.118739 L 253.332495,237.226179 L 256.523348,237.327881 L 266.433219,237.670811 L 273.593824,237.945008 L 278.032365,238.126503 L 279.776045,238.200271 L 290.046803,238.663784 L 296.793929,238.996060 L 303.029649,239.323435 L 303.396883,239.343335 L 307.988665,239.598063 L 312.540550,239.861532 L 317.900349,240.186029 L 322.699777,240.489960 L 329.064255,240.912901 L 330.849646,241.035692 L 339.602504,241.664528 L 341.821321,241.831138 L 342.035314,241.847363 L 347.740585,242.290168 L 357.289569,243.076271 L 357.456411,243.090515 L 370.980587,244.305006 L 382.967822,245.483181 L 405.663775,247.989704 L 412.307532,248.794722 L 416.705269,249.345956 L 426.751153,250.661165 L 429.409744,251.022480 L 433.096589,251.532860 L 435.315406,251.845279 L 436.379931,251.996581 L 440.022346,252.521254 L 451.211641,254.201496 L 453.360638,254.536208 L 456.128946,254.973161 L 470.232535,257.302062 L 470.305982,257.314646 L 471.232681,257.473838 L 473.031673,257.785057 L 483.752178,259.700029 L 488.151729,260.516243 L 498.889462,262.584009 L 509.281724,264.689562 L 524.982101,268.070777 "/>
<g id="matplotlib.axis1">
<g id="xtick1">
<text style="font-size: 9.996000; font-family: Bitstream Vera Serif; font-style: Roman; fill: #000000;" x="70.625000" y="406.900000" >0</text>
</g>
<g id="xtick2">
<path style="fill: none; stroke: #000000; stroke-width: 0.500000; stroke-linejoin: miter; stroke-linecap: butt;  opacity: 1.000000"  d="M 163.800000,396.900000 L 163.800000,391.900000"/>
<path style="fill: none; stroke: #000000; stroke-width: 0.500000; stroke-linejoin: miter; stroke-linecap: butt;  opacity: 1.000000"  d="M 163.800000,49.100000 L 163.800000,44.100000"/>
<text style="font-size: 9.996000; font-family: Bitstream Vera Serif; font-style: Roman; fill: #000000;" x="162.300000" y="406.900000" >1</text>
</g>
<g id="xtick3">
<path style="fill: none; stroke: #000000; stroke-width: 0.500000; stroke-linejoin: miter; stroke-linecap: butt;  opacity: 1.000000"  d="M 254.475000,396.900000 L 254.475000,391.900000"/>
<path style="fill: none; stroke: #000000; stroke-width: 0.500000; stroke-linejoin: miter; stroke-linecap: butt;  opacity: 1.000000"  d="M 254.475000,49.100000 L 254.475000,44.100000"/>
<text style="font-size: 9.996000; font-family: Bitstream Vera Serif; font-style: Roman; fill: #000000;" x="251.975000" y="406.900000" >2</text>
</g>
<g id="xtick4">
<path style="fill: none; stroke: #000000; stroke-width: 0.500000; stroke-linejoin: miter; stroke-linecap: butt;  opacity: 1.000000"  d="M 345.150000,396.900000 L 345.150000,391.900000"/>
<path style="fill: none; stroke: #000000; stroke-width: 0.500000; stroke-linejoin: miter; stroke-linecap: butt;  opacity: 1.000000"  d="M 345.150000,49.100000 L 345.150000,44.100000"/>
<text style="font-size: 9.996000; font-family: Bitstream Vera Serif; font-style: Roman; fill: #000000;" x="342.650000" y="406.900000" >3</text>
</g>
<g id="xtick5">
<path style="fill: none; stroke: #000000; stroke-width: 0.500000; stroke-linejoin: miter; stroke-linecap: butt;  opacity: 1.000000"  d="M 435.825000,396.900000 L 435.825000,391.900000"/>
<path style="fill: none; stroke: #000000; stroke-width: 0.500000; stroke-linejoin: miter; stroke-linecap: butt;  opacity: 1.000000"  d="M 435.825000,49.100000 L 435.825000,44.100000"/>
<text style="font-size: 9.996000; font-family: Bitstream Vera Serif; font-style: Roman; fill: #000000;" x="433.325000" y="406.900000" >4</text>
</g>
<g id="xtick6">
<text style="font-size: 9.996000; font-family: Bitstream Vera Serif; font-style: Roman; fill: #000000;" x="524.000000" y="406.900000" >5</text>
</g>
<text style="font-size: 12.000000; font-family: Bitstream Vera Serif; font-style: Roman; fill: #000000;" x="273.812500" y="420.900000" >Distance</text>
<text style="font-size: 9.996000; font-family: Bitstream Vera Serif; font-style: Roman; fill: #000000;" x="495.500000" y="416.900000" >x1e+5</text>
</g>
<g id="matplotlib.axis2">
<g id="ytick1">
<text style="font-size: 9.996000; font-family: Bitstream Vera Serif; font-style: Roman; fill: #000000;" x="47.125000" y="400.400000" >-0.02</text>
</g>
<g id="ytick2">
<path style="fill: none; stroke: #000000; stroke-width: 0.500000; stroke-linejoin: miter; stroke-linecap: butt;  opacity: 1.000000"  d="M 73.125000,352.800000 L 78.125000,352.800000"/>
<path style="fill: none; stroke: #000000; stroke-width: 0.500000; stroke-linejoin: miter; stroke-linecap: butt;  opacity: 1.000000"  d="M 521.500000,352.800000 L 526.500000,352.800000"/>
<text style="font-size: 9.996000; font-family: Bitstream Vera Serif; font-style: Roman; fill: #000000;" x="50.125000" y="356.300000" >0.00</text>
</g>
<g id="ytick3">
<path style="fill: none; stroke: #000000; stroke-width: 0.500000; stroke-linejoin: miter; stroke-linecap: butt;  opacity: 1.000000"  d="M 73.125000,308.700000 L 78.125000,308.700000"/>
<path style="fill: none; stroke: #000000; stroke-width: 0.500000; stroke-linejoin: miter; stroke-linecap: butt;  opacity: 1.000000"  d="M 521.500000,308.700000 L 526.500000,308.700000"/>
<text style="font-size: 9.996000; font-family: Bitstream Vera Serif; font-style: Roman; fill: #000000;" x="50.125000" y="312.200000" >0.02</text>
</g>
<g id="ytick4">
<path style="fill: none; stroke: #000000; stroke-width: 0.500000; stroke-linejoin: miter; stroke-linecap: butt;  opacity: 1.000000"  d="M 73.125000,264.600000 L 78.125000,264.600000"/>
<path style="fill: none; stroke: #000000; stroke-width: 0.500000; stroke-linejoin: miter; stroke-linecap: butt;  opacity: 1.000000"  d="M 521.500000,264.600000 L 526.500000,264.600000"/>
<text style="font-size: 9.996000; font-family: Bitstream Vera Serif; font-style: Roman; fill: #000000;" x="50.125000" y="268.100000" >0.04</text>
</g>
<g id="ytick5">
<path style="fill: none; stroke: #000000; stroke-width: 0.500000; stroke-linejoin: miter; stroke-linecap: butt;  opacity: 1.000000"  d="M 73.125000,220.500000 L 78.125000,220.500000"/>
<path style="fill: none; stroke: #000000; stroke-width: 0.500000; stroke-linejoin: miter; stroke-linecap: butt;  opacity: 1.000000"  d="M 521.500000,220.500000 L 526.500000,220.500000"/>
<text style="font-size: 9.996000; font-family: Bitstream Vera Serif; font-style: Roman; fill: #000000;" x="50.125000" y="224.000000" >0.06</text>
</g>
<g id="ytick6">
<path style="fill: none; stroke: #000000; stroke-width: 0.500000; stroke-linejoin: miter; stroke-linecap: butt;  opacity: 1.000000"  d="M 73.125000,176.400000 L 78.125000,176.400000"/>
<path style="fill: none; stroke: #000000; stroke-width: 0.500000; stroke-linejoin: miter; stroke-linecap: butt;  opacity: 1.000000"  d="M 521.500000,176.400000 L 526.500000,176.400000"/>
<text style="font-size: 9.996000; font-family: Bitstream Vera Serif; font-style: Roman; fill: #000000;" x="50.125000" y="179.900000" >0.08</text>
</g>
<g id="ytick7">
<path style="fill: none; stroke: #000000; stroke-width: 0.500000; stroke-linejoin: miter; stroke-linecap: butt;  opacity: 1.000000"  d="M 73.125000,132.300000 L 78.125000,132.300000"/>
<path style="fill: none; stroke: #000000; stroke-width: 0.500000; stroke-linejoin: miter; stroke-linecap: butt;  opacity: 1.000000"  d="M 521.500000,132.300000 L 526.500000,132.300000"/>
<text style="font-size: 9.996000; font-family: Bitstream Vera Serif; font-style: Roman; fill: #000000;" x="50.125000" y="135.800000" >0.10</text>
</g>
<g id="ytick8">
<path style="fill: none; stroke: #000000; stroke-width: 0.500000; stroke-linejoin: miter; stroke-linecap: butt;  opacity: 1.000000"  d="M 73.125000,88.200000 L 78.125000,88.200000"/>
<path style="fill: none; stroke: #000000; stroke-width: 0.500000; stroke-linejoin: miter; stroke-linecap: butt;  opacity: 1.000000"  d="M 521.500000,88.200000 L 526.500000,88.200000"/>
<text style="font-size: 9.996000; font-family: Bitstream Vera Serif; font-style: Roman; fill: #000000;" x="50.125000" y="91.700000" >0.12</text>
</g>
<g id="ytick9">
<text style="font-size: 9.996000; font-family: Bitstream Vera Serif; font-style: Roman; fill: #000000;" x="50.125000" y="47.600000" >0.14</text>
</g>
<text style="font-size: 12.000000; font-family: Bitstream Vera Serif; font-style: Roman; fill: #000000;" x="42.125000" y="224.500000" transform="translate(42.125000,224.500000) rotate(-90.0) translate(-42.125000,-224.500000)">D</text>
</g>
<path style="fill: none; stroke: #000000; stroke-width: 1.000000; stroke-linejoin: miter; stroke-linecap: square;  opacity: 1.000000"  d="M 73.125000,396.900000 L 526.500000,396.900000 L 526.500000,44.100000 L 73.125000,44.100000 L 73.125000,396.900000 "/>
<text style="font-size: 14.400000; font-family: Bitstream Vera Serif; font-style: Roman; fill: #000000;" x="267.312500" y="37.044000" >LD decay</text>
</g>
</g>
</svg>
