<?xml version="1.0" standalone="no"?>
<!DOCTYPE svg PUBLIC "-//W3C//DTD SVG 1.1//EN"
  "http://www.w3.org/Graphics/SVG/1.1/DTD/svg11.dtd">
<!-- Created with matplotlib (http://matplotlib.sourceforge.net/) -->
<svg width="585" height="441" viewBox="0 0 585 441"
   xmlns="http://www.w3.org/2000/svg"
   xmlns:xlink="http://www.w3.org/1999/xlink"
   version="1.1"
   id="svg1">
<g id="figure1">
<polygon style="fill: #ffffff; stroke: #ffffff; stroke-width: 1.000000; stroke-linejoin: miter; stroke-linecap: square;  opacity: 1.000000"  points = "0.000000,441.000000 0.000000,0.000000 585.000000,0.000000 585.000000,441.000000"/>
<g id="axes1">
<polygon style="fill: #ffffff; stroke: #000000; stroke-width: 1.000000; stroke-linejoin: miter; stroke-linecap: square;  opacity: 1.000000"  points = "73.125000,396.900000 73.125000,44.100000 526.500000,44.100000 526.500000,396.900000"/>
<defs>
    <clipPath id="7240474723315632415">
    <rect x="73.125000" y="44.100000" width="453.375000" height="352.800000"
    style="stroke: gray; fill: none;"/>
    </clipPath>
</defs>
<polygon style="fill: #0000ff; opacity: 1.000000" clip-path="url(#7240474723315632415)" points = "73.901631,101.100000 72.335631,102.000000 72.335631,103.800000 73.901631,104.700000 75.467631,103.800000 75.467631,102.000000"/>
<polygon style="fill: #0000ff; opacity: 1.000000" clip-path="url(#7240474723315632415)" points = "75.174255,173.411881 73.608255,174.311881 73.608255,176.111881 75.174255,177.011881 76.740255,176.111881 76.740255,174.311881"/>
<polygon style="fill: #0000ff; opacity: 1.000000" clip-path="url(#7240474723315632415)" points = "79.132219,386.580237 77.566219,387.480237 77.566219,389.280237 79.132219,390.180237 80.698219,389.280237 80.698219,387.480237"/>
<polygon style="fill: #0000ff; opacity: 1.000000" clip-path="url(#7240474723315632415)" points = "90.551375,136.102735 88.985375,137.002735 88.985375,138.802735 90.551375,139.702735 92.117375,138.802735 92.117375,137.002735"/>
<polygon style="fill: #0000ff; opacity: 1.000000" clip-path="url(#7240474723315632415)" points = "95.364404,104.958312 93.798404,105.858312 93.798404,107.658312 95.364404,108.558312 96.930404,107.658312 96.930404,105.858312"/>
<polygon style="fill: #0000ff; opacity: 1.000000" clip-path="url(#7240474723315632415)" points = "104.212470,242.902268 102.646470,243.802268 102.646470,245.602268 104.212470,246.502268 105.778470,245.602268 105.778470,243.802268"/>
<polygon style="fill: #0000ff; opacity: 1.000000" clip-path="url(#7240474723315632415)" points = "121.569479,150.009294 120.003479,150.909294 120.003479,152.709294 121.569479,153.609294 123.135479,152.709294 123.135479,150.909294"/>
<polygon style="fill: #0000ff; opacity: 1.000000" clip-path="url(#7240474723315632415)" points = "122.579145,178.580081 121.013145,179.480081 121.013145,181.280081 122.579145,182.180081 124.145145,181.280081 124.145145,179.480081"/>
<polygon style="fill: #0000ff; opacity: 1.000000" clip-path="url(#7240474723315632415)" points = "139.839585,309.822339 138.273585,310.722339 138.273585,312.522339 139.839585,313.422339 141.405585,312.522339 141.405585,310.722339"/>
<polygon style="fill: #0000ff; opacity: 1.000000" clip-path="url(#7240474723315632415)" points = "142.816445,198.293805 141.250445,199.193805 141.250445,200.993805 142.816445,201.893805 144.382445,200.993805 144.382445,199.193805"/>
<polygon style="fill: #0000ff; opacity: 1.000000" clip-path="url(#7240474723315632415)" points = "143.808883,129.237094 142.242883,130.137094 142.242883,131.937094 143.808883,132.837094 145.374883,131.937094 145.374883,130.137094"/>
<polygon style="fill: #0000ff; opacity: 1.000000" clip-path="url(#7240474723315632415)" points = "145.283258,344.191340 143.717258,345.091340 143.717258,346.891340 145.283258,347.791340 146.849258,346.891340 146.849258,345.091340"/>
<polygon style="fill: #0000ff; opacity: 1.000000" clip-path="url(#7240474723315632415)" points = "147.172019,243.902821 145.606019,244.802821 145.606019,246.602821 147.172019,247.502821 148.738019,246.602821 148.738019,244.802821"/>
<polygon style="fill: #0000ff; opacity: 1.000000" clip-path="url(#7240474723315632415)" points = "147.332513,288.343493 145.766513,289.243493 145.766513,291.043493 147.332513,291.943493 148.898513,291.043493 148.898513,289.243493"/>
<polygon style="fill: #0000ff; opacity: 1.000000" clip-path="url(#7240474723315632415)" points = "147.695213,202.943664 146.129213,203.843664 146.129213,205.643664 147.695213,206.543664 149.261213,205.643664 149.261213,203.843664"/>
<polygon style="fill: #0000ff; opacity: 1.000000" clip-path="url(#7240474723315632415)" points = "150.467601,121.934316 148.901601,122.834316 148.901601,124.634316 150.467601,125.534316 152.033601,124.634316 152.033601,122.834316"/>
<polygon style="fill: #0000ff; opacity: 1.000000" clip-path="url(#7240474723315632415)" points = "151.509910,134.363964 149.943910,135.263964 149.943910,137.063964 151.509910,137.963964 153.075910,137.063964 153.075910,135.263964"/>
<polygon style="fill: #0000ff; opacity: 1.000000" clip-path="url(#7240474723315632415)" points = "151.524872,228.007782 149.958872,228.907782 149.958872,230.707782 151.524872,231.607782 153.090872,230.707782 153.090872,228.907782"/>
<polygon style="fill: #0000ff; opacity: 1.000000" clip-path="url(#7240474723315632415)" points = "153.538764,186.884995 151.972764,187.784995 151.972764,189.584995 153.538764,190.484995 155.104764,189.584995 155.104764,187.784995"/>
<polygon style="fill: #0000ff; opacity: 1.000000" clip-path="url(#7240474723315632415)" points = "153.985791,177.070813 152.419791,177.970813 152.419791,179.770813 153.985791,180.670813 155.551791,179.770813 155.551791,177.970813"/>
<polygon style="fill: #0000ff; opacity: 1.000000" clip-path="url(#7240474723315632415)" points = "156.914141,205.769342 155.348140,206.669342 155.348140,208.469342 156.914141,209.369342 158.480141,208.469342 158.480141,206.669342"/>
<polygon style="fill: #0000ff; opacity: 1.000000" clip-path="url(#7240474723315632415)" points = "160.978647,226.326776 159.412647,227.226776 159.412647,229.026776 160.978647,229.926776 162.544647,229.026776 162.544647,227.226776"/>
<polygon style="fill: #0000ff; opacity: 1.000000" clip-path="url(#7240474723315632415)" points = "161.468292,315.688256 159.902292,316.588256 159.902292,318.388256 161.468292,319.288256 163.034292,318.388256 163.034292,316.588256"/>
<polygon style="fill: #0000ff; opacity: 1.000000" clip-path="url(#7240474723315632415)" points = "163.228747,188.633654 161.662747,189.533654 161.662747,191.333654 163.228747,192.233654 164.794747,191.333654 164.794747,189.533654"/>
<polygon style="fill: #0000ff; opacity: 1.000000" clip-path="url(#7240474723315632415)" points = "164.824174,299.527780 163.258174,300.427780 163.258174,302.227780 164.824174,303.127780 166.390174,302.227780 166.390174,300.427780"/>
<polygon style="fill: #0000ff; opacity: 1.000000" clip-path="url(#7240474723315632415)" points = "169.779110,353.300584 168.213110,354.200584 168.213110,356.000584 169.779110,356.900584 171.345110,356.000584 171.345110,354.200584"/>
<polygon style="fill: #0000ff; opacity: 1.000000" clip-path="url(#7240474723315632415)" points = "173.359412,308.452999 171.793412,309.352999 171.793412,311.152999 173.359412,312.052999 174.925412,311.152999 174.925412,309.352999"/>
<polygon style="fill: #0000ff; opacity: 1.000000" clip-path="url(#7240474723315632415)" points = "175.578683,216.567939 174.012683,217.467939 174.012683,219.267939 175.578683,220.167939 177.144683,219.267939 177.144683,217.467939"/>
<polygon style="fill: #0000ff; opacity: 1.000000" clip-path="url(#7240474723315632415)" points = "176.450523,179.695453 174.884523,180.595453 174.884523,182.395453 176.450523,183.295453 178.016523,182.395453 178.016523,180.595453"/>
<polygon style="fill: #0000ff; opacity: 1.000000" clip-path="url(#7240474723315632415)" points = "181.585901,303.722892 180.019901,304.622892 180.019901,306.422892 181.585901,307.322892 183.151901,306.422892 183.151901,304.622892"/>
<polygon style="fill: #0000ff; opacity: 1.000000" clip-path="url(#7240474723315632415)" points = "184.959465,236.391502 183.393465,237.291502 183.393465,239.091502 184.959465,239.991502 186.525465,239.091502 186.525465,237.291502"/>
<polygon style="fill: #0000ff; opacity: 1.000000" clip-path="url(#7240474723315632415)" points = "188.077325,241.573069 186.511325,242.473069 186.511325,244.273069 188.077325,245.173069 189.643325,244.273069 189.643325,242.473069"/>
<polygon style="fill: #0000ff; opacity: 1.000000" clip-path="url(#7240474723315632415)" points = "188.260941,229.431036 186.694941,230.331036 186.694941,232.131036 188.260941,233.031036 189.826941,232.131036 189.826941,230.331036"/>
<polygon style="fill: #0000ff; opacity: 1.000000" clip-path="url(#7240474723315632415)" points = "190.556832,124.134029 188.990832,125.034029 188.990832,126.834029 190.556832,127.734029 192.122832,126.834029 192.122832,125.034029"/>
<polygon style="fill: #0000ff; opacity: 1.000000" clip-path="url(#7240474723315632415)" points = "192.832775,101.100000 191.266775,102.000000 191.266775,103.800000 192.832775,104.700000 194.398775,103.800000 194.398775,102.000000"/>
<polygon style="fill: #0000ff; opacity: 1.000000" clip-path="url(#7240474723315632415)" points = "195.512675,140.045086 193.946675,140.945086 193.946675,142.745086 195.512675,143.645086 197.078675,142.745086 197.078675,140.945086"/>
<polygon style="fill: #0000ff; opacity: 1.000000" clip-path="url(#7240474723315632415)" points = "197.912388,289.341921 196.346388,290.241921 196.346388,292.041921 197.912388,292.941921 199.478388,292.041921 199.478388,290.241921"/>
<polygon style="fill: #0000ff; opacity: 1.000000" clip-path="url(#7240474723315632415)" points = "201.094628,274.022234 199.528627,274.922234 199.528627,276.722234 201.094628,277.622234 202.660628,276.722234 202.660628,274.922234"/>
<polygon style="fill: #0000ff; opacity: 1.000000" clip-path="url(#7240474723315632415)" points = "201.987323,298.362032 200.421323,299.262032 200.421323,301.062032 201.987323,301.962032 203.553323,301.062032 203.553323,299.262032"/>
<polygon style="fill: #0000ff; opacity: 1.000000" clip-path="url(#7240474723315632415)" points = "206.363752,265.644440 204.797752,266.544440 204.797752,268.344440 206.363752,269.244440 207.929752,268.344440 207.929752,266.544440"/>
<polygon style="fill: #0000ff; opacity: 1.000000" clip-path="url(#7240474723315632415)" points = "207.473160,134.575021 205.907160,135.475021 205.907160,137.275021 207.473160,138.175021 209.039160,137.275021 209.039160,135.475021"/>
<polygon style="fill: #0000ff; opacity: 1.000000" clip-path="url(#7240474723315632415)" points = "207.580157,382.178385 206.014157,383.078385 206.014157,384.878385 207.580157,385.778385 209.146157,384.878385 209.146157,383.078385"/>
<polygon style="fill: #0000ff; opacity: 1.000000" clip-path="url(#7240474723315632415)" points = "210.432792,260.507051 208.866792,261.407051 208.866792,263.207051 210.432792,264.107051 211.998792,263.207051 211.998792,261.407051"/>
<polygon style="fill: #0000ff; opacity: 1.000000" clip-path="url(#7240474723315632415)" points = "215.207285,327.629778 213.641285,328.529778 213.641285,330.329778 215.207285,331.229778 216.773285,330.329778 216.773285,328.529778"/>
<polygon style="fill: #0000ff; opacity: 1.000000" clip-path="url(#7240474723315632415)" points = "215.290706,247.359476 213.724705,248.259476 213.724705,250.059476 215.290706,250.959476 216.856706,250.059476 216.856706,248.259476"/>
<polygon style="fill: #0000ff; opacity: 1.000000" clip-path="url(#7240474723315632415)" points = "222.052794,101.100000 220.486794,102.000000 220.486794,103.800000 222.052794,104.700000 223.618794,103.800000 223.618794,102.000000"/>
<polygon style="fill: #0000ff; opacity: 1.000000" clip-path="url(#7240474723315632415)" points = "228.046411,310.478993 226.480411,311.378993 226.480411,313.178993 228.046411,314.078993 229.612411,313.178993 229.612411,311.378993"/>
<polygon style="fill: #0000ff; opacity: 1.000000" clip-path="url(#7240474723315632415)" points = "239.394387,181.221088 237.828387,182.121088 237.828387,183.921088 239.394387,184.821088 240.960387,183.921088 240.960387,182.121088"/>
<polygon style="fill: #0000ff; opacity: 1.000000" clip-path="url(#7240474723315632415)" points = "242.716266,169.666134 241.150266,170.566134 241.150266,172.366134 242.716266,173.266134 244.282266,172.366134 244.282266,170.566134"/>
<polygon style="fill: #0000ff; opacity: 1.000000" clip-path="url(#7240474723315632415)" points = "244.915135,267.012290 243.349135,267.912290 243.349135,269.712290 244.915135,270.612290 246.481135,269.712290 246.481135,267.912290"/>
<polygon style="fill: #0000ff; opacity: 1.000000" clip-path="url(#7240474723315632415)" points = "249.938076,181.564607 248.372076,182.464607 248.372076,184.264607 249.938076,185.164607 251.504076,184.264607 251.504076,182.464607"/>
<polygon style="fill: #0000ff; opacity: 1.000000" clip-path="url(#7240474723315632415)" points = "251.267372,157.364399 249.701372,158.264399 249.701372,160.064399 251.267372,160.964399 252.833372,160.064399 252.833372,158.264399"/>
<polygon style="fill: #0000ff; opacity: 1.000000" clip-path="url(#7240474723315632415)" points = "253.110795,229.110340 251.544795,230.010340 251.544795,231.810340 253.110795,232.710340 254.676795,231.810340 254.676795,230.010340"/>
<polygon style="fill: #0000ff; opacity: 1.000000" clip-path="url(#7240474723315632415)" points = "254.220203,393.033209 252.654203,393.933209 252.654203,395.733209 254.220203,396.633209 255.786203,395.733209 255.786203,393.933209"/>
<polygon style="fill: #0000ff; opacity: 1.000000" clip-path="url(#7240474723315632415)" points = "254.752465,149.816365 253.186465,150.716365 253.186465,152.516365 254.752465,153.416365 256.318466,152.516365 256.318466,150.716365"/>
<polygon style="fill: #0000ff; opacity: 1.000000" clip-path="url(#7240474723315632415)" points = "256.573673,201.781741 255.007673,202.681741 255.007673,204.481741 256.573673,205.381741 258.139673,204.481741 258.139673,202.681741"/>
<polygon style="fill: #0000ff; opacity: 1.000000" clip-path="url(#7240474723315632415)" points = "262.168320,288.355127 260.602320,289.255127 260.602320,291.055127 262.168320,291.955127 263.734320,291.055127 263.734320,289.255127"/>
<polygon style="fill: #0000ff; opacity: 1.000000" clip-path="url(#7240474723315632415)" points = "263.242819,337.312275 261.676819,338.212275 261.676819,340.012275 263.242819,340.912275 264.808819,340.012275 264.808819,338.212275"/>
<polygon style="fill: #0000ff; opacity: 1.000000" clip-path="url(#7240474723315632415)" points = "264.626973,276.749163 263.060973,277.649163 263.060973,279.449163 264.626973,280.349163 266.192973,279.449163 266.192973,277.649163"/>
<polygon style="fill: #0000ff; opacity: 1.000000" clip-path="url(#7240474723315632415)" points = "271.678768,227.704307 270.112768,228.604307 270.112768,230.404307 271.678768,231.304307 273.244768,230.404307 273.244768,228.604307"/>
<polygon style="fill: #0000ff; opacity: 1.000000" clip-path="url(#7240474723315632415)" points = "271.715491,379.730099 270.149491,380.630099 270.149491,382.430099 271.715491,383.330099 273.281491,382.430099 273.281491,380.630099"/>
<polygon style="fill: #0000ff; opacity: 1.000000" clip-path="url(#7240474723315632415)" points = "272.178840,360.777623 270.612840,361.677623 270.612840,363.477623 272.178840,364.377623 273.744840,363.477623 273.744840,361.677623"/>
<polygon style="fill: #0000ff; opacity: 1.000000" clip-path="url(#7240474723315632415)" points = "273.078336,344.118188 271.512336,345.018188 271.512336,346.818188 273.078336,347.718188 274.644336,346.818188 274.644336,345.018188"/>
<polygon style="fill: #0000ff; opacity: 1.000000" clip-path="url(#7240474723315632415)" points = "278.438589,170.610370 276.872589,171.510370 276.872589,173.310370 278.438589,174.210370 280.004589,173.310370 280.004589,171.510370"/>
<polygon style="fill: #0000ff; opacity: 1.000000" clip-path="url(#7240474723315632415)" points = "280.638364,289.479882 279.072364,290.379882 279.072364,292.179882 280.638364,293.079882 282.204364,292.179882 282.204364,290.379882"/>
<polygon style="fill: #0000ff; opacity: 1.000000" clip-path="url(#7240474723315632415)" points = "286.007231,333.731174 284.441231,334.631174 284.441231,336.431174 286.007231,337.331174 287.573231,336.431174 287.573231,334.631174"/>
<polygon style="fill: #0000ff; opacity: 1.000000" clip-path="url(#7240474723315632415)" points = "291.203362,227.750467 289.637362,228.650467 289.637362,230.450467 291.203362,231.350467 292.769362,230.450467 292.769362,228.650467"/>
<polygon style="fill: #0000ff; opacity: 1.000000" clip-path="url(#7240474723315632415)" points = "299.053550,279.915221 297.487550,280.815221 297.487550,282.615221 299.053550,283.515221 300.619550,282.615221 300.619550,280.815221"/>
<polygon style="fill: #0000ff; opacity: 1.000000" clip-path="url(#7240474723315632415)" points = "300.462186,260.146161 298.896186,261.046161 298.896186,262.846161 300.462186,263.746161 302.028186,262.846161 302.028186,261.046161"/>
<polygon style="fill: #0000ff; opacity: 1.000000" clip-path="url(#7240474723315632415)" points = "301.630080,266.390306 300.064080,267.290306 300.064080,269.090306 301.630080,269.990306 303.196080,269.090306 303.196080,267.290306"/>
<polygon style="fill: #0000ff; opacity: 1.000000" clip-path="url(#7240474723315632415)" points = "302.554512,214.900674 300.988512,215.800674 300.988512,217.600674 302.554512,218.500674 304.120512,217.600674 304.120512,215.800674"/>
<polygon style="fill: #0000ff; opacity: 1.000000" clip-path="url(#7240474723315632415)" points = "302.564940,102.270463 300.998940,103.170463 300.998940,104.970463 302.564940,105.870463 304.130940,104.970463 304.130940,103.170463"/>
<polygon style="fill: #0000ff; opacity: 1.000000" clip-path="url(#7240474723315632415)" points = "303.167928,366.610383 301.601928,367.510383 301.601928,369.310383 303.167928,370.210383 304.733928,369.310383 304.733928,367.510383"/>
<polygon style="fill: #0000ff; opacity: 1.000000" clip-path="url(#7240474723315632415)" points = "305.060769,245.660969 303.494769,246.560969 303.494769,248.360969 305.060769,249.260969 306.626769,248.360969 306.626769,246.560969"/>
<polygon style="fill: #0000ff; opacity: 1.000000" clip-path="url(#7240474723315632415)" points = "307.259184,150.910865 305.693184,151.810865 305.693184,153.610865 307.259184,154.510865 308.825184,153.610865 308.825184,151.810865"/>
<polygon style="fill: #0000ff; opacity: 1.000000" clip-path="url(#7240474723315632415)" points = "310.464999,143.216626 308.898999,144.116626 308.898999,145.916626 310.464999,146.816626 312.030999,145.916626 312.030999,144.116626"/>
<polygon style="fill: #0000ff; opacity: 1.000000" clip-path="url(#7240474723315632415)" points = "320.148182,145.791691 318.582182,146.691691 318.582182,148.491691 320.148182,149.391691 321.714182,148.491691 321.714182,146.691691"/>
<polygon style="fill: #0000ff; opacity: 1.000000" clip-path="url(#7240474723315632415)" points = "323.689494,316.781488 322.123494,317.681488 322.123494,319.481488 323.689494,320.381488 325.255494,319.481488 325.255494,317.681488"/>
<polygon style="fill: #0000ff; opacity: 1.000000" clip-path="url(#7240474723315632415)" points = "326.883068,172.718161 325.317068,173.618161 325.317068,175.418161 326.883068,176.318161 328.449068,175.418161 328.449068,173.618161"/>
<polygon style="fill: #0000ff; opacity: 1.000000" clip-path="url(#7240474723315632415)" points = "327.253475,299.785511 325.687475,300.685511 325.687475,302.485511 327.253475,303.385511 328.819475,302.485511 328.819475,300.685511"/>
<polygon style="fill: #0000ff; opacity: 1.000000" clip-path="url(#7240474723315632415)" points = "328.799484,138.923560 327.233484,139.823560 327.233484,141.623560 328.799484,142.523560 330.365484,141.623560 330.365484,139.823560"/>
<polygon style="fill: #0000ff; opacity: 1.000000" clip-path="url(#7240474723315632415)" points = "329.246965,305.404676 327.680965,306.304676 327.680965,308.104676 329.246965,309.004676 330.812965,308.104676 330.812965,306.304676"/>
<polygon style="fill: #0000ff; opacity: 1.000000" clip-path="url(#7240474723315632415)" points = "329.667244,192.185353 328.101244,193.085353 328.101244,194.885353 329.667244,195.785353 331.233244,194.885353 331.233244,193.085353"/>
<polygon style="fill: #0000ff; opacity: 1.000000" clip-path="url(#7240474723315632415)" points = "331.786318,240.364522 330.220319,241.264522 330.220319,243.064522 331.786318,243.964522 333.352318,243.064522 333.352318,241.264522"/>
<polygon style="fill: #0000ff; opacity: 1.000000" clip-path="url(#7240474723315632415)" points = "332.021620,166.076970 330.455620,166.976970 330.455620,168.776970 332.021620,169.676970 333.587620,168.776970 333.587620,166.976970"/>
<polygon style="fill: #0000ff; opacity: 1.000000" clip-path="url(#7240474723315632415)" points = "333.034006,322.536989 331.468007,323.436989 331.468007,325.236989 333.034006,326.136989 334.600006,325.236989 334.600006,323.436989"/>
<polygon style="fill: #0000ff; opacity: 1.000000" clip-path="url(#7240474723315632415)" points = "339.484626,326.493850 337.918626,327.393850 337.918626,329.193850 339.484626,330.093850 341.050626,329.193850 341.050626,327.393850"/>
<polygon style="fill: #0000ff; opacity: 1.000000" clip-path="url(#7240474723315632415)" points = "339.880876,206.609519 338.314876,207.509519 338.314876,209.309519 339.880876,210.209519 341.446876,209.309519 341.446876,207.509519"/>
<polygon style="fill: #0000ff; opacity: 1.000000" clip-path="url(#7240474723315632415)" points = "345.546703,146.357008 343.980703,147.257008 343.980703,149.057008 345.546703,149.957008 347.112703,149.057008 347.112703,147.257008"/>
<polygon style="fill: #0000ff; opacity: 1.000000" clip-path="url(#7240474723315632415)" points = "346.225859,231.486963 344.659859,232.386963 344.659859,234.186963 346.225859,235.086963 347.791859,234.186963 347.791859,232.386963"/>
<polygon style="fill: #0000ff; opacity: 1.000000" clip-path="url(#7240474723315632415)" points = "347.989034,264.377384 346.423034,265.277384 346.423034,267.077384 347.989034,267.977384 349.555034,267.077384 349.555034,265.277384"/>
<polygon style="fill: #0000ff; opacity: 1.000000" clip-path="url(#7240474723315632415)" points = "348.765666,258.508592 347.199666,259.408592 347.199666,261.208592 348.765666,262.108592 350.331666,261.208592 350.331666,259.408592"/>
<polygon style="fill: #0000ff; opacity: 1.000000" clip-path="url(#7240474723315632415)" points = "349.122472,140.463516 347.556472,141.363516 347.556472,143.163516 349.122472,144.063516 350.688472,143.163516 350.688472,141.363516"/>
<polygon style="fill: #0000ff; opacity: 1.000000" clip-path="url(#7240474723315632415)" points = "349.183677,318.275115 347.617677,319.175115 347.617677,320.975115 349.183677,321.875115 350.749677,320.975115 350.749677,319.175115"/>
<polygon style="fill: #0000ff; opacity: 1.000000" clip-path="url(#7240474723315632415)" points = "349.304275,332.097504 347.738275,332.997504 347.738275,334.797504 349.304275,335.697504 350.870275,334.797504 350.870275,332.997504"/>
<polygon style="fill: #0000ff; opacity: 1.000000" clip-path="url(#7240474723315632415)" points = "360.334435,297.356544 358.768436,298.256544 358.768436,300.056544 360.334435,300.956544 361.900435,300.056544 361.900435,298.256544"/>
<polygon style="fill: #0000ff; opacity: 1.000000" clip-path="url(#7240474723315632415)" points = "364.355418,251.758241 362.789418,252.658241 362.789418,254.458241 364.355418,255.358241 365.921418,254.458241 365.921418,252.658241"/>
<polygon style="fill: #0000ff; opacity: 1.000000" clip-path="url(#7240474723315632415)" points = "368.981203,341.559677 367.415204,342.459677 367.415204,344.259677 368.981203,345.159677 370.547203,344.259677 370.547203,342.459677"/>
<polygon style="fill: #0000ff; opacity: 1.000000" clip-path="url(#7240474723315632415)" points = "371.709614,261.374169 370.143614,262.274169 370.143614,264.074169 371.709614,264.974169 373.275614,264.074169 373.275614,262.274169"/>
<polygon style="fill: #0000ff; opacity: 1.000000" clip-path="url(#7240474723315632415)" points = "375.405981,172.967214 373.839981,173.867214 373.839981,175.667214 375.405981,176.567214 376.971981,175.667214 376.971981,173.867214"/>
<polygon style="fill: #0000ff; opacity: 1.000000" clip-path="url(#7240474723315632415)" points = "379.914342,296.579464 378.348342,297.479464 378.348342,299.279464 379.914342,300.179464 381.480342,299.279464 381.480342,297.479464"/>
<polygon style="fill: #0000ff; opacity: 1.000000" clip-path="url(#7240474723315632415)" points = "380.939422,280.585876 379.373423,281.485876 379.373423,283.285876 380.939422,284.185876 382.505422,283.285876 382.505422,281.485876"/>
<polygon style="fill: #0000ff; opacity: 1.000000" clip-path="url(#7240474723315632415)" points = "381.107625,205.032189 379.541625,205.932189 379.541625,207.732189 381.107625,208.632189 382.673625,207.732189 382.673625,205.932189"/>
<polygon style="fill: #0000ff; opacity: 1.000000" clip-path="url(#7240474723315632415)" points = "385.921560,234.756638 384.355560,235.656638 384.355560,237.456638 385.921560,238.356638 387.487560,237.456638 387.487560,235.656638"/>
<polygon style="fill: #0000ff; opacity: 1.000000" clip-path="url(#7240474723315632415)" points = "388.494010,227.645268 386.928010,228.545268 386.928010,230.345268 388.494010,231.245268 390.060010,230.345268 390.060010,228.545268"/>
<polygon style="fill: #0000ff; opacity: 1.000000" clip-path="url(#7240474723315632415)" points = "390.418587,138.213401 388.852587,139.113401 388.852587,140.913401 390.418587,141.813401 391.984587,140.913401 391.984587,139.113401"/>
<polygon style="fill: #0000ff; opacity: 1.000000" clip-path="url(#7240474723315632415)" points = "391.220607,331.258330 389.654607,332.158330 389.654607,333.958330 391.220607,334.858330 392.786607,333.958330 392.786607,332.158330"/>
<polygon style="fill: #0000ff; opacity: 1.000000" clip-path="url(#7240474723315632415)" points = "391.423266,322.506345 389.857266,323.406345 389.857266,325.206345 391.423266,326.106345 392.989266,325.206345 392.989266,323.406345"/>
<polygon style="fill: #0000ff; opacity: 1.000000" clip-path="url(#7240474723315632415)" points = "391.733828,294.050604 390.167828,294.950604 390.167828,296.750604 391.733828,297.650604 393.299828,296.750604 393.299828,294.950604"/>
<polygon style="fill: #0000ff; opacity: 1.000000" clip-path="url(#7240474723315632415)" points = "397.865725,313.021941 396.299725,313.921941 396.299725,315.721941 397.865725,316.621941 399.431725,315.721941 399.431725,313.921941"/>
<polygon style="fill: #0000ff; opacity: 1.000000" clip-path="url(#7240474723315632415)" points = "398.244746,206.590205 396.678746,207.490205 396.678746,209.290205 398.244746,210.190205 399.810746,209.290205 399.810746,207.490205"/>
<polygon style="fill: #0000ff; opacity: 1.000000" clip-path="url(#7240474723315632415)" points = "406.068639,225.938411 404.502639,226.838411 404.502639,228.638411 406.068639,229.538411 407.634639,228.638411 407.634639,226.838411"/>
<polygon style="fill: #0000ff; opacity: 1.000000" clip-path="url(#7240474723315632415)" points = "407.514452,217.869126 405.948452,218.769126 405.948452,220.569126 407.514452,221.469126 409.080451,220.569126 409.080451,218.769126"/>
<polygon style="fill: #0000ff; opacity: 1.000000" clip-path="url(#7240474723315632415)" points = "407.844962,347.416259 406.278962,348.316259 406.278962,350.116259 407.844962,351.016259 409.410962,350.116259 409.410962,348.316259"/>
<polygon style="fill: #0000ff; opacity: 1.000000" clip-path="url(#7240474723315632415)" points = "407.981428,145.723266 406.415428,146.623266 406.415428,148.423266 407.981428,149.323266 409.547428,148.423266 409.547428,146.623266"/>
<polygon style="fill: #0000ff; opacity: 1.000000" clip-path="url(#7240474723315632415)" points = "416.131297,314.750707 414.565297,315.650707 414.565297,317.450707 416.131297,318.350707 417.697297,317.450707 417.697297,315.650707"/>
<polygon style="fill: #0000ff; opacity: 1.000000" clip-path="url(#7240474723315632415)" points = "420.129611,376.541487 418.563611,377.441487 418.563611,379.241487 420.129611,380.141487 421.695611,379.241487 421.695611,377.441487"/>
<polygon style="fill: #0000ff; opacity: 1.000000" clip-path="url(#7240474723315632415)" points = "420.355392,313.589204 418.789392,314.489204 418.789392,316.289204 420.355392,317.189204 421.921392,316.289204 421.921392,314.489204"/>
<polygon style="fill: #0000ff; opacity: 1.000000" clip-path="url(#7240474723315632415)" points = "428.143014,366.354045 426.577014,367.254045 426.577014,369.054045 428.143014,369.954045 429.709014,369.054045 429.709014,367.254045"/>
<polygon style="fill: #0000ff; opacity: 1.000000" clip-path="url(#7240474723315632415)" points = "439.665086,165.422408 438.099086,166.322408 438.099086,168.122408 439.665086,169.022408 441.231086,168.122408 441.231086,166.322408"/>
<polygon style="fill: #0000ff; opacity: 1.000000" clip-path="url(#7240474723315632415)" points = "440.667045,251.988275 439.101045,252.888275 439.101045,254.688275 440.667045,255.588275 442.233045,254.688275 442.233045,252.888275"/>
<polygon style="fill: #0000ff; opacity: 1.000000" clip-path="url(#7240474723315632415)" points = "444.766008,344.149112 443.200008,345.049112 443.200008,346.849112 444.766008,347.749112 446.332008,346.849112 446.332008,345.049112"/>
<polygon style="fill: #0000ff; opacity: 1.000000" clip-path="url(#7240474723315632415)" points = "445.781115,133.138845 444.215115,134.038845 444.215115,135.838845 445.781115,136.738845 447.347115,135.838845 447.347115,134.038845"/>
<polygon style="fill: #0000ff; opacity: 1.000000" clip-path="url(#7240474723315632415)" points = "446.691492,333.864588 445.125492,334.764588 445.125492,336.564588 446.691492,337.464588 448.257492,336.564588 448.257492,334.764588"/>
<polygon style="fill: #0000ff; opacity: 1.000000" clip-path="url(#7240474723315632415)" points = "446.813903,154.922835 445.247903,155.822835 445.247903,157.622835 446.813903,158.522835 448.379903,157.622835 448.379903,155.822835"/>
<polygon style="fill: #0000ff; opacity: 1.000000" clip-path="url(#7240474723315632415)" points = "455.819744,193.216826 454.253744,194.116826 454.253744,195.916826 455.819744,196.816826 457.385744,195.916826 457.385744,194.116826"/>
<polygon style="fill: #0000ff; opacity: 1.000000" clip-path="url(#7240474723315632415)" points = "458.069844,276.071047 456.503844,276.971047 456.503844,278.771047 458.069844,279.671047 459.635844,278.771047 459.635844,276.971047"/>
<polygon style="fill: #0000ff; opacity: 1.000000" clip-path="url(#7240474723315632415)" points = "461.238029,227.721533 459.672029,228.621533 459.672029,230.421533 461.238029,231.321533 462.804029,230.421533 462.804029,228.621533"/>
<polygon style="fill: #0000ff; opacity: 1.000000" clip-path="url(#7240474723315632415)" points = "466.134479,213.364054 464.568479,214.264054 464.568479,216.064054 466.134479,216.964054 467.700479,216.064054 467.700479,214.264054"/>
<polygon style="fill: #0000ff; opacity: 1.000000" clip-path="url(#7240474723315632415)" points = "472.306726,166.185243 470.740726,167.085243 470.740726,168.885243 472.306726,169.785243 473.872726,168.885243 473.872726,167.085243"/>
<polygon style="fill: #0000ff; opacity: 1.000000" clip-path="url(#7240474723315632415)" points = "474.344647,239.341626 472.778647,240.241626 472.778647,242.041626 474.344647,242.941626 475.910647,242.041626 475.910647,240.241626"/>
<polygon style="fill: #0000ff; opacity: 1.000000" clip-path="url(#7240474723315632415)" points = "477.932657,170.130429 476.366657,171.030429 476.366657,172.830429 477.932657,173.730429 479.498656,172.830429 479.498656,171.030429"/>
<polygon style="fill: #0000ff; opacity: 1.000000" clip-path="url(#7240474723315632415)" points = "480.148753,330.521737 478.582754,331.421737 478.582754,333.221737 480.148753,334.121737 481.714753,333.221737 481.714753,331.421737"/>
<polygon style="fill: #0000ff; opacity: 1.000000" clip-path="url(#7240474723315632415)" points = "480.832896,146.175422 479.266896,147.075422 479.266896,148.875422 480.832896,149.775422 482.398896,148.875422 482.398896,147.075422"/>
<polygon style="fill: #0000ff; opacity: 1.000000" clip-path="url(#7240474723315632415)" points = "482.086932,382.161087 480.520932,383.061087 480.520932,384.861087 482.086932,385.761087 483.652932,384.861087 483.652932,383.061087"/>
<polygon style="fill: #0000ff; opacity: 1.000000" clip-path="url(#7240474723315632415)" points = "486.155972,124.185185 484.589972,125.085185 484.589972,126.885185 486.155972,127.785185 487.721972,126.885185 487.721972,125.085185"/>
<polygon style="fill: #0000ff; opacity: 1.000000" clip-path="url(#7240474723315632415)" points = "488.375243,299.572471 486.809243,300.472471 486.809243,302.272471 488.375243,303.172471 489.941243,302.272471 489.941243,300.472471"/>
<polygon style="fill: #0000ff; opacity: 1.000000" clip-path="url(#7240474723315632415)" points = "490.541922,360.856440 488.975922,361.756440 488.975922,363.556440 490.541922,364.456440 492.107922,363.556440 492.107922,361.756440"/>
<polygon style="fill: #0000ff; opacity: 1.000000" clip-path="url(#7240474723315632415)" points = "491.062396,168.182566 489.496397,169.082566 489.496397,170.882566 491.062396,171.782566 492.628396,170.882566 492.628396,169.082566"/>
<polygon style="fill: #0000ff; opacity: 1.000000" clip-path="url(#7240474723315632415)" points = "493.217741,225.393343 491.651741,226.293343 491.651741,228.093343 493.217741,228.993343 494.783741,228.093343 494.783741,226.293343"/>
<polygon style="fill: #0000ff; opacity: 1.000000" clip-path="url(#7240474723315632415)" points = "494.546130,161.113637 492.980130,162.013637 492.980130,163.813637 494.546130,164.713637 496.112130,163.813637 496.112130,162.013637"/>
<polygon style="fill: #0000ff; opacity: 1.000000" clip-path="url(#7240474723315632415)" points = "497.142155,255.163305 495.576155,256.063305 495.576155,257.863305 497.142155,258.763305 498.708155,257.863305 498.708155,256.063305"/>
<polygon style="fill: #0000ff; opacity: 1.000000" clip-path="url(#7240474723315632415)" points = "498.810575,350.489037 497.244575,351.389037 497.244575,353.189037 498.810575,354.089037 500.376575,353.189037 500.376575,351.389037"/>
<polygon style="fill: #0000ff; opacity: 1.000000" clip-path="url(#7240474723315632415)" points = "503.813115,160.823881 502.247115,161.723881 502.247115,163.523881 503.813115,164.423881 505.379115,163.523881 505.379115,161.723881"/>
<polygon style="fill: #0000ff; opacity: 1.000000" clip-path="url(#7240474723315632415)" points = "504.474589,312.715554 502.908589,313.615554 502.908589,315.415554 504.474589,316.315554 506.040589,315.415554 506.040589,313.615554"/>
<polygon style="fill: #0000ff; opacity: 1.000000" clip-path="url(#7240474723315632415)" points = "504.635537,206.536860 503.069537,207.436860 503.069537,209.236860 504.635537,210.136860 506.201537,209.236860 506.201537,207.436860"/>
<polygon style="fill: #0000ff; opacity: 1.000000" clip-path="url(#7240474723315632415)" points = "516.050160,246.365739 514.484160,247.265739 514.484160,249.065739 516.050160,249.965739 517.616160,249.065739 517.616160,247.265739"/>
<polygon style="fill: #0000ff; opacity: 1.000000" clip-path="url(#7240474723315632415)" points = "519.437324,333.952206 517.871324,334.852206 517.871324,336.652206 519.437324,337.552206 521.003324,336.652206 521.003324,334.852206"/>
<path style="fill: none; stroke: #008000; stroke-width: 0.500000; stroke-linejoin: miter; stroke-linecap: square;  opacity: 1.000000" clip-path="url(#7240474723315632415)" d="M 73.901631,182.988695 L 75.174255,183.856373 L 79.132219,186.510713 L 90.551375,193.800063 L 95.364404,196.711758 L 104.212470,201.822388 L 121.569479,210.966930 L 122.579145,211.464040 L 139.839585,219.393925 L 142.816445,220.655740 L 143.808883,221.069669 L 145.283258,221.678423 L 147.172019,222.447535 L 147.332513,222.512336 L 147.695213,222.658460 L 150.467601,223.760876 L 151.509910,224.168734 L 151.524872,224.174562 L 153.538764,224.952354 L 153.985791,225.123196 L 156.914141,226.226222 L 160.978647,227.711328 L 161.468292,227.886673 L 163.228747,228.510826 L 164.824174,229.068030 L 169.779110,230.747957 L 173.359412,231.914860 L 175.578683,232.618686 L 176.450523,232.891143 L 181.585901,234.450267 L 184.959465,235.432530 L 188.077325,236.311254 L 188.260941,236.362142 L 190.556832,236.990390 L 192.832775,237.598605 L 195.512675,238.296375 L 197.912388,238.904501 L 201.094628,239.686919 L 201.987323,239.901540 L 206.363752,240.923279 L 207.473160,241.174337 L 207.580157,241.198382 L 210.432792,241.828586 L 215.207285,242.837156 L 215.290706,242.854271 L 222.052794,244.184736 L 228.046411,245.272247 L 239.394387,247.105251 L 242.716266,247.588007 L 244.915135,247.894592 L 249.938076,248.557000 L 251.267372,248.723627 L 253.110795,248.948794 L 254.220203,249.081025 L 254.752465,249.143598 L 256.573673,249.353474 L 262.168320,249.958005 L 263.242819,250.067297 L 264.626973,250.204909 L 271.678768,250.851676 L 271.715491,250.854812 L 272.178840,250.894165 L 273.078336,250.969488 L 278.438589,251.389447 L 280.638364,251.547767 L 286.007231,251.901023 L 291.203362,252.199632 L 299.053550,252.574054 L 300.462186,252.631875 L 301.630080,252.677720 L 302.554512,252.712677 L 302.564940,252.713064 L 303.167928,252.735229 L 305.060769,252.801616 L 307.259184,252.872739 L 310.464999,252.965201 L 320.148182,253.167450 L 323.689494,253.214158 L 326.883068,253.244516 L 327.253475,253.247335 L 328.799484,253.257558 L 329.246965,253.260057 L 329.667244,253.262218 L 331.786318,253.270400 L 332.021620,253.271033 L 333.034006,253.273134 L 339.484626,253.263675 L 339.880876,253.261852 L 345.546703,253.220983 L 346.225859,253.214289 L 347.989034,253.195191 L 348.765666,253.186005 L 349.122472,253.181629 L 349.183677,253.180868 L 349.304275,253.179361 L 360.334435,252.997447 L 364.355418,252.911401 L 368.981203,252.801058 L 371.709614,252.730767 L 375.405981,252.629936 L 379.914342,252.499093 L 380.939422,252.468249 L 381.107625,252.463152 L 385.921560,252.313245 L 388.494010,252.230258 L 390.418587,252.167032 L 391.220607,252.140422 L 391.423266,252.133674 L 391.733828,252.123316 L 397.865725,251.914975 L 398.244746,251.901894 L 406.068639,251.628543 L 407.514452,251.577612 L 407.844962,251.565963 L 407.981428,251.561153 L 416.131297,251.274691 L 420.129611,251.136009 L 420.355392,251.128240 L 428.143014,250.865896 L 439.665086,250.507158 L 440.667045,250.478166 L 444.766008,250.363978 L 445.781115,250.336864 L 446.691492,250.312963 L 446.813903,250.309780 L 455.819744,250.097210 L 458.069844,250.051377 L 461.238029,249.992308 L 466.134479,249.914453 L 472.306726,249.841642 L 474.344647,249.824274 L 477.932657,249.802256 L 480.148753,249.794326 L 480.832896,249.792780 L 482.086932,249.791074 L 486.155972,249.795855 L 488.375243,249.805337 L 490.541922,249.819447 L 491.062396,249.823565 L 493.217741,249.843685 L 494.546130,249.858585 L 497.142155,249.893338 L 498.810575,249.919693 L 503.813115,250.018234 L 504.474589,250.033514 L 504.635537,250.037313 L 516.050160,250.391201 L 519.437324,250.529866 "/>
<g id="matplotlib.axis1">
<g id="xtick1">
<text style="font-size: 9.996000; font-family: Bitstream Vera Serif; font-style: Roman; fill: #000000;" x="66.125000" y="406.900000" >0.0</text>
</g>
<g id="xtick2">
<path style="fill: none; stroke: #000000; stroke-width: 0.500000; stroke-linejoin: miter; stroke-linecap: butt;  opacity: 1.000000"  d="M 163.800000,396.900000 L 163.800000,391.900000"/>
<path style="fill: none; stroke: #000000; stroke-width: 0.500000; stroke-linejoin: miter; stroke-linecap: butt;  opacity: 1.000000"  d="M 163.800000,49.100000 L 163.800000,44.100000"/>
<text style="font-size: 9.996000; font-family: Bitstream Vera Serif; font-style: Roman; fill: #000000;" x="156.800000" y="406.900000" >0.2</text>
</g>
<g id="xtick3">
<path style="fill: none; stroke: #000000; stroke-width: 0.500000; stroke-linejoin: miter; stroke-linecap: butt;  opacity: 1.000000"  d="M 254.475000,396.900000 L 254.475000,391.900000"/>
<path style="fill: none; stroke: #000000; stroke-width: 0.500000; stroke-linejoin: miter; stroke-linecap: butt;  opacity: 1.000000"  d="M 254.475000,49.100000 L 254.475000,44.100000"/>
<text style="font-size: 9.996000; font-family: Bitstream Vera Serif; font-style: Roman; fill: #000000;" x="247.475000" y="406.900000" >0.4</text>
</g>
<g id="xtick4">
<path style="fill: none; stroke: #000000; stroke-width: 0.500000; stroke-linejoin: miter; stroke-linecap: butt;  opacity: 1.000000"  d="M 345.150000,396.900000 L 345.150000,391.900000"/>
<path style="fill: none; stroke: #000000; stroke-width: 0.500000; stroke-linejoin: miter; stroke-linecap: butt;  opacity: 1.000000"  d="M 345.150000,49.100000 L 345.150000,44.100000"/>
<text style="font-size: 9.996000; font-family: Bitstream Vera Serif; font-style: Roman; fill: #000000;" x="338.150000" y="406.900000" >0.6</text>
</g>
<g id="xtick5">
<path style="fill: none; stroke: #000000; stroke-width: 0.500000; stroke-linejoin: miter; stroke-linecap: butt;  opacity: 1.000000"  d="M 435.825000,396.900000 L 435.825000,391.900000"/>
<path style="fill: none; stroke: #000000; stroke-width: 0.500000; stroke-linejoin: miter; stroke-linecap: butt;  opacity: 1.000000"  d="M 435.825000,49.100000 L 435.825000,44.100000"/>
<text style="font-size: 9.996000; font-family: Bitstream Vera Serif; font-style: Roman; fill: #000000;" x="428.825000" y="406.900000" >0.8</text>
</g>
<g id="xtick6">
<text style="font-size: 9.996000; font-family: Bitstream Vera Serif; font-style: Roman; fill: #000000;" x="520.000000" y="406.900000" >1.0</text>
</g>
<text style="font-size: 12.000000; font-family: Bitstream Vera Serif; font-style: Roman; fill: #000000;" x="273.812500" y="420.900000" >Distance</text>
<text style="font-size: 9.996000; font-family: Bitstream Vera Serif; font-style: Roman; fill: #000000;" x="495.500000" y="416.900000" >x1e+6</text>
</g>
<g id="matplotlib.axis2">
<g id="ytick1">
<text style="font-size: 9.996000; font-family: Bitstream Vera Serif; font-style: Roman; fill: #000000;" x="56.125000" y="400.400000" >0.0</text>
</g>
<g id="ytick2">
<path style="fill: none; stroke: #000000; stroke-width: 0.500000; stroke-linejoin: miter; stroke-linecap: butt;  opacity: 1.000000"  d="M 73.125000,338.100000 L 78.125000,338.100000"/>
<path style="fill: none; stroke: #000000; stroke-width: 0.500000; stroke-linejoin: miter; stroke-linecap: butt;  opacity: 1.000000"  d="M 521.500000,338.100000 L 526.500000,338.100000"/>
<text style="font-size: 9.996000; font-family: Bitstream Vera Serif; font-style: Roman; fill: #000000;" x="56.125000" y="341.600000" >0.2</text>
</g>
<g id="ytick3">
<path style="fill: none; stroke: #000000; stroke-width: 0.500000; stroke-linejoin: miter; stroke-linecap: butt;  opacity: 1.000000"  d="M 73.125000,279.300000 L 78.125000,279.300000"/>
<path style="fill: none; stroke: #000000; stroke-width: 0.500000; stroke-linejoin: miter; stroke-linecap: butt;  opacity: 1.000000"  d="M 521.500000,279.300000 L 526.500000,279.300000"/>
<text style="font-size: 9.996000; font-family: Bitstream Vera Serif; font-style: Roman; fill: #000000;" x="56.125000" y="282.800000" >0.4</text>
</g>
<g id="ytick4">
<path style="fill: none; stroke: #000000; stroke-width: 0.500000; stroke-linejoin: miter; stroke-linecap: butt;  opacity: 1.000000"  d="M 73.125000,220.500000 L 78.125000,220.500000"/>
<path style="fill: none; stroke: #000000; stroke-width: 0.500000; stroke-linejoin: miter; stroke-linecap: butt;  opacity: 1.000000"  d="M 521.500000,220.500000 L 526.500000,220.500000"/>
<text style="font-size: 9.996000; font-family: Bitstream Vera Serif; font-style: Roman; fill: #000000;" x="56.125000" y="224.000000" >0.6</text>
</g>
<g id="ytick5">
<path style="fill: none; stroke: #000000; stroke-width: 0.500000; stroke-linejoin: miter; stroke-linecap: butt;  opacity: 1.000000"  d="M 73.125000,161.700000 L 78.125000,161.700000"/>
<path style="fill: none; stroke: #000000; stroke-width: 0.500000; stroke-linejoin: miter; stroke-linecap: butt;  opacity: 1.000000"  d="M 521.500000,161.700000 L 526.500000,161.700000"/>
<text style="font-size: 9.996000; font-family: Bitstream Vera Serif; font-style: Roman; fill: #000000;" x="56.125000" y="165.200000" >0.8</text>
</g>
<g id="ytick6">
<path style="fill: none; stroke: #000000; stroke-width: 0.500000; stroke-linejoin: miter; stroke-linecap: butt;  opacity: 1.000000"  d="M 73.125000,102.900000 L 78.125000,102.900000"/>
<path style="fill: none; stroke: #000000; stroke-width: 0.500000; stroke-linejoin: miter; stroke-linecap: butt;  opacity: 1.000000"  d="M 521.500000,102.900000 L 526.500000,102.900000"/>
<text style="font-size: 9.996000; font-family: Bitstream Vera Serif; font-style: Roman; fill: #000000;" x="57.125000" y="106.400000" >1.0</text>
</g>
<g id="ytick7">
<text style="font-size: 9.996000; font-family: Bitstream Vera Serif; font-style: Roman; fill: #000000;" x="57.125000" y="47.600000" >1.2</text>
</g>
<text style="font-size: 12.000000; font-family: Bitstream Vera Serif; font-style: Roman; fill: #000000;" x="51.125000" y="225.500000" transform="translate(51.125000,225.500000) rotate(-90.0) translate(-51.125000,-225.500000)">D'</text>
</g>
<path style="fill: none; stroke: #000000; stroke-width: 1.000000; stroke-linejoin: miter; stroke-linecap: square;  opacity: 1.000000"  d="M 73.125000,396.900000 L 526.500000,396.900000 L 526.500000,44.100000 L 73.125000,44.100000 L 73.125000,396.900000 "/>
<text style="font-size: 14.400000; font-family: Bitstream Vera Serif; font-style: Roman; fill: #000000;" x="267.312500" y="37.044000" >LD decay</text>
</g>
</g>
</svg>
